G04 ================== begin FILE IDENTIFICATION RECORD ==================*
G04 Layout Name:  STM32F103_RAK811_THESISNODE.brd*
G04 Film Name:    ASSY_TOP*
G04 File Format:  Gerber RS274X*
G04 File Origin:  Cadence Allegro 17.2-S052*
G04 Origin Date:  Tue Jun 16 10:14:41 2020*
G04 *
G04 Layer:  REF DES/ASSEMBLY_TOP*
G04 Layer:  PACKAGE GEOMETRY/ASSEMBLY_TOP*
G04 Layer:  DRAWING FORMAT/OUTLINE*
G04 Layer:  DRAWING FORMAT/ASSEMBLY_TOP*
G04 Layer:  BOARD GEOMETRY/OUTLINE*
G04 Layer:  BOARD GEOMETRY/LOGO_OUTLINE*
G04 Layer:  BOARD GEOMETRY/ASSEMBLY_TOP*
G04 *
G04 Offset:    (0.00 0.00)*
G04 Mirror:    No*
G04 Mode:      Positive*
G04 Rotation:  0*
G04 FullContactRelief:  No*
G04 UndefLineWidth:     4.00*
G04 ================== end FILE IDENTIFICATION RECORD ====================*
%FSLAX25Y25*MOIN*%
%IR0*IPPOS*OFA0.00000B0.00000*MIA0B0*SFA1.00000B1.00000*%
%ADD10C,.01*%
%ADD11C,.005*%
%ADD12C,.004*%
%ADD13C,.006*%
%ADD14C,.008*%
%ADD15C,.00984*%
%ADD16C,.00787*%
G75*
%LPD*%
G75*
G36*
G01X337496Y1396205D02*
X339465Y1398173D01*
X335528D01*
X337496Y1396205D01*
G37*
G54D10*
G01X360000Y1477000D02*
X369000D01*
X370000Y1476000D01*
X371000Y1477000D01*
X379000D01*
X380000Y1476000D01*
X381000Y1477000D01*
X389000D01*
X390000Y1476000D01*
X391000Y1477000D01*
X399000D01*
X400000Y1476000D01*
X401000Y1477000D01*
X410000D01*
X411000Y1476000D01*
Y1466000D01*
X410000Y1465000D01*
X401000D01*
X400000Y1466000D01*
X399000Y1465000D01*
X391000D01*
X390000Y1466000D01*
X389000Y1465000D01*
X381000D01*
X380000Y1466000D01*
X379000Y1465000D01*
X371000D01*
X370000Y1466000D01*
X369000Y1465000D01*
X360000D01*
X359000Y1466000D01*
Y1476000D01*
X360000Y1477000D01*
G54D11*
G01X265500Y1308500D02*
X269500D01*
G01X267500Y1306500D02*
Y1310500D01*
G01X265500Y1408500D02*
X269500D01*
G01X267500Y1406500D02*
Y1410500D01*
G01X297000Y1317000D02*
Y1291000D01*
X277500D01*
X271000Y1297500D01*
Y1310500D01*
X277500Y1317000D01*
X297000D01*
G01X298500Y1308000D02*
X302500D01*
G01X297000Y1417000D02*
Y1391000D01*
X277500D01*
X271000Y1397500D01*
Y1410500D01*
X277500Y1417000D01*
X297000D01*
G01X298500Y1408000D02*
X302500D01*
G01X351685Y1282567D02*
X312315D01*
Y1251071D01*
X351685D01*
Y1282567D01*
G01X326500Y1378000D02*
Y1394000D01*
X313500D01*
Y1378000D01*
X326500D01*
G01X312500Y1391500D02*
Y1395000D01*
X316000D01*
G01X391685Y1282567D02*
X352315D01*
Y1251071D01*
X391685D01*
Y1282567D01*
G01X431685D02*
X392315D01*
Y1251071D01*
X431685D01*
Y1282567D01*
G01X471685D02*
X432315D01*
Y1251071D01*
X471685D01*
Y1282567D01*
G01X511685D02*
X472315D01*
Y1251071D01*
X511685D01*
Y1282567D01*
G01X499500Y1343658D02*
Y1284658D01*
X531000D01*
Y1343658D01*
X499500D01*
G01Y1403658D02*
Y1344658D01*
X531000D01*
Y1403658D01*
X499500D01*
G01X483000Y1345000D02*
X493000D01*
Y1375000D01*
X483000D01*
Y1345000D01*
G01Y1379000D02*
X493000D01*
Y1409000D01*
X483000D01*
Y1379000D01*
G01X499500Y1463658D02*
Y1404658D01*
X531000D01*
Y1463658D01*
X499500D01*
G01X493000Y1443000D02*
X483000D01*
Y1413000D01*
X493000D01*
Y1443000D01*
G54D12*
G01X245000Y1485000D02*
Y1248000D01*
X534000D01*
Y1485000D01*
X245000D01*
G01X255996Y1347000D02*
Y1341000D01*
X268004D01*
Y1347000D01*
X255996D01*
G01X305700Y1287200D02*
X270300D01*
Y1230200D01*
G01X305700D02*
X270300D01*
G01X305700Y1287200D02*
Y1230200D01*
G01X325512Y1379305D02*
X314488D01*
Y1392691D01*
X325512D01*
Y1379305D01*
G01X340800Y1323900D02*
Y1308100D01*
X375200D01*
Y1323900D01*
X340800D01*
G01X359000Y1308100D02*
X357000D01*
Y1303800D01*
X359000D01*
Y1308100D01*
G01X354000D02*
X352000D01*
Y1303800D01*
X354000D01*
Y1308100D01*
G01X349000D02*
X347000D01*
Y1303800D01*
X349000D01*
Y1308100D01*
G01X344000D02*
X342000D01*
Y1303800D01*
X344000D01*
Y1308100D01*
G01X342000Y1323900D02*
X344000D01*
Y1328200D01*
X342000D01*
Y1323900D01*
G01X347000D02*
X349000D01*
Y1328200D01*
X347000D01*
Y1323900D01*
G01X352000D02*
X354000D01*
Y1328200D01*
X352000D01*
Y1323900D01*
G01X357000D02*
X359000D01*
Y1328200D01*
X357000D01*
Y1323900D01*
G01X336454Y1444014D02*
G03I-681J0D01*
G01X375200Y1314800D02*
G02Y1317200I0J1200D01*
G01X374000Y1308100D02*
X372000D01*
Y1303800D01*
X374000D01*
Y1308100D01*
G01X369000D02*
X367000D01*
Y1303800D01*
X369000D01*
Y1308100D01*
G01X364000D02*
X362000D01*
Y1303800D01*
X364000D01*
Y1308100D01*
G01X362000Y1323900D02*
X364000D01*
Y1328200D01*
X362000D01*
Y1323900D01*
G01X367000D02*
X369000D01*
Y1328200D01*
X367000D01*
Y1323900D01*
G01X372000D02*
X374000D01*
Y1328200D01*
X372000D01*
Y1323900D01*
G01X463600Y1300400D02*
Y1347600D01*
X416400D01*
Y1300400D01*
X463600D01*
G01Y1348400D02*
Y1395600D01*
X416400D01*
Y1348400D01*
X463600D01*
G01Y1396400D02*
Y1443600D01*
X416400D01*
Y1396400D01*
X463600D01*
G01X461780Y1468126D02*
X434220D01*
Y1483874D01*
X461780D01*
Y1468126D01*
G54D13*
G01X263071Y1260000D02*
G03I-7071J0D01*
G01X262500Y1287000D02*
Y1282500D01*
X257500D01*
Y1287000D01*
G01Y1293500D02*
Y1287000D01*
G01X262500Y1293500D02*
Y1287000D01*
G01X261100Y1288400D02*
X258800D01*
G01X261100Y1287700D02*
X258800D01*
G01X259500Y1309500D02*
X261000D01*
G01X259000Y1294500D02*
X261000D01*
G01X260000Y1293500D02*
Y1295500D01*
G01X256500Y1303000D02*
Y1308500D01*
X257000D01*
X263500D01*
Y1303000D01*
G01X256500Y1295500D02*
Y1303000D01*
G01X263500D02*
Y1295500D01*
X256500D01*
G01X257500Y1293500D02*
X262500D01*
G01X263000Y1328500D02*
X267500D01*
Y1323500D01*
X263000D01*
G01X256500D02*
Y1328500D01*
G01Y1323500D02*
X263000D01*
G01X256500Y1328500D02*
X263000D01*
G01X261600Y1327100D02*
Y1324800D01*
G01X262300Y1327100D02*
Y1324800D01*
G01X261000Y1329500D02*
X256500D01*
Y1334500D01*
X261000D01*
G01X267500D02*
Y1329500D01*
G01Y1334500D02*
X261000D01*
G01X267500Y1329500D02*
X261000D01*
G01X262400Y1330900D02*
Y1333200D01*
G01X261700Y1330900D02*
Y1333200D01*
G01X263000Y1358500D02*
X267500D01*
Y1353500D01*
X263000D01*
G01X256500D02*
Y1358500D01*
G01Y1353500D02*
X263000D01*
G01X256500Y1358500D02*
X263000D01*
G01X261600Y1357100D02*
Y1354800D01*
G01X262300Y1357100D02*
Y1354800D01*
G01X263000Y1364500D02*
X267500D01*
Y1359500D01*
X263000D01*
G01X256500D02*
Y1364500D01*
G01Y1359500D02*
X263000D01*
G01X256500Y1364500D02*
X263000D01*
G01X261600Y1363100D02*
Y1360800D01*
G01X262300Y1363100D02*
Y1360800D01*
G01X260000Y1409500D02*
Y1411500D01*
G01X262500Y1405000D02*
Y1400500D01*
X257500D01*
Y1405000D01*
G01Y1411500D02*
Y1405000D01*
G01X262500Y1411500D02*
Y1405000D01*
G01X261100Y1406400D02*
X258800D01*
G01X261100Y1405700D02*
X258800D01*
G01X259500Y1425500D02*
X261000D01*
G01X259000Y1410500D02*
X261000D01*
G01X256500Y1419000D02*
Y1424500D01*
X257000D01*
X263500D01*
Y1419000D01*
G01X256500Y1411500D02*
Y1419000D01*
G01X263500D02*
Y1411500D01*
X256500D01*
G01X257500D02*
X262500D01*
G01X265071Y1474000D02*
G03I-7071J0D01*
G01X276500Y1345000D02*
Y1340500D01*
X271500D01*
Y1345000D01*
G01Y1351500D02*
Y1345000D01*
G01X276500Y1351500D02*
Y1345000D01*
G01X275100Y1346400D02*
X272800D01*
G01X275100Y1345700D02*
X272800D01*
G01X271500Y1351500D02*
X276500D01*
G01X291000Y1379500D02*
X286500D01*
Y1384500D01*
X291000D01*
G01X297500D02*
Y1379500D01*
G01D02*
X291000D01*
G01X297500Y1384500D02*
X291000D01*
G01X292400Y1380900D02*
Y1383200D01*
G01X291700Y1380900D02*
Y1383200D01*
G01X321000Y1304500D02*
X325500D01*
Y1299500D01*
X321000D01*
G01X314500D02*
Y1304500D01*
G01Y1299500D02*
X321000D01*
G01X314500Y1304500D02*
X321000D01*
G01X319600Y1303100D02*
Y1300800D01*
G01X320300Y1303100D02*
Y1300800D01*
G01X321000Y1316500D02*
X325500D01*
Y1311500D01*
X321000D01*
G01X314500D02*
Y1316500D01*
G01Y1311500D02*
X321000D01*
G01X314500Y1316500D02*
X321000D01*
G01X319600Y1315100D02*
Y1312800D01*
G01X320300Y1315100D02*
Y1312800D01*
G01X321000Y1310500D02*
X325500D01*
Y1305500D01*
X321000D01*
G01X314500D02*
Y1310500D01*
G01Y1305500D02*
X321000D01*
G01X314500Y1310500D02*
X321000D01*
G01X319600Y1309100D02*
Y1306800D01*
G01X320300Y1309100D02*
Y1306800D01*
G01X319000Y1372500D02*
X314500D01*
Y1377500D01*
X319000D01*
G01X325500D02*
Y1372500D01*
G01Y1377500D02*
X319000D01*
G01X325500Y1372500D02*
X319000D01*
G01X320400Y1373900D02*
Y1376200D01*
G01X319700Y1373900D02*
Y1376200D01*
G01X319000Y1365500D02*
X314500D01*
Y1370500D01*
X319000D01*
G01X325500D02*
Y1365500D01*
G01Y1370500D02*
X319000D01*
G01X325500Y1365500D02*
X319000D01*
G01X320400Y1366900D02*
Y1369200D01*
G01X319700Y1366900D02*
Y1369200D01*
G01X319000Y1352500D02*
X314500D01*
Y1357500D01*
X319000D01*
G01X325500D02*
Y1352500D01*
G01Y1357500D02*
X319000D01*
G01X325500Y1352500D02*
X319000D01*
G01X320400Y1353900D02*
Y1356200D01*
G01X319700Y1353900D02*
Y1356200D01*
G01X321000Y1363500D02*
X325500D01*
Y1358500D01*
X321000D01*
G01X314500D02*
Y1363500D01*
G01Y1358500D02*
X321000D01*
G01X314500Y1363500D02*
X321000D01*
G01X319600Y1362100D02*
Y1359800D01*
G01X320300Y1362100D02*
Y1359800D01*
G01X321000Y1399500D02*
X325500D01*
Y1394500D01*
X321000D01*
G01X314500D02*
Y1399500D01*
G01Y1394500D02*
X321000D01*
G01X314500Y1399500D02*
X321000D01*
G01X319600Y1398100D02*
Y1395800D01*
G01X320300Y1398100D02*
Y1395800D01*
G01X319000Y1401500D02*
X314500D01*
Y1406500D01*
X319000D01*
G01X325500D02*
Y1401500D01*
G01Y1406500D02*
X319000D01*
G01X325500Y1401500D02*
X319000D01*
G01X320400Y1402900D02*
Y1405200D01*
G01X319700Y1402900D02*
Y1405200D01*
G01X320110Y1443205D02*
X333890D01*
Y1468795D01*
X320110D01*
Y1443205D01*
G01X305500Y1475500D02*
Y1477000D01*
G01X320500Y1475000D02*
Y1477000D01*
G01X321500Y1476000D02*
X319500D01*
G01X312000Y1472500D02*
X306500D01*
Y1473000D01*
Y1479500D01*
X312000D01*
G01X319500Y1472500D02*
X312000D01*
G01Y1479500D02*
X319500D01*
Y1472500D01*
G01X329000Y1478500D02*
X333500D01*
Y1473500D01*
X329000D01*
G01X322500D02*
Y1478500D01*
G01Y1473500D02*
X329000D01*
G01X322500Y1478500D02*
X329000D01*
G01X327600Y1477100D02*
Y1474800D01*
G01X328300Y1477100D02*
Y1474800D01*
G01X342500Y1419000D02*
Y1423500D01*
X347500D01*
Y1419000D01*
G01Y1412500D02*
X342500D01*
G01X347500D02*
Y1419000D01*
G01X342500Y1412500D02*
Y1419000D01*
G01X343900Y1417600D02*
X346200D01*
G01X343900Y1418300D02*
X346200D01*
G01X360500Y1426500D02*
X359000D01*
G01X363500Y1433000D02*
Y1427500D01*
X363000D01*
X356500D01*
Y1433000D01*
G01D02*
Y1440500D01*
X363500D01*
G01X352500Y1426500D02*
X351000D01*
G01X355500Y1433000D02*
Y1427500D01*
X355000D01*
X348500D01*
Y1433000D01*
G01X355500Y1440500D02*
Y1433000D01*
G01X348500D02*
Y1440500D01*
X355500D01*
G01Y1419000D02*
Y1423500D01*
X360500D01*
Y1419000D01*
G01Y1412500D02*
X355500D01*
G01D02*
Y1419000D01*
G01X356900Y1417600D02*
X359200D01*
G01X356900Y1418300D02*
X359200D01*
G01X349500Y1419000D02*
Y1423500D01*
X354500D01*
Y1419000D01*
G01Y1412500D02*
X349500D01*
G01X354500D02*
Y1419000D01*
G01X349500Y1412500D02*
Y1419000D01*
G01X350900Y1417600D02*
X353200D01*
G01X350900Y1418300D02*
X353200D01*
G01X346500Y1453000D02*
Y1457500D01*
X351500D01*
Y1453000D01*
G01Y1446500D02*
X346500D01*
G01X351500D02*
Y1453000D01*
G01X346500Y1446500D02*
Y1453000D01*
G01X347900Y1451600D02*
X350200D01*
G01X347900Y1452300D02*
X350200D01*
G01X351500Y1468000D02*
Y1463500D01*
X346500D01*
Y1468000D01*
G01Y1474500D02*
Y1468000D01*
G01X351500Y1474500D02*
Y1468000D01*
G01X350100Y1469400D02*
X347800D01*
G01X350100Y1468700D02*
X347800D01*
G01X361000Y1441500D02*
X359000D01*
G01X360000Y1442500D02*
Y1440500D01*
G01X353000Y1441500D02*
X351000D01*
G01X352000Y1442500D02*
Y1440500D01*
G01X346500Y1474500D02*
X351500D01*
G01X386500Y1308000D02*
Y1302500D01*
X386000D01*
X379500D01*
Y1308000D01*
G01X386500Y1315500D02*
Y1308000D01*
G01X379500D02*
Y1315500D01*
X386500D01*
G01X370500Y1351000D02*
Y1346500D01*
X365500D01*
Y1351000D01*
G01Y1357500D02*
X370500D01*
G01X365500D02*
Y1351000D01*
G01X370500Y1357500D02*
Y1351000D01*
G01X369100Y1352400D02*
X366800D01*
G01X369100Y1351700D02*
X366800D01*
G01X389000Y1398500D02*
X393500D01*
Y1393500D01*
X389000D01*
G01X382500D02*
Y1398500D01*
G01Y1393500D02*
X389000D01*
G01X382500Y1398500D02*
X389000D01*
G01X387600Y1397100D02*
Y1394800D01*
G01X388300Y1397100D02*
Y1394800D01*
G01X376500Y1426500D02*
X375000D01*
G01X379500Y1433000D02*
Y1427500D01*
X379000D01*
X372500D01*
Y1433000D01*
G01X379500Y1440500D02*
Y1433000D01*
G01X372500D02*
Y1440500D01*
X379500D01*
G01X368500Y1426500D02*
X367000D01*
G01X371500Y1433000D02*
Y1427500D01*
X371000D01*
X364500D01*
Y1433000D01*
G01X371500Y1440500D02*
Y1433000D01*
G01X364500D02*
Y1440500D01*
X371500D01*
G01X363500D02*
Y1433000D01*
G01X373500Y1419000D02*
Y1423500D01*
X378500D01*
Y1419000D01*
G01Y1412500D02*
X373500D01*
G01X378500D02*
Y1419000D01*
G01X373500Y1412500D02*
Y1419000D01*
G01X374900Y1417600D02*
X377200D01*
G01X374900Y1418300D02*
X377200D01*
G01X367500Y1419000D02*
Y1423500D01*
X372500D01*
Y1419000D01*
G01Y1412500D02*
X367500D01*
G01X372500D02*
Y1419000D01*
G01X367500Y1412500D02*
Y1419000D01*
G01X368900Y1417600D02*
X371200D01*
G01X368900Y1418300D02*
X371200D01*
G01X361500Y1419000D02*
Y1423500D01*
X366500D01*
Y1419000D01*
G01Y1412500D02*
X361500D01*
G01X366500D02*
Y1419000D01*
G01X361500Y1412500D02*
Y1419000D01*
G01X362900Y1417600D02*
X365200D01*
G01X362900Y1418300D02*
X365200D01*
G01X360500Y1412500D02*
Y1419000D01*
G01X377000Y1441500D02*
X375000D01*
G01X376000Y1442500D02*
Y1440500D01*
G01X369000Y1441500D02*
X367000D01*
G01X368000Y1442500D02*
Y1440500D01*
G01X412500Y1323000D02*
Y1318500D01*
X407500D01*
Y1323000D01*
G01Y1329500D02*
X412500D01*
G01X407500D02*
Y1323000D01*
G01X412500Y1329500D02*
Y1323000D01*
G01X411100Y1324400D02*
X408800D01*
G01X411100Y1323700D02*
X408800D01*
G01X412500Y1343000D02*
Y1338500D01*
X407500D01*
Y1343000D01*
G01Y1349500D02*
X412500D01*
G01X407500D02*
Y1343000D01*
G01X412500Y1349500D02*
Y1343000D01*
G01X411100Y1344400D02*
X408800D01*
G01X411100Y1343700D02*
X408800D01*
G01X412500Y1371000D02*
Y1366500D01*
X407500D01*
Y1371000D01*
G01Y1377500D02*
X412500D01*
G01X407500D02*
Y1371000D01*
G01X412500Y1377500D02*
Y1371000D01*
G01X411100Y1372400D02*
X408800D01*
G01X411100Y1371700D02*
X408800D01*
G01X412500Y1393000D02*
Y1388500D01*
X407500D01*
Y1393000D01*
G01Y1399500D02*
X412500D01*
G01X407500D02*
Y1393000D01*
G01X412500Y1399500D02*
Y1393000D01*
G01X411100Y1394400D02*
X408800D01*
G01X411100Y1393700D02*
X408800D01*
G01X412500Y1419000D02*
Y1414500D01*
X407500D01*
Y1419000D01*
G01Y1425500D02*
X412500D01*
G01X407500D02*
Y1419000D01*
G01X412500Y1425500D02*
Y1419000D01*
G01X411100Y1420400D02*
X408800D01*
G01X411100Y1419700D02*
X408800D01*
G01X412500Y1439000D02*
Y1434500D01*
X407500D01*
Y1439000D01*
G01Y1445500D02*
Y1439000D01*
G01X412500Y1445500D02*
Y1439000D01*
G01X411100Y1439700D02*
X408800D01*
G01X407500Y1445500D02*
X412500D01*
G01X411100Y1440400D02*
X408800D01*
G01X531071Y1259000D02*
G03I-7071J0D01*
G01Y1473000D02*
G03I-7071J0D01*
G54D14*
G01X250383Y1257500D02*
Y1261500D01*
X251900Y1258167D01*
X253417Y1261500D01*
Y1257500D01*
G01X254775D02*
Y1261500D01*
G01X257225D02*
Y1257500D01*
G01Y1259500D02*
X254775D01*
G01X258992Y1260833D02*
X259342Y1261233D01*
X259750Y1261433D01*
X260217Y1261500D01*
X260800Y1261367D01*
X261208Y1261033D01*
X261325Y1260633D01*
X261267Y1260233D01*
X261033Y1259900D01*
X259867Y1259233D01*
X259342Y1258767D01*
X258992Y1258100D01*
X258875Y1257500D01*
X261325D01*
G01X258000Y1290417D02*
X262000D01*
Y1288958D01*
X261800Y1288492D01*
X261533Y1288200D01*
X261000Y1288083D01*
X260467Y1288200D01*
X260133Y1288550D01*
X259933Y1288958D01*
Y1290417D01*
G01Y1288958D02*
X258000Y1288083D01*
G01X261333Y1286258D02*
X261733Y1285908D01*
X261933Y1285500D01*
X262000Y1285033D01*
X261867Y1284450D01*
X261533Y1284042D01*
X261133Y1283925D01*
X260733Y1283983D01*
X260400Y1284217D01*
X259733Y1285383D01*
X259267Y1285908D01*
X258600Y1286258D01*
X258000Y1286375D01*
Y1283925D01*
G01X262000Y1298867D02*
X258000D01*
Y1300033D01*
X258200Y1300500D01*
X258467Y1300850D01*
X258867Y1301142D01*
X259333Y1301375D01*
X260000Y1301433D01*
X260667Y1301375D01*
X261133Y1301142D01*
X261533Y1300850D01*
X261800Y1300500D01*
X262000Y1300033D01*
Y1298867D01*
G01X261200Y1302967D02*
X261667Y1303317D01*
X261933Y1303783D01*
X262000Y1304308D01*
X261933Y1304775D01*
X261600Y1305242D01*
X261200Y1305533D01*
X260800Y1305592D01*
X260333Y1305475D01*
X260000Y1305067D01*
X259867Y1304658D01*
Y1304133D01*
G01Y1304658D02*
X259667Y1305008D01*
X259333Y1305300D01*
X258933Y1305417D01*
X258533Y1305300D01*
X258200Y1305008D01*
X258000Y1304483D01*
X258067Y1303958D01*
X258333Y1303433D01*
G01X272083Y1326133D02*
X271733Y1326333D01*
X271325Y1326466D01*
X270858D01*
X270333Y1326266D01*
X269925Y1325933D01*
X269633Y1325533D01*
X269400Y1324866D01*
X269342Y1324266D01*
X269458Y1323666D01*
X269633Y1323266D01*
X269983Y1322866D01*
X270392Y1322599D01*
X270800Y1322466D01*
X271208D01*
X271617Y1322599D01*
X271967Y1322799D01*
X272258Y1323066D01*
G01X274900Y1322466D02*
Y1326466D01*
X274200Y1325666D01*
G01Y1322466D02*
X275600D01*
G01X258583Y1330000D02*
Y1334000D01*
X260042D01*
X260508Y1333800D01*
X260800Y1333533D01*
X260917Y1333000D01*
X260800Y1332467D01*
X260450Y1332133D01*
X260042Y1331933D01*
X258583D01*
G01X260042D02*
X260917Y1330000D01*
G01X263850D02*
Y1334000D01*
X263150Y1333200D01*
G01Y1330000D02*
X264550D01*
G01X259667Y1346000D02*
Y1343133D01*
X259900Y1342533D01*
X260367Y1342133D01*
X260950Y1342000D01*
X261533Y1342133D01*
X262000Y1342533D01*
X262233Y1343133D01*
Y1346000D01*
G01X265050Y1342000D02*
Y1346000D01*
X264350Y1345200D01*
G01Y1342000D02*
X265750D01*
G01X259583Y1354000D02*
Y1358000D01*
X261042D01*
X261508Y1357800D01*
X261800Y1357533D01*
X261917Y1357000D01*
X261800Y1356467D01*
X261450Y1356133D01*
X261042Y1355933D01*
X259583D01*
G01X261042D02*
X261917Y1354000D01*
G01X263742Y1355667D02*
X264150Y1356133D01*
X264500Y1356400D01*
X264967Y1356533D01*
X265375Y1356400D01*
X265667Y1356133D01*
X265900Y1355733D01*
X265958Y1355267D01*
X265900Y1354867D01*
X265667Y1354467D01*
X265317Y1354133D01*
X264908Y1354000D01*
X264442Y1354133D01*
X264033Y1354533D01*
X263800Y1355133D01*
X263742Y1355800D01*
X263858Y1356667D01*
X264033Y1357133D01*
X264325Y1357600D01*
X264733Y1357933D01*
X265142Y1358000D01*
X265550Y1357867D01*
X265842Y1357533D01*
G01X259583Y1360000D02*
Y1364000D01*
X261042D01*
X261508Y1363800D01*
X261800Y1363533D01*
X261917Y1363000D01*
X261800Y1362467D01*
X261450Y1362133D01*
X261042Y1361933D01*
X259583D01*
G01X261042D02*
X261917Y1360000D01*
G01X263567Y1360600D02*
X263917Y1360267D01*
X264325Y1360067D01*
X264850Y1360000D01*
X265375Y1360133D01*
X265783Y1360400D01*
X266075Y1360867D01*
X266133Y1361400D01*
X266017Y1361933D01*
X265725Y1362267D01*
X265317Y1362533D01*
X264908Y1362600D01*
X264500Y1362533D01*
X263975Y1362267D01*
X264150Y1364000D01*
X265725D01*
G01X258000Y1408417D02*
X262000D01*
Y1406958D01*
X261800Y1406492D01*
X261533Y1406200D01*
X261000Y1406083D01*
X260467Y1406200D01*
X260133Y1406550D01*
X259933Y1406958D01*
Y1408417D01*
G01Y1406958D02*
X258000Y1406083D01*
G01X258800Y1404433D02*
X258333Y1404083D01*
X258067Y1403617D01*
X258000Y1403092D01*
X258067Y1402625D01*
X258400Y1402158D01*
X258800Y1401867D01*
X259200Y1401808D01*
X259667Y1401925D01*
X260000Y1402333D01*
X260133Y1402742D01*
Y1403267D01*
G01Y1402742D02*
X260333Y1402392D01*
X260667Y1402100D01*
X261067Y1401983D01*
X261467Y1402100D01*
X261800Y1402392D01*
X262000Y1402917D01*
X261933Y1403442D01*
X261667Y1403967D01*
G01X262000Y1414867D02*
X258000D01*
Y1416033D01*
X258200Y1416500D01*
X258467Y1416850D01*
X258867Y1417142D01*
X259333Y1417375D01*
X260000Y1417433D01*
X260667Y1417375D01*
X261133Y1417142D01*
X261533Y1416850D01*
X261800Y1416500D01*
X262000Y1416033D01*
Y1414867D01*
G01Y1420950D02*
X258000D01*
X260867Y1418792D01*
Y1421708D01*
G01X252383Y1471500D02*
Y1475500D01*
X253900Y1472167D01*
X255417Y1475500D01*
Y1471500D01*
G01X256775D02*
Y1475500D01*
G01X259225D02*
Y1471500D01*
G01Y1473500D02*
X256775D01*
G01X262100Y1471500D02*
Y1475500D01*
X261400Y1474700D01*
G01Y1471500D02*
X262800D01*
G01X286800Y1266417D02*
X286400Y1266125D01*
X286133Y1265775D01*
X286000Y1265367D01*
X286133Y1264900D01*
X286400Y1264550D01*
X286800Y1264200D01*
X287333Y1264083D01*
X290000D01*
G01X289333Y1262258D02*
X289733Y1261908D01*
X289933Y1261500D01*
X290000Y1261033D01*
X289867Y1260450D01*
X289533Y1260042D01*
X289133Y1259925D01*
X288733Y1259983D01*
X288400Y1260217D01*
X287733Y1261383D01*
X287267Y1261908D01*
X286600Y1262258D01*
X286000Y1262375D01*
Y1259925D01*
G01X283533Y1306667D02*
X283183Y1306867D01*
X282775Y1307000D01*
X282308D01*
X281783Y1306800D01*
X281375Y1306467D01*
X281083Y1306067D01*
X280850Y1305400D01*
X280792Y1304800D01*
X280908Y1304200D01*
X281083Y1303800D01*
X281433Y1303400D01*
X281842Y1303133D01*
X282250Y1303000D01*
X282658D01*
X283067Y1303133D01*
X283417Y1303333D01*
X283708Y1303600D01*
G01X285067Y1303800D02*
X285417Y1303333D01*
X285883Y1303067D01*
X286408Y1303000D01*
X286875Y1303067D01*
X287342Y1303400D01*
X287633Y1303800D01*
X287692Y1304200D01*
X287575Y1304667D01*
X287167Y1305000D01*
X286758Y1305133D01*
X286233D01*
G01X286758D02*
X287108Y1305333D01*
X287400Y1305667D01*
X287517Y1306067D01*
X287400Y1306467D01*
X287108Y1306800D01*
X286583Y1307000D01*
X286058Y1306933D01*
X285533Y1306667D01*
G01X288667Y1327000D02*
Y1331000D01*
X289833D01*
X290300Y1330800D01*
X290650Y1330533D01*
X290942Y1330133D01*
X291175Y1329667D01*
X291233Y1329000D01*
X291175Y1328333D01*
X290942Y1327867D01*
X290650Y1327467D01*
X290300Y1327200D01*
X289833Y1327000D01*
X288667D01*
G01X292942Y1330333D02*
X293292Y1330733D01*
X293700Y1330933D01*
X294167Y1331000D01*
X294750Y1330867D01*
X295158Y1330533D01*
X295275Y1330133D01*
X295217Y1329733D01*
X294983Y1329400D01*
X293817Y1328733D01*
X293292Y1328267D01*
X292942Y1327600D01*
X292825Y1327000D01*
X295275D01*
G01X290583Y1353000D02*
Y1349000D01*
X292917D01*
G01X295850D02*
Y1353000D01*
X295150Y1352200D01*
G01Y1349000D02*
X296550D01*
G01X291033Y1383667D02*
X290683Y1383867D01*
X290275Y1384000D01*
X289808D01*
X289283Y1383800D01*
X288875Y1383467D01*
X288583Y1383067D01*
X288350Y1382400D01*
X288292Y1381800D01*
X288408Y1381200D01*
X288583Y1380800D01*
X288933Y1380400D01*
X289342Y1380133D01*
X289750Y1380000D01*
X290158D01*
X290567Y1380133D01*
X290917Y1380333D01*
X291208Y1380600D01*
G01X292567D02*
X292917Y1380267D01*
X293325Y1380067D01*
X293850Y1380000D01*
X294375Y1380133D01*
X294783Y1380400D01*
X295075Y1380867D01*
X295133Y1381400D01*
X295017Y1381933D01*
X294725Y1382267D01*
X294317Y1382533D01*
X293908Y1382600D01*
X293500Y1382533D01*
X292975Y1382267D01*
X293150Y1384000D01*
X294725D01*
G01X289980Y1371089D02*
X290330Y1370889D01*
X290738Y1370756D01*
X291205D01*
X291730Y1370956D01*
X292138Y1371289D01*
X292430Y1371689D01*
X292663Y1372356D01*
X292721Y1372956D01*
X292605Y1373556D01*
X292430Y1373956D01*
X292080Y1374356D01*
X291671Y1374623D01*
X291263Y1374756D01*
X290855D01*
X290446Y1374623D01*
X290096Y1374423D01*
X289805Y1374156D01*
G01X288271Y1373089D02*
X287863Y1372623D01*
X287513Y1372356D01*
X287046Y1372223D01*
X286638Y1372356D01*
X286346Y1372623D01*
X286113Y1373023D01*
X286055Y1373489D01*
X286113Y1373889D01*
X286346Y1374289D01*
X286696Y1374623D01*
X287105Y1374756D01*
X287571Y1374623D01*
X287980Y1374223D01*
X288213Y1373623D01*
X288271Y1372956D01*
X288155Y1372089D01*
X287980Y1371623D01*
X287688Y1371156D01*
X287280Y1370823D01*
X286871Y1370756D01*
X286463Y1370889D01*
X286171Y1371223D01*
G01X283533Y1406667D02*
X283183Y1406867D01*
X282775Y1407000D01*
X282308D01*
X281783Y1406800D01*
X281375Y1406467D01*
X281083Y1406067D01*
X280850Y1405400D01*
X280792Y1404800D01*
X280908Y1404200D01*
X281083Y1403800D01*
X281433Y1403400D01*
X281842Y1403133D01*
X282250Y1403000D01*
X282658D01*
X283067Y1403133D01*
X283417Y1403333D01*
X283708Y1403600D01*
G01X287050Y1403000D02*
Y1407000D01*
X284892Y1404133D01*
X287808D01*
G01X280667Y1436000D02*
Y1440000D01*
X281833D01*
X282300Y1439800D01*
X282650Y1439533D01*
X282942Y1439133D01*
X283175Y1438667D01*
X283233Y1438000D01*
X283175Y1437333D01*
X282942Y1436867D01*
X282650Y1436467D01*
X282300Y1436200D01*
X281833Y1436000D01*
X280667D01*
G01X286050D02*
Y1440000D01*
X285350Y1439200D01*
G01Y1436000D02*
X286750D01*
G01X284583Y1464800D02*
X284875Y1464400D01*
X285225Y1464133D01*
X285633Y1464000D01*
X286100Y1464133D01*
X286450Y1464400D01*
X286800Y1464800D01*
X286917Y1465333D01*
Y1468000D01*
G01X289850Y1464000D02*
Y1468000D01*
X289150Y1467200D01*
G01Y1464000D02*
X290550D01*
G01X330083Y1286300D02*
X330375Y1285900D01*
X330725Y1285633D01*
X331133Y1285500D01*
X331600Y1285633D01*
X331950Y1285900D01*
X332300Y1286300D01*
X332417Y1286833D01*
Y1289500D01*
G01X335350Y1285500D02*
Y1289500D01*
X334650Y1288700D01*
G01Y1285500D02*
X336050D01*
G01X339450Y1289500D02*
X338983Y1289367D01*
X338633Y1289033D01*
X338400Y1288633D01*
X338225Y1288100D01*
X338167Y1287500D01*
X338225Y1286900D01*
X338400Y1286367D01*
X338633Y1285967D01*
X338983Y1285633D01*
X339450Y1285500D01*
X339917Y1285633D01*
X340267Y1285967D01*
X340500Y1286367D01*
X340675Y1286900D01*
X340733Y1287500D01*
X340675Y1288100D01*
X340500Y1288633D01*
X340267Y1289033D01*
X339917Y1289367D01*
X339450Y1289500D01*
G01X327548Y1298466D02*
Y1301456D01*
X328794D01*
X329193Y1301306D01*
X329442Y1301107D01*
X329542Y1300708D01*
X329442Y1300310D01*
X329143Y1300061D01*
X328794Y1299911D01*
X327548D01*
G01X328794D02*
X329542Y1298466D01*
G01X331568Y1300958D02*
X331867Y1301257D01*
X332216Y1301406D01*
X332615Y1301456D01*
X333113Y1301356D01*
X333462Y1301107D01*
X333562Y1300808D01*
X333512Y1300509D01*
X333312Y1300260D01*
X332316Y1299762D01*
X331867Y1299413D01*
X331568Y1298914D01*
X331468Y1298466D01*
X333562D01*
G01X335389Y1299064D02*
X335688Y1298715D01*
X336086Y1298516D01*
X336535Y1298466D01*
X336934Y1298516D01*
X337332Y1298765D01*
X337581Y1299064D01*
X337631Y1299363D01*
X337532Y1299712D01*
X337183Y1299961D01*
X336834Y1300061D01*
X336385D01*
G01X336834D02*
X337133Y1300210D01*
X337382Y1300459D01*
X337482Y1300758D01*
X337382Y1301057D01*
X337133Y1301306D01*
X336684Y1301456D01*
X336236Y1301406D01*
X335787Y1301207D01*
G01X327548Y1310466D02*
Y1313456D01*
X328794D01*
X329193Y1313306D01*
X329442Y1313107D01*
X329542Y1312708D01*
X329442Y1312310D01*
X329143Y1312061D01*
X328794Y1311911D01*
X327548D01*
G01X328794D02*
X329542Y1310466D01*
G01X331568Y1312958D02*
X331867Y1313257D01*
X332216Y1313406D01*
X332615Y1313456D01*
X333113Y1313356D01*
X333462Y1313107D01*
X333562Y1312808D01*
X333512Y1312509D01*
X333312Y1312260D01*
X332316Y1311762D01*
X331867Y1311413D01*
X331568Y1310914D01*
X331468Y1310466D01*
X333562D01*
G01X337083D02*
Y1313456D01*
X335239Y1311313D01*
X337731D01*
G01X327548Y1304466D02*
Y1307456D01*
X328794D01*
X329193Y1307306D01*
X329442Y1307107D01*
X329542Y1306708D01*
X329442Y1306310D01*
X329143Y1306061D01*
X328794Y1305911D01*
X327548D01*
G01X328794D02*
X329542Y1304466D01*
G01X331568Y1306958D02*
X331867Y1307257D01*
X332216Y1307406D01*
X332615Y1307456D01*
X333113Y1307356D01*
X333462Y1307107D01*
X333562Y1306808D01*
X333512Y1306509D01*
X333312Y1306260D01*
X332316Y1305762D01*
X331867Y1305413D01*
X331568Y1304914D01*
X331468Y1304466D01*
X333562D01*
G01X335389Y1304914D02*
X335688Y1304665D01*
X336036Y1304516D01*
X336485Y1304466D01*
X336934Y1304566D01*
X337282Y1304765D01*
X337532Y1305114D01*
X337581Y1305512D01*
X337482Y1305911D01*
X337232Y1306160D01*
X336884Y1306360D01*
X336535Y1306409D01*
X336186Y1306360D01*
X335738Y1306160D01*
X335887Y1307456D01*
X337232D01*
G01X318033Y1376667D02*
X317683Y1376867D01*
X317275Y1377000D01*
X316808D01*
X316283Y1376800D01*
X315875Y1376467D01*
X315583Y1376067D01*
X315350Y1375400D01*
X315292Y1374800D01*
X315408Y1374200D01*
X315583Y1373800D01*
X315933Y1373400D01*
X316342Y1373133D01*
X316750Y1373000D01*
X317158D01*
X317567Y1373133D01*
X317917Y1373333D01*
X318208Y1373600D01*
G01X320850Y1373000D02*
Y1377000D01*
X320150Y1376200D01*
G01Y1373000D02*
X321550D01*
G01X323667Y1373600D02*
X324017Y1373267D01*
X324425Y1373067D01*
X324950Y1373000D01*
X325475Y1373133D01*
X325883Y1373400D01*
X326175Y1373867D01*
X326233Y1374400D01*
X326117Y1374933D01*
X325825Y1375267D01*
X325417Y1375533D01*
X325008Y1375600D01*
X324600Y1375533D01*
X324075Y1375267D01*
X324250Y1377000D01*
X325825D01*
G01X318033Y1369667D02*
X317683Y1369867D01*
X317275Y1370000D01*
X316808D01*
X316283Y1369800D01*
X315875Y1369467D01*
X315583Y1369067D01*
X315350Y1368400D01*
X315292Y1367800D01*
X315408Y1367200D01*
X315583Y1366800D01*
X315933Y1366400D01*
X316342Y1366133D01*
X316750Y1366000D01*
X317158D01*
X317567Y1366133D01*
X317917Y1366333D01*
X318208Y1366600D01*
G01X320850Y1366000D02*
Y1370000D01*
X320150Y1369200D01*
G01Y1366000D02*
X321550D01*
G01X324950Y1370000D02*
X324483Y1369867D01*
X324133Y1369533D01*
X323900Y1369133D01*
X323725Y1368600D01*
X323667Y1368000D01*
X323725Y1367400D01*
X323900Y1366867D01*
X324133Y1366467D01*
X324483Y1366133D01*
X324950Y1366000D01*
X325417Y1366133D01*
X325767Y1366467D01*
X326000Y1366867D01*
X326175Y1367400D01*
X326233Y1368000D01*
X326175Y1368600D01*
X326000Y1369133D01*
X325767Y1369533D01*
X325417Y1369867D01*
X324950Y1370000D01*
G01X318033Y1356667D02*
X317683Y1356867D01*
X317275Y1357000D01*
X316808D01*
X316283Y1356800D01*
X315875Y1356467D01*
X315583Y1356067D01*
X315350Y1355400D01*
X315292Y1354800D01*
X315408Y1354200D01*
X315583Y1353800D01*
X315933Y1353400D01*
X316342Y1353133D01*
X316750Y1353000D01*
X317158D01*
X317567Y1353133D01*
X317917Y1353333D01*
X318208Y1353600D01*
G01X320850Y1353000D02*
Y1357000D01*
X320150Y1356200D01*
G01Y1353000D02*
X321550D01*
G01X324950D02*
X325358Y1353067D01*
X325825Y1353267D01*
X326117Y1353600D01*
X326233Y1354067D01*
X326117Y1354533D01*
X325767Y1354933D01*
X325242Y1355133D01*
X324658D01*
X324308Y1355267D01*
X324017Y1355600D01*
X323900Y1356067D01*
X324075Y1356533D01*
X324483Y1356867D01*
X324950Y1357000D01*
X325417Y1356867D01*
X325825Y1356533D01*
X326000Y1356067D01*
X325883Y1355600D01*
X325592Y1355267D01*
X325242Y1355133D01*
X324658D01*
X324133Y1354933D01*
X323783Y1354533D01*
X323667Y1354067D01*
X323783Y1353600D01*
X324075Y1353267D01*
X324542Y1353067D01*
X324950Y1353000D01*
G01X316583Y1359000D02*
Y1363000D01*
X318042D01*
X318508Y1362800D01*
X318800Y1362533D01*
X318917Y1362000D01*
X318800Y1361467D01*
X318450Y1361133D01*
X318042Y1360933D01*
X316583D01*
G01X318042D02*
X318917Y1359000D01*
G01X321850D02*
Y1363000D01*
X321150Y1362200D01*
G01Y1359000D02*
X322550D01*
G01X324842Y1362333D02*
X325192Y1362733D01*
X325600Y1362933D01*
X326067Y1363000D01*
X326650Y1362867D01*
X327058Y1362533D01*
X327175Y1362133D01*
X327117Y1361733D01*
X326883Y1361400D01*
X325717Y1360733D01*
X325192Y1360267D01*
X324842Y1359600D01*
X324725Y1359000D01*
X327175D01*
G01X318033Y1398667D02*
X317683Y1398867D01*
X317275Y1399000D01*
X316808D01*
X316283Y1398800D01*
X315875Y1398467D01*
X315583Y1398067D01*
X315350Y1397400D01*
X315292Y1396800D01*
X315408Y1396200D01*
X315583Y1395800D01*
X315933Y1395400D01*
X316342Y1395133D01*
X316750Y1395000D01*
X317158D01*
X317567Y1395133D01*
X317917Y1395333D01*
X318208Y1395600D01*
G01X320850Y1395000D02*
Y1399000D01*
X320150Y1398200D01*
G01Y1395000D02*
X321550D01*
G01X325650D02*
Y1399000D01*
X323492Y1396133D01*
X326408D01*
G01X318033Y1405667D02*
X317683Y1405867D01*
X317275Y1406000D01*
X316808D01*
X316283Y1405800D01*
X315875Y1405467D01*
X315583Y1405067D01*
X315350Y1404400D01*
X315292Y1403800D01*
X315408Y1403200D01*
X315583Y1402800D01*
X315933Y1402400D01*
X316342Y1402133D01*
X316750Y1402000D01*
X317158D01*
X317567Y1402133D01*
X317917Y1402333D01*
X318208Y1402600D01*
G01X320850Y1402000D02*
Y1406000D01*
X320150Y1405200D01*
G01Y1402000D02*
X321550D01*
G01X324950D02*
Y1406000D01*
X324250Y1405200D01*
G01Y1402000D02*
X325650D01*
G01X318750Y1384000D02*
Y1385800D01*
X317583Y1388000D01*
G01X319917D02*
X318750Y1385800D01*
G01X322850Y1384000D02*
Y1388000D01*
X322150Y1387200D01*
G01Y1384000D02*
X323550D01*
G01X323367Y1459500D02*
Y1456633D01*
X323600Y1456033D01*
X324067Y1455633D01*
X324650Y1455500D01*
X325233Y1455633D01*
X325700Y1456033D01*
X325933Y1456633D01*
Y1459500D01*
G01X327642Y1458833D02*
X327992Y1459233D01*
X328400Y1459433D01*
X328867Y1459500D01*
X329450Y1459367D01*
X329858Y1459033D01*
X329975Y1458633D01*
X329917Y1458233D01*
X329683Y1457900D01*
X328517Y1457233D01*
X327992Y1456767D01*
X327642Y1456100D01*
X327525Y1455500D01*
X329975D01*
G01X316133Y1478000D02*
Y1474000D01*
X314967D01*
X314500Y1474200D01*
X314150Y1474467D01*
X313858Y1474867D01*
X313625Y1475333D01*
X313567Y1476000D01*
X313625Y1476667D01*
X313858Y1477133D01*
X314150Y1477533D01*
X314500Y1477800D01*
X314967Y1478000D01*
X316133D01*
G01X312033Y1477400D02*
X311683Y1477733D01*
X311275Y1477933D01*
X310750Y1478000D01*
X310225Y1477867D01*
X309817Y1477600D01*
X309525Y1477133D01*
X309467Y1476600D01*
X309583Y1476067D01*
X309875Y1475733D01*
X310283Y1475467D01*
X310692Y1475400D01*
X311100Y1475467D01*
X311625Y1475733D01*
X311450Y1474000D01*
X309875D01*
G01X325583D02*
Y1478000D01*
X327042D01*
X327508Y1477800D01*
X327800Y1477533D01*
X327917Y1477000D01*
X327800Y1476467D01*
X327450Y1476133D01*
X327042Y1475933D01*
X325583D01*
G01X327042D02*
X327917Y1474000D01*
G01X331550D02*
Y1478000D01*
X329392Y1475133D01*
X332308D01*
G01X360394Y1385108D02*
X357527D01*
X356927Y1384875D01*
X356527Y1384408D01*
X356394Y1383825D01*
X356527Y1383242D01*
X356927Y1382775D01*
X357527Y1382542D01*
X360394D01*
G01X357194Y1381008D02*
X356727Y1380658D01*
X356461Y1380192D01*
X356394Y1379667D01*
X356461Y1379200D01*
X356794Y1378733D01*
X357194Y1378442D01*
X357594Y1378383D01*
X358061Y1378500D01*
X358394Y1378908D01*
X358527Y1379317D01*
Y1379842D01*
G01Y1379317D02*
X358727Y1378967D01*
X359061Y1378675D01*
X359461Y1378558D01*
X359861Y1378675D01*
X360194Y1378967D01*
X360394Y1379492D01*
X360327Y1380017D01*
X360061Y1380542D01*
G01X343333Y1418033D02*
X343133Y1417683D01*
X343000Y1417275D01*
Y1416808D01*
X343200Y1416283D01*
X343533Y1415875D01*
X343933Y1415583D01*
X344600Y1415350D01*
X345200Y1415292D01*
X345800Y1415408D01*
X346200Y1415583D01*
X346600Y1415933D01*
X346867Y1416342D01*
X347000Y1416750D01*
Y1417158D01*
X346867Y1417567D01*
X346667Y1417917D01*
X346400Y1418208D01*
G01X346533Y1419858D02*
X346867Y1420267D01*
X347000Y1420733D01*
X346867Y1421200D01*
X346467Y1421608D01*
X345867Y1421900D01*
X345267Y1422017D01*
X344533D01*
X343933Y1421900D01*
X343400Y1421608D01*
X343133Y1421258D01*
X343000Y1420850D01*
X343133Y1420383D01*
X343400Y1420033D01*
X343800Y1419800D01*
X344333Y1419683D01*
X344800Y1419800D01*
X345267Y1420092D01*
X345533Y1420442D01*
X345600Y1420850D01*
X345467Y1421317D01*
X345133Y1421667D01*
X344533Y1422017D01*
G01X358000Y1437133D02*
X362000D01*
Y1435967D01*
X361800Y1435500D01*
X361533Y1435150D01*
X361133Y1434858D01*
X360667Y1434625D01*
X360000Y1434567D01*
X359333Y1434625D01*
X358867Y1434858D01*
X358467Y1435150D01*
X358200Y1435500D01*
X358000Y1435967D01*
Y1437133D01*
G01Y1431750D02*
X358067Y1431342D01*
X358267Y1430875D01*
X358600Y1430583D01*
X359067Y1430467D01*
X359533Y1430583D01*
X359933Y1430933D01*
X360133Y1431458D01*
Y1432042D01*
X360267Y1432392D01*
X360600Y1432683D01*
X361067Y1432800D01*
X361533Y1432625D01*
X361867Y1432217D01*
X362000Y1431750D01*
X361867Y1431283D01*
X361533Y1430875D01*
X361067Y1430700D01*
X360600Y1430817D01*
X360267Y1431108D01*
X360133Y1431458D01*
Y1432042D01*
X359933Y1432567D01*
X359533Y1432917D01*
X359067Y1433033D01*
X358600Y1432917D01*
X358267Y1432625D01*
X358067Y1432158D01*
X358000Y1431750D01*
G01X350000Y1437533D02*
X354000D01*
Y1436367D01*
X353800Y1435900D01*
X353533Y1435550D01*
X353133Y1435258D01*
X352667Y1435025D01*
X352000Y1434967D01*
X351333Y1435025D01*
X350867Y1435258D01*
X350467Y1435550D01*
X350200Y1435900D01*
X350000Y1436367D01*
Y1437533D01*
G01X350467Y1433142D02*
X350133Y1432733D01*
X350000Y1432267D01*
X350133Y1431800D01*
X350533Y1431392D01*
X351133Y1431100D01*
X351733Y1430983D01*
X352467D01*
X353067Y1431100D01*
X353600Y1431392D01*
X353867Y1431742D01*
X354000Y1432150D01*
X353867Y1432617D01*
X353600Y1432967D01*
X353200Y1433200D01*
X352667Y1433317D01*
X352200Y1433200D01*
X351733Y1432908D01*
X351467Y1432558D01*
X351400Y1432150D01*
X351533Y1431683D01*
X351867Y1431333D01*
X352467Y1430983D01*
G01X360000Y1413583D02*
X356000D01*
Y1415042D01*
X356200Y1415508D01*
X356467Y1415800D01*
X357000Y1415917D01*
X357533Y1415800D01*
X357867Y1415450D01*
X358067Y1415042D01*
Y1413583D01*
G01Y1415042D02*
X360000Y1415917D01*
G01Y1418850D02*
X356000D01*
X356800Y1418150D01*
G01X360000D02*
Y1419550D01*
G01Y1422950D02*
X356000D01*
X356800Y1422250D01*
G01X360000D02*
Y1423650D01*
G01X354000Y1413583D02*
X350000D01*
Y1415042D01*
X350200Y1415508D01*
X350467Y1415800D01*
X351000Y1415917D01*
X351533Y1415800D01*
X351867Y1415450D01*
X352067Y1415042D01*
Y1413583D01*
G01Y1415042D02*
X354000Y1415917D01*
G01Y1418733D02*
X353133Y1418850D01*
X352400Y1419025D01*
X351733Y1419258D01*
X351000Y1419550D01*
X350000Y1420017D01*
Y1417683D01*
G01X346333Y1452033D02*
X346133Y1451683D01*
X346000Y1451275D01*
Y1450808D01*
X346200Y1450283D01*
X346533Y1449875D01*
X346933Y1449583D01*
X347600Y1449350D01*
X348200Y1449292D01*
X348800Y1449408D01*
X349200Y1449583D01*
X349600Y1449933D01*
X349867Y1450342D01*
X350000Y1450750D01*
Y1451158D01*
X349867Y1451567D01*
X349667Y1451917D01*
X349400Y1452208D01*
G01X350000Y1454850D02*
X349933Y1455258D01*
X349733Y1455725D01*
X349400Y1456017D01*
X348933Y1456133D01*
X348467Y1456017D01*
X348067Y1455667D01*
X347867Y1455142D01*
Y1454558D01*
X347733Y1454208D01*
X347400Y1453917D01*
X346933Y1453800D01*
X346467Y1453975D01*
X346133Y1454383D01*
X346000Y1454850D01*
X346133Y1455317D01*
X346467Y1455725D01*
X346933Y1455900D01*
X347400Y1455783D01*
X347733Y1455492D01*
X347867Y1455142D01*
Y1454558D01*
X348067Y1454033D01*
X348467Y1453683D01*
X348933Y1453567D01*
X349400Y1453683D01*
X349733Y1453975D01*
X349933Y1454442D01*
X350000Y1454850D01*
G01X350667Y1468967D02*
X350867Y1469317D01*
X351000Y1469725D01*
Y1470192D01*
X350800Y1470717D01*
X350467Y1471125D01*
X350067Y1471417D01*
X349400Y1471650D01*
X348800Y1471708D01*
X348200Y1471592D01*
X347800Y1471417D01*
X347400Y1471067D01*
X347133Y1470658D01*
X347000Y1470250D01*
Y1469842D01*
X347133Y1469433D01*
X347333Y1469083D01*
X347600Y1468792D01*
G01X347000Y1466267D02*
X347867Y1466150D01*
X348600Y1465975D01*
X349267Y1465742D01*
X350000Y1465450D01*
X351000Y1464983D01*
Y1467317D01*
G01X370083Y1286300D02*
X370375Y1285900D01*
X370725Y1285633D01*
X371133Y1285500D01*
X371600Y1285633D01*
X371950Y1285900D01*
X372300Y1286300D01*
X372417Y1286833D01*
Y1289500D01*
G01X375350Y1285500D02*
X375758Y1285567D01*
X376225Y1285767D01*
X376517Y1286100D01*
X376633Y1286567D01*
X376517Y1287033D01*
X376167Y1287433D01*
X375642Y1287633D01*
X375058D01*
X374708Y1287767D01*
X374417Y1288100D01*
X374300Y1288567D01*
X374475Y1289033D01*
X374883Y1289367D01*
X375350Y1289500D01*
X375817Y1289367D01*
X376225Y1289033D01*
X376400Y1288567D01*
X376283Y1288100D01*
X375992Y1287767D01*
X375642Y1287633D01*
X375058D01*
X374533Y1287433D01*
X374183Y1287033D01*
X374067Y1286567D01*
X374183Y1286100D01*
X374475Y1285767D01*
X374942Y1285567D01*
X375350Y1285500D01*
G01X385667Y1309167D02*
X385867Y1309517D01*
X386000Y1309925D01*
Y1310392D01*
X385800Y1310917D01*
X385467Y1311325D01*
X385067Y1311617D01*
X384400Y1311850D01*
X383800Y1311908D01*
X383200Y1311792D01*
X382800Y1311617D01*
X382400Y1311267D01*
X382133Y1310858D01*
X382000Y1310450D01*
Y1310042D01*
X382133Y1309633D01*
X382333Y1309283D01*
X382600Y1308992D01*
G01X385333Y1307458D02*
X385733Y1307108D01*
X385933Y1306700D01*
X386000Y1306233D01*
X385867Y1305650D01*
X385533Y1305242D01*
X385133Y1305125D01*
X384733Y1305183D01*
X384400Y1305417D01*
X383733Y1306583D01*
X383267Y1307108D01*
X382600Y1307458D01*
X382000Y1307575D01*
Y1305125D01*
G01X385333Y1303358D02*
X385733Y1303008D01*
X385933Y1302600D01*
X386000Y1302133D01*
X385867Y1301550D01*
X385533Y1301142D01*
X385133Y1301025D01*
X384733Y1301083D01*
X384400Y1301317D01*
X383733Y1302483D01*
X383267Y1303008D01*
X382600Y1303358D01*
X382000Y1303475D01*
Y1301025D01*
G01X371667Y1340967D02*
X371867Y1341317D01*
X372000Y1341725D01*
Y1342192D01*
X371800Y1342717D01*
X371467Y1343125D01*
X371067Y1343417D01*
X370400Y1343650D01*
X369800Y1343708D01*
X369200Y1343592D01*
X368800Y1343417D01*
X368400Y1343067D01*
X368133Y1342658D01*
X368000Y1342250D01*
Y1341842D01*
X368133Y1341433D01*
X368333Y1341083D01*
X368600Y1340792D01*
G01X368000Y1338150D02*
X372000D01*
X371200Y1338850D01*
G01X368000D02*
Y1337450D01*
G01X371333Y1335158D02*
X371733Y1334808D01*
X371933Y1334400D01*
X372000Y1333933D01*
X371867Y1333350D01*
X371533Y1332942D01*
X371133Y1332825D01*
X370733Y1332883D01*
X370400Y1333117D01*
X369733Y1334283D01*
X369267Y1334808D01*
X368600Y1335158D01*
X368000Y1335275D01*
Y1332825D01*
G01X384000Y1333333D02*
X381133D01*
X380533Y1333100D01*
X380133Y1332633D01*
X380000Y1332050D01*
X380133Y1331467D01*
X380533Y1331000D01*
X381133Y1330767D01*
X384000D01*
G01X380000Y1328067D02*
X380867Y1327950D01*
X381600Y1327775D01*
X382267Y1327542D01*
X383000Y1327250D01*
X384000Y1326783D01*
Y1329117D01*
G01X374000Y1437133D02*
X378000D01*
Y1435967D01*
X377800Y1435500D01*
X377533Y1435150D01*
X377133Y1434858D01*
X376667Y1434625D01*
X376000Y1434567D01*
X375333Y1434625D01*
X374867Y1434858D01*
X374467Y1435150D01*
X374200Y1435500D01*
X374000Y1435967D01*
Y1437133D01*
G01X375667Y1432858D02*
X376133Y1432450D01*
X376400Y1432100D01*
X376533Y1431633D01*
X376400Y1431225D01*
X376133Y1430933D01*
X375733Y1430700D01*
X375267Y1430642D01*
X374867Y1430700D01*
X374467Y1430933D01*
X374133Y1431283D01*
X374000Y1431692D01*
X374133Y1432158D01*
X374533Y1432567D01*
X375133Y1432800D01*
X375800Y1432858D01*
X376667Y1432742D01*
X377133Y1432567D01*
X377600Y1432275D01*
X377933Y1431867D01*
X378000Y1431458D01*
X377867Y1431050D01*
X377533Y1430758D01*
G01X366000Y1437133D02*
X370000D01*
Y1435967D01*
X369800Y1435500D01*
X369533Y1435150D01*
X369133Y1434858D01*
X368667Y1434625D01*
X368000Y1434567D01*
X367333Y1434625D01*
X366867Y1434858D01*
X366467Y1435150D01*
X366200Y1435500D01*
X366000Y1435967D01*
Y1437133D01*
G01Y1431867D02*
X366867Y1431750D01*
X367600Y1431575D01*
X368267Y1431342D01*
X369000Y1431050D01*
X370000Y1430583D01*
Y1432917D01*
G01X378000Y1413583D02*
X374000D01*
Y1415042D01*
X374200Y1415508D01*
X374467Y1415800D01*
X375000Y1415917D01*
X375533Y1415800D01*
X375867Y1415450D01*
X376067Y1415042D01*
Y1413583D01*
G01Y1415042D02*
X378000Y1415917D01*
G01Y1418850D02*
X377933Y1419258D01*
X377733Y1419725D01*
X377400Y1420017D01*
X376933Y1420133D01*
X376467Y1420017D01*
X376067Y1419667D01*
X375867Y1419142D01*
Y1418558D01*
X375733Y1418208D01*
X375400Y1417917D01*
X374933Y1417800D01*
X374467Y1417975D01*
X374133Y1418383D01*
X374000Y1418850D01*
X374133Y1419317D01*
X374467Y1419725D01*
X374933Y1419900D01*
X375400Y1419783D01*
X375733Y1419492D01*
X375867Y1419142D01*
Y1418558D01*
X376067Y1418033D01*
X376467Y1417683D01*
X376933Y1417567D01*
X377400Y1417683D01*
X377733Y1417975D01*
X377933Y1418442D01*
X378000Y1418850D01*
G01X372000Y1413583D02*
X368000D01*
Y1415042D01*
X368200Y1415508D01*
X368467Y1415800D01*
X369000Y1415917D01*
X369533Y1415800D01*
X369867Y1415450D01*
X370067Y1415042D01*
Y1413583D01*
G01Y1415042D02*
X372000Y1415917D01*
G01X371533Y1417858D02*
X371867Y1418267D01*
X372000Y1418733D01*
X371867Y1419200D01*
X371467Y1419608D01*
X370867Y1419900D01*
X370267Y1420017D01*
X369533D01*
X368933Y1419900D01*
X368400Y1419608D01*
X368133Y1419258D01*
X368000Y1418850D01*
X368133Y1418383D01*
X368400Y1418033D01*
X368800Y1417800D01*
X369333Y1417683D01*
X369800Y1417800D01*
X370267Y1418092D01*
X370533Y1418442D01*
X370600Y1418850D01*
X370467Y1419317D01*
X370133Y1419667D01*
X369533Y1420017D01*
G01X366000Y1413583D02*
X362000D01*
Y1415042D01*
X362200Y1415508D01*
X362467Y1415800D01*
X363000Y1415917D01*
X363533Y1415800D01*
X363867Y1415450D01*
X364067Y1415042D01*
Y1413583D01*
G01Y1415042D02*
X366000Y1415917D01*
G01Y1418850D02*
X362000D01*
X362800Y1418150D01*
G01X366000D02*
Y1419550D01*
G01X362000Y1422950D02*
X362133Y1422483D01*
X362467Y1422133D01*
X362867Y1421900D01*
X363400Y1421725D01*
X364000Y1421667D01*
X364600Y1421725D01*
X365133Y1421900D01*
X365533Y1422133D01*
X365867Y1422483D01*
X366000Y1422950D01*
X365867Y1423417D01*
X365533Y1423767D01*
X365133Y1424000D01*
X364600Y1424175D01*
X364000Y1424233D01*
X363400Y1424175D01*
X362867Y1424000D01*
X362467Y1423767D01*
X362133Y1423417D01*
X362000Y1422950D01*
G01X404583Y1262800D02*
X404875Y1262400D01*
X405225Y1262133D01*
X405633Y1262000D01*
X406100Y1262133D01*
X406450Y1262400D01*
X406800Y1262800D01*
X406917Y1263333D01*
Y1266000D01*
G01X409850Y1262000D02*
Y1266000D01*
X409150Y1265200D01*
G01Y1262000D02*
X410550D01*
G01X412842Y1265333D02*
X413192Y1265733D01*
X413600Y1265933D01*
X414067Y1266000D01*
X414650Y1265867D01*
X415058Y1265533D01*
X415175Y1265133D01*
X415117Y1264733D01*
X414883Y1264400D01*
X413717Y1263733D01*
X413192Y1263267D01*
X412842Y1262600D01*
X412725Y1262000D01*
X415175D01*
G01X410133Y1313917D02*
X410333Y1314267D01*
X410466Y1314675D01*
Y1315142D01*
X410266Y1315667D01*
X409933Y1316075D01*
X409533Y1316367D01*
X408866Y1316600D01*
X408266Y1316658D01*
X407666Y1316542D01*
X407266Y1316367D01*
X406866Y1316017D01*
X406599Y1315608D01*
X406466Y1315200D01*
Y1314792D01*
X406599Y1314383D01*
X406799Y1314033D01*
X407066Y1313742D01*
G01X406466Y1311100D02*
X410466D01*
X409666Y1311800D01*
G01X406466D02*
Y1310400D01*
G01X408133Y1308108D02*
X408599Y1307700D01*
X408866Y1307350D01*
X408999Y1306883D01*
X408866Y1306475D01*
X408599Y1306183D01*
X408199Y1305950D01*
X407733Y1305892D01*
X407333Y1305950D01*
X406933Y1306183D01*
X406599Y1306533D01*
X406466Y1306942D01*
X406599Y1307408D01*
X406999Y1307817D01*
X407599Y1308050D01*
X408266Y1308108D01*
X409133Y1307992D01*
X409599Y1307817D01*
X410066Y1307525D01*
X410399Y1307117D01*
X410466Y1306708D01*
X410333Y1306300D01*
X409999Y1306008D01*
G01X406466Y1336367D02*
X410466D01*
Y1334908D01*
X410266Y1334442D01*
X409999Y1334150D01*
X409466Y1334033D01*
X408933Y1334150D01*
X408599Y1334500D01*
X408399Y1334908D01*
Y1336367D01*
G01Y1334908D02*
X406466Y1334033D01*
G01Y1331100D02*
X410466D01*
X409666Y1331800D01*
G01X406466D02*
Y1330400D01*
G01X407266Y1328283D02*
X406799Y1327933D01*
X406533Y1327467D01*
X406466Y1326942D01*
X406533Y1326475D01*
X406866Y1326008D01*
X407266Y1325717D01*
X407666Y1325658D01*
X408133Y1325775D01*
X408466Y1326183D01*
X408599Y1326592D01*
Y1327117D01*
G01Y1326592D02*
X408799Y1326242D01*
X409133Y1325950D01*
X409533Y1325833D01*
X409933Y1325950D01*
X410266Y1326242D01*
X410466Y1326767D01*
X410399Y1327292D01*
X410133Y1327817D01*
G01Y1361917D02*
X410333Y1362267D01*
X410466Y1362675D01*
Y1363142D01*
X410266Y1363667D01*
X409933Y1364075D01*
X409533Y1364367D01*
X408866Y1364600D01*
X408266Y1364658D01*
X407666Y1364542D01*
X407266Y1364367D01*
X406866Y1364017D01*
X406599Y1363608D01*
X406466Y1363200D01*
Y1362792D01*
X406599Y1362383D01*
X406799Y1362033D01*
X407066Y1361742D01*
G01X406466Y1359100D02*
X410466D01*
X409666Y1359800D01*
G01X406466D02*
Y1358400D01*
G01Y1355117D02*
X407333Y1355000D01*
X408066Y1354825D01*
X408733Y1354592D01*
X409466Y1354300D01*
X410466Y1353833D01*
Y1356167D01*
G01X406466Y1386367D02*
X410466D01*
Y1384908D01*
X410266Y1384442D01*
X409999Y1384150D01*
X409466Y1384033D01*
X408933Y1384150D01*
X408599Y1384500D01*
X408399Y1384908D01*
Y1386367D01*
G01Y1384908D02*
X406466Y1384033D01*
G01Y1381100D02*
X410466D01*
X409666Y1381800D01*
G01X406466D02*
Y1380400D01*
G01Y1376300D02*
X410466D01*
X407599Y1378458D01*
Y1375542D01*
G01X398083Y1396133D02*
X397733Y1396333D01*
X397325Y1396466D01*
X396858D01*
X396333Y1396266D01*
X395925Y1395933D01*
X395633Y1395533D01*
X395400Y1394866D01*
X395342Y1394266D01*
X395458Y1393666D01*
X395633Y1393266D01*
X395983Y1392866D01*
X396392Y1392599D01*
X396800Y1392466D01*
X397208D01*
X397617Y1392599D01*
X397967Y1392799D01*
X398258Y1393066D01*
G01X400900Y1392466D02*
Y1396466D01*
X400200Y1395666D01*
G01Y1392466D02*
X401600D01*
G01X403717Y1393266D02*
X404067Y1392799D01*
X404533Y1392533D01*
X405058Y1392466D01*
X405525Y1392533D01*
X405992Y1392866D01*
X406283Y1393266D01*
X406342Y1393666D01*
X406225Y1394133D01*
X405817Y1394466D01*
X405408Y1394599D01*
X404883D01*
G01X405408D02*
X405758Y1394799D01*
X406050Y1395133D01*
X406167Y1395533D01*
X406050Y1395933D01*
X405758Y1396266D01*
X405233Y1396466D01*
X404708Y1396399D01*
X404183Y1396133D01*
G01X410133Y1409917D02*
X410333Y1410267D01*
X410466Y1410675D01*
Y1411142D01*
X410266Y1411667D01*
X409933Y1412075D01*
X409533Y1412367D01*
X408866Y1412600D01*
X408266Y1412658D01*
X407666Y1412542D01*
X407266Y1412367D01*
X406866Y1412017D01*
X406599Y1411608D01*
X406466Y1411200D01*
Y1410792D01*
X406599Y1410383D01*
X406799Y1410033D01*
X407066Y1409742D01*
G01X406466Y1407100D02*
X410466D01*
X409666Y1407800D01*
G01X406466D02*
Y1406400D01*
G01X406933Y1403992D02*
X406599Y1403583D01*
X406466Y1403117D01*
X406599Y1402650D01*
X406999Y1402242D01*
X407599Y1401950D01*
X408199Y1401833D01*
X408933D01*
X409533Y1401950D01*
X410066Y1402242D01*
X410333Y1402592D01*
X410466Y1403000D01*
X410333Y1403467D01*
X410066Y1403817D01*
X409666Y1404050D01*
X409133Y1404167D01*
X408666Y1404050D01*
X408199Y1403758D01*
X407933Y1403408D01*
X407866Y1403000D01*
X407999Y1402533D01*
X408333Y1402183D01*
X408933Y1401833D01*
G01X406466Y1432367D02*
X410466D01*
Y1430908D01*
X410266Y1430442D01*
X409999Y1430150D01*
X409466Y1430033D01*
X408933Y1430150D01*
X408599Y1430500D01*
X408399Y1430908D01*
Y1432367D01*
G01Y1430908D02*
X406466Y1430033D01*
G01Y1427100D02*
X410466D01*
X409666Y1427800D01*
G01X406466D02*
Y1426400D01*
G01X407066Y1424283D02*
X406733Y1423933D01*
X406533Y1423525D01*
X406466Y1423000D01*
X406599Y1422475D01*
X406866Y1422067D01*
X407333Y1421775D01*
X407866Y1421717D01*
X408399Y1421833D01*
X408733Y1422125D01*
X408999Y1422533D01*
X409066Y1422942D01*
X408999Y1423350D01*
X408733Y1423875D01*
X410466Y1423700D01*
Y1422125D01*
G01X395583Y1470800D02*
X395875Y1470400D01*
X396225Y1470133D01*
X396633Y1470000D01*
X397100Y1470133D01*
X397450Y1470400D01*
X397800Y1470800D01*
X397917Y1471333D01*
Y1474000D01*
G01X399567Y1470800D02*
X399917Y1470333D01*
X400383Y1470067D01*
X400908Y1470000D01*
X401375Y1470067D01*
X401842Y1470400D01*
X402133Y1470800D01*
X402192Y1471200D01*
X402075Y1471667D01*
X401667Y1472000D01*
X401258Y1472133D01*
X400733D01*
G01X401258D02*
X401608Y1472333D01*
X401900Y1472667D01*
X402017Y1473067D01*
X401900Y1473467D01*
X401608Y1473800D01*
X401083Y1474000D01*
X400558Y1473933D01*
X400033Y1473667D01*
G01X440533Y1330975D02*
X440200Y1330508D01*
X440000Y1329983D01*
Y1329517D01*
X440200Y1329050D01*
X440533Y1328700D01*
X441000Y1328525D01*
X441467Y1328642D01*
X441867Y1328933D01*
X442133Y1329458D01*
X442267Y1330158D01*
X442533Y1330567D01*
X443000Y1330742D01*
X443467Y1330625D01*
X443800Y1330333D01*
X444000Y1329925D01*
Y1329517D01*
X443867Y1329108D01*
X443533Y1328758D01*
G01X444000Y1327400D02*
X440000Y1326583D01*
X444000Y1325650D01*
X440000Y1324717D01*
X444000Y1323900D01*
G01X440000Y1321550D02*
X444000D01*
X443200Y1322250D01*
G01X440000D02*
Y1320850D01*
G01X440533Y1378975D02*
X440200Y1378508D01*
X440000Y1377983D01*
Y1377517D01*
X440200Y1377050D01*
X440533Y1376700D01*
X441000Y1376525D01*
X441467Y1376642D01*
X441867Y1376933D01*
X442133Y1377458D01*
X442267Y1378158D01*
X442533Y1378567D01*
X443000Y1378742D01*
X443467Y1378625D01*
X443800Y1378333D01*
X444000Y1377925D01*
Y1377517D01*
X443867Y1377108D01*
X443533Y1376758D01*
G01X444000Y1375400D02*
X440000Y1374583D01*
X444000Y1373650D01*
X440000Y1372717D01*
X444000Y1371900D01*
G01X443333Y1370658D02*
X443733Y1370308D01*
X443933Y1369900D01*
X444000Y1369433D01*
X443867Y1368850D01*
X443533Y1368442D01*
X443133Y1368325D01*
X442733Y1368383D01*
X442400Y1368617D01*
X441733Y1369783D01*
X441267Y1370308D01*
X440600Y1370658D01*
X440000Y1370775D01*
Y1368325D01*
G01X440533Y1426975D02*
X440200Y1426508D01*
X440000Y1425983D01*
Y1425517D01*
X440200Y1425050D01*
X440533Y1424700D01*
X441000Y1424525D01*
X441467Y1424642D01*
X441867Y1424933D01*
X442133Y1425458D01*
X442267Y1426158D01*
X442533Y1426567D01*
X443000Y1426742D01*
X443467Y1426625D01*
X443800Y1426333D01*
X444000Y1425925D01*
Y1425517D01*
X443867Y1425108D01*
X443533Y1424758D01*
G01X444000Y1423400D02*
X440000Y1422583D01*
X444000Y1421650D01*
X440000Y1420717D01*
X444000Y1419900D01*
G01X440800Y1418833D02*
X440333Y1418483D01*
X440067Y1418017D01*
X440000Y1417492D01*
X440067Y1417025D01*
X440400Y1416558D01*
X440800Y1416267D01*
X441200Y1416208D01*
X441667Y1416325D01*
X442000Y1416733D01*
X442133Y1417142D01*
Y1417667D01*
G01Y1417142D02*
X442333Y1416792D01*
X442667Y1416500D01*
X443067Y1416383D01*
X443467Y1416500D01*
X443800Y1416792D01*
X444000Y1417317D01*
X443933Y1417842D01*
X443667Y1418367D01*
G01X453583Y1267800D02*
X453875Y1267400D01*
X454225Y1267133D01*
X454633Y1267000D01*
X455100Y1267133D01*
X455450Y1267400D01*
X455800Y1267800D01*
X455917Y1268333D01*
Y1271000D01*
G01X457567Y1267600D02*
X457917Y1267267D01*
X458325Y1267067D01*
X458850Y1267000D01*
X459375Y1267133D01*
X459783Y1267400D01*
X460075Y1267867D01*
X460133Y1268400D01*
X460017Y1268933D01*
X459725Y1269267D01*
X459317Y1269533D01*
X458908Y1269600D01*
X458500Y1269533D01*
X457975Y1269267D01*
X458150Y1271000D01*
X459725D01*
G01X489583Y1266800D02*
X489875Y1266400D01*
X490225Y1266133D01*
X490633Y1266000D01*
X491100Y1266133D01*
X491450Y1266400D01*
X491800Y1266800D01*
X491917Y1267333D01*
Y1270000D01*
G01X493742Y1267667D02*
X494150Y1268133D01*
X494500Y1268400D01*
X494967Y1268533D01*
X495375Y1268400D01*
X495667Y1268133D01*
X495900Y1267733D01*
X495958Y1267267D01*
X495900Y1266867D01*
X495667Y1266467D01*
X495317Y1266133D01*
X494908Y1266000D01*
X494442Y1266133D01*
X494033Y1266533D01*
X493800Y1267133D01*
X493742Y1267800D01*
X493858Y1268667D01*
X494033Y1269133D01*
X494325Y1269600D01*
X494733Y1269933D01*
X495142Y1270000D01*
X495550Y1269867D01*
X495842Y1269533D01*
G01X495700Y1302241D02*
X496100Y1302533D01*
X496367Y1302883D01*
X496500Y1303291D01*
X496367Y1303758D01*
X496100Y1304108D01*
X495700Y1304458D01*
X495167Y1304575D01*
X492500D01*
G01X496500Y1307391D02*
X495633Y1307508D01*
X494900Y1307683D01*
X494233Y1307916D01*
X493500Y1308208D01*
X492500Y1308675D01*
Y1306341D01*
G01X488800Y1365417D02*
X488400Y1365125D01*
X488133Y1364775D01*
X488000Y1364367D01*
X488133Y1363900D01*
X488400Y1363550D01*
X488800Y1363200D01*
X489333Y1363083D01*
X492000D01*
G01X488000Y1359450D02*
X492000D01*
X489133Y1361608D01*
Y1358692D01*
G01X487800Y1396417D02*
X487400Y1396125D01*
X487133Y1395775D01*
X487000Y1395367D01*
X487133Y1394900D01*
X487400Y1394550D01*
X487800Y1394200D01*
X488333Y1394083D01*
X491000D01*
G01X487000Y1391150D02*
X491000D01*
X490200Y1391850D01*
G01X487000D02*
Y1390450D01*
G01X487800Y1388333D02*
X487333Y1387983D01*
X487067Y1387517D01*
X487000Y1386992D01*
X487067Y1386525D01*
X487400Y1386058D01*
X487800Y1385767D01*
X488200Y1385708D01*
X488667Y1385825D01*
X489000Y1386233D01*
X489133Y1386642D01*
Y1387167D01*
G01Y1386642D02*
X489333Y1386292D01*
X489667Y1386000D01*
X490067Y1385883D01*
X490467Y1386000D01*
X490800Y1386292D01*
X491000Y1386817D01*
X490933Y1387342D01*
X490667Y1387867D01*
G01X489200Y1420583D02*
X489600Y1420875D01*
X489867Y1421225D01*
X490000Y1421633D01*
X489867Y1422100D01*
X489600Y1422450D01*
X489200Y1422800D01*
X488667Y1422917D01*
X486000D01*
G01X490000Y1425850D02*
X486000D01*
X486800Y1425150D01*
G01X490000D02*
Y1426550D01*
G01Y1430650D02*
X486000D01*
X488867Y1428492D01*
Y1431408D01*
G01X518383Y1256500D02*
Y1260500D01*
X519900Y1257167D01*
X521417Y1260500D01*
Y1256500D01*
G01X522775D02*
Y1260500D01*
G01X525225D02*
Y1256500D01*
G01Y1258500D02*
X522775D01*
G01X526817Y1257300D02*
X527167Y1256833D01*
X527633Y1256567D01*
X528158Y1256500D01*
X528625Y1256567D01*
X529092Y1256900D01*
X529383Y1257300D01*
X529442Y1257700D01*
X529325Y1258167D01*
X528917Y1258500D01*
X528508Y1258633D01*
X527983D01*
G01X528508D02*
X528858Y1258833D01*
X529150Y1259167D01*
X529267Y1259567D01*
X529150Y1259967D01*
X528858Y1260300D01*
X528333Y1260500D01*
X527808Y1260433D01*
X527283Y1260167D01*
G01X517200Y1370583D02*
X517600Y1370875D01*
X517867Y1371225D01*
X518000Y1371633D01*
X517867Y1372100D01*
X517600Y1372450D01*
X517200Y1372800D01*
X516667Y1372917D01*
X514000D01*
G01X517533Y1374858D02*
X517867Y1375267D01*
X518000Y1375733D01*
X517867Y1376200D01*
X517467Y1376608D01*
X516867Y1376900D01*
X516267Y1377017D01*
X515533D01*
X514933Y1376900D01*
X514400Y1376608D01*
X514133Y1376258D01*
X514000Y1375850D01*
X514133Y1375383D01*
X514400Y1375033D01*
X514800Y1374800D01*
X515333Y1374683D01*
X515800Y1374800D01*
X516267Y1375092D01*
X516533Y1375442D01*
X516600Y1375850D01*
X516467Y1376317D01*
X516133Y1376667D01*
X515533Y1377017D01*
G01X517200Y1431583D02*
X517600Y1431875D01*
X517867Y1432225D01*
X518000Y1432633D01*
X517867Y1433100D01*
X517600Y1433450D01*
X517200Y1433800D01*
X516667Y1433917D01*
X514000D01*
G01X518000Y1436850D02*
X514000D01*
X514800Y1436150D01*
G01X518000D02*
Y1437550D01*
G01Y1440950D02*
X514000D01*
X514800Y1440250D01*
G01X518000D02*
Y1441650D01*
G01X518383Y1470500D02*
Y1474500D01*
X519900Y1471167D01*
X521417Y1474500D01*
Y1470500D01*
G01X522775D02*
Y1474500D01*
G01X525225D02*
Y1470500D01*
G01Y1472500D02*
X522775D01*
G01X528800Y1470500D02*
Y1474500D01*
X526642Y1471633D01*
X529558D01*
G54D15*
G01X271300Y1441700D02*
G02I-493J0D01*
G01X304685Y1323300D02*
G02I-492J0D01*
G54D16*
G01X264634Y1471874D02*
G03I-6225J0D01*
G01X258409Y1467937D02*
Y1475811D01*
G01X268252Y1444315D02*
X299748D01*
Y1479748D01*
X268252D01*
Y1444315D01*
G01X254472Y1471874D02*
X262346D01*
G01X268252Y1479748D02*
Y1483685D01*
X299748D01*
Y1479748D01*
G01X302453Y1332894D02*
X281547D01*
Y1331900D01*
G01Y1324100D02*
Y1323106D01*
X302453D01*
Y1324000D01*
G01X297906Y1363780D02*
X305780D01*
Y1336220D01*
X297906D01*
G01X278220Y1338189D02*
Y1363780D01*
X286094D01*
G01X278220Y1338189D02*
Y1336220D01*
X286094D01*
G01X296693Y1377315D02*
X283307D01*
Y1366685D01*
X296693D01*
Y1377315D01*
G01X272547Y1432106D02*
X293453D01*
Y1433100D01*
G01X272547Y1433000D02*
Y1432106D01*
G01X293453Y1440900D02*
Y1441894D01*
X272547D01*
Y1441000D01*
G01X302453Y1332000D02*
Y1332894D01*
G01X341827Y1398173D02*
Y1369827D01*
X370173D01*
Y1398173D01*
X341827D01*
G01X346252Y1395417D02*
G03I-1669J0D01*
M02*
