G04 ================== begin FILE IDENTIFICATION RECORD ==================*
G04 Layout Name:  STM32F103_RAK811_THESISNODE.brd*
G04 Film Name:    ASSY_BOTTOM*
G04 File Format:  Gerber RS274X*
G04 File Origin:  Cadence Allegro 17.2-S052*
G04 Origin Date:  Tue Jun 16 10:14:41 2020*
G04 *
G04 Layer:  REF DES/ASSEMBLY_BOTTOM*
G04 Layer:  PACKAGE GEOMETRY/ASSEMBLY_BOTTOM*
G04 Layer:  DRAWING FORMAT/OUTLINE_M*
G04 Layer:  DRAWING FORMAT/ASSEMBLY_BOTTOM*
G04 Layer:  BOARD GEOMETRY/OUTLINE*
G04 Layer:  BOARD GEOMETRY/LOGO_OUTLINE_M*
G04 Layer:  BOARD GEOMETRY/ASSEMBLY_BOTTOM*
G04 *
G04 Offset:    (0.00 0.00)*
G04 Mirror:    No*
G04 Mode:      Positive*
G04 Rotation:  0*
G04 FullContactRelief:  No*
G04 UndefLineWidth:     4.00*
G04 ================== end FILE IDENTIFICATION RECORD ====================*
%FSLAX25Y25*MOIN*%
%IR0*IPPOS*OFA0.00000B0.00000*MIA0B0*SFA1.00000B1.00000*%
%ADD10C,.004*%
%ADD11C,.006*%
%ADD12C,.008*%
%ADD13C,.00394*%
G75*
%LPD*%
G75*
G36*
G01X470677Y1447433D02*
X473827Y1450583D01*
Y1444283D01*
X470677Y1447433D01*
G37*
G54D10*
G01X245000Y1485000D02*
Y1248000D01*
X534000D01*
Y1485000D01*
X245000D01*
G01X329420Y1283410D02*
Y1276610D01*
X314820D01*
Y1283410D01*
X329420D01*
G01X369420D02*
Y1276610D01*
X354820D01*
Y1283410D01*
X369420D01*
G01X409420D02*
Y1276610D01*
X394820D01*
Y1283410D01*
X409420D01*
G01X410441Y1368693D02*
Y1455307D01*
X465559D01*
Y1368693D01*
X410441D01*
G01X435500Y1296000D02*
Y1291800D01*
X433500D01*
Y1296000D01*
G01X435500Y1312000D02*
Y1316200D01*
X433500D01*
Y1312000D01*
G01X451000Y1300500D02*
G03I-1500J0D01*
G01X452000Y1296000D02*
Y1312000D01*
X432000D01*
Y1296000D01*
X452000D01*
G01X440500D02*
Y1291800D01*
X438500D01*
Y1296000D01*
G01X445500D02*
Y1291800D01*
X443500D01*
Y1296000D01*
G01X450500D02*
Y1291800D01*
X448500D01*
Y1296000D01*
G01X440500Y1312000D02*
Y1316200D01*
X438500D01*
Y1312000D01*
G01X445500D02*
Y1316200D01*
X443500D01*
Y1312000D01*
G01X450500D02*
Y1316200D01*
X448500D01*
Y1312000D01*
G01X461780Y1468126D02*
X434220D01*
Y1483874D01*
X461780D01*
Y1468126D01*
G01X469500Y1296000D02*
Y1291800D01*
X467500D01*
Y1296000D01*
G01X469500Y1312000D02*
Y1316200D01*
X467500D01*
Y1312000D01*
G01X486000Y1296000D02*
Y1312000D01*
X466000D01*
Y1296000D01*
X486000D01*
G01X474500D02*
Y1291800D01*
X472500D01*
Y1296000D01*
G01X479500D02*
Y1291800D01*
X477500D01*
Y1296000D01*
G01X474500Y1312000D02*
Y1316200D01*
X472500D01*
Y1312000D01*
G01X479500D02*
Y1316200D01*
X477500D01*
Y1312000D01*
G01X485000Y1300500D02*
G03I-1500J0D01*
G01X484500Y1296000D02*
Y1291800D01*
X482500D01*
Y1296000D01*
G01X484500Y1312000D02*
Y1316200D01*
X482500D01*
Y1312000D01*
G01X498590Y1307420D02*
X505390D01*
Y1292820D01*
X498590D01*
Y1307420D01*
G01Y1363420D02*
X505390D01*
Y1348820D01*
X498590D01*
Y1363420D01*
G01Y1335420D02*
X505390D01*
Y1320820D01*
X498590D01*
Y1335420D01*
G01Y1397420D02*
X505390D01*
Y1382820D01*
X498590D01*
Y1397420D01*
G54D11*
G01X263071Y1260000D02*
G03I-7071J0D01*
G01X265071Y1474000D02*
G03I-7071J0D01*
G01X333500Y1279000D02*
Y1274500D01*
X338500D01*
Y1279000D01*
G01Y1285500D02*
X333500D01*
G01X338500D02*
Y1279000D01*
G01X333500Y1285500D02*
Y1279000D01*
G01X334900Y1280400D02*
X337200D01*
G01X334900Y1279700D02*
X337200D01*
G01X373500Y1279000D02*
Y1274500D01*
X378500D01*
Y1279000D01*
G01Y1285500D02*
X373500D01*
G01X378500D02*
Y1279000D01*
G01X373500Y1285500D02*
Y1279000D01*
G01X374900Y1280400D02*
X377200D01*
G01X374900Y1279700D02*
X377200D01*
G01X413500Y1279000D02*
Y1274500D01*
X418500D01*
Y1279000D01*
G01Y1285500D02*
X413500D01*
G01X418500D02*
Y1279000D01*
G01X413500Y1285500D02*
Y1279000D01*
G01X414900Y1280400D02*
X417200D01*
G01X414900Y1279700D02*
X417200D01*
G01X396500Y1411000D02*
Y1405500D01*
X397000D01*
X403500D01*
Y1411000D01*
G01X397500Y1423000D02*
Y1418500D01*
X402500D01*
Y1423000D01*
G01Y1429500D02*
X397500D01*
G01X402500D02*
Y1423000D01*
G01X397500Y1429500D02*
Y1423000D01*
G01X398900Y1424400D02*
X401200D01*
G01X398900Y1423700D02*
X401200D01*
G01X396500Y1418500D02*
Y1411000D01*
G01X403500D02*
Y1418500D01*
X396500D01*
G01X446500Y1282500D02*
Y1277500D01*
G01Y1282500D02*
X453000D01*
G01X446500Y1277500D02*
X453000D01*
G01X447000Y1320500D02*
X452500D01*
Y1321000D01*
Y1327500D01*
X447000D01*
G01X439500Y1320500D02*
X447000D01*
G01Y1327500D02*
X439500D01*
Y1320500D01*
G01X453000Y1277500D02*
X457500D01*
Y1282500D01*
X453000D01*
G01X451600Y1278900D02*
Y1281200D01*
G01X452300Y1278900D02*
Y1281200D01*
G01X473500Y1320500D02*
X481000D01*
G01Y1327500D02*
X473500D01*
Y1320500D01*
G01X466000Y1354500D02*
X460500D01*
Y1354000D01*
Y1347500D01*
X466000D01*
G01D02*
X473500D01*
Y1354500D01*
G01X466000Y1363500D02*
X460500D01*
Y1363000D01*
Y1356500D01*
X466000D01*
G01X473500Y1363500D02*
X466000D01*
G01Y1356500D02*
X473500D01*
Y1363500D01*
G01Y1354500D02*
X466000D01*
G01X493000Y1277500D02*
X497500D01*
Y1282500D01*
X493000D01*
G01X486500D02*
Y1277500D01*
G01Y1282500D02*
X493000D01*
G01X486500Y1277500D02*
X493000D01*
G01X491600Y1278900D02*
Y1281200D01*
G01X492300Y1278900D02*
Y1281200D01*
G01X481000Y1320500D02*
X486500D01*
Y1321000D01*
Y1327500D01*
X481000D01*
G01X501500Y1415000D02*
Y1410500D01*
X506500D01*
Y1415000D01*
G01Y1421500D02*
X501500D01*
G01X506500D02*
Y1415000D01*
G01X501500Y1421500D02*
Y1415000D01*
G01X502900Y1416400D02*
X505200D01*
G01X502900Y1415700D02*
X505200D01*
G01X531071Y1259000D02*
G03I-7071J0D01*
G01Y1473000D02*
G03I-7071J0D01*
G54D12*
G01X260767Y1258000D02*
Y1262000D01*
X259250Y1258667D01*
X257733Y1262000D01*
Y1258000D01*
G01X256375D02*
Y1262000D01*
G01X253925D02*
Y1258000D01*
G01Y1260000D02*
X256375D01*
G01X252158Y1261333D02*
X251808Y1261733D01*
X251400Y1261933D01*
X250933Y1262000D01*
X250350Y1261867D01*
X249942Y1261533D01*
X249825Y1261133D01*
X249883Y1260733D01*
X250117Y1260400D01*
X251283Y1259733D01*
X251808Y1259267D01*
X252158Y1258600D01*
X252275Y1258000D01*
X249825D01*
G01X257347Y1474000D02*
Y1478000D01*
X255830Y1474667D01*
X254313Y1478000D01*
Y1474000D01*
G01X252955D02*
Y1478000D01*
G01X250505D02*
Y1474000D01*
G01Y1476000D02*
X252955D01*
G01X247630Y1474000D02*
Y1478000D01*
X248330Y1477200D01*
G01Y1474000D02*
X246930D01*
G01X326533Y1279000D02*
Y1283000D01*
X325367D01*
X324900Y1282800D01*
X324550Y1282533D01*
X324258Y1282133D01*
X324025Y1281667D01*
X323967Y1281000D01*
X324025Y1280333D01*
X324258Y1279867D01*
X324550Y1279467D01*
X324900Y1279200D01*
X325367Y1279000D01*
X326533D01*
G01X321150D02*
Y1283000D01*
X321850Y1282200D01*
G01Y1279000D02*
X320450D01*
G01X316350D02*
Y1283000D01*
X318508Y1280133D01*
X315592D01*
G01X310333Y1308000D02*
Y1305133D01*
X310100Y1304533D01*
X309633Y1304133D01*
X309050Y1304000D01*
X308467Y1304133D01*
X308000Y1304533D01*
X307767Y1305133D01*
Y1308000D01*
G01X304950Y1304000D02*
X304542Y1304067D01*
X304075Y1304267D01*
X303783Y1304600D01*
X303667Y1305067D01*
X303783Y1305533D01*
X304133Y1305933D01*
X304658Y1306133D01*
X305242D01*
X305592Y1306267D01*
X305883Y1306600D01*
X306000Y1307067D01*
X305825Y1307533D01*
X305417Y1307867D01*
X304950Y1308000D01*
X304483Y1307867D01*
X304075Y1307533D01*
X303900Y1307067D01*
X304017Y1306600D01*
X304308Y1306267D01*
X304658Y1306133D01*
X305242D01*
X305767Y1305933D01*
X306117Y1305533D01*
X306233Y1305067D01*
X306117Y1304600D01*
X305825Y1304267D01*
X305358Y1304067D01*
X304950Y1304000D01*
G01X338000Y1284417D02*
X334000D01*
Y1282958D01*
X334200Y1282492D01*
X334467Y1282200D01*
X335000Y1282083D01*
X335533Y1282200D01*
X335867Y1282550D01*
X336067Y1282958D01*
Y1284417D01*
G01Y1282958D02*
X338000Y1282083D01*
G01Y1279150D02*
X334000D01*
X334800Y1279850D01*
G01X338000D02*
Y1278450D01*
G01X337533Y1276042D02*
X337867Y1275633D01*
X338000Y1275167D01*
X337867Y1274700D01*
X337467Y1274292D01*
X336867Y1274000D01*
X336267Y1273883D01*
X335533D01*
X334933Y1274000D01*
X334400Y1274292D01*
X334133Y1274642D01*
X334000Y1275050D01*
X334133Y1275517D01*
X334400Y1275867D01*
X334800Y1276100D01*
X335333Y1276217D01*
X335800Y1276100D01*
X336267Y1275808D01*
X336533Y1275458D01*
X336600Y1275050D01*
X336467Y1274583D01*
X336133Y1274233D01*
X335533Y1273883D01*
G01X357467Y1281000D02*
Y1277000D01*
X358633D01*
X359100Y1277200D01*
X359450Y1277467D01*
X359742Y1277867D01*
X359975Y1278333D01*
X360033Y1279000D01*
X359975Y1279667D01*
X359742Y1280133D01*
X359450Y1280533D01*
X359100Y1280800D01*
X358633Y1281000D01*
X357467D01*
G01X362850D02*
Y1277000D01*
X362150Y1277800D01*
G01Y1281000D02*
X363550D01*
G01X365842Y1277667D02*
X366192Y1277267D01*
X366600Y1277067D01*
X367067Y1277000D01*
X367650Y1277133D01*
X368058Y1277467D01*
X368175Y1277867D01*
X368117Y1278267D01*
X367883Y1278600D01*
X366717Y1279267D01*
X366192Y1279733D01*
X365842Y1280400D01*
X365725Y1281000D01*
X368175D01*
G01X361333Y1318000D02*
Y1315133D01*
X361100Y1314533D01*
X360633Y1314133D01*
X360050Y1314000D01*
X359467Y1314133D01*
X359000Y1314533D01*
X358767Y1315133D01*
Y1318000D01*
G01X357058Y1315667D02*
X356650Y1316133D01*
X356300Y1316400D01*
X355833Y1316533D01*
X355425Y1316400D01*
X355133Y1316133D01*
X354900Y1315733D01*
X354842Y1315267D01*
X354900Y1314867D01*
X355133Y1314467D01*
X355483Y1314133D01*
X355892Y1314000D01*
X356358Y1314133D01*
X356767Y1314533D01*
X357000Y1315133D01*
X357058Y1315800D01*
X356942Y1316667D01*
X356767Y1317133D01*
X356475Y1317600D01*
X356067Y1317933D01*
X355658Y1318000D01*
X355250Y1317867D01*
X354958Y1317533D01*
G01X354333Y1308000D02*
Y1305133D01*
X354100Y1304533D01*
X353633Y1304133D01*
X353050Y1304000D01*
X352467Y1304133D01*
X352000Y1304533D01*
X351767Y1305133D01*
Y1308000D01*
G01X349942Y1304467D02*
X349533Y1304133D01*
X349067Y1304000D01*
X348600Y1304133D01*
X348192Y1304533D01*
X347900Y1305133D01*
X347783Y1305733D01*
Y1306467D01*
X347900Y1307067D01*
X348192Y1307600D01*
X348542Y1307867D01*
X348950Y1308000D01*
X349417Y1307867D01*
X349767Y1307600D01*
X350000Y1307200D01*
X350117Y1306667D01*
X350000Y1306200D01*
X349708Y1305733D01*
X349358Y1305467D01*
X348950Y1305400D01*
X348483Y1305533D01*
X348133Y1305867D01*
X347783Y1306467D01*
G01X377000Y1284417D02*
X373000D01*
Y1282958D01*
X373200Y1282492D01*
X373467Y1282200D01*
X374000Y1282083D01*
X374533Y1282200D01*
X374867Y1282550D01*
X375067Y1282958D01*
Y1284417D01*
G01Y1282958D02*
X377000Y1282083D01*
G01Y1279150D02*
X373000D01*
X373800Y1279850D01*
G01X377000D02*
Y1278450D01*
G01Y1275050D02*
X376933Y1274642D01*
X376733Y1274175D01*
X376400Y1273883D01*
X375933Y1273767D01*
X375467Y1273883D01*
X375067Y1274233D01*
X374867Y1274758D01*
Y1275342D01*
X374733Y1275692D01*
X374400Y1275983D01*
X373933Y1276100D01*
X373467Y1275925D01*
X373133Y1275517D01*
X373000Y1275050D01*
X373133Y1274583D01*
X373467Y1274175D01*
X373933Y1274000D01*
X374400Y1274117D01*
X374733Y1274408D01*
X374867Y1274758D01*
Y1275342D01*
X375067Y1275867D01*
X375467Y1276217D01*
X375933Y1276333D01*
X376400Y1276217D01*
X376733Y1275925D01*
X376933Y1275458D01*
X377000Y1275050D01*
G01X418000Y1284417D02*
X414000D01*
Y1282958D01*
X414200Y1282492D01*
X414467Y1282200D01*
X415000Y1282083D01*
X415533Y1282200D01*
X415867Y1282550D01*
X416067Y1282958D01*
Y1284417D01*
G01Y1282958D02*
X418000Y1282083D01*
G01X414667Y1280258D02*
X414267Y1279908D01*
X414067Y1279500D01*
X414000Y1279033D01*
X414133Y1278450D01*
X414467Y1278042D01*
X414867Y1277925D01*
X415267Y1277983D01*
X415600Y1278217D01*
X416267Y1279383D01*
X416733Y1279908D01*
X417400Y1280258D01*
X418000Y1280375D01*
Y1277925D01*
G01Y1275050D02*
X414000D01*
X414800Y1275750D01*
G01X418000D02*
Y1274350D01*
G01X398467Y1281000D02*
Y1277000D01*
X399633D01*
X400100Y1277200D01*
X400450Y1277467D01*
X400742Y1277867D01*
X400975Y1278333D01*
X401033Y1279000D01*
X400975Y1279667D01*
X400742Y1280133D01*
X400450Y1280533D01*
X400100Y1280800D01*
X399633Y1281000D01*
X398467D01*
G01X403850D02*
Y1277000D01*
X403150Y1277800D01*
G01Y1281000D02*
X404550D01*
G01X406842Y1279333D02*
X407250Y1278867D01*
X407600Y1278600D01*
X408067Y1278467D01*
X408475Y1278600D01*
X408767Y1278867D01*
X409000Y1279267D01*
X409058Y1279733D01*
X409000Y1280133D01*
X408767Y1280533D01*
X408417Y1280867D01*
X408008Y1281000D01*
X407542Y1280867D01*
X407133Y1280467D01*
X406900Y1279867D01*
X406842Y1279200D01*
X406958Y1278333D01*
X407133Y1277867D01*
X407425Y1277400D01*
X407833Y1277067D01*
X408242Y1277000D01*
X408650Y1277133D01*
X408942Y1277467D01*
G01X403534Y1416367D02*
X399534D01*
Y1414908D01*
X399734Y1414442D01*
X400001Y1414150D01*
X400534Y1414033D01*
X401067Y1414150D01*
X401401Y1414500D01*
X401601Y1414908D01*
Y1416367D01*
G01Y1414908D02*
X403534Y1414033D01*
G01X400201Y1412208D02*
X399801Y1411858D01*
X399601Y1411450D01*
X399534Y1410983D01*
X399667Y1410400D01*
X400001Y1409992D01*
X400401Y1409875D01*
X400801Y1409933D01*
X401134Y1410167D01*
X401801Y1411333D01*
X402267Y1411858D01*
X402934Y1412208D01*
X403534Y1412325D01*
Y1409875D01*
G01X400201Y1408108D02*
X399801Y1407758D01*
X399601Y1407350D01*
X399534Y1406883D01*
X399667Y1406300D01*
X400001Y1405892D01*
X400401Y1405775D01*
X400801Y1405833D01*
X401134Y1406067D01*
X401801Y1407233D01*
X402267Y1407758D01*
X402934Y1408108D01*
X403534Y1408225D01*
Y1405775D01*
G01X397333Y1412167D02*
X397133Y1412517D01*
X397000Y1412925D01*
Y1413392D01*
X397200Y1413917D01*
X397533Y1414325D01*
X397933Y1414617D01*
X398600Y1414850D01*
X399200Y1414908D01*
X399800Y1414792D01*
X400200Y1414617D01*
X400600Y1414267D01*
X400867Y1413858D01*
X401000Y1413450D01*
Y1413042D01*
X400867Y1412633D01*
X400667Y1412283D01*
X400400Y1411992D01*
G01X397667Y1410458D02*
X397267Y1410108D01*
X397067Y1409700D01*
X397000Y1409233D01*
X397133Y1408650D01*
X397467Y1408242D01*
X397867Y1408125D01*
X398267Y1408183D01*
X398600Y1408417D01*
X399267Y1409583D01*
X399733Y1410108D01*
X400400Y1410458D01*
X401000Y1410575D01*
Y1408125D01*
G01X400400Y1406533D02*
X400733Y1406183D01*
X400933Y1405775D01*
X401000Y1405250D01*
X400867Y1404725D01*
X400600Y1404317D01*
X400133Y1404025D01*
X399600Y1403967D01*
X399067Y1404083D01*
X398733Y1404375D01*
X398467Y1404783D01*
X398400Y1405192D01*
X398467Y1405600D01*
X398733Y1406125D01*
X397000Y1405950D01*
Y1404375D01*
G01X448583Y1282000D02*
Y1278000D01*
X450042D01*
X450508Y1278200D01*
X450800Y1278467D01*
X450917Y1279000D01*
X450800Y1279533D01*
X450450Y1279867D01*
X450042Y1280067D01*
X448583D01*
G01X450042D02*
X450917Y1282000D01*
G01X453850D02*
Y1278000D01*
X453150Y1278800D01*
G01Y1282000D02*
X454550D01*
G01X457833D02*
X457950Y1281133D01*
X458125Y1280400D01*
X458358Y1279733D01*
X458650Y1279000D01*
X459117Y1278000D01*
X456783D01*
G01X445333Y1305500D02*
Y1302633D01*
X445100Y1302033D01*
X444633Y1301633D01*
X444050Y1301500D01*
X443467Y1301633D01*
X443000Y1302033D01*
X442767Y1302633D01*
Y1305500D01*
G01X439250Y1301500D02*
Y1305500D01*
X441408Y1302633D01*
X438492D01*
G01X445833Y1321333D02*
X445483Y1321133D01*
X445075Y1321000D01*
X444608D01*
X444083Y1321200D01*
X443675Y1321533D01*
X443383Y1321933D01*
X443150Y1322600D01*
X443092Y1323200D01*
X443208Y1323800D01*
X443383Y1324200D01*
X443733Y1324600D01*
X444142Y1324867D01*
X444550Y1325000D01*
X444958D01*
X445367Y1324867D01*
X445717Y1324667D01*
X446008Y1324400D01*
G01X447542Y1321667D02*
X447892Y1321267D01*
X448300Y1321067D01*
X448767Y1321000D01*
X449350Y1321133D01*
X449758Y1321467D01*
X449875Y1321867D01*
X449817Y1322267D01*
X449583Y1322600D01*
X448417Y1323267D01*
X447892Y1323733D01*
X447542Y1324400D01*
X447425Y1325000D01*
X449875D01*
G01X452750D02*
Y1321000D01*
X452050Y1321800D01*
G01Y1325000D02*
X453450D01*
G01X448000Y1480886D02*
Y1478552D01*
X452000D01*
Y1480886D01*
G01X450067Y1479952D02*
Y1478552D01*
G01X448000Y1483819D02*
X452000D01*
X451200Y1483119D01*
G01X448000D02*
Y1484519D01*
G01X445533Y1478000D02*
Y1475133D01*
X445300Y1474533D01*
X444833Y1474133D01*
X444250Y1474000D01*
X443667Y1474133D01*
X443200Y1474533D01*
X442967Y1475133D01*
Y1478000D01*
G01X440150Y1474000D02*
Y1478000D01*
X440850Y1477200D01*
G01Y1474000D02*
X439450D01*
G01X436050Y1478000D02*
X436517Y1477867D01*
X436867Y1477533D01*
X437100Y1477133D01*
X437275Y1476600D01*
X437333Y1476000D01*
X437275Y1475400D01*
X437100Y1474867D01*
X436867Y1474467D01*
X436517Y1474133D01*
X436050Y1474000D01*
X435583Y1474133D01*
X435233Y1474467D01*
X435000Y1474867D01*
X434825Y1475400D01*
X434767Y1476000D01*
X434825Y1476600D01*
X435000Y1477133D01*
X435233Y1477533D01*
X435583Y1477867D01*
X436050Y1478000D01*
G01X479333Y1305500D02*
Y1302633D01*
X479100Y1302033D01*
X478633Y1301633D01*
X478050Y1301500D01*
X477467Y1301633D01*
X477000Y1302033D01*
X476767Y1302633D01*
Y1305500D01*
G01X475233Y1302100D02*
X474883Y1301767D01*
X474475Y1301567D01*
X473950Y1301500D01*
X473425Y1301633D01*
X473017Y1301900D01*
X472725Y1302367D01*
X472667Y1302900D01*
X472783Y1303433D01*
X473075Y1303767D01*
X473483Y1304033D01*
X473892Y1304100D01*
X474300Y1304033D01*
X474825Y1303767D01*
X474650Y1305500D01*
X473075D01*
G01X479833Y1321333D02*
X479483Y1321133D01*
X479075Y1321000D01*
X478608D01*
X478083Y1321200D01*
X477675Y1321533D01*
X477383Y1321933D01*
X477150Y1322600D01*
X477092Y1323200D01*
X477208Y1323800D01*
X477383Y1324200D01*
X477733Y1324600D01*
X478142Y1324867D01*
X478550Y1325000D01*
X478958D01*
X479367Y1324867D01*
X479717Y1324667D01*
X480008Y1324400D01*
G01X481542Y1321667D02*
X481892Y1321267D01*
X482300Y1321067D01*
X482767Y1321000D01*
X483350Y1321133D01*
X483758Y1321467D01*
X483875Y1321867D01*
X483817Y1322267D01*
X483583Y1322600D01*
X482417Y1323267D01*
X481892Y1323733D01*
X481542Y1324400D01*
X481425Y1325000D01*
X483875D01*
G01X486750Y1321000D02*
X486283Y1321133D01*
X485933Y1321467D01*
X485700Y1321867D01*
X485525Y1322400D01*
X485467Y1323000D01*
X485525Y1323600D01*
X485700Y1324133D01*
X485933Y1324533D01*
X486283Y1324867D01*
X486750Y1325000D01*
X487217Y1324867D01*
X487567Y1324533D01*
X487800Y1324133D01*
X487975Y1323600D01*
X488033Y1323000D01*
X487975Y1322400D01*
X487800Y1321867D01*
X487567Y1321467D01*
X487217Y1321133D01*
X486750Y1321000D01*
G01X467167Y1353667D02*
X467517Y1353867D01*
X467925Y1354000D01*
X468392D01*
X468917Y1353800D01*
X469325Y1353467D01*
X469617Y1353067D01*
X469850Y1352400D01*
X469908Y1351800D01*
X469792Y1351200D01*
X469617Y1350800D01*
X469267Y1350400D01*
X468858Y1350133D01*
X468450Y1350000D01*
X468042D01*
X467633Y1350133D01*
X467283Y1350333D01*
X466992Y1350600D01*
G01X465458Y1353333D02*
X465108Y1353733D01*
X464700Y1353933D01*
X464233Y1354000D01*
X463650Y1353867D01*
X463242Y1353533D01*
X463125Y1353133D01*
X463183Y1352733D01*
X463417Y1352400D01*
X464583Y1351733D01*
X465108Y1351267D01*
X465458Y1350600D01*
X465575Y1350000D01*
X463125D01*
G01X459550D02*
Y1354000D01*
X461708Y1351133D01*
X458792D01*
G01X467167Y1362667D02*
X467517Y1362867D01*
X467925Y1363000D01*
X468392D01*
X468917Y1362800D01*
X469325Y1362467D01*
X469617Y1362067D01*
X469850Y1361400D01*
X469908Y1360800D01*
X469792Y1360200D01*
X469617Y1359800D01*
X469267Y1359400D01*
X468858Y1359133D01*
X468450Y1359000D01*
X468042D01*
X467633Y1359133D01*
X467283Y1359333D01*
X466992Y1359600D01*
G01X465458Y1362333D02*
X465108Y1362733D01*
X464700Y1362933D01*
X464233Y1363000D01*
X463650Y1362867D01*
X463242Y1362533D01*
X463125Y1362133D01*
X463183Y1361733D01*
X463417Y1361400D01*
X464583Y1360733D01*
X465108Y1360267D01*
X465458Y1359600D01*
X465575Y1359000D01*
X463125D01*
G01X461533Y1359800D02*
X461183Y1359333D01*
X460717Y1359067D01*
X460192Y1359000D01*
X459725Y1359067D01*
X459258Y1359400D01*
X458967Y1359800D01*
X458908Y1360200D01*
X459025Y1360667D01*
X459433Y1361000D01*
X459842Y1361133D01*
X460367D01*
G01X459842D02*
X459492Y1361333D01*
X459200Y1361667D01*
X459083Y1362067D01*
X459200Y1362467D01*
X459492Y1362800D01*
X460017Y1363000D01*
X460542Y1362933D01*
X461067Y1362667D01*
G01X487583Y1282000D02*
Y1278000D01*
X489042D01*
X489508Y1278200D01*
X489800Y1278467D01*
X489917Y1279000D01*
X489800Y1279533D01*
X489450Y1279867D01*
X489042Y1280067D01*
X487583D01*
G01X489042D02*
X489917Y1282000D01*
G01X492850D02*
Y1278000D01*
X492150Y1278800D01*
G01Y1282000D02*
X493550D01*
G01X495842Y1280333D02*
X496250Y1279867D01*
X496600Y1279600D01*
X497067Y1279467D01*
X497475Y1279600D01*
X497767Y1279867D01*
X498000Y1280267D01*
X498058Y1280733D01*
X498000Y1281133D01*
X497767Y1281533D01*
X497417Y1281867D01*
X497008Y1282000D01*
X496542Y1281867D01*
X496133Y1281467D01*
X495900Y1280867D01*
X495842Y1280200D01*
X495958Y1279333D01*
X496133Y1278867D01*
X496425Y1278400D01*
X496833Y1278067D01*
X497242Y1278000D01*
X497650Y1278133D01*
X497942Y1278467D01*
G01X507000Y1295967D02*
X511000D01*
Y1297133D01*
X510800Y1297600D01*
X510533Y1297950D01*
X510133Y1298242D01*
X509667Y1298475D01*
X509000Y1298533D01*
X508333Y1298475D01*
X507867Y1298242D01*
X507467Y1297950D01*
X507200Y1297600D01*
X507000Y1297133D01*
Y1295967D01*
G01Y1301350D02*
X511000D01*
X510200Y1300650D01*
G01X507000D02*
Y1302050D01*
G01Y1305450D02*
X511000D01*
X510200Y1304750D01*
G01X507000D02*
Y1306150D01*
G01X500000Y1323467D02*
X504000D01*
Y1324633D01*
X503800Y1325100D01*
X503533Y1325450D01*
X503133Y1325742D01*
X502667Y1325975D01*
X502000Y1326033D01*
X501333Y1325975D01*
X500867Y1325742D01*
X500467Y1325450D01*
X500200Y1325100D01*
X500000Y1324633D01*
Y1323467D01*
G01Y1328850D02*
X504000D01*
X503200Y1328150D01*
G01X500000D02*
Y1329550D01*
G01X504000Y1332950D02*
X503867Y1332483D01*
X503533Y1332133D01*
X503133Y1331900D01*
X502600Y1331725D01*
X502000Y1331667D01*
X501400Y1331725D01*
X500867Y1331900D01*
X500467Y1332133D01*
X500133Y1332483D01*
X500000Y1332950D01*
X500133Y1333417D01*
X500467Y1333767D01*
X500867Y1334000D01*
X501400Y1334175D01*
X502000Y1334233D01*
X502600Y1334175D01*
X503133Y1334000D01*
X503533Y1333767D01*
X503867Y1333417D01*
X504000Y1332950D01*
G01X500000Y1351467D02*
X504000D01*
Y1352633D01*
X503800Y1353100D01*
X503533Y1353450D01*
X503133Y1353742D01*
X502667Y1353975D01*
X502000Y1354033D01*
X501333Y1353975D01*
X500867Y1353742D01*
X500467Y1353450D01*
X500200Y1353100D01*
X500000Y1352633D01*
Y1351467D01*
G01Y1356850D02*
X504000D01*
X503200Y1356150D01*
G01X500000D02*
Y1357550D01*
G01X500600Y1359667D02*
X500267Y1360017D01*
X500067Y1360425D01*
X500000Y1360950D01*
X500133Y1361475D01*
X500400Y1361883D01*
X500867Y1362175D01*
X501400Y1362233D01*
X501933Y1362117D01*
X502267Y1361825D01*
X502533Y1361417D01*
X502600Y1361008D01*
X502533Y1360600D01*
X502267Y1360075D01*
X504000Y1360250D01*
Y1361825D01*
G01X505000Y1419417D02*
X501000D01*
Y1417958D01*
X501200Y1417492D01*
X501467Y1417200D01*
X502000Y1417083D01*
X502533Y1417200D01*
X502867Y1417550D01*
X503067Y1417958D01*
Y1419417D01*
G01Y1417958D02*
X505000Y1417083D01*
G01X501667Y1415258D02*
X501267Y1414908D01*
X501067Y1414500D01*
X501000Y1414033D01*
X501133Y1413450D01*
X501467Y1413042D01*
X501867Y1412925D01*
X502267Y1412983D01*
X502600Y1413217D01*
X503267Y1414383D01*
X503733Y1414908D01*
X504400Y1415258D01*
X505000Y1415375D01*
Y1412925D01*
G01X501000Y1410050D02*
X501133Y1410517D01*
X501467Y1410867D01*
X501867Y1411100D01*
X502400Y1411275D01*
X503000Y1411333D01*
X503600Y1411275D01*
X504133Y1411100D01*
X504533Y1410867D01*
X504867Y1410517D01*
X505000Y1410050D01*
X504867Y1409583D01*
X504533Y1409233D01*
X504133Y1409000D01*
X503600Y1408825D01*
X503000Y1408767D01*
X502400Y1408825D01*
X501867Y1409000D01*
X501467Y1409233D01*
X501133Y1409583D01*
X501000Y1410050D01*
G01Y1383467D02*
X505000D01*
Y1384633D01*
X504800Y1385100D01*
X504533Y1385450D01*
X504133Y1385742D01*
X503667Y1385975D01*
X503000Y1386033D01*
X502333Y1385975D01*
X501867Y1385742D01*
X501467Y1385450D01*
X501200Y1385100D01*
X501000Y1384633D01*
Y1383467D01*
G01Y1388850D02*
X505000D01*
X504200Y1388150D01*
G01X501000D02*
Y1389550D01*
G01X501800Y1391667D02*
X501333Y1392017D01*
X501067Y1392483D01*
X501000Y1393008D01*
X501067Y1393475D01*
X501400Y1393942D01*
X501800Y1394233D01*
X502200Y1394292D01*
X502667Y1394175D01*
X503000Y1393767D01*
X503133Y1393358D01*
Y1392833D01*
G01Y1393358D02*
X503333Y1393708D01*
X503667Y1394000D01*
X504067Y1394117D01*
X504467Y1394000D01*
X504800Y1393708D01*
X505000Y1393183D01*
X504933Y1392658D01*
X504667Y1392133D01*
G01X523347Y1259000D02*
Y1263000D01*
X521830Y1259667D01*
X520313Y1263000D01*
Y1259000D01*
G01X518955D02*
Y1263000D01*
G01X516505D02*
Y1259000D01*
G01Y1261000D02*
X518955D01*
G01X514913Y1259800D02*
X514563Y1259333D01*
X514097Y1259067D01*
X513572Y1259000D01*
X513105Y1259067D01*
X512638Y1259400D01*
X512347Y1259800D01*
X512288Y1260200D01*
X512405Y1260667D01*
X512813Y1261000D01*
X513222Y1261133D01*
X513747D01*
G01X513222D02*
X512872Y1261333D01*
X512580Y1261667D01*
X512463Y1262067D01*
X512580Y1262467D01*
X512872Y1262800D01*
X513397Y1263000D01*
X513922Y1262933D01*
X514447Y1262667D01*
G01X523347Y1473000D02*
Y1477000D01*
X521830Y1473667D01*
X520313Y1477000D01*
Y1473000D01*
G01X518955D02*
Y1477000D01*
G01X516505D02*
Y1473000D01*
G01Y1475000D02*
X518955D01*
G01X512930Y1473000D02*
Y1477000D01*
X515088Y1474133D01*
X512172D01*
G54D13*
G01X434220Y1468126D02*
X461780D01*
Y1483874D01*
X434220D01*
Y1468126D01*
G01X453906Y1499622D02*
Y1497654D01*
X442094D01*
Y1499622D01*
G01X440126Y1483874D02*
Y1499622D01*
X455874D01*
Y1483874D01*
M02*
