G04 ================== begin FILE IDENTIFICATION RECORD ==================*
G04 Layout Name:  STM32F103_RAK811_THESISNODE.brd*
G04 Film Name:    SILK_BOTTOM*
G04 File Format:  Gerber RS274X*
G04 File Origin:  Cadence Allegro 17.2-S052*
G04 Origin Date:  Tue Jun 16 10:14:41 2020*
G04 *
G04 Layer:  REF DES/SILKSCREEN_BOTTOM*
G04 Layer:  PACKAGE GEOMETRY/SILKSCREEN_BOTTOM*
G04 Layer:  DRAWING FORMAT/SILKSCREEN_BOTTOM*
G04 Layer:  BOARD GEOMETRY/OUTLINE*
G04 Layer:  BOARD GEOMETRY/SILKSCREEN_BOTTOM*
G04 Layer:  BOARD GEOMETRY/LOGO_M*
G04 *
G04 Offset:    (0.00 0.00)*
G04 Mirror:    No*
G04 Mode:      Positive*
G04 Rotation:  0*
G04 FullContactRelief:  No*
G04 UndefLineWidth:     6.00*
G04 ================== end FILE IDENTIFICATION RECORD ====================*
%FSLAX25Y25*MOIN*%
%IR0*IPPOS*OFA0.00000B0.00000*MIA0B0*SFA1.00000B1.00000*%
%ADD10C,.002*%
%ADD11C,.006*%
%ADD12C,.008*%
%ADD13C,.00394*%
%ADD14C,.00197*%
G75*
%LPD*%
G75*
G36*
G01X256004Y1250009D02*
Y1252509D01*
G03X263504Y1260009I0J7500D01*
G01X266004D01*
G02X256004Y1250009I-10000J0D01*
G37*
G36*
G01X246004Y1260009D02*
G02X256004Y1270009I10000J0D01*
G01Y1267509D01*
G03X248504Y1260009I0J-7500D01*
G01X246004D01*
G37*
G36*
G01X258004Y1464009D02*
Y1466509D01*
G03X265504Y1474009I0J7500D01*
G01X268004D01*
G02X258004Y1464009I-10000J0D01*
G37*
G36*
G01X248004Y1474009D02*
G02X258004Y1484009I10000J0D01*
G01Y1481509D01*
G03X250504Y1474009I0J-7500D01*
G01X248004D01*
G37*
G36*
G01X330989Y1298126D02*
G03I-1414J0D01*
G37*
G36*
G01X352989D02*
G03I-1414J0D01*
G37*
G36*
G01X374989D02*
G03I-1414J0D01*
G37*
G36*
G01X470677Y1447433D02*
X473827Y1450583D01*
Y1444283D01*
X470677Y1447433D01*
G37*
G36*
G01X524004Y1249009D02*
Y1251509D01*
G03X531504Y1259009I0J7500D01*
G01X534004D01*
G02X524004Y1249009I-10000J0D01*
G37*
G36*
G01X514004Y1259009D02*
G02X524004Y1269009I10000J0D01*
G01Y1266509D01*
G03X516504Y1259009I0J-7500D01*
G01X514004D01*
G37*
G36*
G01X524004Y1463009D02*
Y1465509D01*
G03X531504Y1473009I0J7500D01*
G01X534004D01*
G02X524004Y1463009I-10000J0D01*
G37*
G36*
G01X514004Y1473009D02*
G02X524004Y1483009I10000J0D01*
G01Y1480509D01*
G03X516504Y1473009I0J-7500D01*
G01X514004D01*
G37*
G54D10*
G01X325000Y1296000D02*
X319000D01*
G01X315000Y1320000D02*
X312000D01*
Y1296000D01*
X315000D01*
G01X325000Y1320000D02*
X319000D01*
G01X329000Y1296000D02*
X332000D01*
Y1320000D01*
X329000D01*
G01X347000Y1296000D02*
X341000D01*
G01X337000Y1320000D02*
X334000D01*
Y1296000D01*
X337000D01*
G01X347000Y1320000D02*
X341000D01*
G01X351000Y1296000D02*
X354000D01*
Y1320000D01*
X351000D01*
G01X359000D02*
X356000D01*
Y1296000D01*
X359000D01*
G01X369000D02*
X363000D01*
G01X369000Y1320000D02*
X363000D01*
G01X373000Y1296000D02*
X376000D01*
Y1320000D01*
X373000D01*
G54D11*
G01X245000Y1485000D02*
Y1248000D01*
X534000D01*
Y1485000D01*
X245000D01*
G01X266304Y1260009D02*
G03I-10300J0D01*
G01X268304Y1474009D02*
G03I-10300J0D01*
G01X329420Y1283410D02*
Y1276610D01*
X314820D01*
Y1283410D01*
X329420D01*
G01X369420D02*
Y1276610D01*
X354820D01*
Y1283410D01*
X369420D01*
G01X409420D02*
Y1276610D01*
X394820D01*
Y1283410D01*
X409420D01*
G01X410441Y1368693D02*
Y1455307D01*
X465559D01*
Y1368693D01*
X410441D01*
G01X461780Y1468126D02*
X434220D01*
Y1483874D01*
X461780D01*
Y1468126D01*
G01X498590Y1307420D02*
X505390D01*
Y1292820D01*
X498590D01*
Y1307420D01*
G01Y1363420D02*
X505390D01*
Y1348820D01*
X498590D01*
Y1363420D01*
G01Y1335420D02*
X505390D01*
Y1320820D01*
X498590D01*
Y1335420D01*
G01Y1397420D02*
X505390D01*
Y1382820D01*
X498590D01*
Y1397420D01*
G01X534304Y1259009D02*
G03I-10300J0D01*
G01Y1473009D02*
G03I-10300J0D01*
G01X333500Y1285500D02*
Y1281000D01*
G01X334900Y1280400D02*
X337200D01*
G01X334900Y1279700D02*
X337200D01*
G01X338500Y1281000D02*
Y1285500D01*
X333500D01*
G01Y1279000D02*
Y1274500D01*
X338500D01*
Y1279000D01*
G01X373500Y1285500D02*
Y1281000D01*
G01X374900Y1280400D02*
X377200D01*
G01X374900Y1279700D02*
X377200D01*
G01X378500Y1281000D02*
Y1285500D01*
X373500D01*
G01Y1279000D02*
Y1274500D01*
X378500D01*
Y1279000D01*
G01X413500Y1285500D02*
Y1281000D01*
G01X414900Y1280400D02*
X417200D01*
G01X414900Y1279700D02*
X417200D01*
G01X418500Y1281000D02*
Y1285500D01*
X413500D01*
G01Y1279000D02*
Y1274500D01*
X418500D01*
Y1279000D01*
G01X396500Y1411000D02*
Y1405500D01*
X397000D01*
X403500D01*
Y1411000D01*
G01X397500Y1429500D02*
Y1425000D01*
G01X398900Y1424400D02*
X401200D01*
G01X398900Y1423700D02*
X401200D01*
G01X402500Y1425000D02*
Y1429500D01*
X397500D01*
G01Y1423000D02*
Y1418500D01*
X402500D01*
Y1423000D01*
G01X403500Y1413000D02*
Y1418500D01*
X396500D01*
G01X398500Y1411600D02*
X401500D01*
G01X398500Y1412300D02*
X401500D01*
G01X396500Y1418500D02*
Y1413000D01*
G01X446500Y1277500D02*
X451000D01*
G01Y1282500D02*
X446500D01*
Y1277500D01*
G01X432000Y1312000D02*
Y1296000D01*
G01X445000Y1327500D02*
X439500D01*
Y1320500D01*
G01X447000D02*
X452500D01*
Y1321000D01*
Y1327500D01*
X447000D01*
G01X446400Y1322500D02*
Y1325500D01*
G01X445700Y1322500D02*
Y1325500D01*
G01X439500Y1320500D02*
X445000D01*
G01X451600Y1278900D02*
Y1281200D01*
G01X452300Y1278900D02*
Y1281200D01*
G01X453000Y1277500D02*
X457500D01*
Y1282500D01*
X453000D01*
G01X455000Y1293000D02*
G03I-1500J0D01*
G01X452000Y1312000D02*
Y1296000D01*
G01X466000Y1312000D02*
Y1296000D01*
G01X479000Y1327500D02*
X473500D01*
Y1320500D01*
G01X479700Y1322500D02*
Y1325500D01*
G01X473500Y1320500D02*
X479000D01*
G01X468000Y1347500D02*
X473500D01*
Y1354500D01*
G01X466000D02*
X460500D01*
Y1354000D01*
Y1347500D01*
X466000D01*
G01X466600Y1352500D02*
Y1349500D01*
G01X467300Y1352500D02*
Y1349500D01*
G01X468000Y1356500D02*
X473500D01*
Y1363500D01*
G01X466000D02*
X460500D01*
Y1363000D01*
Y1356500D01*
X466000D01*
G01X466600Y1361500D02*
Y1358500D01*
G01X467300Y1361500D02*
Y1358500D01*
G01X473500Y1363500D02*
X468000D01*
G01X473500Y1354500D02*
X468000D01*
G01X486500Y1277500D02*
X491000D01*
G01X491600Y1278900D02*
Y1281200D01*
G01X492300Y1278900D02*
Y1281200D01*
G01X491000Y1282500D02*
X486500D01*
Y1277500D01*
G01X493000D02*
X497500D01*
Y1282500D01*
X493000D01*
G01X489000Y1293000D02*
G03I-1500J0D01*
G01X486000Y1312000D02*
Y1296000D01*
G01X481000Y1320500D02*
X486500D01*
Y1321000D01*
Y1327500D01*
X481000D01*
G01X480400Y1322500D02*
Y1325500D01*
G01X501500Y1421500D02*
Y1417000D01*
G01X502900Y1416400D02*
X505200D01*
G01X502900Y1415700D02*
X505200D01*
G01X506500Y1417000D02*
Y1421500D01*
X501500D01*
G01Y1415000D02*
Y1410500D01*
X506500D01*
Y1415000D01*
G54D12*
G01X260767Y1272000D02*
Y1276000D01*
X259250Y1272667D01*
X257733Y1276000D01*
Y1272000D01*
G01X256375D02*
Y1276000D01*
G01X253925D02*
Y1272000D01*
G01Y1274000D02*
X256375D01*
G01X252158Y1275333D02*
X251808Y1275733D01*
X251400Y1275933D01*
X250933Y1276000D01*
X250350Y1275867D01*
X249942Y1275533D01*
X249825Y1275133D01*
X249883Y1274733D01*
X250117Y1274400D01*
X251283Y1273733D01*
X251808Y1273267D01*
X252158Y1272600D01*
X252275Y1272000D01*
X249825D01*
G01X258767Y1457000D02*
Y1461000D01*
X257250Y1457667D01*
X255733Y1461000D01*
Y1457000D01*
G01X254375D02*
Y1461000D01*
G01X251925D02*
Y1457000D01*
G01Y1459000D02*
X254375D01*
G01X249050Y1457000D02*
Y1461000D01*
X249750Y1460200D01*
G01Y1457000D02*
X248350D01*
G01X326475Y1253533D02*
X326008Y1253200D01*
X325483Y1253000D01*
X325017D01*
X324550Y1253200D01*
X324200Y1253533D01*
X324025Y1254000D01*
X324142Y1254467D01*
X324433Y1254867D01*
X324958Y1255133D01*
X325658Y1255267D01*
X326067Y1255533D01*
X326242Y1256000D01*
X326125Y1256467D01*
X325833Y1256800D01*
X325425Y1257000D01*
X325017D01*
X324608Y1256867D01*
X324258Y1256533D01*
G01X322900Y1257000D02*
X322083Y1253000D01*
X321150Y1257000D01*
X320217Y1253000D01*
X319400Y1257000D01*
G01X317050Y1253000D02*
Y1257000D01*
X317750Y1256200D01*
G01Y1253000D02*
X316350D01*
G01X332533Y1308000D02*
Y1305133D01*
X332300Y1304533D01*
X331833Y1304133D01*
X331250Y1304000D01*
X330667Y1304133D01*
X330200Y1304533D01*
X329967Y1305133D01*
Y1308000D01*
G01X328258Y1305667D02*
X327850Y1306133D01*
X327500Y1306400D01*
X327033Y1306533D01*
X326625Y1306400D01*
X326333Y1306133D01*
X326100Y1305733D01*
X326042Y1305267D01*
X326100Y1304867D01*
X326333Y1304467D01*
X326683Y1304133D01*
X327092Y1304000D01*
X327558Y1304133D01*
X327967Y1304533D01*
X328200Y1305133D01*
X328258Y1305800D01*
X328142Y1306667D01*
X327967Y1307133D01*
X327675Y1307600D01*
X327267Y1307933D01*
X326858Y1308000D01*
X326450Y1307867D01*
X326158Y1307533D01*
G01X332533Y1333000D02*
Y1330133D01*
X332300Y1329533D01*
X331833Y1329133D01*
X331250Y1329000D01*
X330667Y1329133D01*
X330200Y1329533D01*
X329967Y1330133D01*
Y1333000D01*
G01X327150Y1329000D02*
X326742Y1329067D01*
X326275Y1329267D01*
X325983Y1329600D01*
X325867Y1330067D01*
X325983Y1330533D01*
X326333Y1330933D01*
X326858Y1331133D01*
X327442D01*
X327792Y1331267D01*
X328083Y1331600D01*
X328200Y1332067D01*
X328025Y1332533D01*
X327617Y1332867D01*
X327150Y1333000D01*
X326683Y1332867D01*
X326275Y1332533D01*
X326100Y1332067D01*
X326217Y1331600D01*
X326508Y1331267D01*
X326858Y1331133D01*
X327442D01*
X327967Y1330933D01*
X328317Y1330533D01*
X328433Y1330067D01*
X328317Y1329600D01*
X328025Y1329267D01*
X327558Y1329067D01*
X327150Y1329000D01*
G01X348475Y1253533D02*
X348008Y1253200D01*
X347483Y1253000D01*
X347017D01*
X346550Y1253200D01*
X346200Y1253533D01*
X346025Y1254000D01*
X346142Y1254467D01*
X346433Y1254867D01*
X346958Y1255133D01*
X347658Y1255267D01*
X348067Y1255533D01*
X348242Y1256000D01*
X348125Y1256467D01*
X347833Y1256800D01*
X347425Y1257000D01*
X347017D01*
X346608Y1256867D01*
X346258Y1256533D01*
G01X342800Y1255000D02*
X341633D01*
Y1253800D01*
X341983Y1253400D01*
X342392Y1253133D01*
X342975Y1253000D01*
X343558Y1253133D01*
X343967Y1253400D01*
X344317Y1253800D01*
X344550Y1254267D01*
X344667Y1254800D01*
Y1255267D01*
X344550Y1255667D01*
X344317Y1256133D01*
X343967Y1256533D01*
X343617Y1256800D01*
X343150Y1257000D01*
X342742D01*
X342275Y1256867D01*
X341925Y1256600D01*
G01X340392Y1253000D02*
Y1257000D01*
X337708Y1253000D01*
Y1257000D01*
G01X336233Y1253000D02*
Y1257000D01*
X335067D01*
X334600Y1256800D01*
X334250Y1256533D01*
X333958Y1256133D01*
X333725Y1255667D01*
X333667Y1255000D01*
X333725Y1254333D01*
X333958Y1253867D01*
X334250Y1253467D01*
X334600Y1253200D01*
X335067Y1253000D01*
X336233D01*
G01X366475Y1253533D02*
X366008Y1253200D01*
X365483Y1253000D01*
X365017D01*
X364550Y1253200D01*
X364200Y1253533D01*
X364025Y1254000D01*
X364142Y1254467D01*
X364433Y1254867D01*
X364958Y1255133D01*
X365658Y1255267D01*
X366067Y1255533D01*
X366242Y1256000D01*
X366125Y1256467D01*
X365833Y1256800D01*
X365425Y1257000D01*
X365017D01*
X364608Y1256867D01*
X364258Y1256533D01*
G01X362900Y1257000D02*
X362083Y1253000D01*
X361150Y1257000D01*
X360217Y1253000D01*
X359400Y1257000D01*
G01X358158Y1256333D02*
X357808Y1256733D01*
X357400Y1256933D01*
X356933Y1257000D01*
X356350Y1256867D01*
X355942Y1256533D01*
X355825Y1256133D01*
X355883Y1255733D01*
X356117Y1255400D01*
X357283Y1254733D01*
X357808Y1254267D01*
X358158Y1253600D01*
X358275Y1253000D01*
X355825D01*
G01X350417Y1281000D02*
Y1285000D01*
X348958D01*
X348492Y1284800D01*
X348200Y1284533D01*
X348083Y1284000D01*
X348200Y1283467D01*
X348550Y1283133D01*
X348958Y1282933D01*
X350417D01*
G01X348958D02*
X348083Y1281000D01*
G01X345150D02*
Y1285000D01*
X345850Y1284200D01*
G01Y1281000D02*
X344450D01*
G01X342042Y1281467D02*
X341633Y1281133D01*
X341167Y1281000D01*
X340700Y1281133D01*
X340292Y1281533D01*
X340000Y1282133D01*
X339883Y1282733D01*
Y1283467D01*
X340000Y1284067D01*
X340292Y1284600D01*
X340642Y1284867D01*
X341050Y1285000D01*
X341517Y1284867D01*
X341867Y1284600D01*
X342100Y1284200D01*
X342217Y1283667D01*
X342100Y1283200D01*
X341808Y1282733D01*
X341458Y1282467D01*
X341050Y1282400D01*
X340583Y1282533D01*
X340233Y1282867D01*
X339883Y1283467D01*
G01X350533Y1276000D02*
Y1280000D01*
X349367D01*
X348900Y1279800D01*
X348550Y1279533D01*
X348258Y1279133D01*
X348025Y1278667D01*
X347967Y1278000D01*
X348025Y1277333D01*
X348258Y1276867D01*
X348550Y1276467D01*
X348900Y1276200D01*
X349367Y1276000D01*
X350533D01*
G01X345150D02*
Y1280000D01*
X345850Y1279200D01*
G01Y1276000D02*
X344450D01*
G01X340350D02*
Y1280000D01*
X342508Y1277133D01*
X339592D01*
G01X354533Y1308000D02*
Y1305133D01*
X354300Y1304533D01*
X353833Y1304133D01*
X353250Y1304000D01*
X352667Y1304133D01*
X352200Y1304533D01*
X351967Y1305133D01*
Y1308000D01*
G01X350142Y1304467D02*
X349733Y1304133D01*
X349267Y1304000D01*
X348800Y1304133D01*
X348392Y1304533D01*
X348100Y1305133D01*
X347983Y1305733D01*
Y1306467D01*
X348100Y1307067D01*
X348392Y1307600D01*
X348742Y1307867D01*
X349150Y1308000D01*
X349617Y1307867D01*
X349967Y1307600D01*
X350200Y1307200D01*
X350317Y1306667D01*
X350200Y1306200D01*
X349908Y1305733D01*
X349558Y1305467D01*
X349150Y1305400D01*
X348683Y1305533D01*
X348333Y1305867D01*
X347983Y1306467D01*
G01X387475Y1253533D02*
X387008Y1253200D01*
X386483Y1253000D01*
X386017D01*
X385550Y1253200D01*
X385200Y1253533D01*
X385025Y1254000D01*
X385142Y1254467D01*
X385433Y1254867D01*
X385958Y1255133D01*
X386658Y1255267D01*
X387067Y1255533D01*
X387242Y1256000D01*
X387125Y1256467D01*
X386833Y1256800D01*
X386425Y1257000D01*
X386017D01*
X385608Y1256867D01*
X385258Y1256533D01*
G01X381800Y1255000D02*
X380633D01*
Y1253800D01*
X380983Y1253400D01*
X381392Y1253133D01*
X381975Y1253000D01*
X382558Y1253133D01*
X382967Y1253400D01*
X383317Y1253800D01*
X383550Y1254267D01*
X383667Y1254800D01*
Y1255267D01*
X383550Y1255667D01*
X383317Y1256133D01*
X382967Y1256533D01*
X382617Y1256800D01*
X382150Y1257000D01*
X381742D01*
X381275Y1256867D01*
X380925Y1256600D01*
G01X379392Y1253000D02*
Y1257000D01*
X376708Y1253000D01*
Y1257000D01*
G01X375233Y1253000D02*
Y1257000D01*
X374067D01*
X373600Y1256800D01*
X373250Y1256533D01*
X372958Y1256133D01*
X372725Y1255667D01*
X372667Y1255000D01*
X372725Y1254333D01*
X372958Y1253867D01*
X373250Y1253467D01*
X373600Y1253200D01*
X374067Y1253000D01*
X375233D01*
G01X390417Y1280000D02*
Y1284000D01*
X388958D01*
X388492Y1283800D01*
X388200Y1283533D01*
X388083Y1283000D01*
X388200Y1282467D01*
X388550Y1282133D01*
X388958Y1281933D01*
X390417D01*
G01X388958D02*
X388083Y1280000D01*
G01X385150D02*
Y1284000D01*
X385850Y1283200D01*
G01Y1280000D02*
X384450D01*
G01X381050D02*
X380642Y1280067D01*
X380175Y1280267D01*
X379883Y1280600D01*
X379767Y1281067D01*
X379883Y1281533D01*
X380233Y1281933D01*
X380758Y1282133D01*
X381342D01*
X381692Y1282267D01*
X381983Y1282600D01*
X382100Y1283067D01*
X381925Y1283533D01*
X381517Y1283867D01*
X381050Y1284000D01*
X380583Y1283867D01*
X380175Y1283533D01*
X380000Y1283067D01*
X380117Y1282600D01*
X380408Y1282267D01*
X380758Y1282133D01*
X381342D01*
X381867Y1281933D01*
X382217Y1281533D01*
X382333Y1281067D01*
X382217Y1280600D01*
X381925Y1280267D01*
X381458Y1280067D01*
X381050Y1280000D01*
G01X390533Y1275000D02*
Y1279000D01*
X389367D01*
X388900Y1278800D01*
X388550Y1278533D01*
X388258Y1278133D01*
X388025Y1277667D01*
X387967Y1277000D01*
X388025Y1276333D01*
X388258Y1275867D01*
X388550Y1275467D01*
X388900Y1275200D01*
X389367Y1275000D01*
X390533D01*
G01X385150D02*
Y1279000D01*
X385850Y1278200D01*
G01Y1275000D02*
X384450D01*
G01X382158Y1278333D02*
X381808Y1278733D01*
X381400Y1278933D01*
X380933Y1279000D01*
X380350Y1278867D01*
X379942Y1278533D01*
X379825Y1278133D01*
X379883Y1277733D01*
X380117Y1277400D01*
X381283Y1276733D01*
X381808Y1276267D01*
X382158Y1275600D01*
X382275Y1275000D01*
X379825D01*
G01X395417Y1425000D02*
Y1429000D01*
X393958D01*
X393492Y1428800D01*
X393200Y1428533D01*
X393083Y1428000D01*
X393200Y1427467D01*
X393550Y1427133D01*
X393958Y1426933D01*
X395417D01*
G01X393958D02*
X393083Y1425000D01*
G01X391258Y1428333D02*
X390908Y1428733D01*
X390500Y1428933D01*
X390033Y1429000D01*
X389450Y1428867D01*
X389042Y1428533D01*
X388925Y1428133D01*
X388983Y1427733D01*
X389217Y1427400D01*
X390383Y1426733D01*
X390908Y1426267D01*
X391258Y1425600D01*
X391375Y1425000D01*
X388925D01*
G01X387158Y1428333D02*
X386808Y1428733D01*
X386400Y1428933D01*
X385933Y1429000D01*
X385350Y1428867D01*
X384942Y1428533D01*
X384825Y1428133D01*
X384883Y1427733D01*
X385117Y1427400D01*
X386283Y1426733D01*
X386808Y1426267D01*
X387158Y1425600D01*
X387275Y1425000D01*
X384825D01*
G01X391967Y1417667D02*
X392317Y1417867D01*
X392725Y1418000D01*
X393192D01*
X393717Y1417800D01*
X394125Y1417467D01*
X394417Y1417067D01*
X394650Y1416400D01*
X394708Y1415800D01*
X394592Y1415200D01*
X394417Y1414800D01*
X394067Y1414400D01*
X393658Y1414133D01*
X393250Y1414000D01*
X392842D01*
X392433Y1414133D01*
X392083Y1414333D01*
X391792Y1414600D01*
G01X390258Y1417333D02*
X389908Y1417733D01*
X389500Y1417933D01*
X389033Y1418000D01*
X388450Y1417867D01*
X388042Y1417533D01*
X387925Y1417133D01*
X387983Y1416733D01*
X388217Y1416400D01*
X389383Y1415733D01*
X389908Y1415267D01*
X390258Y1414600D01*
X390375Y1414000D01*
X387925D01*
G01X386333Y1414600D02*
X385983Y1414267D01*
X385575Y1414067D01*
X385050Y1414000D01*
X384525Y1414133D01*
X384117Y1414400D01*
X383825Y1414867D01*
X383767Y1415400D01*
X383883Y1415933D01*
X384175Y1416267D01*
X384583Y1416533D01*
X384992Y1416600D01*
X385400Y1416533D01*
X385925Y1416267D01*
X385750Y1418000D01*
X384175D01*
G01X406417Y1253000D02*
Y1257000D01*
X405017D01*
X404550Y1256800D01*
X404200Y1256333D01*
X404083Y1255800D01*
X404200Y1255267D01*
X404492Y1254867D01*
X405017Y1254667D01*
X406417D01*
G01X402317Y1257000D02*
Y1253000D01*
X399983D01*
G01X398275Y1253533D02*
X397808Y1253200D01*
X397283Y1253000D01*
X396817D01*
X396350Y1253200D01*
X396000Y1253533D01*
X395825Y1254000D01*
X395942Y1254467D01*
X396233Y1254867D01*
X396758Y1255133D01*
X397458Y1255267D01*
X397867Y1255533D01*
X398042Y1256000D01*
X397925Y1256467D01*
X397633Y1256800D01*
X397225Y1257000D01*
X396817D01*
X396408Y1256867D01*
X396058Y1256533D01*
G01X427475Y1253533D02*
X427008Y1253200D01*
X426483Y1253000D01*
X426017D01*
X425550Y1253200D01*
X425200Y1253533D01*
X425025Y1254000D01*
X425142Y1254467D01*
X425433Y1254867D01*
X425958Y1255133D01*
X426658Y1255267D01*
X427067Y1255533D01*
X427242Y1256000D01*
X427125Y1256467D01*
X426833Y1256800D01*
X426425Y1257000D01*
X426017D01*
X425608Y1256867D01*
X425258Y1256533D01*
G01X423492Y1253000D02*
Y1257000D01*
X420808Y1253000D01*
Y1257000D01*
G01X417700Y1255000D02*
X416533D01*
Y1253800D01*
X416883Y1253400D01*
X417292Y1253133D01*
X417875Y1253000D01*
X418458Y1253133D01*
X418867Y1253400D01*
X419217Y1253800D01*
X419450Y1254267D01*
X419567Y1254800D01*
Y1255267D01*
X419450Y1255667D01*
X419217Y1256133D01*
X418867Y1256533D01*
X418517Y1256800D01*
X418050Y1257000D01*
X417642D01*
X417175Y1256867D01*
X416825Y1256600D01*
G01X417034Y1272367D02*
X413034D01*
Y1270908D01*
X413234Y1270442D01*
X413501Y1270150D01*
X414034Y1270033D01*
X414567Y1270150D01*
X414901Y1270500D01*
X415101Y1270908D01*
Y1272367D01*
G01Y1270908D02*
X417034Y1270033D01*
G01X413701Y1268208D02*
X413301Y1267858D01*
X413101Y1267450D01*
X413034Y1266983D01*
X413167Y1266400D01*
X413501Y1265992D01*
X413901Y1265875D01*
X414301Y1265933D01*
X414634Y1266167D01*
X415301Y1267333D01*
X415767Y1267858D01*
X416434Y1268208D01*
X417034Y1268325D01*
Y1265875D01*
G01Y1263000D02*
X413034D01*
X413834Y1263700D01*
G01X417034D02*
Y1262300D01*
G01X397967Y1282500D02*
Y1278500D01*
X399133D01*
X399600Y1278700D01*
X399950Y1278967D01*
X400242Y1279367D01*
X400475Y1279833D01*
X400533Y1280500D01*
X400475Y1281167D01*
X400242Y1281633D01*
X399950Y1282033D01*
X399600Y1282300D01*
X399133Y1282500D01*
X397967D01*
G01X403350D02*
Y1278500D01*
X402650Y1279300D01*
G01Y1282500D02*
X404050D01*
G01X406342Y1280833D02*
X406750Y1280367D01*
X407100Y1280100D01*
X407567Y1279967D01*
X407975Y1280100D01*
X408267Y1280367D01*
X408500Y1280767D01*
X408558Y1281233D01*
X408500Y1281633D01*
X408267Y1282033D01*
X407917Y1282367D01*
X407508Y1282500D01*
X407042Y1282367D01*
X406633Y1281967D01*
X406400Y1281367D01*
X406342Y1280700D01*
X406458Y1279833D01*
X406633Y1279367D01*
X406925Y1278900D01*
X407333Y1278567D01*
X407742Y1278500D01*
X408150Y1278633D01*
X408442Y1278967D01*
G01X443708Y1253000D02*
X442250Y1257000D01*
X440792Y1253000D01*
G01X441317Y1254400D02*
X443183D01*
G01X438150Y1253000D02*
Y1257000D01*
X438850Y1256200D01*
G01Y1253000D02*
X437450D01*
G01X428333Y1298000D02*
Y1295133D01*
X428100Y1294533D01*
X427633Y1294133D01*
X427050Y1294000D01*
X426467Y1294133D01*
X426000Y1294533D01*
X425767Y1295133D01*
Y1298000D01*
G01X422250Y1294000D02*
Y1298000D01*
X424408Y1295133D01*
X421492D01*
G01X442233Y1315433D02*
X441883Y1315233D01*
X441475Y1315100D01*
X441008D01*
X440483Y1315300D01*
X440075Y1315633D01*
X439783Y1316033D01*
X439550Y1316700D01*
X439492Y1317300D01*
X439608Y1317900D01*
X439783Y1318300D01*
X440133Y1318700D01*
X440542Y1318967D01*
X440950Y1319100D01*
X441358D01*
X441767Y1318967D01*
X442117Y1318767D01*
X442408Y1318500D01*
G01X443942Y1315767D02*
X444292Y1315367D01*
X444700Y1315167D01*
X445167Y1315100D01*
X445750Y1315233D01*
X446158Y1315567D01*
X446275Y1315967D01*
X446217Y1316367D01*
X445983Y1316700D01*
X444817Y1317367D01*
X444292Y1317833D01*
X443942Y1318500D01*
X443825Y1319100D01*
X446275D01*
G01X449150D02*
Y1315100D01*
X448450Y1315900D01*
G01Y1319100D02*
X449850D01*
G01X450967Y1353667D02*
X451317Y1353867D01*
X451725Y1354000D01*
X452192D01*
X452717Y1353800D01*
X453125Y1353467D01*
X453417Y1353067D01*
X453650Y1352400D01*
X453708Y1351800D01*
X453592Y1351200D01*
X453417Y1350800D01*
X453067Y1350400D01*
X452658Y1350133D01*
X452250Y1350000D01*
X451842D01*
X451433Y1350133D01*
X451083Y1350333D01*
X450792Y1350600D01*
G01X449258Y1353333D02*
X448908Y1353733D01*
X448500Y1353933D01*
X448033Y1354000D01*
X447450Y1353867D01*
X447042Y1353533D01*
X446925Y1353133D01*
X446983Y1352733D01*
X447217Y1352400D01*
X448383Y1351733D01*
X448908Y1351267D01*
X449258Y1350600D01*
X449375Y1350000D01*
X446925D01*
G01X443350D02*
Y1354000D01*
X445508Y1351133D01*
X442592D01*
G01X450967Y1360667D02*
X451317Y1360867D01*
X451725Y1361000D01*
X452192D01*
X452717Y1360800D01*
X453125Y1360467D01*
X453417Y1360067D01*
X453650Y1359400D01*
X453708Y1358800D01*
X453592Y1358200D01*
X453417Y1357800D01*
X453067Y1357400D01*
X452658Y1357133D01*
X452250Y1357000D01*
X451842D01*
X451433Y1357133D01*
X451083Y1357333D01*
X450792Y1357600D01*
G01X449258Y1360333D02*
X448908Y1360733D01*
X448500Y1360933D01*
X448033Y1361000D01*
X447450Y1360867D01*
X447042Y1360533D01*
X446925Y1360133D01*
X446983Y1359733D01*
X447217Y1359400D01*
X448383Y1358733D01*
X448908Y1358267D01*
X449258Y1357600D01*
X449375Y1357000D01*
X446925D01*
G01X445333Y1357800D02*
X444983Y1357333D01*
X444517Y1357067D01*
X443992Y1357000D01*
X443525Y1357067D01*
X443058Y1357400D01*
X442767Y1357800D01*
X442708Y1358200D01*
X442825Y1358667D01*
X443233Y1359000D01*
X443642Y1359133D01*
X444167D01*
G01X443642D02*
X443292Y1359333D01*
X443000Y1359667D01*
X442883Y1360067D01*
X443000Y1360467D01*
X443292Y1360800D01*
X443817Y1361000D01*
X444342Y1360933D01*
X444867Y1360667D01*
G01X462783Y1255133D02*
X462550Y1255333D01*
X462375Y1255667D01*
X462258Y1256133D01*
X462375Y1256533D01*
X462608Y1256800D01*
X463017Y1257000D01*
X464592D01*
Y1253000D01*
X462667D01*
X462258Y1253267D01*
X462025Y1253667D01*
X461908Y1254133D01*
X462025Y1254600D01*
X462375Y1255000D01*
X462783Y1255133D01*
X464592D01*
G01X459150Y1253000D02*
Y1257000D01*
X459850Y1256200D01*
G01Y1253000D02*
X458450D01*
G01X484708Y1254000D02*
X483250Y1258000D01*
X481792Y1254000D01*
G01X482317Y1255400D02*
X484183D01*
G01X480258Y1257333D02*
X479908Y1257733D01*
X479500Y1257933D01*
X479033Y1258000D01*
X478450Y1257867D01*
X478042Y1257533D01*
X477925Y1257133D01*
X477983Y1256733D01*
X478217Y1256400D01*
X479383Y1255733D01*
X479908Y1255267D01*
X480258Y1254600D01*
X480375Y1254000D01*
X477925D01*
G01X469417Y1278000D02*
Y1282000D01*
X467958D01*
X467492Y1281800D01*
X467200Y1281533D01*
X467083Y1281000D01*
X467200Y1280467D01*
X467550Y1280133D01*
X467958Y1279933D01*
X469417D01*
G01X467958D02*
X467083Y1278000D01*
G01X464150D02*
Y1282000D01*
X464850Y1281200D01*
G01Y1278000D02*
X463450D01*
G01X460167D02*
X460050Y1278867D01*
X459875Y1279600D01*
X459642Y1280267D01*
X459350Y1281000D01*
X458883Y1282000D01*
X461217D01*
G01X463333Y1297000D02*
Y1294133D01*
X463100Y1293533D01*
X462633Y1293133D01*
X462050Y1293000D01*
X461467Y1293133D01*
X461000Y1293533D01*
X460767Y1294133D01*
Y1297000D01*
G01X459233Y1293600D02*
X458883Y1293267D01*
X458475Y1293067D01*
X457950Y1293000D01*
X457425Y1293133D01*
X457017Y1293400D01*
X456725Y1293867D01*
X456667Y1294400D01*
X456783Y1294933D01*
X457075Y1295267D01*
X457483Y1295533D01*
X457892Y1295600D01*
X458300Y1295533D01*
X458825Y1295267D01*
X458650Y1297000D01*
X457075D01*
G01X476233Y1315433D02*
X475883Y1315233D01*
X475475Y1315100D01*
X475008D01*
X474483Y1315300D01*
X474075Y1315633D01*
X473783Y1316033D01*
X473550Y1316700D01*
X473492Y1317300D01*
X473608Y1317900D01*
X473783Y1318300D01*
X474133Y1318700D01*
X474542Y1318967D01*
X474950Y1319100D01*
X475358D01*
X475767Y1318967D01*
X476117Y1318767D01*
X476408Y1318500D01*
G01X477942Y1315767D02*
X478292Y1315367D01*
X478700Y1315167D01*
X479167Y1315100D01*
X479750Y1315233D01*
X480158Y1315567D01*
X480275Y1315967D01*
X480217Y1316367D01*
X479983Y1316700D01*
X478817Y1317367D01*
X478292Y1317833D01*
X477942Y1318500D01*
X477825Y1319100D01*
X480275D01*
G01X483150Y1315100D02*
X482683Y1315233D01*
X482333Y1315567D01*
X482100Y1315967D01*
X481925Y1316500D01*
X481867Y1317100D01*
X481925Y1317700D01*
X482100Y1318233D01*
X482333Y1318633D01*
X482683Y1318967D01*
X483150Y1319100D01*
X483617Y1318967D01*
X483967Y1318633D01*
X484200Y1318233D01*
X484375Y1317700D01*
X484433Y1317100D01*
X484375Y1316500D01*
X484200Y1315967D01*
X483967Y1315567D01*
X483617Y1315233D01*
X483150Y1315100D01*
G01X466533Y1465000D02*
Y1462133D01*
X466300Y1461533D01*
X465833Y1461133D01*
X465250Y1461000D01*
X464667Y1461133D01*
X464200Y1461533D01*
X463967Y1462133D01*
Y1465000D01*
G01X461150Y1461000D02*
Y1465000D01*
X461850Y1464200D01*
G01Y1461000D02*
X460450D01*
G01X457050Y1465000D02*
X457517Y1464867D01*
X457867Y1464533D01*
X458100Y1464133D01*
X458275Y1463600D01*
X458333Y1463000D01*
X458275Y1462400D01*
X458100Y1461867D01*
X457867Y1461467D01*
X457517Y1461133D01*
X457050Y1461000D01*
X456583Y1461133D01*
X456233Y1461467D01*
X456000Y1461867D01*
X455825Y1462400D01*
X455767Y1463000D01*
X455825Y1463600D01*
X456000Y1464133D01*
X456233Y1464533D01*
X456583Y1464867D01*
X457050Y1465000D01*
G01X468917Y1480000D02*
X466583D01*
Y1476000D01*
X468917D01*
G01X467983Y1477933D02*
X466583D01*
G01X471850Y1480000D02*
Y1476000D01*
X471150Y1476800D01*
G01Y1480000D02*
X472550D01*
G01X502783Y1256133D02*
X502550Y1256333D01*
X502375Y1256667D01*
X502258Y1257133D01*
X502375Y1257533D01*
X502608Y1257800D01*
X503017Y1258000D01*
X504592D01*
Y1254000D01*
X502667D01*
X502258Y1254267D01*
X502025Y1254667D01*
X501908Y1255133D01*
X502025Y1255600D01*
X502375Y1256000D01*
X502783Y1256133D01*
X504592D01*
G01X500258Y1257333D02*
X499908Y1257733D01*
X499500Y1257933D01*
X499033Y1258000D01*
X498450Y1257867D01*
X498042Y1257533D01*
X497925Y1257133D01*
X497983Y1256733D01*
X498217Y1256400D01*
X499383Y1255733D01*
X499908Y1255267D01*
X500258Y1254600D01*
X500375Y1254000D01*
X497925D01*
G01X509417Y1277000D02*
Y1281000D01*
X507958D01*
X507492Y1280800D01*
X507200Y1280533D01*
X507083Y1280000D01*
X507200Y1279467D01*
X507550Y1279133D01*
X507958Y1278933D01*
X509417D01*
G01X507958D02*
X507083Y1277000D01*
G01X504150D02*
Y1281000D01*
X504850Y1280200D01*
G01Y1277000D02*
X503450D01*
G01X501158Y1278667D02*
X500750Y1279133D01*
X500400Y1279400D01*
X499933Y1279533D01*
X499525Y1279400D01*
X499233Y1279133D01*
X499000Y1278733D01*
X498942Y1278267D01*
X499000Y1277867D01*
X499233Y1277467D01*
X499583Y1277133D01*
X499992Y1277000D01*
X500458Y1277133D01*
X500867Y1277533D01*
X501100Y1278133D01*
X501158Y1278800D01*
X501042Y1279667D01*
X500867Y1280133D01*
X500575Y1280600D01*
X500167Y1280933D01*
X499758Y1281000D01*
X499350Y1280867D01*
X499058Y1280533D01*
G01X493000Y1297467D02*
X497000D01*
Y1298633D01*
X496800Y1299100D01*
X496533Y1299450D01*
X496133Y1299742D01*
X495667Y1299975D01*
X495000Y1300033D01*
X494333Y1299975D01*
X493867Y1299742D01*
X493467Y1299450D01*
X493200Y1299100D01*
X493000Y1298633D01*
Y1297467D01*
G01Y1302850D02*
X497000D01*
X496200Y1302150D01*
G01X493000D02*
Y1303550D01*
G01Y1306950D02*
X497000D01*
X496200Y1306250D01*
G01X493000D02*
Y1307650D01*
G01X492000Y1321467D02*
X496000D01*
Y1322633D01*
X495800Y1323100D01*
X495533Y1323450D01*
X495133Y1323742D01*
X494667Y1323975D01*
X494000Y1324033D01*
X493333Y1323975D01*
X492867Y1323742D01*
X492467Y1323450D01*
X492200Y1323100D01*
X492000Y1322633D01*
Y1321467D01*
G01Y1326850D02*
X496000D01*
X495200Y1326150D01*
G01X492000D02*
Y1327550D01*
G01X496000Y1330950D02*
X495867Y1330483D01*
X495533Y1330133D01*
X495133Y1329900D01*
X494600Y1329725D01*
X494000Y1329667D01*
X493400Y1329725D01*
X492867Y1329900D01*
X492467Y1330133D01*
X492133Y1330483D01*
X492000Y1330950D01*
X492133Y1331417D01*
X492467Y1331767D01*
X492867Y1332000D01*
X493400Y1332175D01*
X494000Y1332233D01*
X494600Y1332175D01*
X495133Y1332000D01*
X495533Y1331767D01*
X495867Y1331417D01*
X496000Y1330950D01*
G01X494000Y1352467D02*
X498000D01*
Y1353633D01*
X497800Y1354100D01*
X497533Y1354450D01*
X497133Y1354742D01*
X496667Y1354975D01*
X496000Y1355033D01*
X495333Y1354975D01*
X494867Y1354742D01*
X494467Y1354450D01*
X494200Y1354100D01*
X494000Y1353633D01*
Y1352467D01*
G01Y1357850D02*
X498000D01*
X497200Y1357150D01*
G01X494000D02*
Y1358550D01*
G01X494600Y1360667D02*
X494267Y1361017D01*
X494067Y1361425D01*
X494000Y1361950D01*
X494133Y1362475D01*
X494400Y1362883D01*
X494867Y1363175D01*
X495400Y1363233D01*
X495933Y1363117D01*
X496267Y1362825D01*
X496533Y1362417D01*
X496600Y1362008D01*
X496533Y1361600D01*
X496267Y1361075D01*
X498000Y1361250D01*
Y1362825D01*
G01X494000Y1386467D02*
X498000D01*
Y1387633D01*
X497800Y1388100D01*
X497533Y1388450D01*
X497133Y1388742D01*
X496667Y1388975D01*
X496000Y1389033D01*
X495333Y1388975D01*
X494867Y1388742D01*
X494467Y1388450D01*
X494200Y1388100D01*
X494000Y1387633D01*
Y1386467D01*
G01Y1391850D02*
X498000D01*
X497200Y1391150D01*
G01X494000D02*
Y1392550D01*
G01X494800Y1394667D02*
X494333Y1395017D01*
X494067Y1395483D01*
X494000Y1396008D01*
X494067Y1396475D01*
X494400Y1396942D01*
X494800Y1397233D01*
X495200Y1397292D01*
X495667Y1397175D01*
X496000Y1396767D01*
X496133Y1396358D01*
Y1395833D01*
G01Y1396358D02*
X496333Y1396708D01*
X496667Y1397000D01*
X497067Y1397117D01*
X497467Y1397000D01*
X497800Y1396708D01*
X498000Y1396183D01*
X497933Y1395658D01*
X497667Y1395133D01*
G01X495000Y1412583D02*
X499000D01*
Y1414042D01*
X498800Y1414508D01*
X498533Y1414800D01*
X498000Y1414917D01*
X497467Y1414800D01*
X497133Y1414450D01*
X496933Y1414042D01*
Y1412583D01*
G01Y1414042D02*
X495000Y1414917D01*
G01X498333Y1416742D02*
X498733Y1417092D01*
X498933Y1417500D01*
X499000Y1417967D01*
X498867Y1418550D01*
X498533Y1418958D01*
X498133Y1419075D01*
X497733Y1419017D01*
X497400Y1418783D01*
X496733Y1417617D01*
X496267Y1417092D01*
X495600Y1416742D01*
X495000Y1416625D01*
Y1419075D01*
G01X499000Y1421950D02*
X498867Y1421483D01*
X498533Y1421133D01*
X498133Y1420900D01*
X497600Y1420725D01*
X497000Y1420667D01*
X496400Y1420725D01*
X495867Y1420900D01*
X495467Y1421133D01*
X495133Y1421483D01*
X495000Y1421950D01*
X495133Y1422417D01*
X495467Y1422767D01*
X495867Y1423000D01*
X496400Y1423175D01*
X497000Y1423233D01*
X497600Y1423175D01*
X498133Y1423000D01*
X498533Y1422767D01*
X498867Y1422417D01*
X499000Y1421950D01*
G01X510767Y1475000D02*
Y1479000D01*
X509250Y1475667D01*
X507733Y1479000D01*
Y1475000D01*
G01X506375D02*
Y1479000D01*
G01X503925D02*
Y1475000D01*
G01Y1477000D02*
X506375D01*
G01X500350Y1475000D02*
Y1479000D01*
X502508Y1476133D01*
X499592D01*
G01X525927Y1271030D02*
Y1275030D01*
X524410Y1271697D01*
X522893Y1275030D01*
Y1271030D01*
G01X521535D02*
Y1275030D01*
G01X519085D02*
Y1271030D01*
G01Y1273030D02*
X521535D01*
G01X517493Y1271830D02*
X517143Y1271363D01*
X516677Y1271097D01*
X516152Y1271030D01*
X515685Y1271097D01*
X515218Y1271430D01*
X514927Y1271830D01*
X514868Y1272230D01*
X514985Y1272697D01*
X515393Y1273030D01*
X515802Y1273163D01*
X516327D01*
G01X515802D02*
X515452Y1273363D01*
X515160Y1273697D01*
X515043Y1274097D01*
X515160Y1274497D01*
X515452Y1274830D01*
X515977Y1275030D01*
X516502Y1274963D01*
X517027Y1274697D01*
G01X529000Y1321708D02*
X525000Y1320250D01*
X529000Y1318792D01*
G01X527600Y1319317D02*
Y1321183D01*
G01X529000Y1317433D02*
X525000D01*
Y1316267D01*
X525200Y1315800D01*
X525467Y1315450D01*
X525867Y1315158D01*
X526333Y1314925D01*
X527000Y1314867D01*
X527667Y1314925D01*
X528133Y1315158D01*
X528533Y1315450D01*
X528800Y1315800D01*
X529000Y1316267D01*
Y1317433D01*
G01X525333Y1310767D02*
X525133Y1311117D01*
X525000Y1311525D01*
Y1311992D01*
X525200Y1312517D01*
X525533Y1312925D01*
X525933Y1313217D01*
X526600Y1313450D01*
X527200Y1313508D01*
X527800Y1313392D01*
X528200Y1313217D01*
X528600Y1312867D01*
X528867Y1312458D01*
X529000Y1312050D01*
Y1311642D01*
X528867Y1311233D01*
X528667Y1310883D01*
X528400Y1310592D01*
G01X529000Y1307950D02*
X525000D01*
X525800Y1308650D01*
G01X529000D02*
Y1307250D01*
G01X528400Y1297533D02*
X528733Y1297183D01*
X528933Y1296775D01*
X529000Y1296250D01*
X528867Y1295725D01*
X528600Y1295317D01*
X528133Y1295025D01*
X527600Y1294967D01*
X527067Y1295083D01*
X526733Y1295375D01*
X526467Y1295783D01*
X526400Y1296192D01*
X526467Y1296600D01*
X526733Y1297125D01*
X525000Y1296950D01*
Y1295375D01*
G01Y1293608D02*
X529000Y1292150D01*
X525000Y1290692D01*
G01X527000Y1336900D02*
Y1335733D01*
X528200D01*
X528600Y1336083D01*
X528867Y1336492D01*
X529000Y1337075D01*
X528867Y1337658D01*
X528600Y1338067D01*
X528200Y1338417D01*
X527733Y1338650D01*
X527200Y1338767D01*
X526733D01*
X526333Y1338650D01*
X525867Y1338417D01*
X525467Y1338067D01*
X525200Y1337717D01*
X525000Y1337250D01*
Y1336842D01*
X525133Y1336375D01*
X525400Y1336025D01*
G01X529000Y1334492D02*
X525000D01*
X529000Y1331808D01*
X525000D01*
G01X529000Y1330333D02*
X525000D01*
Y1329167D01*
X525200Y1328700D01*
X525467Y1328350D01*
X525867Y1328058D01*
X526333Y1327825D01*
X527000Y1327767D01*
X527667Y1327825D01*
X528133Y1328058D01*
X528533Y1328350D01*
X528800Y1328700D01*
X529000Y1329167D01*
Y1330333D01*
G01Y1381708D02*
X525000Y1380250D01*
X529000Y1378792D01*
G01X527600Y1379317D02*
Y1381183D01*
G01X529000Y1377433D02*
X525000D01*
Y1376267D01*
X525200Y1375800D01*
X525467Y1375450D01*
X525867Y1375158D01*
X526333Y1374925D01*
X527000Y1374867D01*
X527667Y1374925D01*
X528133Y1375158D01*
X528533Y1375450D01*
X528800Y1375800D01*
X529000Y1376267D01*
Y1377433D01*
G01X525333Y1370767D02*
X525133Y1371117D01*
X525000Y1371525D01*
Y1371992D01*
X525200Y1372517D01*
X525533Y1372925D01*
X525933Y1373217D01*
X526600Y1373450D01*
X527200Y1373508D01*
X527800Y1373392D01*
X528200Y1373217D01*
X528600Y1372867D01*
X528867Y1372458D01*
X529000Y1372050D01*
Y1371642D01*
X528867Y1371233D01*
X528667Y1370883D01*
X528400Y1370592D01*
G01X525667Y1369058D02*
X525267Y1368708D01*
X525067Y1368300D01*
X525000Y1367833D01*
X525133Y1367250D01*
X525467Y1366842D01*
X525867Y1366725D01*
X526267Y1366783D01*
X526600Y1367017D01*
X527267Y1368183D01*
X527733Y1368708D01*
X528400Y1369058D01*
X529000Y1369175D01*
Y1366725D01*
G01X528400Y1357533D02*
X528733Y1357183D01*
X528933Y1356775D01*
X529000Y1356250D01*
X528867Y1355725D01*
X528600Y1355317D01*
X528133Y1355025D01*
X527600Y1354967D01*
X527067Y1355083D01*
X526733Y1355375D01*
X526467Y1355783D01*
X526400Y1356192D01*
X526467Y1356600D01*
X526733Y1357125D01*
X525000Y1356950D01*
Y1355375D01*
G01Y1353608D02*
X529000Y1352150D01*
X525000Y1350692D01*
G01X528200Y1418533D02*
X528667Y1418183D01*
X528933Y1417717D01*
X529000Y1417192D01*
X528933Y1416725D01*
X528600Y1416258D01*
X528200Y1415967D01*
X527800Y1415908D01*
X527333Y1416025D01*
X527000Y1416433D01*
X526867Y1416842D01*
Y1417367D01*
G01Y1416842D02*
X526667Y1416492D01*
X526333Y1416200D01*
X525933Y1416083D01*
X525533Y1416200D01*
X525200Y1416492D01*
X525000Y1417017D01*
X525067Y1417542D01*
X525333Y1418067D01*
G01X525000Y1414608D02*
X529000Y1413150D01*
X525000Y1411692D01*
G01X528200Y1410333D02*
X528667Y1409983D01*
X528933Y1409517D01*
X529000Y1408992D01*
X528933Y1408525D01*
X528600Y1408058D01*
X528200Y1407767D01*
X527800Y1407708D01*
X527333Y1407825D01*
X527000Y1408233D01*
X526867Y1408642D01*
Y1409167D01*
G01Y1408642D02*
X526667Y1408292D01*
X526333Y1408000D01*
X525933Y1407883D01*
X525533Y1408000D01*
X525200Y1408292D01*
X525000Y1408817D01*
X525067Y1409342D01*
X525333Y1409867D01*
G01X527000Y1396900D02*
Y1395733D01*
X528200D01*
X528600Y1396083D01*
X528867Y1396492D01*
X529000Y1397075D01*
X528867Y1397658D01*
X528600Y1398067D01*
X528200Y1398417D01*
X527733Y1398650D01*
X527200Y1398767D01*
X526733D01*
X526333Y1398650D01*
X525867Y1398417D01*
X525467Y1398067D01*
X525200Y1397717D01*
X525000Y1397250D01*
Y1396842D01*
X525133Y1396375D01*
X525400Y1396025D01*
G01X529000Y1394492D02*
X525000D01*
X529000Y1391808D01*
X525000D01*
G01X529000Y1390333D02*
X525000D01*
Y1389167D01*
X525200Y1388700D01*
X525467Y1388350D01*
X525867Y1388058D01*
X526333Y1387825D01*
X527000Y1387767D01*
X527667Y1387825D01*
X528133Y1388058D01*
X528533Y1388350D01*
X528800Y1388700D01*
X529000Y1389167D01*
Y1390333D01*
G01Y1441250D02*
X525000D01*
X525800Y1441950D01*
G01X529000D02*
Y1440550D01*
G01X525000Y1438900D02*
X529000Y1438083D01*
X525000Y1437150D01*
X529000Y1436217D01*
X525000Y1435400D01*
G01X526333Y1433050D02*
X529000D01*
G01X525267D02*
X525200Y1433167D01*
X525067D01*
X525000Y1433050D01*
X525067Y1432933D01*
X525200D01*
X525267Y1433050D01*
G01X529000Y1429767D02*
X526333D01*
G01X526867D02*
X526600Y1429475D01*
X526400Y1429183D01*
X526333Y1428775D01*
X526400Y1428483D01*
X526600Y1428133D01*
G01X527200Y1425725D02*
Y1423858D01*
X526733Y1424033D01*
X526467Y1424325D01*
X526333Y1424733D01*
X526400Y1425142D01*
X526600Y1425492D01*
X527067Y1425725D01*
X527467Y1425842D01*
X527867D01*
X528267Y1425725D01*
X528667Y1425433D01*
X528933Y1425083D01*
X529000Y1424675D01*
X528867Y1424267D01*
X528467Y1423858D01*
G01X527000Y1456900D02*
Y1455733D01*
X528200D01*
X528600Y1456083D01*
X528867Y1456492D01*
X529000Y1457075D01*
X528867Y1457658D01*
X528600Y1458067D01*
X528200Y1458417D01*
X527733Y1458650D01*
X527200Y1458767D01*
X526733D01*
X526333Y1458650D01*
X525867Y1458417D01*
X525467Y1458067D01*
X525200Y1457717D01*
X525000Y1457250D01*
Y1456842D01*
X525133Y1456375D01*
X525400Y1456025D01*
G01X529000Y1454492D02*
X525000D01*
X529000Y1451808D01*
X525000D01*
G01X529000Y1450333D02*
X525000D01*
Y1449167D01*
X525200Y1448700D01*
X525467Y1448350D01*
X525867Y1448058D01*
X526333Y1447825D01*
X527000Y1447767D01*
X527667Y1447825D01*
X528133Y1448058D01*
X528533Y1448350D01*
X528800Y1448700D01*
X529000Y1449167D01*
Y1450333D01*
G54D13*
G01X434220Y1468126D02*
Y1483874D01*
X440126D01*
Y1499622D01*
X455874D01*
Y1483874D01*
X461780D01*
Y1468126D01*
X434220D01*
G01X440126Y1483874D02*
X455874D01*
G01X453906Y1499622D02*
Y1497654D01*
X442094D01*
Y1499622D01*
G54D14*
G01X319420Y1307428D02*
X320208D01*
G01X319420D02*
Y1306641D01*
G01X320995D02*
Y1305853D01*
G01D02*
X319420Y1307428D01*
G01X322570Y1305066D02*
X320995Y1306641D01*
G01X323575Y1307213D02*
Y1306425D01*
G01X326724Y1304850D02*
X325150Y1306425D01*
Y1305638D01*
X323575Y1307213D01*
X324362D01*
G01X321213Y1311150D02*
X320425Y1311937D01*
G01D02*
X316488Y1315874D01*
G01X327512Y1311150D02*
X316488D01*
G01X318850Y1315874D02*
X316488D01*
Y1313512D01*
G01X327512Y1315874D02*
X322787Y1311150D01*
G01X320425Y1300126D02*
X315701D01*
G01X320425Y1303276D02*
Y1296976D01*
G01X328299Y1300126D02*
X323575D01*
Y1303276D01*
X320425Y1300126D01*
X323575Y1296976D01*
Y1300126D01*
G01X341420Y1307428D02*
X342208D01*
G01X341420D02*
Y1306641D01*
G01X342995D02*
Y1305853D01*
G01D02*
X341420Y1307428D01*
G01X344570Y1305066D02*
X342995Y1306641D01*
G01X345575Y1307213D02*
Y1306425D01*
G01X348724Y1304850D02*
X347150Y1306425D01*
Y1305638D01*
X345575Y1307213D01*
X346362D01*
G01X343213Y1311150D02*
X342425Y1311937D01*
G01D02*
X338488Y1315874D01*
G01X349512Y1311150D02*
X338488D01*
G01X340850Y1315874D02*
X338488D01*
Y1313512D01*
G01X349512Y1315874D02*
X344787Y1311150D01*
G01X342425Y1300126D02*
X337701D01*
G01X342425Y1303276D02*
Y1296976D01*
G01X350299Y1300126D02*
X345575D01*
Y1303276D01*
X342425Y1300126D01*
X345575Y1296976D01*
Y1300126D01*
G01X364425D02*
X359701D01*
G01X363420Y1307428D02*
X364208D01*
G01X363420D02*
Y1306641D01*
G01X364995D02*
Y1305853D01*
G01D02*
X363420Y1307428D01*
G01X366570Y1305066D02*
X364995Y1306641D01*
G01X367575Y1307213D02*
Y1306425D01*
G01X370724Y1304850D02*
X369150Y1306425D01*
Y1305638D01*
X367575Y1307213D01*
X368362D01*
G01X365213Y1311150D02*
X364425Y1311937D01*
G01D02*
X360488Y1315874D01*
G01X371512Y1311150D02*
X360488D01*
G01X362850Y1315874D02*
X360488D01*
Y1313512D01*
G01X371512Y1315874D02*
X366787Y1311150D01*
G01X364425Y1303276D02*
Y1296976D01*
G01X372299Y1300126D02*
X367575D01*
Y1303276D01*
X364425Y1300126D01*
X367575Y1296976D01*
Y1300126D01*
M02*
