G04 CAM350/DFMSTREAM V12.1 (Build 1022) Date:  Tue Jun 16 22:18:42 2020 *
G04 Database: (Untitled) *
G04 Layer 2: ASSY_TOP.art *
%FSLAX25Y25*%
%MOIN*%
%SFA1.000B1.000*%

%MIA0B0*%
%IPPOS*%
%ADD10C,0.00400*%
%ADD11C,0.00600*%
%ADD12C,0.00800*%
%ADD14C,0.01000*%
%ADD15C,0.00500*%
%ADD16C,0.00984*%
%ADD17C,0.00787*%
%LNASSY_TOP.art*%
%LPD*%
G36*
X337496Y1396205D02*
G01X335528Y1398173D01*
X339465*
X337496Y1396205*
G37*
G54D14*
X360000Y1477000D02*
G01X369000D01*
X370000Y1476000*
X371000Y1477000*
X379000*
X380000Y1476000*
X381000Y1477000*
X389000*
X390000Y1476000*
X391000Y1477000*
X399000*
X400000Y1476000*
X401000Y1477000*
X410000*
X411000Y1476000*
Y1466000*
X410000Y1465000*
X401000*
X400000Y1466000*
X399000Y1465000*
X391000*
X390000Y1466000*
X389000Y1465000*
X381000*
X380000Y1466000*
X379000Y1465000*
X371000*
X370000Y1466000*
X369000Y1465000*
X360000*
X359000Y1466000*
Y1476000*
X360000Y1477000*
G54D15*
X265500Y1308500D02*
G01X269500D01*
X267500Y1306500D02*
G01Y1310500D01*
X265500Y1408500D02*
G01X269500D01*
X267500Y1406500D02*
G01Y1410500D01*
X297000Y1317000D02*
G01Y1291000D01*
X277500*
X271000Y1297500*
Y1310500*
X277500Y1317000*
X297000*
X298500Y1308000D02*
G01X302500D01*
X297000Y1417000D02*
G01Y1391000D01*
X277500*
X271000Y1397500*
Y1410500*
X277500Y1417000*
X297000*
X298500Y1408000D02*
G01X302500D01*
X351685Y1282567D02*
G01X312315D01*
Y1251071*
X351685*
Y1282567*
X326500Y1378000D02*
G01Y1394000D01*
X313500*
Y1378000*
X326500*
X312500Y1391500D02*
G01Y1395000D01*
X316000*
X391685Y1282567D02*
G01X352315D01*
Y1251071*
X391685*
Y1282567*
X431685D02*
G01X392315D01*
Y1251071*
X431685*
Y1282567*
X471685D02*
G01X432315D01*
Y1251071*
X471685*
Y1282567*
X511685D02*
G01X472315D01*
Y1251071*
X511685*
Y1282567*
X499500Y1343658D02*
G01Y1284658D01*
X531000*
Y1343658*
X499500*
Y1403658D02*
G01Y1344658D01*
X531000*
Y1403658*
X499500*
X483000Y1345000D02*
G01X493000D01*
Y1375000*
X483000*
Y1345000*
X499500Y1463658D02*
G01Y1404658D01*
X531000*
Y1463658*
X499500*
G54D10*
X245000Y1485000D02*
G01Y1248000D01*
X534000*
Y1485000*
X245000*
X255996Y1347000D02*
G01Y1341000D01*
X268004*
Y1347000*
X255996*
X305700Y1287200D02*
G01X270300D01*
Y1230200*
X305700D02*
G01X270300D01*
X305700Y1287200D02*
G01Y1230200D01*
X325512Y1379305D02*
G01X314488D01*
Y1392691*
X325512*
Y1379305*
X340800Y1323900D02*
G01Y1308100D01*
X375200*
Y1323900*
X340800*
X359000Y1308100D02*
G01X357000D01*
Y1303800*
X359000*
Y1308100*
X354000D02*
G01X352000D01*
Y1303800*
X354000*
Y1308100*
X349000D02*
G01X347000D01*
Y1303800*
X349000*
Y1308100*
X344000D02*
G01X342000D01*
Y1303800*
X344000*
Y1308100*
X342000Y1323900D02*
G01X344000D01*
Y1328200*
X342000*
Y1323900*
X347000D02*
G01X349000D01*
Y1328200*
X347000*
Y1323900*
X352000D02*
G01X354000D01*
Y1328200*
X352000*
Y1323900*
X357000D02*
G01X359000D01*
Y1328200*
X357000*
Y1323900*
X336454Y1444014D02*
G75*
G03X336454Y1444014I-681D01*
X375200Y1317200D02*
G03X375200Y1314800J-1200D01*
X374000Y1308100D02*
G01X372000D01*
Y1303800*
X374000*
Y1308100*
X369000D02*
G01X367000D01*
Y1303800*
X369000*
Y1308100*
X364000D02*
G01X362000D01*
Y1303800*
X364000*
Y1308100*
X362000Y1323900D02*
G01X364000D01*
Y1328200*
X362000*
Y1323900*
X367000D02*
G01X369000D01*
Y1328200*
X367000*
Y1323900*
X372000D02*
G01X374000D01*
Y1328200*
X372000*
Y1323900*
X463600Y1300400D02*
G01Y1347600D01*
X416400*
Y1300400*
X463600*
Y1348400D02*
G01Y1395600D01*
X416400*
Y1348400*
X463600*
Y1396400D02*
G01Y1443600D01*
X416400*
Y1396400*
X463600*
X456780Y1468126D02*
G01X429220D01*
Y1483874*
X456780*
Y1468126*
X482000Y1465000D02*
G01X494000D01*
Y1383000*
X482000*
Y1465000*
X489500Y1458067D02*
G01X488750Y1457600D01*
X488250Y1457040*
X488000Y1456387*
X488250Y1455640*
X488750Y1455080*
X489500Y1454520*
X490500Y1454333*
X495500*
X488000Y1448700D02*
G01X495500D01*
X494000Y1449820*
X488000D02*
G01Y1447580D01*
X489125Y1443253D02*
G01X488500Y1442693D01*
X488125Y1442040*
X488000Y1441200*
X488250Y1440360*
X488750Y1439707*
X489625Y1439240*
X490625Y1439147*
X491625Y1439333*
X492250Y1439800*
X492750Y1440453*
X492875Y1441107*
X492750Y1441760*
X492250Y1442600*
X495500Y1442320*
Y1439800*
G54D11*
X263071Y1260000D02*
G03X263071Y1260000I-7071D01*
X262500Y1287000D02*
G01Y1282500D01*
X257500*
Y1287000*
Y1293500D02*
G01Y1287000D01*
X262500Y1293500D02*
G01Y1287000D01*
X261100Y1288400D02*
G01X258800D01*
X261100Y1287700D02*
G01X258800D01*
X259500Y1309500D02*
G01X261000D01*
X259000Y1294500D02*
G01X261000D01*
X260000Y1293500D02*
G01Y1295500D01*
X256500Y1303000D02*
G01Y1308500D01*
X257000*
X263500*
Y1303000*
X256500Y1295500D02*
G01Y1303000D01*
X263500D02*
G01Y1295500D01*
X256500*
X257500Y1293500D02*
G01X262500D01*
X263000Y1328500D02*
G01X267500D01*
Y1323500*
X263000*
X256500D02*
G01Y1328500D01*
Y1323500D02*
G01X263000D01*
X256500Y1328500D02*
G01X263000D01*
X261600Y1327100D02*
G01Y1324800D01*
X262300Y1327100D02*
G01Y1324800D01*
X261000Y1329500D02*
G01X256500D01*
Y1334500*
X261000*
X267500D02*
G01Y1329500D01*
Y1334500D02*
G01X261000D01*
X267500Y1329500D02*
G01X261000D01*
X262400Y1330900D02*
G01Y1333200D01*
X261700Y1330900D02*
G01Y1333200D01*
X263000Y1358500D02*
G01X267500D01*
Y1353500*
X263000*
X256500D02*
G01Y1358500D01*
Y1353500D02*
G01X263000D01*
X256500Y1358500D02*
G01X263000D01*
X261600Y1357100D02*
G01Y1354800D01*
X262300Y1357100D02*
G01Y1354800D01*
X263000Y1364500D02*
G01X267500D01*
Y1359500*
X263000*
X256500D02*
G01Y1364500D01*
Y1359500D02*
G01X263000D01*
X256500Y1364500D02*
G01X263000D01*
X261600Y1363100D02*
G01Y1360800D01*
X262300Y1363100D02*
G01Y1360800D01*
X260000Y1409500D02*
G01Y1411500D01*
X262500Y1405000D02*
G01Y1400500D01*
X257500*
Y1405000*
Y1411500D02*
G01Y1405000D01*
X262500Y1411500D02*
G01Y1405000D01*
X261100Y1406400D02*
G01X258800D01*
X261100Y1405700D02*
G01X258800D01*
X259500Y1425500D02*
G01X261000D01*
X259000Y1410500D02*
G01X261000D01*
X256500Y1419000D02*
G01Y1424500D01*
X257000*
X263500*
Y1419000*
X256500Y1411500D02*
G01Y1419000D01*
X263500D02*
G01Y1411500D01*
X256500*
X257500D02*
G01X262500D01*
X265071Y1474000D02*
G03X265071Y1474000I-7071D01*
X276500Y1345000D02*
G01Y1340500D01*
X271500*
Y1345000*
Y1351500D02*
G01Y1345000D01*
X276500Y1351500D02*
G01Y1345000D01*
X275100Y1346400D02*
G01X272800D01*
X275100Y1345700D02*
G01X272800D01*
X271500Y1351500D02*
G01X276500D01*
X291000Y1379500D02*
G01X286500D01*
Y1384500*
X291000*
X297500D02*
G01Y1379500D01*
Y1379500D02*
G01X291000D01*
X297500Y1384500D02*
G01X291000D01*
X292400Y1380900D02*
G01Y1383200D01*
X291700Y1380900D02*
G01Y1383200D01*
X321000Y1304500D02*
G01X325500D01*
Y1299500*
X321000*
X314500D02*
G01Y1304500D01*
Y1299500D02*
G01X321000D01*
X314500Y1304500D02*
G01X321000D01*
X319600Y1303100D02*
G01Y1300800D01*
X320300Y1303100D02*
G01Y1300800D01*
X321000Y1316500D02*
G01X325500D01*
Y1311500*
X321000*
X314500D02*
G01Y1316500D01*
Y1311500D02*
G01X321000D01*
X314500Y1316500D02*
G01X321000D01*
X319600Y1315100D02*
G01Y1312800D01*
X320300Y1315100D02*
G01Y1312800D01*
X321000Y1310500D02*
G01X325500D01*
Y1305500*
X321000*
X314500D02*
G01Y1310500D01*
Y1305500D02*
G01X321000D01*
X314500Y1310500D02*
G01X321000D01*
X319600Y1309100D02*
G01Y1306800D01*
X320300Y1309100D02*
G01Y1306800D01*
X319000Y1372500D02*
G01X314500D01*
Y1377500*
X319000*
X325500D02*
G01Y1372500D01*
Y1377500D02*
G01X319000D01*
X325500Y1372500D02*
G01X319000D01*
X320400Y1373900D02*
G01Y1376200D01*
X319700Y1373900D02*
G01Y1376200D01*
X319000Y1365500D02*
G01X314500D01*
Y1370500*
X319000*
X325500D02*
G01Y1365500D01*
Y1370500D02*
G01X319000D01*
X325500Y1365500D02*
G01X319000D01*
X320400Y1366900D02*
G01Y1369200D01*
X319700Y1366900D02*
G01Y1369200D01*
X319000Y1352500D02*
G01X314500D01*
Y1357500*
X319000*
X325500D02*
G01Y1352500D01*
Y1357500D02*
G01X319000D01*
X325500Y1352500D02*
G01X319000D01*
X320400Y1353900D02*
G01Y1356200D01*
X319700Y1353900D02*
G01Y1356200D01*
X321000Y1363500D02*
G01X325500D01*
Y1358500*
X321000*
X314500D02*
G01Y1363500D01*
Y1358500D02*
G01X321000D01*
X314500Y1363500D02*
G01X321000D01*
X319600Y1362100D02*
G01Y1359800D01*
X320300Y1362100D02*
G01Y1359800D01*
X321000Y1399500D02*
G01X325500D01*
Y1394500*
X321000*
X314500D02*
G01Y1399500D01*
Y1394500D02*
G01X321000D01*
X314500Y1399500D02*
G01X321000D01*
X319600Y1398100D02*
G01Y1395800D01*
X320300Y1398100D02*
G01Y1395800D01*
X319000Y1401500D02*
G01X314500D01*
Y1406500*
X319000*
X325500D02*
G01Y1401500D01*
Y1406500D02*
G01X319000D01*
X325500Y1401500D02*
G01X319000D01*
X320400Y1402900D02*
G01Y1405200D01*
X319700Y1402900D02*
G01Y1405200D01*
X320110Y1443205D02*
G01X333890D01*
Y1468795*
X320110*
Y1443205*
X305500Y1475500D02*
G01Y1477000D01*
X320500Y1475000D02*
G01Y1477000D01*
X321500Y1476000D02*
G01X319500D01*
X312000Y1472500D02*
G01X306500D01*
Y1473000*
Y1479500*
X312000*
X319500Y1472500D02*
G01X312000D01*
Y1479500D02*
G01X319500D01*
Y1472500*
X329000Y1478500D02*
G01X333500D01*
Y1473500*
X329000*
X322500D02*
G01Y1478500D01*
Y1473500D02*
G01X329000D01*
X322500Y1478500D02*
G01X329000D01*
X327600Y1477100D02*
G01Y1474800D01*
X328300Y1477100D02*
G01Y1474800D01*
X342500Y1419000D02*
G01Y1423500D01*
X347500*
Y1419000*
Y1412500D02*
G01X342500D01*
X347500D02*
G01Y1419000D01*
X342500Y1412500D02*
G01Y1419000D01*
X343900Y1417600D02*
G01X346200D01*
X343900Y1418300D02*
G01X346200D01*
X360500Y1426500D02*
G01X359000D01*
X363500Y1433000D02*
G01Y1427500D01*
X363000*
X356500*
Y1433000*
Y1433000D02*
G01Y1440500D01*
X363500*
X352500Y1426500D02*
G01X351000D01*
X355500Y1433000D02*
G01Y1427500D01*
X355000*
X348500*
Y1433000*
X355500Y1440500D02*
G01Y1433000D01*
X348500D02*
G01Y1440500D01*
X355500*
Y1419000D02*
G01Y1423500D01*
X360500*
Y1419000*
Y1412500D02*
G01X355500D01*
Y1412500D02*
G01Y1419000D01*
X356900Y1417600D02*
G01X359200D01*
X356900Y1418300D02*
G01X359200D01*
X349500Y1419000D02*
G01Y1423500D01*
X354500*
Y1419000*
Y1412500D02*
G01X349500D01*
X354500D02*
G01Y1419000D01*
X349500Y1412500D02*
G01Y1419000D01*
X350900Y1417600D02*
G01X353200D01*
X350900Y1418300D02*
G01X353200D01*
X346500Y1453000D02*
G01Y1457500D01*
X351500*
Y1453000*
Y1446500D02*
G01X346500D01*
X351500D02*
G01Y1453000D01*
X346500Y1446500D02*
G01Y1453000D01*
X347900Y1451600D02*
G01X350200D01*
X347900Y1452300D02*
G01X350200D01*
X351500Y1468000D02*
G01Y1463500D01*
X346500*
Y1468000*
Y1474500D02*
G01Y1468000D01*
X351500Y1474500D02*
G01Y1468000D01*
X350100Y1469400D02*
G01X347800D01*
X350100Y1468700D02*
G01X347800D01*
X361000Y1441500D02*
G01X359000D01*
X360000Y1442500D02*
G01Y1440500D01*
X353000Y1441500D02*
G01X351000D01*
X352000Y1442500D02*
G01Y1440500D01*
X346500Y1474500D02*
G01X351500D01*
X386500Y1308000D02*
G01Y1302500D01*
X386000*
X379500*
Y1308000*
X386500Y1315500D02*
G01Y1308000D01*
X379500D02*
G01Y1315500D01*
X386500*
X370500Y1351000D02*
G01Y1346500D01*
X365500*
Y1351000*
Y1357500D02*
G01X370500D01*
X365500D02*
G01Y1351000D01*
X370500Y1357500D02*
G01Y1351000D01*
X369100Y1352400D02*
G01X366800D01*
X369100Y1351700D02*
G01X366800D01*
X389000Y1398500D02*
G01X393500D01*
Y1393500*
X389000*
X382500D02*
G01Y1398500D01*
Y1393500D02*
G01X389000D01*
X382500Y1398500D02*
G01X389000D01*
X387600Y1397100D02*
G01Y1394800D01*
X388300Y1397100D02*
G01Y1394800D01*
X376500Y1426500D02*
G01X375000D01*
X379500Y1433000D02*
G01Y1427500D01*
X379000*
X372500*
Y1433000*
X379500Y1440500D02*
G01Y1433000D01*
X372500D02*
G01Y1440500D01*
X379500*
X368500Y1426500D02*
G01X367000D01*
X371500Y1433000D02*
G01Y1427500D01*
X371000*
X364500*
Y1433000*
X371500Y1440500D02*
G01Y1433000D01*
X364500D02*
G01Y1440500D01*
X371500*
X363500D02*
G01Y1433000D01*
X373500Y1419000D02*
G01Y1423500D01*
X378500*
Y1419000*
Y1412500D02*
G01X373500D01*
X378500D02*
G01Y1419000D01*
X373500Y1412500D02*
G01Y1419000D01*
X374900Y1417600D02*
G01X377200D01*
X374900Y1418300D02*
G01X377200D01*
X367500Y1419000D02*
G01Y1423500D01*
X372500*
Y1419000*
Y1412500D02*
G01X367500D01*
X372500D02*
G01Y1419000D01*
X367500Y1412500D02*
G01Y1419000D01*
X368900Y1417600D02*
G01X371200D01*
X368900Y1418300D02*
G01X371200D01*
X361500Y1419000D02*
G01Y1423500D01*
X366500*
Y1419000*
Y1412500D02*
G01X361500D01*
X366500D02*
G01Y1419000D01*
X361500Y1412500D02*
G01Y1419000D01*
X362900Y1417600D02*
G01X365200D01*
X362900Y1418300D02*
G01X365200D01*
X360500Y1412500D02*
G01Y1419000D01*
X377000Y1441500D02*
G01X375000D01*
X376000Y1442500D02*
G01Y1440500D01*
X369000Y1441500D02*
G01X367000D01*
X368000Y1442500D02*
G01Y1440500D01*
X412500Y1323000D02*
G01Y1318500D01*
X407500*
Y1323000*
Y1329500D02*
G01X412500D01*
X407500D02*
G01Y1323000D01*
X412500Y1329500D02*
G01Y1323000D01*
X411100Y1324400D02*
G01X408800D01*
X411100Y1323700D02*
G01X408800D01*
X412500Y1343000D02*
G01Y1338500D01*
X407500*
Y1343000*
Y1349500D02*
G01X412500D01*
X407500D02*
G01Y1343000D01*
X412500Y1349500D02*
G01Y1343000D01*
X411100Y1344400D02*
G01X408800D01*
X411100Y1343700D02*
G01X408800D01*
X412500Y1371000D02*
G01Y1366500D01*
X407500*
Y1371000*
Y1377500D02*
G01X412500D01*
X407500D02*
G01Y1371000D01*
X412500Y1377500D02*
G01Y1371000D01*
X411100Y1372400D02*
G01X408800D01*
X411100Y1371700D02*
G01X408800D01*
X412500Y1393000D02*
G01Y1388500D01*
X407500*
Y1393000*
Y1399500D02*
G01X412500D01*
X407500D02*
G01Y1393000D01*
X412500Y1399500D02*
G01Y1393000D01*
X411100Y1394400D02*
G01X408800D01*
X411100Y1393700D02*
G01X408800D01*
X412500Y1419000D02*
G01Y1414500D01*
X407500*
Y1419000*
Y1425500D02*
G01X412500D01*
X407500D02*
G01Y1419000D01*
X412500Y1425500D02*
G01Y1419000D01*
X411100Y1420400D02*
G01X408800D01*
X411100Y1419700D02*
G01X408800D01*
X412500Y1439000D02*
G01Y1434500D01*
X407500*
Y1439000*
Y1445500D02*
G01Y1439000D01*
X412500Y1445500D02*
G01Y1439000D01*
X411100Y1439700D02*
G01X408800D01*
X407500Y1445500D02*
G01X412500D01*
X411100Y1440400D02*
G01X408800D01*
X531071Y1259000D02*
G03X531071Y1259000I-7071D01*
Y1473000D02*
G03X531071Y1473000I-7071D01*
G54D12*
X250383Y1257500D02*
G01Y1261500D01*
X251900Y1258167*
X253417Y1261500*
Y1257500*
X254775D02*
G01Y1261500D01*
X257225D02*
G01Y1257500D01*
Y1259500D02*
G01X254775D01*
X258992Y1260833D02*
G01X259342Y1261233D01*
X259750Y1261433*
X260217Y1261500*
X260800Y1261367*
X261208Y1261033*
X261325Y1260633*
X261267Y1260233*
X261033Y1259900*
X259867Y1259233*
X259342Y1258767*
X258992Y1258100*
X258875Y1257500*
X261325*
X258000Y1290417D02*
G01X262000D01*
Y1288958*
X261800Y1288492*
X261533Y1288200*
X261000Y1288083*
X260467Y1288200*
X260133Y1288550*
X259933Y1288958*
Y1290417*
Y1288958D02*
G01X258000Y1288083D01*
X261333Y1286258D02*
G01X261733Y1285908D01*
X261933Y1285500*
X262000Y1285033*
X261867Y1284450*
X261533Y1284042*
X261133Y1283925*
X260733Y1283983*
X260400Y1284217*
X259733Y1285383*
X259267Y1285908*
X258600Y1286258*
X258000Y1286375*
Y1283925*
X262000Y1298867D02*
G01X258000D01*
Y1300033*
X258200Y1300500*
X258467Y1300850*
X258867Y1301142*
X259333Y1301375*
X260000Y1301433*
X260667Y1301375*
X261133Y1301142*
X261533Y1300850*
X261800Y1300500*
X262000Y1300033*
Y1298867*
X261200Y1302967D02*
G01X261667Y1303317D01*
X261933Y1303783*
X262000Y1304308*
X261933Y1304775*
X261600Y1305242*
X261200Y1305533*
X260800Y1305592*
X260333Y1305475*
X260000Y1305067*
X259867Y1304658*
Y1304133*
Y1304658D02*
G01X259667Y1305008D01*
X259333Y1305300*
X258933Y1305417*
X258533Y1305300*
X258200Y1305008*
X258000Y1304483*
X258067Y1303958*
X258333Y1303433*
X272083Y1326133D02*
G01X271733Y1326333D01*
X271325Y1326466*
X270858*
X270333Y1326266*
X269925Y1325933*
X269633Y1325533*
X269400Y1324866*
X269342Y1324266*
X269458Y1323666*
X269633Y1323266*
X269983Y1322866*
X270392Y1322599*
X270800Y1322466*
X271208*
X271617Y1322599*
X271967Y1322799*
X272258Y1323066*
X274900Y1322466D02*
G01Y1326466D01*
X274200Y1325666*
Y1322466D02*
G01X275600D01*
X258583Y1330000D02*
G01Y1334000D01*
X260042*
X260508Y1333800*
X260800Y1333533*
X260917Y1333000*
X260800Y1332467*
X260450Y1332133*
X260042Y1331933*
X258583*
X260042D02*
G01X260917Y1330000D01*
X263850D02*
G01Y1334000D01*
X263150Y1333200*
Y1330000D02*
G01X264550D01*
X259667Y1346000D02*
G01Y1343133D01*
X259900Y1342533*
X260367Y1342133*
X260950Y1342000*
X261533Y1342133*
X262000Y1342533*
X262233Y1343133*
Y1346000*
X265050Y1342000D02*
G01Y1346000D01*
X264350Y1345200*
Y1342000D02*
G01X265750D01*
X259583Y1354000D02*
G01Y1358000D01*
X261042*
X261508Y1357800*
X261800Y1357533*
X261917Y1357000*
X261800Y1356467*
X261450Y1356133*
X261042Y1355933*
X259583*
X261042D02*
G01X261917Y1354000D01*
X263742Y1355667D02*
G01X264150Y1356133D01*
X264500Y1356400*
X264967Y1356533*
X265375Y1356400*
X265667Y1356133*
X265900Y1355733*
X265958Y1355267*
X265900Y1354867*
X265667Y1354467*
X265317Y1354133*
X264908Y1354000*
X264442Y1354133*
X264033Y1354533*
X263800Y1355133*
X263742Y1355800*
X263858Y1356667*
X264033Y1357133*
X264325Y1357600*
X264733Y1357933*
X265142Y1358000*
X265550Y1357867*
X265842Y1357533*
X259583Y1360000D02*
G01Y1364000D01*
X261042*
X261508Y1363800*
X261800Y1363533*
X261917Y1363000*
X261800Y1362467*
X261450Y1362133*
X261042Y1361933*
X259583*
X261042D02*
G01X261917Y1360000D01*
X263567Y1360600D02*
G01X263917Y1360267D01*
X264325Y1360067*
X264850Y1360000*
X265375Y1360133*
X265783Y1360400*
X266075Y1360867*
X266133Y1361400*
X266017Y1361933*
X265725Y1362267*
X265317Y1362533*
X264908Y1362600*
X264500Y1362533*
X263975Y1362267*
X264150Y1364000*
X265725*
X258000Y1408417D02*
G01X262000D01*
Y1406958*
X261800Y1406492*
X261533Y1406200*
X261000Y1406083*
X260467Y1406200*
X260133Y1406550*
X259933Y1406958*
Y1408417*
Y1406958D02*
G01X258000Y1406083D01*
X258800Y1404433D02*
G01X258333Y1404083D01*
X258067Y1403617*
X258000Y1403092*
X258067Y1402625*
X258400Y1402158*
X258800Y1401867*
X259200Y1401808*
X259667Y1401925*
X260000Y1402333*
X260133Y1402742*
Y1403267*
Y1402742D02*
G01X260333Y1402392D01*
X260667Y1402100*
X261067Y1401983*
X261467Y1402100*
X261800Y1402392*
X262000Y1402917*
X261933Y1403442*
X261667Y1403967*
X262000Y1414867D02*
G01X258000D01*
Y1416033*
X258200Y1416500*
X258467Y1416850*
X258867Y1417142*
X259333Y1417375*
X260000Y1417433*
X260667Y1417375*
X261133Y1417142*
X261533Y1416850*
X261800Y1416500*
X262000Y1416033*
Y1414867*
Y1420950D02*
G01X258000D01*
X260867Y1418792*
Y1421708*
X252383Y1471500D02*
G01Y1475500D01*
X253900Y1472167*
X255417Y1475500*
Y1471500*
X256775D02*
G01Y1475500D01*
X259225D02*
G01Y1471500D01*
Y1473500D02*
G01X256775D01*
X262100Y1471500D02*
G01Y1475500D01*
X261400Y1474700*
Y1471500D02*
G01X262800D01*
X286800Y1266417D02*
G01X286400Y1266125D01*
X286133Y1265775*
X286000Y1265367*
X286133Y1264900*
X286400Y1264550*
X286800Y1264200*
X287333Y1264083*
X290000*
X289333Y1262258D02*
G01X289733Y1261908D01*
X289933Y1261500*
X290000Y1261033*
X289867Y1260450*
X289533Y1260042*
X289133Y1259925*
X288733Y1259983*
X288400Y1260217*
X287733Y1261383*
X287267Y1261908*
X286600Y1262258*
X286000Y1262375*
Y1259925*
X283533Y1306667D02*
G01X283183Y1306867D01*
X282775Y1307000*
X282308*
X281783Y1306800*
X281375Y1306467*
X281083Y1306067*
X280850Y1305400*
X280792Y1304800*
X280908Y1304200*
X281083Y1303800*
X281433Y1303400*
X281842Y1303133*
X282250Y1303000*
X282658*
X283067Y1303133*
X283417Y1303333*
X283708Y1303600*
X285067Y1303800D02*
G01X285417Y1303333D01*
X285883Y1303067*
X286408Y1303000*
X286875Y1303067*
X287342Y1303400*
X287633Y1303800*
X287692Y1304200*
X287575Y1304667*
X287167Y1305000*
X286758Y1305133*
X286233*
X286758D02*
G01X287108Y1305333D01*
X287400Y1305667*
X287517Y1306067*
X287400Y1306467*
X287108Y1306800*
X286583Y1307000*
X286058Y1306933*
X285533Y1306667*
X288667Y1327000D02*
G01Y1331000D01*
X289833*
X290300Y1330800*
X290650Y1330533*
X290942Y1330133*
X291175Y1329667*
X291233Y1329000*
X291175Y1328333*
X290942Y1327867*
X290650Y1327467*
X290300Y1327200*
X289833Y1327000*
X288667*
X292942Y1330333D02*
G01X293292Y1330733D01*
X293700Y1330933*
X294167Y1331000*
X294750Y1330867*
X295158Y1330533*
X295275Y1330133*
X295217Y1329733*
X294983Y1329400*
X293817Y1328733*
X293292Y1328267*
X292942Y1327600*
X292825Y1327000*
X295275*
X290583Y1353000D02*
G01Y1349000D01*
X292917*
X295850D02*
G01Y1353000D01*
X295150Y1352200*
Y1349000D02*
G01X296550D01*
X291033Y1383667D02*
G01X290683Y1383867D01*
X290275Y1384000*
X289808*
X289283Y1383800*
X288875Y1383467*
X288583Y1383067*
X288350Y1382400*
X288292Y1381800*
X288408Y1381200*
X288583Y1380800*
X288933Y1380400*
X289342Y1380133*
X289750Y1380000*
X290158*
X290567Y1380133*
X290917Y1380333*
X291208Y1380600*
X292567D02*
G01X292917Y1380267D01*
X293325Y1380067*
X293850Y1380000*
X294375Y1380133*
X294783Y1380400*
X295075Y1380867*
X295133Y1381400*
X295017Y1381933*
X294725Y1382267*
X294317Y1382533*
X293908Y1382600*
X293500Y1382533*
X292975Y1382267*
X293150Y1384000*
X294725*
X289980Y1371089D02*
G01X290330Y1370889D01*
X290738Y1370756*
X291205*
X291730Y1370956*
X292138Y1371289*
X292430Y1371689*
X292663Y1372356*
X292721Y1372956*
X292605Y1373556*
X292430Y1373956*
X292080Y1374356*
X291671Y1374623*
X291263Y1374756*
X290855*
X290446Y1374623*
X290096Y1374423*
X289805Y1374156*
X288271Y1373089D02*
G01X287863Y1372623D01*
X287513Y1372356*
X287046Y1372223*
X286638Y1372356*
X286346Y1372623*
X286113Y1373023*
X286055Y1373489*
X286113Y1373889*
X286346Y1374289*
X286696Y1374623*
X287105Y1374756*
X287571Y1374623*
X287980Y1374223*
X288213Y1373623*
X288271Y1372956*
X288155Y1372089*
X287980Y1371623*
X287688Y1371156*
X287280Y1370823*
X286871Y1370756*
X286463Y1370889*
X286171Y1371223*
X283533Y1406667D02*
G01X283183Y1406867D01*
X282775Y1407000*
X282308*
X281783Y1406800*
X281375Y1406467*
X281083Y1406067*
X280850Y1405400*
X280792Y1404800*
X280908Y1404200*
X281083Y1403800*
X281433Y1403400*
X281842Y1403133*
X282250Y1403000*
X282658*
X283067Y1403133*
X283417Y1403333*
X283708Y1403600*
X287050Y1403000D02*
G01Y1407000D01*
X284892Y1404133*
X287808*
X280667Y1436000D02*
G01Y1440000D01*
X281833*
X282300Y1439800*
X282650Y1439533*
X282942Y1439133*
X283175Y1438667*
X283233Y1438000*
X283175Y1437333*
X282942Y1436867*
X282650Y1436467*
X282300Y1436200*
X281833Y1436000*
X280667*
X286050D02*
G01Y1440000D01*
X285350Y1439200*
Y1436000D02*
G01X286750D01*
X284583Y1464800D02*
G01X284875Y1464400D01*
X285225Y1464133*
X285633Y1464000*
X286100Y1464133*
X286450Y1464400*
X286800Y1464800*
X286917Y1465333*
Y1468000*
X289850Y1464000D02*
G01Y1468000D01*
X289150Y1467200*
Y1464000D02*
G01X290550D01*
X330083Y1286300D02*
G01X330375Y1285900D01*
X330725Y1285633*
X331133Y1285500*
X331600Y1285633*
X331950Y1285900*
X332300Y1286300*
X332417Y1286833*
Y1289500*
X335350Y1285500D02*
G01Y1289500D01*
X334650Y1288700*
Y1285500D02*
G01X336050D01*
X339450Y1289500D02*
G01X338983Y1289367D01*
X338633Y1289033*
X338400Y1288633*
X338225Y1288100*
X338167Y1287500*
X338225Y1286900*
X338400Y1286367*
X338633Y1285967*
X338983Y1285633*
X339450Y1285500*
X339917Y1285633*
X340267Y1285967*
X340500Y1286367*
X340675Y1286900*
X340733Y1287500*
X340675Y1288100*
X340500Y1288633*
X340267Y1289033*
X339917Y1289367*
X339450Y1289500*
X327548Y1298466D02*
G01Y1301456D01*
X328794*
X329193Y1301306*
X329442Y1301107*
X329542Y1300708*
X329442Y1300310*
X329143Y1300061*
X328794Y1299911*
X327548*
X328794D02*
G01X329542Y1298466D01*
X331568Y1300958D02*
G01X331867Y1301257D01*
X332216Y1301406*
X332615Y1301456*
X333113Y1301356*
X333462Y1301107*
X333562Y1300808*
X333512Y1300509*
X333312Y1300260*
X332316Y1299762*
X331867Y1299413*
X331568Y1298914*
X331468Y1298466*
X333562*
X335389Y1299064D02*
G01X335688Y1298715D01*
X336086Y1298516*
X336535Y1298466*
X336934Y1298516*
X337332Y1298765*
X337581Y1299064*
X337631Y1299363*
X337532Y1299712*
X337183Y1299961*
X336834Y1300061*
X336385*
X336834D02*
G01X337133Y1300210D01*
X337382Y1300459*
X337482Y1300758*
X337382Y1301057*
X337133Y1301306*
X336684Y1301456*
X336236Y1301406*
X335787Y1301207*
X327548Y1310466D02*
G01Y1313456D01*
X328794*
X329193Y1313306*
X329442Y1313107*
X329542Y1312708*
X329442Y1312310*
X329143Y1312061*
X328794Y1311911*
X327548*
X328794D02*
G01X329542Y1310466D01*
X331568Y1312958D02*
G01X331867Y1313257D01*
X332216Y1313406*
X332615Y1313456*
X333113Y1313356*
X333462Y1313107*
X333562Y1312808*
X333512Y1312509*
X333312Y1312260*
X332316Y1311762*
X331867Y1311413*
X331568Y1310914*
X331468Y1310466*
X333562*
X337083D02*
G01Y1313456D01*
X335239Y1311313*
X337731*
X327548Y1304466D02*
G01Y1307456D01*
X328794*
X329193Y1307306*
X329442Y1307107*
X329542Y1306708*
X329442Y1306310*
X329143Y1306061*
X328794Y1305911*
X327548*
X328794D02*
G01X329542Y1304466D01*
X331568Y1306958D02*
G01X331867Y1307257D01*
X332216Y1307406*
X332615Y1307456*
X333113Y1307356*
X333462Y1307107*
X333562Y1306808*
X333512Y1306509*
X333312Y1306260*
X332316Y1305762*
X331867Y1305413*
X331568Y1304914*
X331468Y1304466*
X333562*
X335389Y1304914D02*
G01X335688Y1304665D01*
X336036Y1304516*
X336485Y1304466*
X336934Y1304566*
X337282Y1304765*
X337532Y1305114*
X337581Y1305512*
X337482Y1305911*
X337232Y1306160*
X336884Y1306360*
X336535Y1306409*
X336186Y1306360*
X335738Y1306160*
X335887Y1307456*
X337232*
X318033Y1376667D02*
G01X317683Y1376867D01*
X317275Y1377000*
X316808*
X316283Y1376800*
X315875Y1376467*
X315583Y1376067*
X315350Y1375400*
X315292Y1374800*
X315408Y1374200*
X315583Y1373800*
X315933Y1373400*
X316342Y1373133*
X316750Y1373000*
X317158*
X317567Y1373133*
X317917Y1373333*
X318208Y1373600*
X320850Y1373000D02*
G01Y1377000D01*
X320150Y1376200*
Y1373000D02*
G01X321550D01*
X323667Y1373600D02*
G01X324017Y1373267D01*
X324425Y1373067*
X324950Y1373000*
X325475Y1373133*
X325883Y1373400*
X326175Y1373867*
X326233Y1374400*
X326117Y1374933*
X325825Y1375267*
X325417Y1375533*
X325008Y1375600*
X324600Y1375533*
X324075Y1375267*
X324250Y1377000*
X325825*
X318033Y1369667D02*
G01X317683Y1369867D01*
X317275Y1370000*
X316808*
X316283Y1369800*
X315875Y1369467*
X315583Y1369067*
X315350Y1368400*
X315292Y1367800*
X315408Y1367200*
X315583Y1366800*
X315933Y1366400*
X316342Y1366133*
X316750Y1366000*
X317158*
X317567Y1366133*
X317917Y1366333*
X318208Y1366600*
X320850Y1366000D02*
G01Y1370000D01*
X320150Y1369200*
Y1366000D02*
G01X321550D01*
X324950Y1370000D02*
G01X324483Y1369867D01*
X324133Y1369533*
X323900Y1369133*
X323725Y1368600*
X323667Y1368000*
X323725Y1367400*
X323900Y1366867*
X324133Y1366467*
X324483Y1366133*
X324950Y1366000*
X325417Y1366133*
X325767Y1366467*
X326000Y1366867*
X326175Y1367400*
X326233Y1368000*
X326175Y1368600*
X326000Y1369133*
X325767Y1369533*
X325417Y1369867*
X324950Y1370000*
X318033Y1356667D02*
G01X317683Y1356867D01*
X317275Y1357000*
X316808*
X316283Y1356800*
X315875Y1356467*
X315583Y1356067*
X315350Y1355400*
X315292Y1354800*
X315408Y1354200*
X315583Y1353800*
X315933Y1353400*
X316342Y1353133*
X316750Y1353000*
X317158*
X317567Y1353133*
X317917Y1353333*
X318208Y1353600*
X320850Y1353000D02*
G01Y1357000D01*
X320150Y1356200*
Y1353000D02*
G01X321550D01*
X324950D02*
G01X325358Y1353067D01*
X325825Y1353267*
X326117Y1353600*
X326233Y1354067*
X326117Y1354533*
X325767Y1354933*
X325242Y1355133*
X324658*
X324308Y1355267*
X324017Y1355600*
X323900Y1356067*
X324075Y1356533*
X324483Y1356867*
X324950Y1357000*
X325417Y1356867*
X325825Y1356533*
X326000Y1356067*
X325883Y1355600*
X325592Y1355267*
X325242Y1355133*
X324658*
X324133Y1354933*
X323783Y1354533*
X323667Y1354067*
X323783Y1353600*
X324075Y1353267*
X324542Y1353067*
X324950Y1353000*
X316583Y1359000D02*
G01Y1363000D01*
X318042*
X318508Y1362800*
X318800Y1362533*
X318917Y1362000*
X318800Y1361467*
X318450Y1361133*
X318042Y1360933*
X316583*
X318042D02*
G01X318917Y1359000D01*
X321850D02*
G01Y1363000D01*
X321150Y1362200*
Y1359000D02*
G01X322550D01*
X324842Y1362333D02*
G01X325192Y1362733D01*
X325600Y1362933*
X326067Y1363000*
X326650Y1362867*
X327058Y1362533*
X327175Y1362133*
X327117Y1361733*
X326883Y1361400*
X325717Y1360733*
X325192Y1360267*
X324842Y1359600*
X324725Y1359000*
X327175*
X318033Y1398667D02*
G01X317683Y1398867D01*
X317275Y1399000*
X316808*
X316283Y1398800*
X315875Y1398467*
X315583Y1398067*
X315350Y1397400*
X315292Y1396800*
X315408Y1396200*
X315583Y1395800*
X315933Y1395400*
X316342Y1395133*
X316750Y1395000*
X317158*
X317567Y1395133*
X317917Y1395333*
X318208Y1395600*
X320850Y1395000D02*
G01Y1399000D01*
X320150Y1398200*
Y1395000D02*
G01X321550D01*
X325650D02*
G01Y1399000D01*
X323492Y1396133*
X326408*
X318033Y1405667D02*
G01X317683Y1405867D01*
X317275Y1406000*
X316808*
X316283Y1405800*
X315875Y1405467*
X315583Y1405067*
X315350Y1404400*
X315292Y1403800*
X315408Y1403200*
X315583Y1402800*
X315933Y1402400*
X316342Y1402133*
X316750Y1402000*
X317158*
X317567Y1402133*
X317917Y1402333*
X318208Y1402600*
X320850Y1402000D02*
G01Y1406000D01*
X320150Y1405200*
Y1402000D02*
G01X321550D01*
X324950D02*
G01Y1406000D01*
X324250Y1405200*
Y1402000D02*
G01X325650D01*
X318750Y1384000D02*
G01Y1385800D01*
X317583Y1388000*
X319917D02*
G01X318750Y1385800D01*
X322850Y1384000D02*
G01Y1388000D01*
X322150Y1387200*
Y1384000D02*
G01X323550D01*
X323367Y1459500D02*
G01Y1456633D01*
X323600Y1456033*
X324067Y1455633*
X324650Y1455500*
X325233Y1455633*
X325700Y1456033*
X325933Y1456633*
Y1459500*
X327642Y1458833D02*
G01X327992Y1459233D01*
X328400Y1459433*
X328867Y1459500*
X329450Y1459367*
X329858Y1459033*
X329975Y1458633*
X329917Y1458233*
X329683Y1457900*
X328517Y1457233*
X327992Y1456767*
X327642Y1456100*
X327525Y1455500*
X329975*
X316133Y1478000D02*
G01Y1474000D01*
X314967*
X314500Y1474200*
X314150Y1474467*
X313858Y1474867*
X313625Y1475333*
X313567Y1476000*
X313625Y1476667*
X313858Y1477133*
X314150Y1477533*
X314500Y1477800*
X314967Y1478000*
X316133*
X312033Y1477400D02*
G01X311683Y1477733D01*
X311275Y1477933*
X310750Y1478000*
X310225Y1477867*
X309817Y1477600*
X309525Y1477133*
X309467Y1476600*
X309583Y1476067*
X309875Y1475733*
X310283Y1475467*
X310692Y1475400*
X311100Y1475467*
X311625Y1475733*
X311450Y1474000*
X309875*
X325583D02*
G01Y1478000D01*
X327042*
X327508Y1477800*
X327800Y1477533*
X327917Y1477000*
X327800Y1476467*
X327450Y1476133*
X327042Y1475933*
X325583*
X327042D02*
G01X327917Y1474000D01*
X331550D02*
G01Y1478000D01*
X329392Y1475133*
X332308*
X360394Y1385108D02*
G01X357527D01*
X356927Y1384875*
X356527Y1384408*
X356394Y1383825*
X356527Y1383242*
X356927Y1382775*
X357527Y1382542*
X360394*
X357194Y1381008D02*
G01X356727Y1380658D01*
X356461Y1380192*
X356394Y1379667*
X356461Y1379200*
X356794Y1378733*
X357194Y1378442*
X357594Y1378383*
X358061Y1378500*
X358394Y1378908*
X358527Y1379317*
Y1379842*
Y1379317D02*
G01X358727Y1378967D01*
X359061Y1378675*
X359461Y1378558*
X359861Y1378675*
X360194Y1378967*
X360394Y1379492*
X360327Y1380017*
X360061Y1380542*
X343333Y1418033D02*
G01X343133Y1417683D01*
X343000Y1417275*
Y1416808*
X343200Y1416283*
X343533Y1415875*
X343933Y1415583*
X344600Y1415350*
X345200Y1415292*
X345800Y1415408*
X346200Y1415583*
X346600Y1415933*
X346867Y1416342*
X347000Y1416750*
Y1417158*
X346867Y1417567*
X346667Y1417917*
X346400Y1418208*
X346533Y1419858D02*
G01X346867Y1420267D01*
X347000Y1420733*
X346867Y1421200*
X346467Y1421608*
X345867Y1421900*
X345267Y1422017*
X344533*
X343933Y1421900*
X343400Y1421608*
X343133Y1421258*
X343000Y1420850*
X343133Y1420383*
X343400Y1420033*
X343800Y1419800*
X344333Y1419683*
X344800Y1419800*
X345267Y1420092*
X345533Y1420442*
X345600Y1420850*
X345467Y1421317*
X345133Y1421667*
X344533Y1422017*
X358000Y1437133D02*
G01X362000D01*
Y1435967*
X361800Y1435500*
X361533Y1435150*
X361133Y1434858*
X360667Y1434625*
X360000Y1434567*
X359333Y1434625*
X358867Y1434858*
X358467Y1435150*
X358200Y1435500*
X358000Y1435967*
Y1437133*
Y1431750D02*
G01X358067Y1431342D01*
X358267Y1430875*
X358600Y1430583*
X359067Y1430467*
X359533Y1430583*
X359933Y1430933*
X360133Y1431458*
Y1432042*
X360267Y1432392*
X360600Y1432683*
X361067Y1432800*
X361533Y1432625*
X361867Y1432217*
X362000Y1431750*
X361867Y1431283*
X361533Y1430875*
X361067Y1430700*
X360600Y1430817*
X360267Y1431108*
X360133Y1431458*
Y1432042*
X359933Y1432567*
X359533Y1432917*
X359067Y1433033*
X358600Y1432917*
X358267Y1432625*
X358067Y1432158*
X358000Y1431750*
X350000Y1437533D02*
G01X354000D01*
Y1436367*
X353800Y1435900*
X353533Y1435550*
X353133Y1435258*
X352667Y1435025*
X352000Y1434967*
X351333Y1435025*
X350867Y1435258*
X350467Y1435550*
X350200Y1435900*
X350000Y1436367*
Y1437533*
X350467Y1433142D02*
G01X350133Y1432733D01*
X350000Y1432267*
X350133Y1431800*
X350533Y1431392*
X351133Y1431100*
X351733Y1430983*
X352467*
X353067Y1431100*
X353600Y1431392*
X353867Y1431742*
X354000Y1432150*
X353867Y1432617*
X353600Y1432967*
X353200Y1433200*
X352667Y1433317*
X352200Y1433200*
X351733Y1432908*
X351467Y1432558*
X351400Y1432150*
X351533Y1431683*
X351867Y1431333*
X352467Y1430983*
X360000Y1413583D02*
G01X356000D01*
Y1415042*
X356200Y1415508*
X356467Y1415800*
X357000Y1415917*
X357533Y1415800*
X357867Y1415450*
X358067Y1415042*
Y1413583*
Y1415042D02*
G01X360000Y1415917D01*
Y1418850D02*
G01X356000D01*
X356800Y1418150*
X360000D02*
G01Y1419550D01*
Y1422950D02*
G01X356000D01*
X356800Y1422250*
X360000D02*
G01Y1423650D01*
X354000Y1413583D02*
G01X350000D01*
Y1415042*
X350200Y1415508*
X350467Y1415800*
X351000Y1415917*
X351533Y1415800*
X351867Y1415450*
X352067Y1415042*
Y1413583*
Y1415042D02*
G01X354000Y1415917D01*
Y1418733D02*
G01X353133Y1418850D01*
X352400Y1419025*
X351733Y1419258*
X351000Y1419550*
X350000Y1420017*
Y1417683*
X346333Y1452033D02*
G01X346133Y1451683D01*
X346000Y1451275*
Y1450808*
X346200Y1450283*
X346533Y1449875*
X346933Y1449583*
X347600Y1449350*
X348200Y1449292*
X348800Y1449408*
X349200Y1449583*
X349600Y1449933*
X349867Y1450342*
X350000Y1450750*
Y1451158*
X349867Y1451567*
X349667Y1451917*
X349400Y1452208*
X350000Y1454850D02*
G01X349933Y1455258D01*
X349733Y1455725*
X349400Y1456017*
X348933Y1456133*
X348467Y1456017*
X348067Y1455667*
X347867Y1455142*
Y1454558*
X347733Y1454208*
X347400Y1453917*
X346933Y1453800*
X346467Y1453975*
X346133Y1454383*
X346000Y1454850*
X346133Y1455317*
X346467Y1455725*
X346933Y1455900*
X347400Y1455783*
X347733Y1455492*
X347867Y1455142*
Y1454558*
X348067Y1454033*
X348467Y1453683*
X348933Y1453567*
X349400Y1453683*
X349733Y1453975*
X349933Y1454442*
X350000Y1454850*
X350667Y1468967D02*
G01X350867Y1469317D01*
X351000Y1469725*
Y1470192*
X350800Y1470717*
X350467Y1471125*
X350067Y1471417*
X349400Y1471650*
X348800Y1471708*
X348200Y1471592*
X347800Y1471417*
X347400Y1471067*
X347133Y1470658*
X347000Y1470250*
Y1469842*
X347133Y1469433*
X347333Y1469083*
X347600Y1468792*
X347000Y1466267D02*
G01X347867Y1466150D01*
X348600Y1465975*
X349267Y1465742*
X350000Y1465450*
X351000Y1464983*
Y1467317*
X370083Y1286300D02*
G01X370375Y1285900D01*
X370725Y1285633*
X371133Y1285500*
X371600Y1285633*
X371950Y1285900*
X372300Y1286300*
X372417Y1286833*
Y1289500*
X375350Y1285500D02*
G01X375758Y1285567D01*
X376225Y1285767*
X376517Y1286100*
X376633Y1286567*
X376517Y1287033*
X376167Y1287433*
X375642Y1287633*
X375058*
X374708Y1287767*
X374417Y1288100*
X374300Y1288567*
X374475Y1289033*
X374883Y1289367*
X375350Y1289500*
X375817Y1289367*
X376225Y1289033*
X376400Y1288567*
X376283Y1288100*
X375992Y1287767*
X375642Y1287633*
X375058*
X374533Y1287433*
X374183Y1287033*
X374067Y1286567*
X374183Y1286100*
X374475Y1285767*
X374942Y1285567*
X375350Y1285500*
X385667Y1309167D02*
G01X385867Y1309517D01*
X386000Y1309925*
Y1310392*
X385800Y1310917*
X385467Y1311325*
X385067Y1311617*
X384400Y1311850*
X383800Y1311908*
X383200Y1311792*
X382800Y1311617*
X382400Y1311267*
X382133Y1310858*
X382000Y1310450*
Y1310042*
X382133Y1309633*
X382333Y1309283*
X382600Y1308992*
X385333Y1307458D02*
G01X385733Y1307108D01*
X385933Y1306700*
X386000Y1306233*
X385867Y1305650*
X385533Y1305242*
X385133Y1305125*
X384733Y1305183*
X384400Y1305417*
X383733Y1306583*
X383267Y1307108*
X382600Y1307458*
X382000Y1307575*
Y1305125*
X385333Y1303358D02*
G01X385733Y1303008D01*
X385933Y1302600*
X386000Y1302133*
X385867Y1301550*
X385533Y1301142*
X385133Y1301025*
X384733Y1301083*
X384400Y1301317*
X383733Y1302483*
X383267Y1303008*
X382600Y1303358*
X382000Y1303475*
Y1301025*
X371667Y1340967D02*
G01X371867Y1341317D01*
X372000Y1341725*
Y1342192*
X371800Y1342717*
X371467Y1343125*
X371067Y1343417*
X370400Y1343650*
X369800Y1343708*
X369200Y1343592*
X368800Y1343417*
X368400Y1343067*
X368133Y1342658*
X368000Y1342250*
Y1341842*
X368133Y1341433*
X368333Y1341083*
X368600Y1340792*
X368000Y1338150D02*
G01X372000D01*
X371200Y1338850*
X368000D02*
G01Y1337450D01*
X371333Y1335158D02*
G01X371733Y1334808D01*
X371933Y1334400*
X372000Y1333933*
X371867Y1333350*
X371533Y1332942*
X371133Y1332825*
X370733Y1332883*
X370400Y1333117*
X369733Y1334283*
X369267Y1334808*
X368600Y1335158*
X368000Y1335275*
Y1332825*
X384000Y1333333D02*
G01X381133D01*
X380533Y1333100*
X380133Y1332633*
X380000Y1332050*
X380133Y1331467*
X380533Y1331000*
X381133Y1330767*
X384000*
X380000Y1328067D02*
G01X380867Y1327950D01*
X381600Y1327775*
X382267Y1327542*
X383000Y1327250*
X384000Y1326783*
Y1329117*
X374000Y1437133D02*
G01X378000D01*
Y1435967*
X377800Y1435500*
X377533Y1435150*
X377133Y1434858*
X376667Y1434625*
X376000Y1434567*
X375333Y1434625*
X374867Y1434858*
X374467Y1435150*
X374200Y1435500*
X374000Y1435967*
Y1437133*
X375667Y1432858D02*
G01X376133Y1432450D01*
X376400Y1432100*
X376533Y1431633*
X376400Y1431225*
X376133Y1430933*
X375733Y1430700*
X375267Y1430642*
X374867Y1430700*
X374467Y1430933*
X374133Y1431283*
X374000Y1431692*
X374133Y1432158*
X374533Y1432567*
X375133Y1432800*
X375800Y1432858*
X376667Y1432742*
X377133Y1432567*
X377600Y1432275*
X377933Y1431867*
X378000Y1431458*
X377867Y1431050*
X377533Y1430758*
X366000Y1437133D02*
G01X370000D01*
Y1435967*
X369800Y1435500*
X369533Y1435150*
X369133Y1434858*
X368667Y1434625*
X368000Y1434567*
X367333Y1434625*
X366867Y1434858*
X366467Y1435150*
X366200Y1435500*
X366000Y1435967*
Y1437133*
Y1431867D02*
G01X366867Y1431750D01*
X367600Y1431575*
X368267Y1431342*
X369000Y1431050*
X370000Y1430583*
Y1432917*
X378000Y1413583D02*
G01X374000D01*
Y1415042*
X374200Y1415508*
X374467Y1415800*
X375000Y1415917*
X375533Y1415800*
X375867Y1415450*
X376067Y1415042*
Y1413583*
Y1415042D02*
G01X378000Y1415917D01*
Y1418850D02*
G01X377933Y1419258D01*
X377733Y1419725*
X377400Y1420017*
X376933Y1420133*
X376467Y1420017*
X376067Y1419667*
X375867Y1419142*
Y1418558*
X375733Y1418208*
X375400Y1417917*
X374933Y1417800*
X374467Y1417975*
X374133Y1418383*
X374000Y1418850*
X374133Y1419317*
X374467Y1419725*
X374933Y1419900*
X375400Y1419783*
X375733Y1419492*
X375867Y1419142*
Y1418558*
X376067Y1418033*
X376467Y1417683*
X376933Y1417567*
X377400Y1417683*
X377733Y1417975*
X377933Y1418442*
X378000Y1418850*
X372000Y1413583D02*
G01X368000D01*
Y1415042*
X368200Y1415508*
X368467Y1415800*
X369000Y1415917*
X369533Y1415800*
X369867Y1415450*
X370067Y1415042*
Y1413583*
Y1415042D02*
G01X372000Y1415917D01*
X371533Y1417858D02*
G01X371867Y1418267D01*
X372000Y1418733*
X371867Y1419200*
X371467Y1419608*
X370867Y1419900*
X370267Y1420017*
X369533*
X368933Y1419900*
X368400Y1419608*
X368133Y1419258*
X368000Y1418850*
X368133Y1418383*
X368400Y1418033*
X368800Y1417800*
X369333Y1417683*
X369800Y1417800*
X370267Y1418092*
X370533Y1418442*
X370600Y1418850*
X370467Y1419317*
X370133Y1419667*
X369533Y1420017*
X366000Y1413583D02*
G01X362000D01*
Y1415042*
X362200Y1415508*
X362467Y1415800*
X363000Y1415917*
X363533Y1415800*
X363867Y1415450*
X364067Y1415042*
Y1413583*
Y1415042D02*
G01X366000Y1415917D01*
Y1418850D02*
G01X362000D01*
X362800Y1418150*
X366000D02*
G01Y1419550D01*
X362000Y1422950D02*
G01X362133Y1422483D01*
X362467Y1422133*
X362867Y1421900*
X363400Y1421725*
X364000Y1421667*
X364600Y1421725*
X365133Y1421900*
X365533Y1422133*
X365867Y1422483*
X366000Y1422950*
X365867Y1423417*
X365533Y1423767*
X365133Y1424000*
X364600Y1424175*
X364000Y1424233*
X363400Y1424175*
X362867Y1424000*
X362467Y1423767*
X362133Y1423417*
X362000Y1422950*
X404583Y1262800D02*
G01X404875Y1262400D01*
X405225Y1262133*
X405633Y1262000*
X406100Y1262133*
X406450Y1262400*
X406800Y1262800*
X406917Y1263333*
Y1266000*
X409850Y1262000D02*
G01Y1266000D01*
X409150Y1265200*
Y1262000D02*
G01X410550D01*
X412842Y1265333D02*
G01X413192Y1265733D01*
X413600Y1265933*
X414067Y1266000*
X414650Y1265867*
X415058Y1265533*
X415175Y1265133*
X415117Y1264733*
X414883Y1264400*
X413717Y1263733*
X413192Y1263267*
X412842Y1262600*
X412725Y1262000*
X415175*
X410133Y1313917D02*
G01X410333Y1314267D01*
X410466Y1314675*
Y1315142*
X410266Y1315667*
X409933Y1316075*
X409533Y1316367*
X408866Y1316600*
X408266Y1316658*
X407666Y1316542*
X407266Y1316367*
X406866Y1316017*
X406599Y1315608*
X406466Y1315200*
Y1314792*
X406599Y1314383*
X406799Y1314033*
X407066Y1313742*
X406466Y1311100D02*
G01X410466D01*
X409666Y1311800*
X406466D02*
G01Y1310400D01*
X408133Y1308108D02*
G01X408599Y1307700D01*
X408866Y1307350*
X408999Y1306883*
X408866Y1306475*
X408599Y1306183*
X408199Y1305950*
X407733Y1305892*
X407333Y1305950*
X406933Y1306183*
X406599Y1306533*
X406466Y1306942*
X406599Y1307408*
X406999Y1307817*
X407599Y1308050*
X408266Y1308108*
X409133Y1307992*
X409599Y1307817*
X410066Y1307525*
X410399Y1307117*
X410466Y1306708*
X410333Y1306300*
X409999Y1306008*
X406466Y1336367D02*
G01X410466D01*
Y1334908*
X410266Y1334442*
X409999Y1334150*
X409466Y1334033*
X408933Y1334150*
X408599Y1334500*
X408399Y1334908*
Y1336367*
Y1334908D02*
G01X406466Y1334033D01*
Y1331100D02*
G01X410466D01*
X409666Y1331800*
X406466D02*
G01Y1330400D01*
X407266Y1328283D02*
G01X406799Y1327933D01*
X406533Y1327467*
X406466Y1326942*
X406533Y1326475*
X406866Y1326008*
X407266Y1325717*
X407666Y1325658*
X408133Y1325775*
X408466Y1326183*
X408599Y1326592*
Y1327117*
Y1326592D02*
G01X408799Y1326242D01*
X409133Y1325950*
X409533Y1325833*
X409933Y1325950*
X410266Y1326242*
X410466Y1326767*
X410399Y1327292*
X410133Y1327817*
Y1361917D02*
G01X410333Y1362267D01*
X410466Y1362675*
Y1363142*
X410266Y1363667*
X409933Y1364075*
X409533Y1364367*
X408866Y1364600*
X408266Y1364658*
X407666Y1364542*
X407266Y1364367*
X406866Y1364017*
X406599Y1363608*
X406466Y1363200*
Y1362792*
X406599Y1362383*
X406799Y1362033*
X407066Y1361742*
X406466Y1359100D02*
G01X410466D01*
X409666Y1359800*
X406466D02*
G01Y1358400D01*
Y1355117D02*
G01X407333Y1355000D01*
X408066Y1354825*
X408733Y1354592*
X409466Y1354300*
X410466Y1353833*
Y1356167*
X406466Y1386367D02*
G01X410466D01*
Y1384908*
X410266Y1384442*
X409999Y1384150*
X409466Y1384033*
X408933Y1384150*
X408599Y1384500*
X408399Y1384908*
Y1386367*
Y1384908D02*
G01X406466Y1384033D01*
Y1381100D02*
G01X410466D01*
X409666Y1381800*
X406466D02*
G01Y1380400D01*
Y1376300D02*
G01X410466D01*
X407599Y1378458*
Y1375542*
X398083Y1396133D02*
G01X397733Y1396333D01*
X397325Y1396466*
X396858*
X396333Y1396266*
X395925Y1395933*
X395633Y1395533*
X395400Y1394866*
X395342Y1394266*
X395458Y1393666*
X395633Y1393266*
X395983Y1392866*
X396392Y1392599*
X396800Y1392466*
X397208*
X397617Y1392599*
X397967Y1392799*
X398258Y1393066*
X400900Y1392466D02*
G01Y1396466D01*
X400200Y1395666*
Y1392466D02*
G01X401600D01*
X403717Y1393266D02*
G01X404067Y1392799D01*
X404533Y1392533*
X405058Y1392466*
X405525Y1392533*
X405992Y1392866*
X406283Y1393266*
X406342Y1393666*
X406225Y1394133*
X405817Y1394466*
X405408Y1394599*
X404883*
X405408D02*
G01X405758Y1394799D01*
X406050Y1395133*
X406167Y1395533*
X406050Y1395933*
X405758Y1396266*
X405233Y1396466*
X404708Y1396399*
X404183Y1396133*
X410133Y1409917D02*
G01X410333Y1410267D01*
X410466Y1410675*
Y1411142*
X410266Y1411667*
X409933Y1412075*
X409533Y1412367*
X408866Y1412600*
X408266Y1412658*
X407666Y1412542*
X407266Y1412367*
X406866Y1412017*
X406599Y1411608*
X406466Y1411200*
Y1410792*
X406599Y1410383*
X406799Y1410033*
X407066Y1409742*
X406466Y1407100D02*
G01X410466D01*
X409666Y1407800*
X406466D02*
G01Y1406400D01*
X406933Y1403992D02*
G01X406599Y1403583D01*
X406466Y1403117*
X406599Y1402650*
X406999Y1402242*
X407599Y1401950*
X408199Y1401833*
X408933*
X409533Y1401950*
X410066Y1402242*
X410333Y1402592*
X410466Y1403000*
X410333Y1403467*
X410066Y1403817*
X409666Y1404050*
X409133Y1404167*
X408666Y1404050*
X408199Y1403758*
X407933Y1403408*
X407866Y1403000*
X407999Y1402533*
X408333Y1402183*
X408933Y1401833*
X406466Y1432367D02*
G01X410466D01*
Y1430908*
X410266Y1430442*
X409999Y1430150*
X409466Y1430033*
X408933Y1430150*
X408599Y1430500*
X408399Y1430908*
Y1432367*
Y1430908D02*
G01X406466Y1430033D01*
Y1427100D02*
G01X410466D01*
X409666Y1427800*
X406466D02*
G01Y1426400D01*
X407066Y1424283D02*
G01X406733Y1423933D01*
X406533Y1423525*
X406466Y1423000*
X406599Y1422475*
X406866Y1422067*
X407333Y1421775*
X407866Y1421717*
X408399Y1421833*
X408733Y1422125*
X408999Y1422533*
X409066Y1422942*
X408999Y1423350*
X408733Y1423875*
X410466Y1423700*
Y1422125*
X395583Y1470800D02*
G01X395875Y1470400D01*
X396225Y1470133*
X396633Y1470000*
X397100Y1470133*
X397450Y1470400*
X397800Y1470800*
X397917Y1471333*
Y1474000*
X399567Y1470800D02*
G01X399917Y1470333D01*
X400383Y1470067*
X400908Y1470000*
X401375Y1470067*
X401842Y1470400*
X402133Y1470800*
X402192Y1471200*
X402075Y1471667*
X401667Y1472000*
X401258Y1472133*
X400733*
X401258D02*
G01X401608Y1472333D01*
X401900Y1472667*
X402017Y1473067*
X401900Y1473467*
X401608Y1473800*
X401083Y1474000*
X400558Y1473933*
X400033Y1473667*
X440533Y1330975D02*
G01X440200Y1330508D01*
X440000Y1329983*
Y1329517*
X440200Y1329050*
X440533Y1328700*
X441000Y1328525*
X441467Y1328642*
X441867Y1328933*
X442133Y1329458*
X442267Y1330158*
X442533Y1330567*
X443000Y1330742*
X443467Y1330625*
X443800Y1330333*
X444000Y1329925*
Y1329517*
X443867Y1329108*
X443533Y1328758*
X444000Y1327400D02*
G01X440000Y1326583D01*
X444000Y1325650*
X440000Y1324717*
X444000Y1323900*
X440000Y1321550D02*
G01X444000D01*
X443200Y1322250*
X440000D02*
G01Y1320850D01*
X440533Y1378975D02*
G01X440200Y1378508D01*
X440000Y1377983*
Y1377517*
X440200Y1377050*
X440533Y1376700*
X441000Y1376525*
X441467Y1376642*
X441867Y1376933*
X442133Y1377458*
X442267Y1378158*
X442533Y1378567*
X443000Y1378742*
X443467Y1378625*
X443800Y1378333*
X444000Y1377925*
Y1377517*
X443867Y1377108*
X443533Y1376758*
X444000Y1375400D02*
G01X440000Y1374583D01*
X444000Y1373650*
X440000Y1372717*
X444000Y1371900*
X443333Y1370658D02*
G01X443733Y1370308D01*
X443933Y1369900*
X444000Y1369433*
X443867Y1368850*
X443533Y1368442*
X443133Y1368325*
X442733Y1368383*
X442400Y1368617*
X441733Y1369783*
X441267Y1370308*
X440600Y1370658*
X440000Y1370775*
Y1368325*
X440533Y1426975D02*
G01X440200Y1426508D01*
X440000Y1425983*
Y1425517*
X440200Y1425050*
X440533Y1424700*
X441000Y1424525*
X441467Y1424642*
X441867Y1424933*
X442133Y1425458*
X442267Y1426158*
X442533Y1426567*
X443000Y1426742*
X443467Y1426625*
X443800Y1426333*
X444000Y1425925*
Y1425517*
X443867Y1425108*
X443533Y1424758*
X444000Y1423400D02*
G01X440000Y1422583D01*
X444000Y1421650*
X440000Y1420717*
X444000Y1419900*
X440800Y1418833D02*
G01X440333Y1418483D01*
X440067Y1418017*
X440000Y1417492*
X440067Y1417025*
X440400Y1416558*
X440800Y1416267*
X441200Y1416208*
X441667Y1416325*
X442000Y1416733*
X442133Y1417142*
Y1417667*
Y1417142D02*
G01X442333Y1416792D01*
X442667Y1416500*
X443067Y1416383*
X443467Y1416500*
X443800Y1416792*
X444000Y1417317*
X443933Y1417842*
X443667Y1418367*
X453583Y1267800D02*
G01X453875Y1267400D01*
X454225Y1267133*
X454633Y1267000*
X455100Y1267133*
X455450Y1267400*
X455800Y1267800*
X455917Y1268333*
Y1271000*
X457567Y1267600D02*
G01X457917Y1267267D01*
X458325Y1267067*
X458850Y1267000*
X459375Y1267133*
X459783Y1267400*
X460075Y1267867*
X460133Y1268400*
X460017Y1268933*
X459725Y1269267*
X459317Y1269533*
X458908Y1269600*
X458500Y1269533*
X457975Y1269267*
X458150Y1271000*
X459725*
X489583Y1266800D02*
G01X489875Y1266400D01*
X490225Y1266133*
X490633Y1266000*
X491100Y1266133*
X491450Y1266400*
X491800Y1266800*
X491917Y1267333*
Y1270000*
X493742Y1267667D02*
G01X494150Y1268133D01*
X494500Y1268400*
X494967Y1268533*
X495375Y1268400*
X495667Y1268133*
X495900Y1267733*
X495958Y1267267*
X495900Y1266867*
X495667Y1266467*
X495317Y1266133*
X494908Y1266000*
X494442Y1266133*
X494033Y1266533*
X493800Y1267133*
X493742Y1267800*
X493858Y1268667*
X494033Y1269133*
X494325Y1269600*
X494733Y1269933*
X495142Y1270000*
X495550Y1269867*
X495842Y1269533*
X495700Y1302241D02*
G01X496100Y1302533D01*
X496367Y1302883*
X496500Y1303291*
X496367Y1303758*
X496100Y1304108*
X495700Y1304458*
X495167Y1304575*
X492500*
X496500Y1307391D02*
G01X495633Y1307508D01*
X494900Y1307683*
X494233Y1307916*
X493500Y1308208*
X492500Y1308675*
Y1306341*
X488800Y1365417D02*
G01X488400Y1365125D01*
X488133Y1364775*
X488000Y1364367*
X488133Y1363900*
X488400Y1363550*
X488800Y1363200*
X489333Y1363083*
X492000*
X488000Y1359450D02*
G01X492000D01*
X489133Y1361608*
Y1358692*
X518383Y1256500D02*
G01Y1260500D01*
X519900Y1257167*
X521417Y1260500*
Y1256500*
X522775D02*
G01Y1260500D01*
X525225D02*
G01Y1256500D01*
Y1258500D02*
G01X522775D01*
X526817Y1257300D02*
G01X527167Y1256833D01*
X527633Y1256567*
X528158Y1256500*
X528625Y1256567*
X529092Y1256900*
X529383Y1257300*
X529442Y1257700*
X529325Y1258167*
X528917Y1258500*
X528508Y1258633*
X527983*
X528508D02*
G01X528858Y1258833D01*
X529150Y1259167*
X529267Y1259567*
X529150Y1259967*
X528858Y1260300*
X528333Y1260500*
X527808Y1260433*
X527283Y1260167*
X517200Y1370583D02*
G01X517600Y1370875D01*
X517867Y1371225*
X518000Y1371633*
X517867Y1372100*
X517600Y1372450*
X517200Y1372800*
X516667Y1372917*
X514000*
X517533Y1374858D02*
G01X517867Y1375267D01*
X518000Y1375733*
X517867Y1376200*
X517467Y1376608*
X516867Y1376900*
X516267Y1377017*
X515533*
X514933Y1376900*
X514400Y1376608*
X514133Y1376258*
X514000Y1375850*
X514133Y1375383*
X514400Y1375033*
X514800Y1374800*
X515333Y1374683*
X515800Y1374800*
X516267Y1375092*
X516533Y1375442*
X516600Y1375850*
X516467Y1376317*
X516133Y1376667*
X515533Y1377017*
X517200Y1431583D02*
G01X517600Y1431875D01*
X517867Y1432225*
X518000Y1432633*
X517867Y1433100*
X517600Y1433450*
X517200Y1433800*
X516667Y1433917*
X514000*
X518000Y1436850D02*
G01X514000D01*
X514800Y1436150*
X518000D02*
G01Y1437550D01*
Y1440950D02*
G01X514000D01*
X514800Y1440250*
X518000D02*
G01Y1441650D01*
X518383Y1470500D02*
G01Y1474500D01*
X519900Y1471167*
X521417Y1474500*
Y1470500*
X522775D02*
G01Y1474500D01*
X525225D02*
G01Y1470500D01*
Y1472500D02*
G01X522775D01*
X528800Y1470500D02*
G01Y1474500D01*
X526642Y1471633*
X529558*
G54D16*
X271300Y1441700D02*
G03X271300Y1441700I-493D01*
X304685Y1323300D02*
G03X304685Y1323300I-492D01*
G54D17*
X264634Y1471874D02*
G03X264634Y1471874I-6225D01*
X258409Y1467937D02*
G01Y1475811D01*
X268252Y1444315D02*
G01X299748D01*
Y1479748*
X268252*
Y1444315*
X254472Y1471874D02*
G01X262346D01*
X268252Y1479748D02*
G01Y1483685D01*
X299748*
Y1479748*
X302453Y1332894D02*
G01X281547D01*
Y1331900*
Y1324100D02*
G01Y1323106D01*
X302453*
Y1324000*
X297906Y1363780D02*
G01X305780D01*
Y1336220*
X297906*
X278220Y1338189D02*
G01Y1363780D01*
X286094*
X278220Y1338189D02*
G01Y1336220D01*
X286094*
X296693Y1377315D02*
G01X283307D01*
Y1366685*
X296693*
Y1377315*
X272547Y1432106D02*
G01X293453D01*
Y1433100*
X272547Y1433000D02*
G01Y1432106D01*
X293453Y1440900D02*
G01Y1441894D01*
X272547*
Y1441000*
X302453Y1332000D02*
G01Y1332894D01*
X341827Y1398173D02*
G01Y1369827D01*
X370173*
Y1398173*
X341827*
X346252Y1395417D02*
G03X346252Y1395417I-1669D01*
M02*
