G04 CAM350/DFMSTREAM V12.1 (Build 1022) Date:  Tue Jun 16 22:18:42 2020 *
G04 Database: (Untitled) *
G04 Layer 3: BOTTOM.art *
%FSLAX25Y25*%
%MOIN*%
%SFA1.000B1.000*%

%MIA0B0*%
%IPPOS*%
%ADD12C,0.00800*%
%ADD14C,0.01000*%
%ADD15C,0.00500*%
%ADD18O,0.07000X0.15000*%
%ADD19O,0.15000X0.07000*%
%ADD70O,0.18000X0.07000*%
%ADD71C,0.04400*%
%ADD20O,0.12000X0.16000*%
%ADD21R,0.12000X0.16000*%
%ADD22R,0.08000X0.08000*%
%ADD23C,0.08000*%
%ADD24C,0.10000*%
%ADD25R,0.03200X0.03500*%
%ADD26C,0.13000*%
%ADD27R,0.03500X0.03200*%
%ADD28R,0.04500X0.05000*%
%ADD29R,0.04724X0.15748*%
%ADD72R,0.01200X0.06800*%
%ADD73R,0.10000X0.10000*%
%ADD30R,0.06800X0.01200*%
%ADD31R,0.08000X0.08000*%
%ADD32R,0.02500X0.07500*%
%ADD33R,0.07000X0.08500*%
%ADD34R,0.02756X0.07087*%
%ADD35R,0.07087X0.02756*%
%ADD36C,0.02000*%
%ADD37C,0.03000*%
%ADD38C,0.01500*%
%ADD39C,0.01800*%
%LNBOTTOM.art*%
%LPD*%
G36*
X354502Y1289514D02*
G01Y1293000D01*
X356998*
Y1289822*
G75*
G02X356497Y1289436I-400J1*
G03X355886Y1289514I-607J-2323*
G01X354502*
G37*
G36*
X434030Y1467238D02*
G01Y1467624D01*
X434968*
G03X435470Y1468126J502*
G01Y1478000*
X438636*
Y1468126*
G03X439038Y1466924I2002J1*
G01Y1465730*
X436240*
G03X436185Y1465727I0J-502*
G02X435973Y1465862I-22J199*
G03X434216Y1467225I-1898J-633*
G01X434030Y1467238*
G37*
G36*
X359430Y1287048D02*
G02X359630Y1287248I200J0D01*
G01X364500*
G03X365002Y1287750J502*
G01Y1293000*
X365498*
Y1287750*
G03X367500Y1285748I2002*
G01X367996*
G02X368372Y1285485I0J-400*
X368396Y1285348I-376J-136*
X368230Y1285024I-400J0*
G03X367398Y1283400I1169J-1624*
G01Y1282402*
X363995*
X359698Y1286698*
X359658Y1286737*
X359656Y1286739*
X359488Y1286907*
G02X359430Y1287048I142J141*
G37*
G36*
X449564Y1308348D02*
G02X449588Y1308485I400J0D01*
X449964Y1308748I376J-137*
G01X450750*
G03X452752Y1310750J2002*
G01Y1318250*
Y1318251*
G03X452502Y1319220I-2002J0*
G01Y1321645*
G03X453752Y1323500I-752J1855*
G01Y1328500*
G03X453284Y1329785I-2002J-1*
G01X453438Y1330336*
X453469Y1330498*
X477000*
G03X479113Y1331208I-1J3502*
G01X479167Y1331248*
X480248*
Y1328233*
G03X479353Y1327139I1002J-1733*
G01X479307Y1327002*
X478999*
G03X478998Y1327001I0J-1*
G01Y1326936*
G03X478750Y1327002I-249J-436*
G01X474250*
G03X473748Y1326500I0J-502*
G01Y1321500*
G03X474250Y1320998I502J0*
G01X478750*
G03X478998Y1321064I-1J502*
G01Y1320999*
G03X478999Y1320998I1J0*
G01X479307*
X479353Y1320861*
X479377Y1320793*
G02X479403Y1320652I-374J-142*
X479003Y1320252I-400J0*
G01X472250*
G03X470382Y1318970I0J-2002*
G02X470008Y1318713I-374J143*
X469894Y1318730I1J400*
G03X469750Y1318752I-147J-480*
G01X467250*
G03X466748Y1318250I0J-502*
G01Y1310594*
X462193*
G03X460774Y1310130I0J-2402*
X460000Y1310202I-775J-4131*
X455798Y1306000I0J-4202*
X460000Y1301798I4202J0*
X463200Y1303276I0J4203*
G02X463505Y1303417I305J-258*
X463895Y1303102I0J-399*
G03X466364Y1300130I4105J899*
G02X466608Y1299762I-156J-368*
X466535Y1299531I-400J-1*
G03X466248Y1298983I1967J-1379*
X465394Y1298000I1003J-1733*
G01X459745*
X459698Y1298048*
X449681Y1308065*
G02X449564Y1308348I283J283*
G37*
G36*
X438252Y1337502D02*
G01Y1344557D01*
X438388Y1344603*
G03X439752Y1346500I-637J1897*
G01Y1351500*
G03X438502Y1353355I-2001*
G01Y1353645*
G03X439752Y1355500I-752J1855*
G01Y1360500*
G03X439474Y1361517I-2002J-1*
G01X439395Y1361650*
X439740Y1361996*
G03X440620Y1364118I-2121J2123*
G01Y1367600*
G03X440895Y1368138I-1626J1170*
G02X441106Y1368273I190J-64*
G03X441161Y1368270I55J499*
G01X443917*
G03X443972Y1368273I0J502*
G02X444184Y1368138I22J-199*
G03X445060Y1367051I1899J634*
G01Y1365000*
G03X445763Y1363302I2402J0*
G01X447763Y1361302*
G03X449461Y1360598I1699J1698*
G01X453691*
G02X454090Y1360198I-1J-400*
X453979Y1359921I-400J0*
G03X452798Y1357000I3022J-2921*
X457000Y1352798I4202J0*
X460448Y1354598I0J4202*
G01X465355*
X465652Y1354302*
G03X466248Y1353866I1699J1697*
G01Y1353500*
G03X466744Y1352182I2002J1*
G02X466793Y1352051I-151J-131*
X466744Y1351919I-200J-1*
G03X466248Y1350600I1506J-1319*
G01Y1347400*
G03X468250Y1345398I2002*
G01X473248*
Y1337502*
X438252*
G37*
G36*
X472018Y1360502D02*
G01Y1360822D01*
X472125Y1360878*
G03X472698Y1361302I-1126J2121*
G01X479698Y1368302*
G03X480402Y1370000I-1698J1699*
G01Y1378203*
X483698Y1381500*
G03X484402Y1383198I-1698J1699*
G01Y1385285*
G02X485062Y1385588I400J-1*
G03X488000Y1384498I2937J3412*
X492502Y1389000I0J4502*
X490393Y1392813I-4501J0*
G02X490205Y1393152I212J339*
X490443Y1393518I400J0*
G03X493327Y1396234I-2442J5483*
G02X493768Y1396441I355J-184*
X494082Y1396050I-86J-391*
G01Y1375714*
G02X493401Y1375429I-400J0*
G03X492000Y1376002I-1402J-1429*
G01X484000*
G03X481998Y1374000I0J-2002*
G01Y1366000*
G03X483081Y1364222I2001J0*
G02X483297Y1363867I-184J-355*
X483216Y1363625I-400J-1*
G03X481998Y1360000I4785J-3625*
X485557Y1354518I6002J0*
G02X485795Y1354152I-162J-366*
X485607Y1353813I-400J0*
G03X483498Y1350000I2392J-3813*
X488000Y1345498I4502J0*
X492502Y1350000I0J4502*
X490393Y1353813I-4501J0*
G02X490205Y1354152I212J339*
X490443Y1354518I400J0*
G03X493327Y1357234I-2442J5483*
G02X493768Y1357441I355J-184*
X494082Y1357050I-86J-391*
G01Y1345973*
X484860Y1336752*
X479166*
G03X478752Y1337032I-2165J-2755*
G01Y1345667*
G03X479752Y1347400I-1002J1733*
G01Y1350600*
G03X478861Y1352266I-2003J0*
G02X478684Y1352598I222J332*
X478705Y1352727I399J1*
X479082Y1352998I378J-128*
G01X479750*
G03X480252Y1353500J502*
G01Y1358500*
G03X479750Y1359002I-502J0*
G01X475250*
G03X475002Y1358936I1J-502*
G01Y1359001*
G03X475001Y1359002I-1J0*
G01X474693*
X474647Y1359139*
G03X472750Y1360502I-1897J-639*
G01X472018*
G37*
G36*
X312000Y1255000D02*
G01Y1268074D01*
X312002Y1268200*
Y1276200*
X312000Y1276326*
Y1293000*
X312998*
Y1287750*
G03X313500Y1287248I502J0*
G01X320500*
G03X321002Y1287750J502*
G01Y1293000*
X321498*
Y1287750*
G03X323500Y1285748I2002*
G01X327598*
Y1284272*
G03X327398Y1283400I1801J-872*
G01Y1276600*
G03X327668Y1275596I2002J0*
G02X327722Y1275396I-346J-201*
X327295Y1274997I-400J0*
G01X327158Y1275002*
X317158*
G03X315156Y1273000I0J-2002*
G01Y1263000*
G03X317158Y1260998I2002*
G01X327158*
G03X329160Y1263000J2002*
G01Y1265598*
X329650*
G03X331348Y1266302I-1J2402*
G01X337698Y1272652*
G03X338175Y1273332I-1698J1698*
X339602Y1275250I-576J1918*
G01Y1284750*
G03X337600Y1286752I-2002J0*
G01X334400*
G03X333068Y1286244I1J-2002*
G02X332402Y1286543I-266J299*
G01Y1287125*
X332411Y1287154*
G03X332502Y1287750I-1911J597*
G01Y1293000*
X334998*
Y1287750*
G03X335500Y1287248I502J0*
G01X342500*
G03X343002Y1287750J502*
G01Y1293000*
X343498*
Y1287750*
G03X345500Y1285748I2002*
G01X351105*
X351399Y1285455*
G03X351586Y1285286I1702J1695*
G01X351628Y1285252*
G03X352892Y1284730I1511J1867*
G01X352950Y1284724*
G03X353197Y1284712I240J2389*
G01X354891*
X356301Y1283302*
X356341Y1283263*
X356343Y1283261*
X361302Y1278302*
G03X363000Y1277598I1699J1698*
G01X367398*
Y1276600*
G03X367668Y1275596I2002J0*
G02X367722Y1275396I-346J-201*
X367295Y1274997I-400J0*
G01X367158Y1275002*
X357158*
G03X355156Y1273000I0J-2002*
G01Y1263000*
G03X357158Y1260998I2002*
G01X367158*
G03X369160Y1263000J2002*
G01Y1265598*
X370000*
G03X371698Y1266302I-1J2402*
G01X377698Y1272302*
G03X378321Y1273382I-1697J1699*
X379602Y1275250I-722J1868*
G01Y1284750*
G03X377600Y1286752I-2002J0*
G01X376826*
G02X376425Y1287152I-1J400*
X376438Y1287252I400J-1*
G03X376502Y1287750I-1937J502*
G01Y1289598*
X403005*
X407598Y1285005*
Y1284273*
X407580Y1284234*
G03X407398Y1283400I1820J-834*
G01Y1276600*
G03X407668Y1275596I2002J0*
G02X407722Y1275396I-346J-201*
X407295Y1274997I-400J0*
G01X407158Y1275002*
X397158*
G03X395156Y1273000I0J-2002*
G01Y1263000*
G03X397158Y1260998I2002*
G01X407158*
G03X409160Y1263000J2002*
G01Y1265598*
X409650*
G03X411348Y1266302I-1J2402*
G01X417698Y1272652*
G03X418175Y1273332I-1698J1698*
X419602Y1275250I-576J1918*
G01Y1276432*
G02X419833Y1276795I400J0*
X420285Y1276715I169J-363*
G01X422861Y1274139*
G02X422979Y1273856I-282J-283*
X422941Y1273688I-400J2*
X422529Y1273459I-363J168*
G01X421842Y1273502*
G03X416340Y1268000I0J-5502*
X421842Y1262498I5502J0*
X427344Y1268000I0J5502*
G01X427301Y1268687*
X427299Y1268712*
X427298Y1268725*
Y1268737*
G02X427515Y1269093I400J0*
X427981Y1269019I182J-356*
G01X431000Y1266000*
Y1255000*
X428000Y1252000*
X315000*
X312000Y1255000*
G37*
G36*
X386908Y1354044D02*
G01X386990Y1354178D01*
G03X387502Y1356000I-2990J1823*
G01Y1380399*
G02X387910Y1380799I400J0*
G01X388000Y1380798*
G03X390864Y1381925I0J4203*
G02X391136I136J-146*
G03X394000Y1380798I2864J3076*
X398202Y1385000J4202*
G01Y1385001*
X398190Y1385322*
X398153Y1385641*
X398137Y1385741*
X401698Y1389302*
G03X402402Y1391000I-1698J1699*
G01Y1416013*
X410569Y1424181*
G02X411130Y1424186I283J-283*
G03X411886Y1423728I1389J1440*
G02X412022Y1423538I-65J-190*
G01Y1423527*
X412021Y1423516*
X412019Y1423489*
X412018Y1423461*
Y1420705*
Y1420704*
X412019Y1420676*
X412021Y1420649*
X412022Y1420638*
Y1420632*
Y1420627*
G02X411886Y1420437I-200J0*
G03X410518Y1418539I633J-1898*
G01Y1415783*
G03X410836Y1414700I2002J0*
X410518Y1413618I1683J-1082*
G01Y1410862*
G03X410836Y1409780I2001J0*
X410518Y1408697I1684J-1083*
G01Y1405941*
G03X410836Y1404858I2002J0*
X410518Y1403776I1683J-1082*
G01Y1401020*
G03X410836Y1399937I2002J0*
X410518Y1398854I1684J-1083*
G01Y1396098*
G03X410836Y1395016I2001J0*
X410518Y1393933I1684J-1083*
G01Y1391177*
G03X411886Y1389279I2001J0*
G02X412022Y1389089I-65J-190*
G01Y1389078*
X412021Y1389067*
X412019Y1389040*
X412018Y1389012*
Y1386256*
G03X412520Y1385754I502J0*
G01X419606*
G03X420108Y1386256J502*
G01Y1389012*
X420107Y1389040*
X420105Y1389067*
X420104Y1389078*
Y1389084*
Y1389089*
G02X420240Y1389279I200J0*
G03X421608Y1391177I-633J1898*
G01Y1393933*
G03X421290Y1395016I-2003J0*
X421608Y1396098I-1683J1082*
G01Y1398854*
G03X421290Y1399937I-2003J0*
X421608Y1401020I-1685J1083*
G01Y1403776*
G03X421290Y1404858I-2002J-1*
X421608Y1405941I-1685J1083*
G01Y1408697*
G03X421290Y1409780I-2003J0*
X421608Y1410862I-1683J1082*
G01Y1413618*
G03X421290Y1414700I-2002J-1*
X421608Y1415783I-1685J1083*
G01Y1418539*
G03X420240Y1420437I-2001J0*
G02X420104Y1420627I64J190*
G01Y1420638*
X420105Y1420649*
X420107Y1420676*
X420108Y1420690*
Y1420704*
Y1420705*
Y1423461*
X420107Y1423489*
X420105Y1423516*
X420104Y1423527*
Y1423533*
Y1423538*
G02X420240Y1423728I200J0*
G03X421327Y1424602I-632J1899*
G01X444804*
G03X446502Y1425306I-1J2402*
G01X463964Y1442767*
G02X464640Y1442558I283J-283*
G03X465302Y1441302I2360J441*
G01X466534Y1440070*
G03X468232Y1439366I1699J1698*
G01X468404*
G02X468604Y1439166I0J-200*
X468585Y1439081I-200J0*
G03X468392Y1438224I1808J-857*
G01Y1435468*
G03X468710Y1434386I2001J0*
X468392Y1433303I1684J-1083*
G01Y1430547*
G03X468710Y1429464I2002J0*
X468392Y1428382I1683J-1082*
G01Y1425626*
G03X468710Y1424544I2001J0*
X468392Y1423461I1684J-1083*
G01Y1420705*
G03X468710Y1419622I2002J0*
X468392Y1418539I1684J-1083*
G01Y1415783*
G03X468710Y1414700I2002J0*
X468392Y1413618I1683J-1082*
G01Y1410862*
G03X468710Y1409780I2001J0*
X468392Y1408697I1684J-1083*
G01Y1405941*
G03X469760Y1404043I2001J0*
G02X469896Y1403853I-65J-190*
G01Y1403842*
X469895Y1403831*
X469893Y1403804*
X469892Y1403776*
Y1401020*
Y1401019*
X469893Y1400991*
X469895Y1400964*
X469896Y1400953*
Y1400947*
Y1400942*
G02X469760Y1400752I-200J0*
G03X468392Y1398854I633J-1898*
G01Y1396098*
G03X468710Y1395016I2001J0*
X468392Y1393933I1684J-1083*
G01Y1391177*
G03X468710Y1390094I2002J0*
X468392Y1389012I1683J-1082*
G01Y1386256*
Y1386255*
G03X468523Y1385543I2002J0*
G02X468550Y1385399I-373J-144*
X468150Y1385000I-399J0*
G01X464001*
G03X464000Y1384999I0J-1*
G01Y1378052*
Y1378051*
G02X463782Y1377852I-200J0*
G01X463602Y1377860*
X456682*
G02X456306Y1378123I0J400*
X456282Y1378260I376J136*
X456449Y1378585I400J0*
G03X458202Y1382000I-2450J3415*
X454000Y1386202I-4202J0*
X449798Y1382000I0J-4202*
X451551Y1378585I4203J0*
G02X451718Y1378260I-233J-325*
X451703Y1378152I-400J0*
X451318Y1377860I-385J108*
G01X446083*
G03X444184Y1376492I0J-2002*
G02X443972Y1376357I-190J64*
G03X443917Y1376360I-55J-499*
G01X441161*
G03X441106Y1376357I0J-502*
G02X440895Y1376492I-21J199*
G03X438996Y1377860I-1899J-634*
G01X431319*
G03X429420Y1376492I0J-2002*
G02X429209Y1376357I-190J64*
G03X429154Y1376360I-55J-499*
G01X426398*
G03X425896Y1375858I0J-502*
G01Y1368772*
G03X426398Y1368270I502J0*
G01X429154*
G03X429209Y1368273I0J502*
G02X429420Y1368138I21J-199*
G03X431319Y1366770I1899J634*
G01X434616*
Y1365361*
X433378Y1364122*
G03X432521Y1362364I2122J-2123*
X431353Y1361139I729J-1864*
G01X431307Y1361002*
X430999*
G03X430998Y1361001I0J-1*
G01Y1360936*
G03X430750Y1361002I-249J-436*
G01X426250*
G03X425748Y1360500I0J-502*
G01Y1355500*
G03X426250Y1354998I502J0*
G01X430750*
G03X430998Y1355064I-1J502*
G01Y1354999*
G03X430999Y1354998I1J0*
G01X431307*
X431353Y1354861*
G03X432498Y1353645I1897J639*
G01Y1353355*
G03X431353Y1352139I752J-1855*
G01X431307Y1352002*
X430999*
G03X430998Y1352001I0J-1*
G01Y1351936*
G03X430750Y1352002I-249J-436*
G01X426250*
G03X425748Y1351500I0J-502*
G01Y1346500*
G03X426250Y1345998I502J0*
G01X430750*
G03X430998Y1346064I-1J502*
G01Y1345999*
G03X430999Y1345998I1J0*
G01X431307*
X431353Y1345861*
G03X432612Y1344603I1897J639*
G01X432748Y1344557*
Y1337502*
X427450*
X421119Y1343833*
X421107Y1343890*
G03X417000Y1347202I-4107J-890*
X414677Y1346502I-1J-4202*
G01X394450*
X386908Y1354044*
G37*
G36*
X253000Y1277000D02*
G01Y1440410D01*
G02X253296Y1440796I400J0*
X253756Y1440592I104J-386*
G03X257378Y1438300I3744J1908*
G01X257458Y1438297*
X272797Y1422958*
X272800Y1422878*
G03X277000Y1418798I4200J122*
X281202Y1423000J4202*
X277122Y1427200I-4202J0*
G01X277042Y1427203*
X261703Y1442542*
X261700Y1442622*
G03X257500Y1446702I-4200J-122*
X253756Y1444408I0J-4202*
G02X253316Y1444199I-356J182*
X253000Y1444590I84J391*
G01Y1447000*
X258000Y1452000*
X283000*
X285000Y1454000*
Y1459405*
G02X285331Y1459799I400J0*
X285771Y1459555I69J-394*
G03X291795Y1455498I6024J2444*
X298296Y1461999I0J6501*
G01Y1462000*
Y1466000*
G03X291795Y1472502I-6502J0*
X285771Y1468445I0J-6501*
G02X285317Y1468204I-371J150*
X285000Y1468595I83J391*
G01Y1474000*
X289000Y1478000*
X429742*
Y1468126*
G03X430244Y1467624I502J0*
G01X431364*
Y1467238*
X431178Y1467225*
G03X429421Y1465862I141J-1996*
G02X429209Y1465727I-190J64*
G03X429154Y1465730I-55J-499*
G01X426398*
G03X425896Y1465228I0J-502*
G01Y1458142*
G03X426398Y1457640I502J0*
G01X429154*
G03X429209Y1457643I0J502*
G02X429421Y1457508I22J-199*
G03X431319Y1456140I1898J633*
G01X434075*
G03X435973Y1457508I0J2001*
G02X436185Y1457643I190J-64*
G03X436240Y1457640I55J499*
G01X438996*
G03X439051Y1457643I0J502*
G02X439263Y1457508I22J-199*
G03X441161Y1456140I1898J633*
G01X443917*
G03X445815Y1457508I0J2001*
G02X446027Y1457643I190J-64*
G03X446083Y1457640I55J499*
G01X448839*
G03X449340Y1458141J501*
G01Y1458142*
Y1465228*
Y1465229*
G03X448839Y1465730I-501J0*
G01X446040*
Y1466238*
X446161Y1466291*
G03X447364Y1468126I-798J1835*
G01Y1478000*
X450530*
Y1468126*
G03X451032Y1467624I502J0*
G01X455756*
G03X456258Y1468126J502*
G01Y1478000*
X516379*
G02X516779Y1477600I0J-400*
X516721Y1477393I-400J0*
G03X515498Y1473000I7278J-4393*
X524000Y1464498I8502*
X529348Y1466391I0J8501*
G02X530000Y1466080I252J-311*
G01Y1298300*
X527000Y1287000*
X525000Y1285000*
X500000*
X497402Y1287599*
Y1293350*
G03X497031Y1294632I-2402J0*
G01X497000Y1294681*
Y1295000*
X494000Y1298000*
X493746*
X492969Y1298777*
X492955Y1298807*
G03X492498Y1299444I-2154J-1063*
G01X483877Y1308065*
G02X483760Y1308348I283J283*
X483784Y1308485I400J0*
X484160Y1308748I376J-137*
G01X484750*
G03X486752Y1310750J2002*
G01Y1318250*
G03X486518Y1319189I-2001J0*
G01X486471Y1319376*
G02X486685Y1319730I399J0*
G03X487752Y1321500I-935J1770*
G01Y1326500*
G03X485752Y1328501I-2001J0*
G01Y1331248*
X486000*
G03X487946Y1332054I0J2752*
G01X498779Y1342887*
G03X499584Y1344832I-1947J1945*
G01Y1344833*
Y1347088*
X505383*
G03X505884Y1347589J501*
G01Y1348789*
G03X505383Y1349290I-501J0*
G01X499584*
Y1361398*
X505400*
G03X507402Y1363400J2002*
G01Y1364600*
G03X505400Y1366602I-2002J0*
G01X504502*
Y1370624*
G03X505376Y1371498I-2503J3377*
G01X507460*
G03X514000Y1366998I6540J2503*
X519296Y1369420I0J7001*
G02X519741Y1369531I302J-262*
X519998Y1369158I-143J-373*
G01Y1364558*
X516757Y1361316*
X509000*
G03X506998Y1359315I0J-2002*
G01Y1349315*
G03X509000Y1347314I2001J0*
G01X510998*
Y1346443*
X503557Y1339002*
X502000*
G03X500503Y1338602I0J-3001*
G01X498600*
G03X496598Y1336600I0J-2002*
G01Y1335400*
G03X498600Y1333398I2002*
G01X500503*
G03X502000Y1332998I1497J2601*
G01X504800*
G03X506922Y1333878I-1J3001*
G01X507879Y1334834*
G02X508330Y1334914I283J-282*
X508562Y1334552I-168J-363*
X508558Y1334493I-400J-3*
G03X508498Y1333685I5442J-810*
X514000Y1328183I5502J0*
X519502Y1333685I0J5502*
X514000Y1339187I-5502J0*
X513192Y1339127I2J-5502*
G02X512781Y1339332I-59J396*
G01X512733Y1339522*
G02X512851Y1339806I400J0*
G01X516122Y1343078*
G03X517002Y1345200I-2121J2123*
G01Y1347314*
X519000*
G03X521002Y1349315J2002*
G01Y1357072*
X525122Y1361193*
G03X526002Y1363315I-2121J2123*
G01Y1379000*
G03X525122Y1381122I-3001J-1*
G01X520122Y1386122*
G03X518000Y1387002I-2123J-2121*
G01X511243*
X505002Y1393243*
Y1395398*
X505400*
G03X507402Y1397400J2002*
G01Y1398600*
G03X505400Y1400602I-2002J0*
G01X503497*
G03X502000Y1401002I-1497J-2601*
X500547Y1400626I2J-3002*
G01X500502Y1400602*
X499584*
Y1401693*
X505583Y1407692*
G02X506222Y1407590I283J-282*
G03X508363Y1406276I2141J1087*
X510061Y1406980I-1J2402*
G01X510395Y1407314*
X519000*
G03X521002Y1409315J2002*
G01Y1419315*
G03X519000Y1421316I-2001J0*
G01X509000*
G03X508081Y1421093I-1J-2001*
G02X507515Y1421332I-184J355*
G03X506402Y1422584I-1915J-582*
G01Y1423005*
X511046Y1427650*
X511172Y1427595*
G03X514000Y1426998I2829J6405*
X521002Y1434000I0J7002*
X514000Y1441002I-7002J0*
X506998Y1434000I0J-7002*
X507595Y1431172I7002J1*
G01X507650Y1431046*
X502302Y1425698*
G03X501598Y1424000I1698J-1699*
G01Y1422584*
G03X500398Y1420750I802J-1834*
G01Y1417250*
G03X500837Y1416000I2002J1*
X500398Y1414750I1563J-1251*
G01Y1411250*
G03X500517Y1410571I2002J1*
G01X500560Y1410452*
X500084Y1409975*
G02X499402Y1410258I-282J283*
G01Y1463000*
G03X498698Y1464698I-2402J-1*
G01X494698Y1468698*
G03X493000Y1469402I-1699J-1698*
G01X482254*
G03X480556Y1468698I1J-2402*
G01X446184Y1434326*
X421891*
G02X421490Y1434726I-1J400*
X421510Y1434850I400J-1*
G03X421608Y1435468I-1903J619*
G01Y1438224*
G03X420240Y1440122I-2001J0*
G02X420104Y1440312I64J190*
G01Y1440323*
X420105Y1440334*
X420107Y1440361*
X420108Y1440375*
Y1440389*
Y1440390*
Y1443146*
G03X419606Y1443648I-502J0*
G01X412520*
G03X412018Y1443146I0J-502*
G01Y1440390*
Y1440389*
X412019Y1440361*
X412021Y1440334*
X412022Y1440323*
Y1440317*
Y1440312*
G02X411886Y1440122I-200J0*
G03X410518Y1438224I633J-1898*
G01Y1435468*
G03X410639Y1434784I2001J1*
G02X410663Y1434647I-376J-137*
X410357Y1434258I-400J0*
G03X409227Y1433623I568J-2333*
G01X396302Y1420698*
G03X395598Y1419000I1698J-1699*
G01Y1395995*
X388741Y1389137*
X388641Y1389153*
X388000Y1389202*
X387910Y1389201*
G02X387502Y1389601I-8J400*
G01Y1399677*
G03X388195Y1401755I-3502J2323*
X389538Y1402494I-603J2685*
G01X390608Y1403564*
G03X391379Y1405078I-1947J1945*
G01X391479Y1405707*
G03X391514Y1406139I-2717J438*
G01Y1426622*
X402699Y1437808*
X402788Y1437803*
X403000Y1437798*
G03X407202Y1442000I0J4202*
X403000Y1446202I-4202J0*
X398798Y1442000I0J-4202*
G01X398803Y1441788*
X398808Y1441699*
X386816Y1429708*
G03X386010Y1427762I1946J-1946*
G01Y1407163*
X385853Y1407128*
G03X384494Y1406386I586J-2689*
G01X384301Y1406192*
X384212Y1406197*
X384000Y1406202*
G03X379798Y1402000I0J-4202*
G01Y1401999*
G03X380498Y1399677I4202J0*
G01Y1389047*
G03X379798Y1386947I2802J-2101*
G01Y1383053*
G03X380498Y1380953I3502J1*
G01Y1357450*
X379550Y1356502*
X376323*
G03X374000Y1357202I-2322J-3502*
X371677Y1356502I-1J-4202*
G01X341369*
G02X340993Y1356765I0J400*
X340969Y1356902I376J136*
X341119Y1357214I400J0*
G03X342702Y1360500I-2619J3286*
G01Y1360501*
G03X342402Y1362060I-4204J-1*
G01Y1367005*
X345682Y1370286*
G03X346386Y1371984I-1698J1699*
G01Y1379568*
G03X348186Y1383016I-2403J3448*
X343984Y1387218I-4202J0*
X339782Y1383016I0J-4202*
X341582Y1379568I4202J0*
G01Y1372979*
X338302Y1369698*
G03X337598Y1368000I1698J-1699*
G01Y1364607*
X337449Y1364568*
G03X335214Y1363119I1050J-4068*
G02X334774Y1362990I-312J250*
X334502Y1363369I128J379*
G01Y1401677*
G03X335202Y1403999I-3502J2322*
G01Y1404000*
Y1404001*
G03X334502Y1406323I-4202J0*
G01Y1424050*
X343833Y1433381*
X343890Y1433393*
G03X347202Y1437500I-890J4107*
X343000Y1441702I-4202J0*
X338893Y1438390I0J-4202*
G01X338881Y1438333*
X328524Y1427976*
G03X327498Y1425500I2475J-2476*
G01Y1406323*
G03X326798Y1404001I3502J-2322*
G01Y1404000*
Y1403999*
G03X327498Y1401677I4202J0*
G01Y1364002*
X315941*
G03X313000Y1365202I-2940J-3002*
X308798Y1361000I0J-4202*
X313000Y1356798I4202J0*
X315941Y1357998I1J4202*
G01X328127*
G03X328524Y1357524I2874J2004*
G01X335524Y1350524*
G03X336059Y1350086I2475J2477*
G02X336237Y1349753I-222J-333*
X336068Y1349427I-400J1*
G03X335052Y1348402I2433J-3428*
G01X330598*
G02X330198Y1348802I0J400*
G01Y1348819*
X330202Y1349000*
G03X326000Y1353202I-4202J0*
X321798Y1349000I0J-4202*
X326000Y1344798I4202*
G01X326641Y1344847*
X326741Y1344863*
X327302Y1344302*
G03X329000Y1343598I1699J1698*
G01X335052*
G03X338500Y1341798I3448J2403*
X342702Y1346000J4202*
X341607Y1348829I-4202J0*
G02X341503Y1349098I296J269*
X341903Y1349498I400*
G01X371677*
G03X374000Y1348798I2322J3502*
X376323Y1349498I1J4202*
G01X381550*
X389964Y1341084*
G02X390081Y1340802I-283J-282*
X389681Y1340402I-400J0*
G01X386000*
G03X384302Y1339698I1J-2402*
G01X383005Y1338402*
X365448*
G03X362000Y1340202I-3448J-2402*
X357798Y1336000I0J-4202*
X362000Y1331798I4202J0*
X365448Y1333598I0J4202*
G01X384000*
G03X385698Y1334302I-1J2402*
G01X386995Y1335598*
X395552*
G03X399000Y1333798I3448J2403*
X403202Y1338000J4202*
G01Y1338002*
G03X403081Y1339003I-4202J0*
G02X403072Y1339050I388J99*
G01X403070Y1339074*
X403069Y1339099*
G02X403469Y1339498I400J-1*
G01X414677*
G03X416110Y1338893I2323J3503*
G01X416167Y1338881*
X419998Y1335050*
Y1328243*
X400257Y1308502*
X395441*
G03X392500Y1309702I-2940J-3002*
X388298Y1305500I0J-4202*
X392500Y1301298I4202J0*
X395441Y1302498I1J4202*
G01X401500*
G03X403622Y1303378I-1J3001*
G01X425122Y1324878*
G03X426002Y1327000I-2121J2123*
G01Y1330498*
X445998*
Y1330065*
X445930Y1330005*
G03X445353Y1329139I1320J-1505*
G01X445307Y1329002*
X444999*
G03X444998Y1329001I0J-1*
G01Y1328936*
G03X444750Y1329002I-249J-436*
G01X440250*
G03X439748Y1328500I0J-502*
G01Y1323500*
G03X440250Y1322998I502J0*
G01X444750*
G03X444998Y1323064I-1J502*
G01Y1322999*
G03X444999Y1322998I1J0*
G01X445307*
X445353Y1322861*
G03X446498Y1321645I1897J639*
G01Y1320252*
X438250*
G03X436382Y1318970I0J-2002*
G02X435894Y1318730I-374J144*
G03X435750Y1318752I-147J-480*
G01X433250*
G03X432748Y1318250I0J-502*
G01Y1310750*
G03X433250Y1310248I502J0*
G01X435750*
G03X435894Y1310270I-3J502*
G02X436382Y1310030I115J-383*
G03X438250Y1308748I1868J720*
G01X439356*
X443019Y1305084*
G02X443136Y1304802I-283J-282*
X442737Y1304402I-400J0*
G01X420000*
G03X418302Y1303698I1J-2402*
G01X414302Y1299698*
G03X413606Y1298185I1698J-1698*
G01X413591Y1298000*
X380612*
G02X380212Y1298400I0J400*
X380239Y1298544I400J0*
G03X380400Y1299407I-2241J865*
G01Y1316902*
G03X379696Y1318600I-2402J-1*
G01X377748Y1320548*
G03X376651Y1321175I-1698J-1698*
G01X376502Y1321214*
Y1328250*
G03X374500Y1330252I-2002J0*
G01X367500*
G03X365498Y1328250I0J-2002*
G01Y1319750*
G03X365661Y1318959I2001J0*
G02X365694Y1318801I-366J-159*
X365294Y1318402I-399J0*
G01X360448*
X360300Y1318601*
G02X360214Y1318848I314J248*
X360614Y1319248I400J0*
G01X364500*
G03X365002Y1319750J502*
G01Y1328250*
G03X364500Y1328752I-502J0*
G01X357500*
G03X356998Y1328250I0J-502*
G01Y1320202*
G03X355084Y1319740I2J-4202*
G02X354502Y1320096I-182J356*
G01Y1328250*
G03X352500Y1330252I-2002J0*
G01X345500*
G03X343498Y1328250I0J-2002*
G01Y1319750*
G03X343760Y1318762I2001J2*
G02X343812Y1318565I-348J-197*
X343463Y1318168I-400J0*
G03X341533Y1317402I537J-4168*
G01X331845*
X331682Y1317564*
G02X331565Y1317847I283J283*
X331721Y1318164I400J0*
G03X332502Y1319750I-1220J1586*
G01Y1328250*
G03X330500Y1330252I-2002J0*
G01X323500*
G03X321498Y1328250I0J-2002*
G01Y1319750*
G03X323500Y1317748I2002*
G01X324866*
G03X325302Y1317152I2134J1104*
G01X329152Y1313302*
G03X330850Y1312598I1699J1698*
G01X340039*
G03X344000Y1309798I3961J1402*
X348164Y1313439I0J4202*
G02X348844Y1313668I396J-53*
G01X352403Y1310109*
G03X354101Y1309406I1698J1699*
G01X369598*
Y1308995*
X369005Y1308402*
X349100*
G03X348849Y1308388I8J-2402*
G01X348754Y1308378*
G03X347478Y1307844I250J-2388*
G01X347393Y1307774*
X347222Y1307618*
X347005Y1307402*
X317100*
G03X316849Y1307388I8J-2402*
G01X316754Y1307378*
G03X315480Y1306845I251J-2388*
G01X315390Y1306771*
X315221Y1306618*
X315005Y1306404*
X312447*
G03X309000Y1308202I-3447J-2405*
X304798Y1304000I0J-4202*
X307759Y1299985I4203J0*
G02X308041Y1299603I-118J-382*
X307924Y1299320I-400J0*
G01X307741Y1299137*
X307641Y1299153*
X307000Y1299202*
G03X302798Y1295000I0J-4202*
X307000Y1290798I4202J0*
X308461Y1291060I0J4202*
G02X309000Y1290685I139J-375*
G01Y1280068*
G02X308409Y1279717I-400J0*
G03X306500Y1280202I-1910J-3517*
X302498Y1276200I0J-4002*
G01Y1268200*
G03X306500Y1264198I4002J0*
X308409Y1264683I-1J4002*
G02X309000Y1264332I191J-351*
G01Y1261000*
X306000Y1258000*
X295921*
G02X295521Y1258400J400*
G01X295565Y1258582*
G03X296002Y1260400I-3565J1818*
X292000Y1264402I-4002J0*
G01X284000*
G03X279998Y1260400I0J-4002*
X280435Y1258582I4002J0*
G01X280479Y1258400*
G02X280079Y1258000I-400J0*
G01X272000*
X253000Y1277000*
G37*
%LPC*%
G36*
X341826Y1262498D02*
G03X347344Y1268000I16J5502D01*
X341858Y1273502I-5502J0*
X336340Y1268000I-16J-5502*
X341826Y1262498I5502J0*
G37*
G36*
X353589Y1276116D02*
G01X354789D01*
G03X355290Y1276617J501*
G01Y1283417*
G03X354789Y1283918I-501J0*
G01X353589*
G03X353088Y1283417I0J-501*
G01Y1276617*
G03X353589Y1276116I501*
G37*
G36*
X381826Y1262498D02*
G03X387344Y1268000I16J5502D01*
X381858Y1273502I-5502J0*
X376340Y1268000I-16J-5502*
X381826Y1262498I5502J0*
G37*
G36*
X393589Y1276116D02*
G01X394789D01*
G03X395290Y1276617J501*
G01Y1283417*
G03X394789Y1283918I-501J0*
G01X393589*
G03X393088Y1283417I0J-501*
G01Y1276617*
G03X393589Y1276116I501*
G37*
G36*
X313589D02*
G01X314789D01*
G03X315290Y1276617J501*
G01Y1283417*
G03X314789Y1283918I-501J0*
G01X313589*
G03X313088Y1283417I0J-501*
G01Y1276617*
G03X313589Y1276116I501*
G37*
G36*
X313500Y1319248D02*
G01X320500D01*
G03X321002Y1319750I0J502*
G01Y1328250*
G03X320500Y1328752I-502J0*
G01X313500*
G03X312998Y1328250I0J-502*
G01Y1319750*
G03X313500Y1319248I502J0*
G37*
G36*
X335500D02*
G01X342500D01*
G03X343002Y1319750I0J502*
G01Y1328250*
G03X342500Y1328752I-502J0*
G01X335500*
G03X334998Y1328250I0J-502*
G01Y1319750*
G03X335500Y1319248I502J0*
G37*
G36*
X361000Y1464998D02*
G01X369000D01*
G03X370778Y1466081J2001*
G02X371133Y1466297I355J-184*
X371375Y1466216I1J-400*
G03X375000Y1464998I3625J4785*
X380482Y1468557I0J6002*
G02X380848Y1468795I366J-162*
X381187Y1468607I0J-400*
G03X385000Y1466498I3813J2392*
X388813Y1468607I0J4501*
G02X389152Y1468795I339J-212*
X389518Y1468557I0J-400*
G03X395000Y1464998I5482J2443*
X399688Y1467252I0J6002*
G02X400000Y1467402I312J-250*
X400312Y1467252I0J-400*
G03X405000Y1464998I4688J3748*
X411002Y1471000I0J6002*
X405000Y1477002I-6002J0*
X400312Y1474748I0J-6002*
G02X400000Y1474598I-312J250*
X399688Y1474748I0J400*
G03X395000Y1477002I-4688J-3748*
X389518Y1473443I0J-6002*
G02X389152Y1473205I-366J162*
X388813Y1473393I0J400*
G03X385000Y1475502I-3813J-2392*
X381187Y1473393I0J-4501*
G02X380848Y1473205I-339J212*
X380482Y1473443I0J400*
G03X375000Y1477002I-5482J-2443*
X371375Y1475784I0J-6003*
G02X371133Y1475703I-241J319*
X370778Y1475919I0J400*
G03X369000Y1477002I-1778J-918*
G01X361000*
G03X358998Y1475000I0J-2002*
G01Y1467000*
G03X361000Y1464998I2002*
G37*
G36*
X412519Y1444810D02*
G01X412520D01*
X419606*
X419607*
G03X420108Y1445311J501*
G01Y1448067*
G03X419607Y1448568I-501J0*
G01X419606*
X412520*
X412519*
G03X412018Y1448067I0J-501*
G01Y1445311*
G03X412519Y1444810I501*
G37*
G36*
X451004Y1457640D02*
G01X453760D01*
G03X454262Y1458142I0J502*
G01Y1465228*
G03X453760Y1465730I-502J0*
G01X451004*
G03X450502Y1465228I0J-502*
G01Y1458142*
G03X451004Y1457640I502J0*
G37*
G36*
X455925D02*
G01X458681D01*
X458695*
X458709Y1457641*
X458736Y1457643*
G02X458758Y1457644I20J-200*
X458948Y1457508I0J-201*
G03X460846Y1456140I1898J633*
G01X463602*
G03X465604Y1458142J2002*
G01Y1465228*
G03X463602Y1467230I-2002J0*
G01X460846*
G03X458948Y1465862I0J-2001*
G02X458758Y1465726I-190J64*
X458736Y1465727I-2J201*
G01X458709Y1465729*
X458695Y1465730*
X458681*
X455925*
G03X455424Y1465229I0J-501*
G01Y1465228*
Y1458142*
Y1458141*
G03X455925Y1457640I501J0*
G37*
G36*
X498583Y1317588D02*
G01X498681D01*
G02X499081Y1317188I0J-400*
X498969Y1316910I-400J0*
G03X497798Y1314000I3030J-2910*
X499113Y1310947I4202J0*
G01X499176Y1310888*
Y1310602*
X498600*
G03X496598Y1308600I0J-2002*
G01Y1307400*
G03X498600Y1305398I2002*
G01X505400*
G03X507402Y1307400J2002*
G01Y1308600*
G03X505400Y1310602I-2002J0*
G01X504824*
Y1310888*
X504887Y1310947*
G03X505376Y1311498I-2886J3054*
G01X507460*
G03X514000Y1306998I6540J2502*
X521002Y1314000I0J7002*
X514000Y1321002I-7002J0*
X507460Y1316502I0J-7002*
G01X505376*
G03X505031Y1316910I-3375J-2504*
G02X504919Y1317188I288J278*
X505319Y1317588I400J0*
G01X505383*
G03X507384Y1319589I0J2001*
G01Y1320789*
G03X505383Y1322790I-2001J0*
G01X498583*
G03X496582Y1320789I0J-2001*
G01Y1319589*
G03X498583Y1317588I2001J0*
G37*
G36*
Y1291088D02*
G01X505383D01*
G03X505884Y1291589J501*
G01Y1292789*
G03X505383Y1293290I-501J0*
G01X498583*
G03X498082Y1292789I0J-501*
G01Y1291589*
G03X498583Y1291088I501*
G37*
G36*
X508999Y1287314D02*
G01X509000D01*
X519000*
G03X521002Y1289315J2002*
G01Y1299315*
G03X519001Y1301316I-2001J0*
G01X519000*
X509000*
G03X506998Y1299315I0J-2002*
G01Y1289315*
G03X508999Y1287314I2001J0*
G37*
G36*
X513984Y1388183D02*
G03X519502Y1393685I16J5502D01*
X514016Y1399187I-5502J0*
X508498Y1393685I-16J-5502*
X513984Y1388183I5502J0*
G37*
G36*
Y1448183D02*
G03X519502Y1453685I16J5502D01*
X514016Y1459187I-5502J0*
X508498Y1453685I-16J-5502*
X513984Y1448183I5502J0*
G37*
G36*
X282500Y1278498D02*
G01X293500D01*
G03X299002Y1284000I0J5502*
X293500Y1289502I-5502J0*
G01X282500*
G03X276998Y1284000I0J-5502*
X282500Y1278498I5502J0*
G37*
%LPD*%
G54D26*
X256000Y1260000D03*
X258000Y1474000D03*
X524000Y1259000D03*
Y1473000D03*
G54D25*
X336000Y1283000D03*
Y1277000D03*
X376000Y1283000D03*
Y1277000D03*
X416000Y1283000D03*
Y1277000D03*
X504000Y1419000D03*
Y1413000D03*
G54D71*
X260000Y1317000D03*
X271000Y1357000D03*
X257500Y1442500D03*
X260000Y1429000D03*
X296700Y1311000D03*
X274000Y1370000D03*
Y1377000D03*
Y1383000D03*
X282000D03*
X274000Y1363000D03*
X277000Y1423000D03*
X304000Y1311000D03*
Y1320000D03*
X309000Y1304000D03*
X307000Y1295000D03*
X318000Y1342000D03*
X326000Y1349000D03*
X327000Y1324000D03*
X313000Y1361000D03*
X306000Y1404000D03*
X305000Y1396000D03*
X331000Y1404000D03*
X306000Y1415000D03*
X316000D03*
X344000Y1314000D03*
X357000Y1316000D03*
X345000Y1334000D03*
X338500Y1346000D03*
X362000Y1336000D03*
X356000Y1383000D03*
X343984Y1383016D03*
X338500Y1360500D03*
X356000Y1391000D03*
X348000D03*
X343000Y1437500D03*
X354000Y1472000D03*
X383000Y1315000D03*
X392500Y1305500D03*
X372000Y1314000D03*
X374000Y1353000D03*
X365000Y1383000D03*
X364000Y1374000D03*
X365000Y1391000D03*
X384000Y1402000D03*
X388000Y1385000D03*
X405000Y1321000D03*
X416000Y1294000D03*
X417000Y1343000D03*
X399000Y1338000D03*
X404000Y1369000D03*
X394000Y1385000D03*
X423000Y1422000D03*
X403000Y1442000D03*
X424000Y1290000D03*
X432000Y1286000D03*
X449000Y1341000D03*
X444000Y1402000D03*
Y1394000D03*
Y1412000D03*
Y1420000D03*
X425000Y1465000D03*
Y1471000D03*
X457000Y1321000D03*
X468000Y1304000D03*
X460000Y1306000D03*
X476000Y1302000D03*
X462000Y1350000D03*
X454000Y1382000D03*
X471685Y1372315D03*
X457000Y1357000D03*
X454000Y1409000D03*
Y1402000D03*
Y1394000D03*
Y1420000D03*
X473000Y1471000D03*
Y1464000D03*
X502000Y1314000D03*
Y1374000D03*
G54D30*
X501983Y1292189D03*
X502000Y1308000D03*
X501983Y1320189D03*
Y1348189D03*
X502000Y1336000D03*
Y1364000D03*
X501983Y1382189D03*
X502000Y1398000D03*
G54D24*
X341842Y1268000D03*
X381842D03*
X421842D03*
X461842D03*
X501842D03*
X514000Y1314000D03*
Y1333685D03*
Y1374000D03*
Y1393685D03*
Y1434000D03*
Y1453685D03*
G54D21*
X276205Y1464000D03*
G54D31*
X488000Y1370000D03*
G54D22*
X365000Y1471000D03*
X488000Y1459000D03*
G54D19*
X288000Y1260400D03*
G54D23*
X375000Y1471000D03*
X385000D03*
X395000D03*
X405000D03*
X488000Y1350000D03*
Y1360000D03*
Y1409000D03*
Y1399000D03*
Y1389000D03*
Y1429000D03*
Y1439000D03*
Y1419000D03*
Y1449000D03*
G54D70*
X288000Y1284000D03*
G54D35*
X416063Y1407319D03*
Y1402398D03*
Y1397476D03*
Y1392555D03*
Y1387634D03*
Y1441768D03*
Y1436846D03*
Y1431925D03*
Y1427004D03*
Y1422083D03*
Y1417161D03*
Y1412240D03*
Y1446689D03*
X473937Y1387634D03*
Y1392555D03*
Y1397476D03*
Y1402398D03*
Y1407319D03*
Y1412240D03*
Y1417161D03*
Y1422083D03*
Y1427004D03*
Y1431925D03*
Y1436846D03*
Y1441768D03*
Y1446689D03*
G54D20*
X291795Y1464000D03*
G54D27*
X449000Y1280000D03*
X455000D03*
X476000Y1349000D03*
X470000D03*
X489000Y1280000D03*
X495000D03*
G54D18*
X306500Y1272200D03*
G54D33*
X317000Y1292000D03*
X327000D03*
Y1324000D03*
X317000D03*
X339000Y1292000D03*
X349000D03*
X361000D03*
X349000Y1324000D03*
X339000D03*
X361000D03*
X371000Y1292000D03*
Y1324000D03*
G54D32*
X434500Y1293500D03*
X439500D03*
X444500D03*
X449500D03*
Y1314500D03*
X444500D03*
X439500D03*
X434500D03*
X468500Y1293500D03*
X473500D03*
X478500D03*
Y1314500D03*
X473500D03*
X468500D03*
X483500Y1293500D03*
Y1314500D03*
G54D73*
X322158Y1268000D03*
X362158D03*
X402158D03*
X442158D03*
X482158D03*
X514000Y1294315D03*
Y1354315D03*
Y1414315D03*
G54D28*
X449500Y1326000D03*
X442500D03*
X428500Y1349000D03*
X435500D03*
X428500Y1358000D03*
X435500D03*
X476500Y1324000D03*
X477500Y1356000D03*
X470500D03*
X483500Y1324000D03*
G54D34*
X427776Y1372315D03*
X432697D03*
X437618D03*
X442539D03*
X447461D03*
Y1461685D03*
X442539D03*
X437618D03*
X432697D03*
X427776D03*
X452382Y1372315D03*
X457303D03*
X462224D03*
Y1461685D03*
X457303D03*
X452382D03*
G54D72*
X314189Y1280017D03*
X330000Y1280000D03*
X354189Y1280017D03*
X370000Y1280000D03*
X394189Y1280017D03*
X410000Y1280000D03*
G54D29*
X443000Y1476000D03*
X432606D03*
X453394D03*
G54D14*
X502000Y1314000D02*
G01X514000D01*
X501983Y1320189D02*
G01Y1317217D01*
X502000Y1317200*
Y1314000*
Y1314000D02*
G01Y1308000D01*
Y1374000D02*
G01Y1380572D01*
X501983Y1380589*
Y1382189*
X502000Y1374000D02*
G01Y1364000D01*
Y1374000D02*
G01X514000D01*
G54D36*
X257500Y1442500D02*
G01X277000Y1423000D01*
X319000Y1330000D02*
G01Y1326000D01*
X317000Y1324000*
X337000Y1329000D02*
G01X334000Y1332000D01*
X321000*
X319000Y1330000*
X331000Y1360000D02*
G01X330000Y1361000D01*
X313000*
X339000Y1324000D02*
G01Y1325000D01*
X361000Y1324000D02*
G01Y1324750D01*
X353750Y1332000*
X339000Y1325000D02*
G01X337000Y1327000D01*
Y1329000*
X339000Y1329750D02*
G01Y1325000D01*
X353750Y1332000D02*
G01X348233D01*
X346533Y1330300*
X343467*
X342767Y1331000*
X340250*
X339000Y1329750*
X423000Y1337000D02*
G01Y1327000D01*
X401500Y1305500*
X392500*
X434500Y1314500D02*
G01X432548D01*
X434500D02*
G01Y1310048D01*
X449500Y1326000D02*
G01Y1314500D01*
X428500Y1349000D02*
G01Y1358000D01*
X435500D02*
G01Y1349000D01*
X428500Y1358000D02*
G01Y1362000D01*
Y1362000D02*
G01X427776Y1362724D01*
Y1362724D02*
G01Y1372315D01*
X437618D02*
G01Y1364118D01*
X435500Y1362000*
Y1358000*
X432697Y1372315D02*
G01X437618D01*
X514000Y1354315D02*
G01Y1345200D01*
X504800Y1336000*
X502000*
X514000Y1354315D02*
G01X523000Y1363315D01*
Y1379000*
X518000Y1384000*
X510000*
X502000Y1392000*
Y1398000*
G54D37*
X331000Y1404000D02*
G01Y1360000D01*
Y1360000D02*
G01X338000Y1353000D01*
X374000*
X331000Y1404000D02*
G01Y1425500D01*
X343000Y1437500*
X381000Y1353000D02*
G01X383000D01*
X393000Y1343000*
X417000*
X374000Y1353000D02*
G01X381000D01*
X384000Y1402000D02*
G01Y1387647D01*
X383300Y1386947*
Y1383053*
X384000Y1382353*
Y1356000*
X381000Y1353000*
X417000Y1343000D02*
G01X423000Y1337000D01*
Y1337000D02*
G01X426000Y1334000D01*
X436000*
Y1334000D02*
G01X450000D01*
Y1334000D02*
G01X477000D01*
X450000D02*
G01Y1331000D01*
X449500Y1330500*
Y1326000*
X442539Y1461685D02*
G01Y1475539D01*
X443000Y1476000*
X437618Y1461685D02*
G01Y1457618D01*
Y1457618D02*
G01X434618Y1454618D01*
X430000*
X427000Y1457618*
Y1457618D02*
G01Y1460909D01*
X427776Y1461685*
X504000Y1413000D02*
G01X512685D01*
Y1413000D02*
G01X514000Y1414315D01*
G54D38*
X384000Y1402000D02*
G01X386440Y1404440D01*
X387592*
X388662Y1405510*
X388762Y1406139*
Y1427762*
X403000Y1442000*
X435500Y1349000D02*
G01Y1334500D01*
X436000Y1334000*
X477000D02*
G01X483000D01*
X477000D02*
G01X476000Y1335000D01*
Y1349000*
X454000Y1409000D02*
G01X460602Y1402398D01*
Y1402398D02*
G01X473937D01*
X503000Y1344000D02*
G01X501983Y1345017D01*
Y1345017D02*
G01Y1348189D01*
X483000Y1334000D02*
G01X486000D01*
X496833Y1344833*
Y1402833*
X504000Y1410000*
Y1413000*
X483000Y1334000D02*
G01Y1324500D01*
X483500Y1324000*
G54D39*
X314189Y1275915D02*
G01Y1280017D01*
Y1280017D02*
G01Y1284119D01*
X312798Y1292000D02*
G01X317000D01*
Y1292000D02*
G01X321202D01*
X341842Y1262298D02*
G01Y1268000D01*
Y1268000D02*
G01Y1273702D01*
X336140Y1268000D02*
G01X341842D01*
Y1268000D02*
G01X347544D01*
X339000Y1287048D02*
G01Y1292000D01*
X354189Y1275915D02*
G01Y1280017D01*
X352887D02*
G01X354189D01*
Y1280017D02*
G01X355491D01*
X356798Y1292000D02*
G01X361000D01*
X334798D02*
G01X339000D01*
Y1292000D02*
G01X343202D01*
X361000D02*
G01Y1291000D01*
X381842Y1262298D02*
G01Y1268000D01*
Y1268000D02*
G01Y1273702D01*
X376140Y1268000D02*
G01X381842D01*
Y1268000D02*
G01X387544D01*
X361000Y1292000D02*
G01X365202D01*
X416140Y1268000D02*
G01X421842D01*
X394189Y1275915D02*
G01Y1280017D01*
Y1280017D02*
G01Y1284119D01*
X392887Y1280017D02*
G01X394189D01*
Y1280017D02*
G01X395491D01*
X421842Y1262298D02*
G01Y1268000D01*
Y1268000D02*
G01Y1273702D01*
Y1268000D02*
G01X427544D01*
G54D15*
X245000Y1485000D02*
G01Y1248000D01*
X534000*
Y1485000*
X245000*
X456780Y1468126D02*
G01X429220D01*
Y1483874*
X456780*
Y1468126*
G54D12*
X260000Y1429000D02*
G01Y1432205D01*
X288000Y1260400D02*
G01Y1264602D01*
X279798Y1260400D02*
G01X288000D01*
Y1260400D02*
G01X296202D01*
X291795Y1455298D02*
G01Y1464000D01*
Y1464000D02*
G01Y1472702D01*
Y1464000D02*
G01X298497D01*
X306500Y1263998D02*
G01Y1272200D01*
Y1272200D02*
G01Y1280402D01*
X302298Y1272200D02*
G01X306500D01*
X336000Y1277000D02*
G01Y1274350D01*
X329650Y1268000*
X322158*
X336000Y1283000D02*
G01X333000D01*
X330000Y1280000*
Y1280000D02*
G01Y1289000D01*
X327000Y1292000*
X314189Y1280017D02*
G01X315689D01*
X317000Y1281328D02*
G01Y1292000D01*
X315689Y1280017D02*
G01X317000Y1281328D01*
Y1319048D02*
G01Y1324000D01*
X309000Y1304000D02*
G01X312100D01*
X312102Y1304002*
X315997*
X316915Y1304916*
X317005Y1304990*
X317100Y1305000*
X348000*
X348920Y1305920*
X349005Y1305990*
X349100Y1306000*
X370000*
X372000Y1308000*
Y1314000*
X344000D02*
G01Y1314200D01*
X343200Y1315000*
X330850*
X327000Y1318850*
Y1324000*
X307000Y1295000D02*
G01X309996Y1297996D01*
X312089*
X312253Y1298000*
X374000*
X374002Y1298002*
X376593*
X377998Y1299407*
Y1316902*
X376050Y1318850*
X371000*
X319700Y1345100D02*
G01X321000Y1346400D01*
Y1351000*
X317000Y1355000*
X310000*
X305000Y1360000*
Y1396000*
X317000Y1324000D02*
G01Y1341000D01*
Y1341000D02*
G01X318000Y1342000D01*
X312798Y1324000D02*
G01X317000D01*
X338500Y1346000D02*
G01X329000D01*
X326000Y1349000*
X370000Y1280000D02*
G01X363000D01*
X358000Y1285000*
X357999*
X355886Y1287113*
X353197*
X353139Y1287119*
X353097Y1287153*
X349000Y1291250*
Y1292000*
X339000Y1319048D02*
G01Y1324000D01*
X372000Y1314000D02*
G01X369807Y1311807D01*
X354101*
X349000Y1316908*
Y1324000*
X357000Y1316000D02*
G01X368150D01*
X371000Y1318850*
X356798Y1324000D02*
G01X361000D01*
X334798D02*
G01X339000D01*
X338500Y1360500D02*
G01X340000Y1362000D01*
Y1368000*
X343984Y1371984*
Y1383016*
X376000Y1283000D02*
G01X373000D01*
X370000Y1280000*
X362158Y1268000D02*
G01X370000D01*
X376000Y1274000*
Y1277000*
X361000Y1291000D02*
G01X365650Y1286350D01*
Y1286350D02*
G01X377350D01*
X378000Y1287000*
X361000Y1319048D02*
G01Y1324000D01*
X371000Y1292000D02*
G01X404000D01*
X410000Y1286000*
Y1280000*
X371000Y1318850D02*
G01Y1324000D01*
X361000D02*
G01X365202D01*
X399000Y1338000D02*
G01X386000D01*
X384000Y1336000*
X362000*
X416063Y1431925D02*
G01X410925D01*
X398000Y1419000*
Y1395000*
X388000Y1385000*
X385000Y1466298D02*
G01Y1471000D01*
Y1471000D02*
G01Y1475702D01*
X416000Y1283000D02*
G01X413000D01*
X410000Y1280000*
X402158Y1268000D02*
G01X409650D01*
X416000Y1274350*
Y1277000*
Y1294000D02*
G01Y1298000D01*
X420000Y1302000*
X446000*
X449500Y1298500*
Y1293500*
X416063Y1385554D02*
G01Y1387634D01*
X411817D02*
G01X416063D01*
Y1387634D02*
G01X420309D01*
X394000Y1385000D02*
G01X400000Y1391000D01*
Y1417008*
X409996Y1427004*
X416063*
X411817Y1422083D02*
G01X416063D01*
Y1422083D02*
G01X420309D01*
X488000Y1399000D02*
G01X497000Y1408000D01*
Y1463000*
X493000Y1467000*
X482254*
X447179Y1431925*
X416063*
Y1427004D02*
G01X444804D01*
X482200Y1464400*
X492580*
X495000Y1461980*
Y1416000*
X488000Y1409000*
X416063Y1441768D02*
G01Y1443848D01*
X411817Y1441768D02*
G01X416063D01*
Y1441768D02*
G01X420309D01*
X416063Y1444609D02*
G01Y1446689D01*
Y1446689D02*
G01Y1448769D01*
X411817Y1446689D02*
G01X416063D01*
Y1446689D02*
G01X420309D01*
X449000Y1280000D02*
G01Y1274842D01*
X442158Y1268000*
X449000Y1280000D02*
G01Y1282500D01*
X456000Y1289500*
Y1295500*
X439500Y1312000*
Y1314500*
X424000Y1290000D02*
G01X427500Y1293500D01*
X434500*
X432000Y1286000D02*
G01X436700D01*
X439500Y1288800*
Y1293500*
X444500Y1314500D02*
G01Y1309850D01*
X458000Y1296350*
Y1288000*
X455000Y1285000*
Y1280000*
X444500Y1293500D02*
G01X439500D01*
X430400Y1350750D02*
G01X430250D01*
X428500Y1349000*
X442500Y1322798D02*
G01Y1326000D01*
Y1326000D02*
G01Y1329202D01*
X439548Y1326000D02*
G01X442500D01*
X428500Y1345798D02*
G01Y1349000D01*
X425548D02*
G01X428500D01*
X442539Y1368069D02*
G01Y1372315D01*
Y1372315D02*
G01Y1376561D01*
X427776Y1372315D02*
G01Y1376561D01*
X425696Y1372315D02*
G01X427776D01*
X488000Y1429000D02*
G01X482000Y1423000D01*
Y1383198*
X478000Y1379198*
Y1370000*
X471000Y1363000*
X449461*
X447461Y1365000*
Y1372315*
X427776Y1457439D02*
G01Y1461685D01*
Y1461685D02*
G01Y1465931D01*
X425696Y1461685D02*
G01X427776D01*
X447461Y1457439D02*
G01Y1461685D01*
Y1461685D02*
G01Y1465931D01*
Y1461685D02*
G01X449541D01*
X450302D02*
G01X452382D01*
X450330Y1476000D02*
G01X453394D01*
X429542D02*
G01X432606D01*
Y1476000D02*
G01X435670D01*
X455000Y1280000D02*
G01Y1274842D01*
X461842Y1268000*
X468500Y1314500D02*
G01Y1320500D01*
Y1320500D02*
G01X472000Y1324000D01*
X489000Y1280000D02*
G01Y1297000D01*
X478000Y1308000*
X475350*
X473500Y1309850*
Y1314500*
X495000Y1280000D02*
G01Y1293350D01*
X490800Y1297550*
Y1297746*
X478746Y1309800*
X478550*
X478500Y1309850*
Y1314500*
X468000Y1304000D02*
G01X470193Y1301807D01*
Y1299843*
X468500Y1298150*
Y1293500*
X460000Y1306000D02*
G01X462193Y1308193D01*
X470899*
X473492Y1305600*
X477492*
X483500Y1299592*
Y1293500*
X473500D02*
G01X478500D01*
X476000Y1302000D02*
G01X473500Y1299500D01*
Y1293500*
X467000Y1342000D02*
G01X466000Y1343000D01*
Y1342000*
X472000Y1324000D02*
G01X476500D01*
Y1320798D02*
G01Y1324000D01*
Y1324000D02*
G01Y1327202D01*
X470500Y1356000D02*
G01Y1352000D01*
X470000Y1351500*
Y1349000*
X477500Y1356000D02*
G01Y1359202D01*
Y1356000D02*
G01X480452D01*
X471685Y1372315D02*
G01X466741Y1367371D01*
X460081*
X457303Y1370149*
Y1372315*
X457000Y1357000D02*
G01X466350D01*
X467350Y1356000*
X470500*
X452382Y1372315D02*
G01Y1365800D01*
X453382Y1364800*
X469800*
X476000Y1371000*
Y1380000*
X479200Y1383232*
Y1430200*
X488000Y1439000*
X453394Y1467424D02*
G01Y1476000D01*
X452382Y1457439D02*
G01Y1461685D01*
Y1461685D02*
G01Y1465931D01*
Y1461685D02*
G01X454462D01*
X457303Y1457439D02*
G01Y1461685D01*
Y1461685D02*
G01Y1465931D01*
X455223Y1461685D02*
G01X457303D01*
X473937Y1441768D02*
G01X468232D01*
X467000Y1443000*
Y1446654*
X479346Y1459000*
X488000*
X473937Y1446689D02*
G01X478381D01*
X480692Y1449000*
X488000*
X453394Y1476000D02*
G01X456458D01*
X489000Y1280000D02*
G01Y1274842D01*
X482158Y1268000*
X495000Y1280000D02*
G01Y1274842D01*
X501842Y1268000*
X501983Y1290887D02*
G01Y1292189D01*
Y1292189D02*
G01Y1293491D01*
X497881Y1292189D02*
G01X501983D01*
Y1292189D02*
G01X506085D01*
X483500Y1324000D02*
G01Y1314500D01*
X501983Y1348189D02*
G01Y1349491D01*
Y1348189D02*
G01X506085D01*
X488000Y1345298D02*
G01Y1350000D01*
X483298D02*
G01X488000D01*
Y1350000D02*
G01X492702D01*
X508298Y1333685D02*
G01X514000D01*
X488000Y1384298D02*
G01Y1389000D01*
Y1389000D02*
G01X492702D01*
X508298Y1393685D02*
G01X514000D01*
X512685Y1413000D02*
G01X508363Y1408678D01*
X514000Y1434000D02*
G01X504000Y1424000D01*
Y1419000*
X508298Y1453685D02*
G01X514000D01*
Y1327983D02*
G01Y1333685D01*
Y1333685D02*
G01Y1339387D01*
Y1333685D02*
G01X519702D01*
X514000Y1387983D02*
G01Y1393685D01*
Y1393685D02*
G01Y1399387D01*
Y1393685D02*
G01X519702D01*
X514000Y1447983D02*
G01Y1453685D01*
Y1453685D02*
G01Y1459387D01*
Y1453685D02*
G01X519702D01*
M02*
