G04 CAM350/DFMSTREAM V12.1 (Build 1022) Date:  Tue Jun 16 22:18:49 2020 *
G04 Database: (Untitled) *
G04 Layer 6: PASTE_BOTTOM.art *
%FSLAX25Y25*%
%MOIN*%
%SFA1.000B1.000*%

%MIA0B0*%
%IPPOS*%
%ADD15C,0.00500*%
%ADD25R,0.03200X0.03500*%
%ADD27R,0.03500X0.03200*%
%ADD28R,0.04500X0.05000*%
%ADD29R,0.04724X0.15748*%
%ADD32R,0.02500X0.07500*%
%ADD33R,0.07000X0.08500*%
%ADD52R,0.03346X0.07677*%
%ADD53R,0.07677X0.03346*%
%LNPASTE_BOTTOM.art*%
%LPD*%
G54D33*
X317000Y1292000D03*
X327000D03*
Y1324000D03*
X317000D03*
X339000Y1292000D03*
X349000D03*
X361000D03*
X349000Y1324000D03*
X339000D03*
X361000D03*
X371000Y1292000D03*
Y1324000D03*
G54D25*
X336000Y1283000D03*
Y1277000D03*
X376000Y1283000D03*
Y1277000D03*
X416000Y1283000D03*
Y1277000D03*
X504000Y1419000D03*
Y1413000D03*
G54D53*
X416063Y1407319D03*
Y1402398D03*
Y1397476D03*
Y1392555D03*
Y1387634D03*
Y1441768D03*
Y1436846D03*
Y1431925D03*
Y1427004D03*
Y1422083D03*
Y1417161D03*
Y1412240D03*
Y1446689D03*
X473937Y1387634D03*
Y1392555D03*
Y1397476D03*
Y1402398D03*
Y1407319D03*
Y1412240D03*
Y1417161D03*
Y1422083D03*
Y1427004D03*
Y1431925D03*
Y1436846D03*
Y1441768D03*
Y1446689D03*
G54D27*
X449000Y1280000D03*
X455000D03*
X476000Y1349000D03*
X470000D03*
X489000Y1280000D03*
X495000D03*
G54D32*
X434500Y1293500D03*
X439500D03*
X444500D03*
X449500D03*
Y1314500D03*
X444500D03*
X439500D03*
X434500D03*
X468500Y1293500D03*
X473500D03*
X478500D03*
Y1314500D03*
X473500D03*
X468500D03*
X483500Y1293500D03*
Y1314500D03*
G54D28*
X449500Y1326000D03*
X442500D03*
X428500Y1349000D03*
X435500D03*
X428500Y1358000D03*
X435500D03*
X476500Y1324000D03*
X477500Y1356000D03*
X470500D03*
X483500Y1324000D03*
G54D52*
X427776Y1372315D03*
X432697D03*
X437618D03*
X442539D03*
X447461D03*
Y1461685D03*
X442539D03*
X437618D03*
X432697D03*
X427776D03*
X452382Y1372315D03*
X457303D03*
X462224D03*
Y1461685D03*
X457303D03*
X452382D03*
G54D29*
X443000Y1476000D03*
G54D15*
X245000Y1485000D02*
G01Y1248000D01*
X534000*
Y1485000*
X245000*
X456780Y1468126D02*
G01X429220D01*
Y1483874*
X456780*
Y1468126*
M02*
