G04 CAM350/DFMSTREAM V12.1 (Build 1022) Date:  Tue Jun 16 22:18:50 2020 *
G04 Database: (Untitled) *
G04 Layer 10: SMASK_BOTTOM.art *
%FSLAX25Y25*%
%MOIN*%
%SFA1.000B1.000*%

%MIA0B0*%
%IPPOS*%
%ADD15C,0.00500*%
%ADD29R,0.04724X0.15748*%
%ADD33R,0.07000X0.08500*%
%ADD52R,0.03346X0.07677*%
%ADD53R,0.07677X0.03346*%
%ADD69O,0.07400X0.15400*%
%ADD74O,0.15400X0.07400*%
%ADD75O,0.18400X0.07400*%
%ADD76C,0.09000*%
%ADD77C,0.04800*%
%ADD78C,0.08500*%
%ADD79R,0.09000X0.09000*%
%ADD80R,0.05512X0.16535*%
%ADD81R,0.08500X0.08500*%
%ADD82O,0.13000X0.17000*%
%ADD83R,0.13000X0.17000*%
%ADD84C,0.11000*%
%ADD85C,0.14000*%
%ADD86R,0.03800X0.04100*%
%ADD87R,0.04100X0.03800*%
%ADD88R,0.05100X0.05600*%
%ADD89R,0.11000X0.11000*%
%ADD90R,0.03200X0.08800*%
%ADD91R,0.08800X0.03200*%
%ADD92R,0.02900X0.07900*%
%LNSMASK_BOTTOM.art*%
%LPD*%
G54D85*
X256000Y1260000D03*
X258000Y1474000D03*
X524000Y1259000D03*
Y1473000D03*
G54D86*
X336000Y1283000D03*
Y1277000D03*
X376000Y1283000D03*
Y1277000D03*
X416000Y1283000D03*
Y1277000D03*
X504000Y1419000D03*
Y1413000D03*
G54D77*
X260000Y1317000D03*
X271000Y1357000D03*
X257500Y1442500D03*
X260000Y1429000D03*
X296700Y1311000D03*
X274000Y1370000D03*
Y1377000D03*
Y1383000D03*
X282000D03*
X274000Y1363000D03*
X277000Y1423000D03*
X304000Y1311000D03*
Y1320000D03*
X309000Y1304000D03*
X307000Y1295000D03*
X318000Y1342000D03*
X326000Y1349000D03*
X327000Y1324000D03*
X313000Y1361000D03*
X306000Y1404000D03*
X305000Y1396000D03*
X331000Y1404000D03*
X306000Y1415000D03*
X316000D03*
X344000Y1314000D03*
X357000Y1316000D03*
X345000Y1334000D03*
X338500Y1346000D03*
X362000Y1336000D03*
X356000Y1383000D03*
X343984Y1383016D03*
X338500Y1360500D03*
X356000Y1391000D03*
X348000D03*
X343000Y1437500D03*
X354000Y1472000D03*
X383000Y1315000D03*
X392500Y1305500D03*
X372000Y1314000D03*
X374000Y1353000D03*
X365000Y1383000D03*
X364000Y1374000D03*
X365000Y1391000D03*
X384000Y1402000D03*
X388000Y1385000D03*
X405000Y1321000D03*
X416000Y1294000D03*
X417000Y1343000D03*
X399000Y1338000D03*
X404000Y1369000D03*
X394000Y1385000D03*
X423000Y1422000D03*
X403000Y1442000D03*
X424000Y1290000D03*
X432000Y1286000D03*
X449000Y1341000D03*
X444000Y1402000D03*
Y1394000D03*
Y1412000D03*
Y1420000D03*
X425000Y1465000D03*
Y1471000D03*
X457000Y1321000D03*
X468000Y1304000D03*
X460000Y1306000D03*
X476000Y1302000D03*
X462000Y1350000D03*
X454000Y1382000D03*
X471685Y1372315D03*
X457000Y1357000D03*
X454000Y1409000D03*
Y1402000D03*
Y1394000D03*
Y1420000D03*
X473000Y1471000D03*
Y1464000D03*
X502000Y1314000D03*
Y1374000D03*
G54D84*
X341842Y1268000D03*
X381842D03*
X421842D03*
X461842D03*
X501842D03*
X514000Y1314000D03*
Y1333685D03*
Y1374000D03*
Y1393685D03*
Y1434000D03*
Y1453685D03*
G54D83*
X276205Y1464000D03*
G54D80*
X432606Y1476000D03*
X453394D03*
G54D91*
X501983Y1292189D03*
X502000Y1308000D03*
X501983Y1320189D03*
Y1348189D03*
X502000Y1336000D03*
Y1364000D03*
X501983Y1382189D03*
X502000Y1398000D03*
G54D79*
X365000Y1471000D03*
G54D74*
X288000Y1260400D03*
G54D78*
X488000Y1350000D03*
Y1360000D03*
Y1409000D03*
Y1399000D03*
Y1389000D03*
Y1429000D03*
Y1439000D03*
Y1419000D03*
Y1449000D03*
G54D76*
X375000Y1471000D03*
X385000D03*
X395000D03*
X405000D03*
G54D75*
X288000Y1284000D03*
G54D53*
X416063Y1407319D03*
Y1402398D03*
Y1397476D03*
Y1392555D03*
Y1387634D03*
Y1441768D03*
Y1436846D03*
Y1431925D03*
Y1427004D03*
Y1422083D03*
Y1417161D03*
Y1412240D03*
Y1446689D03*
X473937Y1387634D03*
Y1392555D03*
Y1397476D03*
Y1402398D03*
Y1407319D03*
Y1412240D03*
Y1417161D03*
Y1422083D03*
Y1427004D03*
Y1431925D03*
Y1436846D03*
Y1441768D03*
Y1446689D03*
G54D81*
X488000Y1370000D03*
G54D82*
X291795Y1464000D03*
G54D87*
X449000Y1280000D03*
X455000D03*
X476000Y1349000D03*
X470000D03*
X489000Y1280000D03*
X495000D03*
G54D81*
X488000Y1459000D03*
G54D69*
X306500Y1272200D03*
G54D92*
X434500Y1293500D03*
X439500D03*
X444500D03*
X449500D03*
Y1314500D03*
X444500D03*
X439500D03*
X434500D03*
X468500Y1293500D03*
X473500D03*
X478500D03*
Y1314500D03*
X473500D03*
X468500D03*
X483500Y1293500D03*
Y1314500D03*
G54D33*
X317000Y1292000D03*
X327000D03*
Y1324000D03*
X317000D03*
X339000Y1292000D03*
X349000D03*
X361000D03*
X349000Y1324000D03*
X339000D03*
X361000D03*
X371000Y1292000D03*
Y1324000D03*
G54D89*
X322158Y1268000D03*
X362158D03*
X402158D03*
X442158D03*
X482158D03*
X514000Y1294315D03*
Y1354315D03*
Y1414315D03*
G54D88*
X449500Y1326000D03*
X442500D03*
X428500Y1349000D03*
X435500D03*
X428500Y1358000D03*
X435500D03*
X476500Y1324000D03*
X477500Y1356000D03*
X470500D03*
X483500Y1324000D03*
G54D52*
X427776Y1372315D03*
X432697D03*
X437618D03*
X442539D03*
X447461D03*
Y1461685D03*
X442539D03*
X437618D03*
X432697D03*
X427776D03*
X452382Y1372315D03*
X457303D03*
X462224D03*
Y1461685D03*
X457303D03*
X452382D03*
G54D90*
X314189Y1280017D03*
X330000Y1280000D03*
X354189Y1280017D03*
X370000Y1280000D03*
X394189Y1280017D03*
X410000Y1280000D03*
G54D29*
X443000Y1476000D03*
G54D15*
X245000Y1485000D02*
G01Y1248000D01*
X534000*
Y1485000*
X245000*
X456780Y1468126D02*
G01X429220D01*
Y1483874*
X456780*
Y1468126*
M02*
