G04 CAM350/DFMSTREAM V12.1 (Build 1022) Date:  Tue Jun 16 22:18:50 2020 *
G04 Database: (Untitled) *
G04 Layer 12: TOP.art *
%FSLAX25Y25*%
%MOIN*%
%SFA1.000B1.000*%

%MIA0B0*%
%IPPOS*%
%ADD12C,0.00800*%
%ADD14C,0.01000*%
%ADD15C,0.00500*%
%ADD18O,0.07000X0.15000*%
%ADD19O,0.15000X0.07000*%
%ADD70O,0.18000X0.07000*%
%ADD71C,0.04400*%
%ADD20O,0.12000X0.16000*%
%ADD21R,0.12000X0.16000*%
%ADD22R,0.08000X0.08000*%
%ADD23C,0.08000*%
%ADD24C,0.10000*%
%ADD25R,0.03200X0.03500*%
%ADD26C,0.13000*%
%ADD27R,0.03500X0.03200*%
%ADD28R,0.04500X0.05000*%
%ADD29R,0.04724X0.15748*%
%ADD73R,0.10000X0.10000*%
%ADD36C,0.02000*%
%ADD37C,0.03000*%
%ADD38C,0.01500*%
%ADD39C,0.01800*%
%ADD54R,0.12000X0.03500*%
%ADD55R,0.04724X0.11024*%
%ADD56R,0.04724X0.04724*%
%ADD57R,0.06299X0.22441*%
%ADD58R,0.02200X0.04000*%
%ADD59R,0.05000X0.04500*%
%ADD60R,0.02100X0.06700*%
%ADD61R,0.06700X0.03200*%
%ADD62R,0.01181X0.04724*%
%ADD63R,0.04724X0.01181*%
%ADD64R,0.11811X0.14764*%
%ADD65R,0.09843X0.03543*%
%ADD66R,0.08464X0.06678*%
%ADD93R,0.15000X0.06000*%
%LNTOP.art*%
%LPD*%
G36*
X347402Y1410723D02*
G01Y1411416D01*
G75*
G03X348184Y1412026I-802J1834*
G02X348816I316J-245*
G03X349598Y1411416I1584J1224*
G01Y1407065*
X347574*
Y1409827*
Y1409829*
G03X347415Y1410688I-2401J0*
G01X347402Y1410723*
G37*
G36*
X320416Y1394290D02*
G03X320675Y1394852I-1667J1109D01*
G01X320716Y1394998*
X320946*
X320993Y1394969*
G03X321250Y1394898I257J430*
G01X324750*
G03X325252Y1395400J502*
G01Y1397537*
G02X325652Y1397935I400J-2*
X325934Y1397819I0J-400*
G01X330625Y1393129*
G03X332323Y1392426I1698J1699*
G01X332932*
X332936Y1392229*
G03X332975Y1391874I2003J40*
X332936Y1391481I1962J-393*
G01Y1391480*
Y1390300*
Y1390299*
G03X332975Y1389906I2003J0*
X332936Y1389551I1962J-395*
G01X332932Y1389354*
X326478*
X326423*
X326414*
G02X326014Y1389754I0J400*
G01Y1392691*
G03X325513Y1393192I-501J0*
G01X325512*
X321155*
X321109Y1393329*
G03X320416Y1394290I-1897J-638*
G37*
G36*
X340602Y1321000D02*
G01Y1331205D01*
X343098Y1333702*
G03X343433Y1334122I-1698J1698*
G01X343445Y1334141*
X344859Y1335555*
X344878Y1335567*
G03X345298Y1335902I-1278J2033*
G01X347995Y1338598*
G02X348278Y1338715I283J-283*
X348678Y1338316I0J-400*
G01Y1332574*
X347656Y1331552*
X346950*
G03X345029Y1330114I0J-2002*
G02X344645Y1329827I-384J113*
X344381Y1329927I1J400*
G03X344050Y1330052I-331J-376*
G01X341950*
G03X341448Y1329550I0J-502*
G01Y1322850*
G03X341950Y1322348I502J0*
G01X344050*
G03X344381Y1322473I0J501*
G02X344646Y1322573I264J-300*
X345029Y1322286I0J-400*
G03X345354Y1321641I1921J564*
G02X345435Y1321400I-319J-241*
X345035Y1321000I-400J0*
G01X340602*
G37*
G36*
X317000D02*
G01Y1345050D01*
G02X317608Y1345391I400J-1*
G03X318650Y1345098I1043J1709*
G01X324440*
G03X326000Y1344798I1559J3903*
X328007Y1345309I-1J4202*
G02X328598Y1344958I191J-351*
G01Y1344957*
Y1328443*
G02X328094Y1328057I-400J0*
G03X327000Y1328202I-1094J-4057*
X322798Y1324000I0J-4202*
G01Y1323999*
X322810Y1323678*
X322847Y1323359*
X322863Y1323259*
X321302Y1321698*
G03X320817Y1321000I1699J-1698*
G01X317000*
G37*
G36*
X385223Y1372340D02*
G02X385622Y1372740I400J0D01*
G01X397142*
G03X398840Y1373444I-1J2402*
G01X400317Y1374921*
G02X400737Y1375014I283J-283*
X401000Y1374638I-137J-376*
G01Y1373000*
X402000Y1372000*
X406837*
G03X407852Y1371325I1563J1250*
G01X407998Y1371284*
Y1371054*
X407969Y1371007*
G03X407898Y1370750I430J-257*
G01Y1367250*
X407900Y1367215*
Y1367002*
X405000*
G03X403266Y1366000I0J-2001*
G01X403000*
X401000Y1364000*
Y1350598*
X397000*
G02X395302Y1351302I1J2402*
G01X389302Y1357302*
G02X388598Y1359000I1698J1699*
G01Y1364552*
G02X387166Y1366280I2402J3448*
G03X386802Y1366515I-364J-165*
G01X386801*
G02X386402Y1366915I1J400*
G01Y1370001*
G03X385698Y1371699I-2402J-1*
G01X385340Y1372058*
G02X385223Y1372340I283J282*
G37*
G36*
X262001Y1352216D02*
G01Y1352220D01*
X262002Y1352244*
Y1352838*
G03X262572Y1353572I-1253J1562*
G01X262967Y1353967*
X263086Y1353926*
G03X263250Y1353898I165J474*
G01X266750*
G03X267252Y1354400J502*
G01Y1357600*
G03X267149Y1357904I-502J-1*
G01X267043Y1358043*
X267577Y1358577*
X267608Y1358592*
G03X268752Y1360400I-857J1808*
G01Y1363600*
G03X268002Y1365162I-2002J0*
G01Y1382171*
X270829Y1384998*
X289998*
Y1384102*
X287250*
G03X286748Y1383600I0J-502*
G01Y1380400*
G03X287250Y1379898I502J0*
G01X289998*
Y1364002*
X280171*
X279381Y1363211*
X279315Y1363202*
G03X277617Y1361504I284J-1982*
G01X277608Y1361438*
X276998Y1360829*
Y1355998*
X274000Y1353000*
X267920*
G03X266840Y1353316I-1079J-1685*
G01X264640*
G03X262743Y1351953I0J-2002*
G01X262697Y1351816*
X262401*
G02X262001Y1352216J400*
G37*
G36*
X265000Y1341314D02*
G01Y1344000D01*
X269000*
X270000Y1345000*
X271900*
Y1344786*
X271898Y1344750*
Y1341250*
G03X272400Y1340748I502J0*
G01X275600*
G03X276102Y1341250J502*
G01Y1344750*
X276100Y1344786*
Y1345000*
X277000*
X278414Y1346414*
G02X278834Y1346507I283J-283*
X279097Y1346131I-137J-376*
G01Y1338780*
G03X279598Y1338278I502J0*
G01X285898*
G03X286399Y1338780I-1J502*
G01Y1361220*
X286352Y1361432*
G02X286315Y1361600I363J168*
X286715Y1362000I400*
G01X289000*
X291000Y1360000*
Y1325000*
X288000Y1322000*
X280000*
X273000Y1329000*
Y1333000*
X270000Y1336000*
X267695*
G02X267296Y1336400I1J400*
X267316Y1336526I400J1*
G03X267342Y1336685I-476J159*
G01Y1340685*
G03X266840Y1341186I-501J0*
G01X265038*
X265000Y1341314*
G37*
G36*
X263000Y1364300D02*
G01Y1384000D01*
X267000Y1388000*
Y1401748*
X275000*
Y1401000*
X278000Y1398000*
X291000*
X305000Y1384000*
Y1362100*
G02X304600Y1361700I-400*
X304512Y1361710I1J400*
G03X304403Y1361722I-109J-490*
G01X304402*
X298102*
G03X297601Y1361220I1J-502*
G01Y1338780*
Y1338779*
G03X298102Y1338278I502J1*
G01X304402*
G03X304686Y1338367I-1J501*
G01X304738Y1338402*
X305000*
Y1338000*
X304000Y1337000*
X296000*
X293002Y1339999*
Y1360829*
X292000Y1361831*
Y1378837*
G03X292675Y1379852I-1250J1563*
G01X292716Y1379998*
X292946*
X292993Y1379969*
G03X293250Y1379898I257J430*
G01X296750*
G03X297252Y1380400J502*
G01Y1383600*
G03X296750Y1384102I-502J0*
G01X293250*
G03X292993Y1384031I0J-501*
G01X292946Y1384002*
X292716*
X292675Y1384148*
G03X292000Y1385163I-1925J-548*
G01Y1386000*
X291000Y1387000*
X283287*
G03X282000Y1387202I-1287J-4000*
X280713Y1387000I0J-4202*
G01X275287*
G03X274000Y1387202I-1287J-4000*
X272742Y1387009I1J-4202*
G01X272712Y1387000*
X270000*
X266000Y1383000*
Y1364102*
X263250*
X263214Y1364100*
X263200*
G02X263000Y1364300I1J201*
G37*
G36*
X272000Y1266244D02*
G01Y1271000D01*
X292000*
X300000Y1279000*
Y1291000*
X294000Y1297000*
Y1301748*
X301662*
G03X302164Y1302250J502*
G01Y1305750*
G03X301662Y1306252I-502J0*
G01X294000*
Y1329000*
X294773Y1329773*
G02X295193Y1329866I283J-283*
X295456Y1329490I-137J-376*
G01Y1324661*
G03X295957Y1324160I501*
G01X304421*
G03X304922Y1324661J501*
G01Y1331339*
G03X304421Y1331840I-501J0*
G01X297806*
G02X297443Y1332071I0J400*
X297406Y1332240I363J168*
X297523Y1332523I400J0*
G01X298000Y1333000*
X306000*
X308406Y1330595*
Y1317571*
Y1317570*
G03X309000Y1315989I2401*
G01Y1308202*
G03X304798Y1304000I0J-4202*
X308998Y1299798I4202*
G01Y1299315*
G02X308460Y1298940I-400J0*
G03X307000Y1299202I-1461J-3940*
X302798Y1295000I0J-4202*
X307000Y1290798I4202J0*
X308461Y1291060I0J4202*
G02X309000Y1290685I139J-375*
G01Y1280068*
G02X308409Y1279717I-400J0*
G03X306500Y1280202I-1910J-3517*
X302498Y1276200I0J-4002*
G01Y1268200*
G03X306500Y1264198I4002J0*
X308409Y1264683I-1J4002*
G02X309000Y1264332I191J-351*
G01Y1258878*
X308866Y1258831*
X308605Y1258725*
X308579Y1258713*
X308106Y1258440*
X308038Y1258392*
X307647Y1258062*
X304771Y1255187*
X304769Y1255185*
X304705Y1255122*
X304592Y1255010*
X276414*
X273008Y1258416*
Y1261939*
X273006Y1262019*
X273004Y1262094*
Y1263851*
G03X272987Y1264166I-3002J-4*
G01X272972Y1264308*
G03X272320Y1265882I-2985J-314*
G01X272235Y1265987*
G03X272000Y1266244I-2331J-1895*
G37*
G36*
X267000Y1406252D02*
G01Y1416000D01*
X279000Y1428000*
X296000*
X301000Y1433000*
Y1468000*
X304000Y1471000*
X329000*
X331000Y1469000*
X345837*
G03X346852Y1468325I1563J1250*
G01X346998Y1468284*
Y1468054*
X346969Y1468007*
G03X346898Y1467750I430J-257*
G01Y1464250*
G03X347400Y1463748I502J0*
G01X350600*
G03X351102Y1464250J502*
G01Y1467750*
G03X351031Y1468007I-501J0*
G01X351002Y1468054*
Y1468284*
X351148Y1468325*
G03X351403Y1468417I-550J1924*
G01X351528Y1468472*
X352000Y1468000*
Y1463000*
X344623*
Y1463212*
X344624Y1463224*
G03X344628Y1463284I-497J63*
G01Y1466826*
G03X344126Y1467328I-502J0*
G01X334284*
G03X333782Y1466826I0J-502*
G01Y1463284*
G03X333786Y1463224I501J3*
G01X333787Y1463212*
Y1463000*
X329000*
X326000Y1466000*
X307000*
X305000Y1464000*
Y1428000*
X299000Y1422000*
X282000*
X275000Y1415000*
Y1406252*
X267000*
G37*
G36*
X290000D02*
G01Y1414000D01*
X295000Y1419000*
X303000*
X309000Y1425000*
Y1431000*
X329000Y1451000*
X346900*
Y1450786*
X346898Y1450750*
Y1447250*
G03X347400Y1446748I502J0*
G01X350600*
G02X351000Y1446349I0J-400*
G01Y1446000*
X346001Y1441002*
X345324*
X345274Y1441033*
G03X343000Y1441702I-2275J-3533*
X338815Y1437881I0J-4202*
G01X338809Y1437809*
X338000Y1437000*
Y1431000*
X343000Y1426000*
X353354*
X355084Y1424270*
X354949Y1424129*
G03X354496Y1423366I1452J-1378*
G02X354115Y1423090I-381J125*
X353887Y1423161I0J401*
G03X353600Y1423252I-288J-411*
G01X350400*
G03X349898Y1422750I0J-502*
G01Y1419250*
G03X349969Y1418993I501J0*
G01X349998Y1418946*
Y1418716*
X349852Y1418675*
G03X348816Y1417974I547J-1925*
G02X348500Y1417819I-316J245*
X348184Y1417974I0J400*
G03X347148Y1418675I-1584J-1224*
G01X347002Y1418716*
Y1418946*
X347031Y1418993*
G03X347102Y1419250I-430J257*
G01Y1422750*
G03X346600Y1423252I-502J0*
G01X343400*
G03X342898Y1422750I0J-502*
G01Y1419250*
G03X342969Y1418993I501J0*
G01X342998Y1418946*
Y1418716*
X342852Y1418675*
G03X341398Y1416750I547J-1925*
G01Y1416404*
X341396Y1416402*
X337000*
G03X335302Y1415698I1J-2402*
G01X329385Y1409781*
X329235Y1409616*
X329162Y1409528*
G03X328622Y1408246I1848J-1533*
G01X328612Y1408151*
G03X328598Y1407900I2388J-259*
G01Y1407450*
X328517Y1407390*
X328059Y1407002*
X326179*
G03X324750Y1407602I-1429J-1402*
G01X321250*
G03X319325Y1406148I0J-2001*
G01X319284Y1406002*
X319054*
X319007Y1406031*
G03X318750Y1406102I-257J-430*
G01X315250*
G03X314748Y1405600I0J-502*
G01Y1402400*
G03X315250Y1401898I502J0*
G01X318750*
G03X319007Y1401969I0J501*
G01X319054Y1401998*
X319284*
X319325Y1401852*
G03X321250Y1400398I1925J547*
G01X323355*
X323969Y1399784*
G02X324086Y1399502I-283J-282*
X323687Y1399102I-400J0*
G01X321250*
G03X320993Y1399031I0J-501*
G01X320946Y1399002*
X320716*
X320675Y1399148*
G03X318750Y1400602I-1925J-547*
G01X315250*
G03X313248Y1398600I0J-2002*
G01Y1395400*
G03X313499Y1394431I2002J2*
X312486Y1392691I988J-1740*
G01Y1387967*
G03X314487Y1385966I2001J0*
G01X314488*
X316637*
X317389Y1385213*
G02X317506Y1384930I-283J-283*
X317107Y1384530I-400J0*
G01X314488*
G03X313986Y1384029I0J-502*
G01Y1379305*
G03X314487Y1378804I501*
G01X314488*
X318845*
X318891Y1378667*
G03X319583Y1377707I1897J638*
X319325Y1377148I1667J-1108*
G01X319284Y1377002*
X319054*
X319007Y1377031*
G03X318750Y1377102I-257J-430*
G01X315250*
G03X314748Y1376600I0J-502*
G01Y1373400*
G03X315250Y1372898I502J0*
G01X318750*
G03X319007Y1372969I0J501*
G01X319054Y1372998*
X319284*
X319325Y1372852*
G03X320026Y1371816I1925J547*
G02X320181Y1371500I-245J-316*
X320026Y1371184I-400J0*
G03X319325Y1370148I1224J-1584*
G01X319284Y1370002*
X319054*
X319007Y1370031*
G03X318750Y1370102I-257J-430*
G01X315250*
G03X314748Y1369600I0J-502*
G01Y1366400*
G03X315250Y1365898I502J0*
G01X316537*
G02X316935Y1365498I-2J-400*
X316819Y1365216I-400J0*
G01X316206Y1364602*
X315250*
X315167Y1364600*
G03X313000Y1365202I-2167J-3600*
X308802Y1361191I0J-4202*
G01X308794Y1361000*
X308000*
Y1385000*
X291934Y1401066*
G02X291817Y1401348I283J282*
X292217Y1401748I400J0*
G01X301662*
G03X302164Y1402250J502*
G01Y1405750*
G03X301662Y1406252I-502J0*
G01X290000*
G37*
G36*
X415000Y1476000D02*
G01X421000Y1482000D01*
X429742*
Y1468126*
G03X430244Y1467624I502J0*
G01X434968*
G03X435470Y1468126J502*
G01Y1482000*
X450530*
Y1468126*
G03X451032Y1467624I502J0*
G01X455756*
G03X456258Y1468126J502*
G01Y1482000*
X477000*
X481000Y1478000*
Y1465000*
X464500Y1448500*
Y1435002*
X460000*
G03X457998Y1433000I0J-2002*
G01Y1427000*
G03X460000Y1424998I2002*
G01X464500*
Y1413502*
X460000*
G03X459498Y1413000I0J-502*
G01Y1407000*
G03X460000Y1406498I502J0*
G01X464500*
Y1390500*
X461002Y1387002*
X460000*
G03X458007Y1385182I0J-2001*
G01X457990Y1385000*
X456943*
X456886Y1385055*
G03X454001Y1386202I-2885J-3055*
G01X454000*
G03X451058Y1385000J-4201*
G01X431402*
Y1446172*
G03X430698Y1447870I-2402J-1*
G01X425870Y1452698*
G03X424172Y1453402I-1699J-1698*
G01X420598*
X415000Y1459000*
Y1476000*
G37*
G36*
X331266Y1399447D02*
G02X331608Y1399842I400J0D01*
G03X335202Y1404000I-608J4158*
X333954Y1406989I-4203J0*
G02X333835Y1407273I281J284*
X333952Y1407556I400J1*
G01X337995Y1411598*
X342000*
X342233Y1411610*
X342251Y1411611*
G03X342598Y1411416I1150J1640*
G01Y1410000*
G03X342758Y1409139I2402J1*
G01X342772Y1409104*
Y1405917*
X342754Y1405879*
G03X342580Y1405063I1828J-816*
G01Y1400339*
G03X344582Y1398337I2002*
G01X349700*
G03X350094Y1398376I1J2002*
X350488Y1398337I393J1964*
G01X367418*
G03X369420Y1400339J2002*
G01Y1404598*
X377000*
G03X378698Y1405302I-1J2402*
G01X391916Y1418519*
G02X392598Y1418237I282J-283*
G01Y1405000*
G03X393302Y1403302I2402J1*
G01X393598Y1403005*
Y1398382*
G02X393000Y1398035I-400J1*
G03X392750Y1398102I-251J-435*
G01X389250*
G03X388993Y1398031I0J-501*
G01X388946Y1398002*
X388716*
X388675Y1398148*
G03X387765Y1399325I-1925J-548*
G02X387568Y1399670I203J345*
X387623Y1399872I400J-1*
G03X388202Y1402000I-3623J2129*
X384000Y1406202I-4202J0*
X379798Y1402000I0J-4202*
X380944Y1399116I4202J0*
G01X380998Y1399058*
Y1398183*
G03X380302Y1397698I1003J-2182*
G01X379832Y1397228*
X377916*
X377877Y1397246*
G03X377063Y1397419I-814J-1829*
G01X372339*
G03X370338Y1395418I0J-2001*
G01Y1394236*
Y1394235*
G03X370887Y1392858I2002J0*
X370338Y1391481I1452J-1377*
G01Y1391480*
Y1390300*
Y1390299*
G03X370377Y1389906I2003J0*
X370338Y1389513I1962J-393*
G01Y1389512*
Y1388330*
G03X370377Y1387937I2003J0*
X370338Y1387544I1962J-393*
G01Y1386362*
Y1386361*
G03X370377Y1385968I2003J0*
X370338Y1385575I1962J-393*
G01Y1385574*
Y1384394*
Y1384393*
G03X370377Y1384000I2003J0*
X370338Y1383607I1962J-393*
G01Y1383606*
Y1382426*
Y1382425*
G03X370377Y1382032I2003J0*
X370338Y1381639I1962J-393*
G01Y1381638*
Y1380456*
G03X370377Y1380063I2003J0*
X370338Y1379670I1962J-393*
G01Y1378488*
Y1378487*
G03X370377Y1378094I2003J0*
X370338Y1377701I1962J-393*
G01Y1377700*
Y1376520*
Y1376519*
G03X370377Y1376126I2003J0*
X370338Y1375733I1962J-393*
G01Y1375732*
Y1374552*
Y1374551*
G03X370377Y1374158I2003J0*
X370338Y1373765I1962J-393*
G01Y1373764*
Y1372582*
G03X372339Y1370581I2001J0*
G01X377063*
G03X377877Y1370754I0J2002*
G01X377916Y1370772*
X379833*
X381598Y1369006*
Y1346000*
G03X382302Y1344302I2402J1*
G01X394302Y1332302*
G03X396000Y1331598I1699J1698*
G01X401000*
Y1329000*
X393943Y1321943*
X372395Y1343484*
G03X372199Y1343660I-1700J-1696*
G01X372088Y1343749*
X371713Y1343996*
X371602Y1344055*
G03X371141Y1344241I-1124J-2122*
G01X371044Y1344269*
G03X370507Y1344360I-667J-2307*
G01X370505*
X370484Y1344362*
X370466Y1344363*
X370418Y1344366*
X370268Y1344370*
X367811*
X365292Y1346890*
Y1350955*
G02X365809Y1351338I400J0*
G01X365852Y1351325*
X365998Y1351284*
Y1351054*
X365969Y1351007*
G03X365898Y1350750I430J-257*
G01Y1347250*
G03X366400Y1346748I502J0*
G01X369600*
G03X370102Y1347250J502*
G01Y1350010*
G02X370365Y1350386I400J0*
X370806Y1350270I137J-376*
G03X374000Y1348798I3194J2729*
X378202Y1353000J4202*
X374040Y1357202I-4202J0*
X372000Y1358002I-2040J-2201*
G01X371162*
G03X370176Y1358667I-1562J-1253*
X369698Y1359348I-2175J-1018*
G01X369228Y1359818*
Y1362084*
X369246Y1362123*
G03X369419Y1362937I-1829J814*
G01Y1367661*
G03X367418Y1369662I-2001J0*
G01X366236*
G03X364859Y1369113I0J-2001*
X363480Y1369663I-1378J-1452*
G01X344582*
G03X342580Y1367661I0J-2002*
G01Y1362937*
X342622Y1362531*
G02X342626Y1362491I-196J-40*
X342499Y1362305I-200J0*
X342248Y1362400I-73J186*
G03X339636Y1364546I-3748J-1900*
G02X339344Y1364931I108J385*
X339395Y1365126I400J0*
G03X339700Y1366297I-2096J1171*
G01Y1366299*
Y1370573*
X339879Y1370593*
G03X341662Y1372582I-218J1989*
G01Y1373764*
Y1373765*
G03X341623Y1374158I-2002J0*
X341662Y1374551I-1963J393*
G01Y1374552*
Y1375732*
Y1375733*
G03X341623Y1376126I-2002J0*
X341662Y1376519I-1963J393*
G01Y1376520*
Y1377700*
Y1377701*
G03X341623Y1378094I-2002J0*
X341662Y1378487I-1963J393*
G01Y1378488*
Y1378834*
Y1378835*
G02X342229Y1379198I400J-1*
G03X343984Y1378814I1755J3818*
X348186Y1383016J4202*
X343984Y1387218I-4202J0*
X342229Y1386834I0J-4202*
G02X341662Y1387198I-167J364*
G01Y1387544*
G03X341623Y1387937I-2002J0*
X341662Y1388330I-1963J393*
G01Y1389512*
Y1389513*
G03X341623Y1389906I-2002J0*
X341662Y1390299I-1963J393*
G01Y1390300*
Y1391480*
Y1391481*
G03X341623Y1391874I-2002J0*
X341662Y1392267I-1963J393*
G01Y1392268*
Y1393448*
Y1393449*
G03X341623Y1393842I-2002J0*
X341662Y1394235I-1963J393*
G01Y1394236*
Y1395418*
G03X339661Y1397419I-2001J0*
G01X334937*
G03X334123Y1397246I0J-2002*
G01X334084Y1397228*
X333318*
X331383Y1399164*
G02X331266Y1399447I283J282*
G37*
%LPC*%
G36*
X318650Y1333198D02*
G01X325350D01*
G03X325852Y1333700J502*
G01Y1336900*
G03X325350Y1337402I-502J0*
G01X318650*
G03X318148Y1336900I0J-502*
G01Y1333700*
G03X318650Y1333198I502*
G37*
G36*
X281732Y1365986D02*
G01X286456D01*
G03X286958Y1366488J502*
G01Y1377512*
G03X286456Y1378014I-502J0*
G01X281732*
G03X281230Y1377512I0J-502*
G01Y1366488*
G03X281732Y1365986I502*
G37*
G36*
X279579Y1324160D02*
G01X288043D01*
G03X288544Y1324661J501*
G01Y1331339*
G03X288043Y1331840I-501J0*
G01X279579*
G03X279078Y1331339I0J-501*
G01Y1324661*
G03X279579Y1324160I501*
G37*
G36*
X293544Y1365986D02*
G01X298268D01*
G03X298770Y1366488J502*
G01Y1377512*
G03X298268Y1378014I-502J0*
G01X293544*
G03X293042Y1377512I0J-502*
G01Y1366488*
G03X293544Y1365986I502*
G37*
G36*
X284000Y1256398D02*
G01X292000D01*
G03X296002Y1260400I0J4002*
X292000Y1264402I-4002J0*
G01X284000*
G03X279998Y1260400I0J-4002*
X284000Y1256398I4002J0*
G37*
G36*
X334284Y1444672D02*
G01X344126D01*
G03X344628Y1445174J502*
G01Y1448716*
G03X344126Y1449218I-502J0*
G01X334284*
G03X333782Y1448717I-1J-501*
G01Y1448716*
Y1445174*
G03X334284Y1444672I502J0*
G37*
%LPD*%
G54D26*
X256000Y1260000D03*
X258000Y1474000D03*
X524000Y1259000D03*
Y1473000D03*
G54D66*
X283811Y1328000D03*
X300189D03*
X291189Y1437000D03*
X274811D03*
G54D25*
X260000Y1291000D03*
Y1285000D03*
Y1409000D03*
Y1403000D03*
X274000Y1349000D03*
Y1343000D03*
X345000Y1415000D03*
Y1421000D03*
X358000Y1415000D03*
Y1421000D03*
X352000Y1415000D03*
Y1421000D03*
X349000Y1449000D03*
Y1455000D03*
Y1472000D03*
Y1466000D03*
X368000Y1349000D03*
Y1355000D03*
X376000Y1415000D03*
Y1421000D03*
X370000Y1415000D03*
Y1421000D03*
X364000Y1415000D03*
Y1421000D03*
X410000Y1321000D03*
Y1327000D03*
Y1347000D03*
Y1341000D03*
Y1375000D03*
Y1369000D03*
Y1397000D03*
Y1391000D03*
Y1423000D03*
Y1417000D03*
Y1437000D03*
Y1443000D03*
G54D24*
X341842Y1268000D03*
X381842D03*
X421842D03*
X461842D03*
X501842D03*
X514000Y1314000D03*
Y1333685D03*
Y1374000D03*
Y1393685D03*
Y1434000D03*
Y1453685D03*
G54D57*
X301252Y1350000D03*
X282748D03*
G54D54*
X272338Y1304000D03*
Y1404000D03*
X295662Y1304000D03*
Y1404000D03*
G54D60*
X348000Y1305800D03*
X343000D03*
X358000D03*
X353000D03*
X343000Y1326200D03*
X348000D03*
X353000D03*
X358000D03*
X373000Y1305800D03*
X368000D03*
X363000D03*
Y1326200D03*
X368000D03*
X373000D03*
G54D59*
X260000Y1305500D03*
Y1298500D03*
Y1421500D03*
Y1414500D03*
X360000Y1430500D03*
Y1437500D03*
X352000Y1430500D03*
Y1437500D03*
X383000Y1305500D03*
Y1312500D03*
X376000Y1430500D03*
Y1437500D03*
X368000Y1430500D03*
Y1437500D03*
G54D55*
X295906Y1372000D03*
X284094D03*
G54D62*
X360921Y1365299D03*
X358953D03*
X356984D03*
X355016D03*
X353047D03*
X351079D03*
X349110D03*
X347142D03*
X345173D03*
Y1402701D03*
X347142D03*
X349110D03*
X351079D03*
X353047D03*
X355016D03*
X356984D03*
X358953D03*
X360921D03*
X366827Y1365299D03*
X364858D03*
X362890D03*
Y1402701D03*
X364858D03*
X366827D03*
G54D20*
X291795Y1464000D03*
G54D71*
X260000Y1317000D03*
X271000Y1357000D03*
X257500Y1442500D03*
X260000Y1429000D03*
X296700Y1311000D03*
X274000Y1370000D03*
Y1377000D03*
Y1383000D03*
X282000D03*
X274000Y1363000D03*
X277000Y1423000D03*
X304000Y1311000D03*
Y1320000D03*
X309000Y1304000D03*
X307000Y1295000D03*
X318000Y1342000D03*
X326000Y1349000D03*
X327000Y1324000D03*
X313000Y1361000D03*
X306000Y1404000D03*
X305000Y1396000D03*
X331000Y1404000D03*
X306000Y1415000D03*
X316000D03*
X344000Y1314000D03*
X357000Y1316000D03*
X345000Y1334000D03*
X338500Y1346000D03*
X362000Y1336000D03*
X356000Y1383000D03*
X343984Y1383016D03*
X338500Y1360500D03*
X356000Y1391000D03*
X348000D03*
X343000Y1437500D03*
X354000Y1472000D03*
X383000Y1315000D03*
X392500Y1305500D03*
X372000Y1314000D03*
X374000Y1353000D03*
X365000Y1383000D03*
X364000Y1374000D03*
X365000Y1391000D03*
X384000Y1402000D03*
X388000Y1385000D03*
X405000Y1321000D03*
X416000Y1294000D03*
X417000Y1343000D03*
X399000Y1338000D03*
X404000Y1369000D03*
X394000Y1385000D03*
X423000Y1422000D03*
X403000Y1442000D03*
X424000Y1290000D03*
X432000Y1286000D03*
X449000Y1341000D03*
X444000Y1402000D03*
Y1394000D03*
Y1412000D03*
Y1420000D03*
X425000Y1465000D03*
Y1471000D03*
X457000Y1321000D03*
X468000Y1304000D03*
X460000Y1306000D03*
X476000Y1302000D03*
X462000Y1350000D03*
X454000Y1382000D03*
X471685Y1372315D03*
X457000Y1357000D03*
X454000Y1409000D03*
Y1402000D03*
Y1394000D03*
Y1420000D03*
X473000Y1471000D03*
Y1464000D03*
X502000Y1314000D03*
Y1374000D03*
G54D63*
X337299Y1373173D03*
Y1375142D03*
Y1377110D03*
Y1379079D03*
Y1381047D03*
Y1383016D03*
Y1384984D03*
Y1386953D03*
Y1388921D03*
Y1390890D03*
Y1392858D03*
Y1394827D03*
X374701Y1379079D03*
Y1377110D03*
Y1375142D03*
Y1373173D03*
Y1394827D03*
Y1392858D03*
Y1390890D03*
Y1388921D03*
Y1386953D03*
Y1384984D03*
Y1383016D03*
Y1381047D03*
G54D27*
X259000Y1326000D03*
X265000D03*
Y1332000D03*
X259000D03*
Y1356000D03*
X265000D03*
X259000Y1362000D03*
X265000D03*
X295000Y1382000D03*
X289000D03*
X317000Y1302000D03*
X323000D03*
X317000Y1314000D03*
X323000D03*
X317000Y1308000D03*
X323000D03*
Y1375000D03*
X317000D03*
X323000Y1368000D03*
X317000D03*
X323000Y1355000D03*
X317000D03*
Y1361000D03*
X323000D03*
X317000Y1397000D03*
X323000D03*
Y1404000D03*
X317000D03*
X325000Y1476000D03*
X331000D03*
X385000Y1396000D03*
X391000D03*
G54D18*
X306500Y1272200D03*
G54D65*
X339205Y1465055D03*
Y1456000D03*
Y1446945D03*
G54D73*
X322158Y1268000D03*
X362158D03*
X402158D03*
X442158D03*
X482158D03*
X514000Y1294315D03*
Y1354315D03*
Y1414315D03*
G54D58*
X265740Y1349315D03*
X262000D03*
X258260D03*
Y1338685D03*
X265740D03*
X262000D03*
G54D61*
X322000Y1348700D03*
Y1335300D03*
G54D21*
X276205Y1464000D03*
G54D22*
X365000Y1471000D03*
X488000Y1459000D03*
G54D56*
X316850Y1381667D03*
X323150D03*
X316850Y1390329D03*
X323150D03*
G54D23*
X375000Y1471000D03*
X385000D03*
X395000D03*
X405000D03*
X488000Y1350000D03*
Y1360000D03*
Y1409000D03*
Y1399000D03*
Y1389000D03*
Y1429000D03*
Y1439000D03*
Y1419000D03*
Y1449000D03*
G54D19*
X288000Y1260400D03*
G54D64*
X314008Y1456000D03*
G54D70*
X288000Y1284000D03*
G54D93*
X412500Y1314000D03*
Y1334000D03*
Y1382000D03*
Y1362000D03*
Y1410000D03*
Y1430000D03*
X467500Y1314000D03*
Y1334000D03*
Y1382000D03*
Y1362000D03*
Y1410000D03*
Y1430000D03*
G54D28*
X309500Y1476000D03*
X316500D03*
G54D29*
X432606D03*
X453394D03*
G54D22*
X488000Y1370000D03*
G54D14*
X265000Y1353797D02*
G01X262000Y1350797D01*
Y1349315*
X265000Y1356000D02*
G01Y1353797D01*
X501968Y1301184D02*
G01X502000Y1301216D01*
Y1314000*
Y1374000D02*
G01X499000D01*
X498000Y1373000*
Y1318000*
X410000Y1341000D02*
G01Y1336500D01*
X412500Y1334000*
X410000Y1327000D02*
G01Y1331500D01*
X412500Y1334000*
X410000Y1375000D02*
G01Y1379500D01*
X412500Y1382000*
Y1382000D02*
G01X412000D01*
X410000Y1391000D02*
G01Y1384000D01*
X412000Y1382000*
X410000Y1437000D02*
G01Y1432500D01*
X412500Y1430000*
G54D36*
X514000Y1294315D02*
G01Y1268000D01*
X502000Y1256000*
X309863*
X309837Y1255988*
X309769Y1255940*
X306829Y1253000*
X306827*
X305835Y1252008*
X275171*
X270006Y1257173*
Y1261939*
X270004Y1262014*
X270002Y1262075*
Y1263851*
X269987Y1263993*
X269902Y1264098*
X252250Y1281750*
X252160Y1282415*
Y1437160*
X257500Y1442500*
X274811Y1437000D02*
G01X261000D01*
X255160Y1431160*
Y1335841*
X255250Y1335751*
Y1286650*
X256900Y1285000*
X260000*
X272338Y1294238D02*
G01X263100Y1285000D01*
X260000*
Y1291000D02*
G01Y1298500D01*
X258260Y1338685D02*
G01Y1335175D01*
X259000Y1334435*
Y1332000*
X265740Y1349315D02*
G01X270585D01*
X270900Y1349000*
X274000*
X258260Y1349315D02*
G01Y1351504D01*
X259000Y1352244*
Y1356000*
X265000Y1326000D02*
G01Y1332000D01*
Y1333779D02*
G01Y1332000D01*
X259000Y1362000D02*
G01Y1356000D01*
X272338Y1404000D02*
G01X264100D01*
X263100Y1403000*
X260000*
Y1409000D02*
G01Y1414500D01*
X278964Y1287536D02*
G01Y1287612D01*
X278610Y1287966*
X309500Y1476000D02*
G01X301795D01*
X291795Y1466000*
Y1464000*
X317000Y1361000D02*
G01X313000D01*
X323000Y1404000D02*
G01X323150D01*
Y1404000D02*
G01X331000D01*
Y1476000D02*
G01X334250D01*
X335250Y1477000*
X359000*
X365000Y1471000*
X383000Y1312500D02*
G01Y1315000D01*
Y1305500D02*
G01X375850D01*
X375550Y1305800*
X373000*
X383000Y1305500D02*
G01X392500D01*
X374000Y1353000D02*
G01X372000Y1355000D01*
X368000*
X384000Y1402000D02*
G01Y1397000D01*
X385000Y1396000*
X410000Y1321000D02*
G01X405000D01*
X404000Y1369000D02*
G01X410000D01*
X449000Y1341000D02*
G01X457000D01*
Y1341000D02*
G01X479000D01*
X488000Y1350000*
X514000Y1294315D02*
G01X520500D01*
X522000Y1295815*
Y1346315*
X514000Y1354315*
G54D37*
X265000Y1326000D02*
G01Y1315000D01*
X272338Y1307662*
Y1304000*
X278610Y1287966D02*
G01X272338Y1294238D01*
X278964Y1287536D02*
G01X278610Y1287890D01*
Y1287966*
X288000Y1284000D02*
G01X282500D01*
X278964Y1287536*
X272338Y1294238D02*
G01Y1304000D01*
X276205Y1464000D02*
G01Y1462000D01*
X291189Y1447016*
Y1437000*
X339205Y1456000D02*
G01X314008D01*
X325000Y1476000D02*
G01X316500D01*
X360000Y1437500D02*
G01X368000D01*
X352000D02*
G01X360000D01*
X352000D02*
G01X343000D01*
X355329Y1455000D02*
G01Y1440829D01*
X352000Y1437500*
X349000Y1449000D02*
G01X346878Y1446878D01*
Y1446878D02*
G01X339272D01*
X339205Y1446945*
X349000Y1455000D02*
G01X355329D01*
X365000Y1471000D02*
G01Y1461165D01*
X358835Y1455000*
X355329*
X339205Y1456000D02*
G01X348000D01*
X349000Y1455000*
X368000Y1437500D02*
G01X376000D01*
G54D38*
X262000Y1338685D02*
G01Y1336850D01*
X265000Y1333850*
Y1333779*
X330000Y1475000D02*
G01X331000Y1476000D01*
X410000Y1417000D02*
G01X412250Y1414750D01*
X415750*
X423000Y1422000*
X410000Y1423000D02*
G01Y1427500D01*
X412500Y1430000*
X403000Y1442000D02*
G01X409000D01*
X410000Y1443000*
X457000Y1321000D02*
G01X459116Y1318884D01*
Y1317884*
X463000Y1314000*
X467500*
G54D39*
X265740Y1338685D02*
G01Y1341387D01*
Y1338685D02*
G01X267542D01*
X282748Y1338077D02*
G01Y1350000D01*
Y1350000D02*
G01X286600D01*
X283811Y1323959D02*
G01Y1328000D01*
Y1328000D02*
G01Y1332041D01*
X278877Y1328000D02*
G01X283811D01*
Y1328000D02*
G01X288745D01*
X274000Y1340548D02*
G01Y1343000D01*
X271698D02*
G01X274000D01*
Y1343000D02*
G01X276302D01*
X295662Y1401548D02*
G01Y1404000D01*
Y1404000D02*
G01Y1406452D01*
Y1404000D02*
G01X302364D01*
X322000Y1332998D02*
G01Y1335300D01*
Y1335300D02*
G01Y1337602D01*
X317948Y1335300D02*
G01X322000D01*
Y1335300D02*
G01X326052D01*
X317000Y1372698D02*
G01Y1375000D01*
X314548D02*
G01X317000D01*
X323000Y1394698D02*
G01Y1397000D01*
X316850Y1381667D02*
G01Y1384731D01*
X313786Y1381667D02*
G01X316850D01*
X323000Y1397000D02*
G01Y1399302D01*
Y1397000D02*
G01X325452D01*
X317000Y1401698D02*
G01Y1404000D01*
Y1404000D02*
G01Y1406302D01*
X314548Y1404000D02*
G01X317000D01*
X323150Y1390329D02*
G01Y1393393D01*
Y1390329D02*
G01X326214D01*
X343000Y1322148D02*
G01Y1326200D01*
Y1326200D02*
G01Y1330252D01*
X341248Y1326200D02*
G01X343000D01*
X345000Y1421000D02*
G01Y1423452D01*
X342698Y1421000D02*
G01X345000D01*
X349000Y1446548D02*
G01Y1449000D01*
X346698D02*
G01X349000D01*
X339205Y1444471D02*
G01Y1446945D01*
Y1446945D02*
G01Y1449419D01*
X333581Y1446945D02*
G01X339205D01*
Y1446945D02*
G01X344829D01*
X368000Y1346548D02*
G01Y1349000D01*
Y1349000D02*
G01X370302D01*
X432606Y1467424D02*
G01Y1476000D01*
X450330D02*
G01X453394D01*
X429542D02*
G01X432606D01*
Y1476000D02*
G01X435670D01*
X453394Y1467424D02*
G01Y1476000D01*
Y1476000D02*
G01X456458D01*
G54D15*
X245000Y1485000D02*
G01Y1248000D01*
X534000*
Y1485000*
X245000*
X456780Y1468126D02*
G01X429220D01*
Y1483874*
X456780*
Y1468126*
G54D12*
X259000Y1326000D02*
G01Y1322100D01*
X260000Y1321100*
Y1317000*
Y1317000D02*
G01Y1305500D01*
X265000Y1362000D02*
G01Y1366000D01*
X271000Y1357000D02*
G01X270000Y1356000D01*
Y1356000D02*
G01X265000D01*
X260000Y1421500D02*
G01Y1429000D01*
X288000Y1256198D02*
G01Y1260400D01*
Y1260400D02*
G01Y1264602D01*
X279798Y1260400D02*
G01X288000D01*
Y1260400D02*
G01X296202D01*
X305000Y1304000D02*
G01X295662D01*
X300189Y1320189D02*
G01Y1320811D01*
X300000Y1320000D02*
G01X300189Y1320189D01*
Y1320189D02*
G01Y1316189D01*
X300000Y1316000*
X295662Y1301548D02*
G01Y1304000D01*
Y1304000D02*
G01Y1306452D01*
X297400Y1350000D02*
G01X301252D01*
X300189Y1320811D02*
G01Y1328000D01*
X301000Y1320000D02*
G01X300189Y1320811D01*
Y1328000D02*
G01Y1332041D01*
X295255Y1328000D02*
G01X300189D01*
Y1328000D02*
G01X305123D01*
X295000Y1379698D02*
G01Y1382000D01*
X295906Y1365786D02*
G01Y1372000D01*
Y1372000D02*
G01Y1378214D01*
X292842Y1372000D02*
G01X295906D01*
Y1372000D02*
G01X298970D01*
X284094Y1365786D02*
G01Y1372000D01*
Y1372000D02*
G01Y1378214D01*
X281030Y1372000D02*
G01X284094D01*
Y1372000D02*
G01X287158D01*
X289000Y1379698D02*
G01Y1382000D01*
X295000D02*
G01Y1384302D01*
Y1382000D02*
G01X297452D01*
X272338Y1401548D02*
G01Y1404000D01*
Y1404000D02*
G01Y1406452D01*
X289000Y1382000D02*
G01Y1384302D01*
X286548Y1382000D02*
G01X289000D01*
X306500Y1263998D02*
G01Y1272200D01*
Y1272200D02*
G01Y1280402D01*
X302298Y1272200D02*
G01X306500D01*
X317000Y1308000D02*
G01Y1302000D01*
Y1314000D02*
G01Y1308000D01*
X313000Y1361000D02*
G01X310807Y1358807D01*
Y1317571*
X311398Y1316980*
X311399Y1316951*
X314350Y1314000*
X317000*
X323000Y1302000D02*
G01X322000Y1301000D01*
Y1299000*
X321000Y1298000*
X312000*
X311411Y1298589*
X311400Y1298805*
Y1301600*
X309000Y1304000*
X323000Y1314000D02*
G01Y1320000D01*
X327000Y1324000*
X323000Y1308000D02*
G01X323150D01*
X328000Y1303150*
Y1300000*
X323000Y1295000*
X307000*
X301252Y1338077D02*
G01Y1350000D01*
Y1350000D02*
G01Y1361923D01*
X322000Y1337602D02*
G01Y1338000D01*
X318000Y1342000*
X317000Y1355000D02*
G01Y1346100D01*
X318000Y1345100*
Y1345100D02*
G01Y1342000D01*
X322000Y1348700D02*
G01X326250D01*
X326000Y1349000D02*
G01X322300D01*
X322000Y1348700*
Y1348700D02*
G01Y1351200D01*
X323000Y1352200*
Y1355000*
X317000Y1368000D02*
G01Y1368566D01*
Y1372698D02*
G01Y1368566D01*
Y1368566D02*
G01X320434Y1372000D01*
X326000*
X328000Y1374000*
Y1378000*
X331000Y1381000*
X337252*
X337299Y1381047*
X305000Y1396000D02*
G01X312000Y1389000D01*
Y1369000*
X313000Y1368000*
X316850Y1381667D02*
G01Y1377650D01*
X313000Y1368000D02*
G01X317000D01*
X316850Y1377650D02*
G01X317000Y1377500D01*
Y1377500D02*
G01Y1375000D01*
X323000Y1355000D02*
G01Y1361000D01*
Y1368000D02*
G01Y1365500D01*
X321500Y1364000*
X319000*
X317000Y1362000*
Y1361000*
X337299Y1379079D02*
G01X332079D01*
X331000Y1378000*
Y1372000*
X327000Y1368000*
X323000*
Y1375000D02*
G01Y1378255D01*
X323150Y1378405*
Y1381667*
X313786D02*
G01X309333D01*
X309000Y1382000*
X323150Y1404000D02*
G01X332323Y1394827D01*
X337299*
X316850Y1390329D02*
G01Y1389149D01*
X319432Y1386567*
X326092*
X326478Y1386953*
X337299*
X316850Y1393591D02*
G01Y1390329D01*
X317000Y1394500D02*
G01Y1397000D01*
Y1394500D02*
G01X316850Y1394350D01*
Y1393591*
Y1393591D02*
G01X317000Y1393741D01*
Y1394500*
X323150Y1381667D02*
G01X327121D01*
X330270Y1384816*
X337131*
X337299Y1384984*
Y1375142D02*
G01X333800D01*
X333000Y1374342*
Y1365000*
X331000Y1363000*
Y1293000*
X333969Y1290031*
X407969*
X412000Y1286000*
X432000*
X347142Y1365299D02*
G01Y1343926D01*
X336400Y1333184*
Y1299600*
X339968Y1296032*
X412940*
X414508Y1297600*
X417492*
X419060Y1296032*
X496816*
X501968Y1301184*
X498000Y1318000D02*
G01Y1300000D01*
X496000Y1298000*
X419638*
X418238Y1299400*
X413762*
X412362Y1298000*
X342000*
X338200Y1301800*
Y1332200*
X341400Y1335400*
Y1335492*
X343508Y1337600*
X343600*
X349110Y1343110*
Y1365299*
X424000Y1290000D02*
G01X412000D01*
X409807Y1292193*
X335807*
X332800Y1295200*
Y1361800*
X337299Y1366299*
Y1373173*
X416000Y1294000D02*
G01X346000D01*
X345768Y1294232*
X337768*
X334600Y1297400*
Y1335600*
X345173Y1346173*
Y1365299*
X344000Y1314000D02*
G01X351000D01*
X353000Y1312000*
X362200*
X363000Y1312800*
Y1326200*
X357000Y1316000D02*
G01X353000Y1320000D01*
Y1326200*
X343000Y1330252D02*
G01Y1330450D01*
X345550Y1333000*
X346000*
X345000Y1334000*
X338500Y1360500D02*
G01Y1346000D01*
X362000Y1336000D02*
G01X358900D01*
X356984Y1337916*
Y1365299*
X351079D02*
G01Y1331579D01*
X348000Y1328500*
Y1326200*
X476000Y1302000D02*
G01X473807Y1299807D01*
X436193*
X433800Y1302200*
X405711*
X405511Y1302400*
X405010*
X391471Y1315939*
X391455*
X369357Y1338032*
X365184*
X358953Y1344263*
Y1365299*
X368000Y1326200D02*
G01Y1328500D01*
X365550Y1330950*
X360050*
X355016Y1335984*
Y1365299*
X353047D02*
G01Y1335403D01*
X358000Y1330450*
Y1326200*
X348000Y1391000D02*
G01Y1394384D01*
X347142Y1395242*
X348000Y1410000D02*
G01X347142Y1409142D01*
Y1402701*
Y1395242D02*
G01Y1402701D01*
X348000Y1418566D02*
G01Y1410000D01*
X337299Y1383016D02*
G01X343984D01*
X345000Y1415000D02*
G01Y1410000D01*
X345173Y1409827*
Y1402701*
X345000Y1415000D02*
G01X343391D01*
X342417Y1414026*
X342002Y1414002*
X342000Y1414000*
X337000*
X331083Y1408083*
X331010Y1407995*
X331000Y1407900*
Y1404000*
X370000Y1415000D02*
G01Y1411600D01*
X369200Y1410800*
X362800*
X358953Y1406953*
Y1402701*
X352000Y1415000D02*
G01Y1407010D01*
X353047Y1405963*
Y1402701*
X356984D02*
G01Y1407834D01*
X364000Y1414850*
Y1415000*
X358000D02*
G01Y1411999D01*
X355016Y1409015*
Y1402701*
X352000Y1421000D02*
G01X345566D01*
Y1421000D02*
G01X345000D01*
X345566D02*
G01X348000Y1418566D01*
X360363Y1441013D02*
G01X360000Y1440650D01*
Y1437500*
X364000Y1421000D02*
G01Y1426750D01*
X360250Y1430500*
X360000*
X358000Y1421000D02*
G01Y1424750D01*
X352250Y1430500*
X352000*
X339205Y1465055D02*
G01Y1467529D01*
X333581Y1465055D02*
G01X339205D01*
Y1465055D02*
G01X344829D01*
X349000Y1463548D02*
G01Y1466000D01*
X346698D02*
G01X349000D01*
Y1466000D02*
G01X351302D01*
X349000Y1472000D02*
G01X354000D01*
X468000Y1304000D02*
G01X465807Y1301807D01*
X450193*
X448000Y1304000*
X406695*
X406495Y1304200*
X405756*
X392217Y1317739*
X392201*
X369935Y1340000*
X366000*
X360921Y1345079*
Y1365299*
X372000Y1314000D02*
G01Y1318000D01*
X373000Y1319000*
Y1326200*
X412500Y1334000D02*
G01X396000D01*
X384000Y1346000*
Y1370001*
X380828Y1373173*
X374701*
X364858Y1365299D02*
G01Y1349642D01*
X365500Y1349000*
Y1349000D02*
G01X368000D01*
X460000Y1306000D02*
G01X406502D01*
X392961Y1319541*
X392949*
X370697Y1341786*
X370586Y1341875*
X370475Y1341934*
X370378Y1341962*
X370373*
X370316Y1341966*
X370268Y1341969*
X366816*
X362890Y1345895*
Y1365299*
X364858D02*
G01Y1373142D01*
Y1373142D02*
G01X364000Y1374000D01*
X366827Y1365299D02*
G01Y1358823D01*
X368000Y1357650*
Y1355000*
X412000Y1382000D02*
G01X404000D01*
X397142Y1375142*
X374701*
X412500Y1430000D02*
G01X404000D01*
X400400Y1426400*
Y1382400*
X395110Y1377110*
X374701*
Y1392858D02*
G01X374869Y1392690D01*
X389528*
X391000Y1394162*
Y1396000*
X365000Y1391000D02*
G01X368100D01*
X369958Y1392858*
Y1392858D02*
G01X374701D01*
X395000Y1471000D02*
G01Y1405000D01*
X396000Y1404000*
Y1394000*
X392890Y1390890*
X374701*
X376000Y1415000D02*
G01Y1412350D01*
X372650Y1409000*
X363546*
X360921Y1406375*
Y1402701*
X374701Y1394827D02*
G01X380827D01*
X382000Y1396000*
X385000*
X366827Y1402701D02*
G01Y1406200D01*
X367627Y1407000*
X377000*
X391000Y1421000*
Y1450100*
X375000Y1466100*
Y1471000*
X374701Y1381047D02*
G01X395047D01*
X395400Y1381400*
X395492*
X398600Y1384508*
Y1443600*
X406000Y1451000*
X424172*
X429000Y1446172*
Y1379000*
X435685Y1372315*
X457801*
X388000Y1385000D02*
G01X382546D01*
X380546Y1383000*
X374717*
X374701Y1383016*
X394000Y1385000D02*
G01Y1388100D01*
X393100Y1389000*
X384000*
X380000Y1385000*
X374717*
X374701Y1384984*
X370000Y1421000D02*
G01Y1425350D01*
X368000Y1427350*
Y1430500*
X376000Y1421000D02*
G01Y1430500D01*
X410000Y1347000D02*
G01X413000D01*
X417000Y1343000*
X399000Y1338000D02*
G01Y1342000D01*
X409000Y1352000*
X440000*
X445600Y1346400*
X463492*
X465292Y1348200*
X466180*
X480000Y1362020*
Y1371980*
X486020Y1378000*
X491000*
X495000Y1382000*
Y1412000*
X502000Y1419000*
Y1422000*
X514000Y1434000*
X409000Y1396000D02*
G01X410000Y1397000D01*
Y1443000D02*
G01X423000D01*
X426200Y1439800*
Y1423892*
X426600Y1423492*
Y1420508*
X426200Y1420108*
Y1403200*
X420000Y1397000*
X410000*
X468000Y1304000D02*
G01X470193Y1306193D01*
X490193*
X496000Y1312000*
Y1366000*
X492000Y1370000*
X488000*
X460000Y1306000D02*
G01X462193Y1308193D01*
X489647*
X494000Y1312546*
Y1358900*
X492900Y1360000*
X488000*
X462000Y1350000D02*
G01X467500Y1355500D01*
Y1362000*
X457000Y1321000D02*
G01Y1341000D01*
X488000Y1419000D02*
G01X483000D01*
X481000Y1417000*
Y1381630*
X471685Y1372315*
X457801D02*
G01X457000Y1371514D01*
Y1357000*
X471685Y1372315D02*
G01X457801D01*
X467500Y1382000D02*
G01X454000D01*
Y1409000D02*
G01X457100D01*
X458100Y1410000*
Y1410000D02*
G01X467500D01*
M02*
