G04 CAM350/DFMSTREAM V12.1 (Build 1022) Date:  Tue Jun 16 21:50:11 2020 *
G04 Database: (Untitled) *
G04 Layer 5: FAB.art *
%FSLAX25Y25*%
%MOIN*%
%SFA1.000B1.000*%

%MIA0B0*%
%IPPOS*%
%AMMACRO13*
1,1,0.0050000,-0.0400000,0.0200000*
20,1,0.0050000,-0.0400000,0.0200000,0.0400000,0.0200000,0.0000000*
1,1,0.0050000,0.0400000,0.0200000*
20,1,0.0050000,0.0400000,0.0200000,0.0434730,0.0196960,0.0000000*
1,1,0.0050000,0.0434730,0.0196960*
20,1,0.0050000,0.0434730,0.0196960,0.0468400,0.0187940,0.0000000*
1,1,0.0050000,0.0468400,0.0187940*
20,1,0.0050000,0.0468400,0.0187940,0.0500000,0.0173210,0.0000000*
1,1,0.0050000,0.0500000,0.0173210*
20,1,0.0050000,0.0500000,0.0173210,0.0528560,0.0153210,0.0000000*
1,1,0.0050000,0.0528560,0.0153210*
20,1,0.0050000,0.0528560,0.0153210,0.0553210,0.0128560,0.0000000*
1,1,0.0050000,0.0553210,0.0128560*
20,1,0.0050000,0.0553210,0.0128560,0.0573210,0.0100000,0.0000000*
1,1,0.0050000,0.0573210,0.0100000*
20,1,0.0050000,0.0573210,0.0100000,0.0587940,0.0068400,0.0000000*
1,1,0.0050000,0.0587940,0.0068400*
20,1,0.0050000,0.0587940,0.0068400,0.0596960,0.0034730,0.0000000*
1,1,0.0050000,0.0596960,0.0034730*
20,1,0.0050000,0.0596960,0.0034730,0.0600000,0.0000000,0.0000000*
1,1,0.0050000,0.0600000,0.0000000*
20,1,0.0050000,0.0600000,0.0000000,0.0596960,-0.0034730,0.0000000*
1,1,0.0050000,0.0596960,-0.0034730*
20,1,0.0050000,0.0596960,-0.0034730,0.0587940,-0.0068400,0.0000000*
1,1,0.0050000,0.0587940,-0.0068400*
20,1,0.0050000,0.0587940,-0.0068400,0.0573210,-0.0100000,0.0000000*
1,1,0.0050000,0.0573210,-0.0100000*
20,1,0.0050000,0.0573210,-0.0100000,0.0553210,-0.0128560,0.0000000*
1,1,0.0050000,0.0553210,-0.0128560*
20,1,0.0050000,0.0553210,-0.0128560,0.0528560,-0.0153210,0.0000000*
1,1,0.0050000,0.0528560,-0.0153210*
20,1,0.0050000,0.0528560,-0.0153210,0.0500000,-0.0173210,0.0000000*
1,1,0.0050000,0.0500000,-0.0173210*
20,1,0.0050000,0.0500000,-0.0173210,0.0468400,-0.0187940,0.0000000*
1,1,0.0050000,0.0468400,-0.0187940*
20,1,0.0050000,0.0468400,-0.0187940,0.0434730,-0.0196960,0.0000000*
1,1,0.0050000,0.0434730,-0.0196960*
20,1,0.0050000,0.0434730,-0.0196960,0.0400000,-0.0200000,0.0000000*
1,1,0.0050000,0.0400000,-0.0200000*
20,1,0.0050000,0.0400000,-0.0200000,-0.0400000,-0.0200000,0.0000000*
1,1,0.0050000,-0.0400000,-0.0200000*
20,1,0.0050000,-0.0400000,-0.0200000,-0.0434730,-0.0196960,0.0000000*
1,1,0.0050000,-0.0434730,-0.0196960*
20,1,0.0050000,-0.0434730,-0.0196960,-0.0468400,-0.0187940,0.0000000*
1,1,0.0050000,-0.0468400,-0.0187940*
20,1,0.0050000,-0.0468400,-0.0187940,-0.0500000,-0.0173210,0.0000000*
1,1,0.0050000,-0.0500000,-0.0173210*
20,1,0.0050000,-0.0500000,-0.0173210,-0.0528560,-0.0153210,0.0000000*
1,1,0.0050000,-0.0528560,-0.0153210*
20,1,0.0050000,-0.0528560,-0.0153210,-0.0553210,-0.0128560,0.0000000*
1,1,0.0050000,-0.0553210,-0.0128560*
20,1,0.0050000,-0.0553210,-0.0128560,-0.0573210,-0.0100000,0.0000000*
1,1,0.0050000,-0.0573210,-0.0100000*
20,1,0.0050000,-0.0573210,-0.0100000,-0.0587940,-0.0068400,0.0000000*
1,1,0.0050000,-0.0587940,-0.0068400*
20,1,0.0050000,-0.0587940,-0.0068400,-0.0596960,-0.0034730,0.0000000*
1,1,0.0050000,-0.0596960,-0.0034730*
20,1,0.0050000,-0.0596960,-0.0034730,-0.0600000,0.0000000,0.0000000*
1,1,0.0050000,-0.0600000,0.0000000*
20,1,0.0050000,-0.0600000,0.0000000,-0.0596960,0.0034730,0.0000000*
1,1,0.0050000,-0.0596960,0.0034730*
20,1,0.0050000,-0.0596960,0.0034730,-0.0587940,0.0068400,0.0000000*
1,1,0.0050000,-0.0587940,0.0068400*
20,1,0.0050000,-0.0587940,0.0068400,-0.0573210,0.0100000,0.0000000*
1,1,0.0050000,-0.0573210,0.0100000*
20,1,0.0050000,-0.0573210,0.0100000,-0.0553210,0.0128560,0.0000000*
1,1,0.0050000,-0.0553210,0.0128560*
20,1,0.0050000,-0.0553210,0.0128560,-0.0528560,0.0153210,0.0000000*
1,1,0.0050000,-0.0528560,0.0153210*
20,1,0.0050000,-0.0528560,0.0153210,-0.0500000,0.0173210,0.0000000*
1,1,0.0050000,-0.0500000,0.0173210*
20,1,0.0050000,-0.0500000,0.0173210,-0.0468400,0.0187940,0.0000000*
1,1,0.0050000,-0.0468400,0.0187940*
20,1,0.0050000,-0.0468400,0.0187940,-0.0434730,0.0196960,0.0000000*
1,1,0.0050000,-0.0434730,0.0196960*
20,1,0.0050000,-0.0434730,0.0196960,-0.0400000,0.0200000,0.0000000*
1,1,0.0050000,-0.0400000,0.0200000*
1,1,0.0050000,-0.0066700,-0.0060000*
20,1,0.0050000,-0.0066700,-0.0060000,-0.0050000,-0.0080000,0.0000000*
1,1,0.0050000,-0.0050000,-0.0080000*
20,1,0.0050000,-0.0050000,-0.0080000,-0.0030000,-0.0093300,0.0000000*
1,1,0.0050000,-0.0030000,-0.0093300*
20,1,0.0050000,-0.0030000,-0.0093300,-0.0006700,-0.0100000,0.0000000*
1,1,0.0050000,-0.0006700,-0.0100000*
20,1,0.0050000,-0.0006700,-0.0100000,0.0020000,-0.0093300,0.0000000*
1,1,0.0050000,0.0020000,-0.0093300*
20,1,0.0050000,0.0020000,-0.0093300,0.0040000,-0.0080000,0.0000000*
1,1,0.0050000,0.0040000,-0.0080000*
20,1,0.0050000,0.0040000,-0.0080000,0.0060000,-0.0060000,0.0000000*
1,1,0.0050000,0.0060000,-0.0060000*
20,1,0.0050000,0.0060000,-0.0060000,0.0066700,-0.0033300,0.0000000*
1,1,0.0050000,0.0066700,-0.0033300*
20,1,0.0050000,0.0066700,-0.0033300,0.0066700,0.0100000,0.0000000*
1,1,0.0050000,0.0066700,0.0100000*
%
%AMMACRO10*
1,1,0.0050000,0.0600000,0.0000000*
20,1,0.0050000,0.0600000,0.0000000,0.0590880,-0.0104190,0.0000000*
1,1,0.0050000,0.0590880,-0.0104190*
20,1,0.0050000,0.0590880,-0.0104190,0.0563820,-0.0205210,0.0000000*
1,1,0.0050000,0.0563820,-0.0205210*
20,1,0.0050000,0.0563820,-0.0205210,0.0519620,-0.0300000,0.0000000*
1,1,0.0050000,0.0519620,-0.0300000*
20,1,0.0050000,0.0519620,-0.0300000,0.0459630,-0.0385670,0.0000000*
1,1,0.0050000,0.0459630,-0.0385670*
20,1,0.0050000,0.0459630,-0.0385670,0.0385670,-0.0459630,0.0000000*
1,1,0.0050000,0.0385670,-0.0459630*
20,1,0.0050000,0.0385670,-0.0459630,0.0300000,-0.0519620,0.0000000*
1,1,0.0050000,0.0300000,-0.0519620*
20,1,0.0050000,0.0300000,-0.0519620,0.0205210,-0.0563820,0.0000000*
1,1,0.0050000,0.0205210,-0.0563820*
20,1,0.0050000,0.0205210,-0.0563820,0.0104190,-0.0590880,0.0000000*
1,1,0.0050000,0.0104190,-0.0590880*
20,1,0.0050000,0.0104190,-0.0590880,0.0000000,-0.0600000,0.0000000*
1,1,0.0050000,0.0000000,-0.0600000*
20,1,0.0050000,0.0000000,-0.0600000,-0.0104190,-0.0590880,0.0000000*
1,1,0.0050000,-0.0104190,-0.0590880*
20,1,0.0050000,-0.0104190,-0.0590880,-0.0205210,-0.0563820,0.0000000*
1,1,0.0050000,-0.0205210,-0.0563820*
20,1,0.0050000,-0.0205210,-0.0563820,-0.0300000,-0.0519620,0.0000000*
1,1,0.0050000,-0.0300000,-0.0519620*
20,1,0.0050000,-0.0300000,-0.0519620,-0.0385670,-0.0459630,0.0000000*
1,1,0.0050000,-0.0385670,-0.0459630*
20,1,0.0050000,-0.0385670,-0.0459630,-0.0459630,-0.0385670,0.0000000*
1,1,0.0050000,-0.0459630,-0.0385670*
20,1,0.0050000,-0.0459630,-0.0385670,-0.0519620,-0.0300000,0.0000000*
1,1,0.0050000,-0.0519620,-0.0300000*
20,1,0.0050000,-0.0519620,-0.0300000,-0.0563820,-0.0205210,0.0000000*
1,1,0.0050000,-0.0563820,-0.0205210*
20,1,0.0050000,-0.0563820,-0.0205210,-0.0590880,-0.0104190,0.0000000*
1,1,0.0050000,-0.0590880,-0.0104190*
20,1,0.0050000,-0.0590880,-0.0104190,-0.0600000,0.0000000,0.0000000*
1,1,0.0050000,-0.0600000,0.0000000*
20,1,0.0050000,-0.0600000,0.0000000,-0.0590880,0.0104190,0.0000000*
1,1,0.0050000,-0.0590880,0.0104190*
20,1,0.0050000,-0.0590880,0.0104190,-0.0563820,0.0205210,0.0000000*
1,1,0.0050000,-0.0563820,0.0205210*
20,1,0.0050000,-0.0563820,0.0205210,-0.0519620,0.0300000,0.0000000*
1,1,0.0050000,-0.0519620,0.0300000*
20,1,0.0050000,-0.0519620,0.0300000,-0.0459630,0.0385670,0.0000000*
1,1,0.0050000,-0.0459630,0.0385670*
20,1,0.0050000,-0.0459630,0.0385670,-0.0385670,0.0459630,0.0000000*
1,1,0.0050000,-0.0385670,0.0459630*
20,1,0.0050000,-0.0385670,0.0459630,-0.0300000,0.0519620,0.0000000*
1,1,0.0050000,-0.0300000,0.0519620*
20,1,0.0050000,-0.0300000,0.0519620,-0.0205210,0.0563820,0.0000000*
1,1,0.0050000,-0.0205210,0.0563820*
20,1,0.0050000,-0.0205210,0.0563820,-0.0104190,0.0590880,0.0000000*
1,1,0.0050000,-0.0104190,0.0590880*
20,1,0.0050000,-0.0104190,0.0590880,0.0000000,0.0600000,0.0000000*
1,1,0.0050000,0.0000000,0.0600000*
20,1,0.0050000,0.0000000,0.0600000,0.0104190,0.0590880,0.0000000*
1,1,0.0050000,0.0104190,0.0590880*
20,1,0.0050000,0.0104190,0.0590880,0.0205210,0.0563820,0.0000000*
1,1,0.0050000,0.0205210,0.0563820*
20,1,0.0050000,0.0205210,0.0563820,0.0300000,0.0519620,0.0000000*
1,1,0.0050000,0.0300000,0.0519620*
20,1,0.0050000,0.0300000,0.0519620,0.0385670,0.0459630,0.0000000*
1,1,0.0050000,0.0385670,0.0459630*
20,1,0.0050000,0.0385670,0.0459630,0.0459630,0.0385670,0.0000000*
1,1,0.0050000,0.0459630,0.0385670*
20,1,0.0050000,0.0459630,0.0385670,0.0519620,0.0300000,0.0000000*
1,1,0.0050000,0.0519620,0.0300000*
20,1,0.0050000,0.0519620,0.0300000,0.0563820,0.0205210,0.0000000*
1,1,0.0050000,0.0563820,0.0205210*
20,1,0.0050000,0.0563820,0.0205210,0.0590880,0.0104190,0.0000000*
1,1,0.0050000,0.0590880,0.0104190*
20,1,0.0050000,0.0590880,0.0104190,0.0600000,0.0000000,0.0000000*
1,1,0.0050000,0.0600000,0.0000000*
1,1,0.0050000,-0.0220000,-0.0300000*
20,1,0.0050000,-0.0220000,-0.0300000,-0.0220000,0.0300000,0.0000000*
1,1,0.0050000,-0.0220000,0.0300000*
1,1,0.0050000,0.0160000,0.0300000*
20,1,0.0050000,0.0160000,0.0300000,-0.0220000,-0.0070000,0.0000000*
1,1,0.0050000,-0.0220000,-0.0070000*
1,1,0.0050000,0.0220000,-0.0300000*
20,1,0.0050000,0.0220000,-0.0300000,-0.0050000,0.0100000,0.0000000*
1,1,0.0050000,-0.0050000,0.0100000*
%
%AMMACRO19*
1,1,0.0050000,0.0200000,0.0000000*
20,1,0.0050000,0.0200000,0.0000000,0.0196960,-0.0034730,0.0000000*
1,1,0.0050000,0.0196960,-0.0034730*
20,1,0.0050000,0.0196960,-0.0034730,0.0187940,-0.0068400,0.0000000*
1,1,0.0050000,0.0187940,-0.0068400*
20,1,0.0050000,0.0187940,-0.0068400,0.0173210,-0.0100000,0.0000000*
1,1,0.0050000,0.0173210,-0.0100000*
20,1,0.0050000,0.0173210,-0.0100000,0.0153210,-0.0128560,0.0000000*
1,1,0.0050000,0.0153210,-0.0128560*
20,1,0.0050000,0.0153210,-0.0128560,0.0128560,-0.0153210,0.0000000*
1,1,0.0050000,0.0128560,-0.0153210*
20,1,0.0050000,0.0128560,-0.0153210,0.0100000,-0.0173210,0.0000000*
1,1,0.0050000,0.0100000,-0.0173210*
20,1,0.0050000,0.0100000,-0.0173210,0.0068400,-0.0187940,0.0000000*
1,1,0.0050000,0.0068400,-0.0187940*
20,1,0.0050000,0.0068400,-0.0187940,0.0034730,-0.0196960,0.0000000*
1,1,0.0050000,0.0034730,-0.0196960*
20,1,0.0050000,0.0034730,-0.0196960,0.0000000,-0.0200000,0.0000000*
1,1,0.0050000,0.0000000,-0.0200000*
20,1,0.0050000,0.0000000,-0.0200000,-0.0034730,-0.0196960,0.0000000*
1,1,0.0050000,-0.0034730,-0.0196960*
20,1,0.0050000,-0.0034730,-0.0196960,-0.0068400,-0.0187940,0.0000000*
1,1,0.0050000,-0.0068400,-0.0187940*
20,1,0.0050000,-0.0068400,-0.0187940,-0.0100000,-0.0173210,0.0000000*
1,1,0.0050000,-0.0100000,-0.0173210*
20,1,0.0050000,-0.0100000,-0.0173210,-0.0128560,-0.0153210,0.0000000*
1,1,0.0050000,-0.0128560,-0.0153210*
20,1,0.0050000,-0.0128560,-0.0153210,-0.0153210,-0.0128560,0.0000000*
1,1,0.0050000,-0.0153210,-0.0128560*
20,1,0.0050000,-0.0153210,-0.0128560,-0.0173210,-0.0100000,0.0000000*
1,1,0.0050000,-0.0173210,-0.0100000*
20,1,0.0050000,-0.0173210,-0.0100000,-0.0187940,-0.0068400,0.0000000*
1,1,0.0050000,-0.0187940,-0.0068400*
20,1,0.0050000,-0.0187940,-0.0068400,-0.0196960,-0.0034730,0.0000000*
1,1,0.0050000,-0.0196960,-0.0034730*
20,1,0.0050000,-0.0196960,-0.0034730,-0.0200000,0.0000000,0.0000000*
1,1,0.0050000,-0.0200000,0.0000000*
20,1,0.0050000,-0.0200000,0.0000000,-0.0196960,0.0034730,0.0000000*
1,1,0.0050000,-0.0196960,0.0034730*
20,1,0.0050000,-0.0196960,0.0034730,-0.0187940,0.0068400,0.0000000*
1,1,0.0050000,-0.0187940,0.0068400*
20,1,0.0050000,-0.0187940,0.0068400,-0.0173210,0.0100000,0.0000000*
1,1,0.0050000,-0.0173210,0.0100000*
20,1,0.0050000,-0.0173210,0.0100000,-0.0153210,0.0128560,0.0000000*
1,1,0.0050000,-0.0153210,0.0128560*
20,1,0.0050000,-0.0153210,0.0128560,-0.0128560,0.0153210,0.0000000*
1,1,0.0050000,-0.0128560,0.0153210*
20,1,0.0050000,-0.0128560,0.0153210,-0.0100000,0.0173210,0.0000000*
1,1,0.0050000,-0.0100000,0.0173210*
20,1,0.0050000,-0.0100000,0.0173210,-0.0068400,0.0187940,0.0000000*
1,1,0.0050000,-0.0068400,0.0187940*
20,1,0.0050000,-0.0068400,0.0187940,-0.0034730,0.0196960,0.0000000*
1,1,0.0050000,-0.0034730,0.0196960*
20,1,0.0050000,-0.0034730,0.0196960,0.0000000,0.0200000,0.0000000*
1,1,0.0050000,0.0000000,0.0200000*
20,1,0.0050000,0.0000000,0.0200000,0.0034730,0.0196960,0.0000000*
1,1,0.0050000,0.0034730,0.0196960*
20,1,0.0050000,0.0034730,0.0196960,0.0068400,0.0187940,0.0000000*
1,1,0.0050000,0.0068400,0.0187940*
20,1,0.0050000,0.0068400,0.0187940,0.0100000,0.0173210,0.0000000*
1,1,0.0050000,0.0100000,0.0173210*
20,1,0.0050000,0.0100000,0.0173210,0.0128560,0.0153210,0.0000000*
1,1,0.0050000,0.0128560,0.0153210*
20,1,0.0050000,0.0128560,0.0153210,0.0153210,0.0128560,0.0000000*
1,1,0.0050000,0.0153210,0.0128560*
20,1,0.0050000,0.0153210,0.0128560,0.0173210,0.0100000,0.0000000*
1,1,0.0050000,0.0173210,0.0100000*
20,1,0.0050000,0.0173210,0.0100000,0.0187940,0.0068400,0.0000000*
1,1,0.0050000,0.0187940,0.0068400*
20,1,0.0050000,0.0187940,0.0068400,0.0196960,0.0034730,0.0000000*
1,1,0.0050000,0.0196960,0.0034730*
20,1,0.0050000,0.0196960,0.0034730,0.0200000,0.0000000,0.0000000*
1,1,0.0050000,0.0200000,0.0000000*
1,1,0.0050000,0.0066700,-0.0100000*
20,1,0.0050000,0.0066700,-0.0100000,-0.0066700,-0.0100000,0.0000000*
1,1,0.0050000,-0.0066700,-0.0100000*
20,1,0.0050000,-0.0066700,-0.0100000,-0.0066700,0.0100000,0.0000000*
1,1,0.0050000,-0.0066700,0.0100000*
20,1,0.0050000,-0.0066700,0.0100000,0.0066700,0.0100000,0.0000000*
1,1,0.0050000,0.0066700,0.0100000*
1,1,0.0050000,0.0013300,0.0003300*
20,1,0.0050000,0.0013300,0.0003300,-0.0066700,0.0003300,0.0000000*
1,1,0.0050000,-0.0066700,0.0003300*
%
%AMMACRO20*
1,1,0.0050000,0.0200000,0.0000000*
20,1,0.0050000,0.0200000,0.0000000,-0.0200000,0.0000000,0.0000000*
1,1,0.0050000,-0.0200000,0.0000000*
1,1,0.0050000,0.0000000,0.0200000*
20,1,0.0050000,0.0000000,0.0200000,0.0000000,-0.0200000,0.0000000*
1,1,0.0050000,0.0000000,-0.0200000*
1,1,0.0050000,0.0166700,0.0000000*
20,1,0.0050000,0.0166700,0.0000000,0.0033300,0.0000000,0.0000000*
1,1,0.0050000,0.0033300,0.0000000*
20,1,0.0050000,0.0033300,0.0000000,0.0033300,0.0200000,0.0000000*
1,1,0.0050000,0.0033300,0.0200000*
20,1,0.0050000,0.0033300,0.0200000,0.0166700,0.0200000,0.0000000*
1,1,0.0050000,0.0166700,0.0200000*
1,1,0.0050000,0.0113300,0.0103300*
20,1,0.0050000,0.0113300,0.0103300,0.0033300,0.0103300,0.0000000*
1,1,0.0050000,0.0033300,0.0103300*
%
%AMMACRO14*
1,1,0.0050000,-0.0500000,0.0200000*
20,1,0.0050000,-0.0500000,0.0200000,0.0500000,0.0200000,0.0000000*
1,1,0.0050000,0.0500000,0.0200000*
20,1,0.0050000,0.0500000,0.0200000,0.0534730,0.0196960,0.0000000*
1,1,0.0050000,0.0534730,0.0196960*
20,1,0.0050000,0.0534730,0.0196960,0.0568400,0.0187940,0.0000000*
1,1,0.0050000,0.0568400,0.0187940*
20,1,0.0050000,0.0568400,0.0187940,0.0600000,0.0173210,0.0000000*
1,1,0.0050000,0.0600000,0.0173210*
20,1,0.0050000,0.0600000,0.0173210,0.0628560,0.0153210,0.0000000*
1,1,0.0050000,0.0628560,0.0153210*
20,1,0.0050000,0.0628560,0.0153210,0.0653210,0.0128560,0.0000000*
1,1,0.0050000,0.0653210,0.0128560*
20,1,0.0050000,0.0653210,0.0128560,0.0673210,0.0100000,0.0000000*
1,1,0.0050000,0.0673210,0.0100000*
20,1,0.0050000,0.0673210,0.0100000,0.0687940,0.0068400,0.0000000*
1,1,0.0050000,0.0687940,0.0068400*
20,1,0.0050000,0.0687940,0.0068400,0.0696960,0.0034730,0.0000000*
1,1,0.0050000,0.0696960,0.0034730*
20,1,0.0050000,0.0696960,0.0034730,0.0700000,0.0000000,0.0000000*
1,1,0.0050000,0.0700000,0.0000000*
20,1,0.0050000,0.0700000,0.0000000,0.0696960,-0.0034730,0.0000000*
1,1,0.0050000,0.0696960,-0.0034730*
20,1,0.0050000,0.0696960,-0.0034730,0.0687940,-0.0068400,0.0000000*
1,1,0.0050000,0.0687940,-0.0068400*
20,1,0.0050000,0.0687940,-0.0068400,0.0673210,-0.0100000,0.0000000*
1,1,0.0050000,0.0673210,-0.0100000*
20,1,0.0050000,0.0673210,-0.0100000,0.0653210,-0.0128560,0.0000000*
1,1,0.0050000,0.0653210,-0.0128560*
20,1,0.0050000,0.0653210,-0.0128560,0.0628560,-0.0153210,0.0000000*
1,1,0.0050000,0.0628560,-0.0153210*
20,1,0.0050000,0.0628560,-0.0153210,0.0600000,-0.0173210,0.0000000*
1,1,0.0050000,0.0600000,-0.0173210*
20,1,0.0050000,0.0600000,-0.0173210,0.0568400,-0.0187940,0.0000000*
1,1,0.0050000,0.0568400,-0.0187940*
20,1,0.0050000,0.0568400,-0.0187940,0.0534730,-0.0196960,0.0000000*
1,1,0.0050000,0.0534730,-0.0196960*
20,1,0.0050000,0.0534730,-0.0196960,0.0500000,-0.0200000,0.0000000*
1,1,0.0050000,0.0500000,-0.0200000*
20,1,0.0050000,0.0500000,-0.0200000,-0.0500000,-0.0200000,0.0000000*
1,1,0.0050000,-0.0500000,-0.0200000*
20,1,0.0050000,-0.0500000,-0.0200000,-0.0534730,-0.0196960,0.0000000*
1,1,0.0050000,-0.0534730,-0.0196960*
20,1,0.0050000,-0.0534730,-0.0196960,-0.0568400,-0.0187940,0.0000000*
1,1,0.0050000,-0.0568400,-0.0187940*
20,1,0.0050000,-0.0568400,-0.0187940,-0.0600000,-0.0173210,0.0000000*
1,1,0.0050000,-0.0600000,-0.0173210*
20,1,0.0050000,-0.0600000,-0.0173210,-0.0628560,-0.0153210,0.0000000*
1,1,0.0050000,-0.0628560,-0.0153210*
20,1,0.0050000,-0.0628560,-0.0153210,-0.0653210,-0.0128560,0.0000000*
1,1,0.0050000,-0.0653210,-0.0128560*
20,1,0.0050000,-0.0653210,-0.0128560,-0.0673210,-0.0100000,0.0000000*
1,1,0.0050000,-0.0673210,-0.0100000*
20,1,0.0050000,-0.0673210,-0.0100000,-0.0687940,-0.0068400,0.0000000*
1,1,0.0050000,-0.0687940,-0.0068400*
20,1,0.0050000,-0.0687940,-0.0068400,-0.0696960,-0.0034730,0.0000000*
1,1,0.0050000,-0.0696960,-0.0034730*
20,1,0.0050000,-0.0696960,-0.0034730,-0.0700000,0.0000000,0.0000000*
1,1,0.0050000,-0.0700000,0.0000000*
20,1,0.0050000,-0.0700000,0.0000000,-0.0696960,0.0034730,0.0000000*
1,1,0.0050000,-0.0696960,0.0034730*
20,1,0.0050000,-0.0696960,0.0034730,-0.0687940,0.0068400,0.0000000*
1,1,0.0050000,-0.0687940,0.0068400*
20,1,0.0050000,-0.0687940,0.0068400,-0.0673210,0.0100000,0.0000000*
1,1,0.0050000,-0.0673210,0.0100000*
20,1,0.0050000,-0.0673210,0.0100000,-0.0653210,0.0128560,0.0000000*
1,1,0.0050000,-0.0653210,0.0128560*
20,1,0.0050000,-0.0653210,0.0128560,-0.0628560,0.0153210,0.0000000*
1,1,0.0050000,-0.0628560,0.0153210*
20,1,0.0050000,-0.0628560,0.0153210,-0.0600000,0.0173210,0.0000000*
1,1,0.0050000,-0.0600000,0.0173210*
20,1,0.0050000,-0.0600000,0.0173210,-0.0568400,0.0187940,0.0000000*
1,1,0.0050000,-0.0568400,0.0187940*
20,1,0.0050000,-0.0568400,0.0187940,-0.0534730,0.0196960,0.0000000*
1,1,0.0050000,-0.0534730,0.0196960*
20,1,0.0050000,-0.0534730,0.0196960,-0.0500000,0.0200000,0.0000000*
1,1,0.0050000,-0.0500000,0.0200000*
1,1,0.0050000,-0.0073300,-0.0100000*
20,1,0.0050000,-0.0073300,-0.0100000,-0.0073300,0.0100000,0.0000000*
1,1,0.0050000,-0.0073300,0.0100000*
1,1,0.0050000,0.0053300,0.0100000*
20,1,0.0050000,0.0053300,0.0100000,-0.0073300,-0.0023300,0.0000000*
1,1,0.0050000,-0.0073300,-0.0023300*
1,1,0.0050000,0.0073300,-0.0100000*
20,1,0.0050000,0.0073300,-0.0100000,-0.0016700,0.0033300,0.0000000*
1,1,0.0050000,-0.0016700,0.0033300*
%
%AMMACRO12*
1,1,0.0050000,-0.0333300,-0.0400000*
20,1,0.0050000,-0.0333300,-0.0400000,0.0000000,0.0400000,0.0000000*
1,1,0.0050000,0.0000000,0.0400000*
20,1,0.0050000,0.0000000,0.0400000,0.0333300,-0.0400000,0.0000000*
1,1,0.0050000,0.0333300,-0.0400000*
1,1,0.0050000,0.0213300,-0.0120000*
20,1,0.0050000,0.0213300,-0.0120000,-0.0213300,-0.0120000,0.0000000*
1,1,0.0050000,-0.0213300,-0.0120000*
%
%AMMACRO16*
1,1,0.0050000,0.0175000,0.0000000*
20,1,0.0050000,0.0175000,0.0000000,0.0172340,-0.0030390,0.0000000*
1,1,0.0050000,0.0172340,-0.0030390*
20,1,0.0050000,0.0172340,-0.0030390,0.0164450,-0.0059850,0.0000000*
1,1,0.0050000,0.0164450,-0.0059850*
20,1,0.0050000,0.0164450,-0.0059850,0.0151550,-0.0087500,0.0000000*
1,1,0.0050000,0.0151550,-0.0087500*
20,1,0.0050000,0.0151550,-0.0087500,0.0134060,-0.0112490,0.0000000*
1,1,0.0050000,0.0134060,-0.0112490*
20,1,0.0050000,0.0134060,-0.0112490,0.0112490,-0.0134060,0.0000000*
1,1,0.0050000,0.0112490,-0.0134060*
20,1,0.0050000,0.0112490,-0.0134060,0.0087500,-0.0151550,0.0000000*
1,1,0.0050000,0.0087500,-0.0151550*
20,1,0.0050000,0.0087500,-0.0151550,0.0059850,-0.0164450,0.0000000*
1,1,0.0050000,0.0059850,-0.0164450*
20,1,0.0050000,0.0059850,-0.0164450,0.0030390,-0.0172340,0.0000000*
1,1,0.0050000,0.0030390,-0.0172340*
20,1,0.0050000,0.0030390,-0.0172340,0.0000000,-0.0175000,0.0000000*
1,1,0.0050000,0.0000000,-0.0175000*
20,1,0.0050000,0.0000000,-0.0175000,-0.0030390,-0.0172340,0.0000000*
1,1,0.0050000,-0.0030390,-0.0172340*
20,1,0.0050000,-0.0030390,-0.0172340,-0.0059850,-0.0164450,0.0000000*
1,1,0.0050000,-0.0059850,-0.0164450*
20,1,0.0050000,-0.0059850,-0.0164450,-0.0087500,-0.0151550,0.0000000*
1,1,0.0050000,-0.0087500,-0.0151550*
20,1,0.0050000,-0.0087500,-0.0151550,-0.0112490,-0.0134060,0.0000000*
1,1,0.0050000,-0.0112490,-0.0134060*
20,1,0.0050000,-0.0112490,-0.0134060,-0.0134060,-0.0112490,0.0000000*
1,1,0.0050000,-0.0134060,-0.0112490*
20,1,0.0050000,-0.0134060,-0.0112490,-0.0151550,-0.0087500,0.0000000*
1,1,0.0050000,-0.0151550,-0.0087500*
20,1,0.0050000,-0.0151550,-0.0087500,-0.0164450,-0.0059850,0.0000000*
1,1,0.0050000,-0.0164450,-0.0059850*
20,1,0.0050000,-0.0164450,-0.0059850,-0.0172340,-0.0030390,0.0000000*
1,1,0.0050000,-0.0172340,-0.0030390*
20,1,0.0050000,-0.0172340,-0.0030390,-0.0175000,0.0000000,0.0000000*
1,1,0.0050000,-0.0175000,0.0000000*
20,1,0.0050000,-0.0175000,0.0000000,-0.0172340,0.0030390,0.0000000*
1,1,0.0050000,-0.0172340,0.0030390*
20,1,0.0050000,-0.0172340,0.0030390,-0.0164450,0.0059850,0.0000000*
1,1,0.0050000,-0.0164450,0.0059850*
20,1,0.0050000,-0.0164450,0.0059850,-0.0151550,0.0087500,0.0000000*
1,1,0.0050000,-0.0151550,0.0087500*
20,1,0.0050000,-0.0151550,0.0087500,-0.0134060,0.0112490,0.0000000*
1,1,0.0050000,-0.0134060,0.0112490*
20,1,0.0050000,-0.0134060,0.0112490,-0.0112490,0.0134060,0.0000000*
1,1,0.0050000,-0.0112490,0.0134060*
20,1,0.0050000,-0.0112490,0.0134060,-0.0087500,0.0151550,0.0000000*
1,1,0.0050000,-0.0087500,0.0151550*
20,1,0.0050000,-0.0087500,0.0151550,-0.0059850,0.0164450,0.0000000*
1,1,0.0050000,-0.0059850,0.0164450*
20,1,0.0050000,-0.0059850,0.0164450,-0.0030390,0.0172340,0.0000000*
1,1,0.0050000,-0.0030390,0.0172340*
20,1,0.0050000,-0.0030390,0.0172340,0.0000000,0.0175000,0.0000000*
1,1,0.0050000,0.0000000,0.0175000*
20,1,0.0050000,0.0000000,0.0175000,0.0030390,0.0172340,0.0000000*
1,1,0.0050000,0.0030390,0.0172340*
20,1,0.0050000,0.0030390,0.0172340,0.0059850,0.0164450,0.0000000*
1,1,0.0050000,0.0059850,0.0164450*
20,1,0.0050000,0.0059850,0.0164450,0.0087500,0.0151550,0.0000000*
1,1,0.0050000,0.0087500,0.0151550*
20,1,0.0050000,0.0087500,0.0151550,0.0112490,0.0134060,0.0000000*
1,1,0.0050000,0.0112490,0.0134060*
20,1,0.0050000,0.0112490,0.0134060,0.0134060,0.0112490,0.0000000*
1,1,0.0050000,0.0134060,0.0112490*
20,1,0.0050000,0.0134060,0.0112490,0.0151550,0.0087500,0.0000000*
1,1,0.0050000,0.0151550,0.0087500*
20,1,0.0050000,0.0151550,0.0087500,0.0164450,0.0059850,0.0000000*
1,1,0.0050000,0.0164450,0.0059850*
20,1,0.0050000,0.0164450,0.0059850,0.0172340,0.0030390,0.0000000*
1,1,0.0050000,0.0172340,0.0030390*
20,1,0.0050000,0.0172340,0.0030390,0.0175000,0.0000000,0.0000000*
1,1,0.0050000,0.0175000,0.0000000*
1,1,0.0050000,0.0023300,0.0005800*
20,1,0.0050000,0.0023300,0.0005800,0.0035000,0.0014600,0.0000000*
1,1,0.0050000,0.0035000,0.0014600*
20,1,0.0050000,0.0035000,0.0014600,0.0043700,0.0029200,0.0000000*
1,1,0.0050000,0.0043700,0.0029200*
20,1,0.0050000,0.0043700,0.0029200,0.0049600,0.0049600,0.0000000*
1,1,0.0050000,0.0049600,0.0049600*
20,1,0.0050000,0.0049600,0.0049600,0.0043700,0.0067100,0.0000000*
1,1,0.0050000,0.0043700,0.0067100*
20,1,0.0050000,0.0043700,0.0067100,0.0032100,0.0078700,0.0000000*
1,1,0.0050000,0.0032100,0.0078700*
20,1,0.0050000,0.0032100,0.0078700,0.0011700,0.0087500,0.0000000*
1,1,0.0050000,0.0011700,0.0087500*
20,1,0.0050000,0.0011700,0.0087500,-0.0067100,0.0087500,0.0000000*
1,1,0.0050000,-0.0067100,0.0087500*
20,1,0.0050000,-0.0067100,0.0087500,-0.0067100,-0.0087500,0.0000000*
1,1,0.0050000,-0.0067100,-0.0087500*
20,1,0.0050000,-0.0067100,-0.0087500,0.0029200,-0.0087500,0.0000000*
1,1,0.0050000,0.0029200,-0.0087500*
20,1,0.0050000,0.0029200,-0.0087500,0.0049600,-0.0075800,0.0000000*
1,1,0.0050000,0.0049600,-0.0075800*
20,1,0.0050000,0.0049600,-0.0075800,0.0061300,-0.0058300,0.0000000*
1,1,0.0050000,0.0061300,-0.0058300*
20,1,0.0050000,0.0061300,-0.0058300,0.0067100,-0.0037900,0.0000000*
1,1,0.0050000,0.0067100,-0.0037900*
20,1,0.0050000,0.0067100,-0.0037900,0.0061300,-0.0017500,0.0000000*
1,1,0.0050000,0.0061300,-0.0017500*
20,1,0.0050000,0.0061300,-0.0017500,0.0043700,0.0000000,0.0000000*
1,1,0.0050000,0.0043700,0.0000000*
20,1,0.0050000,0.0043700,0.0000000,0.0023300,0.0005800,0.0000000*
1,1,0.0050000,0.0023300,0.0005800*
20,1,0.0050000,0.0023300,0.0005800,-0.0067100,0.0005800,0.0000000*
1,1,0.0050000,-0.0067100,0.0005800*
%
%AMMACRO11*
1,1,0.0050000,-0.0166700,-0.0150000*
20,1,0.0050000,-0.0166700,-0.0150000,-0.0125000,-0.0200000,0.0000000*
1,1,0.0050000,-0.0125000,-0.0200000*
20,1,0.0050000,-0.0125000,-0.0200000,-0.0075000,-0.0233300,0.0000000*
1,1,0.0050000,-0.0075000,-0.0233300*
20,1,0.0050000,-0.0075000,-0.0233300,-0.0016700,-0.0250000,0.0000000*
1,1,0.0050000,-0.0016700,-0.0250000*
20,1,0.0050000,-0.0016700,-0.0250000,0.0050000,-0.0233300,0.0000000*
1,1,0.0050000,0.0050000,-0.0233300*
20,1,0.0050000,0.0050000,-0.0233300,0.0100000,-0.0200000,0.0000000*
1,1,0.0050000,0.0100000,-0.0200000*
20,1,0.0050000,0.0100000,-0.0200000,0.0150000,-0.0150000,0.0000000*
1,1,0.0050000,0.0150000,-0.0150000*
20,1,0.0050000,0.0150000,-0.0150000,0.0166700,-0.0083300,0.0000000*
1,1,0.0050000,0.0166700,-0.0083300*
20,1,0.0050000,0.0166700,-0.0083300,0.0166700,0.0250000,0.0000000*
1,1,0.0050000,0.0166700,0.0250000*
%
%AMMACRO17*
1,1,0.0050000,0.0175000,0.0000000*
20,1,0.0050000,0.0175000,0.0000000,0.0172340,-0.0030390,0.0000000*
1,1,0.0050000,0.0172340,-0.0030390*
20,1,0.0050000,0.0172340,-0.0030390,0.0164450,-0.0059850,0.0000000*
1,1,0.0050000,0.0164450,-0.0059850*
20,1,0.0050000,0.0164450,-0.0059850,0.0151550,-0.0087500,0.0000000*
1,1,0.0050000,0.0151550,-0.0087500*
20,1,0.0050000,0.0151550,-0.0087500,0.0134060,-0.0112490,0.0000000*
1,1,0.0050000,0.0134060,-0.0112490*
20,1,0.0050000,0.0134060,-0.0112490,0.0112490,-0.0134060,0.0000000*
1,1,0.0050000,0.0112490,-0.0134060*
20,1,0.0050000,0.0112490,-0.0134060,0.0087500,-0.0151550,0.0000000*
1,1,0.0050000,0.0087500,-0.0151550*
20,1,0.0050000,0.0087500,-0.0151550,0.0059850,-0.0164450,0.0000000*
1,1,0.0050000,0.0059850,-0.0164450*
20,1,0.0050000,0.0059850,-0.0164450,0.0030390,-0.0172340,0.0000000*
1,1,0.0050000,0.0030390,-0.0172340*
20,1,0.0050000,0.0030390,-0.0172340,0.0000000,-0.0175000,0.0000000*
1,1,0.0050000,0.0000000,-0.0175000*
20,1,0.0050000,0.0000000,-0.0175000,-0.0030390,-0.0172340,0.0000000*
1,1,0.0050000,-0.0030390,-0.0172340*
20,1,0.0050000,-0.0030390,-0.0172340,-0.0059850,-0.0164450,0.0000000*
1,1,0.0050000,-0.0059850,-0.0164450*
20,1,0.0050000,-0.0059850,-0.0164450,-0.0087500,-0.0151550,0.0000000*
1,1,0.0050000,-0.0087500,-0.0151550*
20,1,0.0050000,-0.0087500,-0.0151550,-0.0112490,-0.0134060,0.0000000*
1,1,0.0050000,-0.0112490,-0.0134060*
20,1,0.0050000,-0.0112490,-0.0134060,-0.0134060,-0.0112490,0.0000000*
1,1,0.0050000,-0.0134060,-0.0112490*
20,1,0.0050000,-0.0134060,-0.0112490,-0.0151550,-0.0087500,0.0000000*
1,1,0.0050000,-0.0151550,-0.0087500*
20,1,0.0050000,-0.0151550,-0.0087500,-0.0164450,-0.0059850,0.0000000*
1,1,0.0050000,-0.0164450,-0.0059850*
20,1,0.0050000,-0.0164450,-0.0059850,-0.0172340,-0.0030390,0.0000000*
1,1,0.0050000,-0.0172340,-0.0030390*
20,1,0.0050000,-0.0172340,-0.0030390,-0.0175000,0.0000000,0.0000000*
1,1,0.0050000,-0.0175000,0.0000000*
20,1,0.0050000,-0.0175000,0.0000000,-0.0172340,0.0030390,0.0000000*
1,1,0.0050000,-0.0172340,0.0030390*
20,1,0.0050000,-0.0172340,0.0030390,-0.0164450,0.0059850,0.0000000*
1,1,0.0050000,-0.0164450,0.0059850*
20,1,0.0050000,-0.0164450,0.0059850,-0.0151550,0.0087500,0.0000000*
1,1,0.0050000,-0.0151550,0.0087500*
20,1,0.0050000,-0.0151550,0.0087500,-0.0134060,0.0112490,0.0000000*
1,1,0.0050000,-0.0134060,0.0112490*
20,1,0.0050000,-0.0134060,0.0112490,-0.0112490,0.0134060,0.0000000*
1,1,0.0050000,-0.0112490,0.0134060*
20,1,0.0050000,-0.0112490,0.0134060,-0.0087500,0.0151550,0.0000000*
1,1,0.0050000,-0.0087500,0.0151550*
20,1,0.0050000,-0.0087500,0.0151550,-0.0059850,0.0164450,0.0000000*
1,1,0.0050000,-0.0059850,0.0164450*
20,1,0.0050000,-0.0059850,0.0164450,-0.0030390,0.0172340,0.0000000*
1,1,0.0050000,-0.0030390,0.0172340*
20,1,0.0050000,-0.0030390,0.0172340,0.0000000,0.0175000,0.0000000*
1,1,0.0050000,0.0000000,0.0175000*
20,1,0.0050000,0.0000000,0.0175000,0.0030390,0.0172340,0.0000000*
1,1,0.0050000,0.0030390,0.0172340*
20,1,0.0050000,0.0030390,0.0172340,0.0059850,0.0164450,0.0000000*
1,1,0.0050000,0.0059850,0.0164450*
20,1,0.0050000,0.0059850,0.0164450,0.0087500,0.0151550,0.0000000*
1,1,0.0050000,0.0087500,0.0151550*
20,1,0.0050000,0.0087500,0.0151550,0.0112490,0.0134060,0.0000000*
1,1,0.0050000,0.0112490,0.0134060*
20,1,0.0050000,0.0112490,0.0134060,0.0134060,0.0112490,0.0000000*
1,1,0.0050000,0.0134060,0.0112490*
20,1,0.0050000,0.0134060,0.0112490,0.0151550,0.0087500,0.0000000*
1,1,0.0050000,0.0151550,0.0087500*
20,1,0.0050000,0.0151550,0.0087500,0.0164450,0.0059850,0.0000000*
1,1,0.0050000,0.0164450,0.0059850*
20,1,0.0050000,0.0164450,0.0059850,0.0172340,0.0030390,0.0000000*
1,1,0.0050000,0.0172340,0.0030390*
20,1,0.0050000,0.0172340,0.0030390,0.0175000,0.0000000,0.0000000*
1,1,0.0050000,0.0175000,0.0000000*
1,1,0.0050000,0.0064200,0.0072900*
20,1,0.0050000,0.0064200,0.0072900,0.0046700,0.0081700,0.0000000*
1,1,0.0050000,0.0046700,0.0081700*
20,1,0.0050000,0.0046700,0.0081700,0.0026300,0.0087500,0.0000000*
1,1,0.0050000,0.0026300,0.0087500*
20,1,0.0050000,0.0026300,0.0087500,0.0002900,0.0087500,0.0000000*
1,1,0.0050000,0.0002900,0.0087500*
20,1,0.0050000,0.0002900,0.0087500,-0.0023300,0.0078700,0.0000000*
1,1,0.0050000,-0.0023300,0.0078700*
20,1,0.0050000,-0.0023300,0.0078700,-0.0043700,0.0064200,0.0000000*
1,1,0.0050000,-0.0043700,0.0064200*
20,1,0.0050000,-0.0043700,0.0064200,-0.0058300,0.0046700,0.0000000*
1,1,0.0050000,-0.0058300,0.0046700*
20,1,0.0050000,-0.0058300,0.0046700,-0.0070000,0.0017500,0.0000000*
1,1,0.0050000,-0.0070000,0.0017500*
20,1,0.0050000,-0.0070000,0.0017500,-0.0072900,-0.0008800,0.0000000*
1,1,0.0050000,-0.0072900,-0.0008800*
20,1,0.0050000,-0.0072900,-0.0008800,-0.0067100,-0.0035000,0.0000000*
1,1,0.0050000,-0.0067100,-0.0035000*
20,1,0.0050000,-0.0067100,-0.0035000,-0.0058300,-0.0052500,0.0000000*
1,1,0.0050000,-0.0058300,-0.0052500*
20,1,0.0050000,-0.0058300,-0.0052500,-0.0040800,-0.0070000,0.0000000*
1,1,0.0050000,-0.0040800,-0.0070000*
20,1,0.0050000,-0.0040800,-0.0070000,-0.0020400,-0.0081700,0.0000000*
1,1,0.0050000,-0.0020400,-0.0081700*
20,1,0.0050000,-0.0020400,-0.0081700,0.0000000,-0.0087500,0.0000000*
1,1,0.0050000,0.0000000,-0.0087500*
20,1,0.0050000,0.0000000,-0.0087500,0.0020400,-0.0087500,0.0000000*
1,1,0.0050000,0.0020400,-0.0087500*
20,1,0.0050000,0.0020400,-0.0087500,0.0040800,-0.0081700,0.0000000*
1,1,0.0050000,0.0040800,-0.0081700*
20,1,0.0050000,0.0040800,-0.0081700,0.0058300,-0.0072900,0.0000000*
1,1,0.0050000,0.0058300,-0.0072900*
20,1,0.0050000,0.0058300,-0.0072900,0.0072900,-0.0061300,0.0000000*
1,1,0.0050000,0.0072900,-0.0061300*
%
%AMMACRO15*
1,1,0.0050000,0.0275000,0.0000000*
20,1,0.0050000,0.0275000,0.0000000,0.0270820,-0.0047750,0.0000000*
1,1,0.0050000,0.0270820,-0.0047750*
20,1,0.0050000,0.0270820,-0.0047750,0.0258420,-0.0094060,0.0000000*
1,1,0.0050000,0.0258420,-0.0094060*
20,1,0.0050000,0.0258420,-0.0094060,0.0238160,-0.0137500,0.0000000*
1,1,0.0050000,0.0238160,-0.0137500*
20,1,0.0050000,0.0238160,-0.0137500,0.0210660,-0.0176770,0.0000000*
1,1,0.0050000,0.0210660,-0.0176770*
20,1,0.0050000,0.0210660,-0.0176770,0.0176770,-0.0210660,0.0000000*
1,1,0.0050000,0.0176770,-0.0210660*
20,1,0.0050000,0.0176770,-0.0210660,0.0137500,-0.0238160,0.0000000*
1,1,0.0050000,0.0137500,-0.0238160*
20,1,0.0050000,0.0137500,-0.0238160,0.0094060,-0.0258420,0.0000000*
1,1,0.0050000,0.0094060,-0.0258420*
20,1,0.0050000,0.0094060,-0.0258420,0.0047750,-0.0270820,0.0000000*
1,1,0.0050000,0.0047750,-0.0270820*
20,1,0.0050000,0.0047750,-0.0270820,0.0000000,-0.0275000,0.0000000*
1,1,0.0050000,0.0000000,-0.0275000*
20,1,0.0050000,0.0000000,-0.0275000,-0.0047750,-0.0270820,0.0000000*
1,1,0.0050000,-0.0047750,-0.0270820*
20,1,0.0050000,-0.0047750,-0.0270820,-0.0094060,-0.0258420,0.0000000*
1,1,0.0050000,-0.0094060,-0.0258420*
20,1,0.0050000,-0.0094060,-0.0258420,-0.0137500,-0.0238160,0.0000000*
1,1,0.0050000,-0.0137500,-0.0238160*
20,1,0.0050000,-0.0137500,-0.0238160,-0.0176770,-0.0210660,0.0000000*
1,1,0.0050000,-0.0176770,-0.0210660*
20,1,0.0050000,-0.0176770,-0.0210660,-0.0210660,-0.0176770,0.0000000*
1,1,0.0050000,-0.0210660,-0.0176770*
20,1,0.0050000,-0.0210660,-0.0176770,-0.0238160,-0.0137500,0.0000000*
1,1,0.0050000,-0.0238160,-0.0137500*
20,1,0.0050000,-0.0238160,-0.0137500,-0.0258420,-0.0094060,0.0000000*
1,1,0.0050000,-0.0258420,-0.0094060*
20,1,0.0050000,-0.0258420,-0.0094060,-0.0270820,-0.0047750,0.0000000*
1,1,0.0050000,-0.0270820,-0.0047750*
20,1,0.0050000,-0.0270820,-0.0047750,-0.0275000,0.0000000,0.0000000*
1,1,0.0050000,-0.0275000,0.0000000*
20,1,0.0050000,-0.0275000,0.0000000,-0.0270820,0.0047750,0.0000000*
1,1,0.0050000,-0.0270820,0.0047750*
20,1,0.0050000,-0.0270820,0.0047750,-0.0258420,0.0094060,0.0000000*
1,1,0.0050000,-0.0258420,0.0094060*
20,1,0.0050000,-0.0258420,0.0094060,-0.0238160,0.0137500,0.0000000*
1,1,0.0050000,-0.0238160,0.0137500*
20,1,0.0050000,-0.0238160,0.0137500,-0.0210660,0.0176770,0.0000000*
1,1,0.0050000,-0.0210660,0.0176770*
20,1,0.0050000,-0.0210660,0.0176770,-0.0176770,0.0210660,0.0000000*
1,1,0.0050000,-0.0176770,0.0210660*
20,1,0.0050000,-0.0176770,0.0210660,-0.0137500,0.0238160,0.0000000*
1,1,0.0050000,-0.0137500,0.0238160*
20,1,0.0050000,-0.0137500,0.0238160,-0.0094060,0.0258420,0.0000000*
1,1,0.0050000,-0.0094060,0.0258420*
20,1,0.0050000,-0.0094060,0.0258420,-0.0047750,0.0270820,0.0000000*
1,1,0.0050000,-0.0047750,0.0270820*
20,1,0.0050000,-0.0047750,0.0270820,0.0000000,0.0275000,0.0000000*
1,1,0.0050000,0.0000000,0.0275000*
20,1,0.0050000,0.0000000,0.0275000,0.0047750,0.0270820,0.0000000*
1,1,0.0050000,0.0047750,0.0270820*
20,1,0.0050000,0.0047750,0.0270820,0.0094060,0.0258420,0.0000000*
1,1,0.0050000,0.0094060,0.0258420*
20,1,0.0050000,0.0094060,0.0258420,0.0137500,0.0238160,0.0000000*
1,1,0.0050000,0.0137500,0.0238160*
20,1,0.0050000,0.0137500,0.0238160,0.0176770,0.0210660,0.0000000*
1,1,0.0050000,0.0176770,0.0210660*
20,1,0.0050000,0.0176770,0.0210660,0.0210660,0.0176770,0.0000000*
1,1,0.0050000,0.0210660,0.0176770*
20,1,0.0050000,0.0210660,0.0176770,0.0238160,0.0137500,0.0000000*
1,1,0.0050000,0.0238160,0.0137500*
20,1,0.0050000,0.0238160,0.0137500,0.0258420,0.0094060,0.0000000*
1,1,0.0050000,0.0258420,0.0094060*
20,1,0.0050000,0.0258420,0.0094060,0.0270820,0.0047750,0.0000000*
1,1,0.0050000,0.0270820,0.0047750*
20,1,0.0050000,0.0270820,0.0047750,0.0275000,0.0000000,0.0000000*
1,1,0.0050000,0.0275000,0.0000000*
1,1,0.0050000,-0.0091700,-0.0137500*
20,1,0.0050000,-0.0091700,-0.0137500,-0.0091700,0.0137500,0.0000000*
1,1,0.0050000,-0.0091700,0.0137500*
20,1,0.0050000,-0.0091700,0.0137500,0.0022900,0.0137500,0.0000000*
1,1,0.0050000,0.0022900,0.0137500*
20,1,0.0050000,0.0022900,0.0137500,0.0059600,0.0123700,0.0000000*
1,1,0.0050000,0.0059600,0.0123700*
20,1,0.0050000,0.0059600,0.0123700,0.0082500,0.0105400,0.0000000*
1,1,0.0050000,0.0082500,0.0105400*
20,1,0.0050000,0.0082500,0.0105400,0.0091700,0.0068700,0.0000000*
1,1,0.0050000,0.0091700,0.0068700*
20,1,0.0050000,0.0091700,0.0068700,0.0082500,0.0032100,0.0000000*
1,1,0.0050000,0.0082500,0.0032100*
20,1,0.0050000,0.0082500,0.0032100,0.0055000,0.0009200,0.0000000*
1,1,0.0050000,0.0055000,0.0009200*
20,1,0.0050000,0.0055000,0.0009200,0.0022900,-0.0004600,0.0000000*
1,1,0.0050000,0.0022900,-0.0004600*
20,1,0.0050000,0.0022900,-0.0004600,-0.0091700,-0.0004600,0.0000000*
1,1,0.0050000,-0.0091700,-0.0004600*
1,1,0.0050000,0.0022900,-0.0004600*
20,1,0.0050000,0.0022900,-0.0004600,0.0091700,-0.0137500,0.0000000*
1,1,0.0050000,0.0091700,-0.0137500*
%
%AMMACRO18*
1,1,0.0050000,-0.0164000,-0.0196800*
20,1,0.0050000,-0.0164000,-0.0196800,0.0000000,0.0196900,0.0000000*
1,1,0.0050000,0.0000000,0.0196900*
20,1,0.0050000,0.0000000,0.0196900,0.0164100,-0.0196800,0.0000000*
1,1,0.0050000,0.0164100,-0.0196800*
1,1,0.0050000,0.0105000,-0.0059000*
20,1,0.0050000,0.0105000,-0.0059000,-0.0104900,-0.0059000,0.0000000*
1,1,0.0050000,-0.0104900,-0.0059000*
%
%ADD15C,0.00500*%
%ADD42MACRO13*%
%ADD43MACRO10*%
%ADD44MACRO19*%
%ADD45MACRO20*%
%ADD46MACRO14*%
%ADD47MACRO12*%
%ADD48MACRO16*%
%ADD49MACRO11*%
%ADD50MACRO17*%
%ADD51MACRO15*%
%ADD52MACRO18*%
%LNFAB.art*%
%LPD*%
G54D43*
X256000Y1260000D03*
X258000Y1474000D03*
X524000Y1259000D03*
Y1473000D03*
G54D49*
X260000Y1317000D03*
X271000Y1357000D03*
X257500Y1442500D03*
X260000Y1429000D03*
X296700Y1311000D03*
X274000Y1370000D03*
Y1377000D03*
Y1383000D03*
X282000D03*
X274000Y1363000D03*
X277000Y1423000D03*
X304000Y1311000D03*
Y1320000D03*
X309000Y1304000D03*
X307000Y1295000D03*
X318000Y1342000D03*
X326000Y1349000D03*
X327000Y1324000D03*
X313000Y1361000D03*
X306000Y1404000D03*
X305000Y1396000D03*
X331000Y1404000D03*
X306000Y1415000D03*
X316000D03*
X344000Y1314000D03*
X357000Y1316000D03*
X345000Y1334000D03*
X338500Y1346000D03*
X362000Y1336000D03*
X356000Y1383000D03*
X343984Y1383016D03*
X338500Y1360500D03*
X356000Y1391000D03*
X348000D03*
X343000Y1437500D03*
X354000Y1472000D03*
X383000Y1315000D03*
X392500Y1305500D03*
X372000Y1314000D03*
X374000Y1353000D03*
X391000Y1368000D03*
X365000Y1383000D03*
X364000Y1374000D03*
X388000Y1385000D03*
X365000Y1391000D03*
X384000Y1402000D03*
X405000Y1321000D03*
X416000Y1294000D03*
X417000Y1343000D03*
X399000Y1338000D03*
X397000Y1368000D03*
X404000Y1369000D03*
X394000Y1385000D03*
X402000Y1437000D03*
Y1445000D03*
X424000Y1290000D03*
X432000Y1286000D03*
X445000Y1346000D03*
X452000Y1360000D03*
X424000Y1412000D03*
X453000Y1410000D03*
X433000Y1420000D03*
X425000Y1471000D03*
Y1465000D03*
X459000Y1323000D03*
X468000Y1304000D03*
X460000Y1306000D03*
X476000Y1302000D03*
X467500Y1324500D03*
X454000Y1382000D03*
X473000Y1464000D03*
Y1471000D03*
X502000Y1314000D03*
Y1374000D03*
X485000Y1448000D03*
G54D45*
X488000Y1370000D03*
Y1404000D03*
Y1418000D03*
G54D47*
X276205Y1464000D03*
X291795D03*
G54D42*
X284400Y1260400D03*
X285200D03*
X286000D03*
X286800D03*
X287600D03*
X288400D03*
X289200D03*
X290000D03*
X290800D03*
X291600D03*
X306500Y1275800D03*
Y1275000D03*
Y1274200D03*
Y1273400D03*
Y1272600D03*
Y1271800D03*
Y1271000D03*
Y1270200D03*
Y1269400D03*
Y1268600D03*
G54D46*
X283500Y1284000D03*
X284500D03*
X285500D03*
X286500D03*
X287500D03*
X288500D03*
X289500D03*
X290500D03*
X291500D03*
X292500D03*
G54D51*
X322158Y1268000D03*
X362158D03*
X341842D03*
X381842D03*
X421842D03*
X402158D03*
X442158D03*
X461842D03*
X482158D03*
X514000Y1294315D03*
X501842Y1268000D03*
X514000Y1314000D03*
Y1333685D03*
Y1354315D03*
Y1374000D03*
Y1393685D03*
Y1414315D03*
Y1434000D03*
Y1453685D03*
G54D48*
X365000Y1471000D03*
G54D50*
X375000D03*
X385000D03*
X395000D03*
X405000D03*
G54D52*
X437606Y1476000D03*
X458394D03*
G54D44*
X488000Y1350000D03*
Y1360000D03*
Y1384000D03*
Y1394000D03*
Y1438000D03*
Y1428000D03*
G54D15*
X245000Y1485000D02*
G01Y1248000D01*
X534000*
Y1485000*
X245000*
X461780Y1468126D02*
G01X434220D01*
Y1483874*
X461780*
Y1468126*
M02*
