G04 ================== begin FILE IDENTIFICATION RECORD ==================*
G04 Layout Name:  STM32F103_RAK4600_THESISNODE.brd*
G04 Film Name:    BOTTOM*
G04 File Format:  Gerber RS274X*
G04 File Origin:  Cadence Allegro 17.2-S052*
G04 Origin Date:  Tue Jun 16 12:34:47 2020*
G04 *
G04 Layer:  ETCH/BOTTOM*
G04 Layer:  PIN/BOTTOM*
G04 Layer:  VIA CLASS/BOTTOM*
G04 Layer:  DRAWING FORMAT/BOTTOM*
G04 Layer:  BOARD GEOMETRY/OUTLINE*
G04 Layer:  BOARD GEOMETRY/LOGO_M*
G04 *
G04 Offset:    (0.00 0.00)*
G04 Mirror:    No*
G04 Mode:      Positive*
G04 Rotation:  0*
G04 FullContactRelief:  No*
G04 UndefLineWidth:     5.00*
G04 ================== end FILE IDENTIFICATION RECORD ====================*
%FSLAX25Y25*MOIN*%
%IR0*IPPOS*OFA0.00000B0.00000*MIA0B0*SFA1.00000B1.00000*%
%ADD16O,.07X.15*%
%ADD13O,.15X.07*%
%ADD14O,.18X.07*%
%ADD23C,.08*%
%ADD11C,.044*%
%ADD22R,.08X.08*%
%ADD29R,.04724X.15748*%
%ADD15O,.12X.16*%
%ADD12R,.12X.16*%
%ADD21C,.1*%
%ADD20R,.032X.035*%
%ADD10C,.13*%
%ADD25R,.035X.032*%
%ADD27R,.045X.05*%
%ADD31R,.08X.08*%
%ADD19R,.012X.068*%
%ADD18R,.1X.1*%
%ADD30R,.068X.012*%
%ADD26R,.025X.075*%
%ADD17R,.07X.085*%
%ADD28R,.02756X.07087*%
%ADD24R,.07087X.02756*%
%ADD32C,.01*%
%ADD33C,.02*%
%ADD34C,.03*%
%ADD35C,.015*%
%ADD36C,.018*%
%ADD37C,.005*%
%ADD38C,.008*%
%ADD39C,.11004*%
G75*
%LPD*%
G75*
G36*
G01X456258Y1478000D02*
X516379D01*
G02X516721Y1477393I0J-400D01*
G03X515498Y1473000I7278J-4393D01*
G03X524000Y1464498I8502J0D01*
G03X529348Y1466391I0J8501D01*
G02X530000Y1466080I252J-311D01*
G01Y1298300D01*
X527000Y1287000D01*
X525000Y1285000D01*
X500000D01*
X497402Y1287599D01*
Y1293350D01*
G03X497031Y1294632I-2402J0D01*
G01X497000Y1294681D01*
Y1295000D01*
X494000Y1298000D01*
X493746D01*
X492969Y1298777D01*
X492955Y1298807D01*
G03X492498Y1299444I-2154J-1063D01*
G01X483877Y1308065D01*
G02X484160Y1308748I283J283D01*
G01X484750D01*
G03X486752Y1310750I0J2002D01*
G01Y1318250D01*
G03X486518Y1319189I-2001J0D01*
G02X486685Y1319730I353J187D01*
G03X487752Y1321500I-935J1770D01*
G01Y1326500D01*
G03X485752Y1328501I-2001J0D01*
G01Y1331248D01*
X486000D01*
G03X487946Y1332054I0J2752D01*
G01X498779Y1342887D01*
G03X499584Y1344833I-1947J1945D01*
G01Y1347088D01*
X505383D01*
G03X505884Y1347589I0J501D01*
G01Y1348789D01*
G03X505383Y1349290I-501J0D01*
G01X499584D01*
Y1361398D01*
X505400D01*
G03X507402Y1363400I0J2002D01*
G01Y1364600D01*
G03X505400Y1366602I-2002J0D01*
G01X504502D01*
Y1370624D01*
G03X505376Y1371498I-2502J3376D01*
G01X507460D01*
G03X514000Y1366998I6540J2502D01*
G03X519296Y1369420I0J7001D01*
G02X519998Y1369158I302J-262D01*
G01Y1364558D01*
X516757Y1361316D01*
X509000D01*
G03X506998Y1359315I0J-2002D01*
G01Y1349315D01*
G03X509000Y1347314I2001J0D01*
G01X510998D01*
Y1346443D01*
X503557Y1339002D01*
X502000D01*
G03X500503Y1338602I0J-3001D01*
G01X498600D01*
G03X496598Y1336600I0J-2002D01*
G01Y1335400D01*
G03X498600Y1333398I2002J0D01*
G01X500503D01*
G03X502000Y1332998I1497J2601D01*
G01X504800D01*
G03X506922Y1333878I-1J3001D01*
G01X507879Y1334834D01*
G02X508558Y1334493I283J-282D01*
G03X508498Y1333685I5442J-810D01*
G03X514000Y1339187I5502J0D01*
G03X513192Y1339127I2J-5502D01*
G02X512851Y1339806I-59J396D01*
G01X516122Y1343078D01*
G03X517002Y1345200I-2121J2123D01*
G01Y1347314D01*
X519000D01*
G03X521002Y1349315I0J2002D01*
G01Y1357072D01*
X525122Y1361193D01*
G03X526002Y1363315I-2121J2123D01*
G01Y1379000D01*
G03X525122Y1381122I-3001J-1D01*
G01X520122Y1386122D01*
G03X518000Y1387002I-2123J-2121D01*
G01X511243D01*
X505002Y1393243D01*
Y1395398D01*
X505400D01*
G03X507402Y1397400I0J2002D01*
G01Y1398600D01*
G03X505400Y1400602I-2002J0D01*
G01X503497D01*
G03X502000Y1401002I-1497J-2601D01*
G03X500547Y1400626I2J-3002D01*
G01X500502Y1400602D01*
X499584D01*
Y1401693D01*
X505583Y1407692D01*
G02X506222Y1407590I282J-283D01*
G03X508363Y1406276I2141J1087D01*
G03X510061Y1406980I-1J2402D01*
G01X510395Y1407314D01*
X519000D01*
G03X521002Y1409315I0J2002D01*
G01Y1419315D01*
G03X519000Y1421316I-2001J0D01*
G01X509000D01*
G03X508081Y1421093I-1J-2001D01*
G02X507515Y1421332I-183J355D01*
G03X506402Y1422584I-1915J-582D01*
G01Y1423005D01*
X511046Y1427650D01*
X511172Y1427595D01*
G03X514000Y1426998I2829J6405D01*
G03X506998Y1434000I0J7002D01*
G03X507595Y1431172I7002J1D01*
G01X507650Y1431046D01*
X502302Y1425698D01*
G03X501598Y1424000I1698J-1699D01*
G01Y1422584D01*
G03X500398Y1420750I801J-1834D01*
G01Y1417250D01*
G03X500837Y1416000I2002J1D01*
G03X500398Y1414750I1563J-1251D01*
G01Y1411250D01*
G03X500517Y1410571I2002J1D01*
G01X500560Y1410452D01*
X500084Y1409975D01*
G02X499402Y1410258I-282J283D01*
G01Y1463000D01*
G03X498698Y1464698I-2402J-1D01*
G01X494698Y1468698D01*
G03X493000Y1469402I-1699J-1698D01*
G01X482254D01*
G03X480556Y1468698I1J-2402D01*
G01X446184Y1434326D01*
X421891D01*
G02X421510Y1434850I0J400D01*
G03X421608Y1435468I-1903J619D01*
G01Y1438224D01*
G03X420240Y1440122I-2001J0D01*
G02X420105Y1440334I64J190D01*
G03X420108Y1440390I-499J55D01*
G01Y1443146D01*
G03X419606Y1443648I-502J0D01*
G01X412520D01*
G03X412018Y1443146I0J-502D01*
G01Y1440390D01*
G03X412021Y1440334I502J-1D01*
G02X411886Y1440122I-199J-22D01*
G03X410518Y1438224I633J-1898D01*
G01Y1435468D01*
G03X410639Y1434784I2001J1D01*
G02X410357Y1434258I-376J-137D01*
G03X409227Y1433623I568J-2333D01*
G01X396302Y1420698D01*
G03X395598Y1419000I1698J-1699D01*
G01Y1395995D01*
X388741Y1389137D01*
X388641Y1389153D01*
G03X388000Y1389202I-640J-4153D01*
G03X387910Y1389201I2J-4202D01*
G02X387502Y1389601I-8J400D01*
G01Y1399677D01*
G03X388195Y1401755I-3502J2322D01*
G03X389538Y1402494I-603J2685D01*
G01X390608Y1403564D01*
G03X391379Y1405078I-1947J1945D01*
G01X391479Y1405707D01*
G03X391514Y1406139I-2717J438D01*
G01Y1426622D01*
X402699Y1437808D01*
X402788Y1437803D01*
G03X403000Y1437798I205J4197D01*
G03X398798Y1442000I0J4202D01*
G03X398803Y1441788I4202J-7D01*
G01X398808Y1441699D01*
X386816Y1429708D01*
G03X386010Y1427762I1946J-1946D01*
G01Y1407163D01*
X385853Y1407128D01*
G03X384494Y1406386I586J-2689D01*
G01X384301Y1406192D01*
X384212Y1406197D01*
G03X384000Y1406202I-205J-4197D01*
G03X379798Y1402000I0J-4202D01*
G03X380498Y1399677I4202J-1D01*
G01Y1389047D01*
G03X379798Y1386947I2802J-2101D01*
G01Y1383053D01*
G03X380498Y1380953I3502J1D01*
G01Y1357450D01*
X379550Y1356502D01*
X376323D01*
G03X374000Y1357202I-2322J-3502D01*
G03X371677Y1356502I-1J-4202D01*
G01X341369D01*
G02X341119Y1357214I0J400D01*
G03X342702Y1360500I-2619J3286D01*
G03X342402Y1362060I-4202J1D01*
G01Y1367005D01*
X345682Y1370286D01*
G03X346386Y1371984I-1698J1699D01*
G01Y1379568D01*
G03X348186Y1383016I-2402J3448D01*
G03X339782I-4202J0D01*
G03X341582Y1379568I4202J0D01*
G01Y1372979D01*
X338302Y1369698D01*
G03X337598Y1368000I1698J-1699D01*
G01Y1364607D01*
X337449Y1364568D01*
G03X335214Y1363119I1050J-4068D01*
G02X334502Y1363369I-312J250D01*
G01Y1401677D01*
G03X335202Y1404000I-3502J2322D01*
G03X334502Y1406323I-4202J1D01*
G01Y1424050D01*
X343833Y1433381D01*
X343890Y1433393D01*
G03X347202Y1437500I-890J4107D01*
G03X343000Y1441702I-4202J0D01*
G03X338893Y1438390I0J-4202D01*
G01X338881Y1438333D01*
X328524Y1427976D01*
G03X327498Y1425500I2475J-2476D01*
G01Y1406323D01*
G03X326798Y1404000I3502J-2322D01*
G03X327498Y1401677I4202J-1D01*
G01Y1364002D01*
X315941D01*
G03X313000Y1365202I-2940J-3002D01*
G03Y1356798I0J-4202D01*
G03X315941Y1357998I1J4202D01*
G01X328127D01*
G03X328524Y1357524I2872J2003D01*
G01X335524Y1350524D01*
G03X336059Y1350086I2475J2477D01*
G02X336068Y1349427I-222J-333D01*
G03X335052Y1348402I2432J-3427D01*
G01X330598D01*
G02X330198Y1348819I-1J400D01*
G03X330202Y1349000I-4198J183D01*
G03X326000Y1344798I-4202J0D01*
G03X326641Y1344847I1J4202D01*
G01X326741Y1344863D01*
X327302Y1344302D01*
G03X329000Y1343598I1699J1698D01*
G01X335052D01*
G03X338500Y1341798I3448J2402D01*
G03X342702Y1346000I0J4202D01*
G03X341607Y1348829I-4202J0D01*
G02X341903Y1349498I296J269D01*
G01X371677D01*
G03X374000Y1348798I2322J3502D01*
G03X376323Y1349498I1J4202D01*
G01X381550D01*
X389964Y1341084D01*
G02X389681Y1340402I-283J-282D01*
G01X386000D01*
G03X384302Y1339698I1J-2402D01*
G01X383005Y1338402D01*
X365448D01*
G03X362000Y1340202I-3448J-2402D01*
G03Y1331798I0J-4202D01*
G03X365448Y1333598I0J4202D01*
G01X384000D01*
G03X385698Y1334302I-1J2402D01*
G01X386995Y1335598D01*
X395552D01*
G03X399000Y1333798I3448J2402D01*
G03X403202Y1338000I0J4202D01*
G03X403081Y1339003I-4202J2D01*
G02X403469Y1339498I388J95D01*
G01X414677D01*
G03X416110Y1338893I2323J3502D01*
G01X416167Y1338881D01*
X419998Y1335050D01*
Y1328243D01*
X400257Y1308502D01*
X395441D01*
G03X392500Y1309702I-2940J-3002D01*
G03Y1301298I0J-4202D01*
G03X395441Y1302498I1J4202D01*
G01X401500D01*
G03X403622Y1303378I-1J3001D01*
G01X425122Y1324878D01*
G03X426002Y1327000I-2121J2123D01*
G01Y1330498D01*
X445998D01*
Y1330065D01*
X445930Y1330005D01*
G03X445353Y1329139I1320J-1505D01*
G01X445307Y1329002D01*
X444998D01*
Y1328936D01*
G03X444750Y1329002I-249J-436D01*
G01X440250D01*
G03X439748Y1328500I0J-502D01*
G01Y1323500D01*
G03X440250Y1322998I502J0D01*
G01X444750D01*
G03X444998Y1323064I-1J502D01*
G01Y1322998D01*
X445307D01*
X445353Y1322861D01*
G03X446498Y1321645I1897J639D01*
G01Y1320252D01*
X438250D01*
G03X436382Y1318970I0J-2002D01*
G02X435894Y1318730I-374J143D01*
G03X435750Y1318752I-147J-480D01*
G01X433250D01*
G03X432748Y1318250I0J-502D01*
G01Y1310750D01*
G03X433250Y1310248I502J0D01*
G01X435750D01*
G03X435894Y1310270I-3J502D01*
G02X436382Y1310030I114J-383D01*
G03X438250Y1308748I1868J720D01*
G01X439356D01*
X443019Y1305084D01*
G02X442737Y1304402I-283J-282D01*
G01X420000D01*
G03X418302Y1303698I1J-2402D01*
G01X414302Y1299698D01*
G03X413606Y1298185I1698J-1698D01*
G01X413591Y1298000D01*
X380612D01*
G02X380239Y1298544I0J400D01*
G03X380400Y1299407I-2241J865D01*
G01Y1316902D01*
G03X379696Y1318600I-2402J-1D01*
G01X377748Y1320548D01*
G03X376651Y1321175I-1698J-1698D01*
G01X376502Y1321214D01*
Y1328250D01*
G03X374500Y1330252I-2002J0D01*
G01X367500D01*
G03X365498Y1328250I0J-2002D01*
G01Y1319750D01*
G03X365661Y1318959I2001J0D01*
G02X365294Y1318402I-367J-157D01*
G01X360448D01*
G03X360300Y1318601I-3444J-2407D01*
G02X360614Y1319248I314J247D01*
G01X364500D01*
G03X365002Y1319750I0J502D01*
G01Y1328250D01*
G03X364500Y1328752I-502J0D01*
G01X357500D01*
G03X356998Y1328250I0J-502D01*
G01Y1320202D01*
G03X355084Y1319740I2J-4202D01*
G02X354502Y1320096I-182J356D01*
G01Y1328250D01*
G03X352500Y1330252I-2002J0D01*
G01X345500D01*
G03X343498Y1328250I0J-2002D01*
G01Y1319750D01*
G03X343760Y1318762I2001J2D01*
G02X343463Y1318168I-348J-197D01*
G03X341533Y1317402I537J-4168D01*
G01X331845D01*
X331682Y1317564D01*
G02X331721Y1318164I283J283D01*
G03X332502Y1319750I-1220J1586D01*
G01Y1328250D01*
G03X330500Y1330252I-2002J0D01*
G01X323500D01*
G03X321498Y1328250I0J-2002D01*
G01Y1319750D01*
G03X323500Y1317748I2002J0D01*
G01X324866D01*
G03X325302Y1317152I2133J1103D01*
G01X329152Y1313302D01*
G03X330850Y1312598I1699J1698D01*
G01X340039D01*
G03X344000Y1309798I3961J1402D01*
G03X348164Y1313439I0J4202D01*
G02X348844Y1313668I397J-53D01*
G01X352403Y1310109D01*
G03X354101Y1309406I1698J1699D01*
G01X369598D01*
Y1308995D01*
X369005Y1308402D01*
X349100D01*
G03X348849Y1308388I8J-2402D01*
G01X348754Y1308378D01*
G03X347478Y1307844I250J-2388D01*
G01X347393Y1307774D01*
G03X347222Y1307618I1531J-1850D01*
G01X347005Y1307402D01*
X317100D01*
G03X316849Y1307388I8J-2402D01*
G01X316754Y1307378D01*
G03X315480Y1306845I251J-2388D01*
G01X315390Y1306771D01*
G03X315221Y1306618I1525J-1855D01*
G01X315005Y1306404D01*
X312447D01*
G03X309000Y1308202I-3447J-2405D01*
G03X304798Y1304000I0J-4202D01*
G03X307759Y1299985I4203J0D01*
G02X307924Y1299320I-118J-382D01*
G01X307741Y1299137D01*
X307641Y1299153D01*
G03X307000Y1299202I-640J-4153D01*
G03Y1290798I0J-4202D01*
G03X308461Y1291060I0J4202D01*
G02X309000Y1290685I139J-375D01*
G01Y1280068D01*
G02X308409Y1279717I-400J0D01*
G03X306500Y1280202I-1910J-3517D01*
G03X302498Y1276200I0J-4002D01*
G01Y1268200D01*
G03X306500Y1264198I4002J0D01*
G03X308409Y1264683I-1J4002D01*
G02X309000Y1264332I191J-351D01*
G01Y1261000D01*
X306000Y1258000D01*
X295921D01*
G02X295565Y1258582I0J400D01*
G03X296002Y1260400I-3565J1818D01*
G03X292000Y1264402I-4002J0D01*
G01X284000D01*
G03X279998Y1260400I0J-4002D01*
G03X280435Y1258582I4002J0D01*
G02X280079Y1258000I-356J-182D01*
G01X272000D01*
X253000Y1277000D01*
Y1440410D01*
G02X253756Y1440592I400J0D01*
G03X257378Y1438300I3744J1908D01*
G01X257458Y1438297D01*
X272797Y1422958D01*
X272800Y1422878D01*
G03X277000Y1418798I4200J122D01*
G03X281202Y1423000I0J4202D01*
G03X277122Y1427200I-4202J0D01*
G01X277042Y1427203D01*
X261703Y1442542D01*
X261700Y1442622D01*
G03X257500Y1446702I-4200J-122D01*
G03X253756Y1444408I0J-4202D01*
G02X253000Y1444590I-356J182D01*
G01Y1447000D01*
X258000Y1452000D01*
X283000D01*
X285000Y1454000D01*
Y1459405D01*
G02X285771Y1459555I400J0D01*
G03X291795Y1455498I6024J2444D01*
G03X298296Y1462000I0J6501D01*
G01Y1466000D01*
G03X291795Y1472502I-6502J0D01*
G03X285771Y1468445I0J-6501D01*
G02X285000Y1468595I-371J150D01*
G01Y1474000D01*
X289000Y1478000D01*
X429742D01*
Y1468126D01*
G03X430244Y1467624I502J0D01*
G01X431364D01*
Y1467238D01*
X431178Y1467225D01*
G03X429421Y1465862I141J-1996D01*
G02X429209Y1465727I-190J64D01*
G03X429154Y1465730I-55J-499D01*
G01X426398D01*
G03X425896Y1465228I0J-502D01*
G01Y1458142D01*
G03X426398Y1457640I502J0D01*
G01X429154D01*
G03X429209Y1457643I0J502D01*
G02X429421Y1457508I22J-199D01*
G03X431319Y1456140I1898J633D01*
G01X434075D01*
G03X435973Y1457508I0J2001D01*
G02X436185Y1457643I190J-64D01*
G03X436240Y1457640I55J499D01*
G01X438996D01*
G03X439051Y1457643I0J502D01*
G02X439263Y1457508I22J-199D01*
G03X441161Y1456140I1898J633D01*
G01X443917D01*
G03X445815Y1457508I0J2001D01*
G02X446027Y1457643I190J-64D01*
G03X446083Y1457640I55J499D01*
G01X448839D01*
G03X449340Y1458142I0J501D01*
G01Y1465228D01*
G03X448839Y1465730I-501J1D01*
G01X446040D01*
Y1466238D01*
X446161Y1466291D01*
G03X447364Y1468126I-798J1835D01*
G01Y1478000D01*
X450530D01*
Y1468126D01*
G03X451032Y1467624I502J0D01*
G01X455756D01*
G03X456258Y1468126I0J502D01*
G01Y1478000D01*
G37*
G36*
G01X343002Y1293000D02*
X343498D01*
Y1287750D01*
G03X345500Y1285748I2002J0D01*
G01X351105D01*
X351399Y1285455D01*
G03X351586Y1285286I1702J1695D01*
G01X351628Y1285252D01*
G03X352892Y1284730I1511J1867D01*
G01X352950Y1284724D01*
G03X353197Y1284712I240J2389D01*
G01X354891D01*
X356301Y1283302D01*
G03X356341Y1283263I1696J1700D01*
G01X356343Y1283261D01*
X361302Y1278302D01*
G03X363000Y1277598I1699J1698D01*
G01X367398D01*
Y1276600D01*
G03X367668Y1275596I2002J0D01*
G02X367295Y1274997I-346J-200D01*
G03X367158Y1275002I-141J-1997D01*
G01X357158D01*
G03X355156Y1273000I0J-2002D01*
G01Y1263000D01*
G03X357158Y1260998I2002J0D01*
G01X367158D01*
G03X369160Y1263000I0J2002D01*
G01Y1265598D01*
X370000D01*
G03X371698Y1266302I-1J2402D01*
G01X377698Y1272302D01*
G03X378321Y1273382I-1697J1699D01*
G03X379602Y1275250I-721J1868D01*
G01Y1284750D01*
G03X377600Y1286752I-2002J0D01*
G01X376826D01*
G02X376438Y1287252I-1J400D01*
G03X376502Y1287750I-1937J502D01*
G01Y1289598D01*
X403005D01*
X407598Y1285005D01*
Y1284273D01*
X407580Y1284234D01*
G03X407398Y1283400I1820J-834D01*
G01Y1276600D01*
G03X407668Y1275596I2002J0D01*
G02X407295Y1274997I-346J-200D01*
G03X407158Y1275002I-141J-1997D01*
G01X397158D01*
G03X395156Y1273000I0J-2002D01*
G01Y1263000D01*
G03X397158Y1260998I2002J0D01*
G01X407158D01*
G03X409160Y1263000I0J2002D01*
G01Y1265598D01*
X409650D01*
G03X411348Y1266302I-1J2402D01*
G01X417698Y1272652D01*
G03X418175Y1273332I-1698J1698D01*
G03X419602Y1275250I-575J1918D01*
G01Y1276432D01*
G02X420285Y1276715I400J0D01*
G01X422861Y1274139D01*
G02X422529Y1273459I-282J-283D01*
G03X421842Y1273502I-687J-5459D01*
G03X427344Y1268000I0J-5502D01*
G03X427301Y1268687I-5502J0D01*
G02X427981Y1269019I397J50D01*
G01X431000Y1266000D01*
Y1255000D01*
X428000Y1252000D01*
X315000D01*
X312000Y1255000D01*
Y1268074D01*
G03X312002Y1268200I-5500J150D01*
G01Y1276200D01*
G03X312000Y1276326I-5502J-24D01*
G01Y1293000D01*
X312998D01*
Y1287750D01*
G03X313500Y1287248I502J0D01*
G01X320500D01*
G03X321002Y1287750I0J502D01*
G01Y1293000D01*
X321498D01*
Y1287750D01*
G03X323500Y1285748I2002J0D01*
G01X327598D01*
Y1284272D01*
G03X327398Y1283400I1801J-872D01*
G01Y1276600D01*
G03X327668Y1275596I2002J0D01*
G02X327295Y1274997I-346J-200D01*
G03X327158Y1275002I-141J-1997D01*
G01X317158D01*
G03X315156Y1273000I0J-2002D01*
G01Y1263000D01*
G03X317158Y1260998I2002J0D01*
G01X327158D01*
G03X329160Y1263000I0J2002D01*
G01Y1265598D01*
X329650D01*
G03X331348Y1266302I-1J2402D01*
G01X337698Y1272652D01*
G03X338175Y1273332I-1698J1698D01*
G03X339602Y1275250I-575J1918D01*
G01Y1284750D01*
G03X337600Y1286752I-2002J0D01*
G01X334400D01*
G03X333068Y1286244I1J-2002D01*
G02X332402Y1286543I-266J299D01*
G01Y1287125D01*
X332411Y1287154D01*
G03X332502Y1287750I-1911J597D01*
G01Y1293000D01*
X334998D01*
Y1287750D01*
G03X335500Y1287248I502J0D01*
G01X342500D01*
G03X343002Y1287750I0J502D01*
G01Y1293000D01*
G37*
G36*
G01X354502D02*
X356998D01*
Y1289822D01*
G02X356497Y1289436I-400J1D01*
G03X355886Y1289514I-607J-2323D01*
G01X354502D01*
Y1293000D01*
G37*
G36*
G01X365002D02*
X365498D01*
Y1287750D01*
G03X367500Y1285748I2002J0D01*
G01X367996D01*
G02X368230Y1285024I0J-400D01*
G03X367398Y1283400I1169J-1624D01*
G01Y1282402D01*
X363995D01*
X359698Y1286698D01*
G03X359658Y1286737I-1696J-1700D01*
G01X359656Y1286739D01*
X359488Y1286907D01*
G02X359630Y1287248I142J141D01*
G01X364500D01*
G03X365002Y1287750I0J502D01*
G01Y1293000D01*
G37*
G36*
G01X446502Y1425306D02*
X463964Y1442767D01*
G02X464640Y1442558I283J-283D01*
G03X465302Y1441302I2360J442D01*
G01X466534Y1440070D01*
G03X468232Y1439366I1699J1698D01*
G01X468404D01*
G02X468585Y1439081I0J-200D01*
G03X468392Y1438224I1808J-857D01*
G01Y1435468D01*
G03X468710Y1434386I2001J0D01*
G03X468392Y1433303I1684J-1083D01*
G01Y1430547D01*
G03X468710Y1429464I2002J0D01*
G03X468392Y1428382I1683J-1082D01*
G01Y1425626D01*
G03X468710Y1424544I2001J0D01*
G03X468392Y1423461I1684J-1083D01*
G01Y1420705D01*
G03X468710Y1419622I2002J0D01*
G03X468392Y1418539I1684J-1083D01*
G01Y1415783D01*
G03X468710Y1414700I2002J0D01*
G03X468392Y1413618I1683J-1082D01*
G01Y1410862D01*
G03X468710Y1409780I2001J0D01*
G03X468392Y1408697I1684J-1083D01*
G01Y1405941D01*
G03X469760Y1404043I2001J0D01*
G02X469895Y1403831I-64J-190D01*
G03X469892Y1403776I499J-55D01*
G01Y1401020D01*
G03X469895Y1400964I502J-1D01*
G02X469760Y1400752I-199J-22D01*
G03X468392Y1398854I633J-1898D01*
G01Y1396098D01*
G03X468710Y1395016I2001J0D01*
G03X468392Y1393933I1684J-1083D01*
G01Y1391177D01*
G03X468710Y1390094I2002J0D01*
G03X468392Y1389012I1683J-1082D01*
G01Y1386256D01*
G03X468523Y1385543I2002J-1D01*
G02X468150Y1385000I-373J-143D01*
G01X464000D01*
Y1378052D01*
G02X463782Y1377852I-200J-1D01*
G03X463602Y1377860I-179J-1994D01*
G01X456682D01*
G02X456449Y1378585I0J400D01*
G03X458202Y1382000I-2450J3415D01*
G03X449798I-4202J0D01*
G03X451551Y1378585I4203J0D01*
G02X451318Y1377860I-233J-325D01*
G01X446083D01*
G03X444184Y1376492I0J-2002D01*
G02X443972Y1376357I-190J64D01*
G03X443917Y1376360I-55J-499D01*
G01X441161D01*
G03X441106Y1376357I0J-502D01*
G02X440895Y1376492I-21J199D01*
G03X438996Y1377860I-1899J-634D01*
G01X431319D01*
G03X429420Y1376492I0J-2002D01*
G02X429209Y1376357I-190J64D01*
G03X429154Y1376360I-55J-499D01*
G01X426398D01*
G03X425896Y1375858I0J-502D01*
G01Y1368772D01*
G03X426398Y1368270I502J0D01*
G01X429154D01*
G03X429209Y1368273I0J502D01*
G02X429420Y1368138I21J-199D01*
G03X431319Y1366770I1899J634D01*
G01X434616D01*
Y1365361D01*
X433378Y1364122D01*
G03X432521Y1362364I2122J-2122D01*
G03X431353Y1361139I729J-1864D01*
G01X431307Y1361002D01*
X430998D01*
Y1360936D01*
G03X430750Y1361002I-249J-436D01*
G01X426250D01*
G03X425748Y1360500I0J-502D01*
G01Y1355500D01*
G03X426250Y1354998I502J0D01*
G01X430750D01*
G03X430998Y1355064I-1J502D01*
G01Y1354998D01*
X431307D01*
X431353Y1354861D01*
G03X432498Y1353645I1897J639D01*
G01Y1353355D01*
G03X431353Y1352139I752J-1855D01*
G01X431307Y1352002D01*
X430998D01*
Y1351936D01*
G03X430750Y1352002I-249J-436D01*
G01X426250D01*
G03X425748Y1351500I0J-502D01*
G01Y1346500D01*
G03X426250Y1345998I502J0D01*
G01X430750D01*
G03X430998Y1346064I-1J502D01*
G01Y1345998D01*
X431307D01*
X431353Y1345861D01*
G03X432612Y1344603I1897J639D01*
G01X432748Y1344557D01*
Y1337502D01*
X427450D01*
X421119Y1343833D01*
X421107Y1343890D01*
G03X417000Y1347202I-4107J-890D01*
G03X414677Y1346502I-1J-4202D01*
G01X394450D01*
X386908Y1354044D01*
X386990Y1354178D01*
G03X387502Y1356000I-2990J1823D01*
G01Y1380399D01*
G02X387910Y1380799I400J0D01*
G03X388000Y1380798I92J4201D01*
G03X390864Y1381925I0J4203D01*
G02X391136I136J-146D01*
G03X394000Y1380798I2864J3076D01*
G03X398202Y1385000I0J4202D01*
G03X398153Y1385641I-4202J1D01*
G01X398137Y1385741D01*
X401698Y1389302D01*
G03X402402Y1391000I-1698J1699D01*
G01Y1416013D01*
X410569Y1424181D01*
G02X411130Y1424186I283J-283D01*
G03X411886Y1423728I1389J1440D01*
G02X412021Y1423516I-64J-190D01*
G03X412018Y1423461I499J-55D01*
G01Y1420705D01*
G03X412021Y1420649I502J-1D01*
G02X411886Y1420437I-199J-22D01*
G03X410518Y1418539I633J-1898D01*
G01Y1415783D01*
G03X410836Y1414700I2002J0D01*
G03X410518Y1413618I1683J-1082D01*
G01Y1410862D01*
G03X410836Y1409780I2001J0D01*
G03X410518Y1408697I1684J-1083D01*
G01Y1405941D01*
G03X410836Y1404858I2002J0D01*
G03X410518Y1403776I1683J-1082D01*
G01Y1401020D01*
G03X410836Y1399937I2002J0D01*
G03X410518Y1398854I1684J-1083D01*
G01Y1396098D01*
G03X410836Y1395016I2001J0D01*
G03X410518Y1393933I1684J-1083D01*
G01Y1391177D01*
G03X411886Y1389279I2001J0D01*
G02X412021Y1389067I-64J-190D01*
G03X412018Y1389012I499J-55D01*
G01Y1386256D01*
G03X412520Y1385754I502J0D01*
G01X419606D01*
G03X420108Y1386256I0J502D01*
G01Y1389012D01*
G03X420105Y1389067I-502J0D01*
G02X420240Y1389279I199J22D01*
G03X421608Y1391177I-633J1898D01*
G01Y1393933D01*
G03X421290Y1395016I-2002J0D01*
G03X421608Y1396098I-1683J1082D01*
G01Y1398854D01*
G03X421290Y1399937I-2002J0D01*
G03X421608Y1401020I-1684J1083D01*
G01Y1403776D01*
G03X421290Y1404858I-2001J0D01*
G03X421608Y1405941I-1684J1083D01*
G01Y1408697D01*
G03X421290Y1409780I-2002J0D01*
G03X421608Y1410862I-1683J1082D01*
G01Y1413618D01*
G03X421290Y1414700I-2001J0D01*
G03X421608Y1415783I-1684J1083D01*
G01Y1418539D01*
G03X420240Y1420437I-2001J0D01*
G02X420105Y1420649I64J190D01*
G03X420108Y1420705I-499J55D01*
G01Y1423461D01*
G03X420105Y1423516I-502J0D01*
G02X420240Y1423728I199J22D01*
G03X421327Y1424602I-632J1899D01*
G01X444804D01*
G03X446502Y1425306I-1J2402D01*
G37*
G36*
G01X479167Y1331248D02*
X480248D01*
Y1328233D01*
G03X479353Y1327139I1002J-1733D01*
G01X479307Y1327002D01*
X478998D01*
Y1326936D01*
G03X478750Y1327002I-249J-436D01*
G01X474250D01*
G03X473748Y1326500I0J-502D01*
G01Y1321500D01*
G03X474250Y1320998I502J0D01*
G01X478750D01*
G03X478998Y1321064I-1J502D01*
G01Y1320998D01*
X479307D01*
X479353Y1320861D01*
G03X479377Y1320793I1899J632D01*
G02X479003Y1320252I-374J-141D01*
G01X472250D01*
G03X470382Y1318970I0J-2002D01*
G02X469894Y1318730I-374J143D01*
G03X469750Y1318752I-147J-480D01*
G01X467250D01*
G03X466748Y1318250I0J-502D01*
G01Y1310594D01*
X462193D01*
G03X460774Y1310130I0J-2402D01*
G03X460000Y1310202I-775J-4130D01*
G03Y1301798I0J-4202D01*
G03X463200Y1303276I0J4203D01*
G02X463895Y1303102I304J-259D01*
G03X466364Y1300130I4105J898D01*
G02X466535Y1299531I-156J-368D01*
G03X466248Y1298983I1966J-1379D01*
G03X465394Y1298000I1002J-1733D01*
G01X459745D01*
G03X459698Y1298048I-1739J-1656D01*
G01X449681Y1308065D01*
G02X449964Y1308748I283J283D01*
G01X450750D01*
G03X452752Y1310750I0J2002D01*
G01Y1318250D01*
G03X452502Y1319220I-2002J1D01*
G01Y1321645D01*
G03X453752Y1323500I-751J1855D01*
G01Y1328500D01*
G03X453284Y1329785I-2002J-1D01*
G03X453438Y1330336I-3284J1215D01*
G01X453469Y1330498D01*
X477000D01*
G03X479113Y1331208I-1J3502D01*
G01X479167Y1331248D01*
G37*
G36*
G01X443917Y1368270D02*
G03X443972Y1368273I0J502D01*
G02X444184Y1368138I22J-199D01*
G03X445060Y1367051I1899J634D01*
G01Y1365000D01*
G03X445763Y1363302I2402J0D01*
G01X447763Y1361302D01*
G03X449461Y1360598I1699J1698D01*
G01X453691D01*
G02X453979Y1359921I0J-400D01*
G03X452798Y1357000I3022J-2921D01*
G03X457000Y1352798I4202J0D01*
G03X460448Y1354598I0J4202D01*
G01X465355D01*
X465652Y1354302D01*
G03X466248Y1353866I1699J1697D01*
G01Y1353500D01*
G03X466744Y1352182I2002J1D01*
G02Y1351919I-151J-131D01*
G03X466248Y1350600I1506J-1319D01*
G01Y1347400D01*
G03X468250Y1345398I2002J0D01*
G01X473248D01*
Y1337502D01*
X438252D01*
Y1344557D01*
X438388Y1344603D01*
G03X439752Y1346500I-637J1897D01*
G01Y1351500D01*
G03X438502Y1353355I-2001J0D01*
G01Y1353645D01*
G03X439752Y1355500I-751J1855D01*
G01Y1360500D01*
G03X439474Y1361517I-2002J-1D01*
G01X439395Y1361650D01*
X439740Y1361996D01*
G03X440620Y1364118I-2121J2123D01*
G01Y1367600D01*
G03X440895Y1368138I-1625J1170D01*
G02X441106Y1368273I190J-64D01*
G03X441161Y1368270I55J499D01*
G01X443917D01*
G37*
G36*
G01X435470Y1478000D02*
X438636D01*
Y1468126D01*
G03X439038Y1466924I2002J1D01*
G01Y1465730D01*
X436240D01*
G03X436185Y1465727I0J-502D01*
G02X435973Y1465862I-22J199D01*
G03X434216Y1467225I-1898J-633D01*
G01X434030Y1467238D01*
Y1467624D01*
X434968D01*
G03X435470Y1468126I0J502D01*
G01Y1478000D01*
G37*
G36*
G01X490443Y1393518D02*
G03X493327Y1396234I-2442J5483D01*
G02X494082Y1396050I355J-184D01*
G01Y1375714D01*
G02X493401Y1375429I-400J0D01*
G03X492000Y1376002I-1402J-1429D01*
G01X484000D01*
G03X481998Y1374000I0J-2002D01*
G01Y1366000D01*
G03X483081Y1364222I2001J0D01*
G02X483216Y1363625I-184J-355D01*
G03X481998Y1360000I4785J-3625D01*
G03X485557Y1354518I6002J0D01*
G02X485607Y1353813I-162J-366D01*
G03X483498Y1350000I2392J-3813D01*
G03X492502I4502J0D01*
G03X490393Y1353813I-4501J0D01*
G02X490443Y1354518I212J339D01*
G03X493327Y1357234I-2442J5483D01*
G02X494082Y1357050I355J-184D01*
G01Y1345973D01*
X484860Y1336752D01*
X479166D01*
G03X478752Y1337032I-2164J-2753D01*
G01Y1345667D01*
G03X479752Y1347400I-1002J1733D01*
G01Y1350600D01*
G03X478861Y1352266I-2003J0D01*
G02X479082Y1352998I222J332D01*
G01X479750D01*
G03X480252Y1353500I0J502D01*
G01Y1358500D01*
G03X479750Y1359002I-502J0D01*
G01X475250D01*
G03X475002Y1358936I1J-502D01*
G01Y1359002D01*
X474693D01*
X474647Y1359139D01*
G03X472750Y1360502I-1897J-639D01*
G01X472018D01*
Y1360822D01*
X472125Y1360878D01*
G03X472698Y1361302I-1126J2121D01*
G01X479698Y1368302D01*
G03X480402Y1370000I-1698J1699D01*
G01Y1378203D01*
X483698Y1381500D01*
G03X484402Y1383198I-1698J1699D01*
G01Y1385285D01*
G02X485062Y1385588I400J0D01*
G03X488000Y1384498I2937J3412D01*
G03X492502Y1389000I0J4502D01*
G03X490393Y1392813I-4501J0D01*
G02X490443Y1393518I212J339D01*
G37*
%LPC*%
G75*
G36*
G01X412018Y1445311D02*
Y1448067D01*
G02X412520Y1448568I501J0D01*
G01X419606D01*
G02X420108Y1448067I1J-501D01*
G01Y1445311D01*
G02X419606Y1444810I-501J0D01*
G01X412520D01*
G02X412018Y1445311I-1J501D01*
G37*
G36*
G01X450502Y1458142D02*
Y1465228D01*
G02X451004Y1465730I502J0D01*
G01X453760D01*
G02X454262Y1465228I0J-502D01*
G01Y1458142D01*
G02X453760Y1457640I-502J0D01*
G01X451004D01*
G02X450502Y1458142I0J502D01*
G37*
G36*
G01X498082Y1291589D02*
Y1292789D01*
G02X498583Y1293290I501J0D01*
G01X505383D01*
G02X505884Y1292789I0J-501D01*
G01Y1291589D01*
G02X505383Y1291088I-501J0D01*
G01X498583D01*
G02X498082Y1291589I0J501D01*
G37*
G36*
G01X334998Y1319750D02*
Y1328250D01*
G02X335500Y1328752I502J0D01*
G01X342500D01*
G02X343002Y1328250I0J-502D01*
G01Y1319750D01*
G02X342500Y1319248I-502J0D01*
G01X335500D01*
G02X334998Y1319750I0J502D01*
G37*
G36*
G01X312998D02*
Y1328250D01*
G02X313500Y1328752I502J0D01*
G01X320500D01*
G02X321002Y1328250I0J-502D01*
G01Y1319750D01*
G02X320500Y1319248I-502J0D01*
G01X313500D01*
G02X312998Y1319750I0J502D01*
G37*
G36*
G01X282500Y1289502D02*
X293500D01*
G02Y1278498I0J-5502D01*
G01X282500D01*
G02Y1289502I0J5502D01*
G37*
G36*
G01X506998Y1289315D02*
Y1299315D01*
G02X509000Y1301316I2002J-1D01*
G01X519000D01*
G02X521002Y1299315I1J-2001D01*
G01Y1289315D01*
G02X519000Y1287314I-2002J1D01*
G01X509000D01*
G02X506998Y1289315I-1J2001D01*
G37*
G36*
G01X496582Y1319589D02*
Y1320789D01*
G02X498583Y1322790I2001J0D01*
G01X505383D01*
G02X507384Y1320789I0J-2001D01*
G01Y1319589D01*
G02X505383Y1317588I-2001J0D01*
G01X505319D01*
G03X505031Y1316910I0J-400D01*
G02X505376Y1316502I-3030J-2912D01*
G01X507460D01*
G02X514000Y1321002I6540J-2502D01*
G02Y1306998I0J-7002D01*
G02X507460Y1311498I0J7002D01*
G01X505376D01*
G02X504887Y1310947I-3375J2503D01*
G01X504824Y1310888D01*
Y1310602D01*
X505400D01*
G02X507402Y1308600I0J-2002D01*
G01Y1307400D01*
G02X505400Y1305398I-2002J0D01*
G01X498600D01*
G02X496598Y1307400I0J2002D01*
G01Y1308600D01*
G02X498600Y1310602I2002J0D01*
G01X499176D01*
Y1310888D01*
X499113Y1310947D01*
G02X497798Y1314000I2887J3053D01*
G02X498969Y1316910I4201J0D01*
G03X498681Y1317588I-288J278D01*
G01X498583D01*
G02X496582Y1319589I0J2001D01*
G37*
G36*
G01X458736Y1465727D02*
G03X458948Y1465862I22J199D01*
G02X460846Y1467230I1898J-633D01*
G01X463602D01*
G02X465604Y1465228I0J-2002D01*
G01Y1458142D01*
G02X463602Y1456140I-2002J0D01*
G01X460846D01*
G02X458948Y1457508I0J2001D01*
G03X458736Y1457643I-190J-64D01*
G02X458681Y1457640I-55J499D01*
G01X455925D01*
G02X455424Y1458142I0J501D01*
G01Y1465228D01*
G02X455925Y1465730I501J1D01*
G01X458681D01*
G02X458736Y1465727I0J-502D01*
G37*
G36*
G01X388813Y1473393D02*
G03X389518Y1473443I339J212D01*
G02X395000Y1477002I5482J-2443D01*
G02X399688Y1474748I0J-6002D01*
G03X400312I312J250D01*
G02X405000Y1477002I4688J-3748D01*
G02Y1464998I0J-6002D01*
G02X400312Y1467252I0J6002D01*
G03X399688I-312J-250D01*
G02X395000Y1464998I-4688J3748D01*
G02X389518Y1468557I0J6002D01*
G03X388813Y1468607I-366J-162D01*
G02X381187I-3813J2392D01*
G03X380482Y1468557I-339J-212D01*
G02X375000Y1464998I-5482J2443D01*
G02X371375Y1466216I0J6003D01*
G03X370778Y1466081I-242J-319D01*
G02X369000Y1464998I-1778J918D01*
G01X361000D01*
G02X358998Y1467000I0J2002D01*
G01Y1475000D01*
G02X361000Y1477002I2002J0D01*
G01X369000D01*
G02X370778Y1475919I0J-2001D01*
G03X371375Y1475784I355J184D01*
G02X375000Y1477002I3625J-4785D01*
G02X380482Y1473443I0J-6002D01*
G03X381187Y1473393I366J162D01*
G02X388813I3813J-2392D01*
G37*
G36*
G01X393088Y1276617D02*
Y1283417D01*
G02X393589Y1283918I501J0D01*
G01X394789D01*
G02X395290Y1283417I0J-501D01*
G01Y1276617D01*
G02X394789Y1276116I-501J0D01*
G01X393589D01*
G02X393088Y1276617I0J501D01*
G37*
G36*
G01X313088D02*
Y1283417D01*
G02X313589Y1283918I501J0D01*
G01X314789D01*
G02X315290Y1283417I0J-501D01*
G01Y1276617D01*
G02X314789Y1276116I-501J0D01*
G01X313589D01*
G02X313088Y1276617I0J501D01*
G37*
G36*
G01X353088D02*
Y1283417D01*
G02X353589Y1283918I501J0D01*
G01X354789D01*
G02X355290Y1283417I0J-501D01*
G01Y1276617D01*
G02X354789Y1276116I-501J0D01*
G01X353589D01*
G02X353088Y1276617I0J501D01*
G37*
G54D39*
X514000Y1393685D03*
Y1453685D03*
X341842Y1268000D03*
X381842D03*
%LPD*%
G75*
G54D10*
X256000Y1260000D03*
X258000Y1474000D03*
X524000Y1259000D03*
Y1473000D03*
G54D20*
X336000Y1283000D03*
Y1277000D03*
X376000Y1283000D03*
Y1277000D03*
X416000Y1283000D03*
Y1277000D03*
X504000Y1419000D03*
Y1413000D03*
G54D11*
X260000Y1317000D03*
X271000Y1357000D03*
X257500Y1442500D03*
X260000Y1429000D03*
X296700Y1311000D03*
X274000Y1370000D03*
Y1377000D03*
Y1383000D03*
X282000D03*
X274000Y1363000D03*
X277000Y1423000D03*
X304000Y1311000D03*
Y1320000D03*
X309000Y1304000D03*
X307000Y1295000D03*
X318000Y1342000D03*
X326000Y1349000D03*
X327000Y1324000D03*
X313000Y1361000D03*
X306000Y1404000D03*
X305000Y1396000D03*
X331000Y1404000D03*
X306000Y1415000D03*
X316000D03*
X344000Y1314000D03*
X357000Y1316000D03*
X345000Y1334000D03*
X338500Y1346000D03*
X362000Y1336000D03*
X356000Y1383000D03*
X343984Y1383016D03*
X338500Y1360500D03*
X356000Y1391000D03*
X348000D03*
X343000Y1437500D03*
X354000Y1472000D03*
X383000Y1315000D03*
X392500Y1305500D03*
X372000Y1314000D03*
X374000Y1353000D03*
X365000Y1383000D03*
X364000Y1374000D03*
X365000Y1391000D03*
X384000Y1402000D03*
X388000Y1385000D03*
X405000Y1321000D03*
X416000Y1294000D03*
X417000Y1343000D03*
X399000Y1338000D03*
X404000Y1369000D03*
X394000Y1385000D03*
X423000Y1422000D03*
X403000Y1442000D03*
X424000Y1290000D03*
X432000Y1286000D03*
X449000Y1341000D03*
X444000Y1402000D03*
Y1394000D03*
Y1412000D03*
Y1420000D03*
X425000Y1465000D03*
Y1471000D03*
X457000Y1321000D03*
X468000Y1304000D03*
X460000Y1306000D03*
X476000Y1302000D03*
X462000Y1350000D03*
X454000Y1382000D03*
X471685Y1372315D03*
X457000Y1357000D03*
X454000Y1409000D03*
Y1402000D03*
Y1394000D03*
Y1420000D03*
X473000Y1471000D03*
Y1464000D03*
X502000Y1314000D03*
Y1374000D03*
G54D30*
X501983Y1292189D03*
X502000Y1308000D03*
X501983Y1320189D03*
Y1348189D03*
X502000Y1336000D03*
Y1364000D03*
X501983Y1382189D03*
X502000Y1398000D03*
G54D21*
X341842Y1268000D03*
X381842D03*
X421842D03*
X461842D03*
X501842D03*
X514000Y1314000D03*
Y1333685D03*
Y1374000D03*
Y1393685D03*
Y1434000D03*
Y1453685D03*
G54D12*
X276205Y1464000D03*
G54D31*
X488000Y1370000D03*
G54D22*
X365000Y1471000D03*
X488000Y1459000D03*
G54D13*
X288000Y1260400D03*
G54D32*
G01X502000Y1314000D02*
X514000D01*
G01X501983Y1320189D02*
Y1317217D01*
X502000Y1317200D01*
Y1314000D01*
G01D02*
Y1308000D01*
G01Y1374000D02*
Y1380572D01*
X501983Y1380589D01*
Y1382189D01*
G01X502000Y1374000D02*
Y1364000D01*
G01Y1374000D02*
X514000D01*
G54D23*
X375000Y1471000D03*
X385000D03*
X395000D03*
X405000D03*
X488000Y1350000D03*
Y1360000D03*
Y1409000D03*
Y1399000D03*
Y1389000D03*
Y1429000D03*
Y1439000D03*
Y1419000D03*
Y1449000D03*
G54D14*
X288000Y1284000D03*
G54D33*
G01X257500Y1442500D02*
X277000Y1423000D01*
G01X319000Y1330000D02*
Y1326000D01*
X317000Y1324000D01*
G01X337000Y1329000D02*
X334000Y1332000D01*
X321000D01*
X319000Y1330000D01*
G01X331000Y1360000D02*
X330000Y1361000D01*
X313000D01*
G01X339000Y1324000D02*
Y1325000D01*
G01X361000Y1324000D02*
Y1324750D01*
X353750Y1332000D01*
G01X339000Y1325000D02*
X337000Y1327000D01*
Y1329000D01*
G01X339000Y1329750D02*
Y1325000D01*
G01X353750Y1332000D02*
X348233D01*
X346533Y1330300D01*
X343467D01*
X342767Y1331000D01*
X340250D01*
X339000Y1329750D01*
G01X423000Y1337000D02*
Y1327000D01*
X401500Y1305500D01*
X392500D01*
G01X434500Y1314500D02*
X432548D01*
G01X434500D02*
Y1310048D01*
G01X449500Y1326000D02*
Y1314500D01*
G01X428500Y1349000D02*
Y1358000D01*
G01X435500D02*
Y1349000D01*
G01X428500Y1358000D02*
Y1362000D01*
G01D02*
X427776Y1362724D01*
G01D02*
Y1372315D01*
G01X437618D02*
Y1364118D01*
X435500Y1362000D01*
Y1358000D01*
G01X432697Y1372315D02*
X437618D01*
G01X514000Y1354315D02*
Y1345200D01*
X504800Y1336000D01*
X502000D01*
G01X514000Y1354315D02*
X523000Y1363315D01*
Y1379000D01*
X518000Y1384000D01*
X510000D01*
X502000Y1392000D01*
Y1398000D01*
G54D24*
X416063Y1407319D03*
Y1402398D03*
Y1397476D03*
Y1392555D03*
Y1387634D03*
Y1441768D03*
Y1436846D03*
Y1431925D03*
Y1427004D03*
Y1422083D03*
Y1417161D03*
Y1412240D03*
Y1446689D03*
X473937Y1387634D03*
Y1392555D03*
Y1397476D03*
Y1402398D03*
Y1407319D03*
Y1412240D03*
Y1417161D03*
Y1422083D03*
Y1427004D03*
Y1431925D03*
Y1436846D03*
Y1441768D03*
Y1446689D03*
G54D15*
X291795Y1464000D03*
G54D34*
G01X331000Y1404000D02*
Y1360000D01*
G01D02*
X338000Y1353000D01*
X374000D01*
G01X331000Y1404000D02*
Y1425500D01*
X343000Y1437500D01*
G01X381000Y1353000D02*
X383000D01*
X393000Y1343000D01*
X417000D01*
G01X374000Y1353000D02*
X381000D01*
G01X384000Y1402000D02*
Y1387647D01*
X383300Y1386947D01*
Y1383053D01*
X384000Y1382353D01*
Y1356000D01*
X381000Y1353000D01*
G01X417000Y1343000D02*
X423000Y1337000D01*
G01D02*
X426000Y1334000D01*
X436000D01*
G01D02*
X450000D01*
G01D02*
X477000D01*
G01X450000D02*
Y1331000D01*
X449500Y1330500D01*
Y1326000D01*
G01X442539Y1461685D02*
Y1475539D01*
X443000Y1476000D01*
G01X437618Y1461685D02*
Y1457618D01*
G01D02*
X434618Y1454618D01*
X430000D01*
X427000Y1457618D01*
G01D02*
Y1460909D01*
X427776Y1461685D01*
G01X504000Y1413000D02*
X512685D01*
G01D02*
X514000Y1414315D01*
G54D25*
X449000Y1280000D03*
X455000D03*
X476000Y1349000D03*
X470000D03*
X489000Y1280000D03*
X495000D03*
G54D16*
X306500Y1272200D03*
G54D35*
G01X384000Y1402000D02*
X386440Y1404440D01*
X387592D01*
X388662Y1405510D01*
X388762Y1406139D01*
Y1427762D01*
X403000Y1442000D01*
G01X435500Y1349000D02*
Y1334500D01*
X436000Y1334000D01*
G01X477000D02*
X483000D01*
G01X477000D02*
X476000Y1335000D01*
Y1349000D01*
G01X454000Y1409000D02*
X460602Y1402398D01*
G01D02*
X473937D01*
G01X503000Y1344000D02*
X501983Y1345017D01*
G01D02*
Y1348189D01*
G01X483000Y1334000D02*
X486000D01*
X496833Y1344833D01*
Y1402833D01*
X504000Y1410000D01*
Y1413000D01*
G01X483000Y1334000D02*
Y1324500D01*
X483500Y1324000D01*
G54D17*
X317000Y1292000D03*
X327000D03*
Y1324000D03*
X317000D03*
X339000Y1292000D03*
X349000D03*
X361000D03*
X349000Y1324000D03*
X339000D03*
X361000D03*
X371000Y1292000D03*
Y1324000D03*
G54D26*
X434500Y1293500D03*
X439500D03*
X444500D03*
X449500D03*
Y1314500D03*
X444500D03*
X439500D03*
X434500D03*
X468500Y1293500D03*
X473500D03*
X478500D03*
Y1314500D03*
X473500D03*
X468500D03*
X483500Y1293500D03*
Y1314500D03*
G54D36*
G01X314189Y1275915D02*
Y1280017D01*
G01D02*
Y1284119D01*
G01X312798Y1292000D02*
X317000D01*
G01D02*
X321202D01*
G01X341842Y1262298D02*
Y1268000D01*
G01D02*
Y1273702D01*
G01X336140Y1268000D02*
X341842D01*
G01D02*
X347544D01*
G01X339000Y1287048D02*
Y1292000D01*
G01X354189Y1275915D02*
Y1280017D01*
G01X352887D02*
X354189D01*
G01D02*
X355491D01*
G01X356798Y1292000D02*
X361000D01*
G01X334798D02*
X339000D01*
G01D02*
X343202D01*
G01X361000D02*
Y1291000D01*
G01X381842Y1262298D02*
Y1268000D01*
G01D02*
Y1273702D01*
G01X376140Y1268000D02*
X381842D01*
G01D02*
X387544D01*
G01X361000Y1292000D02*
X365202D01*
G01X416140Y1268000D02*
X421842D01*
G01X394189Y1275915D02*
Y1280017D01*
G01D02*
Y1284119D01*
G01X392887Y1280017D02*
X394189D01*
G01D02*
X395491D01*
G01X421842Y1262298D02*
Y1268000D01*
G01D02*
Y1273702D01*
G01Y1268000D02*
X427544D01*
G54D18*
X322158D03*
X362158D03*
X402158D03*
X442158D03*
X482158D03*
X514000Y1294315D03*
Y1354315D03*
Y1414315D03*
G54D27*
X449500Y1326000D03*
X442500D03*
X428500Y1349000D03*
X435500D03*
X428500Y1358000D03*
X435500D03*
X476500Y1324000D03*
X477500Y1356000D03*
X470500D03*
X483500Y1324000D03*
G54D37*
G01X245000Y1485000D02*
Y1248000D01*
X534000D01*
Y1485000D01*
X245000D01*
G01X456780Y1468126D02*
X429220D01*
Y1483874D01*
X456780D01*
Y1468126D01*
G54D28*
X427776Y1372315D03*
X432697D03*
X437618D03*
X442539D03*
X447461D03*
Y1461685D03*
X442539D03*
X437618D03*
X432697D03*
X427776D03*
X452382Y1372315D03*
X457303D03*
X462224D03*
Y1461685D03*
X457303D03*
X452382D03*
G54D19*
X314189Y1280017D03*
X330000Y1280000D03*
X354189Y1280017D03*
X370000Y1280000D03*
X394189Y1280017D03*
X410000Y1280000D03*
G54D38*
G01X260000Y1429000D02*
Y1432205D01*
G01X288000Y1260400D02*
Y1264602D01*
G01X279798Y1260400D02*
X288000D01*
G01D02*
X296202D01*
G01X291795Y1455298D02*
Y1464000D01*
G01D02*
Y1472702D01*
G01Y1464000D02*
X298497D01*
G01X306500Y1263998D02*
Y1272200D01*
G01D02*
Y1280402D01*
G01X302298Y1272200D02*
X306500D01*
G01X336000Y1277000D02*
Y1274350D01*
X329650Y1268000D01*
X322158D01*
G01X336000Y1283000D02*
X333000D01*
X330000Y1280000D01*
G01D02*
Y1289000D01*
X327000Y1292000D01*
G01X314189Y1280017D02*
X315689D01*
G01X317000Y1281328D02*
Y1292000D01*
G01X315689Y1280017D02*
X317000Y1281328D01*
G01Y1319048D02*
Y1324000D01*
G01X309000Y1304000D02*
X312100D01*
X312102Y1304002D01*
X315997D01*
X316915Y1304916D01*
X317005Y1304990D01*
X317100Y1305000D01*
X348000D01*
X348920Y1305920D01*
X349005Y1305990D01*
X349100Y1306000D01*
X370000D01*
X372000Y1308000D01*
Y1314000D01*
G01X344000D02*
Y1314200D01*
X343200Y1315000D01*
X330850D01*
X327000Y1318850D01*
Y1324000D01*
G01X307000Y1295000D02*
X309996Y1297996D01*
X312089D01*
X312253Y1298000D01*
X374000D01*
X374002Y1298002D01*
X376593D01*
X377998Y1299407D01*
Y1316902D01*
X376050Y1318850D01*
X371000D01*
G01X319700Y1345100D02*
X321000Y1346400D01*
Y1351000D01*
X317000Y1355000D01*
X310000D01*
X305000Y1360000D01*
Y1396000D01*
G01X317000Y1324000D02*
Y1341000D01*
G01D02*
X318000Y1342000D01*
G01X312798Y1324000D02*
X317000D01*
G01X338500Y1346000D02*
X329000D01*
X326000Y1349000D01*
G01X370000Y1280000D02*
X363000D01*
X358000Y1285000D01*
X357999D01*
X355886Y1287113D01*
X353197D01*
X353139Y1287119D01*
X353097Y1287153D01*
X349000Y1291250D01*
Y1292000D01*
G01X339000Y1319048D02*
Y1324000D01*
G01X372000Y1314000D02*
X369807Y1311807D01*
X354101D01*
X349000Y1316908D01*
Y1324000D01*
G01X357000Y1316000D02*
X368150D01*
X371000Y1318850D01*
G01X356798Y1324000D02*
X361000D01*
G01X334798D02*
X339000D01*
G01X338500Y1360500D02*
X340000Y1362000D01*
Y1368000D01*
X343984Y1371984D01*
Y1383016D01*
G01X376000Y1283000D02*
X373000D01*
X370000Y1280000D01*
G01X362158Y1268000D02*
X370000D01*
X376000Y1274000D01*
Y1277000D01*
G01X361000Y1291000D02*
X365650Y1286350D01*
G01D02*
X377350D01*
X378000Y1287000D01*
G01X361000Y1319048D02*
Y1324000D01*
G01X371000Y1292000D02*
X404000D01*
X410000Y1286000D01*
Y1280000D01*
G01X371000Y1318850D02*
Y1324000D01*
G01X361000D02*
X365202D01*
G01X399000Y1338000D02*
X386000D01*
X384000Y1336000D01*
X362000D01*
G01X416063Y1431925D02*
X410925D01*
X398000Y1419000D01*
Y1395000D01*
X388000Y1385000D01*
G01X385000Y1466298D02*
Y1471000D01*
G01D02*
Y1475702D01*
G01X416000Y1283000D02*
X413000D01*
X410000Y1280000D01*
G01X402158Y1268000D02*
X409650D01*
X416000Y1274350D01*
Y1277000D01*
G01Y1294000D02*
Y1298000D01*
X420000Y1302000D01*
X446000D01*
X449500Y1298500D01*
Y1293500D01*
G01X416063Y1385554D02*
Y1387634D01*
G01X411817D02*
X416063D01*
G01D02*
X420309D01*
G01X394000Y1385000D02*
X400000Y1391000D01*
Y1417008D01*
X409996Y1427004D01*
X416063D01*
G01X411817Y1422083D02*
X416063D01*
G01D02*
X420309D01*
G01X488000Y1399000D02*
X497000Y1408000D01*
Y1463000D01*
X493000Y1467000D01*
X482254D01*
X447179Y1431925D01*
X416063D01*
G01Y1427004D02*
X444804D01*
X482200Y1464400D01*
X492580D01*
X495000Y1461980D01*
Y1416000D01*
X488000Y1409000D01*
G01X416063Y1441768D02*
Y1443848D01*
G01X411817Y1441768D02*
X416063D01*
G01D02*
X420309D01*
G01X416063Y1444609D02*
Y1446689D01*
G01D02*
Y1448769D01*
G01X411817Y1446689D02*
X416063D01*
G01D02*
X420309D01*
G01X449000Y1280000D02*
Y1274842D01*
X442158Y1268000D01*
G01X449000Y1280000D02*
Y1282500D01*
X456000Y1289500D01*
Y1295500D01*
X439500Y1312000D01*
Y1314500D01*
G01X424000Y1290000D02*
X427500Y1293500D01*
X434500D01*
G01X432000Y1286000D02*
X436700D01*
X439500Y1288800D01*
Y1293500D01*
G01X444500Y1314500D02*
Y1309850D01*
X458000Y1296350D01*
Y1288000D01*
X455000Y1285000D01*
Y1280000D01*
G01X444500Y1293500D02*
X439500D01*
G01X430400Y1350750D02*
X430250D01*
X428500Y1349000D01*
G01X442500Y1322798D02*
Y1326000D01*
G01D02*
Y1329202D01*
G01X439548Y1326000D02*
X442500D01*
G01X428500Y1345798D02*
Y1349000D01*
G01X425548D02*
X428500D01*
G01X442539Y1368069D02*
Y1372315D01*
G01D02*
Y1376561D01*
G01X427776Y1372315D02*
Y1376561D01*
G01X425696Y1372315D02*
X427776D01*
G01X488000Y1429000D02*
X482000Y1423000D01*
Y1383198D01*
X478000Y1379198D01*
Y1370000D01*
X471000Y1363000D01*
X449461D01*
X447461Y1365000D01*
Y1372315D01*
G01X427776Y1457439D02*
Y1461685D01*
G01D02*
Y1465931D01*
G01X425696Y1461685D02*
X427776D01*
G01X447461Y1457439D02*
Y1461685D01*
G01D02*
Y1465931D01*
G01Y1461685D02*
X449541D01*
G01X450302D02*
X452382D01*
G01X450330Y1476000D02*
X453394D01*
G01X429542D02*
X432606D01*
G01D02*
X435670D01*
G01X455000Y1280000D02*
Y1274842D01*
X461842Y1268000D01*
G01X468500Y1314500D02*
Y1320500D01*
G01D02*
X472000Y1324000D01*
G01X489000Y1280000D02*
Y1297000D01*
X478000Y1308000D01*
X475350D01*
X473500Y1309850D01*
Y1314500D01*
G01X495000Y1280000D02*
Y1293350D01*
X490800Y1297550D01*
Y1297746D01*
X478746Y1309800D01*
X478550D01*
X478500Y1309850D01*
Y1314500D01*
G01X468000Y1304000D02*
X470193Y1301807D01*
Y1299843D01*
X468500Y1298150D01*
Y1293500D01*
G01X460000Y1306000D02*
X462193Y1308193D01*
X470899D01*
X473492Y1305600D01*
X477492D01*
X483500Y1299592D01*
Y1293500D01*
G01X473500D02*
X478500D01*
G01X476000Y1302000D02*
X473500Y1299500D01*
Y1293500D01*
G01X467000Y1342000D02*
X466000Y1343000D01*
Y1342000D01*
G01X472000Y1324000D02*
X476500D01*
G01Y1320798D02*
Y1324000D01*
G01D02*
Y1327202D01*
G01X470500Y1356000D02*
Y1352000D01*
X470000Y1351500D01*
Y1349000D01*
G01X477500Y1356000D02*
Y1359202D01*
G01Y1356000D02*
X480452D01*
G01X471685Y1372315D02*
X466741Y1367371D01*
X460081D01*
X457303Y1370149D01*
Y1372315D01*
G01X457000Y1357000D02*
X466350D01*
X467350Y1356000D01*
X470500D01*
G01X452382Y1372315D02*
Y1365800D01*
X453382Y1364800D01*
X469800D01*
X476000Y1371000D01*
Y1380000D01*
X479200Y1383232D01*
Y1430200D01*
X488000Y1439000D01*
G01X453394Y1467424D02*
Y1476000D01*
G01X452382Y1457439D02*
Y1461685D01*
G01D02*
Y1465931D01*
G01Y1461685D02*
X454462D01*
G01X457303Y1457439D02*
Y1461685D01*
G01D02*
Y1465931D01*
G01X455223Y1461685D02*
X457303D01*
G01X473937Y1441768D02*
X468232D01*
X467000Y1443000D01*
Y1446654D01*
X479346Y1459000D01*
X488000D01*
G01X473937Y1446689D02*
X478381D01*
X480692Y1449000D01*
X488000D01*
G01X453394Y1476000D02*
X456458D01*
G01X489000Y1280000D02*
Y1274842D01*
X482158Y1268000D01*
G01X495000Y1280000D02*
Y1274842D01*
X501842Y1268000D01*
G01X501983Y1290887D02*
Y1292189D01*
G01D02*
Y1293491D01*
G01X497881Y1292189D02*
X501983D01*
G01D02*
X506085D01*
G01X483500Y1324000D02*
Y1314500D01*
G01X501983Y1348189D02*
Y1349491D01*
G01Y1348189D02*
X506085D01*
G01X488000Y1345298D02*
Y1350000D01*
G01X483298D02*
X488000D01*
G01D02*
X492702D01*
G01X508298Y1333685D02*
X514000D01*
G01X488000Y1384298D02*
Y1389000D01*
G01D02*
X492702D01*
G01X508298Y1393685D02*
X514000D01*
G01X512685Y1413000D02*
X508363Y1408678D01*
G01X514000Y1434000D02*
X504000Y1424000D01*
Y1419000D01*
G01X508298Y1453685D02*
X514000D01*
G01Y1327983D02*
Y1333685D01*
G01D02*
Y1339387D01*
G01Y1333685D02*
X519702D01*
G01X514000Y1387983D02*
Y1393685D01*
G01D02*
Y1399387D01*
G01Y1393685D02*
X519702D01*
G01X514000Y1447983D02*
Y1453685D01*
G01D02*
Y1459387D01*
G01Y1453685D02*
X519702D01*
G54D29*
X443000Y1476000D03*
X432606D03*
X453394D03*
M02*
