G04 ================== begin FILE IDENTIFICATION RECORD ==================*
G04 Layout Name:  STM32F103_RAK811_THESISNODE.brd*
G04 Film Name:    ASSY_TOP*
G04 File Format:  Gerber RS274X*
G04 File Origin:  Cadence Allegro 17.2-S052*
G04 Origin Date:  Mon Jun 15 15:49:30 2020*
G04 *
G04 Layer:  REF DES/ASSEMBLY_TOP*
G04 Layer:  PACKAGE GEOMETRY/ASSEMBLY_TOP*
G04 Layer:  DRAWING FORMAT/OUTLINE*
G04 Layer:  DRAWING FORMAT/ASSEMBLY_TOP*
G04 Layer:  BOARD GEOMETRY/OUTLINE*
G04 Layer:  BOARD GEOMETRY/LOGO_OUTLINE*
G04 Layer:  BOARD GEOMETRY/ASSEMBLY_TOP*
G04 *
G04 Offset:    (0.00 0.00)*
G04 Mirror:    No*
G04 Mode:      Positive*
G04 Rotation:  0*
G04 FullContactRelief:  No*
G04 UndefLineWidth:     4.00*
G04 ================== end FILE IDENTIFICATION RECORD ====================*
%FSLAX25Y25*MOIN*%
%IR0*IPPOS*OFA0.00000B0.00000*MIA0B0*SFA1.00000B1.00000*%
%ADD10C,.01*%
%ADD11C,.001*%
%ADD12C,.005*%
%ADD13C,.004*%
%ADD14C,.006*%
%ADD15C,.008*%
%ADD16C,.00591*%
%ADD17C,.00984*%
%ADD18C,.00787*%
G75*
%LPD*%
G75*
G36*
G01X337496Y1396205D02*
X339465Y1398173D01*
X335528D01*
X337496Y1396205D01*
G37*
G54D10*
G01X360000Y1477000D02*
X369000D01*
X370000Y1476000D01*
X371000Y1477000D01*
X379000D01*
X380000Y1476000D01*
X381000Y1477000D01*
X389000D01*
X390000Y1476000D01*
X391000Y1477000D01*
X399000D01*
X400000Y1476000D01*
X401000Y1477000D01*
X410000D01*
X411000Y1476000D01*
Y1466000D01*
X410000Y1465000D01*
X401000D01*
X400000Y1466000D01*
X399000Y1465000D01*
X391000D01*
X390000Y1466000D01*
X389000Y1465000D01*
X381000D01*
X380000Y1466000D01*
X379000Y1465000D01*
X371000D01*
X370000Y1466000D01*
X369000Y1465000D01*
X360000D01*
X359000Y1466000D01*
Y1476000D01*
X360000Y1477000D01*
G54D11*
G01X440333Y1331260D02*
X440125Y1331047D01*
X440000Y1330807D01*
Y1330593D01*
X440125Y1330380D01*
X440333Y1330220D01*
X440625Y1330140D01*
X440917Y1330193D01*
X441167Y1330327D01*
X441333Y1330567D01*
X441417Y1330887D01*
X441583Y1331073D01*
X441875Y1331153D01*
X442167Y1331100D01*
X442375Y1330967D01*
X442500Y1330780D01*
Y1330593D01*
X442417Y1330407D01*
X442208Y1330247D01*
G01X442500Y1329300D02*
X440000Y1328927D01*
X442500Y1328500D01*
X440000Y1328073D01*
X442500Y1327700D01*
G01X440000Y1326300D02*
X442500D01*
X442000Y1326620D01*
G01X440000D02*
Y1325980D01*
G01X440333Y1379260D02*
X440125Y1379047D01*
X440000Y1378807D01*
Y1378593D01*
X440125Y1378380D01*
X440333Y1378220D01*
X440625Y1378140D01*
X440917Y1378193D01*
X441167Y1378327D01*
X441333Y1378567D01*
X441417Y1378887D01*
X441583Y1379073D01*
X441875Y1379153D01*
X442167Y1379100D01*
X442375Y1378967D01*
X442500Y1378780D01*
Y1378593D01*
X442417Y1378407D01*
X442208Y1378247D01*
G01X442500Y1377300D02*
X440000Y1376927D01*
X442500Y1376500D01*
X440000Y1376073D01*
X442500Y1375700D01*
G01X442083Y1374807D02*
X442333Y1374647D01*
X442458Y1374460D01*
X442500Y1374247D01*
X442417Y1373980D01*
X442208Y1373793D01*
X441958Y1373740D01*
X441708Y1373767D01*
X441500Y1373873D01*
X441083Y1374407D01*
X440792Y1374647D01*
X440375Y1374807D01*
X440000Y1374860D01*
Y1373740D01*
G01X440333Y1427260D02*
X440125Y1427047D01*
X440000Y1426807D01*
Y1426593D01*
X440125Y1426380D01*
X440333Y1426220D01*
X440625Y1426140D01*
X440917Y1426193D01*
X441167Y1426327D01*
X441333Y1426567D01*
X441417Y1426887D01*
X441583Y1427073D01*
X441875Y1427153D01*
X442167Y1427100D01*
X442375Y1426967D01*
X442500Y1426780D01*
Y1426593D01*
X442417Y1426407D01*
X442208Y1426247D01*
G01X442500Y1425300D02*
X440000Y1424927D01*
X442500Y1424500D01*
X440000Y1424073D01*
X442500Y1423700D01*
G01X440500Y1422887D02*
X440208Y1422727D01*
X440042Y1422513D01*
X440000Y1422273D01*
X440042Y1422060D01*
X440250Y1421847D01*
X440500Y1421713D01*
X440750Y1421687D01*
X441042Y1421740D01*
X441250Y1421927D01*
X441333Y1422113D01*
Y1422353D01*
G01Y1422113D02*
X441458Y1421953D01*
X441667Y1421820D01*
X441917Y1421767D01*
X442167Y1421820D01*
X442375Y1421953D01*
X442500Y1422193D01*
X442458Y1422433D01*
X442292Y1422673D01*
G54D12*
G01X265500Y1308500D02*
X269500D01*
G01X267500Y1306500D02*
Y1310500D01*
G01X265500Y1408500D02*
X269500D01*
G01X267500Y1406500D02*
Y1410500D01*
G01X297000Y1317000D02*
Y1291000D01*
X277500D01*
X271000Y1297500D01*
Y1310500D01*
X277500Y1317000D01*
X297000D01*
G01X298500Y1308000D02*
X302500D01*
G01X297000Y1417000D02*
Y1391000D01*
X277500D01*
X271000Y1397500D01*
Y1410500D01*
X277500Y1417000D01*
X297000D01*
G01X298500Y1408000D02*
X302500D01*
G01X351685Y1282567D02*
X312315D01*
Y1251071D01*
X351685D01*
Y1282567D01*
G01X326500Y1378000D02*
Y1394000D01*
X313500D01*
Y1378000D01*
X326500D01*
G01X312500Y1391500D02*
Y1395000D01*
X316000D01*
G01X391685Y1282567D02*
X352315D01*
Y1251071D01*
X391685D01*
Y1282567D01*
G01X384750Y1309600D02*
X384900Y1309900D01*
X385000Y1310250D01*
Y1310650D01*
X384850Y1311100D01*
X384600Y1311450D01*
X384300Y1311700D01*
X383800Y1311900D01*
X383350Y1311950D01*
X382900Y1311850D01*
X382600Y1311700D01*
X382300Y1311400D01*
X382100Y1311050D01*
X382000Y1310700D01*
Y1310350D01*
X382100Y1310000D01*
X382250Y1309700D01*
X382450Y1309450D01*
G01X384500Y1307850D02*
X384800Y1307550D01*
X384950Y1307200D01*
X385000Y1306800D01*
X384900Y1306300D01*
X384650Y1305950D01*
X384350Y1305850D01*
X384050Y1305900D01*
X383800Y1306100D01*
X383300Y1307100D01*
X382950Y1307550D01*
X382450Y1307850D01*
X382000Y1307950D01*
Y1305850D01*
G01X384500Y1304050D02*
X384800Y1303750D01*
X384950Y1303400D01*
X385000Y1303000D01*
X384900Y1302500D01*
X384650Y1302150D01*
X384350Y1302050D01*
X384050Y1302100D01*
X383800Y1302300D01*
X383300Y1303300D01*
X382950Y1303750D01*
X382450Y1304050D01*
X382000Y1304150D01*
Y1302050D01*
G01X431685Y1282567D02*
X392315D01*
Y1251071D01*
X431685D01*
Y1282567D01*
G01X397267Y1479520D02*
X397400Y1479260D01*
X397560Y1479087D01*
X397747Y1479000D01*
X397960Y1479087D01*
X398120Y1479260D01*
X398280Y1479520D01*
X398333Y1479867D01*
Y1481600D01*
G01X399413Y1479520D02*
X399573Y1479217D01*
X399787Y1479043D01*
X400027Y1479000D01*
X400240Y1479043D01*
X400453Y1479260D01*
X400587Y1479520D01*
X400613Y1479780D01*
X400560Y1480083D01*
X400373Y1480300D01*
X400187Y1480387D01*
X399947D01*
G01X400187D02*
X400347Y1480517D01*
X400480Y1480733D01*
X400533Y1480993D01*
X400480Y1481253D01*
X400347Y1481470D01*
X400107Y1481600D01*
X399867Y1481557D01*
X399627Y1481383D01*
G01X471685Y1282567D02*
X432315D01*
Y1251071D01*
X471685D01*
Y1282567D01*
G01X511685D02*
X472315D01*
Y1251071D01*
X511685D01*
Y1282567D01*
G01X499500Y1343658D02*
Y1284658D01*
X531000D01*
Y1343658D01*
X499500D01*
G01Y1403658D02*
Y1344658D01*
X531000D01*
Y1403658D01*
X499500D01*
G01X483000Y1345000D02*
X493000D01*
Y1375000D01*
X483000D01*
Y1345000D01*
G01Y1379000D02*
X493000D01*
Y1409000D01*
X483000D01*
Y1379000D01*
G01X499500Y1463658D02*
Y1404658D01*
X531000D01*
Y1463658D01*
X499500D01*
G01X493000Y1443000D02*
X483000D01*
Y1413000D01*
X493000D01*
Y1443000D01*
G54D13*
G01X250167Y1257500D02*
Y1262500D01*
X251900Y1258333D01*
X253633Y1262500D01*
Y1257500D01*
G01X254600D02*
Y1262500D01*
G01X257400D02*
Y1257500D01*
G01Y1260000D02*
X254600D01*
G01X258833Y1261667D02*
X259233Y1262167D01*
X259700Y1262417D01*
X260233Y1262500D01*
X260900Y1262333D01*
X261367Y1261917D01*
X261500Y1261417D01*
X261433Y1260917D01*
X261167Y1260500D01*
X259833Y1259667D01*
X259233Y1259083D01*
X258833Y1258250D01*
X258700Y1257500D01*
X261500D01*
G01X262000Y1298907D02*
X257000D01*
Y1300173D01*
X257250Y1300680D01*
X257583Y1301060D01*
X258083Y1301377D01*
X258667Y1301630D01*
X259500Y1301693D01*
X260333Y1301630D01*
X260917Y1301377D01*
X261417Y1301060D01*
X261750Y1300680D01*
X262000Y1300173D01*
Y1298907D01*
G01X261000Y1304007D02*
X261583Y1304387D01*
X261917Y1304893D01*
X262000Y1305463D01*
X261917Y1305970D01*
X261500Y1306477D01*
X261000Y1306793D01*
X260500Y1306857D01*
X259917Y1306730D01*
X259500Y1306287D01*
X259333Y1305843D01*
Y1305273D01*
G01Y1305843D02*
X259083Y1306223D01*
X258667Y1306540D01*
X258167Y1306667D01*
X257667Y1306540D01*
X257250Y1306223D01*
X257000Y1305653D01*
X257083Y1305083D01*
X257417Y1304513D01*
G01X267000Y1347943D02*
X263417D01*
X262667Y1347690D01*
X262167Y1347183D01*
X262000Y1346550D01*
X262167Y1345917D01*
X262667Y1345410D01*
X263417Y1345157D01*
X267000D01*
G01X262000Y1341450D02*
X267000D01*
X266000Y1342210D01*
G01X262000D02*
Y1340690D01*
G01X255996Y1347000D02*
Y1341000D01*
X268004D01*
Y1347000D01*
X255996D01*
G01X262000Y1414907D02*
X257000D01*
Y1416173D01*
X257250Y1416680D01*
X257583Y1417060D01*
X258083Y1417377D01*
X258667Y1417630D01*
X259500Y1417693D01*
X260333Y1417630D01*
X260917Y1417377D01*
X261417Y1417060D01*
X261750Y1416680D01*
X262000Y1416173D01*
Y1414907D01*
G01Y1422160D02*
X257000D01*
X260583Y1419817D01*
Y1422983D01*
G01X252167Y1471500D02*
Y1476500D01*
X253900Y1472333D01*
X255633Y1476500D01*
Y1471500D01*
G01X256600D02*
Y1476500D01*
G01X259400D02*
Y1471500D01*
G01Y1474000D02*
X256600D01*
G01X262100Y1471500D02*
Y1476500D01*
X261300Y1475500D01*
G01Y1471500D02*
X262900D01*
G01X287000Y1266367D02*
X286500Y1266050D01*
X286167Y1265670D01*
X286000Y1265227D01*
X286167Y1264720D01*
X286500Y1264340D01*
X287000Y1263960D01*
X287667Y1263833D01*
X291000D01*
G01X290167Y1261203D02*
X290667Y1260823D01*
X290917Y1260380D01*
X291000Y1259873D01*
X290833Y1259240D01*
X290417Y1258797D01*
X289917Y1258670D01*
X289417Y1258733D01*
X289000Y1258987D01*
X288167Y1260253D01*
X287583Y1260823D01*
X286750Y1261203D01*
X286000Y1261330D01*
Y1258670D01*
G01X305700Y1287200D02*
X270300D01*
Y1230200D01*
G01X305700D02*
X270300D01*
G01X281887Y1305292D02*
X281727Y1305417D01*
X281540Y1305500D01*
X281327D01*
X281087Y1305375D01*
X280900Y1305167D01*
X280767Y1304917D01*
X280660Y1304500D01*
X280633Y1304125D01*
X280687Y1303750D01*
X280767Y1303500D01*
X280927Y1303250D01*
X281113Y1303083D01*
X281300Y1303000D01*
X281487D01*
X281673Y1303083D01*
X281833Y1303208D01*
X281967Y1303375D01*
G01X282913Y1303500D02*
X283073Y1303208D01*
X283287Y1303042D01*
X283527Y1303000D01*
X283740Y1303042D01*
X283953Y1303250D01*
X284087Y1303500D01*
X284113Y1303750D01*
X284060Y1304042D01*
X283873Y1304250D01*
X283687Y1304333D01*
X283447D01*
G01X283687D02*
X283847Y1304458D01*
X283980Y1304667D01*
X284033Y1304917D01*
X283980Y1305167D01*
X283847Y1305375D01*
X283607Y1305500D01*
X283367Y1305458D01*
X283127Y1305292D01*
G01X292267Y1352500D02*
Y1350000D01*
X293333D01*
G01X295000D02*
Y1352500D01*
X294680Y1352000D01*
G01Y1350000D02*
X295320D01*
G01X290370Y1370173D02*
X290749Y1369923D01*
X291193Y1369756D01*
X291699D01*
X292269Y1370006D01*
X292712Y1370423D01*
X293029Y1370923D01*
X293282Y1371756D01*
X293345Y1372506D01*
X293219Y1373256D01*
X293029Y1373756D01*
X292649Y1374256D01*
X292206Y1374589D01*
X291763Y1374756D01*
X291319D01*
X290876Y1374589D01*
X290496Y1374339D01*
X290180Y1374006D01*
G01X287868Y1372673D02*
X287424Y1372089D01*
X287044Y1371756D01*
X286538Y1371589D01*
X286095Y1371756D01*
X285778Y1372089D01*
X285525Y1372589D01*
X285461Y1373173D01*
X285525Y1373673D01*
X285778Y1374173D01*
X286158Y1374589D01*
X286601Y1374756D01*
X287108Y1374589D01*
X287551Y1374089D01*
X287804Y1373339D01*
X287868Y1372506D01*
X287741Y1371423D01*
X287551Y1370839D01*
X287234Y1370256D01*
X286791Y1369839D01*
X286348Y1369756D01*
X285905Y1369923D01*
X285588Y1370339D01*
G01X281887Y1405292D02*
X281727Y1405417D01*
X281540Y1405500D01*
X281327D01*
X281087Y1405375D01*
X280900Y1405167D01*
X280767Y1404917D01*
X280660Y1404500D01*
X280633Y1404125D01*
X280687Y1403750D01*
X280767Y1403500D01*
X280927Y1403250D01*
X281113Y1403083D01*
X281300Y1403000D01*
X281487D01*
X281673Y1403083D01*
X281833Y1403208D01*
X281967Y1403375D01*
G01X283820Y1403000D02*
Y1405500D01*
X282833Y1403708D01*
X284167D01*
G01X284267Y1464500D02*
X284400Y1464250D01*
X284560Y1464083D01*
X284747Y1464000D01*
X284960Y1464083D01*
X285120Y1464250D01*
X285280Y1464500D01*
X285333Y1464833D01*
Y1466500D01*
G01X287000Y1464000D02*
Y1466500D01*
X286680Y1466000D01*
G01Y1464000D02*
X287320D01*
G01X305700Y1287200D02*
Y1230200D01*
G01X329767Y1286000D02*
X329900Y1285750D01*
X330060Y1285583D01*
X330247Y1285500D01*
X330460Y1285583D01*
X330620Y1285750D01*
X330780Y1286000D01*
X330833Y1286333D01*
Y1288000D01*
G01X332500Y1285500D02*
Y1288000D01*
X332180Y1287500D01*
G01Y1285500D02*
X332820D01*
G01X334700Y1288000D02*
X334487Y1287917D01*
X334327Y1287708D01*
X334220Y1287458D01*
X334140Y1287125D01*
X334113Y1286750D01*
X334140Y1286375D01*
X334220Y1286042D01*
X334327Y1285792D01*
X334487Y1285583D01*
X334700Y1285500D01*
X334913Y1285583D01*
X335073Y1285792D01*
X335180Y1286042D01*
X335260Y1286375D01*
X335287Y1286750D01*
X335260Y1287125D01*
X335180Y1287458D01*
X335073Y1287708D01*
X334913Y1287917D01*
X334700Y1288000D01*
G01X321500Y1379800D02*
X320375D01*
X319000Y1379267D01*
G01Y1380333D02*
X320375Y1379800D01*
G01X321500Y1382000D02*
X319000D01*
X319500Y1381680D01*
G01X321500D02*
Y1382320D01*
G01X325512Y1379305D02*
X314488D01*
Y1392691D01*
X325512D01*
Y1379305D01*
G01X325479Y1457862D02*
Y1456169D01*
X325558Y1455815D01*
X325716Y1455579D01*
X325912Y1455500D01*
X326109Y1455579D01*
X326267Y1455815D01*
X326346Y1456169D01*
Y1457862D01*
G01X327114Y1457468D02*
X327232Y1457704D01*
X327369Y1457823D01*
X327527Y1457862D01*
X327724Y1457783D01*
X327861Y1457586D01*
X327901Y1457350D01*
X327881Y1457114D01*
X327802Y1456917D01*
X327409Y1456524D01*
X327232Y1456248D01*
X327114Y1455854D01*
X327074Y1455500D01*
X327901D01*
G01X316093Y1478000D02*
Y1473000D01*
X314827D01*
X314320Y1473250D01*
X313940Y1473583D01*
X313623Y1474083D01*
X313370Y1474667D01*
X313307Y1475500D01*
X313370Y1476333D01*
X313623Y1476917D01*
X313940Y1477417D01*
X314320Y1477750D01*
X314827Y1478000D01*
X316093D01*
G01X310993Y1477250D02*
X310613Y1477667D01*
X310170Y1477917D01*
X309600Y1478000D01*
X309030Y1477833D01*
X308587Y1477500D01*
X308270Y1476917D01*
X308207Y1476250D01*
X308333Y1475583D01*
X308650Y1475167D01*
X309093Y1474833D01*
X309537Y1474750D01*
X309980Y1474833D01*
X310550Y1475167D01*
X310360Y1473000D01*
X308650D01*
G01X340800Y1323900D02*
Y1308100D01*
X375200D01*
Y1323900D01*
X340800D01*
G01X359000Y1308100D02*
X357000D01*
Y1303800D01*
X359000D01*
Y1308100D01*
G01X354000D02*
X352000D01*
Y1303800D01*
X354000D01*
Y1308100D01*
G01X349000D02*
X347000D01*
Y1303800D01*
X349000D01*
Y1308100D01*
G01X344000D02*
X342000D01*
Y1303800D01*
X344000D01*
Y1308100D01*
G01X342000Y1323900D02*
X344000D01*
Y1328200D01*
X342000D01*
Y1323900D01*
G01X347000D02*
X349000D01*
Y1328200D01*
X347000D01*
Y1323900D01*
G01X352000D02*
X354000D01*
Y1328200D01*
X352000D01*
Y1323900D01*
G01X357000D02*
X359000D01*
Y1328200D01*
X357000D01*
Y1323900D01*
G01X358894Y1385362D02*
X357102D01*
X356727Y1385255D01*
X356477Y1385042D01*
X356394Y1384775D01*
X356477Y1384508D01*
X356727Y1384295D01*
X357102Y1384188D01*
X358894D01*
G01X356894Y1383162D02*
X356602Y1383002D01*
X356436Y1382788D01*
X356394Y1382548D01*
X356436Y1382335D01*
X356644Y1382122D01*
X356894Y1381988D01*
X357144Y1381962D01*
X357436Y1382015D01*
X357644Y1382202D01*
X357727Y1382388D01*
Y1382628D01*
G01Y1382388D02*
X357852Y1382228D01*
X358061Y1382095D01*
X358311Y1382042D01*
X358561Y1382095D01*
X358769Y1382228D01*
X358894Y1382468D01*
X358852Y1382708D01*
X358686Y1382948D01*
G01X358000Y1437093D02*
X363000D01*
Y1435827D01*
X362750Y1435320D01*
X362417Y1434940D01*
X361917Y1434623D01*
X361333Y1434370D01*
X360500Y1434307D01*
X359667Y1434370D01*
X359083Y1434623D01*
X358583Y1434940D01*
X358250Y1435320D01*
X358000Y1435827D01*
Y1437093D01*
G01Y1430600D02*
X358083Y1430157D01*
X358333Y1429650D01*
X358750Y1429333D01*
X359333Y1429207D01*
X359917Y1429333D01*
X360417Y1429713D01*
X360667Y1430283D01*
Y1430917D01*
X360833Y1431297D01*
X361250Y1431613D01*
X361833Y1431740D01*
X362417Y1431550D01*
X362833Y1431107D01*
X363000Y1430600D01*
X362833Y1430093D01*
X362417Y1429650D01*
X361833Y1429460D01*
X361250Y1429587D01*
X360833Y1429903D01*
X360667Y1430283D01*
Y1430917D01*
X360417Y1431487D01*
X359917Y1431867D01*
X359333Y1431993D01*
X358750Y1431867D01*
X358333Y1431550D01*
X358083Y1431043D01*
X358000Y1430600D01*
G01X350000Y1437093D02*
X355000D01*
Y1435827D01*
X354750Y1435320D01*
X354417Y1434940D01*
X353917Y1434623D01*
X353333Y1434370D01*
X352500Y1434307D01*
X351667Y1434370D01*
X351083Y1434623D01*
X350583Y1434940D01*
X350250Y1435320D01*
X350000Y1435827D01*
Y1437093D01*
G01X350583Y1431677D02*
X350167Y1431233D01*
X350000Y1430727D01*
X350167Y1430220D01*
X350667Y1429777D01*
X351417Y1429460D01*
X352167Y1429333D01*
X353083D01*
X353833Y1429460D01*
X354500Y1429777D01*
X354833Y1430157D01*
X355000Y1430600D01*
X354833Y1431107D01*
X354500Y1431487D01*
X354000Y1431740D01*
X353333Y1431867D01*
X352750Y1431740D01*
X352167Y1431423D01*
X351833Y1431043D01*
X351750Y1430600D01*
X351917Y1430093D01*
X352333Y1429713D01*
X353083Y1429333D01*
G01X336454Y1444014D02*
G03I-681J0D01*
G01X369767Y1286000D02*
X369900Y1285750D01*
X370060Y1285583D01*
X370247Y1285500D01*
X370460Y1285583D01*
X370620Y1285750D01*
X370780Y1286000D01*
X370833Y1286333D01*
Y1288000D01*
G01X372500Y1285500D02*
X372687Y1285542D01*
X372900Y1285667D01*
X373033Y1285875D01*
X373087Y1286167D01*
X373033Y1286458D01*
X372873Y1286708D01*
X372633Y1286833D01*
X372367D01*
X372207Y1286917D01*
X372073Y1287125D01*
X372020Y1287417D01*
X372100Y1287708D01*
X372287Y1287917D01*
X372500Y1288000D01*
X372713Y1287917D01*
X372900Y1287708D01*
X372980Y1287417D01*
X372927Y1287125D01*
X372793Y1286917D01*
X372633Y1286833D01*
X372367D01*
X372127Y1286708D01*
X371967Y1286458D01*
X371913Y1286167D01*
X371967Y1285875D01*
X372100Y1285667D01*
X372313Y1285542D01*
X372500Y1285500D01*
G01X375200Y1314800D02*
G02Y1317200I0J1200D01*
G01X374000Y1308100D02*
X372000D01*
Y1303800D01*
X374000D01*
Y1308100D01*
G01X369000D02*
X367000D01*
Y1303800D01*
X369000D01*
Y1308100D01*
G01X364000D02*
X362000D01*
Y1303800D01*
X364000D01*
Y1308100D01*
G01X385000Y1333943D02*
X381417D01*
X380667Y1333690D01*
X380167Y1333183D01*
X380000Y1332550D01*
X380167Y1331917D01*
X380667Y1331410D01*
X381417Y1331157D01*
X385000D01*
G01X380000Y1327577D02*
X381083Y1327450D01*
X382000Y1327260D01*
X382833Y1327007D01*
X383750Y1326690D01*
X385000Y1326183D01*
Y1328717D01*
G01X362000Y1323900D02*
X364000D01*
Y1328200D01*
X362000D01*
Y1323900D01*
G01X367000D02*
X369000D01*
Y1328200D01*
X367000D01*
Y1323900D01*
G01X372000D02*
X374000D01*
Y1328200D01*
X372000D01*
Y1323900D01*
G01X374000Y1437093D02*
X379000D01*
Y1435827D01*
X378750Y1435320D01*
X378417Y1434940D01*
X377917Y1434623D01*
X377333Y1434370D01*
X376500Y1434307D01*
X375667Y1434370D01*
X375083Y1434623D01*
X374583Y1434940D01*
X374250Y1435320D01*
X374000Y1435827D01*
Y1437093D01*
G01X376083Y1431803D02*
X376667Y1431360D01*
X377000Y1430980D01*
X377167Y1430473D01*
X377000Y1430030D01*
X376667Y1429713D01*
X376167Y1429460D01*
X375583Y1429397D01*
X375083Y1429460D01*
X374583Y1429713D01*
X374167Y1430093D01*
X374000Y1430537D01*
X374167Y1431043D01*
X374667Y1431487D01*
X375417Y1431740D01*
X376250Y1431803D01*
X377333Y1431677D01*
X377917Y1431487D01*
X378500Y1431170D01*
X378917Y1430727D01*
X379000Y1430283D01*
X378833Y1429840D01*
X378417Y1429523D01*
G01X366000Y1437093D02*
X371000D01*
Y1435827D01*
X370750Y1435320D01*
X370417Y1434940D01*
X369917Y1434623D01*
X369333Y1434370D01*
X368500Y1434307D01*
X367667Y1434370D01*
X367083Y1434623D01*
X366583Y1434940D01*
X366250Y1435320D01*
X366000Y1435827D01*
Y1437093D01*
G01Y1430727D02*
X367083Y1430600D01*
X368000Y1430410D01*
X368833Y1430157D01*
X369750Y1429840D01*
X371000Y1429333D01*
Y1431867D01*
G01X409767Y1286000D02*
X409900Y1285750D01*
X410060Y1285583D01*
X410247Y1285500D01*
X410460Y1285583D01*
X410620Y1285750D01*
X410780Y1286000D01*
X410833Y1286333D01*
Y1288000D01*
G01X412500Y1285500D02*
Y1288000D01*
X412180Y1287500D01*
G01Y1285500D02*
X412820D01*
G01X414193Y1287583D02*
X414353Y1287833D01*
X414540Y1287958D01*
X414753Y1288000D01*
X415020Y1287917D01*
X415207Y1287708D01*
X415260Y1287458D01*
X415233Y1287208D01*
X415127Y1287000D01*
X414593Y1286583D01*
X414353Y1286292D01*
X414193Y1285875D01*
X414140Y1285500D01*
X415260D01*
G01X463600Y1300400D02*
Y1347600D01*
X416400D01*
Y1300400D01*
X463600D01*
G01Y1348400D02*
Y1395600D01*
X416400D01*
Y1348400D01*
X463600D01*
G01Y1396400D02*
Y1443600D01*
X416400D01*
Y1396400D01*
X463600D01*
G01X449767Y1286000D02*
X449900Y1285750D01*
X450060Y1285583D01*
X450247Y1285500D01*
X450460Y1285583D01*
X450620Y1285750D01*
X450780Y1286000D01*
X450833Y1286333D01*
Y1288000D01*
G01X451913Y1285875D02*
X452073Y1285667D01*
X452260Y1285542D01*
X452500Y1285500D01*
X452740Y1285583D01*
X452927Y1285750D01*
X453060Y1286042D01*
X453087Y1286375D01*
X453033Y1286708D01*
X452900Y1286917D01*
X452713Y1287083D01*
X452527Y1287125D01*
X452340Y1287083D01*
X452100Y1286917D01*
X452180Y1288000D01*
X452900D01*
G01X461780Y1464126D02*
X434220D01*
Y1479874D01*
X461780D01*
Y1464126D01*
G01X489767Y1286000D02*
X489900Y1285750D01*
X490060Y1285583D01*
X490247Y1285500D01*
X490460Y1285583D01*
X490620Y1285750D01*
X490780Y1286000D01*
X490833Y1286333D01*
Y1288000D01*
G01X491993Y1286542D02*
X492180Y1286833D01*
X492340Y1287000D01*
X492553Y1287083D01*
X492740Y1287000D01*
X492873Y1286833D01*
X492980Y1286583D01*
X493007Y1286292D01*
X492980Y1286042D01*
X492873Y1285792D01*
X492713Y1285583D01*
X492527Y1285500D01*
X492313Y1285583D01*
X492127Y1285833D01*
X492020Y1286208D01*
X491993Y1286625D01*
X492047Y1287167D01*
X492127Y1287458D01*
X492260Y1287750D01*
X492447Y1287958D01*
X492633Y1288000D01*
X492820Y1287917D01*
X492953Y1287708D01*
G01X496000Y1301925D02*
X496250Y1302058D01*
X496417Y1302218D01*
X496500Y1302405D01*
X496417Y1302618D01*
X496250Y1302778D01*
X496000Y1302938D01*
X495667Y1302991D01*
X494000D01*
G01X496500Y1304605D02*
X495958Y1304658D01*
X495500Y1304738D01*
X495083Y1304845D01*
X494625Y1304978D01*
X494000Y1305191D01*
Y1304125D01*
G01X496000Y1361925D02*
X496250Y1362058D01*
X496417Y1362218D01*
X496500Y1362405D01*
X496417Y1362618D01*
X496250Y1362778D01*
X496000Y1362938D01*
X495667Y1362991D01*
X494000D01*
G01X496208Y1364205D02*
X496417Y1364391D01*
X496500Y1364605D01*
X496417Y1364818D01*
X496167Y1365005D01*
X495792Y1365138D01*
X495417Y1365191D01*
X494958D01*
X494583Y1365138D01*
X494250Y1365005D01*
X494083Y1364845D01*
X494000Y1364658D01*
X494083Y1364445D01*
X494250Y1364285D01*
X494500Y1364178D01*
X494833Y1364125D01*
X495125Y1364178D01*
X495417Y1364311D01*
X495583Y1364471D01*
X495625Y1364658D01*
X495542Y1364871D01*
X495333Y1365031D01*
X494958Y1365191D01*
G01X488500Y1359733D02*
X488250Y1359600D01*
X488083Y1359440D01*
X488000Y1359253D01*
X488083Y1359040D01*
X488250Y1358880D01*
X488500Y1358720D01*
X488833Y1358667D01*
X490500D01*
G01X488000Y1356680D02*
X490500D01*
X488708Y1357667D01*
Y1356333D01*
G01X490500Y1389733D02*
X490250Y1389600D01*
X490083Y1389440D01*
X490000Y1389253D01*
X490083Y1389040D01*
X490250Y1388880D01*
X490500Y1388720D01*
X490833Y1388667D01*
X492500D01*
G01X490000Y1387000D02*
X492500D01*
X492000Y1387320D01*
G01X490000D02*
Y1386680D01*
G01X490500Y1385387D02*
X490208Y1385227D01*
X490042Y1385013D01*
X490000Y1384773D01*
X490042Y1384560D01*
X490250Y1384347D01*
X490500Y1384213D01*
X490750Y1384187D01*
X491042Y1384240D01*
X491250Y1384427D01*
X491333Y1384613D01*
Y1384853D01*
G01Y1384613D02*
X491458Y1384453D01*
X491667Y1384320D01*
X491917Y1384267D01*
X492167Y1384320D01*
X492375Y1384453D01*
X492500Y1384693D01*
X492458Y1384933D01*
X492292Y1385173D01*
G01X496000Y1421925D02*
X496250Y1422058D01*
X496417Y1422218D01*
X496500Y1422405D01*
X496417Y1422618D01*
X496250Y1422778D01*
X496000Y1422938D01*
X495667Y1422991D01*
X494000D01*
G01X496500Y1424658D02*
X494000D01*
X494500Y1424338D01*
G01X496500D02*
Y1424978D01*
G01Y1426858D02*
X494000D01*
X494500Y1426538D01*
G01X496500D02*
Y1427178D01*
G01X493500Y1430267D02*
X493750Y1430400D01*
X493917Y1430560D01*
X494000Y1430747D01*
X493917Y1430960D01*
X493750Y1431120D01*
X493500Y1431280D01*
X493167Y1431333D01*
X491500D01*
G01X494000Y1433000D02*
X491500D01*
X492000Y1432680D01*
G01X494000D02*
Y1433320D01*
G01Y1435520D02*
X491500D01*
X493292Y1434533D01*
Y1435867D01*
G01X518167Y1257500D02*
Y1262500D01*
X519900Y1258333D01*
X521633Y1262500D01*
Y1257500D01*
G01X522600D02*
Y1262500D01*
G01X525400D02*
Y1257500D01*
G01Y1260000D02*
X522600D01*
G01X526633Y1258500D02*
X527033Y1257917D01*
X527567Y1257583D01*
X528167Y1257500D01*
X528700Y1257583D01*
X529233Y1258000D01*
X529567Y1258500D01*
X529633Y1259000D01*
X529500Y1259583D01*
X529033Y1260000D01*
X528567Y1260167D01*
X527967D01*
G01X528567D02*
X528967Y1260417D01*
X529300Y1260833D01*
X529433Y1261333D01*
X529300Y1261833D01*
X528967Y1262250D01*
X528367Y1262500D01*
X527767Y1262417D01*
X527167Y1262083D01*
G01X516167Y1473500D02*
Y1478500D01*
X517900Y1474333D01*
X519633Y1478500D01*
Y1473500D01*
G01X520600D02*
Y1478500D01*
G01X523400D02*
Y1473500D01*
G01Y1476000D02*
X520600D01*
G01X526900Y1473500D02*
Y1478500D01*
X524433Y1474917D01*
X527767D01*
G54D14*
G01X263071Y1260000D02*
G03I-7071J0D01*
G01X262500Y1287000D02*
Y1282500D01*
X257500D01*
Y1287000D01*
G01Y1293500D02*
Y1287000D01*
G01X262500Y1293500D02*
Y1287000D01*
G01X261100Y1288400D02*
X258800D01*
G01X261100Y1287700D02*
X258800D01*
G01X259500Y1309500D02*
X261000D01*
G01X259000Y1294500D02*
X261000D01*
G01X260000Y1293500D02*
Y1295500D01*
G01X256500Y1303000D02*
Y1308500D01*
X257000D01*
X263500D01*
Y1303000D01*
G01X256500Y1295500D02*
Y1303000D01*
G01X263500D02*
Y1295500D01*
X256500D01*
G01X257500Y1293500D02*
X262500D01*
G01X263000Y1328500D02*
X267500D01*
Y1323500D01*
X263000D01*
G01X256500D02*
Y1328500D01*
G01Y1323500D02*
X263000D01*
G01X256500Y1328500D02*
X263000D01*
G01X261600Y1327100D02*
Y1324800D01*
G01X262300Y1327100D02*
Y1324800D01*
G01X261000Y1329500D02*
X256500D01*
Y1334500D01*
X261000D01*
G01X267500D02*
Y1329500D01*
G01Y1334500D02*
X261000D01*
G01X267500Y1329500D02*
X261000D01*
G01X262400Y1330900D02*
Y1333200D01*
G01X261700Y1330900D02*
Y1333200D01*
G01X263000Y1358500D02*
X267500D01*
Y1353500D01*
X263000D01*
G01X256500D02*
Y1358500D01*
G01Y1353500D02*
X263000D01*
G01X256500Y1358500D02*
X263000D01*
G01X261600Y1357100D02*
Y1354800D01*
G01X262300Y1357100D02*
Y1354800D01*
G01X263000Y1364500D02*
X267500D01*
Y1359500D01*
X263000D01*
G01X256500D02*
Y1364500D01*
G01Y1359500D02*
X263000D01*
G01X256500Y1364500D02*
X263000D01*
G01X261600Y1363100D02*
Y1360800D01*
G01X262300Y1363100D02*
Y1360800D01*
G01X260000Y1409500D02*
Y1411500D01*
G01X262500Y1405000D02*
Y1400500D01*
X257500D01*
Y1405000D01*
G01Y1411500D02*
Y1405000D01*
G01X262500Y1411500D02*
Y1405000D01*
G01X261100Y1406400D02*
X258800D01*
G01X261100Y1405700D02*
X258800D01*
G01X259500Y1425500D02*
X261000D01*
G01X259000Y1410500D02*
X261000D01*
G01X256500Y1419000D02*
Y1424500D01*
X257000D01*
X263500D01*
Y1419000D01*
G01X256500Y1411500D02*
Y1419000D01*
G01X263500D02*
Y1411500D01*
X256500D01*
G01X257500D02*
X262500D01*
G01X265071Y1474000D02*
G03I-7071J0D01*
G01X276500Y1345000D02*
Y1340500D01*
X271500D01*
Y1345000D01*
G01Y1351500D02*
Y1345000D01*
G01X276500Y1351500D02*
Y1345000D01*
G01X275100Y1346400D02*
X272800D01*
G01X275100Y1345700D02*
X272800D01*
G01X271500Y1351500D02*
X276500D01*
G01X291000Y1379500D02*
X286500D01*
Y1384500D01*
X291000D01*
G01X297500D02*
Y1379500D01*
G01D02*
X291000D01*
G01X297500Y1384500D02*
X291000D01*
G01X292400Y1380900D02*
Y1383200D01*
G01X291700Y1380900D02*
Y1383200D01*
G01X319000Y1372500D02*
X314500D01*
Y1377500D01*
X319000D01*
G01X325500D02*
Y1372500D01*
G01Y1377500D02*
X319000D01*
G01X325500Y1372500D02*
X319000D01*
G01X320400Y1373900D02*
Y1376200D01*
G01X319700Y1373900D02*
Y1376200D01*
G01X319000Y1365500D02*
X314500D01*
Y1370500D01*
X319000D01*
G01X325500D02*
Y1365500D01*
G01Y1370500D02*
X319000D01*
G01X325500Y1365500D02*
X319000D01*
G01X320400Y1366900D02*
Y1369200D01*
G01X319700Y1366900D02*
Y1369200D01*
G01X319000Y1352500D02*
X314500D01*
Y1357500D01*
X319000D01*
G01X325500D02*
Y1352500D01*
G01Y1357500D02*
X319000D01*
G01X325500Y1352500D02*
X319000D01*
G01X320400Y1353900D02*
Y1356200D01*
G01X319700Y1353900D02*
Y1356200D01*
G01X321000Y1363500D02*
X325500D01*
Y1358500D01*
X321000D01*
G01X314500D02*
Y1363500D01*
G01Y1358500D02*
X321000D01*
G01X314500Y1363500D02*
X321000D01*
G01X319600Y1362100D02*
Y1359800D01*
G01X320300Y1362100D02*
Y1359800D01*
G01X321000Y1399500D02*
X325500D01*
Y1394500D01*
X321000D01*
G01X314500D02*
Y1399500D01*
G01Y1394500D02*
X321000D01*
G01X314500Y1399500D02*
X321000D01*
G01X319600Y1398100D02*
Y1395800D01*
G01X320300Y1398100D02*
Y1395800D01*
G01X319000Y1401500D02*
X314500D01*
Y1406500D01*
X319000D01*
G01X325500D02*
Y1401500D01*
G01Y1406500D02*
X319000D01*
G01X325500Y1401500D02*
X319000D01*
G01X320400Y1402900D02*
Y1405200D01*
G01X319700Y1402900D02*
Y1405200D01*
G01X320110Y1443205D02*
X333890D01*
Y1468795D01*
X320110D01*
Y1443205D01*
G01X305500Y1475500D02*
Y1477000D01*
G01X320500Y1475000D02*
Y1477000D01*
G01X321500Y1476000D02*
X319500D01*
G01X312000Y1472500D02*
X306500D01*
Y1473000D01*
Y1479500D01*
X312000D01*
G01X319500Y1472500D02*
X312000D01*
G01Y1479500D02*
X319500D01*
Y1472500D01*
G01X329000Y1478500D02*
X333500D01*
Y1473500D01*
X329000D01*
G01X322500D02*
Y1478500D01*
G01Y1473500D02*
X329000D01*
G01X322500Y1478500D02*
X329000D01*
G01X327600Y1477100D02*
Y1474800D01*
G01X328300Y1477100D02*
Y1474800D01*
G01X342500Y1419000D02*
Y1423500D01*
X347500D01*
Y1419000D01*
G01Y1412500D02*
X342500D01*
G01X347500D02*
Y1419000D01*
G01X342500Y1412500D02*
Y1419000D01*
G01X343900Y1417600D02*
X346200D01*
G01X343900Y1418300D02*
X346200D01*
G01X360500Y1426500D02*
X359000D01*
G01X363500Y1433000D02*
Y1427500D01*
X363000D01*
X356500D01*
Y1433000D01*
G01D02*
Y1440500D01*
X363500D01*
G01X352500Y1426500D02*
X351000D01*
G01X355500Y1433000D02*
Y1427500D01*
X355000D01*
X348500D01*
Y1433000D01*
G01X355500Y1440500D02*
Y1433000D01*
G01X348500D02*
Y1440500D01*
X355500D01*
G01Y1419000D02*
Y1423500D01*
X360500D01*
Y1419000D01*
G01Y1412500D02*
X355500D01*
G01D02*
Y1419000D01*
G01X356900Y1417600D02*
X359200D01*
G01X356900Y1418300D02*
X359200D01*
G01X349500Y1419000D02*
Y1423500D01*
X354500D01*
Y1419000D01*
G01Y1412500D02*
X349500D01*
G01X354500D02*
Y1419000D01*
G01X349500Y1412500D02*
Y1419000D01*
G01X350900Y1417600D02*
X353200D01*
G01X350900Y1418300D02*
X353200D01*
G01X346500Y1453000D02*
Y1457500D01*
X351500D01*
Y1453000D01*
G01Y1446500D02*
X346500D01*
G01X351500D02*
Y1453000D01*
G01X346500Y1446500D02*
Y1453000D01*
G01X347900Y1451600D02*
X350200D01*
G01X347900Y1452300D02*
X350200D01*
G01X351500Y1468000D02*
Y1463500D01*
X346500D01*
Y1468000D01*
G01Y1474500D02*
Y1468000D01*
G01X351500Y1474500D02*
Y1468000D01*
G01X350100Y1469400D02*
X347800D01*
G01X350100Y1468700D02*
X347800D01*
G01X361000Y1441500D02*
X359000D01*
G01X360000Y1442500D02*
Y1440500D01*
G01X353000Y1441500D02*
X351000D01*
G01X352000Y1442500D02*
Y1440500D01*
G01X346500Y1474500D02*
X351500D01*
G01X386500Y1308000D02*
Y1302500D01*
X386000D01*
X379500D01*
Y1308000D01*
G01X386500Y1315500D02*
Y1308000D01*
G01X379500D02*
Y1315500D01*
X386500D01*
G01X370500Y1351000D02*
Y1346500D01*
X365500D01*
Y1351000D01*
G01Y1357500D02*
X370500D01*
G01X365500D02*
Y1351000D01*
G01X370500Y1357500D02*
Y1351000D01*
G01X369100Y1352400D02*
X366800D01*
G01X369100Y1351700D02*
X366800D01*
G01X389000Y1398500D02*
X393500D01*
Y1393500D01*
X389000D01*
G01X382500D02*
Y1398500D01*
G01Y1393500D02*
X389000D01*
G01X382500Y1398500D02*
X389000D01*
G01X387600Y1397100D02*
Y1394800D01*
G01X388300Y1397100D02*
Y1394800D01*
G01X376500Y1426500D02*
X375000D01*
G01X379500Y1433000D02*
Y1427500D01*
X379000D01*
X372500D01*
Y1433000D01*
G01X379500Y1440500D02*
Y1433000D01*
G01X372500D02*
Y1440500D01*
X379500D01*
G01X368500Y1426500D02*
X367000D01*
G01X371500Y1433000D02*
Y1427500D01*
X371000D01*
X364500D01*
Y1433000D01*
G01X371500Y1440500D02*
Y1433000D01*
G01X364500D02*
Y1440500D01*
X371500D01*
G01X363500D02*
Y1433000D01*
G01X373500Y1419000D02*
Y1423500D01*
X378500D01*
Y1419000D01*
G01Y1412500D02*
X373500D01*
G01X378500D02*
Y1419000D01*
G01X373500Y1412500D02*
Y1419000D01*
G01X374900Y1417600D02*
X377200D01*
G01X374900Y1418300D02*
X377200D01*
G01X367500Y1419000D02*
Y1423500D01*
X372500D01*
Y1419000D01*
G01Y1412500D02*
X367500D01*
G01X372500D02*
Y1419000D01*
G01X367500Y1412500D02*
Y1419000D01*
G01X368900Y1417600D02*
X371200D01*
G01X368900Y1418300D02*
X371200D01*
G01X361500Y1419000D02*
Y1423500D01*
X366500D01*
Y1419000D01*
G01Y1412500D02*
X361500D01*
G01X366500D02*
Y1419000D01*
G01X361500Y1412500D02*
Y1419000D01*
G01X362900Y1417600D02*
X365200D01*
G01X362900Y1418300D02*
X365200D01*
G01X360500Y1412500D02*
Y1419000D01*
G01X377000Y1441500D02*
X375000D01*
G01X376000Y1442500D02*
Y1440500D01*
G01X369000Y1441500D02*
X367000D01*
G01X368000Y1442500D02*
Y1440500D01*
G01X412500Y1323000D02*
Y1318500D01*
X407500D01*
Y1323000D01*
G01Y1329500D02*
X412500D01*
G01X407500D02*
Y1323000D01*
G01X412500Y1329500D02*
Y1323000D01*
G01X411100Y1324400D02*
X408800D01*
G01X411100Y1323700D02*
X408800D01*
G01X412500Y1343000D02*
Y1338500D01*
X407500D01*
Y1343000D01*
G01Y1349500D02*
X412500D01*
G01X407500D02*
Y1343000D01*
G01X412500Y1349500D02*
Y1343000D01*
G01X411100Y1344400D02*
X408800D01*
G01X411100Y1343700D02*
X408800D01*
G01X412500Y1371000D02*
Y1366500D01*
X407500D01*
Y1371000D01*
G01Y1377500D02*
X412500D01*
G01X407500D02*
Y1371000D01*
G01X412500Y1377500D02*
Y1371000D01*
G01X411100Y1372400D02*
X408800D01*
G01X411100Y1371700D02*
X408800D01*
G01X412500Y1393000D02*
Y1388500D01*
X407500D01*
Y1393000D01*
G01Y1399500D02*
X412500D01*
G01X407500D02*
Y1393000D01*
G01X412500Y1399500D02*
Y1393000D01*
G01X411100Y1394400D02*
X408800D01*
G01X411100Y1393700D02*
X408800D01*
G01X412500Y1419000D02*
Y1414500D01*
X407500D01*
Y1419000D01*
G01Y1425500D02*
X412500D01*
G01X407500D02*
Y1419000D01*
G01X412500Y1425500D02*
Y1419000D01*
G01X411100Y1420400D02*
X408800D01*
G01X411100Y1419700D02*
X408800D01*
G01X412500Y1439000D02*
Y1434500D01*
X407500D01*
Y1439000D01*
G01Y1445500D02*
Y1439000D01*
G01X412500Y1445500D02*
Y1439000D01*
G01X411100Y1439700D02*
X408800D01*
G01X407500Y1445500D02*
X412500D01*
G01X411100Y1440400D02*
X408800D01*
G01X531071Y1260000D02*
G03I-7071J0D01*
G01X529071Y1476000D02*
G03I-7071J0D01*
G54D15*
G01X256466Y1280452D02*
X259456D01*
Y1279206D01*
X259306Y1278807D01*
X259107Y1278558D01*
X258708Y1278458D01*
X258310Y1278558D01*
X258061Y1278857D01*
X257911Y1279206D01*
Y1280452D01*
G01Y1279206D02*
X256466Y1278458D01*
G01X258958Y1276432D02*
X259257Y1276133D01*
X259406Y1275784D01*
X259456Y1275385D01*
X259356Y1274887D01*
X259107Y1274538D01*
X258808Y1274438D01*
X258509Y1274488D01*
X258260Y1274688D01*
X257762Y1275684D01*
X257413Y1276133D01*
X256914Y1276432D01*
X256466Y1276532D01*
Y1274438D01*
G01X271641Y1325207D02*
X271342Y1325356D01*
X270994Y1325456D01*
X270595D01*
X270146Y1325306D01*
X269798Y1325057D01*
X269548Y1324758D01*
X269349Y1324260D01*
X269299Y1323811D01*
X269399Y1323363D01*
X269548Y1323064D01*
X269847Y1322765D01*
X270196Y1322566D01*
X270545Y1322466D01*
X270894D01*
X271243Y1322566D01*
X271542Y1322715D01*
X271791Y1322914D01*
G01X274515Y1322466D02*
Y1325456D01*
X273917Y1324858D01*
G01Y1322466D02*
X275113D01*
G01X254452Y1335534D02*
Y1332544D01*
X253206D01*
X252807Y1332694D01*
X252558Y1332893D01*
X252458Y1333292D01*
X252558Y1333690D01*
X252857Y1333939D01*
X253206Y1334089D01*
X254452D01*
G01X253206D02*
X252458Y1335534D01*
G01X249485D02*
Y1332544D01*
X250083Y1333142D01*
G01Y1335534D02*
X248887D01*
G01X258498Y1358000D02*
Y1360990D01*
X259744D01*
X260143Y1360840D01*
X260392Y1360641D01*
X260492Y1360242D01*
X260392Y1359844D01*
X260093Y1359595D01*
X259744Y1359445D01*
X258498D01*
G01X259744D02*
X260492Y1358000D01*
G01X262518Y1359246D02*
X262867Y1359595D01*
X263166Y1359794D01*
X263565Y1359894D01*
X263914Y1359794D01*
X264163Y1359595D01*
X264362Y1359296D01*
X264412Y1358947D01*
X264362Y1358648D01*
X264163Y1358349D01*
X263864Y1358100D01*
X263515Y1358000D01*
X263116Y1358100D01*
X262767Y1358399D01*
X262568Y1358847D01*
X262518Y1359345D01*
X262618Y1359993D01*
X262767Y1360342D01*
X263016Y1360691D01*
X263365Y1360940D01*
X263714Y1360990D01*
X264063Y1360890D01*
X264312Y1360641D01*
G01X269548Y1358466D02*
Y1361456D01*
X270794D01*
X271193Y1361306D01*
X271442Y1361107D01*
X271542Y1360708D01*
X271442Y1360310D01*
X271143Y1360061D01*
X270794Y1359911D01*
X269548D01*
G01X270794D02*
X271542Y1358466D01*
G01X273419Y1358914D02*
X273718Y1358665D01*
X274066Y1358516D01*
X274515Y1358466D01*
X274964Y1358566D01*
X275312Y1358765D01*
X275562Y1359114D01*
X275611Y1359512D01*
X275512Y1359911D01*
X275262Y1360160D01*
X274914Y1360360D01*
X274565Y1360409D01*
X274216Y1360360D01*
X273768Y1360160D01*
X273917Y1361456D01*
X275262D01*
G01X256466Y1398452D02*
X259456D01*
Y1397206D01*
X259306Y1396807D01*
X259107Y1396558D01*
X258708Y1396458D01*
X258310Y1396558D01*
X258061Y1396857D01*
X257911Y1397206D01*
Y1398452D01*
G01Y1397206D02*
X256466Y1396458D01*
G01X257064Y1394581D02*
X256715Y1394282D01*
X256516Y1393884D01*
X256466Y1393435D01*
X256516Y1393036D01*
X256765Y1392638D01*
X257064Y1392389D01*
X257363Y1392339D01*
X257712Y1392438D01*
X257961Y1392787D01*
X258061Y1393136D01*
Y1393585D01*
G01Y1393136D02*
X258210Y1392837D01*
X258459Y1392588D01*
X258758Y1392488D01*
X259057Y1392588D01*
X259306Y1392837D01*
X259456Y1393286D01*
X259406Y1393734D01*
X259207Y1394183D01*
G01X282359Y1382793D02*
X282658Y1382644D01*
X283006Y1382544D01*
X283405D01*
X283854Y1382694D01*
X284202Y1382943D01*
X284452Y1383242D01*
X284651Y1383740D01*
X284701Y1384189D01*
X284601Y1384637D01*
X284452Y1384936D01*
X284153Y1385235D01*
X283804Y1385434D01*
X283455Y1385534D01*
X283106D01*
X282757Y1385434D01*
X282458Y1385285D01*
X282209Y1385086D01*
G01X280581D02*
X280282Y1385335D01*
X279934Y1385484D01*
X279485Y1385534D01*
X279036Y1385434D01*
X278688Y1385235D01*
X278438Y1384886D01*
X278389Y1384488D01*
X278488Y1384089D01*
X278738Y1383840D01*
X279086Y1383640D01*
X279435Y1383591D01*
X279784Y1383640D01*
X280232Y1383840D01*
X280083Y1382544D01*
X278738D01*
G01X310359Y1375793D02*
X310658Y1375644D01*
X311006Y1375544D01*
X311405D01*
X311854Y1375694D01*
X312202Y1375943D01*
X312452Y1376242D01*
X312651Y1376740D01*
X312701Y1377189D01*
X312601Y1377637D01*
X312452Y1377936D01*
X312153Y1378235D01*
X311804Y1378434D01*
X311455Y1378534D01*
X311106D01*
X310757Y1378434D01*
X310458Y1378285D01*
X310209Y1378086D01*
G01X307485Y1378534D02*
Y1375544D01*
X308083Y1376142D01*
G01Y1378534D02*
X306887D01*
G01X304611Y1378086D02*
X304312Y1378335D01*
X303964Y1378484D01*
X303515Y1378534D01*
X303066Y1378434D01*
X302718Y1378235D01*
X302468Y1377886D01*
X302419Y1377488D01*
X302518Y1377089D01*
X302768Y1376840D01*
X303116Y1376640D01*
X303465Y1376591D01*
X303814Y1376640D01*
X304262Y1376840D01*
X304113Y1375544D01*
X302768D01*
G01X310359Y1368793D02*
X310658Y1368644D01*
X311006Y1368544D01*
X311405D01*
X311854Y1368694D01*
X312202Y1368943D01*
X312452Y1369242D01*
X312651Y1369740D01*
X312701Y1370189D01*
X312601Y1370637D01*
X312452Y1370936D01*
X312153Y1371235D01*
X311804Y1371434D01*
X311455Y1371534D01*
X311106D01*
X310757Y1371434D01*
X310458Y1371285D01*
X310209Y1371086D01*
G01X307485Y1371534D02*
Y1368544D01*
X308083Y1369142D01*
G01Y1371534D02*
X306887D01*
G01X303515Y1368544D02*
X303914Y1368644D01*
X304213Y1368893D01*
X304412Y1369192D01*
X304562Y1369591D01*
X304611Y1370039D01*
X304562Y1370488D01*
X304412Y1370886D01*
X304213Y1371185D01*
X303914Y1371434D01*
X303515Y1371534D01*
X303116Y1371434D01*
X302817Y1371185D01*
X302618Y1370886D01*
X302468Y1370488D01*
X302419Y1370039D01*
X302468Y1369591D01*
X302618Y1369192D01*
X302817Y1368893D01*
X303116Y1368644D01*
X303515Y1368544D01*
G01X310359Y1355793D02*
X310658Y1355644D01*
X311006Y1355544D01*
X311405D01*
X311854Y1355694D01*
X312202Y1355943D01*
X312452Y1356242D01*
X312651Y1356740D01*
X312701Y1357189D01*
X312601Y1357637D01*
X312452Y1357936D01*
X312153Y1358235D01*
X311804Y1358434D01*
X311455Y1358534D01*
X311106D01*
X310757Y1358434D01*
X310458Y1358285D01*
X310209Y1358086D01*
G01X307485Y1358534D02*
Y1355544D01*
X308083Y1356142D01*
G01Y1358534D02*
X306887D01*
G01X303515D02*
X303166Y1358484D01*
X302768Y1358335D01*
X302518Y1358086D01*
X302419Y1357737D01*
X302518Y1357388D01*
X302817Y1357089D01*
X303266Y1356939D01*
X303764D01*
X304063Y1356840D01*
X304312Y1356591D01*
X304412Y1356242D01*
X304262Y1355893D01*
X303914Y1355644D01*
X303515Y1355544D01*
X303116Y1355644D01*
X302768Y1355893D01*
X302618Y1356242D01*
X302718Y1356591D01*
X302967Y1356840D01*
X303266Y1356939D01*
X303764D01*
X304213Y1357089D01*
X304512Y1357388D01*
X304611Y1357737D01*
X304512Y1358086D01*
X304262Y1358335D01*
X303864Y1358484D01*
X303515Y1358534D01*
G01X327498Y1362000D02*
Y1364990D01*
X328744D01*
X329143Y1364840D01*
X329392Y1364641D01*
X329492Y1364242D01*
X329392Y1363844D01*
X329093Y1363595D01*
X328744Y1363445D01*
X327498D01*
G01X328744D02*
X329492Y1362000D01*
G01X332465D02*
Y1364990D01*
X331867Y1364392D01*
G01Y1362000D02*
X333063D01*
G01X335488Y1364492D02*
X335787Y1364791D01*
X336136Y1364940D01*
X336535Y1364990D01*
X337033Y1364890D01*
X337382Y1364641D01*
X337482Y1364342D01*
X337432Y1364043D01*
X337232Y1363794D01*
X336236Y1363296D01*
X335787Y1362947D01*
X335488Y1362448D01*
X335388Y1362000D01*
X337482D01*
G01X329641Y1396207D02*
X329342Y1396356D01*
X328994Y1396456D01*
X328595D01*
X328146Y1396306D01*
X327798Y1396057D01*
X327548Y1395758D01*
X327349Y1395260D01*
X327299Y1394811D01*
X327399Y1394363D01*
X327548Y1394064D01*
X327847Y1393765D01*
X328196Y1393566D01*
X328545Y1393466D01*
X328894D01*
X329243Y1393566D01*
X329542Y1393715D01*
X329791Y1393914D01*
G01X332515Y1393466D02*
Y1396456D01*
X331917Y1395858D01*
G01Y1393466D02*
X333113D01*
G01X337083D02*
Y1396456D01*
X335239Y1394313D01*
X337731D01*
G01X310359Y1404793D02*
X310658Y1404644D01*
X311006Y1404544D01*
X311405D01*
X311854Y1404694D01*
X312202Y1404943D01*
X312452Y1405242D01*
X312651Y1405740D01*
X312701Y1406189D01*
X312601Y1406637D01*
X312452Y1406936D01*
X312153Y1407235D01*
X311804Y1407434D01*
X311455Y1407534D01*
X311106D01*
X310757Y1407434D01*
X310458Y1407285D01*
X310209Y1407086D01*
G01X307485Y1407534D02*
Y1404544D01*
X308083Y1405142D01*
G01Y1407534D02*
X306887D01*
G01X303515D02*
Y1404544D01*
X304113Y1405142D01*
G01Y1407534D02*
X302917D01*
G01X345793Y1427641D02*
X345644Y1427342D01*
X345544Y1426994D01*
Y1426595D01*
X345694Y1426146D01*
X345943Y1425798D01*
X346242Y1425548D01*
X346740Y1425349D01*
X347189Y1425299D01*
X347637Y1425399D01*
X347936Y1425548D01*
X348235Y1425847D01*
X348434Y1426196D01*
X348534Y1426545D01*
Y1426894D01*
X348434Y1427243D01*
X348285Y1427542D01*
X348086Y1427791D01*
G01X348185Y1429668D02*
X348434Y1430017D01*
X348534Y1430415D01*
X348434Y1430814D01*
X348135Y1431163D01*
X347687Y1431412D01*
X347238Y1431512D01*
X346690D01*
X346242Y1431412D01*
X345843Y1431163D01*
X345644Y1430864D01*
X345544Y1430515D01*
X345644Y1430116D01*
X345843Y1429817D01*
X346142Y1429618D01*
X346541Y1429518D01*
X346889Y1429618D01*
X347238Y1429867D01*
X347438Y1430166D01*
X347488Y1430515D01*
X347388Y1430914D01*
X347139Y1431213D01*
X346690Y1431512D01*
G01X361534Y1425548D02*
X358544D01*
Y1426794D01*
X358694Y1427193D01*
X358893Y1427442D01*
X359292Y1427542D01*
X359690Y1427442D01*
X359939Y1427143D01*
X360089Y1426794D01*
Y1425548D01*
G01Y1426794D02*
X361534Y1427542D01*
G01Y1430515D02*
X358544D01*
X359142Y1429917D01*
G01X361534D02*
Y1431113D01*
G01Y1434485D02*
X358544D01*
X359142Y1433887D01*
G01X361534D02*
Y1435083D01*
G01X355534Y1425548D02*
X352544D01*
Y1426794D01*
X352694Y1427193D01*
X352893Y1427442D01*
X353292Y1427542D01*
X353690Y1427442D01*
X353939Y1427143D01*
X354089Y1426794D01*
Y1425548D01*
G01Y1426794D02*
X355534Y1427542D01*
G01Y1430415D02*
X354886Y1430515D01*
X354338Y1430665D01*
X353840Y1430864D01*
X353292Y1431113D01*
X352544Y1431512D01*
Y1429518D01*
G01X349793Y1461641D02*
X349644Y1461342D01*
X349544Y1460994D01*
Y1460595D01*
X349694Y1460146D01*
X349943Y1459798D01*
X350242Y1459548D01*
X350740Y1459349D01*
X351189Y1459299D01*
X351637Y1459399D01*
X351936Y1459548D01*
X352235Y1459847D01*
X352434Y1460196D01*
X352534Y1460545D01*
Y1460894D01*
X352434Y1461243D01*
X352285Y1461542D01*
X352086Y1461791D01*
G01X352534Y1464515D02*
X352484Y1464864D01*
X352335Y1465262D01*
X352086Y1465512D01*
X351737Y1465611D01*
X351388Y1465512D01*
X351089Y1465213D01*
X350939Y1464764D01*
Y1464266D01*
X350840Y1463967D01*
X350591Y1463718D01*
X350242Y1463618D01*
X349893Y1463768D01*
X349644Y1464116D01*
X349544Y1464515D01*
X349644Y1464914D01*
X349893Y1465262D01*
X350242Y1465412D01*
X350591Y1465312D01*
X350840Y1465063D01*
X350939Y1464764D01*
Y1464266D01*
X351089Y1463817D01*
X351388Y1463518D01*
X351737Y1463419D01*
X352086Y1463518D01*
X352335Y1463768D01*
X352484Y1464166D01*
X352534Y1464515D01*
G01X348207Y1459359D02*
X348356Y1459658D01*
X348456Y1460006D01*
Y1460405D01*
X348306Y1460854D01*
X348057Y1461202D01*
X347758Y1461452D01*
X347260Y1461651D01*
X346811Y1461701D01*
X346363Y1461601D01*
X346064Y1461452D01*
X345765Y1461153D01*
X345566Y1460804D01*
X345466Y1460455D01*
Y1460106D01*
X345566Y1459757D01*
X345715Y1459458D01*
X345914Y1459209D01*
G01X345466Y1456585D02*
X346114Y1456485D01*
X346662Y1456335D01*
X347160Y1456136D01*
X347708Y1455887D01*
X348456Y1455488D01*
Y1457482D01*
G01X335548Y1472466D02*
Y1475456D01*
X336794D01*
X337193Y1475306D01*
X337442Y1475107D01*
X337542Y1474708D01*
X337442Y1474310D01*
X337143Y1474061D01*
X336794Y1473911D01*
X335548D01*
G01X336794D02*
X337542Y1472466D01*
G01X341113D02*
Y1475456D01*
X339269Y1473313D01*
X341761D01*
G01X370741Y1341409D02*
X370890Y1341708D01*
X370990Y1342056D01*
Y1342455D01*
X370840Y1342904D01*
X370591Y1343252D01*
X370292Y1343502D01*
X369794Y1343701D01*
X369345Y1343751D01*
X368897Y1343651D01*
X368598Y1343502D01*
X368299Y1343203D01*
X368100Y1342854D01*
X368000Y1342505D01*
Y1342156D01*
X368100Y1341807D01*
X368249Y1341508D01*
X368448Y1341259D01*
G01X368000Y1338535D02*
X370990D01*
X370392Y1339133D01*
G01X368000D02*
Y1337937D01*
G01X370492Y1335512D02*
X370791Y1335213D01*
X370940Y1334864D01*
X370990Y1334465D01*
X370890Y1333967D01*
X370641Y1333618D01*
X370342Y1333518D01*
X370043Y1333568D01*
X369794Y1333768D01*
X369296Y1334764D01*
X368947Y1335213D01*
X368448Y1335512D01*
X368000Y1335612D01*
Y1333518D01*
G01X379534Y1425548D02*
X376544D01*
Y1426794D01*
X376694Y1427193D01*
X376893Y1427442D01*
X377292Y1427542D01*
X377690Y1427442D01*
X377939Y1427143D01*
X378089Y1426794D01*
Y1425548D01*
G01Y1426794D02*
X379534Y1427542D01*
G01Y1430515D02*
X379484Y1430864D01*
X379335Y1431262D01*
X379086Y1431512D01*
X378737Y1431611D01*
X378388Y1431512D01*
X378089Y1431213D01*
X377939Y1430764D01*
Y1430266D01*
X377840Y1429967D01*
X377591Y1429718D01*
X377242Y1429618D01*
X376893Y1429768D01*
X376644Y1430116D01*
X376544Y1430515D01*
X376644Y1430914D01*
X376893Y1431262D01*
X377242Y1431412D01*
X377591Y1431312D01*
X377840Y1431063D01*
X377939Y1430764D01*
Y1430266D01*
X378089Y1429817D01*
X378388Y1429518D01*
X378737Y1429419D01*
X379086Y1429518D01*
X379335Y1429768D01*
X379484Y1430166D01*
X379534Y1430515D01*
G01X373534Y1425548D02*
X370544D01*
Y1426794D01*
X370694Y1427193D01*
X370893Y1427442D01*
X371292Y1427542D01*
X371690Y1427442D01*
X371939Y1427143D01*
X372089Y1426794D01*
Y1425548D01*
G01Y1426794D02*
X373534Y1427542D01*
G01X373185Y1429668D02*
X373434Y1430017D01*
X373534Y1430415D01*
X373434Y1430814D01*
X373135Y1431163D01*
X372687Y1431412D01*
X372238Y1431512D01*
X371690D01*
X371242Y1431412D01*
X370843Y1431163D01*
X370644Y1430864D01*
X370544Y1430515D01*
X370644Y1430116D01*
X370843Y1429817D01*
X371142Y1429618D01*
X371541Y1429518D01*
X371889Y1429618D01*
X372238Y1429867D01*
X372438Y1430166D01*
X372488Y1430515D01*
X372388Y1430914D01*
X372139Y1431213D01*
X371690Y1431512D01*
G01X367534Y1425548D02*
X364544D01*
Y1426794D01*
X364694Y1427193D01*
X364893Y1427442D01*
X365292Y1427542D01*
X365690Y1427442D01*
X365939Y1427143D01*
X366089Y1426794D01*
Y1425548D01*
G01Y1426794D02*
X367534Y1427542D01*
G01Y1430515D02*
X364544D01*
X365142Y1429917D01*
G01X367534D02*
Y1431113D01*
G01X364544Y1434485D02*
X364644Y1434086D01*
X364893Y1433787D01*
X365192Y1433588D01*
X365591Y1433438D01*
X366039Y1433389D01*
X366488Y1433438D01*
X366886Y1433588D01*
X367185Y1433787D01*
X367434Y1434086D01*
X367534Y1434485D01*
X367434Y1434884D01*
X367185Y1435183D01*
X366886Y1435382D01*
X366488Y1435532D01*
X366039Y1435581D01*
X365591Y1435532D01*
X365192Y1435382D01*
X364893Y1435183D01*
X364644Y1434884D01*
X364544Y1434485D01*
G01X409207Y1314359D02*
X409356Y1314658D01*
X409456Y1315006D01*
Y1315405D01*
X409306Y1315854D01*
X409057Y1316202D01*
X408758Y1316452D01*
X408260Y1316651D01*
X407811Y1316701D01*
X407363Y1316601D01*
X407064Y1316452D01*
X406765Y1316153D01*
X406566Y1315804D01*
X406466Y1315455D01*
Y1315106D01*
X406566Y1314757D01*
X406715Y1314458D01*
X406914Y1314209D01*
G01X406466Y1311485D02*
X409456D01*
X408858Y1312083D01*
G01X406466D02*
Y1310887D01*
G01X407712Y1308462D02*
X408061Y1308113D01*
X408260Y1307814D01*
X408360Y1307415D01*
X408260Y1307066D01*
X408061Y1306817D01*
X407762Y1306618D01*
X407413Y1306568D01*
X407114Y1306618D01*
X406815Y1306817D01*
X406566Y1307116D01*
X406466Y1307465D01*
X406566Y1307864D01*
X406865Y1308213D01*
X407313Y1308412D01*
X407811Y1308462D01*
X408459Y1308362D01*
X408808Y1308213D01*
X409157Y1307964D01*
X409406Y1307615D01*
X409456Y1307266D01*
X409356Y1306917D01*
X409107Y1306668D01*
G01X406466Y1336452D02*
X409456D01*
Y1335206D01*
X409306Y1334807D01*
X409107Y1334558D01*
X408708Y1334458D01*
X408310Y1334558D01*
X408061Y1334857D01*
X407911Y1335206D01*
Y1336452D01*
G01Y1335206D02*
X406466Y1334458D01*
G01Y1331485D02*
X409456D01*
X408858Y1332083D01*
G01X406466D02*
Y1330887D01*
G01X407064Y1328611D02*
X406715Y1328312D01*
X406516Y1327914D01*
X406466Y1327465D01*
X406516Y1327066D01*
X406765Y1326668D01*
X407064Y1326419D01*
X407363Y1326369D01*
X407712Y1326468D01*
X407961Y1326817D01*
X408061Y1327166D01*
Y1327615D01*
G01Y1327166D02*
X408210Y1326867D01*
X408459Y1326618D01*
X408758Y1326518D01*
X409057Y1326618D01*
X409306Y1326867D01*
X409456Y1327316D01*
X409406Y1327764D01*
X409207Y1328213D01*
G01Y1362359D02*
X409356Y1362658D01*
X409456Y1363006D01*
Y1363405D01*
X409306Y1363854D01*
X409057Y1364202D01*
X408758Y1364452D01*
X408260Y1364651D01*
X407811Y1364701D01*
X407363Y1364601D01*
X407064Y1364452D01*
X406765Y1364153D01*
X406566Y1363804D01*
X406466Y1363455D01*
Y1363106D01*
X406566Y1362757D01*
X406715Y1362458D01*
X406914Y1362209D01*
G01X406466Y1359485D02*
X409456D01*
X408858Y1360083D01*
G01X406466D02*
Y1358887D01*
G01Y1355615D02*
X407114Y1355515D01*
X407662Y1355365D01*
X408160Y1355166D01*
X408708Y1354917D01*
X409456Y1354518D01*
Y1356512D01*
G01X406466Y1386452D02*
X409456D01*
Y1385206D01*
X409306Y1384807D01*
X409107Y1384558D01*
X408708Y1384458D01*
X408310Y1384558D01*
X408061Y1384857D01*
X407911Y1385206D01*
Y1386452D01*
G01Y1385206D02*
X406466Y1384458D01*
G01Y1381485D02*
X409456D01*
X408858Y1382083D01*
G01X406466D02*
Y1380887D01*
G01Y1376917D02*
X409456D01*
X407313Y1378761D01*
Y1376269D01*
G01X397641Y1395207D02*
X397342Y1395356D01*
X396994Y1395456D01*
X396595D01*
X396146Y1395306D01*
X395798Y1395057D01*
X395548Y1394758D01*
X395349Y1394260D01*
X395299Y1393811D01*
X395399Y1393363D01*
X395548Y1393064D01*
X395847Y1392765D01*
X396196Y1392566D01*
X396545Y1392466D01*
X396894D01*
X397243Y1392566D01*
X397542Y1392715D01*
X397791Y1392914D01*
G01X400515Y1392466D02*
Y1395456D01*
X399917Y1394858D01*
G01Y1392466D02*
X401113D01*
G01X403389Y1393064D02*
X403688Y1392715D01*
X404086Y1392516D01*
X404535Y1392466D01*
X404934Y1392516D01*
X405332Y1392765D01*
X405581Y1393064D01*
X405631Y1393363D01*
X405532Y1393712D01*
X405183Y1393961D01*
X404834Y1394061D01*
X404385D01*
G01X404834D02*
X405133Y1394210D01*
X405382Y1394459D01*
X405482Y1394758D01*
X405382Y1395057D01*
X405133Y1395306D01*
X404684Y1395456D01*
X404236Y1395406D01*
X403787Y1395207D01*
G01X409207Y1410359D02*
X409356Y1410658D01*
X409456Y1411006D01*
Y1411405D01*
X409306Y1411854D01*
X409057Y1412202D01*
X408758Y1412452D01*
X408260Y1412651D01*
X407811Y1412701D01*
X407363Y1412601D01*
X407064Y1412452D01*
X406765Y1412153D01*
X406566Y1411804D01*
X406466Y1411455D01*
Y1411106D01*
X406566Y1410757D01*
X406715Y1410458D01*
X406914Y1410209D01*
G01X406466Y1407485D02*
X409456D01*
X408858Y1408083D01*
G01X406466D02*
Y1406887D01*
G01X406815Y1404362D02*
X406566Y1404013D01*
X406466Y1403615D01*
X406566Y1403216D01*
X406865Y1402867D01*
X407313Y1402618D01*
X407762Y1402518D01*
X408310D01*
X408758Y1402618D01*
X409157Y1402867D01*
X409356Y1403166D01*
X409456Y1403515D01*
X409356Y1403914D01*
X409157Y1404213D01*
X408858Y1404412D01*
X408459Y1404512D01*
X408111Y1404412D01*
X407762Y1404163D01*
X407562Y1403864D01*
X407512Y1403515D01*
X407612Y1403116D01*
X407861Y1402817D01*
X408310Y1402518D01*
G01X406466Y1432452D02*
X409456D01*
Y1431206D01*
X409306Y1430807D01*
X409107Y1430558D01*
X408708Y1430458D01*
X408310Y1430558D01*
X408061Y1430857D01*
X407911Y1431206D01*
Y1432452D01*
G01Y1431206D02*
X406466Y1430458D01*
G01Y1427485D02*
X409456D01*
X408858Y1428083D01*
G01X406466D02*
Y1426887D01*
G01X406914Y1424611D02*
X406665Y1424312D01*
X406516Y1423964D01*
X406466Y1423515D01*
X406566Y1423066D01*
X406765Y1422718D01*
X407114Y1422468D01*
X407512Y1422419D01*
X407911Y1422518D01*
X408160Y1422768D01*
X408360Y1423116D01*
X408409Y1423465D01*
X408360Y1423814D01*
X408160Y1424262D01*
X409456Y1424113D01*
Y1422768D01*
G54D16*
G01X256906Y1415000D02*
Y1420906D01*
X258480D01*
X259110Y1420611D01*
X259583Y1420217D01*
X259977Y1419626D01*
X260291Y1418937D01*
X260370Y1417953D01*
X260291Y1416969D01*
X259977Y1416280D01*
X259583Y1415689D01*
X259110Y1415295D01*
X258480Y1415000D01*
X256906D01*
G01X263362D02*
Y1420906D01*
X262417Y1419725D01*
G01Y1415000D02*
X264307D01*
G01X296694Y1330200D02*
Y1324294D01*
X295120D01*
X294490Y1324589D01*
X294017Y1324983D01*
X293623Y1325574D01*
X293309Y1326263D01*
X293230Y1327247D01*
X293309Y1328231D01*
X293623Y1328920D01*
X294017Y1329511D01*
X294490Y1329905D01*
X295120Y1330200D01*
X296694D01*
G01X291734Y1325278D02*
X291262Y1324688D01*
X290710Y1324392D01*
X290080Y1324294D01*
X289293Y1324491D01*
X288742Y1324983D01*
X288585Y1325574D01*
X288663Y1326164D01*
X288978Y1326656D01*
X290553Y1327641D01*
X291262Y1328330D01*
X291734Y1329314D01*
X291891Y1330200D01*
X288585D01*
G54D17*
G01X271300Y1441700D02*
G02I-493J0D01*
G01X304685Y1323300D02*
G02I-492J0D01*
G54D18*
G01X264634Y1471874D02*
G03I-6225J0D01*
G01X258409Y1467937D02*
Y1475811D01*
G01X268252Y1444315D02*
X299748D01*
Y1479748D01*
X268252D01*
Y1444315D01*
G01X254472Y1471874D02*
X262346D01*
G01X268252Y1479748D02*
Y1483685D01*
X299748D01*
Y1479748D01*
G01X302453Y1332894D02*
X281547D01*
Y1331900D01*
G01Y1324100D02*
Y1323106D01*
X302453D01*
Y1324000D01*
G01X297906Y1363780D02*
X305780D01*
Y1336220D01*
X297906D01*
G01X278220Y1338189D02*
Y1363780D01*
X286094D01*
G01X278220Y1338189D02*
Y1336220D01*
X286094D01*
G01X296693Y1377315D02*
X283307D01*
Y1366685D01*
X296693D01*
Y1377315D01*
G01X272547Y1432106D02*
X293453D01*
Y1433100D01*
G01X272547Y1433000D02*
Y1432106D01*
G01X293453Y1440900D02*
Y1441894D01*
X272547D01*
Y1441000D01*
G01X302453Y1332000D02*
Y1332894D01*
G01X341827Y1398173D02*
Y1369827D01*
X370173D01*
Y1398173D01*
X341827D01*
G01X346252Y1395417D02*
G03I-1669J0D01*
M02*
