G04 ================== begin FILE IDENTIFICATION RECORD ==================*
G04 Layout Name:  STM32F103_RAK811_THESISNODE.brd*
G04 Film Name:    SILK_TOP*
G04 File Format:  Gerber RS274X*
G04 File Origin:  Cadence Allegro 17.2-S052*
G04 Origin Date:  Tue Jun 16 09:32:29 2020*
G04 *
G04 Layer:  REF DES/SILKSCREEN_TOP*
G04 Layer:  PACKAGE GEOMETRY/SILKSCREEN_TOP*
G04 Layer:  DRAWING FORMAT/SILKSCREEN_TOP*
G04 Layer:  BOARD GEOMETRY/OUTLINE*
G04 Layer:  BOARD GEOMETRY/SILKSCREEN_TOP*
G04 Layer:  BOARD GEOMETRY/LOGO*
G04 *
G04 Offset:    (0.00 0.00)*
G04 Mirror:    No*
G04 Mode:      Positive*
G04 Rotation:  0*
G04 FullContactRelief:  No*
G04 UndefLineWidth:     6.00*
G04 ================== end FILE IDENTIFICATION RECORD ====================*
%FSLAX25Y25*MOIN*%
%IR0*IPPOS*OFA0.00000B0.00000*MIA0B0*SFA1.00000B1.00000*%
%ADD10C,.01*%
%ADD11C,.006*%
%ADD12C,.005*%
%ADD13C,.008*%
%ADD14C,.00984*%
%ADD15C,.00787*%
G75*
%LPD*%
G75*
G36*
G01X256000Y1250000D02*
Y1252500D01*
G03X263500Y1260000I0J7500D01*
G01X266000D01*
G02X256000Y1250000I-10000J0D01*
G37*
G36*
G01X246000Y1260000D02*
G02X256000Y1270000I10000J0D01*
G01Y1267500D01*
G03X248500Y1260000I0J-7500D01*
G01X246000D01*
G37*
G36*
G01X258000Y1464000D02*
Y1466500D01*
G03X265500Y1474000I0J7500D01*
G01X268000D01*
G02X258000Y1464000I-10000J0D01*
G37*
G36*
G01X248000Y1474000D02*
G02X258000Y1484000I10000J0D01*
G01Y1481500D01*
G03X250500Y1474000I0J-7500D01*
G01X248000D01*
G37*
G36*
G01X317000Y1258000D02*
Y1253000D01*
X327000D01*
Y1258000D01*
X317000D01*
G37*
G36*
G01X357000D02*
Y1253000D01*
X367000D01*
Y1258000D01*
X357000D01*
G37*
G36*
G01X337000D02*
Y1253000D01*
X347000D01*
Y1258000D01*
X337000D01*
G37*
G36*
G01X337496Y1396205D02*
X339465Y1398173D01*
X335528D01*
X337496Y1396205D01*
G37*
G36*
G01X336454Y1444014D02*
G03I-681J0D01*
G37*
G36*
G01X377000Y1258000D02*
Y1253000D01*
X387000D01*
Y1258000D01*
X377000D01*
G37*
G36*
G01X417000D02*
Y1253000D01*
X427000D01*
Y1258000D01*
X417000D01*
G37*
G36*
G01X397000D02*
Y1253000D01*
X407000D01*
Y1258000D01*
X397000D01*
G37*
G36*
G01X437000D02*
Y1253000D01*
X447000D01*
Y1258000D01*
X437000D01*
G37*
G36*
G01X453800Y1324000D02*
G03I-13800J0D01*
G37*
G36*
G01Y1372000D02*
G03I-13800J0D01*
G37*
G36*
G01Y1420000D02*
G03I-13800J0D01*
G37*
G36*
G01X457000Y1258000D02*
Y1253000D01*
X467000D01*
Y1258000D01*
X457000D01*
G37*
G36*
G01X477000D02*
Y1253000D01*
X487000D01*
Y1258000D01*
X477000D01*
G37*
G36*
G01X497000D02*
Y1253000D01*
X507000D01*
Y1258000D01*
X497000D01*
G37*
G36*
G01X524000Y1249000D02*
Y1251500D01*
G03X531500Y1259000I0J7500D01*
G01X534000D01*
G02X524000Y1249000I-10000J0D01*
G37*
G36*
G01X514000Y1259000D02*
G02X524000Y1269000I10000J0D01*
G01Y1266500D01*
G03X516500Y1259000I0J-7500D01*
G01X514000D01*
G37*
G36*
G01X524000Y1289158D02*
X529000D01*
Y1299158D01*
X524000D01*
Y1289158D01*
G37*
G36*
G01Y1309158D02*
X529000D01*
Y1319158D01*
X524000D01*
Y1309158D01*
G37*
G36*
G01Y1328842D02*
X529000D01*
Y1338842D01*
X524000D01*
Y1328842D01*
G37*
G36*
G01Y1349158D02*
X529000D01*
Y1359158D01*
X524000D01*
Y1349158D01*
G37*
G36*
G01Y1369158D02*
X529000D01*
Y1379158D01*
X524000D01*
Y1369158D01*
G37*
G36*
G01Y1388842D02*
X529000D01*
Y1398842D01*
X524000D01*
Y1388842D01*
G37*
G36*
G01Y1409158D02*
X529000D01*
Y1419158D01*
X524000D01*
Y1409158D01*
G37*
G36*
G01Y1429158D02*
X529000D01*
Y1439158D01*
X524000D01*
Y1429158D01*
G37*
G36*
G01Y1448842D02*
X529000D01*
Y1458842D01*
X524000D01*
Y1448842D01*
G37*
G36*
G01Y1463000D02*
Y1465500D01*
G03X531500Y1473000I0J7500D01*
G01X534000D01*
G02X524000Y1463000I-10000J0D01*
G37*
G36*
G01X514000Y1473000D02*
G02X524000Y1483000I10000J0D01*
G01Y1480500D01*
G03X516500Y1473000I0J-7500D01*
G01X514000D01*
G37*
G54D10*
G01X360000Y1477000D02*
X369000D01*
X370000Y1476000D01*
X371000Y1477000D01*
X379000D01*
X380000Y1476000D01*
X381000Y1477000D01*
X389000D01*
X390000Y1476000D01*
X391000Y1477000D01*
X399000D01*
X400000Y1476000D01*
X401000Y1477000D01*
X410000D01*
X411000Y1476000D01*
Y1466000D01*
X410000Y1465000D01*
X401000D01*
X400000Y1466000D01*
X399000Y1465000D01*
X391000D01*
X390000Y1466000D01*
X389000Y1465000D01*
X381000D01*
X380000Y1466000D01*
X379000Y1465000D01*
X371000D01*
X370000Y1466000D01*
X369000Y1465000D01*
X360000D01*
X359000Y1466000D01*
Y1476000D01*
X360000Y1477000D01*
G54D11*
G01X245000Y1485000D02*
Y1248000D01*
X534000D01*
Y1485000D01*
X245000D01*
G01X266300Y1260000D02*
G03I-10300J0D01*
G01X255996Y1347000D02*
Y1341000D01*
X268004D01*
Y1347000D01*
X255996D01*
G01X268300Y1474000D02*
G03I-10300J0D01*
G01X326900Y1347900D02*
Y1336100D01*
G01X318500Y1347900D02*
X317100D01*
Y1336100D01*
X318500D01*
G01X325500D02*
X326900D01*
G01X325500Y1347900D02*
X326900D01*
G01X416400Y1329500D02*
Y1318500D01*
G01Y1310000D02*
Y1300400D01*
X463600D01*
G01Y1338000D02*
Y1347600D01*
X416400D01*
Y1338000D01*
G01Y1358000D02*
Y1348400D01*
X463600D01*
G01X416400Y1377500D02*
Y1366500D01*
G01X463600Y1386000D02*
Y1395600D01*
X416400D01*
Y1386000D01*
G01Y1406000D02*
Y1396400D01*
X463600D01*
G01X416400Y1425500D02*
Y1414500D01*
G01X463600Y1434000D02*
Y1443600D01*
X416400D01*
Y1434000D01*
G01X461780Y1468126D02*
X434220D01*
Y1483874D01*
X461780D01*
Y1468126D01*
G01X463600Y1318500D02*
Y1329500D01*
G01Y1300400D02*
Y1310000D01*
G01Y1348400D02*
Y1358000D01*
G01Y1366500D02*
Y1377500D01*
G01Y1396400D02*
Y1406000D01*
G01Y1414500D02*
Y1425500D01*
G01X534300Y1259000D02*
G03I-10300J0D01*
G01Y1473000D02*
G03I-10300J0D01*
G01X262500Y1293500D02*
Y1289000D01*
G01X261100Y1288400D02*
X258800D01*
G01X261100Y1287700D02*
X258800D01*
G01X257500Y1289000D02*
Y1293500D01*
X262500D01*
G01Y1287000D02*
Y1282500D01*
X257500D01*
Y1287000D01*
G01X259500Y1309500D02*
X261000D01*
G01Y1294500D02*
X259000D01*
G01X260000Y1293500D02*
Y1295500D01*
G01X263500Y1301000D02*
Y1295500D01*
X256500D01*
G01Y1303000D02*
Y1308500D01*
X257000D01*
X263500D01*
Y1303000D01*
G01X258500Y1302400D02*
X261500D01*
G01X258500Y1301700D02*
X261500D01*
G01X256500Y1295500D02*
Y1301000D01*
G01Y1328500D02*
X261000D01*
G01X261600Y1327100D02*
Y1324800D01*
G01X262300Y1327100D02*
Y1324800D01*
G01X261000Y1323500D02*
X256500D01*
Y1328500D01*
G01X263000D02*
X267500D01*
Y1323500D01*
X263000D01*
G01X267500Y1329500D02*
X263000D01*
G01X262400Y1330900D02*
Y1333200D01*
G01X261700Y1330900D02*
Y1333200D01*
G01X263000Y1334500D02*
X267500D01*
Y1329500D01*
G01X261000D02*
X256500D01*
Y1334500D01*
X261000D01*
G01X256500Y1358500D02*
X261000D01*
G01X261600Y1357100D02*
Y1354800D01*
G01X262300Y1357100D02*
Y1354800D01*
G01X261000Y1353500D02*
X256500D01*
Y1358500D01*
G01X263000D02*
X267500D01*
Y1353500D01*
X263000D01*
G01X256500Y1364500D02*
X261000D01*
G01X261600Y1363100D02*
Y1360800D01*
G01X262300Y1363100D02*
Y1360800D01*
G01X261000Y1359500D02*
X256500D01*
Y1364500D01*
G01X263000D02*
X267500D01*
Y1359500D01*
X263000D01*
G01X260000Y1409500D02*
Y1411500D01*
G01X262500D02*
Y1407000D01*
G01X261100Y1406400D02*
X258800D01*
G01X261100Y1405700D02*
X258800D01*
G01X257500Y1407000D02*
Y1411500D01*
X262500D01*
G01Y1405000D02*
Y1400500D01*
X257500D01*
Y1405000D01*
G01X259500Y1425500D02*
X261000D01*
G01Y1410500D02*
X259000D01*
G01X263500Y1417000D02*
Y1411500D01*
X256500D01*
G01Y1419000D02*
Y1424500D01*
X257000D01*
X263500D01*
Y1419000D01*
G01X258500Y1418400D02*
X261500D01*
G01X258500Y1417700D02*
X261500D01*
G01X256500Y1411500D02*
Y1417000D01*
G01X276500Y1351500D02*
Y1347000D01*
G01X275100Y1346400D02*
X272800D01*
G01X275100Y1345700D02*
X272800D01*
G01X271500Y1347000D02*
Y1351500D01*
X276500D01*
G01Y1345000D02*
Y1340500D01*
X271500D01*
Y1345000D01*
G01X297500Y1379500D02*
X293000D01*
G01Y1384500D02*
X297500D01*
Y1379500D01*
G01X291000D02*
X286500D01*
Y1384500D01*
X291000D01*
G01X292400Y1380900D02*
Y1383200D01*
G01X291700Y1380900D02*
Y1383200D01*
G01X314500Y1304500D02*
X319000D01*
G01X319600Y1303100D02*
Y1300800D01*
G01X320300Y1303100D02*
Y1300800D01*
G01X319000Y1299500D02*
X314500D01*
Y1304500D01*
G01X321000D02*
X325500D01*
Y1299500D01*
X321000D01*
G01X314500Y1316500D02*
X319000D01*
G01X319600Y1315100D02*
Y1312800D01*
G01X320300Y1315100D02*
Y1312800D01*
G01X319000Y1311500D02*
X314500D01*
Y1316500D01*
G01X321000D02*
X325500D01*
Y1311500D01*
X321000D01*
G01X314500Y1310500D02*
X319000D01*
G01X319600Y1309100D02*
Y1306800D01*
G01X320300Y1309100D02*
Y1306800D01*
G01X319000Y1305500D02*
X314500D01*
Y1310500D01*
G01X321000D02*
X325500D01*
Y1305500D01*
X321000D01*
G01X325500Y1372500D02*
X321000D01*
G01X320400Y1373900D02*
Y1376200D01*
G01X319700Y1373900D02*
Y1376200D01*
G01X321000Y1377500D02*
X325500D01*
Y1372500D01*
G01X319000D02*
X314500D01*
Y1377500D01*
X319000D01*
G01X325500Y1365500D02*
X321000D01*
G01X320400Y1366900D02*
Y1369200D01*
G01X319700Y1366900D02*
Y1369200D01*
G01X321000Y1370500D02*
X325500D01*
Y1365500D01*
G01X319000D02*
X314500D01*
Y1370500D01*
X319000D01*
G01X325500Y1352500D02*
X321000D01*
G01X320400Y1353900D02*
Y1356200D01*
G01X319700Y1353900D02*
Y1356200D01*
G01X321000Y1357500D02*
X325500D01*
Y1352500D01*
G01X319000D02*
X314500D01*
Y1357500D01*
X319000D01*
G01X314500Y1363500D02*
X319000D01*
G01X319600Y1362100D02*
Y1359800D01*
G01X320300Y1362100D02*
Y1359800D01*
G01X319000Y1358500D02*
X314500D01*
Y1363500D01*
G01X321000D02*
X325500D01*
Y1358500D01*
X321000D01*
G01X313807Y1378230D02*
Y1393766D01*
G01X326193D02*
Y1378230D01*
G01D02*
X313807D01*
G01X314500Y1399500D02*
X319000D01*
G01X319600Y1398100D02*
Y1395800D01*
G01X320300Y1398100D02*
Y1395800D01*
G01X319000Y1394500D02*
X314500D01*
Y1399500D01*
G01X321000D02*
X325500D01*
Y1394500D01*
X321000D01*
G01X325500Y1401500D02*
X321000D01*
G01X320400Y1402900D02*
Y1405200D01*
G01X319700Y1402900D02*
Y1405200D01*
G01X321000Y1406500D02*
X325500D01*
Y1401500D01*
G01X319000D02*
X314500D01*
Y1406500D01*
X319000D01*
G01X313807Y1393766D02*
X326193D01*
G01X312913Y1391512D02*
Y1394661D01*
G01D02*
X316063D01*
G01X320110Y1443205D02*
X333890D01*
Y1468795D01*
X320110D01*
Y1443205D01*
G01X305500Y1475500D02*
Y1477000D01*
G01X320500D02*
Y1475000D01*
G01X321500Y1476000D02*
X319500D01*
G01X314000Y1479500D02*
X319500D01*
Y1472500D01*
G01X312000D02*
X306500D01*
Y1473000D01*
Y1479500D01*
X312000D01*
G01X312600Y1474500D02*
Y1477500D01*
G01X313300Y1474500D02*
Y1477500D01*
G01X319500Y1472500D02*
X314000D01*
G01X322500Y1478500D02*
X327000D01*
G01X327600Y1477100D02*
Y1474800D01*
G01X328300Y1477100D02*
Y1474800D01*
G01X327000Y1473500D02*
X322500D01*
Y1478500D01*
G01X329000D02*
X333500D01*
Y1473500D01*
X329000D01*
G01X340800Y1322300D02*
Y1309700D01*
G01X342500Y1412500D02*
Y1417000D01*
G01X343900Y1417600D02*
X346200D01*
G01X343900Y1418300D02*
X346200D01*
G01X347500Y1417000D02*
Y1412500D01*
X342500D01*
G01Y1419000D02*
Y1423500D01*
X347500D01*
Y1419000D01*
G01X360500Y1426500D02*
X359000D01*
G01X356500Y1435000D02*
Y1440500D01*
X363500D01*
G01Y1433000D02*
Y1427500D01*
X363000D01*
X356500D01*
Y1433000D01*
G01X361500Y1433600D02*
X358500D01*
G01X361500Y1434300D02*
X358500D01*
G01X352500Y1426500D02*
X351000D01*
G01X348500Y1435000D02*
Y1440500D01*
X355500D01*
G01Y1433000D02*
Y1427500D01*
X355000D01*
X348500D01*
Y1433000D01*
G01X353500Y1433600D02*
X350500D01*
G01X353500Y1434300D02*
X350500D01*
G01X355500Y1440500D02*
Y1435000D01*
G01Y1412500D02*
Y1417000D01*
G01X356900Y1417600D02*
X359200D01*
G01X356900Y1418300D02*
X359200D01*
G01X360500Y1417000D02*
Y1412500D01*
X355500D01*
G01Y1419000D02*
Y1423500D01*
X360500D01*
Y1419000D01*
G01X349500Y1412500D02*
Y1417000D01*
G01X350900Y1417600D02*
X353200D01*
G01X350900Y1418300D02*
X353200D01*
G01X354500Y1417000D02*
Y1412500D01*
X349500D01*
G01Y1419000D02*
Y1423500D01*
X354500D01*
Y1419000D01*
G01X346500Y1446500D02*
Y1451000D01*
G01X347900Y1451600D02*
X350200D01*
G01X347900Y1452300D02*
X350200D01*
G01X351500Y1451000D02*
Y1446500D01*
X346500D01*
G01Y1453000D02*
Y1457500D01*
X351500D01*
Y1453000D01*
G01Y1474500D02*
Y1470000D01*
G01X350100Y1469400D02*
X347800D01*
G01X350100Y1468700D02*
X347800D01*
G01X346500Y1470000D02*
Y1474500D01*
X351500D01*
G01Y1468000D02*
Y1463500D01*
X346500D01*
Y1468000D01*
G01X359000Y1441500D02*
X361000D01*
G01X360000Y1442500D02*
Y1440500D01*
G01X351000Y1441500D02*
X353000D01*
G01X352000Y1442500D02*
Y1440500D01*
G01X375200Y1314800D02*
G02Y1317200I0J1200D01*
G01Y1309700D02*
Y1322300D01*
G01X379500Y1310000D02*
Y1315500D01*
X386500D01*
G01Y1308000D02*
Y1302500D01*
X386000D01*
X379500D01*
Y1308000D01*
G01X384500Y1308600D02*
X381500D01*
G01X384500Y1309300D02*
X381500D01*
G01X386500Y1315500D02*
Y1310000D01*
G01X370500Y1351000D02*
Y1346500D01*
X365500D01*
Y1351000D01*
G01X370500Y1357500D02*
Y1353000D01*
G01X369100Y1352400D02*
X366800D01*
G01X369100Y1351700D02*
X366800D01*
G01X365500Y1353000D02*
Y1357500D01*
X370500D01*
G01X382500Y1398500D02*
X387000D01*
G01X387600Y1397100D02*
Y1394800D01*
G01X388300Y1397100D02*
Y1394800D01*
G01X387000Y1393500D02*
X382500D01*
Y1398500D01*
G01X389000D02*
X393500D01*
Y1393500D01*
X389000D01*
G01X376500Y1426500D02*
X375000D01*
G01X372500Y1435000D02*
Y1440500D01*
X379500D01*
G01Y1433000D02*
Y1427500D01*
X379000D01*
X372500D01*
Y1433000D01*
G01X377500Y1433600D02*
X374500D01*
G01X377500Y1434300D02*
X374500D01*
G01X379500Y1440500D02*
Y1435000D01*
G01X368500Y1426500D02*
X367000D01*
G01X364500Y1435000D02*
Y1440500D01*
X371500D01*
G01Y1433000D02*
Y1427500D01*
X371000D01*
X364500D01*
Y1433000D01*
G01X369500Y1433600D02*
X366500D01*
G01X369500Y1434300D02*
X366500D01*
G01X371500Y1440500D02*
Y1435000D01*
G01X363500Y1440500D02*
Y1435000D01*
G01X373500Y1412500D02*
Y1417000D01*
G01X374900Y1417600D02*
X377200D01*
G01X374900Y1418300D02*
X377200D01*
G01X378500Y1417000D02*
Y1412500D01*
X373500D01*
G01Y1419000D02*
Y1423500D01*
X378500D01*
Y1419000D01*
G01X367500Y1412500D02*
Y1417000D01*
G01X368900Y1417600D02*
X371200D01*
G01X368900Y1418300D02*
X371200D01*
G01X372500Y1417000D02*
Y1412500D01*
X367500D01*
G01Y1419000D02*
Y1423500D01*
X372500D01*
Y1419000D01*
G01X361500Y1412500D02*
Y1417000D01*
G01X362900Y1417600D02*
X365200D01*
G01X362900Y1418300D02*
X365200D01*
G01X366500Y1417000D02*
Y1412500D01*
X361500D01*
G01Y1419000D02*
Y1423500D01*
X366500D01*
Y1419000D01*
G01X375000Y1441500D02*
X377000D01*
G01X376000Y1442500D02*
Y1440500D01*
G01X367000Y1441500D02*
X369000D01*
G01X368000Y1442500D02*
Y1440500D01*
G01X412500Y1323000D02*
Y1318500D01*
X407500D01*
Y1323000D01*
G01X412500Y1329500D02*
Y1325000D01*
G01X411100Y1324400D02*
X408800D01*
G01X411100Y1323700D02*
X408800D01*
G01X407500Y1325000D02*
Y1329500D01*
X412500D01*
G01Y1349500D02*
Y1345000D01*
G01X411100Y1344400D02*
X408800D01*
G01X411100Y1343700D02*
X408800D01*
G01X407500Y1345000D02*
Y1349500D01*
X412500D01*
G01Y1343000D02*
Y1338500D01*
X407500D01*
Y1343000D01*
G01X412500Y1377500D02*
Y1373000D01*
G01X411100Y1372400D02*
X408800D01*
G01X411100Y1371700D02*
X408800D01*
G01X407500Y1373000D02*
Y1377500D01*
X412500D01*
G01Y1371000D02*
Y1366500D01*
X407500D01*
Y1371000D01*
G01X412500Y1399500D02*
Y1395000D01*
G01X411100Y1394400D02*
X408800D01*
G01X411100Y1393700D02*
X408800D01*
G01X407500Y1395000D02*
Y1399500D01*
X412500D01*
G01Y1393000D02*
Y1388500D01*
X407500D01*
Y1393000D01*
G01X412500Y1425500D02*
Y1421000D01*
G01X411100Y1420400D02*
X408800D01*
G01X411100Y1419700D02*
X408800D01*
G01X407500Y1421000D02*
Y1425500D01*
X412500D01*
G01Y1419000D02*
Y1414500D01*
X407500D01*
Y1419000D01*
G01X411100Y1439700D02*
X408800D01*
G01X412500Y1439000D02*
Y1434500D01*
X407500D01*
Y1439000D01*
G01X412500Y1445500D02*
Y1441000D01*
G01X411100Y1440400D02*
X408800D01*
G01X407500Y1441000D02*
Y1445500D01*
X412500D01*
G54D12*
G01X279500Y1287500D02*
X270000D01*
Y1230000D01*
X306000D01*
Y1263500D01*
G01X265500Y1308500D02*
X269500D01*
G01X267500Y1306500D02*
Y1310500D01*
G01X265500Y1408500D02*
X269500D01*
G01X267500Y1406500D02*
Y1410500D01*
G01X296500Y1287500D02*
X306000D01*
Y1281000D01*
G01X271000Y1306000D02*
Y1310500D01*
X277500Y1317000D01*
X297000D01*
G01Y1302000D02*
Y1291000D01*
X277500D01*
X271000Y1297500D01*
Y1302000D01*
G01X297000Y1317000D02*
Y1306000D01*
G01X298500Y1308000D02*
X302500D01*
G01X271000Y1406000D02*
Y1410500D01*
X277500Y1417000D01*
X297000D01*
G01Y1402000D02*
Y1391000D01*
X277500D01*
X271000Y1397500D01*
Y1402000D01*
G01X297000Y1417000D02*
Y1406000D01*
G01X298500Y1408000D02*
X302500D01*
G01X351685Y1282567D02*
X312315D01*
Y1251071D01*
X351685D01*
Y1282567D01*
G01X391685D02*
X352315D01*
Y1251071D01*
X391685D01*
Y1282567D01*
G01X431685D02*
X392315D01*
Y1251071D01*
X431685D01*
Y1282567D01*
G01X471685D02*
X432315D01*
Y1251071D01*
X471685D01*
Y1282567D01*
G01X511685D02*
X472315D01*
Y1251071D01*
X511685D01*
Y1282567D01*
G01X499500Y1343658D02*
Y1284658D01*
X531000D01*
Y1343658D01*
X499500D01*
G01Y1403658D02*
Y1344658D01*
X531000D01*
Y1403658D01*
X499500D01*
G01X483000Y1345000D02*
X493000D01*
Y1375000D01*
X483000D01*
Y1345000D01*
G01Y1379000D02*
X493000D01*
Y1409000D01*
X483000D01*
Y1379000D01*
G01X499500Y1463658D02*
Y1404658D01*
X531000D01*
Y1463658D01*
X499500D01*
G01X493000Y1443000D02*
X483000D01*
Y1413000D01*
X493000D01*
Y1443000D01*
G54D13*
G01X256000Y1283583D02*
X252000D01*
Y1285042D01*
X252200Y1285508D01*
X252467Y1285800D01*
X253000Y1285917D01*
X253533Y1285800D01*
X253867Y1285450D01*
X254067Y1285042D01*
Y1283583D01*
G01Y1285042D02*
X256000Y1285917D01*
G01X252667Y1287742D02*
X252267Y1288092D01*
X252067Y1288500D01*
X252000Y1288967D01*
X252133Y1289550D01*
X252467Y1289958D01*
X252867Y1290075D01*
X253267Y1290017D01*
X253600Y1289783D01*
X254267Y1288617D01*
X254733Y1288092D01*
X255400Y1287742D01*
X256000Y1287625D01*
Y1290075D01*
G01X250933Y1272150D02*
Y1276150D01*
X252450Y1272817D01*
X253967Y1276150D01*
Y1272150D01*
G01X255325D02*
Y1276150D01*
G01X257775D02*
Y1272150D01*
G01Y1274150D02*
X255325D01*
G01X259542Y1275483D02*
X259892Y1275883D01*
X260300Y1276083D01*
X260767Y1276150D01*
X261350Y1276017D01*
X261758Y1275683D01*
X261875Y1275283D01*
X261817Y1274883D01*
X261583Y1274550D01*
X260417Y1273883D01*
X259892Y1273417D01*
X259542Y1272750D01*
X259425Y1272150D01*
X261875D01*
G01X255000Y1295467D02*
X251000D01*
Y1296633D01*
X251200Y1297100D01*
X251467Y1297450D01*
X251867Y1297742D01*
X252333Y1297975D01*
X253000Y1298033D01*
X253667Y1297975D01*
X254133Y1297742D01*
X254533Y1297450D01*
X254800Y1297100D01*
X255000Y1296633D01*
Y1295467D01*
G01X254200Y1299567D02*
X254667Y1299917D01*
X254933Y1300383D01*
X255000Y1300908D01*
X254933Y1301375D01*
X254600Y1301842D01*
X254200Y1302133D01*
X253800Y1302192D01*
X253333Y1302075D01*
X253000Y1301667D01*
X252867Y1301258D01*
Y1300733D01*
G01Y1301258D02*
X252667Y1301608D01*
X252333Y1301900D01*
X251933Y1302017D01*
X251533Y1301900D01*
X251200Y1301608D01*
X251000Y1301083D01*
X251067Y1300558D01*
X251333Y1300033D01*
G01X252033Y1327667D02*
X251683Y1327867D01*
X251275Y1328000D01*
X250808D01*
X250283Y1327800D01*
X249875Y1327467D01*
X249583Y1327067D01*
X249350Y1326400D01*
X249292Y1325800D01*
X249408Y1325200D01*
X249583Y1324800D01*
X249933Y1324400D01*
X250342Y1324133D01*
X250750Y1324000D01*
X251158D01*
X251567Y1324133D01*
X251917Y1324333D01*
X252208Y1324600D01*
G01X254850Y1324000D02*
Y1328000D01*
X254150Y1327200D01*
G01Y1324000D02*
X255550D01*
G01X273033Y1335667D02*
X272683Y1335867D01*
X272275Y1336000D01*
X271808D01*
X271283Y1335800D01*
X270875Y1335467D01*
X270583Y1335067D01*
X270350Y1334400D01*
X270292Y1333800D01*
X270408Y1333200D01*
X270583Y1332800D01*
X270933Y1332400D01*
X271342Y1332133D01*
X271750Y1332000D01*
X272158D01*
X272567Y1332133D01*
X272917Y1332333D01*
X273208Y1332600D01*
G01X274742Y1335333D02*
X275092Y1335733D01*
X275500Y1335933D01*
X275967Y1336000D01*
X276550Y1335867D01*
X276958Y1335533D01*
X277075Y1335133D01*
X277017Y1334733D01*
X276783Y1334400D01*
X275617Y1333733D01*
X275092Y1333267D01*
X274742Y1332600D01*
X274625Y1332000D01*
X277075D01*
G01X270667Y1325000D02*
Y1329000D01*
X271833D01*
X272300Y1328800D01*
X272650Y1328533D01*
X272942Y1328133D01*
X273175Y1327667D01*
X273233Y1327000D01*
X273175Y1326333D01*
X272942Y1325867D01*
X272650Y1325467D01*
X272300Y1325200D01*
X271833Y1325000D01*
X270667D01*
G01X274942Y1328333D02*
X275292Y1328733D01*
X275700Y1328933D01*
X276167Y1329000D01*
X276750Y1328867D01*
X277158Y1328533D01*
X277275Y1328133D01*
X277217Y1327733D01*
X276983Y1327400D01*
X275817Y1326733D01*
X275292Y1326267D01*
X274942Y1325600D01*
X274825Y1325000D01*
X277275D01*
G01X249583Y1330000D02*
Y1334000D01*
X251042D01*
X251508Y1333800D01*
X251800Y1333533D01*
X251917Y1333000D01*
X251800Y1332467D01*
X251450Y1332133D01*
X251042Y1331933D01*
X249583D01*
G01X251042D02*
X251917Y1330000D01*
G01X254850D02*
Y1334000D01*
X254150Y1333200D01*
G01Y1330000D02*
X255550D01*
G01X272033Y1377667D02*
X271683Y1377867D01*
X271275Y1378000D01*
X270808D01*
X270283Y1377800D01*
X269875Y1377467D01*
X269583Y1377067D01*
X269350Y1376400D01*
X269292Y1375800D01*
X269408Y1375200D01*
X269583Y1374800D01*
X269933Y1374400D01*
X270342Y1374133D01*
X270750Y1374000D01*
X271158D01*
X271567Y1374133D01*
X271917Y1374333D01*
X272208Y1374600D01*
G01X273567D02*
X273917Y1374267D01*
X274325Y1374067D01*
X274850Y1374000D01*
X275375Y1374133D01*
X275783Y1374400D01*
X276075Y1374867D01*
X276133Y1375400D01*
X276017Y1375933D01*
X275725Y1376267D01*
X275317Y1376533D01*
X274908Y1376600D01*
X274500Y1376533D01*
X273975Y1376267D01*
X274150Y1378000D01*
X275725D01*
G01X269633Y1354966D02*
Y1358966D01*
X271092D01*
X271558Y1358766D01*
X271850Y1358499D01*
X271967Y1357966D01*
X271850Y1357433D01*
X271500Y1357099D01*
X271092Y1356899D01*
X269633D01*
G01X271092D02*
X271967Y1354966D01*
G01X273792Y1356633D02*
X274200Y1357099D01*
X274550Y1357366D01*
X275017Y1357499D01*
X275425Y1357366D01*
X275717Y1357099D01*
X275950Y1356699D01*
X276008Y1356233D01*
X275950Y1355833D01*
X275717Y1355433D01*
X275367Y1355099D01*
X274958Y1354966D01*
X274492Y1355099D01*
X274083Y1355499D01*
X273850Y1356099D01*
X273792Y1356766D01*
X273908Y1357633D01*
X274083Y1358099D01*
X274375Y1358566D01*
X274783Y1358899D01*
X275192Y1358966D01*
X275600Y1358833D01*
X275892Y1358499D01*
G01X269583Y1361000D02*
Y1365000D01*
X271042D01*
X271508Y1364800D01*
X271800Y1364533D01*
X271917Y1364000D01*
X271800Y1363467D01*
X271450Y1363133D01*
X271042Y1362933D01*
X269583D01*
G01X271042D02*
X271917Y1361000D01*
G01X273567Y1361600D02*
X273917Y1361267D01*
X274325Y1361067D01*
X274850Y1361000D01*
X275375Y1361133D01*
X275783Y1361400D01*
X276075Y1361867D01*
X276133Y1362400D01*
X276017Y1362933D01*
X275725Y1363267D01*
X275317Y1363533D01*
X274908Y1363600D01*
X274500Y1363533D01*
X273975Y1363267D01*
X274150Y1365000D01*
X275725D01*
G01X272033Y1371667D02*
X271683Y1371867D01*
X271275Y1372000D01*
X270808D01*
X270283Y1371800D01*
X269875Y1371467D01*
X269583Y1371067D01*
X269350Y1370400D01*
X269292Y1369800D01*
X269408Y1369200D01*
X269583Y1368800D01*
X269933Y1368400D01*
X270342Y1368133D01*
X270750Y1368000D01*
X271158D01*
X271567Y1368133D01*
X271917Y1368333D01*
X272208Y1368600D01*
G01X273742Y1369667D02*
X274150Y1370133D01*
X274500Y1370400D01*
X274967Y1370533D01*
X275375Y1370400D01*
X275667Y1370133D01*
X275900Y1369733D01*
X275958Y1369267D01*
X275900Y1368867D01*
X275667Y1368467D01*
X275317Y1368133D01*
X274908Y1368000D01*
X274442Y1368133D01*
X274033Y1368533D01*
X273800Y1369133D01*
X273742Y1369800D01*
X273858Y1370667D01*
X274033Y1371133D01*
X274325Y1371600D01*
X274733Y1371933D01*
X275142Y1372000D01*
X275550Y1371867D01*
X275842Y1371533D01*
G01X249583Y1401000D02*
Y1405000D01*
X251042D01*
X251508Y1404800D01*
X251800Y1404533D01*
X251917Y1404000D01*
X251800Y1403467D01*
X251450Y1403133D01*
X251042Y1402933D01*
X249583D01*
G01X251042D02*
X251917Y1401000D01*
G01X253567Y1401800D02*
X253917Y1401333D01*
X254383Y1401067D01*
X254908Y1401000D01*
X255375Y1401067D01*
X255842Y1401400D01*
X256133Y1401800D01*
X256192Y1402200D01*
X256075Y1402667D01*
X255667Y1403000D01*
X255258Y1403133D01*
X254733D01*
G01X255258D02*
X255608Y1403333D01*
X255900Y1403667D01*
X256017Y1404067D01*
X255900Y1404467D01*
X255608Y1404800D01*
X255083Y1405000D01*
X254558Y1404933D01*
X254033Y1404667D01*
G01X259667Y1435000D02*
Y1439000D01*
X260833D01*
X261300Y1438800D01*
X261650Y1438533D01*
X261942Y1438133D01*
X262175Y1437667D01*
X262233Y1437000D01*
X262175Y1436333D01*
X261942Y1435867D01*
X261650Y1435467D01*
X261300Y1435200D01*
X260833Y1435000D01*
X259667D01*
G01X265050D02*
Y1439000D01*
X264350Y1438200D01*
G01Y1435000D02*
X265750D01*
G01X249467Y1412000D02*
Y1416000D01*
X250633D01*
X251100Y1415800D01*
X251450Y1415533D01*
X251742Y1415133D01*
X251975Y1414667D01*
X252033Y1414000D01*
X251975Y1413333D01*
X251742Y1412867D01*
X251450Y1412467D01*
X251100Y1412200D01*
X250633Y1412000D01*
X249467D01*
G01X255550D02*
Y1416000D01*
X253392Y1413133D01*
X256308D01*
G01X260583Y1445800D02*
X260875Y1445400D01*
X261225Y1445133D01*
X261633Y1445000D01*
X262100Y1445133D01*
X262450Y1445400D01*
X262800Y1445800D01*
X262917Y1446333D01*
Y1449000D01*
G01X265850Y1445000D02*
Y1449000D01*
X265150Y1448200D01*
G01Y1445000D02*
X266550D01*
G01X253233Y1458000D02*
Y1462000D01*
X254750Y1458667D01*
X256267Y1462000D01*
Y1458000D01*
G01X257625D02*
Y1462000D01*
G01X260075D02*
Y1458000D01*
G01Y1460000D02*
X257625D01*
G01X262950Y1458000D02*
Y1462000D01*
X262250Y1461200D01*
G01Y1458000D02*
X263650D01*
G01X284800Y1271417D02*
X284400Y1271125D01*
X284133Y1270775D01*
X284000Y1270367D01*
X284133Y1269900D01*
X284400Y1269550D01*
X284800Y1269200D01*
X285333Y1269083D01*
X288000D01*
G01X287333Y1267258D02*
X287733Y1266908D01*
X287933Y1266500D01*
X288000Y1266033D01*
X287867Y1265450D01*
X287533Y1265042D01*
X287133Y1264925D01*
X286733Y1264983D01*
X286400Y1265217D01*
X285733Y1266383D01*
X285267Y1266908D01*
X284600Y1267258D01*
X284000Y1267375D01*
Y1264925D01*
G01X282033Y1322667D02*
X281683Y1322867D01*
X281275Y1323000D01*
X280808D01*
X280283Y1322800D01*
X279875Y1322467D01*
X279583Y1322067D01*
X279350Y1321400D01*
X279292Y1320800D01*
X279408Y1320200D01*
X279583Y1319800D01*
X279933Y1319400D01*
X280342Y1319133D01*
X280750Y1319000D01*
X281158D01*
X281567Y1319133D01*
X281917Y1319333D01*
X282208Y1319600D01*
G01X283567Y1319800D02*
X283917Y1319333D01*
X284383Y1319067D01*
X284908Y1319000D01*
X285375Y1319067D01*
X285842Y1319400D01*
X286133Y1319800D01*
X286192Y1320200D01*
X286075Y1320667D01*
X285667Y1321000D01*
X285258Y1321133D01*
X284733D01*
G01X285258D02*
X285608Y1321333D01*
X285900Y1321667D01*
X286017Y1322067D01*
X285900Y1322467D01*
X285608Y1322800D01*
X285083Y1323000D01*
X284558Y1322933D01*
X284033Y1322667D01*
G01X327548Y1300966D02*
Y1303956D01*
X328794D01*
X329193Y1303806D01*
X329442Y1303607D01*
X329542Y1303208D01*
X329442Y1302810D01*
X329143Y1302561D01*
X328794Y1302411D01*
X327548D01*
G01X328794D02*
X329542Y1300966D01*
G01X331568Y1303458D02*
X331867Y1303757D01*
X332216Y1303906D01*
X332615Y1303956D01*
X333113Y1303856D01*
X333462Y1303607D01*
X333562Y1303308D01*
X333512Y1303009D01*
X333312Y1302760D01*
X332316Y1302262D01*
X331867Y1301913D01*
X331568Y1301414D01*
X331468Y1300966D01*
X333562D01*
G01X335389Y1301564D02*
X335688Y1301215D01*
X336086Y1301016D01*
X336535Y1300966D01*
X336934Y1301016D01*
X337332Y1301265D01*
X337581Y1301564D01*
X337631Y1301863D01*
X337532Y1302212D01*
X337183Y1302461D01*
X336834Y1302561D01*
X336385D01*
G01X336834D02*
X337133Y1302710D01*
X337382Y1302959D01*
X337482Y1303258D01*
X337382Y1303557D01*
X337133Y1303806D01*
X336684Y1303956D01*
X336236Y1303906D01*
X335787Y1303707D01*
G01X327548Y1312966D02*
Y1315956D01*
X328794D01*
X329193Y1315806D01*
X329442Y1315607D01*
X329542Y1315208D01*
X329442Y1314810D01*
X329143Y1314561D01*
X328794Y1314411D01*
X327548D01*
G01X328794D02*
X329542Y1312966D01*
G01X331568Y1315458D02*
X331867Y1315757D01*
X332216Y1315906D01*
X332615Y1315956D01*
X333113Y1315856D01*
X333462Y1315607D01*
X333562Y1315308D01*
X333512Y1315009D01*
X333312Y1314760D01*
X332316Y1314262D01*
X331867Y1313913D01*
X331568Y1313414D01*
X331468Y1312966D01*
X333562D01*
G01X337083D02*
Y1315956D01*
X335239Y1313813D01*
X337731D01*
G01X327548Y1306966D02*
Y1309956D01*
X328794D01*
X329193Y1309806D01*
X329442Y1309607D01*
X329542Y1309208D01*
X329442Y1308810D01*
X329143Y1308561D01*
X328794Y1308411D01*
X327548D01*
G01X328794D02*
X329542Y1306966D01*
G01X331568Y1309458D02*
X331867Y1309757D01*
X332216Y1309906D01*
X332615Y1309956D01*
X333113Y1309856D01*
X333462Y1309607D01*
X333562Y1309308D01*
X333512Y1309009D01*
X333312Y1308760D01*
X332316Y1308262D01*
X331867Y1307913D01*
X331568Y1307414D01*
X331468Y1306966D01*
X333562D01*
G01X335389Y1307414D02*
X335688Y1307165D01*
X336036Y1307016D01*
X336485Y1306966D01*
X336934Y1307066D01*
X337282Y1307265D01*
X337532Y1307614D01*
X337581Y1308012D01*
X337482Y1308411D01*
X337232Y1308660D01*
X336884Y1308860D01*
X336535Y1308909D01*
X336186Y1308860D01*
X335738Y1308660D01*
X335887Y1309956D01*
X337232D01*
G01X332033Y1352667D02*
X331683Y1352867D01*
X331275Y1353000D01*
X330808D01*
X330283Y1352800D01*
X329875Y1352467D01*
X329583Y1352067D01*
X329350Y1351400D01*
X329292Y1350800D01*
X329408Y1350200D01*
X329583Y1349800D01*
X329933Y1349400D01*
X330342Y1349133D01*
X330750Y1349000D01*
X331158D01*
X331567Y1349133D01*
X331917Y1349333D01*
X332208Y1349600D01*
G01X334850Y1349000D02*
Y1353000D01*
X334150Y1352200D01*
G01Y1349000D02*
X335550D01*
G01X338950D02*
X339358Y1349067D01*
X339825Y1349267D01*
X340117Y1349600D01*
X340233Y1350067D01*
X340117Y1350533D01*
X339767Y1350933D01*
X339242Y1351133D01*
X338658D01*
X338308Y1351267D01*
X338017Y1351600D01*
X337900Y1352067D01*
X338075Y1352533D01*
X338483Y1352867D01*
X338950Y1353000D01*
X339417Y1352867D01*
X339825Y1352533D01*
X340000Y1352067D01*
X339883Y1351600D01*
X339592Y1351267D01*
X339242Y1351133D01*
X338658D01*
X338133Y1350933D01*
X337783Y1350533D01*
X337667Y1350067D01*
X337783Y1349600D01*
X338075Y1349267D01*
X338542Y1349067D01*
X338950Y1349000D01*
G01X331217Y1345133D02*
X331450Y1345333D01*
X331625Y1345667D01*
X331742Y1346133D01*
X331625Y1346533D01*
X331392Y1346800D01*
X330983Y1347000D01*
X329408D01*
Y1343000D01*
X331333D01*
X331742Y1343267D01*
X331975Y1343667D01*
X332092Y1344133D01*
X331975Y1344600D01*
X331625Y1345000D01*
X331217Y1345133D01*
X329408D01*
G01X334850Y1343000D02*
Y1347000D01*
X334150Y1346200D01*
G01Y1343000D02*
X335550D01*
G01X307583Y1341000D02*
Y1337000D01*
X309917D01*
G01X312850D02*
Y1341000D01*
X312150Y1340200D01*
G01Y1337000D02*
X313550D01*
G01X304033Y1375667D02*
X303683Y1375867D01*
X303275Y1376000D01*
X302808D01*
X302283Y1375800D01*
X301875Y1375467D01*
X301583Y1375067D01*
X301350Y1374400D01*
X301292Y1373800D01*
X301408Y1373200D01*
X301583Y1372800D01*
X301933Y1372400D01*
X302342Y1372133D01*
X302750Y1372000D01*
X303158D01*
X303567Y1372133D01*
X303917Y1372333D01*
X304208Y1372600D01*
G01X306850Y1372000D02*
Y1376000D01*
X306150Y1375200D01*
G01Y1372000D02*
X307550D01*
G01X309667Y1372600D02*
X310017Y1372267D01*
X310425Y1372067D01*
X310950Y1372000D01*
X311475Y1372133D01*
X311883Y1372400D01*
X312175Y1372867D01*
X312233Y1373400D01*
X312117Y1373933D01*
X311825Y1374267D01*
X311417Y1374533D01*
X311008Y1374600D01*
X310600Y1374533D01*
X310075Y1374267D01*
X310250Y1376000D01*
X311825D01*
G01X304033Y1370667D02*
X303683Y1370867D01*
X303275Y1371000D01*
X302808D01*
X302283Y1370800D01*
X301875Y1370467D01*
X301583Y1370067D01*
X301350Y1369400D01*
X301292Y1368800D01*
X301408Y1368200D01*
X301583Y1367800D01*
X301933Y1367400D01*
X302342Y1367133D01*
X302750Y1367000D01*
X303158D01*
X303567Y1367133D01*
X303917Y1367333D01*
X304208Y1367600D01*
G01X306850Y1367000D02*
Y1371000D01*
X306150Y1370200D01*
G01Y1367000D02*
X307550D01*
G01X310950Y1371000D02*
X310483Y1370867D01*
X310133Y1370533D01*
X309900Y1370133D01*
X309725Y1369600D01*
X309667Y1369000D01*
X309725Y1368400D01*
X309900Y1367867D01*
X310133Y1367467D01*
X310483Y1367133D01*
X310950Y1367000D01*
X311417Y1367133D01*
X311767Y1367467D01*
X312000Y1367867D01*
X312175Y1368400D01*
X312233Y1369000D01*
X312175Y1369600D01*
X312000Y1370133D01*
X311767Y1370533D01*
X311417Y1370867D01*
X310950Y1371000D01*
G01X329583Y1354000D02*
Y1358000D01*
X331042D01*
X331508Y1357800D01*
X331800Y1357533D01*
X331917Y1357000D01*
X331800Y1356467D01*
X331450Y1356133D01*
X331042Y1355933D01*
X329583D01*
G01X331042D02*
X331917Y1354000D01*
G01X334850D02*
Y1358000D01*
X334150Y1357200D01*
G01Y1354000D02*
X335550D01*
G01X337842Y1357333D02*
X338192Y1357733D01*
X338600Y1357933D01*
X339067Y1358000D01*
X339650Y1357867D01*
X340058Y1357533D01*
X340175Y1357133D01*
X340117Y1356733D01*
X339883Y1356400D01*
X338717Y1355733D01*
X338192Y1355267D01*
X337842Y1354600D01*
X337725Y1354000D01*
X340175D01*
G01X306750Y1379000D02*
Y1380800D01*
X305583Y1383000D01*
G01X307917D02*
X306750Y1380800D01*
G01X310850Y1379000D02*
Y1383000D01*
X310150Y1382200D01*
G01Y1379000D02*
X311550D01*
G01X306033Y1399667D02*
X305683Y1399867D01*
X305275Y1400000D01*
X304808D01*
X304283Y1399800D01*
X303875Y1399467D01*
X303583Y1399067D01*
X303350Y1398400D01*
X303292Y1397800D01*
X303408Y1397200D01*
X303583Y1396800D01*
X303933Y1396400D01*
X304342Y1396133D01*
X304750Y1396000D01*
X305158D01*
X305567Y1396133D01*
X305917Y1396333D01*
X306208Y1396600D01*
G01X308850Y1396000D02*
Y1400000D01*
X308150Y1399200D01*
G01Y1396000D02*
X309550D01*
G01X313650D02*
Y1400000D01*
X311492Y1397133D01*
X314408D01*
G01X306033Y1405667D02*
X305683Y1405867D01*
X305275Y1406000D01*
X304808D01*
X304283Y1405800D01*
X303875Y1405467D01*
X303583Y1405067D01*
X303350Y1404400D01*
X303292Y1403800D01*
X303408Y1403200D01*
X303583Y1402800D01*
X303933Y1402400D01*
X304342Y1402133D01*
X304750Y1402000D01*
X305158D01*
X305567Y1402133D01*
X305917Y1402333D01*
X306208Y1402600D01*
G01X308850Y1402000D02*
Y1406000D01*
X308150Y1405200D01*
G01Y1402000D02*
X309550D01*
G01X312950D02*
Y1406000D01*
X312250Y1405200D01*
G01Y1402000D02*
X313650D01*
G01X306033Y1411667D02*
X305683Y1411867D01*
X305275Y1412000D01*
X304808D01*
X304283Y1411800D01*
X303875Y1411467D01*
X303583Y1411067D01*
X303350Y1410400D01*
X303292Y1409800D01*
X303408Y1409200D01*
X303583Y1408800D01*
X303933Y1408400D01*
X304342Y1408133D01*
X304750Y1408000D01*
X305158D01*
X305567Y1408133D01*
X305917Y1408333D01*
X306208Y1408600D01*
G01X309550Y1408000D02*
Y1412000D01*
X307392Y1409133D01*
X310308D01*
G01X326333Y1418033D02*
X326133Y1417683D01*
X326000Y1417275D01*
Y1416808D01*
X326200Y1416283D01*
X326533Y1415875D01*
X326933Y1415583D01*
X327600Y1415350D01*
X328200Y1415292D01*
X328800Y1415408D01*
X329200Y1415583D01*
X329600Y1415933D01*
X329867Y1416342D01*
X330000Y1416750D01*
Y1417158D01*
X329867Y1417567D01*
X329667Y1417917D01*
X329400Y1418208D01*
G01X329533Y1419858D02*
X329867Y1420267D01*
X330000Y1420733D01*
X329867Y1421200D01*
X329467Y1421608D01*
X328867Y1421900D01*
X328267Y1422017D01*
X327533D01*
X326933Y1421900D01*
X326400Y1421608D01*
X326133Y1421258D01*
X326000Y1420850D01*
X326133Y1420383D01*
X326400Y1420033D01*
X326800Y1419800D01*
X327333Y1419683D01*
X327800Y1419800D01*
X328267Y1420092D01*
X328533Y1420442D01*
X328600Y1420850D01*
X328467Y1421317D01*
X328133Y1421667D01*
X327533Y1422017D01*
G01X309467Y1435000D02*
Y1432133D01*
X309700Y1431533D01*
X310167Y1431133D01*
X310750Y1431000D01*
X311333Y1431133D01*
X311800Y1431533D01*
X312033Y1432133D01*
Y1435000D01*
G01X313742Y1434333D02*
X314092Y1434733D01*
X314500Y1434933D01*
X314967Y1435000D01*
X315550Y1434867D01*
X315958Y1434533D01*
X316075Y1434133D01*
X316017Y1433733D01*
X315783Y1433400D01*
X314617Y1432733D01*
X314092Y1432267D01*
X313742Y1431600D01*
X313625Y1431000D01*
X316075D01*
G01X341583Y1284800D02*
X341875Y1284400D01*
X342225Y1284133D01*
X342633Y1284000D01*
X343100Y1284133D01*
X343450Y1284400D01*
X343800Y1284800D01*
X343917Y1285333D01*
Y1288000D01*
G01X346850Y1284000D02*
Y1288000D01*
X346150Y1287200D01*
G01Y1284000D02*
X347550D01*
G01X350950Y1288000D02*
X350483Y1287867D01*
X350133Y1287533D01*
X349900Y1287133D01*
X349725Y1286600D01*
X349667Y1286000D01*
X349725Y1285400D01*
X349900Y1284867D01*
X350133Y1284467D01*
X350483Y1284133D01*
X350950Y1284000D01*
X351417Y1284133D01*
X351767Y1284467D01*
X352000Y1284867D01*
X352175Y1285400D01*
X352233Y1286000D01*
X352175Y1286600D01*
X352000Y1287133D01*
X351767Y1287533D01*
X351417Y1287867D01*
X350950Y1288000D01*
G01X334467Y1405000D02*
Y1402133D01*
X334700Y1401533D01*
X335167Y1401133D01*
X335750Y1401000D01*
X336333Y1401133D01*
X336800Y1401533D01*
X337033Y1402133D01*
Y1405000D01*
G01X338567Y1401800D02*
X338917Y1401333D01*
X339383Y1401067D01*
X339908Y1401000D01*
X340375Y1401067D01*
X340842Y1401400D01*
X341133Y1401800D01*
X341192Y1402200D01*
X341075Y1402667D01*
X340667Y1403000D01*
X340258Y1403133D01*
X339733D01*
G01X340258D02*
X340608Y1403333D01*
X340900Y1403667D01*
X341017Y1404067D01*
X340900Y1404467D01*
X340608Y1404800D01*
X340083Y1405000D01*
X339558Y1404933D01*
X339033Y1404667D01*
G01X335000Y1415583D02*
X331000D01*
Y1417042D01*
X331200Y1417508D01*
X331467Y1417800D01*
X332000Y1417917D01*
X332533Y1417800D01*
X332867Y1417450D01*
X333067Y1417042D01*
Y1415583D01*
G01Y1417042D02*
X335000Y1417917D01*
G01Y1420733D02*
X334133Y1420850D01*
X333400Y1421025D01*
X332733Y1421258D01*
X332000Y1421550D01*
X331000Y1422017D01*
Y1419683D01*
G01X356033Y1450667D02*
X355683Y1450867D01*
X355275Y1451000D01*
X354808D01*
X354283Y1450800D01*
X353875Y1450467D01*
X353583Y1450067D01*
X353350Y1449400D01*
X353292Y1448800D01*
X353408Y1448200D01*
X353583Y1447800D01*
X353933Y1447400D01*
X354342Y1447133D01*
X354750Y1447000D01*
X355158D01*
X355567Y1447133D01*
X355917Y1447333D01*
X356208Y1447600D01*
G01X358850Y1447000D02*
X359258Y1447067D01*
X359725Y1447267D01*
X360017Y1447600D01*
X360133Y1448067D01*
X360017Y1448533D01*
X359667Y1448933D01*
X359142Y1449133D01*
X358558D01*
X358208Y1449267D01*
X357917Y1449600D01*
X357800Y1450067D01*
X357975Y1450533D01*
X358383Y1450867D01*
X358850Y1451000D01*
X359317Y1450867D01*
X359725Y1450533D01*
X359900Y1450067D01*
X359783Y1449600D01*
X359492Y1449267D01*
X359142Y1449133D01*
X358558D01*
X358033Y1448933D01*
X357683Y1448533D01*
X357567Y1448067D01*
X357683Y1447600D01*
X357975Y1447267D01*
X358442Y1447067D01*
X358850Y1447000D01*
G01X356033Y1456667D02*
X355683Y1456867D01*
X355275Y1457000D01*
X354808D01*
X354283Y1456800D01*
X353875Y1456467D01*
X353583Y1456067D01*
X353350Y1455400D01*
X353292Y1454800D01*
X353408Y1454200D01*
X353583Y1453800D01*
X353933Y1453400D01*
X354342Y1453133D01*
X354750Y1453000D01*
X355158D01*
X355567Y1453133D01*
X355917Y1453333D01*
X356208Y1453600D01*
G01X358733Y1453000D02*
X358850Y1453867D01*
X359025Y1454600D01*
X359258Y1455267D01*
X359550Y1456000D01*
X360017Y1457000D01*
X357683D01*
G01X338467Y1476000D02*
Y1480000D01*
X339633D01*
X340100Y1479800D01*
X340450Y1479533D01*
X340742Y1479133D01*
X340975Y1478667D01*
X341033Y1478000D01*
X340975Y1477333D01*
X340742Y1476867D01*
X340450Y1476467D01*
X340100Y1476200D01*
X339633Y1476000D01*
X338467D01*
G01X342567Y1476600D02*
X342917Y1476267D01*
X343325Y1476067D01*
X343850Y1476000D01*
X344375Y1476133D01*
X344783Y1476400D01*
X345075Y1476867D01*
X345133Y1477400D01*
X345017Y1477933D01*
X344725Y1478267D01*
X344317Y1478533D01*
X343908Y1478600D01*
X343500Y1478533D01*
X342975Y1478267D01*
X343150Y1480000D01*
X344725D01*
G01X347583Y1476000D02*
Y1480000D01*
X349042D01*
X349508Y1479800D01*
X349800Y1479533D01*
X349917Y1479000D01*
X349800Y1478467D01*
X349450Y1478133D01*
X349042Y1477933D01*
X347583D01*
G01X349042D02*
X349917Y1476000D01*
G01X353550D02*
Y1480000D01*
X351392Y1477133D01*
X354308D01*
G01X383583Y1283800D02*
X383875Y1283400D01*
X384225Y1283133D01*
X384633Y1283000D01*
X385100Y1283133D01*
X385450Y1283400D01*
X385800Y1283800D01*
X385917Y1284333D01*
Y1287000D01*
G01X388850Y1283000D02*
X389258Y1283067D01*
X389725Y1283267D01*
X390017Y1283600D01*
X390133Y1284067D01*
X390017Y1284533D01*
X389667Y1284933D01*
X389142Y1285133D01*
X388558D01*
X388208Y1285267D01*
X387917Y1285600D01*
X387800Y1286067D01*
X387975Y1286533D01*
X388383Y1286867D01*
X388850Y1287000D01*
X389317Y1286867D01*
X389725Y1286533D01*
X389900Y1286067D01*
X389783Y1285600D01*
X389492Y1285267D01*
X389142Y1285133D01*
X388558D01*
X388033Y1284933D01*
X387683Y1284533D01*
X387567Y1284067D01*
X387683Y1283600D01*
X387975Y1283267D01*
X388442Y1283067D01*
X388850Y1283000D01*
G01X391033Y1314667D02*
X390683Y1314867D01*
X390275Y1315000D01*
X389808D01*
X389283Y1314800D01*
X388875Y1314467D01*
X388583Y1314067D01*
X388350Y1313400D01*
X388292Y1312800D01*
X388408Y1312200D01*
X388583Y1311800D01*
X388933Y1311400D01*
X389342Y1311133D01*
X389750Y1311000D01*
X390158D01*
X390567Y1311133D01*
X390917Y1311333D01*
X391208Y1311600D01*
G01X392742Y1314333D02*
X393092Y1314733D01*
X393500Y1314933D01*
X393967Y1315000D01*
X394550Y1314867D01*
X394958Y1314533D01*
X395075Y1314133D01*
X395017Y1313733D01*
X394783Y1313400D01*
X393617Y1312733D01*
X393092Y1312267D01*
X392742Y1311600D01*
X392625Y1311000D01*
X395075D01*
G01X396842Y1314333D02*
X397192Y1314733D01*
X397600Y1314933D01*
X398067Y1315000D01*
X398650Y1314867D01*
X399058Y1314533D01*
X399175Y1314133D01*
X399117Y1313733D01*
X398883Y1313400D01*
X397717Y1312733D01*
X397192Y1312267D01*
X396842Y1311600D01*
X396725Y1311000D01*
X399175D01*
G01X369667Y1335000D02*
Y1332133D01*
X369900Y1331533D01*
X370367Y1331133D01*
X370950Y1331000D01*
X371533Y1331133D01*
X372000Y1331533D01*
X372233Y1332133D01*
Y1335000D01*
G01X374933Y1331000D02*
X375050Y1331867D01*
X375225Y1332600D01*
X375458Y1333267D01*
X375750Y1334000D01*
X376217Y1335000D01*
X373883D01*
G01X376033Y1356667D02*
X375683Y1356867D01*
X375275Y1357000D01*
X374808D01*
X374283Y1356800D01*
X373875Y1356467D01*
X373583Y1356067D01*
X373350Y1355400D01*
X373292Y1354800D01*
X373408Y1354200D01*
X373583Y1353800D01*
X373933Y1353400D01*
X374342Y1353133D01*
X374750Y1353000D01*
X375158D01*
X375567Y1353133D01*
X375917Y1353333D01*
X376208Y1353600D01*
G01X378850Y1353000D02*
Y1357000D01*
X378150Y1356200D01*
G01Y1353000D02*
X379550D01*
G01X381842Y1356333D02*
X382192Y1356733D01*
X382600Y1356933D01*
X383067Y1357000D01*
X383650Y1356867D01*
X384058Y1356533D01*
X384175Y1356133D01*
X384117Y1355733D01*
X383883Y1355400D01*
X382717Y1354733D01*
X382192Y1354267D01*
X381842Y1353600D01*
X381725Y1353000D01*
X384175D01*
G01X387033Y1390667D02*
X386683Y1390867D01*
X386275Y1391000D01*
X385808D01*
X385283Y1390800D01*
X384875Y1390467D01*
X384583Y1390067D01*
X384350Y1389400D01*
X384292Y1388800D01*
X384408Y1388200D01*
X384583Y1387800D01*
X384933Y1387400D01*
X385342Y1387133D01*
X385750Y1387000D01*
X386158D01*
X386567Y1387133D01*
X386917Y1387333D01*
X387208Y1387600D01*
G01X389850Y1387000D02*
Y1391000D01*
X389150Y1390200D01*
G01Y1387000D02*
X390550D01*
G01X392667Y1387800D02*
X393017Y1387333D01*
X393483Y1387067D01*
X394008Y1387000D01*
X394475Y1387067D01*
X394942Y1387400D01*
X395233Y1387800D01*
X395292Y1388200D01*
X395175Y1388667D01*
X394767Y1389000D01*
X394358Y1389133D01*
X393833D01*
G01X394358D02*
X394708Y1389333D01*
X395000Y1389667D01*
X395117Y1390067D01*
X395000Y1390467D01*
X394708Y1390800D01*
X394183Y1391000D01*
X393658Y1390933D01*
X393133Y1390667D01*
G01X385583Y1440000D02*
Y1444000D01*
X387042D01*
X387508Y1443800D01*
X387800Y1443533D01*
X387917Y1443000D01*
X387800Y1442467D01*
X387450Y1442133D01*
X387042Y1441933D01*
X385583D01*
G01X387042D02*
X387917Y1440000D01*
G01X390850D02*
Y1444000D01*
X390150Y1443200D01*
G01Y1440000D02*
X391550D01*
G01X393667Y1440600D02*
X394017Y1440267D01*
X394425Y1440067D01*
X394950Y1440000D01*
X395475Y1440133D01*
X395883Y1440400D01*
X396175Y1440867D01*
X396233Y1441400D01*
X396117Y1441933D01*
X395825Y1442267D01*
X395417Y1442533D01*
X395008Y1442600D01*
X394600Y1442533D01*
X394075Y1442267D01*
X394250Y1444000D01*
X395825D01*
G01X385525Y1435533D02*
X385992Y1435200D01*
X386517Y1435000D01*
X386983D01*
X387450Y1435200D01*
X387800Y1435533D01*
X387975Y1436000D01*
X387858Y1436467D01*
X387567Y1436867D01*
X387042Y1437133D01*
X386342Y1437267D01*
X385933Y1437533D01*
X385758Y1438000D01*
X385875Y1438467D01*
X386167Y1438800D01*
X386575Y1439000D01*
X386983D01*
X387392Y1438867D01*
X387742Y1438533D01*
G01X389100Y1439000D02*
X389917Y1435000D01*
X390850Y1439000D01*
X391783Y1435000D01*
X392600Y1439000D01*
G01X393667Y1435800D02*
X394017Y1435333D01*
X394483Y1435067D01*
X395008Y1435000D01*
X395475Y1435067D01*
X395942Y1435400D01*
X396233Y1435800D01*
X396292Y1436200D01*
X396175Y1436667D01*
X395767Y1437000D01*
X395358Y1437133D01*
X394833D01*
G01X395358D02*
X395708Y1437333D01*
X396000Y1437667D01*
X396117Y1438067D01*
X396000Y1438467D01*
X395708Y1438800D01*
X395183Y1439000D01*
X394658Y1438933D01*
X394133Y1438667D01*
G01X363467Y1458800D02*
X363817Y1458333D01*
X364283Y1458067D01*
X364808Y1458000D01*
X365275Y1458067D01*
X365742Y1458400D01*
X366033Y1458800D01*
X366092Y1459200D01*
X365975Y1459667D01*
X365567Y1460000D01*
X365158Y1460133D01*
X364633D01*
G01X365158D02*
X365508Y1460333D01*
X365800Y1460667D01*
X365917Y1461067D01*
X365800Y1461467D01*
X365508Y1461800D01*
X364983Y1462000D01*
X364458Y1461933D01*
X363933Y1461667D01*
G01X367392Y1462000D02*
X368850Y1458000D01*
X370308Y1462000D01*
G01X378033Y1461667D02*
X377683Y1461867D01*
X377275Y1462000D01*
X376808D01*
X376283Y1461800D01*
X375875Y1461467D01*
X375583Y1461067D01*
X375350Y1460400D01*
X375292Y1459800D01*
X375408Y1459200D01*
X375583Y1458800D01*
X375933Y1458400D01*
X376342Y1458133D01*
X376750Y1458000D01*
X377158D01*
X377567Y1458133D01*
X377917Y1458333D01*
X378208Y1458600D01*
G01X379683Y1462000D02*
Y1458000D01*
X382017D01*
G01X390100Y1460000D02*
X391267D01*
Y1458800D01*
X390917Y1458400D01*
X390508Y1458133D01*
X389925Y1458000D01*
X389342Y1458133D01*
X388933Y1458400D01*
X388583Y1458800D01*
X388350Y1459267D01*
X388233Y1459800D01*
Y1460267D01*
X388350Y1460667D01*
X388583Y1461133D01*
X388933Y1461533D01*
X389283Y1461800D01*
X389750Y1462000D01*
X390158D01*
X390625Y1461867D01*
X390975Y1461600D01*
G01X392508Y1458000D02*
Y1462000D01*
X395192Y1458000D01*
Y1462000D01*
G01X388467Y1452000D02*
Y1456000D01*
X389633D01*
X390100Y1455800D01*
X390450Y1455533D01*
X390742Y1455133D01*
X390975Y1454667D01*
X391033Y1454000D01*
X390975Y1453333D01*
X390742Y1452867D01*
X390450Y1452467D01*
X390100Y1452200D01*
X389633Y1452000D01*
X388467D01*
G01X393733D02*
X393850Y1452867D01*
X394025Y1453600D01*
X394258Y1454267D01*
X394550Y1455000D01*
X395017Y1456000D01*
X392683D01*
G01X375467Y1452000D02*
Y1456000D01*
X376633D01*
X377100Y1455800D01*
X377450Y1455533D01*
X377742Y1455133D01*
X377975Y1454667D01*
X378033Y1454000D01*
X377975Y1453333D01*
X377742Y1452867D01*
X377450Y1452467D01*
X377100Y1452200D01*
X376633Y1452000D01*
X375467D01*
G01X380850D02*
X381258Y1452067D01*
X381725Y1452267D01*
X382017Y1452600D01*
X382133Y1453067D01*
X382017Y1453533D01*
X381667Y1453933D01*
X381142Y1454133D01*
X380558D01*
X380208Y1454267D01*
X379917Y1454600D01*
X379800Y1455067D01*
X379975Y1455533D01*
X380383Y1455867D01*
X380850Y1456000D01*
X381317Y1455867D01*
X381725Y1455533D01*
X381900Y1455067D01*
X381783Y1454600D01*
X381492Y1454267D01*
X381142Y1454133D01*
X380558D01*
X380033Y1453933D01*
X379683Y1453533D01*
X379567Y1453067D01*
X379683Y1452600D01*
X379975Y1452267D01*
X380442Y1452067D01*
X380850Y1452000D01*
G01X363467D02*
Y1456000D01*
X364633D01*
X365100Y1455800D01*
X365450Y1455533D01*
X365742Y1455133D01*
X365975Y1454667D01*
X366033Y1454000D01*
X365975Y1453333D01*
X365742Y1452867D01*
X365450Y1452467D01*
X365100Y1452200D01*
X364633Y1452000D01*
X363467D01*
G01X367858Y1452467D02*
X368267Y1452133D01*
X368733Y1452000D01*
X369200Y1452133D01*
X369608Y1452533D01*
X369900Y1453133D01*
X370017Y1453733D01*
Y1454467D01*
X369900Y1455067D01*
X369608Y1455600D01*
X369258Y1455867D01*
X368850Y1456000D01*
X368383Y1455867D01*
X368033Y1455600D01*
X367800Y1455200D01*
X367683Y1454667D01*
X367800Y1454200D01*
X368092Y1453733D01*
X368442Y1453467D01*
X368850Y1453400D01*
X369317Y1453533D01*
X369667Y1453867D01*
X370017Y1454467D01*
G01X388583Y1447000D02*
Y1451000D01*
X390042D01*
X390508Y1450800D01*
X390800Y1450533D01*
X390917Y1450000D01*
X390800Y1449467D01*
X390450Y1449133D01*
X390042Y1448933D01*
X388583D01*
G01X390042D02*
X390917Y1447000D01*
G01X392858Y1447467D02*
X393267Y1447133D01*
X393733Y1447000D01*
X394200Y1447133D01*
X394608Y1447533D01*
X394900Y1448133D01*
X395017Y1448733D01*
Y1449467D01*
X394900Y1450067D01*
X394608Y1450600D01*
X394258Y1450867D01*
X393850Y1451000D01*
X393383Y1450867D01*
X393033Y1450600D01*
X392800Y1450200D01*
X392683Y1449667D01*
X392800Y1449200D01*
X393092Y1448733D01*
X393442Y1448467D01*
X393850Y1448400D01*
X394317Y1448533D01*
X394667Y1448867D01*
X395017Y1449467D01*
G01X375583Y1447000D02*
Y1451000D01*
X377042D01*
X377508Y1450800D01*
X377800Y1450533D01*
X377917Y1450000D01*
X377800Y1449467D01*
X377450Y1449133D01*
X377042Y1448933D01*
X375583D01*
G01X377042D02*
X377917Y1447000D01*
G01X380850D02*
Y1451000D01*
X380150Y1450200D01*
G01Y1447000D02*
X381550D01*
G01X384950Y1451000D02*
X384483Y1450867D01*
X384133Y1450533D01*
X383900Y1450133D01*
X383725Y1449600D01*
X383667Y1449000D01*
X383725Y1448400D01*
X383900Y1447867D01*
X384133Y1447467D01*
X384483Y1447133D01*
X384950Y1447000D01*
X385417Y1447133D01*
X385767Y1447467D01*
X386000Y1447867D01*
X386175Y1448400D01*
X386233Y1449000D01*
X386175Y1449600D01*
X386000Y1450133D01*
X385767Y1450533D01*
X385417Y1450867D01*
X384950Y1451000D01*
G01X363583Y1447000D02*
Y1451000D01*
X365042D01*
X365508Y1450800D01*
X365800Y1450533D01*
X365917Y1450000D01*
X365800Y1449467D01*
X365450Y1449133D01*
X365042Y1448933D01*
X363583D01*
G01X365042D02*
X365917Y1447000D01*
G01X368850D02*
Y1451000D01*
X368150Y1450200D01*
G01Y1447000D02*
X369550D01*
G01X372950D02*
Y1451000D01*
X372250Y1450200D01*
G01Y1447000D02*
X373650D01*
G01X419583Y1283800D02*
X419875Y1283400D01*
X420225Y1283133D01*
X420633Y1283000D01*
X421100Y1283133D01*
X421450Y1283400D01*
X421800Y1283800D01*
X421917Y1284333D01*
Y1287000D01*
G01X424850Y1283000D02*
Y1287000D01*
X424150Y1286200D01*
G01Y1283000D02*
X425550D01*
G01X427842Y1286333D02*
X428192Y1286733D01*
X428600Y1286933D01*
X429067Y1287000D01*
X429650Y1286867D01*
X430058Y1286533D01*
X430175Y1286133D01*
X430117Y1285733D01*
X429883Y1285400D01*
X428717Y1284733D01*
X428192Y1284267D01*
X427842Y1283600D01*
X427725Y1283000D01*
X430175D01*
G01X395033Y1323667D02*
X394683Y1323867D01*
X394275Y1324000D01*
X393808D01*
X393283Y1323800D01*
X392875Y1323467D01*
X392583Y1323067D01*
X392350Y1322400D01*
X392292Y1321800D01*
X392408Y1321200D01*
X392583Y1320800D01*
X392933Y1320400D01*
X393342Y1320133D01*
X393750Y1320000D01*
X394158D01*
X394567Y1320133D01*
X394917Y1320333D01*
X395208Y1320600D01*
G01X397850Y1320000D02*
Y1324000D01*
X397150Y1323200D01*
G01Y1320000D02*
X398550D01*
G01X400842Y1321667D02*
X401250Y1322133D01*
X401600Y1322400D01*
X402067Y1322533D01*
X402475Y1322400D01*
X402767Y1322133D01*
X403000Y1321733D01*
X403058Y1321267D01*
X403000Y1320867D01*
X402767Y1320467D01*
X402417Y1320133D01*
X402008Y1320000D01*
X401542Y1320133D01*
X401133Y1320533D01*
X400900Y1321133D01*
X400842Y1321800D01*
X400958Y1322667D01*
X401133Y1323133D01*
X401425Y1323600D01*
X401833Y1323933D01*
X402242Y1324000D01*
X402650Y1323867D01*
X402942Y1323533D01*
G01X392583Y1326000D02*
Y1330000D01*
X394042D01*
X394508Y1329800D01*
X394800Y1329533D01*
X394917Y1329000D01*
X394800Y1328467D01*
X394450Y1328133D01*
X394042Y1327933D01*
X392583D01*
G01X394042D02*
X394917Y1326000D01*
G01X397850D02*
Y1330000D01*
X397150Y1329200D01*
G01Y1326000D02*
X398550D01*
G01X400667Y1326800D02*
X401017Y1326333D01*
X401483Y1326067D01*
X402008Y1326000D01*
X402475Y1326067D01*
X402942Y1326400D01*
X403233Y1326800D01*
X403292Y1327200D01*
X403175Y1327667D01*
X402767Y1328000D01*
X402358Y1328133D01*
X401833D01*
G01X402358D02*
X402708Y1328333D01*
X403000Y1328667D01*
X403117Y1329067D01*
X403000Y1329467D01*
X402708Y1329800D01*
X402183Y1330000D01*
X401658Y1329933D01*
X401133Y1329667D01*
G01X395525Y1346533D02*
X395992Y1346200D01*
X396517Y1346000D01*
X396983D01*
X397450Y1346200D01*
X397800Y1346533D01*
X397975Y1347000D01*
X397858Y1347467D01*
X397567Y1347867D01*
X397042Y1348133D01*
X396342Y1348267D01*
X395933Y1348533D01*
X395758Y1349000D01*
X395875Y1349467D01*
X396167Y1349800D01*
X396575Y1350000D01*
X396983D01*
X397392Y1349867D01*
X397742Y1349533D01*
G01X399100Y1350000D02*
X399917Y1346000D01*
X400850Y1350000D01*
X401783Y1346000D01*
X402600Y1350000D01*
G01X404950Y1346000D02*
Y1350000D01*
X404250Y1349200D01*
G01Y1346000D02*
X405650D01*
G01X394033Y1373667D02*
X393683Y1373867D01*
X393275Y1374000D01*
X392808D01*
X392283Y1373800D01*
X391875Y1373467D01*
X391583Y1373067D01*
X391350Y1372400D01*
X391292Y1371800D01*
X391408Y1371200D01*
X391583Y1370800D01*
X391933Y1370400D01*
X392342Y1370133D01*
X392750Y1370000D01*
X393158D01*
X393567Y1370133D01*
X393917Y1370333D01*
X394208Y1370600D01*
G01X396850Y1370000D02*
Y1374000D01*
X396150Y1373200D01*
G01Y1370000D02*
X397550D01*
G01X400833D02*
X400950Y1370867D01*
X401125Y1371600D01*
X401358Y1372267D01*
X401650Y1373000D01*
X402117Y1374000D01*
X399783D01*
G01X391583Y1376000D02*
Y1380000D01*
X393042D01*
X393508Y1379800D01*
X393800Y1379533D01*
X393917Y1379000D01*
X393800Y1378467D01*
X393450Y1378133D01*
X393042Y1377933D01*
X391583D01*
G01X393042D02*
X393917Y1376000D01*
G01X396850D02*
Y1380000D01*
X396150Y1379200D01*
G01Y1376000D02*
X397550D01*
G01X401650D02*
Y1380000D01*
X399492Y1377133D01*
X402408D01*
G01X391525Y1381533D02*
X391992Y1381200D01*
X392517Y1381000D01*
X392983D01*
X393450Y1381200D01*
X393800Y1381533D01*
X393975Y1382000D01*
X393858Y1382467D01*
X393567Y1382867D01*
X393042Y1383133D01*
X392342Y1383267D01*
X391933Y1383533D01*
X391758Y1384000D01*
X391875Y1384467D01*
X392167Y1384800D01*
X392575Y1385000D01*
X392983D01*
X393392Y1384867D01*
X393742Y1384533D01*
G01X395100Y1385000D02*
X395917Y1381000D01*
X396850Y1385000D01*
X397783Y1381000D01*
X398600Y1385000D01*
G01X399842Y1384333D02*
X400192Y1384733D01*
X400600Y1384933D01*
X401067Y1385000D01*
X401650Y1384867D01*
X402058Y1384533D01*
X402175Y1384133D01*
X402117Y1383733D01*
X401883Y1383400D01*
X400717Y1382733D01*
X400192Y1382267D01*
X399842Y1381600D01*
X399725Y1381000D01*
X402175D01*
G01X412633Y1409917D02*
X412833Y1410267D01*
X412966Y1410675D01*
Y1411142D01*
X412766Y1411667D01*
X412433Y1412075D01*
X412033Y1412367D01*
X411366Y1412600D01*
X410766Y1412658D01*
X410166Y1412542D01*
X409766Y1412367D01*
X409366Y1412017D01*
X409099Y1411608D01*
X408966Y1411200D01*
Y1410792D01*
X409099Y1410383D01*
X409299Y1410033D01*
X409566Y1409742D01*
G01X408966Y1407100D02*
X412966D01*
X412166Y1407800D01*
G01X408966D02*
Y1406400D01*
G01X409433Y1403992D02*
X409099Y1403583D01*
X408966Y1403117D01*
X409099Y1402650D01*
X409499Y1402242D01*
X410099Y1401950D01*
X410699Y1401833D01*
X411433D01*
X412033Y1401950D01*
X412566Y1402242D01*
X412833Y1402592D01*
X412966Y1403000D01*
X412833Y1403467D01*
X412566Y1403817D01*
X412166Y1404050D01*
X411633Y1404167D01*
X411166Y1404050D01*
X410699Y1403758D01*
X410433Y1403408D01*
X410366Y1403000D01*
X410499Y1402533D01*
X410833Y1402183D01*
X411433Y1401833D01*
G01X399050Y1462000D02*
X400450D01*
G01X399750D02*
Y1458000D01*
G01X399050D02*
X400450D01*
G01X403850D02*
X403383Y1458067D01*
X402975Y1458333D01*
X402625Y1458733D01*
X402392Y1459200D01*
X402275Y1459733D01*
Y1460267D01*
X402392Y1460800D01*
X402625Y1461267D01*
X402975Y1461667D01*
X403383Y1461933D01*
X403850Y1462000D01*
X404317Y1461933D01*
X404725Y1461667D01*
X405075Y1461267D01*
X405308Y1460800D01*
X405425Y1460267D01*
Y1459733D01*
X405308Y1459200D01*
X405075Y1458733D01*
X404725Y1458333D01*
X404317Y1458067D01*
X403850Y1458000D01*
G01X396467Y1452000D02*
Y1456000D01*
X397633D01*
X398100Y1455800D01*
X398450Y1455533D01*
X398742Y1455133D01*
X398975Y1454667D01*
X399033Y1454000D01*
X398975Y1453333D01*
X398742Y1452867D01*
X398450Y1452467D01*
X398100Y1452200D01*
X397633Y1452000D01*
X396467D01*
G01X400742Y1453667D02*
X401150Y1454133D01*
X401500Y1454400D01*
X401967Y1454533D01*
X402375Y1454400D01*
X402667Y1454133D01*
X402900Y1453733D01*
X402958Y1453267D01*
X402900Y1452867D01*
X402667Y1452467D01*
X402317Y1452133D01*
X401908Y1452000D01*
X401442Y1452133D01*
X401033Y1452533D01*
X400800Y1453133D01*
X400742Y1453800D01*
X400858Y1454667D01*
X401033Y1455133D01*
X401325Y1455600D01*
X401733Y1455933D01*
X402142Y1456000D01*
X402550Y1455867D01*
X402842Y1455533D01*
G01X396583Y1447000D02*
Y1451000D01*
X398042D01*
X398508Y1450800D01*
X398800Y1450533D01*
X398917Y1450000D01*
X398800Y1449467D01*
X398450Y1449133D01*
X398042Y1448933D01*
X396583D01*
G01X398042D02*
X398917Y1447000D01*
G01X401850D02*
X402258Y1447067D01*
X402725Y1447267D01*
X403017Y1447600D01*
X403133Y1448067D01*
X403017Y1448533D01*
X402667Y1448933D01*
X402142Y1449133D01*
X401558D01*
X401208Y1449267D01*
X400917Y1449600D01*
X400800Y1450067D01*
X400975Y1450533D01*
X401383Y1450867D01*
X401850Y1451000D01*
X402317Y1450867D01*
X402725Y1450533D01*
X402900Y1450067D01*
X402783Y1449600D01*
X402492Y1449267D01*
X402142Y1449133D01*
X401558D01*
X401033Y1448933D01*
X400683Y1448533D01*
X400567Y1448067D01*
X400683Y1447600D01*
X400975Y1447267D01*
X401442Y1447067D01*
X401850Y1447000D01*
G01X416583Y1467800D02*
X416875Y1467400D01*
X417225Y1467133D01*
X417633Y1467000D01*
X418100Y1467133D01*
X418450Y1467400D01*
X418800Y1467800D01*
X418917Y1468333D01*
Y1471000D01*
G01X420567Y1467800D02*
X420917Y1467333D01*
X421383Y1467067D01*
X421908Y1467000D01*
X422375Y1467067D01*
X422842Y1467400D01*
X423133Y1467800D01*
X423192Y1468200D01*
X423075Y1468667D01*
X422667Y1469000D01*
X422258Y1469133D01*
X421733D01*
G01X422258D02*
X422608Y1469333D01*
X422900Y1469667D01*
X423017Y1470067D01*
X422900Y1470467D01*
X422608Y1470800D01*
X422083Y1471000D01*
X421558Y1470933D01*
X421033Y1470667D01*
G01X464583Y1284800D02*
X464875Y1284400D01*
X465225Y1284133D01*
X465633Y1284000D01*
X466100Y1284133D01*
X466450Y1284400D01*
X466800Y1284800D01*
X466917Y1285333D01*
Y1288000D01*
G01X468567Y1284600D02*
X468917Y1284267D01*
X469325Y1284067D01*
X469850Y1284000D01*
X470375Y1284133D01*
X470783Y1284400D01*
X471075Y1284867D01*
X471133Y1285400D01*
X471017Y1285933D01*
X470725Y1286267D01*
X470317Y1286533D01*
X469908Y1286600D01*
X469500Y1286533D01*
X468975Y1286267D01*
X469150Y1288000D01*
X470725D01*
G01X480583Y1284800D02*
X480875Y1284400D01*
X481225Y1284133D01*
X481633Y1284000D01*
X482100Y1284133D01*
X482450Y1284400D01*
X482800Y1284800D01*
X482917Y1285333D01*
Y1288000D01*
G01X484742Y1285667D02*
X485150Y1286133D01*
X485500Y1286400D01*
X485967Y1286533D01*
X486375Y1286400D01*
X486667Y1286133D01*
X486900Y1285733D01*
X486958Y1285267D01*
X486900Y1284867D01*
X486667Y1284467D01*
X486317Y1284133D01*
X485908Y1284000D01*
X485442Y1284133D01*
X485033Y1284533D01*
X484800Y1285133D01*
X484742Y1285800D01*
X484858Y1286667D01*
X485033Y1287133D01*
X485325Y1287600D01*
X485733Y1287933D01*
X486142Y1288000D01*
X486550Y1287867D01*
X486842Y1287533D01*
G01X489067Y1339000D02*
X488658Y1338733D01*
X488192Y1338667D01*
X487783Y1338733D01*
X487433Y1339067D01*
X487200Y1339533D01*
Y1342667D01*
G01Y1342133D02*
X487433Y1342400D01*
X487783Y1342600D01*
X488192Y1342667D01*
X488658Y1342533D01*
X488950Y1342267D01*
X489183Y1341800D01*
X489300Y1341333D01*
X489242Y1340933D01*
X489008Y1340467D01*
X488658Y1340133D01*
X488192Y1340000D01*
X487842Y1340067D01*
X487433Y1340333D01*
X487200Y1340600D01*
G01X485142Y1340000D02*
Y1342667D01*
G01Y1342000D02*
X484908Y1342333D01*
X484558Y1342600D01*
X484092Y1342667D01*
X483683Y1342600D01*
X483333Y1342333D01*
X483158Y1341867D01*
Y1340000D01*
G01X479000Y1344000D02*
Y1340000D01*
G01Y1340600D02*
X479233Y1340267D01*
X479583Y1340067D01*
X479992Y1340000D01*
X480458Y1340133D01*
X480808Y1340467D01*
X481042Y1340867D01*
X481100Y1341333D01*
X481042Y1341800D01*
X480808Y1342200D01*
X480458Y1342533D01*
X479992Y1342667D01*
X479583Y1342600D01*
X479292Y1342467D01*
X479000Y1342200D01*
G01X479250Y1385000D02*
X479717Y1384867D01*
X480067Y1384533D01*
X480300Y1384133D01*
X480475Y1383600D01*
X480533Y1383000D01*
X480475Y1382400D01*
X480300Y1381867D01*
X480067Y1381467D01*
X479717Y1381133D01*
X479250Y1381000D01*
X478783Y1381133D01*
X478433Y1381467D01*
X478200Y1381867D01*
X478025Y1382400D01*
X477967Y1383000D01*
X478025Y1383600D01*
X478200Y1384133D01*
X478433Y1384533D01*
X478783Y1384867D01*
X479250Y1385000D01*
G01X481067Y1361000D02*
Y1363667D01*
G01Y1363133D02*
X480775Y1363400D01*
X480483Y1363600D01*
X480075Y1363667D01*
X479783Y1363600D01*
X479433Y1363400D01*
G01X477025Y1363667D02*
X475275Y1361000D01*
G01Y1363667D02*
X477025Y1361000D01*
G01X480250Y1372000D02*
Y1368000D01*
G01X481067Y1370667D02*
X479433D01*
G01X477025D02*
X475275Y1368000D01*
G01Y1370667D02*
X477025Y1368000D01*
G01X481200Y1367583D02*
X481600Y1367875D01*
X481867Y1368225D01*
X482000Y1368633D01*
X481867Y1369100D01*
X481600Y1369450D01*
X481200Y1369800D01*
X480667Y1369917D01*
X478000D01*
G01X482000Y1373550D02*
X478000D01*
X480867Y1371392D01*
Y1374308D01*
G01X479250Y1402000D02*
Y1406000D01*
X479950Y1405200D01*
G01Y1402000D02*
X478550D01*
G01X478783Y1394133D02*
X478550Y1394333D01*
X478375Y1394667D01*
X478258Y1395133D01*
X478375Y1395533D01*
X478608Y1395800D01*
X479017Y1396000D01*
X480592D01*
Y1392000D01*
X478667D01*
X478258Y1392267D01*
X478025Y1392667D01*
X477908Y1393133D01*
X478025Y1393600D01*
X478375Y1394000D01*
X478783Y1394133D01*
X480592D01*
G01X475150Y1396000D02*
Y1392000D01*
G01X476492Y1396000D02*
X473808D01*
G01X481200Y1396583D02*
X481600Y1396875D01*
X481867Y1397225D01*
X482000Y1397633D01*
X481867Y1398100D01*
X481600Y1398450D01*
X481200Y1398800D01*
X480667Y1398917D01*
X478000D01*
G01X482000Y1401850D02*
X478000D01*
X478800Y1401150D01*
G01X482000D02*
Y1402550D01*
G01X481200Y1404667D02*
X481667Y1405017D01*
X481933Y1405483D01*
X482000Y1406008D01*
X481933Y1406475D01*
X481600Y1406942D01*
X481200Y1407233D01*
X480800Y1407292D01*
X480333Y1407175D01*
X480000Y1406767D01*
X479867Y1406358D01*
Y1405833D01*
G01Y1406358D02*
X479667Y1406708D01*
X479333Y1407000D01*
X478933Y1407117D01*
X478533Y1407000D01*
X478200Y1406708D01*
X478000Y1406183D01*
X478067Y1405658D01*
X478333Y1405133D01*
G01X480250Y1440000D02*
Y1436000D01*
G01X481067Y1438667D02*
X479433D01*
G01X477025D02*
X475275Y1436000D01*
G01Y1438667D02*
X477025Y1436000D01*
G01X481067Y1427000D02*
Y1429667D01*
G01Y1429133D02*
X480775Y1429400D01*
X480483Y1429600D01*
X480075Y1429667D01*
X479783Y1429600D01*
X479433Y1429400D01*
G01X477025Y1429667D02*
X475275Y1427000D01*
G01Y1429667D02*
X477025Y1427000D01*
G01X481067Y1416000D02*
X480658Y1415733D01*
X480192Y1415667D01*
X479783Y1415733D01*
X479433Y1416067D01*
X479200Y1416533D01*
Y1419667D01*
G01Y1419133D02*
X479433Y1419400D01*
X479783Y1419600D01*
X480192Y1419667D01*
X480658Y1419533D01*
X480950Y1419267D01*
X481183Y1418800D01*
X481300Y1418333D01*
X481242Y1417933D01*
X481008Y1417467D01*
X480658Y1417133D01*
X480192Y1417000D01*
X479842Y1417067D01*
X479433Y1417333D01*
X479200Y1417600D01*
G01X477142Y1417000D02*
Y1419667D01*
G01Y1419000D02*
X476908Y1419333D01*
X476558Y1419600D01*
X476092Y1419667D01*
X475683Y1419600D01*
X475333Y1419333D01*
X475158Y1418867D01*
Y1417000D01*
G01X471000Y1421000D02*
Y1417000D01*
G01Y1417600D02*
X471233Y1417267D01*
X471583Y1417067D01*
X471992Y1417000D01*
X472458Y1417133D01*
X472808Y1417467D01*
X473042Y1417867D01*
X473100Y1418333D01*
X473042Y1418800D01*
X472808Y1419200D01*
X472458Y1419533D01*
X471992Y1419667D01*
X471583Y1419600D01*
X471292Y1419467D01*
X471000Y1419200D01*
G01X481200Y1432583D02*
X481600Y1432875D01*
X481867Y1433225D01*
X482000Y1433633D01*
X481867Y1434100D01*
X481600Y1434450D01*
X481200Y1434800D01*
X480667Y1434917D01*
X478000D01*
G01X482000Y1437850D02*
X478000D01*
X478800Y1437150D01*
G01X482000D02*
Y1438550D01*
G01Y1442650D02*
X478000D01*
X480867Y1440492D01*
Y1443408D01*
G01X490583Y1338800D02*
X490875Y1338400D01*
X491225Y1338133D01*
X491633Y1338000D01*
X492100Y1338133D01*
X492450Y1338400D01*
X492800Y1338800D01*
X492917Y1339333D01*
Y1342000D01*
G01X495733Y1338000D02*
X495850Y1338867D01*
X496025Y1339600D01*
X496258Y1340267D01*
X496550Y1341000D01*
X497017Y1342000D01*
X494683D01*
G01X497200Y1370583D02*
X497600Y1370875D01*
X497867Y1371225D01*
X498000Y1371633D01*
X497867Y1372100D01*
X497600Y1372450D01*
X497200Y1372800D01*
X496667Y1372917D01*
X494000D01*
G01X497533Y1374858D02*
X497867Y1375267D01*
X498000Y1375733D01*
X497867Y1376200D01*
X497467Y1376608D01*
X496867Y1376900D01*
X496267Y1377017D01*
X495533D01*
X494933Y1376900D01*
X494400Y1376608D01*
X494133Y1376258D01*
X494000Y1375850D01*
X494133Y1375383D01*
X494400Y1375033D01*
X494800Y1374800D01*
X495333Y1374683D01*
X495800Y1374800D01*
X496267Y1375092D01*
X496533Y1375442D01*
X496600Y1375850D01*
X496467Y1376317D01*
X496133Y1376667D01*
X495533Y1377017D01*
G01X488583Y1459800D02*
X488875Y1459400D01*
X489225Y1459133D01*
X489633Y1459000D01*
X490100Y1459133D01*
X490450Y1459400D01*
X490800Y1459800D01*
X490917Y1460333D01*
Y1463000D01*
G01X493850Y1459000D02*
Y1463000D01*
X493150Y1462200D01*
G01Y1459000D02*
X494550D01*
G01X497950D02*
Y1463000D01*
X497250Y1462200D01*
G01Y1459000D02*
X498650D01*
G01X500233Y1474000D02*
Y1478000D01*
X501750Y1474667D01*
X503267Y1478000D01*
Y1474000D01*
G01X504625D02*
Y1478000D01*
G01X507075D02*
Y1474000D01*
G01Y1476000D02*
X504625D01*
G01X510650Y1474000D02*
Y1478000D01*
X508492Y1475133D01*
X511408D01*
G01X516233Y1271000D02*
Y1275000D01*
X517750Y1271667D01*
X519267Y1275000D01*
Y1271000D01*
G01X520625D02*
Y1275000D01*
G01X523075D02*
Y1271000D01*
G01Y1273000D02*
X520625D01*
G01X524667Y1271800D02*
X525017Y1271333D01*
X525483Y1271067D01*
X526008Y1271000D01*
X526475Y1271067D01*
X526942Y1271400D01*
X527233Y1271800D01*
X527292Y1272200D01*
X527175Y1272667D01*
X526767Y1273000D01*
X526358Y1273133D01*
X525833D01*
G01X526358D02*
X526708Y1273333D01*
X527000Y1273667D01*
X527117Y1274067D01*
X527000Y1274467D01*
X526708Y1274800D01*
X526183Y1275000D01*
X525658Y1274933D01*
X525133Y1274667D01*
G54D14*
G01X271267Y1441702D02*
G02I-491J0D01*
G01X304717Y1323298D02*
G02I-493J0D01*
G54D15*
G01X264634Y1471874D02*
G03I-6225J0D01*
G01X258409Y1475811D02*
Y1467937D01*
G01X268252Y1483685D02*
Y1444315D01*
X299748D01*
Y1483685D01*
X268252D01*
G01X254472Y1471874D02*
X262346D01*
G01X268252Y1479748D02*
X299748D01*
G01X302453Y1323480D02*
Y1323106D01*
X281547D01*
Y1323480D01*
G01X302453Y1332520D02*
Y1332894D01*
X281547D01*
Y1332520D01*
G01X297906Y1363780D02*
X305780D01*
Y1336220D01*
X297906D01*
G01X286094D02*
X278220D01*
Y1363780D01*
X286094D01*
G01X293200Y1377315D02*
X286800D01*
G01Y1366685D02*
X293200D01*
G01X272547Y1432480D02*
Y1432106D01*
X293453D01*
Y1432480D01*
G01X272547Y1441520D02*
Y1441894D01*
X293453D01*
Y1441520D01*
G01X341827Y1398173D02*
Y1369827D01*
X370173D01*
Y1398173D01*
X341827D01*
G01X346252Y1395417D02*
G03I-1669J0D01*
M02*
