G04 CAM350/DFMSTREAM V12.1 (Build 1022) Date:  Mon Jun 22 15:47:30 2020 *
G04 Database: (Untitled) *
G04 Layer 4: RAK4600_v100_FAB.art *
%FSLAX25Y25*%
%MOIN*%
%SFA1.000B1.000*%

%MIA0B0*%
%IPPOS*%
%AMMACRO13*
1,1,0.0050000,-0.0400000,0.0200000*
20,1,0.0050000,-0.0400000,0.0200000,0.0400000,0.0200000,0.0000000*
1,1,0.0050000,0.0400000,0.0200000*
20,1,0.0050000,0.0400000,0.0200000,0.0434730,0.0196960,0.0000000*
1,1,0.0050000,0.0434730,0.0196960*
20,1,0.0050000,0.0434730,0.0196960,0.0468400,0.0187940,0.0000000*
1,1,0.0050000,0.0468400,0.0187940*
20,1,0.0050000,0.0468400,0.0187940,0.0500000,0.0173210,0.0000000*
1,1,0.0050000,0.0500000,0.0173210*
20,1,0.0050000,0.0500000,0.0173210,0.0528560,0.0153210,0.0000000*
1,1,0.0050000,0.0528560,0.0153210*
20,1,0.0050000,0.0528560,0.0153210,0.0553210,0.0128560,0.0000000*
1,1,0.0050000,0.0553210,0.0128560*
20,1,0.0050000,0.0553210,0.0128560,0.0573210,0.0100000,0.0000000*
1,1,0.0050000,0.0573210,0.0100000*
20,1,0.0050000,0.0573210,0.0100000,0.0587940,0.0068400,0.0000000*
1,1,0.0050000,0.0587940,0.0068400*
20,1,0.0050000,0.0587940,0.0068400,0.0596960,0.0034730,0.0000000*
1,1,0.0050000,0.0596960,0.0034730*
20,1,0.0050000,0.0596960,0.0034730,0.0600000,0.0000000,0.0000000*
1,1,0.0050000,0.0600000,0.0000000*
20,1,0.0050000,0.0600000,0.0000000,0.0596960,-0.0034730,0.0000000*
1,1,0.0050000,0.0596960,-0.0034730*
20,1,0.0050000,0.0596960,-0.0034730,0.0587940,-0.0068400,0.0000000*
1,1,0.0050000,0.0587940,-0.0068400*
20,1,0.0050000,0.0587940,-0.0068400,0.0573210,-0.0100000,0.0000000*
1,1,0.0050000,0.0573210,-0.0100000*
20,1,0.0050000,0.0573210,-0.0100000,0.0553210,-0.0128560,0.0000000*
1,1,0.0050000,0.0553210,-0.0128560*
20,1,0.0050000,0.0553210,-0.0128560,0.0528560,-0.0153210,0.0000000*
1,1,0.0050000,0.0528560,-0.0153210*
20,1,0.0050000,0.0528560,-0.0153210,0.0500000,-0.0173210,0.0000000*
1,1,0.0050000,0.0500000,-0.0173210*
20,1,0.0050000,0.0500000,-0.0173210,0.0468400,-0.0187940,0.0000000*
1,1,0.0050000,0.0468400,-0.0187940*
20,1,0.0050000,0.0468400,-0.0187940,0.0434730,-0.0196960,0.0000000*
1,1,0.0050000,0.0434730,-0.0196960*
20,1,0.0050000,0.0434730,-0.0196960,0.0400000,-0.0200000,0.0000000*
1,1,0.0050000,0.0400000,-0.0200000*
20,1,0.0050000,0.0400000,-0.0200000,-0.0400000,-0.0200000,0.0000000*
1,1,0.0050000,-0.0400000,-0.0200000*
20,1,0.0050000,-0.0400000,-0.0200000,-0.0434730,-0.0196960,0.0000000*
1,1,0.0050000,-0.0434730,-0.0196960*
20,1,0.0050000,-0.0434730,-0.0196960,-0.0468400,-0.0187940,0.0000000*
1,1,0.0050000,-0.0468400,-0.0187940*
20,1,0.0050000,-0.0468400,-0.0187940,-0.0500000,-0.0173210,0.0000000*
1,1,0.0050000,-0.0500000,-0.0173210*
20,1,0.0050000,-0.0500000,-0.0173210,-0.0528560,-0.0153210,0.0000000*
1,1,0.0050000,-0.0528560,-0.0153210*
20,1,0.0050000,-0.0528560,-0.0153210,-0.0553210,-0.0128560,0.0000000*
1,1,0.0050000,-0.0553210,-0.0128560*
20,1,0.0050000,-0.0553210,-0.0128560,-0.0573210,-0.0100000,0.0000000*
1,1,0.0050000,-0.0573210,-0.0100000*
20,1,0.0050000,-0.0573210,-0.0100000,-0.0587940,-0.0068400,0.0000000*
1,1,0.0050000,-0.0587940,-0.0068400*
20,1,0.0050000,-0.0587940,-0.0068400,-0.0596960,-0.0034730,0.0000000*
1,1,0.0050000,-0.0596960,-0.0034730*
20,1,0.0050000,-0.0596960,-0.0034730,-0.0600000,0.0000000,0.0000000*
1,1,0.0050000,-0.0600000,0.0000000*
20,1,0.0050000,-0.0600000,0.0000000,-0.0596960,0.0034730,0.0000000*
1,1,0.0050000,-0.0596960,0.0034730*
20,1,0.0050000,-0.0596960,0.0034730,-0.0587940,0.0068400,0.0000000*
1,1,0.0050000,-0.0587940,0.0068400*
20,1,0.0050000,-0.0587940,0.0068400,-0.0573210,0.0100000,0.0000000*
1,1,0.0050000,-0.0573210,0.0100000*
20,1,0.0050000,-0.0573210,0.0100000,-0.0553210,0.0128560,0.0000000*
1,1,0.0050000,-0.0553210,0.0128560*
20,1,0.0050000,-0.0553210,0.0128560,-0.0528560,0.0153210,0.0000000*
1,1,0.0050000,-0.0528560,0.0153210*
20,1,0.0050000,-0.0528560,0.0153210,-0.0500000,0.0173210,0.0000000*
1,1,0.0050000,-0.0500000,0.0173210*
20,1,0.0050000,-0.0500000,0.0173210,-0.0468400,0.0187940,0.0000000*
1,1,0.0050000,-0.0468400,0.0187940*
20,1,0.0050000,-0.0468400,0.0187940,-0.0434730,0.0196960,0.0000000*
1,1,0.0050000,-0.0434730,0.0196960*
20,1,0.0050000,-0.0434730,0.0196960,-0.0400000,0.0200000,0.0000000*
1,1,0.0050000,-0.0400000,0.0200000*
1,1,0.0050000,-0.0063300,-0.0100000*
20,1,0.0050000,-0.0063300,-0.0100000,-0.0063300,0.0100000,0.0000000*
1,1,0.0050000,-0.0063300,0.0100000*
20,1,0.0050000,-0.0063300,0.0100000,0.0063300,0.0100000,0.0000000*
1,1,0.0050000,0.0063300,0.0100000*
1,1,0.0050000,0.0016700,0.0003300*
20,1,0.0050000,0.0016700,0.0003300,-0.0063300,0.0003300,0.0000000*
1,1,0.0050000,-0.0063300,0.0003300*
%
%AMMACRO11*
1,1,0.0050000,-0.0208300,-0.0250000*
20,1,0.0050000,-0.0208300,-0.0250000,0.0000000,0.0250000,0.0000000*
1,1,0.0050000,0.0000000,0.0250000*
20,1,0.0050000,0.0000000,0.0250000,0.0208300,-0.0250000,0.0000000*
1,1,0.0050000,0.0208300,-0.0250000*
1,1,0.0050000,0.0133300,-0.0075000*
20,1,0.0050000,0.0133300,-0.0075000,-0.0133300,-0.0075000,0.0000000*
1,1,0.0050000,-0.0133300,-0.0075000*
%
%AMMACRO14*
1,1,0.0050000,-0.0500000,0.0200000*
20,1,0.0050000,-0.0500000,0.0200000,0.0500000,0.0200000,0.0000000*
1,1,0.0050000,0.0500000,0.0200000*
20,1,0.0050000,0.0500000,0.0200000,0.0534730,0.0196960,0.0000000*
1,1,0.0050000,0.0534730,0.0196960*
20,1,0.0050000,0.0534730,0.0196960,0.0568400,0.0187940,0.0000000*
1,1,0.0050000,0.0568400,0.0187940*
20,1,0.0050000,0.0568400,0.0187940,0.0600000,0.0173210,0.0000000*
1,1,0.0050000,0.0600000,0.0173210*
20,1,0.0050000,0.0600000,0.0173210,0.0628560,0.0153210,0.0000000*
1,1,0.0050000,0.0628560,0.0153210*
20,1,0.0050000,0.0628560,0.0153210,0.0653210,0.0128560,0.0000000*
1,1,0.0050000,0.0653210,0.0128560*
20,1,0.0050000,0.0653210,0.0128560,0.0673210,0.0100000,0.0000000*
1,1,0.0050000,0.0673210,0.0100000*
20,1,0.0050000,0.0673210,0.0100000,0.0687940,0.0068400,0.0000000*
1,1,0.0050000,0.0687940,0.0068400*
20,1,0.0050000,0.0687940,0.0068400,0.0696960,0.0034730,0.0000000*
1,1,0.0050000,0.0696960,0.0034730*
20,1,0.0050000,0.0696960,0.0034730,0.0700000,0.0000000,0.0000000*
1,1,0.0050000,0.0700000,0.0000000*
20,1,0.0050000,0.0700000,0.0000000,0.0696960,-0.0034730,0.0000000*
1,1,0.0050000,0.0696960,-0.0034730*
20,1,0.0050000,0.0696960,-0.0034730,0.0687940,-0.0068400,0.0000000*
1,1,0.0050000,0.0687940,-0.0068400*
20,1,0.0050000,0.0687940,-0.0068400,0.0673210,-0.0100000,0.0000000*
1,1,0.0050000,0.0673210,-0.0100000*
20,1,0.0050000,0.0673210,-0.0100000,0.0653210,-0.0128560,0.0000000*
1,1,0.0050000,0.0653210,-0.0128560*
20,1,0.0050000,0.0653210,-0.0128560,0.0628560,-0.0153210,0.0000000*
1,1,0.0050000,0.0628560,-0.0153210*
20,1,0.0050000,0.0628560,-0.0153210,0.0600000,-0.0173210,0.0000000*
1,1,0.0050000,0.0600000,-0.0173210*
20,1,0.0050000,0.0600000,-0.0173210,0.0568400,-0.0187940,0.0000000*
1,1,0.0050000,0.0568400,-0.0187940*
20,1,0.0050000,0.0568400,-0.0187940,0.0534730,-0.0196960,0.0000000*
1,1,0.0050000,0.0534730,-0.0196960*
20,1,0.0050000,0.0534730,-0.0196960,0.0500000,-0.0200000,0.0000000*
1,1,0.0050000,0.0500000,-0.0200000*
20,1,0.0050000,0.0500000,-0.0200000,-0.0500000,-0.0200000,0.0000000*
1,1,0.0050000,-0.0500000,-0.0200000*
20,1,0.0050000,-0.0500000,-0.0200000,-0.0534730,-0.0196960,0.0000000*
1,1,0.0050000,-0.0534730,-0.0196960*
20,1,0.0050000,-0.0534730,-0.0196960,-0.0568400,-0.0187940,0.0000000*
1,1,0.0050000,-0.0568400,-0.0187940*
20,1,0.0050000,-0.0568400,-0.0187940,-0.0600000,-0.0173210,0.0000000*
1,1,0.0050000,-0.0600000,-0.0173210*
20,1,0.0050000,-0.0600000,-0.0173210,-0.0628560,-0.0153210,0.0000000*
1,1,0.0050000,-0.0628560,-0.0153210*
20,1,0.0050000,-0.0628560,-0.0153210,-0.0653210,-0.0128560,0.0000000*
1,1,0.0050000,-0.0653210,-0.0128560*
20,1,0.0050000,-0.0653210,-0.0128560,-0.0673210,-0.0100000,0.0000000*
1,1,0.0050000,-0.0673210,-0.0100000*
20,1,0.0050000,-0.0673210,-0.0100000,-0.0687940,-0.0068400,0.0000000*
1,1,0.0050000,-0.0687940,-0.0068400*
20,1,0.0050000,-0.0687940,-0.0068400,-0.0696960,-0.0034730,0.0000000*
1,1,0.0050000,-0.0696960,-0.0034730*
20,1,0.0050000,-0.0696960,-0.0034730,-0.0700000,0.0000000,0.0000000*
1,1,0.0050000,-0.0700000,0.0000000*
20,1,0.0050000,-0.0700000,0.0000000,-0.0696960,0.0034730,0.0000000*
1,1,0.0050000,-0.0696960,0.0034730*
20,1,0.0050000,-0.0696960,0.0034730,-0.0687940,0.0068400,0.0000000*
1,1,0.0050000,-0.0687940,0.0068400*
20,1,0.0050000,-0.0687940,0.0068400,-0.0673210,0.0100000,0.0000000*
1,1,0.0050000,-0.0673210,0.0100000*
20,1,0.0050000,-0.0673210,0.0100000,-0.0653210,0.0128560,0.0000000*
1,1,0.0050000,-0.0653210,0.0128560*
20,1,0.0050000,-0.0653210,0.0128560,-0.0628560,0.0153210,0.0000000*
1,1,0.0050000,-0.0628560,0.0153210*
20,1,0.0050000,-0.0628560,0.0153210,-0.0600000,0.0173210,0.0000000*
1,1,0.0050000,-0.0600000,0.0173210*
20,1,0.0050000,-0.0600000,0.0173210,-0.0568400,0.0187940,0.0000000*
1,1,0.0050000,-0.0568400,0.0187940*
20,1,0.0050000,-0.0568400,0.0187940,-0.0534730,0.0196960,0.0000000*
1,1,0.0050000,-0.0534730,0.0196960*
20,1,0.0050000,-0.0534730,0.0196960,-0.0500000,0.0200000,0.0000000*
1,1,0.0050000,-0.0500000,0.0200000*
1,1,0.0050000,0.0020000,0.0000000*
20,1,0.0050000,0.0020000,0.0000000,0.0086700,0.0000000,0.0000000*
1,1,0.0050000,0.0086700,0.0000000*
20,1,0.0050000,0.0086700,0.0000000,0.0086700,-0.0060000,0.0000000*
1,1,0.0050000,0.0086700,-0.0060000*
20,1,0.0050000,0.0086700,-0.0060000,0.0066700,-0.0080000,0.0000000*
1,1,0.0050000,0.0066700,-0.0080000*
20,1,0.0050000,0.0066700,-0.0080000,0.0043300,-0.0093300,0.0000000*
1,1,0.0050000,0.0043300,-0.0093300*
20,1,0.0050000,0.0043300,-0.0093300,0.0010000,-0.0100000,0.0000000*
1,1,0.0050000,0.0010000,-0.0100000*
20,1,0.0050000,0.0010000,-0.0100000,-0.0023300,-0.0093300,0.0000000*
1,1,0.0050000,-0.0023300,-0.0093300*
20,1,0.0050000,-0.0023300,-0.0093300,-0.0046700,-0.0080000,0.0000000*
1,1,0.0050000,-0.0046700,-0.0080000*
20,1,0.0050000,-0.0046700,-0.0080000,-0.0066700,-0.0060000,0.0000000*
1,1,0.0050000,-0.0066700,-0.0060000*
20,1,0.0050000,-0.0066700,-0.0060000,-0.0080000,-0.0036700,0.0000000*
1,1,0.0050000,-0.0080000,-0.0036700*
20,1,0.0050000,-0.0080000,-0.0036700,-0.0086700,-0.0010000,0.0000000*
1,1,0.0050000,-0.0086700,-0.0010000*
20,1,0.0050000,-0.0086700,-0.0010000,-0.0086700,0.0013300,0.0000000*
1,1,0.0050000,-0.0086700,0.0013300*
20,1,0.0050000,-0.0086700,0.0013300,-0.0080000,0.0033300,0.0000000*
1,1,0.0050000,-0.0080000,0.0033300*
20,1,0.0050000,-0.0080000,0.0033300,-0.0066700,0.0056700,0.0000000*
1,1,0.0050000,-0.0066700,0.0056700*
20,1,0.0050000,-0.0066700,0.0056700,-0.0046700,0.0076700,0.0000000*
1,1,0.0050000,-0.0046700,0.0076700*
20,1,0.0050000,-0.0046700,0.0076700,-0.0026700,0.0090000,0.0000000*
1,1,0.0050000,-0.0026700,0.0090000*
20,1,0.0050000,-0.0026700,0.0090000,0.0000000,0.0100000,0.0000000*
1,1,0.0050000,0.0000000,0.0100000*
20,1,0.0050000,0.0000000,0.0100000,0.0023300,0.0100000,0.0000000*
1,1,0.0050000,0.0023300,0.0100000*
20,1,0.0050000,0.0023300,0.0100000,0.0050000,0.0093300,0.0000000*
1,1,0.0050000,0.0050000,0.0093300*
20,1,0.0050000,0.0050000,0.0093300,0.0070000,0.0080000,0.0000000*
1,1,0.0050000,0.0070000,0.0080000*
%
%AMMACRO10*
1,1,0.0050000,0.0600000,0.0000000*
20,1,0.0050000,0.0600000,0.0000000,0.0590880,-0.0104190,0.0000000*
1,1,0.0050000,0.0590880,-0.0104190*
20,1,0.0050000,0.0590880,-0.0104190,0.0563820,-0.0205210,0.0000000*
1,1,0.0050000,0.0563820,-0.0205210*
20,1,0.0050000,0.0563820,-0.0205210,0.0519620,-0.0300000,0.0000000*
1,1,0.0050000,0.0519620,-0.0300000*
20,1,0.0050000,0.0519620,-0.0300000,0.0459630,-0.0385670,0.0000000*
1,1,0.0050000,0.0459630,-0.0385670*
20,1,0.0050000,0.0459630,-0.0385670,0.0385670,-0.0459630,0.0000000*
1,1,0.0050000,0.0385670,-0.0459630*
20,1,0.0050000,0.0385670,-0.0459630,0.0300000,-0.0519620,0.0000000*
1,1,0.0050000,0.0300000,-0.0519620*
20,1,0.0050000,0.0300000,-0.0519620,0.0205210,-0.0563820,0.0000000*
1,1,0.0050000,0.0205210,-0.0563820*
20,1,0.0050000,0.0205210,-0.0563820,0.0104190,-0.0590880,0.0000000*
1,1,0.0050000,0.0104190,-0.0590880*
20,1,0.0050000,0.0104190,-0.0590880,0.0000000,-0.0600000,0.0000000*
1,1,0.0050000,0.0000000,-0.0600000*
20,1,0.0050000,0.0000000,-0.0600000,-0.0104190,-0.0590880,0.0000000*
1,1,0.0050000,-0.0104190,-0.0590880*
20,1,0.0050000,-0.0104190,-0.0590880,-0.0205210,-0.0563820,0.0000000*
1,1,0.0050000,-0.0205210,-0.0563820*
20,1,0.0050000,-0.0205210,-0.0563820,-0.0300000,-0.0519620,0.0000000*
1,1,0.0050000,-0.0300000,-0.0519620*
20,1,0.0050000,-0.0300000,-0.0519620,-0.0385670,-0.0459630,0.0000000*
1,1,0.0050000,-0.0385670,-0.0459630*
20,1,0.0050000,-0.0385670,-0.0459630,-0.0459630,-0.0385670,0.0000000*
1,1,0.0050000,-0.0459630,-0.0385670*
20,1,0.0050000,-0.0459630,-0.0385670,-0.0519620,-0.0300000,0.0000000*
1,1,0.0050000,-0.0519620,-0.0300000*
20,1,0.0050000,-0.0519620,-0.0300000,-0.0563820,-0.0205210,0.0000000*
1,1,0.0050000,-0.0563820,-0.0205210*
20,1,0.0050000,-0.0563820,-0.0205210,-0.0590880,-0.0104190,0.0000000*
1,1,0.0050000,-0.0590880,-0.0104190*
20,1,0.0050000,-0.0590880,-0.0104190,-0.0600000,0.0000000,0.0000000*
1,1,0.0050000,-0.0600000,0.0000000*
20,1,0.0050000,-0.0600000,0.0000000,-0.0590880,0.0104190,0.0000000*
1,1,0.0050000,-0.0590880,0.0104190*
20,1,0.0050000,-0.0590880,0.0104190,-0.0563820,0.0205210,0.0000000*
1,1,0.0050000,-0.0563820,0.0205210*
20,1,0.0050000,-0.0563820,0.0205210,-0.0519620,0.0300000,0.0000000*
1,1,0.0050000,-0.0519620,0.0300000*
20,1,0.0050000,-0.0519620,0.0300000,-0.0459630,0.0385670,0.0000000*
1,1,0.0050000,-0.0459630,0.0385670*
20,1,0.0050000,-0.0459630,0.0385670,-0.0385670,0.0459630,0.0000000*
1,1,0.0050000,-0.0385670,0.0459630*
20,1,0.0050000,-0.0385670,0.0459630,-0.0300000,0.0519620,0.0000000*
1,1,0.0050000,-0.0300000,0.0519620*
20,1,0.0050000,-0.0300000,0.0519620,-0.0205210,0.0563820,0.0000000*
1,1,0.0050000,-0.0205210,0.0563820*
20,1,0.0050000,-0.0205210,0.0563820,-0.0104190,0.0590880,0.0000000*
1,1,0.0050000,-0.0104190,0.0590880*
20,1,0.0050000,-0.0104190,0.0590880,0.0000000,0.0600000,0.0000000*
1,1,0.0050000,0.0000000,0.0600000*
20,1,0.0050000,0.0000000,0.0600000,0.0104190,0.0590880,0.0000000*
1,1,0.0050000,0.0104190,0.0590880*
20,1,0.0050000,0.0104190,0.0590880,0.0205210,0.0563820,0.0000000*
1,1,0.0050000,0.0205210,0.0563820*
20,1,0.0050000,0.0205210,0.0563820,0.0300000,0.0519620,0.0000000*
1,1,0.0050000,0.0300000,0.0519620*
20,1,0.0050000,0.0300000,0.0519620,0.0385670,0.0459630,0.0000000*
1,1,0.0050000,0.0385670,0.0459630*
20,1,0.0050000,0.0385670,0.0459630,0.0459630,0.0385670,0.0000000*
1,1,0.0050000,0.0459630,0.0385670*
20,1,0.0050000,0.0459630,0.0385670,0.0519620,0.0300000,0.0000000*
1,1,0.0050000,0.0519620,0.0300000*
20,1,0.0050000,0.0519620,0.0300000,0.0563820,0.0205210,0.0000000*
1,1,0.0050000,0.0563820,0.0205210*
20,1,0.0050000,0.0563820,0.0205210,0.0590880,0.0104190,0.0000000*
1,1,0.0050000,0.0590880,0.0104190*
20,1,0.0050000,0.0590880,0.0104190,0.0600000,0.0000000,0.0000000*
1,1,0.0050000,0.0600000,0.0000000*
1,1,0.0050000,-0.0260000,-0.0300000*
20,1,0.0050000,-0.0260000,-0.0300000,-0.0260000,0.0300000,0.0000000*
1,1,0.0050000,-0.0260000,0.0300000*
20,1,0.0050000,-0.0260000,0.0300000,0.0000000,-0.0200000,0.0000000*
1,1,0.0050000,0.0000000,-0.0200000*
20,1,0.0050000,0.0000000,-0.0200000,0.0260000,0.0300000,0.0000000*
1,1,0.0050000,0.0260000,0.0300000*
20,1,0.0050000,0.0260000,0.0300000,0.0260000,-0.0300000,0.0000000*
1,1,0.0050000,0.0260000,-0.0300000*
%
%AMMACRO21*
1,1,0.0050000,0.0200000,0.0000000*
20,1,0.0050000,0.0200000,0.0000000,-0.0200000,0.0000000,0.0000000*
1,1,0.0050000,-0.0200000,0.0000000*
1,1,0.0050000,0.0000000,0.0200000*
20,1,0.0050000,0.0000000,0.0200000,0.0000000,-0.0200000,0.0000000*
1,1,0.0050000,0.0000000,-0.0200000*
1,1,0.0050000,0.0166700,0.0000000*
20,1,0.0050000,0.0166700,0.0000000,0.0033300,0.0000000,0.0000000*
1,1,0.0050000,0.0033300,0.0000000*
20,1,0.0050000,0.0033300,0.0000000,0.0033300,0.0200000,0.0000000*
1,1,0.0050000,0.0033300,0.0200000*
20,1,0.0050000,0.0033300,0.0200000,0.0166700,0.0200000,0.0000000*
1,1,0.0050000,0.0166700,0.0200000*
1,1,0.0050000,0.0113300,0.0103300*
20,1,0.0050000,0.0113300,0.0103300,0.0033300,0.0103300,0.0000000*
1,1,0.0050000,0.0033300,0.0103300*
%
%AMMACRO20*
1,1,0.0050000,0.0200000,0.0000000*
20,1,0.0050000,0.0200000,0.0000000,0.0196960,-0.0034730,0.0000000*
1,1,0.0050000,0.0196960,-0.0034730*
20,1,0.0050000,0.0196960,-0.0034730,0.0187940,-0.0068400,0.0000000*
1,1,0.0050000,0.0187940,-0.0068400*
20,1,0.0050000,0.0187940,-0.0068400,0.0173210,-0.0100000,0.0000000*
1,1,0.0050000,0.0173210,-0.0100000*
20,1,0.0050000,0.0173210,-0.0100000,0.0153210,-0.0128560,0.0000000*
1,1,0.0050000,0.0153210,-0.0128560*
20,1,0.0050000,0.0153210,-0.0128560,0.0128560,-0.0153210,0.0000000*
1,1,0.0050000,0.0128560,-0.0153210*
20,1,0.0050000,0.0128560,-0.0153210,0.0100000,-0.0173210,0.0000000*
1,1,0.0050000,0.0100000,-0.0173210*
20,1,0.0050000,0.0100000,-0.0173210,0.0068400,-0.0187940,0.0000000*
1,1,0.0050000,0.0068400,-0.0187940*
20,1,0.0050000,0.0068400,-0.0187940,0.0034730,-0.0196960,0.0000000*
1,1,0.0050000,0.0034730,-0.0196960*
20,1,0.0050000,0.0034730,-0.0196960,0.0000000,-0.0200000,0.0000000*
1,1,0.0050000,0.0000000,-0.0200000*
20,1,0.0050000,0.0000000,-0.0200000,-0.0034730,-0.0196960,0.0000000*
1,1,0.0050000,-0.0034730,-0.0196960*
20,1,0.0050000,-0.0034730,-0.0196960,-0.0068400,-0.0187940,0.0000000*
1,1,0.0050000,-0.0068400,-0.0187940*
20,1,0.0050000,-0.0068400,-0.0187940,-0.0100000,-0.0173210,0.0000000*
1,1,0.0050000,-0.0100000,-0.0173210*
20,1,0.0050000,-0.0100000,-0.0173210,-0.0128560,-0.0153210,0.0000000*
1,1,0.0050000,-0.0128560,-0.0153210*
20,1,0.0050000,-0.0128560,-0.0153210,-0.0153210,-0.0128560,0.0000000*
1,1,0.0050000,-0.0153210,-0.0128560*
20,1,0.0050000,-0.0153210,-0.0128560,-0.0173210,-0.0100000,0.0000000*
1,1,0.0050000,-0.0173210,-0.0100000*
20,1,0.0050000,-0.0173210,-0.0100000,-0.0187940,-0.0068400,0.0000000*
1,1,0.0050000,-0.0187940,-0.0068400*
20,1,0.0050000,-0.0187940,-0.0068400,-0.0196960,-0.0034730,0.0000000*
1,1,0.0050000,-0.0196960,-0.0034730*
20,1,0.0050000,-0.0196960,-0.0034730,-0.0200000,0.0000000,0.0000000*
1,1,0.0050000,-0.0200000,0.0000000*
20,1,0.0050000,-0.0200000,0.0000000,-0.0196960,0.0034730,0.0000000*
1,1,0.0050000,-0.0196960,0.0034730*
20,1,0.0050000,-0.0196960,0.0034730,-0.0187940,0.0068400,0.0000000*
1,1,0.0050000,-0.0187940,0.0068400*
20,1,0.0050000,-0.0187940,0.0068400,-0.0173210,0.0100000,0.0000000*
1,1,0.0050000,-0.0173210,0.0100000*
20,1,0.0050000,-0.0173210,0.0100000,-0.0153210,0.0128560,0.0000000*
1,1,0.0050000,-0.0153210,0.0128560*
20,1,0.0050000,-0.0153210,0.0128560,-0.0128560,0.0153210,0.0000000*
1,1,0.0050000,-0.0128560,0.0153210*
20,1,0.0050000,-0.0128560,0.0153210,-0.0100000,0.0173210,0.0000000*
1,1,0.0050000,-0.0100000,0.0173210*
20,1,0.0050000,-0.0100000,0.0173210,-0.0068400,0.0187940,0.0000000*
1,1,0.0050000,-0.0068400,0.0187940*
20,1,0.0050000,-0.0068400,0.0187940,-0.0034730,0.0196960,0.0000000*
1,1,0.0050000,-0.0034730,0.0196960*
20,1,0.0050000,-0.0034730,0.0196960,0.0000000,0.0200000,0.0000000*
1,1,0.0050000,0.0000000,0.0200000*
20,1,0.0050000,0.0000000,0.0200000,0.0034730,0.0196960,0.0000000*
1,1,0.0050000,0.0034730,0.0196960*
20,1,0.0050000,0.0034730,0.0196960,0.0068400,0.0187940,0.0000000*
1,1,0.0050000,0.0068400,0.0187940*
20,1,0.0050000,0.0068400,0.0187940,0.0100000,0.0173210,0.0000000*
1,1,0.0050000,0.0100000,0.0173210*
20,1,0.0050000,0.0100000,0.0173210,0.0128560,0.0153210,0.0000000*
1,1,0.0050000,0.0128560,0.0153210*
20,1,0.0050000,0.0128560,0.0153210,0.0153210,0.0128560,0.0000000*
1,1,0.0050000,0.0153210,0.0128560*
20,1,0.0050000,0.0153210,0.0128560,0.0173210,0.0100000,0.0000000*
1,1,0.0050000,0.0173210,0.0100000*
20,1,0.0050000,0.0173210,0.0100000,0.0187940,0.0068400,0.0000000*
1,1,0.0050000,0.0187940,0.0068400*
20,1,0.0050000,0.0187940,0.0068400,0.0196960,0.0034730,0.0000000*
1,1,0.0050000,0.0196960,0.0034730*
20,1,0.0050000,0.0196960,0.0034730,0.0200000,0.0000000,0.0000000*
1,1,0.0050000,0.0200000,0.0000000*
1,1,0.0050000,-0.0040000,0.0100000*
20,1,0.0050000,-0.0040000,0.0100000,0.0040000,0.0100000,0.0000000*
1,1,0.0050000,0.0040000,0.0100000*
1,1,0.0050000,0.0000000,0.0100000*
20,1,0.0050000,0.0000000,0.0100000,0.0000000,-0.0100000,0.0000000*
1,1,0.0050000,0.0000000,-0.0100000*
1,1,0.0050000,-0.0040000,-0.0100000*
20,1,0.0050000,-0.0040000,-0.0100000,0.0040000,-0.0100000,0.0000000*
1,1,0.0050000,0.0040000,-0.0100000*
%
%AMMACRO18*
1,1,0.0050000,0.0175000,0.0000000*
20,1,0.0050000,0.0175000,0.0000000,0.0172340,-0.0030390,0.0000000*
1,1,0.0050000,0.0172340,-0.0030390*
20,1,0.0050000,0.0172340,-0.0030390,0.0164450,-0.0059850,0.0000000*
1,1,0.0050000,0.0164450,-0.0059850*
20,1,0.0050000,0.0164450,-0.0059850,0.0151550,-0.0087500,0.0000000*
1,1,0.0050000,0.0151550,-0.0087500*
20,1,0.0050000,0.0151550,-0.0087500,0.0134060,-0.0112490,0.0000000*
1,1,0.0050000,0.0134060,-0.0112490*
20,1,0.0050000,0.0134060,-0.0112490,0.0112490,-0.0134060,0.0000000*
1,1,0.0050000,0.0112490,-0.0134060*
20,1,0.0050000,0.0112490,-0.0134060,0.0087500,-0.0151550,0.0000000*
1,1,0.0050000,0.0087500,-0.0151550*
20,1,0.0050000,0.0087500,-0.0151550,0.0059850,-0.0164450,0.0000000*
1,1,0.0050000,0.0059850,-0.0164450*
20,1,0.0050000,0.0059850,-0.0164450,0.0030390,-0.0172340,0.0000000*
1,1,0.0050000,0.0030390,-0.0172340*
20,1,0.0050000,0.0030390,-0.0172340,0.0000000,-0.0175000,0.0000000*
1,1,0.0050000,0.0000000,-0.0175000*
20,1,0.0050000,0.0000000,-0.0175000,-0.0030390,-0.0172340,0.0000000*
1,1,0.0050000,-0.0030390,-0.0172340*
20,1,0.0050000,-0.0030390,-0.0172340,-0.0059850,-0.0164450,0.0000000*
1,1,0.0050000,-0.0059850,-0.0164450*
20,1,0.0050000,-0.0059850,-0.0164450,-0.0087500,-0.0151550,0.0000000*
1,1,0.0050000,-0.0087500,-0.0151550*
20,1,0.0050000,-0.0087500,-0.0151550,-0.0112490,-0.0134060,0.0000000*
1,1,0.0050000,-0.0112490,-0.0134060*
20,1,0.0050000,-0.0112490,-0.0134060,-0.0134060,-0.0112490,0.0000000*
1,1,0.0050000,-0.0134060,-0.0112490*
20,1,0.0050000,-0.0134060,-0.0112490,-0.0151550,-0.0087500,0.0000000*
1,1,0.0050000,-0.0151550,-0.0087500*
20,1,0.0050000,-0.0151550,-0.0087500,-0.0164450,-0.0059850,0.0000000*
1,1,0.0050000,-0.0164450,-0.0059850*
20,1,0.0050000,-0.0164450,-0.0059850,-0.0172340,-0.0030390,0.0000000*
1,1,0.0050000,-0.0172340,-0.0030390*
20,1,0.0050000,-0.0172340,-0.0030390,-0.0175000,0.0000000,0.0000000*
1,1,0.0050000,-0.0175000,0.0000000*
20,1,0.0050000,-0.0175000,0.0000000,-0.0172340,0.0030390,0.0000000*
1,1,0.0050000,-0.0172340,0.0030390*
20,1,0.0050000,-0.0172340,0.0030390,-0.0164450,0.0059850,0.0000000*
1,1,0.0050000,-0.0164450,0.0059850*
20,1,0.0050000,-0.0164450,0.0059850,-0.0151550,0.0087500,0.0000000*
1,1,0.0050000,-0.0151550,0.0087500*
20,1,0.0050000,-0.0151550,0.0087500,-0.0134060,0.0112490,0.0000000*
1,1,0.0050000,-0.0134060,0.0112490*
20,1,0.0050000,-0.0134060,0.0112490,-0.0112490,0.0134060,0.0000000*
1,1,0.0050000,-0.0112490,0.0134060*
20,1,0.0050000,-0.0112490,0.0134060,-0.0087500,0.0151550,0.0000000*
1,1,0.0050000,-0.0087500,0.0151550*
20,1,0.0050000,-0.0087500,0.0151550,-0.0059850,0.0164450,0.0000000*
1,1,0.0050000,-0.0059850,0.0164450*
20,1,0.0050000,-0.0059850,0.0164450,-0.0030390,0.0172340,0.0000000*
1,1,0.0050000,-0.0030390,0.0172340*
20,1,0.0050000,-0.0030390,0.0172340,0.0000000,0.0175000,0.0000000*
1,1,0.0050000,0.0000000,0.0175000*
20,1,0.0050000,0.0000000,0.0175000,0.0030390,0.0172340,0.0000000*
1,1,0.0050000,0.0030390,0.0172340*
20,1,0.0050000,0.0030390,0.0172340,0.0059850,0.0164450,0.0000000*
1,1,0.0050000,0.0059850,0.0164450*
20,1,0.0050000,0.0059850,0.0164450,0.0087500,0.0151550,0.0000000*
1,1,0.0050000,0.0087500,0.0151550*
20,1,0.0050000,0.0087500,0.0151550,0.0112490,0.0134060,0.0000000*
1,1,0.0050000,0.0112490,0.0134060*
20,1,0.0050000,0.0112490,0.0134060,0.0134060,0.0112490,0.0000000*
1,1,0.0050000,0.0134060,0.0112490*
20,1,0.0050000,0.0134060,0.0112490,0.0151550,0.0087500,0.0000000*
1,1,0.0050000,0.0151550,0.0087500*
20,1,0.0050000,0.0151550,0.0087500,0.0164450,0.0059850,0.0000000*
1,1,0.0050000,0.0164450,0.0059850*
20,1,0.0050000,0.0164450,0.0059850,0.0172340,0.0030390,0.0000000*
1,1,0.0050000,0.0172340,0.0030390*
20,1,0.0050000,0.0172340,0.0030390,0.0175000,0.0000000,0.0000000*
1,1,0.0050000,0.0175000,0.0000000*
1,1,0.0050000,0.0064200,0.0072900*
20,1,0.0050000,0.0064200,0.0072900,0.0046700,0.0081700,0.0000000*
1,1,0.0050000,0.0046700,0.0081700*
20,1,0.0050000,0.0046700,0.0081700,0.0026300,0.0087500,0.0000000*
1,1,0.0050000,0.0026300,0.0087500*
20,1,0.0050000,0.0026300,0.0087500,0.0002900,0.0087500,0.0000000*
1,1,0.0050000,0.0002900,0.0087500*
20,1,0.0050000,0.0002900,0.0087500,-0.0023300,0.0078700,0.0000000*
1,1,0.0050000,-0.0023300,0.0078700*
20,1,0.0050000,-0.0023300,0.0078700,-0.0043700,0.0064200,0.0000000*
1,1,0.0050000,-0.0043700,0.0064200*
20,1,0.0050000,-0.0043700,0.0064200,-0.0058300,0.0046700,0.0000000*
1,1,0.0050000,-0.0058300,0.0046700*
20,1,0.0050000,-0.0058300,0.0046700,-0.0070000,0.0017500,0.0000000*
1,1,0.0050000,-0.0070000,0.0017500*
20,1,0.0050000,-0.0070000,0.0017500,-0.0072900,-0.0008800,0.0000000*
1,1,0.0050000,-0.0072900,-0.0008800*
20,1,0.0050000,-0.0072900,-0.0008800,-0.0067100,-0.0035000,0.0000000*
1,1,0.0050000,-0.0067100,-0.0035000*
20,1,0.0050000,-0.0067100,-0.0035000,-0.0058300,-0.0052500,0.0000000*
1,1,0.0050000,-0.0058300,-0.0052500*
20,1,0.0050000,-0.0058300,-0.0052500,-0.0040800,-0.0070000,0.0000000*
1,1,0.0050000,-0.0040800,-0.0070000*
20,1,0.0050000,-0.0040800,-0.0070000,-0.0020400,-0.0081700,0.0000000*
1,1,0.0050000,-0.0020400,-0.0081700*
20,1,0.0050000,-0.0020400,-0.0081700,0.0000000,-0.0087500,0.0000000*
1,1,0.0050000,0.0000000,-0.0087500*
20,1,0.0050000,0.0000000,-0.0087500,0.0020400,-0.0087500,0.0000000*
1,1,0.0050000,0.0020400,-0.0087500*
20,1,0.0050000,0.0020400,-0.0087500,0.0040800,-0.0081700,0.0000000*
1,1,0.0050000,0.0040800,-0.0081700*
20,1,0.0050000,0.0040800,-0.0081700,0.0058300,-0.0072900,0.0000000*
1,1,0.0050000,0.0058300,-0.0072900*
20,1,0.0050000,0.0058300,-0.0072900,0.0072900,-0.0061300,0.0000000*
1,1,0.0050000,0.0072900,-0.0061300*
%
%AMMACRO12*
1,1,0.0050000,0.0700000,0.0000000*
20,1,0.0050000,0.0700000,0.0000000,0.0689370,-0.0121550,0.0000000*
1,1,0.0050000,0.0689370,-0.0121550*
20,1,0.0050000,0.0689370,-0.0121550,0.0657780,-0.0239410,0.0000000*
1,1,0.0050000,0.0657780,-0.0239410*
20,1,0.0050000,0.0657780,-0.0239410,0.0606220,-0.0350000,0.0000000*
1,1,0.0050000,0.0606220,-0.0350000*
20,1,0.0050000,0.0606220,-0.0350000,0.0536230,-0.0449950,0.0000000*
1,1,0.0050000,0.0536230,-0.0449950*
20,1,0.0050000,0.0536230,-0.0449950,0.0449950,-0.0536230,0.0000000*
1,1,0.0050000,0.0449950,-0.0536230*
20,1,0.0050000,0.0449950,-0.0536230,0.0350000,-0.0606220,0.0000000*
1,1,0.0050000,0.0350000,-0.0606220*
20,1,0.0050000,0.0350000,-0.0606220,0.0239410,-0.0657780,0.0000000*
1,1,0.0050000,0.0239410,-0.0657780*
20,1,0.0050000,0.0239410,-0.0657780,0.0121550,-0.0689370,0.0000000*
1,1,0.0050000,0.0121550,-0.0689370*
20,1,0.0050000,0.0121550,-0.0689370,0.0000000,-0.0700000,0.0000000*
1,1,0.0050000,0.0000000,-0.0700000*
20,1,0.0050000,0.0000000,-0.0700000,-0.0121550,-0.0689370,0.0000000*
1,1,0.0050000,-0.0121550,-0.0689370*
20,1,0.0050000,-0.0121550,-0.0689370,-0.0239410,-0.0657780,0.0000000*
1,1,0.0050000,-0.0239410,-0.0657780*
20,1,0.0050000,-0.0239410,-0.0657780,-0.0350000,-0.0606220,0.0000000*
1,1,0.0050000,-0.0350000,-0.0606220*
20,1,0.0050000,-0.0350000,-0.0606220,-0.0449950,-0.0536230,0.0000000*
1,1,0.0050000,-0.0449950,-0.0536230*
20,1,0.0050000,-0.0449950,-0.0536230,-0.0536230,-0.0449950,0.0000000*
1,1,0.0050000,-0.0536230,-0.0449950*
20,1,0.0050000,-0.0536230,-0.0449950,-0.0606220,-0.0350000,0.0000000*
1,1,0.0050000,-0.0606220,-0.0350000*
20,1,0.0050000,-0.0606220,-0.0350000,-0.0657780,-0.0239410,0.0000000*
1,1,0.0050000,-0.0657780,-0.0239410*
20,1,0.0050000,-0.0657780,-0.0239410,-0.0689370,-0.0121550,0.0000000*
1,1,0.0050000,-0.0689370,-0.0121550*
20,1,0.0050000,-0.0689370,-0.0121550,-0.0700000,0.0000000,0.0000000*
1,1,0.0050000,-0.0700000,0.0000000*
20,1,0.0050000,-0.0700000,0.0000000,-0.0689370,0.0121550,0.0000000*
1,1,0.0050000,-0.0689370,0.0121550*
20,1,0.0050000,-0.0689370,0.0121550,-0.0657780,0.0239410,0.0000000*
1,1,0.0050000,-0.0657780,0.0239410*
20,1,0.0050000,-0.0657780,0.0239410,-0.0606220,0.0350000,0.0000000*
1,1,0.0050000,-0.0606220,0.0350000*
20,1,0.0050000,-0.0606220,0.0350000,-0.0536230,0.0449950,0.0000000*
1,1,0.0050000,-0.0536230,0.0449950*
20,1,0.0050000,-0.0536230,0.0449950,-0.0449950,0.0536230,0.0000000*
1,1,0.0050000,-0.0449950,0.0536230*
20,1,0.0050000,-0.0449950,0.0536230,-0.0350000,0.0606220,0.0000000*
1,1,0.0050000,-0.0350000,0.0606220*
20,1,0.0050000,-0.0350000,0.0606220,-0.0239410,0.0657780,0.0000000*
1,1,0.0050000,-0.0239410,0.0657780*
20,1,0.0050000,-0.0239410,0.0657780,-0.0121550,0.0689370,0.0000000*
1,1,0.0050000,-0.0121550,0.0689370*
20,1,0.0050000,-0.0121550,0.0689370,0.0000000,0.0700000,0.0000000*
1,1,0.0050000,0.0000000,0.0700000*
20,1,0.0050000,0.0000000,0.0700000,0.0121550,0.0689370,0.0000000*
1,1,0.0050000,0.0121550,0.0689370*
20,1,0.0050000,0.0121550,0.0689370,0.0239410,0.0657780,0.0000000*
1,1,0.0050000,0.0239410,0.0657780*
20,1,0.0050000,0.0239410,0.0657780,0.0350000,0.0606220,0.0000000*
1,1,0.0050000,0.0350000,0.0606220*
20,1,0.0050000,0.0350000,0.0606220,0.0449950,0.0536230,0.0000000*
1,1,0.0050000,0.0449950,0.0536230*
20,1,0.0050000,0.0449950,0.0536230,0.0536230,0.0449950,0.0000000*
1,1,0.0050000,0.0536230,0.0449950*
20,1,0.0050000,0.0536230,0.0449950,0.0606220,0.0350000,0.0000000*
1,1,0.0050000,0.0606220,0.0350000*
20,1,0.0050000,0.0606220,0.0350000,0.0657780,0.0239410,0.0000000*
1,1,0.0050000,0.0657780,0.0239410*
20,1,0.0050000,0.0657780,0.0239410,0.0689370,0.0121550,0.0000000*
1,1,0.0050000,0.0689370,0.0121550*
20,1,0.0050000,0.0689370,0.0121550,0.0700000,0.0000000,0.0000000*
1,1,0.0050000,0.0700000,0.0000000*
1,1,0.0050000,-0.0268300,-0.0350000*
20,1,0.0050000,-0.0268300,-0.0350000,-0.0268300,0.0350000,0.0000000*
1,1,0.0050000,-0.0268300,0.0350000*
20,1,0.0050000,-0.0268300,0.0350000,0.0268300,-0.0350000,0.0000000*
1,1,0.0050000,0.0268300,-0.0350000*
20,1,0.0050000,0.0268300,-0.0350000,0.0268300,0.0350000,0.0000000*
1,1,0.0050000,0.0268300,0.0350000*
%
%AMMACRO19*
1,1,0.0050000,0.0175000,0.0000000*
20,1,0.0050000,0.0175000,0.0000000,0.0172340,-0.0030390,0.0000000*
1,1,0.0050000,0.0172340,-0.0030390*
20,1,0.0050000,0.0172340,-0.0030390,0.0164450,-0.0059850,0.0000000*
1,1,0.0050000,0.0164450,-0.0059850*
20,1,0.0050000,0.0164450,-0.0059850,0.0151550,-0.0087500,0.0000000*
1,1,0.0050000,0.0151550,-0.0087500*
20,1,0.0050000,0.0151550,-0.0087500,0.0134060,-0.0112490,0.0000000*
1,1,0.0050000,0.0134060,-0.0112490*
20,1,0.0050000,0.0134060,-0.0112490,0.0112490,-0.0134060,0.0000000*
1,1,0.0050000,0.0112490,-0.0134060*
20,1,0.0050000,0.0112490,-0.0134060,0.0087500,-0.0151550,0.0000000*
1,1,0.0050000,0.0087500,-0.0151550*
20,1,0.0050000,0.0087500,-0.0151550,0.0059850,-0.0164450,0.0000000*
1,1,0.0050000,0.0059850,-0.0164450*
20,1,0.0050000,0.0059850,-0.0164450,0.0030390,-0.0172340,0.0000000*
1,1,0.0050000,0.0030390,-0.0172340*
20,1,0.0050000,0.0030390,-0.0172340,0.0000000,-0.0175000,0.0000000*
1,1,0.0050000,0.0000000,-0.0175000*
20,1,0.0050000,0.0000000,-0.0175000,-0.0030390,-0.0172340,0.0000000*
1,1,0.0050000,-0.0030390,-0.0172340*
20,1,0.0050000,-0.0030390,-0.0172340,-0.0059850,-0.0164450,0.0000000*
1,1,0.0050000,-0.0059850,-0.0164450*
20,1,0.0050000,-0.0059850,-0.0164450,-0.0087500,-0.0151550,0.0000000*
1,1,0.0050000,-0.0087500,-0.0151550*
20,1,0.0050000,-0.0087500,-0.0151550,-0.0112490,-0.0134060,0.0000000*
1,1,0.0050000,-0.0112490,-0.0134060*
20,1,0.0050000,-0.0112490,-0.0134060,-0.0134060,-0.0112490,0.0000000*
1,1,0.0050000,-0.0134060,-0.0112490*
20,1,0.0050000,-0.0134060,-0.0112490,-0.0151550,-0.0087500,0.0000000*
1,1,0.0050000,-0.0151550,-0.0087500*
20,1,0.0050000,-0.0151550,-0.0087500,-0.0164450,-0.0059850,0.0000000*
1,1,0.0050000,-0.0164450,-0.0059850*
20,1,0.0050000,-0.0164450,-0.0059850,-0.0172340,-0.0030390,0.0000000*
1,1,0.0050000,-0.0172340,-0.0030390*
20,1,0.0050000,-0.0172340,-0.0030390,-0.0175000,0.0000000,0.0000000*
1,1,0.0050000,-0.0175000,0.0000000*
20,1,0.0050000,-0.0175000,0.0000000,-0.0172340,0.0030390,0.0000000*
1,1,0.0050000,-0.0172340,0.0030390*
20,1,0.0050000,-0.0172340,0.0030390,-0.0164450,0.0059850,0.0000000*
1,1,0.0050000,-0.0164450,0.0059850*
20,1,0.0050000,-0.0164450,0.0059850,-0.0151550,0.0087500,0.0000000*
1,1,0.0050000,-0.0151550,0.0087500*
20,1,0.0050000,-0.0151550,0.0087500,-0.0134060,0.0112490,0.0000000*
1,1,0.0050000,-0.0134060,0.0112490*
20,1,0.0050000,-0.0134060,0.0112490,-0.0112490,0.0134060,0.0000000*
1,1,0.0050000,-0.0112490,0.0134060*
20,1,0.0050000,-0.0112490,0.0134060,-0.0087500,0.0151550,0.0000000*
1,1,0.0050000,-0.0087500,0.0151550*
20,1,0.0050000,-0.0087500,0.0151550,-0.0059850,0.0164450,0.0000000*
1,1,0.0050000,-0.0059850,0.0164450*
20,1,0.0050000,-0.0059850,0.0164450,-0.0030390,0.0172340,0.0000000*
1,1,0.0050000,-0.0030390,0.0172340*
20,1,0.0050000,-0.0030390,0.0172340,0.0000000,0.0175000,0.0000000*
1,1,0.0050000,0.0000000,0.0175000*
20,1,0.0050000,0.0000000,0.0175000,0.0030390,0.0172340,0.0000000*
1,1,0.0050000,0.0030390,0.0172340*
20,1,0.0050000,0.0030390,0.0172340,0.0059850,0.0164450,0.0000000*
1,1,0.0050000,0.0059850,0.0164450*
20,1,0.0050000,0.0059850,0.0164450,0.0087500,0.0151550,0.0000000*
1,1,0.0050000,0.0087500,0.0151550*
20,1,0.0050000,0.0087500,0.0151550,0.0112490,0.0134060,0.0000000*
1,1,0.0050000,0.0112490,0.0134060*
20,1,0.0050000,0.0112490,0.0134060,0.0134060,0.0112490,0.0000000*
1,1,0.0050000,0.0134060,0.0112490*
20,1,0.0050000,0.0134060,0.0112490,0.0151550,0.0087500,0.0000000*
1,1,0.0050000,0.0151550,0.0087500*
20,1,0.0050000,0.0151550,0.0087500,0.0164450,0.0059850,0.0000000*
1,1,0.0050000,0.0164450,0.0059850*
20,1,0.0050000,0.0164450,0.0059850,0.0172340,0.0030390,0.0000000*
1,1,0.0050000,0.0172340,0.0030390*
20,1,0.0050000,0.0172340,0.0030390,0.0175000,0.0000000,0.0000000*
1,1,0.0050000,0.0175000,0.0000000*
1,1,0.0050000,-0.0064200,-0.0087500*
20,1,0.0050000,-0.0064200,-0.0087500,-0.0064200,0.0087500,0.0000000*
1,1,0.0050000,-0.0064200,0.0087500*
20,1,0.0050000,-0.0064200,0.0087500,-0.0005800,0.0087500,0.0000000*
1,1,0.0050000,-0.0005800,0.0087500*
20,1,0.0050000,-0.0005800,0.0087500,0.0017500,0.0078700,0.0000000*
1,1,0.0050000,0.0017500,0.0078700*
20,1,0.0050000,0.0017500,0.0078700,0.0035000,0.0067100,0.0000000*
1,1,0.0050000,0.0035000,0.0067100*
20,1,0.0050000,0.0035000,0.0067100,0.0049600,0.0049600,0.0000000*
1,1,0.0050000,0.0049600,0.0049600*
20,1,0.0050000,0.0049600,0.0049600,0.0061300,0.0029200,0.0000000*
1,1,0.0050000,0.0061300,0.0029200*
20,1,0.0050000,0.0061300,0.0029200,0.0064200,0.0000000,0.0000000*
1,1,0.0050000,0.0064200,0.0000000*
20,1,0.0050000,0.0064200,0.0000000,0.0061300,-0.0029200,0.0000000*
1,1,0.0050000,0.0061300,-0.0029200*
20,1,0.0050000,0.0061300,-0.0029200,0.0049600,-0.0049600,0.0000000*
1,1,0.0050000,0.0049600,-0.0049600*
20,1,0.0050000,0.0049600,-0.0049600,0.0035000,-0.0067100,0.0000000*
1,1,0.0050000,0.0035000,-0.0067100*
20,1,0.0050000,0.0035000,-0.0067100,0.0017500,-0.0078800,0.0000000*
1,1,0.0050000,0.0017500,-0.0078800*
20,1,0.0050000,0.0017500,-0.0078800,-0.0005800,-0.0087500,0.0000000*
1,1,0.0050000,-0.0005800,-0.0087500*
20,1,0.0050000,-0.0005800,-0.0087500,-0.0064200,-0.0087500,0.0000000*
1,1,0.0050000,-0.0064200,-0.0087500*
%
%AMMACRO16*
1,1,0.0050000,-0.0266700,0.0400000*
20,1,0.0050000,-0.0266700,0.0400000,-0.0266700,-0.0400000,0.0000000*
1,1,0.0050000,-0.0266700,-0.0400000*
20,1,0.0050000,-0.0266700,-0.0400000,0.0266700,-0.0400000,0.0000000*
1,1,0.0050000,0.0266700,-0.0400000*
%
%AMMACRO15*
1,1,0.0050000,0.0225000,0.0000000*
20,1,0.0050000,0.0225000,0.0000000,0.0221580,-0.0039070,0.0000000*
1,1,0.0050000,0.0221580,-0.0039070*
20,1,0.0050000,0.0221580,-0.0039070,0.0211430,-0.0076950,0.0000000*
1,1,0.0050000,0.0211430,-0.0076950*
20,1,0.0050000,0.0211430,-0.0076950,0.0194860,-0.0112500,0.0000000*
1,1,0.0050000,0.0194860,-0.0112500*
20,1,0.0050000,0.0194860,-0.0112500,0.0172360,-0.0144630,0.0000000*
1,1,0.0050000,0.0172360,-0.0144630*
20,1,0.0050000,0.0172360,-0.0144630,0.0144630,-0.0172360,0.0000000*
1,1,0.0050000,0.0144630,-0.0172360*
20,1,0.0050000,0.0144630,-0.0172360,0.0112500,-0.0194860,0.0000000*
1,1,0.0050000,0.0112500,-0.0194860*
20,1,0.0050000,0.0112500,-0.0194860,0.0076950,-0.0211430,0.0000000*
1,1,0.0050000,0.0076950,-0.0211430*
20,1,0.0050000,0.0076950,-0.0211430,0.0039070,-0.0221580,0.0000000*
1,1,0.0050000,0.0039070,-0.0221580*
20,1,0.0050000,0.0039070,-0.0221580,0.0000000,-0.0225000,0.0000000*
1,1,0.0050000,0.0000000,-0.0225000*
20,1,0.0050000,0.0000000,-0.0225000,-0.0039070,-0.0221580,0.0000000*
1,1,0.0050000,-0.0039070,-0.0221580*
20,1,0.0050000,-0.0039070,-0.0221580,-0.0076950,-0.0211430,0.0000000*
1,1,0.0050000,-0.0076950,-0.0211430*
20,1,0.0050000,-0.0076950,-0.0211430,-0.0112500,-0.0194860,0.0000000*
1,1,0.0050000,-0.0112500,-0.0194860*
20,1,0.0050000,-0.0112500,-0.0194860,-0.0144630,-0.0172360,0.0000000*
1,1,0.0050000,-0.0144630,-0.0172360*
20,1,0.0050000,-0.0144630,-0.0172360,-0.0172360,-0.0144630,0.0000000*
1,1,0.0050000,-0.0172360,-0.0144630*
20,1,0.0050000,-0.0172360,-0.0144630,-0.0194860,-0.0112500,0.0000000*
1,1,0.0050000,-0.0194860,-0.0112500*
20,1,0.0050000,-0.0194860,-0.0112500,-0.0211430,-0.0076950,0.0000000*
1,1,0.0050000,-0.0211430,-0.0076950*
20,1,0.0050000,-0.0211430,-0.0076950,-0.0221580,-0.0039070,0.0000000*
1,1,0.0050000,-0.0221580,-0.0039070*
20,1,0.0050000,-0.0221580,-0.0039070,-0.0225000,0.0000000,0.0000000*
1,1,0.0050000,-0.0225000,0.0000000*
20,1,0.0050000,-0.0225000,0.0000000,-0.0221580,0.0039070,0.0000000*
1,1,0.0050000,-0.0221580,0.0039070*
20,1,0.0050000,-0.0221580,0.0039070,-0.0211430,0.0076950,0.0000000*
1,1,0.0050000,-0.0211430,0.0076950*
20,1,0.0050000,-0.0211430,0.0076950,-0.0194860,0.0112500,0.0000000*
1,1,0.0050000,-0.0194860,0.0112500*
20,1,0.0050000,-0.0194860,0.0112500,-0.0172360,0.0144630,0.0000000*
1,1,0.0050000,-0.0172360,0.0144630*
20,1,0.0050000,-0.0172360,0.0144630,-0.0144630,0.0172360,0.0000000*
1,1,0.0050000,-0.0144630,0.0172360*
20,1,0.0050000,-0.0144630,0.0172360,-0.0112500,0.0194860,0.0000000*
1,1,0.0050000,-0.0112500,0.0194860*
20,1,0.0050000,-0.0112500,0.0194860,-0.0076950,0.0211430,0.0000000*
1,1,0.0050000,-0.0076950,0.0211430*
20,1,0.0050000,-0.0076950,0.0211430,-0.0039070,0.0221580,0.0000000*
1,1,0.0050000,-0.0039070,0.0221580*
20,1,0.0050000,-0.0039070,0.0221580,0.0000000,0.0225000,0.0000000*
1,1,0.0050000,0.0000000,0.0225000*
20,1,0.0050000,0.0000000,0.0225000,0.0039070,0.0221580,0.0000000*
1,1,0.0050000,0.0039070,0.0221580*
20,1,0.0050000,0.0039070,0.0221580,0.0076950,0.0211430,0.0000000*
1,1,0.0050000,0.0076950,0.0211430*
20,1,0.0050000,0.0076950,0.0211430,0.0112500,0.0194860,0.0000000*
1,1,0.0050000,0.0112500,0.0194860*
20,1,0.0050000,0.0112500,0.0194860,0.0144630,0.0172360,0.0000000*
1,1,0.0050000,0.0144630,0.0172360*
20,1,0.0050000,0.0144630,0.0172360,0.0172360,0.0144630,0.0000000*
1,1,0.0050000,0.0172360,0.0144630*
20,1,0.0050000,0.0172360,0.0144630,0.0194860,0.0112500,0.0000000*
1,1,0.0050000,0.0194860,0.0112500*
20,1,0.0050000,0.0194860,0.0112500,0.0211430,0.0076950,0.0000000*
1,1,0.0050000,0.0211430,0.0076950*
20,1,0.0050000,0.0211430,0.0076950,0.0221580,0.0039070,0.0000000*
1,1,0.0050000,0.0221580,0.0039070*
20,1,0.0050000,0.0221580,0.0039070,0.0225000,0.0000000,0.0000000*
1,1,0.0050000,0.0225000,0.0000000*
1,1,0.0050000,-0.0078800,-0.0112500*
20,1,0.0050000,-0.0078800,-0.0112500,-0.0078800,0.0112500,0.0000000*
1,1,0.0050000,-0.0078800,0.0112500*
1,1,0.0050000,0.0078800,0.0112500*
20,1,0.0050000,0.0078800,0.0112500,0.0078800,-0.0112500,0.0000000*
1,1,0.0050000,0.0078800,-0.0112500*
1,1,0.0050000,0.0078800,0.0000000*
20,1,0.0050000,0.0078800,0.0000000,-0.0078800,0.0000000,0.0000000*
1,1,0.0050000,-0.0078800,0.0000000*
%
%AMMACRO23*
1,1,0.0050000,-0.0201700,-0.0275000*
20,1,0.0050000,-0.0201700,-0.0275000,-0.0201700,0.0275000,0.0000000*
1,1,0.0050000,-0.0201700,0.0275000*
1,1,0.0050000,0.0146700,0.0275000*
20,1,0.0050000,0.0146700,0.0275000,-0.0201700,-0.0064200,0.0000000*
1,1,0.0050000,-0.0201700,-0.0064200*
1,1,0.0050000,0.0201700,-0.0275000*
20,1,0.0050000,0.0201700,-0.0275000,-0.0045800,0.0091700,0.0000000*
1,1,0.0050000,-0.0045800,0.0091700*
%
%AMMACRO17*
1,1,0.0050000,0.0275000,0.0000000*
20,1,0.0050000,0.0275000,0.0000000,0.0270820,-0.0047750,0.0000000*
1,1,0.0050000,0.0270820,-0.0047750*
20,1,0.0050000,0.0270820,-0.0047750,0.0258420,-0.0094060,0.0000000*
1,1,0.0050000,0.0258420,-0.0094060*
20,1,0.0050000,0.0258420,-0.0094060,0.0238160,-0.0137500,0.0000000*
1,1,0.0050000,0.0238160,-0.0137500*
20,1,0.0050000,0.0238160,-0.0137500,0.0210660,-0.0176770,0.0000000*
1,1,0.0050000,0.0210660,-0.0176770*
20,1,0.0050000,0.0210660,-0.0176770,0.0176770,-0.0210660,0.0000000*
1,1,0.0050000,0.0176770,-0.0210660*
20,1,0.0050000,0.0176770,-0.0210660,0.0137500,-0.0238160,0.0000000*
1,1,0.0050000,0.0137500,-0.0238160*
20,1,0.0050000,0.0137500,-0.0238160,0.0094060,-0.0258420,0.0000000*
1,1,0.0050000,0.0094060,-0.0258420*
20,1,0.0050000,0.0094060,-0.0258420,0.0047750,-0.0270820,0.0000000*
1,1,0.0050000,0.0047750,-0.0270820*
20,1,0.0050000,0.0047750,-0.0270820,0.0000000,-0.0275000,0.0000000*
1,1,0.0050000,0.0000000,-0.0275000*
20,1,0.0050000,0.0000000,-0.0275000,-0.0047750,-0.0270820,0.0000000*
1,1,0.0050000,-0.0047750,-0.0270820*
20,1,0.0050000,-0.0047750,-0.0270820,-0.0094060,-0.0258420,0.0000000*
1,1,0.0050000,-0.0094060,-0.0258420*
20,1,0.0050000,-0.0094060,-0.0258420,-0.0137500,-0.0238160,0.0000000*
1,1,0.0050000,-0.0137500,-0.0238160*
20,1,0.0050000,-0.0137500,-0.0238160,-0.0176770,-0.0210660,0.0000000*
1,1,0.0050000,-0.0176770,-0.0210660*
20,1,0.0050000,-0.0176770,-0.0210660,-0.0210660,-0.0176770,0.0000000*
1,1,0.0050000,-0.0210660,-0.0176770*
20,1,0.0050000,-0.0210660,-0.0176770,-0.0238160,-0.0137500,0.0000000*
1,1,0.0050000,-0.0238160,-0.0137500*
20,1,0.0050000,-0.0238160,-0.0137500,-0.0258420,-0.0094060,0.0000000*
1,1,0.0050000,-0.0258420,-0.0094060*
20,1,0.0050000,-0.0258420,-0.0094060,-0.0270820,-0.0047750,0.0000000*
1,1,0.0050000,-0.0270820,-0.0047750*
20,1,0.0050000,-0.0270820,-0.0047750,-0.0275000,0.0000000,0.0000000*
1,1,0.0050000,-0.0275000,0.0000000*
20,1,0.0050000,-0.0275000,0.0000000,-0.0270820,0.0047750,0.0000000*
1,1,0.0050000,-0.0270820,0.0047750*
20,1,0.0050000,-0.0270820,0.0047750,-0.0258420,0.0094060,0.0000000*
1,1,0.0050000,-0.0258420,0.0094060*
20,1,0.0050000,-0.0258420,0.0094060,-0.0238160,0.0137500,0.0000000*
1,1,0.0050000,-0.0238160,0.0137500*
20,1,0.0050000,-0.0238160,0.0137500,-0.0210660,0.0176770,0.0000000*
1,1,0.0050000,-0.0210660,0.0176770*
20,1,0.0050000,-0.0210660,0.0176770,-0.0176770,0.0210660,0.0000000*
1,1,0.0050000,-0.0176770,0.0210660*
20,1,0.0050000,-0.0176770,0.0210660,-0.0137500,0.0238160,0.0000000*
1,1,0.0050000,-0.0137500,0.0238160*
20,1,0.0050000,-0.0137500,0.0238160,-0.0094060,0.0258420,0.0000000*
1,1,0.0050000,-0.0094060,0.0258420*
20,1,0.0050000,-0.0094060,0.0258420,-0.0047750,0.0270820,0.0000000*
1,1,0.0050000,-0.0047750,0.0270820*
20,1,0.0050000,-0.0047750,0.0270820,0.0000000,0.0275000,0.0000000*
1,1,0.0050000,0.0000000,0.0275000*
20,1,0.0050000,0.0000000,0.0275000,0.0047750,0.0270820,0.0000000*
1,1,0.0050000,0.0047750,0.0270820*
20,1,0.0050000,0.0047750,0.0270820,0.0094060,0.0258420,0.0000000*
1,1,0.0050000,0.0094060,0.0258420*
20,1,0.0050000,0.0094060,0.0258420,0.0137500,0.0238160,0.0000000*
1,1,0.0050000,0.0137500,0.0238160*
20,1,0.0050000,0.0137500,0.0238160,0.0176770,0.0210660,0.0000000*
1,1,0.0050000,0.0176770,0.0210660*
20,1,0.0050000,0.0176770,0.0210660,0.0210660,0.0176770,0.0000000*
1,1,0.0050000,0.0210660,0.0176770*
20,1,0.0050000,0.0210660,0.0176770,0.0238160,0.0137500,0.0000000*
1,1,0.0050000,0.0238160,0.0137500*
20,1,0.0050000,0.0238160,0.0137500,0.0258420,0.0094060,0.0000000*
1,1,0.0050000,0.0258420,0.0094060*
20,1,0.0050000,0.0258420,0.0094060,0.0270820,0.0047750,0.0000000*
1,1,0.0050000,0.0270820,0.0047750*
20,1,0.0050000,0.0270820,0.0047750,0.0275000,0.0000000,0.0000000*
1,1,0.0050000,0.0275000,0.0000000*
1,1,0.0050000,-0.0091700,-0.0082500*
20,1,0.0050000,-0.0091700,-0.0082500,-0.0068700,-0.0110000,0.0000000*
1,1,0.0050000,-0.0068700,-0.0110000*
20,1,0.0050000,-0.0068700,-0.0110000,-0.0041300,-0.0128300,0.0000000*
1,1,0.0050000,-0.0041300,-0.0128300*
20,1,0.0050000,-0.0041300,-0.0128300,-0.0009200,-0.0137500,0.0000000*
1,1,0.0050000,-0.0009200,-0.0137500*
20,1,0.0050000,-0.0009200,-0.0137500,0.0027500,-0.0128300,0.0000000*
1,1,0.0050000,0.0027500,-0.0128300*
20,1,0.0050000,0.0027500,-0.0128300,0.0055000,-0.0110000,0.0000000*
1,1,0.0050000,0.0055000,-0.0110000*
20,1,0.0050000,0.0055000,-0.0110000,0.0082500,-0.0082500,0.0000000*
1,1,0.0050000,0.0082500,-0.0082500*
20,1,0.0050000,0.0082500,-0.0082500,0.0091700,-0.0045800,0.0000000*
1,1,0.0050000,0.0091700,-0.0045800*
20,1,0.0050000,0.0091700,-0.0045800,0.0091700,0.0137500,0.0000000*
1,1,0.0050000,0.0091700,0.0137500*
%
%AMMACRO22*
1,1,0.0050000,0.0052500,0.0013200*
20,1,0.0050000,0.0052500,0.0013200,0.0078800,0.0032900,0.0000000*
1,1,0.0050000,0.0078800,0.0032900*
20,1,0.0050000,0.0078800,0.0032900,0.0098500,0.0065700,0.0000000*
1,1,0.0050000,0.0098500,0.0065700*
20,1,0.0050000,0.0098500,0.0065700,0.0111600,0.0111600,0.0000000*
1,1,0.0050000,0.0111600,0.0111600*
20,1,0.0050000,0.0111600,0.0111600,0.0098500,0.0151000,0.0000000*
1,1,0.0050000,0.0098500,0.0151000*
20,1,0.0050000,0.0098500,0.0151000,0.0072200,0.0177200,0.0000000*
1,1,0.0050000,0.0072200,0.0177200*
20,1,0.0050000,0.0072200,0.0177200,0.0026300,0.0196900,0.0000000*
1,1,0.0050000,0.0026300,0.0196900*
20,1,0.0050000,0.0026300,0.0196900,-0.0150900,0.0196900,0.0000000*
1,1,0.0050000,-0.0150900,0.0196900*
20,1,0.0050000,-0.0150900,0.0196900,-0.0150900,-0.0196800,0.0000000*
1,1,0.0050000,-0.0150900,-0.0196800*
20,1,0.0050000,-0.0150900,-0.0196800,0.0065700,-0.0196800,0.0000000*
1,1,0.0050000,0.0065700,-0.0196800*
20,1,0.0050000,0.0065700,-0.0196800,0.0111600,-0.0170600,0.0000000*
1,1,0.0050000,0.0111600,-0.0170600*
20,1,0.0050000,0.0111600,-0.0170600,0.0137800,-0.0131200,0.0000000*
1,1,0.0050000,0.0137800,-0.0131200*
20,1,0.0050000,0.0137800,-0.0131200,0.0151000,-0.0085300,0.0000000*
1,1,0.0050000,0.0151000,-0.0085300*
20,1,0.0050000,0.0151000,-0.0085300,0.0137800,-0.0039300,0.0000000*
1,1,0.0050000,0.0137800,-0.0039300*
20,1,0.0050000,0.0137800,-0.0039300,0.0098500,0.0000000,0.0000000*
1,1,0.0050000,0.0098500,0.0000000*
20,1,0.0050000,0.0098500,0.0000000,0.0052500,0.0013200,0.0000000*
1,1,0.0050000,0.0052500,0.0013200*
20,1,0.0050000,0.0052500,0.0013200,-0.0150900,0.0013200,0.0000000*
1,1,0.0050000,-0.0150900,0.0013200*
%
%ADD15C,0.00500*%
%ADD34MACRO13*%
%ADD35MACRO11*%
%ADD36MACRO14*%
%ADD37MACRO10*%
%ADD38MACRO21*%
%ADD39MACRO20*%
%ADD40MACRO18*%
%ADD41MACRO12*%
%ADD42MACRO19*%
%ADD43MACRO16*%
%ADD44MACRO15*%
%ADD45MACRO23*%
%ADD46MACRO17*%
%ADD47MACRO22*%
%LNRAK4600_v100_FAB.art*%
%LPD*%
G54D37*
X13000Y14000D03*
X14000Y227000D03*
X428000Y13000D03*
X431000Y225000D03*
G54D39*
X249000Y145000D03*
Y155000D03*
Y165000D03*
Y175000D03*
Y185000D03*
Y195000D03*
Y205000D03*
X286000Y88000D03*
X276000D03*
G54D35*
X17000Y64000D03*
X15500Y89500D03*
X17000Y84000D03*
X15500Y117500D03*
X16000Y146500D03*
X37000Y64000D03*
X28500Y114500D03*
X57000Y24000D03*
X77000D03*
X57000Y64000D03*
X77000D03*
X57000Y44000D03*
X67705Y70795D03*
X65000Y106500D03*
X73000D03*
X65000Y99500D03*
X73000D03*
X80000Y110500D03*
X53000Y153000D03*
X61500D03*
X52500Y145000D03*
X70000Y160000D03*
X53000D03*
X61500D03*
X97000Y24000D03*
X81000Y73000D03*
X99000Y139000D03*
X107500Y129500D03*
X85000Y191000D03*
X117000Y24000D03*
X137000D03*
X117000Y64000D03*
X137000D03*
X117000Y91000D03*
Y79000D03*
X137000D03*
X131500Y110500D03*
X111500Y117500D03*
X112500Y129500D03*
X117500D03*
X122500D03*
X112500Y150500D03*
X160500Y81000D03*
X143000Y154000D03*
X152000Y148000D03*
X157000Y147000D03*
X156333Y154667D03*
X160000Y132000D03*
X169671Y163329D03*
X164000Y178000D03*
X157000Y171500D03*
X145000Y162500D03*
X141500Y213000D03*
Y231500D03*
X174000Y67000D03*
X183000Y112000D03*
X193000Y111000D03*
X187000Y151000D03*
X171000Y150000D03*
X173000Y137000D03*
X190142Y166000D03*
X190000Y159000D03*
X179000Y175000D03*
X190000Y194000D03*
X174500Y213000D03*
X182000Y195000D03*
X176000Y191000D03*
X174500Y232000D03*
X221000Y67000D03*
X223000Y90000D03*
X213000Y111250D03*
X203000Y111000D03*
X229000Y135000D03*
X207858Y141000D03*
X206000Y153000D03*
X217400Y139300D03*
X206000Y162500D03*
X228000Y172450D03*
X232000Y77000D03*
X248500Y113500D03*
X255000D03*
X233000Y162000D03*
X265000Y67000D03*
X264000Y117000D03*
X275000Y123000D03*
X277898Y154398D03*
X287000Y154000D03*
Y174000D03*
X286697Y206197D03*
X287000Y194000D03*
X282000Y234000D03*
Y224000D03*
X301189Y48189D03*
X313000Y65000D03*
X318000Y117500D03*
X300000Y118000D03*
X317500Y104500D03*
X312000Y154000D03*
Y174000D03*
X316224Y207276D03*
X306382Y206618D03*
X296539Y206539D03*
X291618Y206118D03*
X312000Y194000D03*
X291500Y220000D03*
X316500Y220500D03*
X328000Y51000D03*
X344500Y89500D03*
X325000Y74000D03*
X332000Y119000D03*
X347000D03*
X322000Y111500D03*
X320500Y140500D03*
X345500Y163500D03*
X320500Y174083D03*
X336732Y193768D03*
X337000Y201500D03*
X322000Y234000D03*
Y224000D03*
X358000Y23000D03*
X367000Y41800D03*
Y104000D03*
X379000Y159000D03*
X392000Y24000D03*
X381000Y89000D03*
X401983Y84983D03*
X382000Y119000D03*
Y104000D03*
X401983Y141983D03*
X382000Y134000D03*
X381000Y233000D03*
G54D41*
X42950Y41000D03*
X141050D03*
G54D38*
X249000Y215000D03*
X266000Y88000D03*
G54D47*
X311894Y231000D03*
X291106D03*
G54D34*
X35500Y210200D03*
Y211000D03*
Y211800D03*
Y212600D03*
Y213400D03*
Y214200D03*
Y215000D03*
Y215800D03*
Y216600D03*
Y217400D03*
X57600Y225600D03*
X56800D03*
X56000D03*
X55200D03*
X54400D03*
X53600D03*
X52800D03*
X52000D03*
X51200D03*
X50400D03*
G54D45*
X351000Y17500D03*
Y72500D03*
Y89500D03*
Y144500D03*
Y163500D03*
Y218500D03*
X371000Y17500D03*
Y72500D03*
Y89500D03*
Y144500D03*
Y163500D03*
Y218500D03*
G54D36*
X58500Y202000D03*
X57500D03*
X56500D03*
X55500D03*
X54500D03*
X53500D03*
X52500D03*
X51500D03*
X50500D03*
X49500D03*
G54D44*
X75650Y35400D03*
X81100Y46600D03*
X70200D03*
X108350Y35400D03*
X97450D03*
X86550D03*
X102900Y46600D03*
X92000D03*
X113800D03*
G54D43*
X106205Y202000D03*
X121795D03*
G54D46*
X199842Y24000D03*
X180158D03*
X220158D03*
X260158D03*
X239842D03*
X279842D03*
X319842D03*
X300158D03*
X426000Y37315D03*
Y57000D03*
Y76685D03*
Y97315D03*
Y117000D03*
Y136685D03*
Y157315D03*
Y177000D03*
Y196685D03*
G54D40*
X211000Y228000D03*
G54D42*
X221000D03*
X231000D03*
X241000D03*
X251000D03*
G54D15*
X2000Y239000D02*
G01Y2000D01*
X443000*
Y239000*
X2000*
X0Y0D02*
G01Y241000D01*
X445000*
Y0*
X0*
X287720Y223126D02*
G01X315280D01*
Y238874*
X287720*
Y223126*
M02*
