G04 CAM350/DFMSTREAM V12.1 (Build 1022) Date:  Mon Jun 22 15:47:30 2020 *
G04 Database: (Untitled) *
G04 Layer 3: RAK4600_v100_BOTTOM.art *
%FSLAX25Y25*%
%MOIN*%
%SFA1.000B1.000*%

%MIA0B0*%
%IPPOS*%
%ADD12C,0.00800*%
%ADD15C,0.00500*%
%ADD19O,0.07000X0.15000*%
%ADD70O,0.15000X0.07000*%
%ADD71O,0.18000X0.07000*%
%ADD20C,0.08000*%
%ADD21C,0.04400*%
%ADD22R,0.08000X0.08000*%
%ADD23O,0.12000X0.16000*%
%ADD24R,0.12000X0.16000*%
%ADD25R,0.04724X0.15748*%
%ADD26C,0.10000*%
%ADD27R,0.03200X0.03500*%
%ADD28C,0.13000*%
%ADD29R,0.10000X0.10000*%
%ADD72C,0.18000*%
%ADD73C,0.03000*%
%LNRAK4600_v100_BOTTOM.art*%
%LPD*%
G36*
X411000Y3000D02*
G01X45000D01*
X2001Y45999*
Y103001*
X8000Y109000*
X75000*
X76000Y108000*
Y98000*
X75000Y97000*
X17000*
X11000Y91000*
Y52000*
X52000Y11000*
X402000*
X405000Y14000*
Y27000*
X421000Y43000*
X430000*
X435000Y48000*
Y87000*
X431000Y91000*
X419000*
Y104000*
X438000*
X442999Y99001*
Y29999*
X441000Y28000*
X423000*
X415000Y20000*
Y7000*
X411000Y3000*
G37*
G36*
X401171Y13002D02*
G01X375918D01*
G75*
G02X375518Y13402J400*
X375611Y13658I400J0*
G03X377002Y17500I-4610J3842*
X371000Y23502I-6002J0*
X364998Y17500I0J-6002*
X366389Y13658I6001J0*
G02X366482Y13402I-307J-256*
X366082Y13002I-400J0*
G01X52829*
X13002Y52829*
Y90171*
X17829Y94998*
X75829*
X78002Y97171*
Y108829*
X75829Y111002*
X7171*
X2684Y106514*
G02X2401Y106397I-283J283*
X2264Y106421I0J400*
X2001Y106797I137J376*
G01Y238999*
X442999*
Y102797*
G02X442768Y102434I-400J0*
X442599Y102397I-168J363*
X442316Y102514I0J400*
G01X438829Y106002*
X416999*
G03X416998Y106001I0J-1*
G01Y88999*
G03X416999Y88998I1J0*
G01X430171*
X432998Y86171*
Y60354*
G02X432702Y59968I-400J0*
X432599Y59954I-105J386*
X432242Y60173I0J400*
G03X426000Y64002I-6242J-3173*
X418998Y57000I0J-7002*
X426000Y49998I7002*
X432242Y53827I0J7002*
G02X432598Y54045I356J-181*
X432681Y54037I3J-400*
X432998Y53646I-82J-391*
G01Y48829*
X429171Y45002*
X420171*
X402998Y27829*
Y14829*
X401171Y13002*
G37*
%LPC*%
G36*
X307160Y19000D02*
G01Y29000D01*
G03X305158Y31002I-2002J0*
G01X295158*
G03X293156Y29000I0J-2002*
G01Y19000*
G03X295158Y16998I2002J0*
G01X305158*
G03X307160Y19000I0J2002*
G37*
G36*
X286840Y24229D02*
G03X279842Y31002I-6998J-229D01*
X272844Y23771I0J-7002*
X279842Y16998I6998J229*
X286840Y24229I0J7002*
G37*
G36*
X267160Y19000D02*
G01Y29000D01*
G03X265158Y31002I-2002J0*
G01X255158*
G03X253156Y29000I0J-2002*
G01Y19000*
G03X255158Y16998I2002J0*
G01X265158*
G03X267160Y19000I0J2002*
G37*
G36*
X246840Y24229D02*
G03X239842Y31002I-6998J-229D01*
X232844Y23771I0J-7002*
X239842Y16998I6998J229*
X246840Y24229I0J7002*
G37*
G36*
X227160Y19000D02*
G01Y29000D01*
G03X225158Y31002I-2002J0*
G01X215158*
G03X213156Y29000I0J-2002*
G01Y19000*
G03X215158Y16998I2002J0*
G01X225158*
G03X227160Y19000I0J2002*
G37*
G36*
X206840Y24229D02*
G03X199842Y31002I-6998J-229D01*
X192844Y23771I0J-7002*
X199842Y16998I6998J229*
X206840Y24229I0J7002*
G37*
G36*
X187160Y19000D02*
G01Y29000D01*
G03X185158Y31002I-2002J0*
G01X175158*
G03X173156Y29000I0J-2002*
G01Y19000*
G03X175158Y16998I2002J0*
G01X185158*
G03X187160Y19000I0J2002*
G37*
G36*
X152045Y40606D02*
G03X141050Y52002I-10995J394D01*
X130055Y41394I0J-11002*
X141050Y29998I10995J-394*
X152045Y40606I0J11002*
G37*
G36*
X114352Y35400D02*
G03X112323Y39899I-6002J0D01*
G02X112212Y40335I265J300*
X112588Y40598I376J-137*
G01X117800*
G03X119802Y42600J2002*
G01Y50600*
G03X117800Y52602I-2002J0*
G01X109800*
G03X107843Y51018I0J-2001*
G02X107452Y50702I-391J84*
X107167Y50821I0J400*
G03X102900Y52602I-4267J-4221*
X97790Y49749I0J-6003*
G02X97450Y49559I-340J210*
X97110Y49749I0J400*
G03X92000Y52602I-5110J-3150*
X86890Y49749I0J-6003*
G02X86550Y49559I-340J210*
X86210Y49749I0J400*
G03X81100Y52602I-5110J-3150*
X75098Y46600I0J-6002*
X81100Y40598I6002J0*
X86210Y43451I0J6003*
G02X86550Y43641I340J-210*
X86890Y43451I0J-400*
G03X92000Y40598I5110J3150*
X97110Y43451I0J6003*
G02X97450Y43641I340J-210*
X97790Y43451I0J-400*
G03X102900Y40598I5110J3150*
X107167Y42379J6002*
G02X107452Y42498I285J-281*
X107843Y42182I0J-400*
G03X107927Y41893I1959J413*
G02X107603Y41355I-374J-141*
G03X103240Y38549I746J-5955*
G02X102900Y38359I-340J210*
X102560Y38549I0J400*
G03X97450Y41402I-5110J-3150*
X92340Y38549I0J-6003*
G02X92000Y38359I-340J210*
X91660Y38549I0J400*
G03X86550Y41402I-5110J-3150*
X81440Y38549I0J-6003*
G02X81100Y38359I-340J210*
X80760Y38549I0J400*
G03X75650Y41402I-5110J-3150*
X69648Y35400I0J-6002*
X75650Y29398I6002J0*
X80760Y32251I0J6003*
G02X81100Y32441I340J-210*
X81440Y32251I0J-400*
G03X86550Y29398I5110J3150*
X91660Y32251I0J6003*
G02X92000Y32441I340J-210*
X92340Y32251I0J-400*
G03X97450Y29398I5110J3150*
X102560Y32251I0J6003*
G02X102900Y32441I340J-210*
X103240Y32251I0J-400*
G03X108350Y29398I5110J3150*
X114352Y35400I0J6002*
G37*
G36*
X53945Y40606D02*
G03X42950Y52002I-10995J394D01*
X31955Y41394I0J-11002*
X42950Y29998I10995J-394*
X53945Y40606I0J11002*
G37*
G36*
X337198Y37302D02*
G01X354995Y55098D01*
X373000*
G03X374698Y55802I-1J2402*
G01X393698Y74802*
G03X394402Y76500I-1698J1699*
G01Y142005*
X423046Y170650*
X423172Y170595*
G03X426000Y169998I2829J6405*
X433002Y177000I0J7002*
X426000Y184002I-7002J0*
X418998Y177000I0J-7002*
X419595Y174172I7002J1*
G01X419650Y174046*
X390302Y144698*
G03X389598Y143000I1698J-1699*
G01Y77495*
X372005Y59902*
X354000*
G03X352302Y59198I1J-2402*
G01X334505Y41402*
X323995*
X315402Y49995*
Y61552*
G03X317202Y65000I-2402J3448*
X313000Y69202I-4202J0*
X308798Y65000I0J-4202*
X310598Y61552I4202J0*
G01Y49000*
G03X311302Y47302I2402J1*
G01X321302Y37302*
G03X323000Y36598I1699J1698*
G01X335500*
G03X337198Y37302I-1J2402*
G37*
G36*
X370448Y39398D02*
G01X378800D01*
G03X380498Y40102I-1J2402*
G01X410198Y69802*
G03X410902Y71500I-1698J1699*
G01Y107505*
X417995Y114598*
X419423*
G03X426000Y109998I6577J2402*
X433002Y117000I0J7002*
X426000Y124002I-7002J0*
X419423Y119402I0J-7002*
G01X417000*
G03X415302Y118698I1J-2402*
G01X406802Y110198*
G03X406098Y108500I1698J-1699*
G01Y72495*
X377805Y44202*
X370448*
G03X367000Y46002I-3448J-2402*
X362798Y41800I0J-4202*
X367000Y37598I4202J0*
X370448Y39398I0J4202*
G37*
G36*
X332107Y50110D02*
G01X332119Y50167D01*
X335176Y53224*
G03X336202Y55700I-2475J2476*
G01Y76800*
G03X335176Y79276I-3501J0*
G01X331002Y83450*
Y106000*
G03X329976Y108476I-3501J0*
G01X326119Y112333*
X326107Y112390*
G03X322000Y115702I-4107J-890*
X317798Y111500I0J-4202*
X321110Y107393I4202J0*
G01X321167Y107381*
X323998Y104550*
Y82000*
G03X325024Y79524I3501J0*
G01X329198Y75350*
Y57150*
X327167Y55119*
X327110Y55107*
G03X323798Y51000I890J-4107*
X328000Y46798I4202J0*
X332107Y50110I0J4202*
G37*
G36*
X376996Y72774D02*
G03X371000Y78502I-5996J-274D01*
X365004Y72226I0J-6002*
X371000Y66498I5996J274*
X376996Y72774I0J6002*
G37*
G36*
X356996D02*
G03X351000Y78502I-5996J-274D01*
X345004Y72226I0J-6002*
X351000Y66498I5996J274*
X356996Y72774I0J6002*
G37*
G36*
X282002Y88000D02*
G03X276000Y94002I-6002J0D01*
X272375Y92784I0J-6003*
G02X272133Y92703I-241J319*
X271778Y92919I0J400*
G03X270000Y94002I-1778J-918*
G01X262000*
G03X259998Y92000I0J-2002*
G01Y84000*
G03X262000Y81998I2002*
G01X270000*
G03X271778Y83081I0J2001*
G02X272133Y83297I355J-184*
X272375Y83216I1J-400*
G03X276000Y81998I3625J4785*
X282002Y88000I0J6002*
G37*
G36*
X376996Y89774D02*
G03X371000Y95502I-5996J-274D01*
X365004Y89226I0J-6002*
X371000Y83498I5996J274*
X376996Y89774I0J6002*
G37*
G36*
X227202Y90000D02*
G03X226502Y92323I-4202J1D01*
G01Y116000*
G03X225476Y118476I-3501J0*
G01X221476Y122476*
G03X219000Y123502I-2476J-2475*
G01X215570*
G03X214601Y123752I-969J-1752*
G01X214600*
X211400*
X211399*
G03X210430Y123502I0J-2003*
G01X203570*
G03X202601Y123752I-969J-1752*
G01X202600*
X199400*
X199399*
G03X198430Y123502I0J-2003*
G01X196502*
Y125550*
X200360Y129408*
G03X201386Y131884I-2475J2476*
G01Y143498*
X208250*
X213281Y138467*
X213293Y138410*
G03X217400Y135098I4107J890*
X219674Y135767I-1J4202*
G01X219724Y135798*
X221600*
G03X224076Y136824I0J3501*
G01X224250Y136998*
X232050*
X251498Y117550*
Y115824*
X251467Y115774*
G03X250798Y113500I3533J-2275*
X255000Y109298I4202*
X259202Y113500J4202*
X258502Y115823I-4202J1*
G01Y119000*
G03X257476Y121476I-3501J0*
G01X235976Y142976*
G03X233500Y144002I-2476J-2475*
G01X222800*
G03X220324Y142976I0J-3501*
G01X220150Y142802*
X219724*
X219674Y142833*
G03X218290Y143407I-2276J-3532*
G01X218233Y143419*
X212176Y149476*
G03X209700Y150502I-2476J-2475*
G01X201386*
Y165056*
X224108*
G03X226584Y166082I0J3501*
G01X228833Y168331*
X228890Y168343*
G03X232202Y172450I-890J4107*
X228000Y176652I-4202J0*
X223893Y173340I0J-4202*
G01X223881Y173283*
X222658Y172060*
X199334*
X193918Y177476*
G03X191442Y178502I-2476J-2475*
G01X186502*
Y196829*
X183829Y199502*
X174171*
X171498Y196829*
Y172171*
X174171Y169498*
X183829*
X185829Y171498*
X189992*
X194382Y167108*
Y150502*
X193647*
G03X191171Y149476I0J-3501*
G01X187497Y145802*
X186503*
X182829Y149476*
G03X180353Y150502I-2476J-2475*
G01X177000*
G03X175707Y150254I1J-3502*
G02X175559Y150226I-147J372*
X175163Y150571I0J400*
G03X171000Y154202I-4163J-571*
X166798Y150000I0J-4202*
X167765Y147318I4203J0*
G01X167882Y147178*
X166802Y146098*
G03X166098Y144400I1698J-1699*
G01Y141495*
X160741Y136137*
X160641Y136153*
X160001Y136202*
X160000*
G03X155798Y132000I0J-4202*
X160000Y127798I4202*
X164202Y132000J4202*
G01X164153Y132641*
X164137Y132741*
X168146Y136750*
G02X168429Y136867I283J-283*
X168826Y136513I0J-400*
G03X173000Y132798I4174J487*
X177202Y137000J4202*
X176502Y139323I-4202J1*
G01Y141550*
X178450Y143498*
X178903*
X182577Y139824*
G03X185053Y138798I2476J2475*
G01X188947*
G03X191423Y139824I0J3501*
G01X193700Y142101*
G02X193982Y142217I282J-284*
X194382Y141818I0J-400*
G01Y133334*
X190524Y129476*
G03X189498Y127000I2475J-2476*
G01Y122377*
X189489Y122348*
G03X189398Y121750I1911J-597*
G01Y113164*
G03X188798Y111000I3602J-2164*
X193000Y106798I4202*
X197191Y110699I0J4202*
G02X197590Y111071I399J-29*
X197892Y110934I0J-400*
G03X198853Y110324I1509J1315*
X203000Y106798I4147J676*
X207202Y111000J4202*
X205726Y114198I-4203J0*
X205476Y114476I-2728J-2202*
G01X204602Y115350*
Y116498*
X209398*
Y113414*
G03X208798Y111250I3602J-2164*
X213000Y107048I4202*
X217202Y111250J4202*
X216602Y113414I-4202J0*
G01Y116498*
X217550*
X219498Y114550*
Y92323*
G03X218798Y90000I3502J-2322*
X223000Y85798I4202*
X227202Y90000J4202*
G37*
G36*
X267448Y114598D02*
G01X269000D01*
G03X270698Y115302I-1J2402*
G01X274259Y118863*
X274359Y118847*
X274999Y118798*
X275000*
G03X279202Y123000J4202*
X275000Y127202I-4202J0*
X270798Y123000I0J-4202*
G01X270847Y122359*
X270863Y122259*
X268005Y119402*
X267450*
X267390Y119483*
G03X264000Y121202I-3390J-2483*
X259798Y117000I0J-4202*
X264000Y112798I4202J0*
X267448Y114598I0J4202*
G37*
G36*
X376996Y144774D02*
G03X371000Y150502I-5996J-274D01*
X365004Y144226I0J-6002*
X371000Y138498I5996J274*
X376996Y144774I0J6002*
G37*
G36*
X356996D02*
G03X351000Y150502I-5996J-274D01*
X345004Y144226I0J-6002*
X351000Y138498I5996J274*
X356996Y144774I0J6002*
G37*
G36*
X255002Y145000D02*
G03X252748Y149688I-6002J0D01*
G02X252598Y150000I250J312*
X252748Y150312I400J0*
G03X255002Y155000I-3748J4688*
X252748Y159688I-6002J0*
G02X252598Y160000I250J312*
X252748Y160312I400J0*
G03X255002Y165000I-3748J4688*
X252748Y169688I-6002J0*
G02X252598Y170000I250J312*
X252748Y170312I400J0*
G03X255002Y175000I-3748J4688*
X252748Y179688I-6002J0*
G02X252598Y180000I250J312*
X252748Y180312I400J0*
G03X255002Y185000I-3748J4688*
X252748Y189688I-6002J0*
G02X252598Y190000I250J312*
X252748Y190312I400J0*
G03X255002Y195000I-3748J4688*
X252748Y199688I-6002J0*
G02X252598Y200000I250J312*
X252748Y200312I400J0*
G03X255002Y205000I-3748J4688*
X249000Y211002I-6002J0*
X242998Y205000I0J-6002*
X245252Y200312I6002J0*
G02X245402Y200000I-250J-312*
X245252Y199688I-400J0*
G03X242998Y195000I3748J-4688*
X245252Y190312I6002J0*
G02X245402Y190000I-250J-312*
X245252Y189688I-400J0*
G03X242998Y185000I3748J-4688*
X245252Y180312I6002J0*
G02X245402Y180000I-250J-312*
X245252Y179688I-400J0*
G03X242998Y175000I3748J-4688*
X245252Y170312I6002J0*
G02X245402Y170000I-250J-312*
X245252Y169688I-400J0*
G03X242998Y165000I3748J-4688*
X245252Y160312I6002J0*
G02X245402Y160000I-250J-312*
X245252Y159688I-400J0*
G03X242998Y155000I3748J-4688*
X245252Y150312I6002J0*
G02X245402Y150000I-250J-312*
X245252Y149688I-400J0*
G03X242998Y145000I3748J-4688*
X249000Y138998I6002J0*
X255002Y145000I0J6002*
G37*
G36*
X433002Y152315D02*
G01Y162315D01*
G03X431001Y164316I-2001J0*
G01X431000*
X421000*
G03X418998Y162315I0J-2002*
G01Y152315*
G03X420999Y150314I2001J0*
G01X421000*
X431000*
G03X433002Y152315I0J2002*
G37*
G36*
X376996Y163774D02*
G03X371000Y169502I-5996J-274D01*
X365004Y163226I0J-6002*
X371000Y157498I5996J274*
X376996Y163774I0J6002*
G37*
G36*
X129796Y193999D02*
G01Y194000D01*
Y210000*
G03X127795Y212002I-2002J0*
G01X115795*
G03X113794Y210001I0J-2001*
G01Y210000*
Y194000*
G03X115795Y191998I2002J0*
G01X127795*
G03X129796Y193999I0J2001*
G37*
G36*
X65002Y202000D02*
G03X59500Y207502I-5502J0D01*
G01X48500*
G03X42998Y202000I0J-5502*
X48500Y196498I5502J0*
G01X59500*
G03X65002Y202000I0J5502*
G37*
G36*
X439501Y224842D02*
G03X431000Y233502I-8501J158D01*
X422499Y225158I0J-8502*
X431000Y216498I8501J-158*
X439501Y224842I0J8502*
G37*
G36*
X376996Y218774D02*
G03X371000Y224502I-5996J-274D01*
X365004Y218226I0J-6002*
X371000Y212498I5996J274*
X376996Y218774I0J6002*
G37*
G36*
X356996D02*
G03X351000Y224502I-5996J-274D01*
X345004Y218226I0J-6002*
X351000Y212498I5996J274*
X356996Y218774I0J6002*
G37*
G36*
X257002Y228000D02*
G03X251000Y234002I-6002J0D01*
X246312Y231748I0J-6002*
G02X246000Y231598I-312J250*
X245688Y231748I0J400*
G03X241000Y234002I-4688J-3748*
X234998Y228000I0J-6002*
X241000Y221998I6002J0*
X245688Y224252I0J6002*
G02X246000Y224402I312J-250*
X246312Y224252I0J-400*
G03X251000Y221998I4688J3748*
X257002Y228000I0J6002*
G37*
G36*
X227002D02*
G03X221000Y234002I-6002J0D01*
X217375Y232784I0J-6003*
G02X217133Y232703I-241J319*
X216778Y232919I0J400*
G03X215000Y234002I-1778J-918*
G01X207000*
G03X204998Y232000I0J-2002*
G01Y224000*
G03X207000Y221998I2002*
G01X215000*
G03X216778Y223081I0J2001*
G02X217133Y223297I355J-184*
X217375Y223216I1J-400*
G03X221000Y221998I3625J4785*
X227002Y228000I0J6002*
G37*
G36*
X22501Y226842D02*
G03X14000Y235502I-8501J158D01*
X5499Y227158I0J-8502*
X14000Y218498I8501J-158*
X22501Y226842I0J8502*
G37*
G36*
X326840Y24229D02*
G03X319842Y31002I-6998J-229D01*
X312844Y23771I0J-7002*
X319842Y16998I6998J229*
X326840Y24229I0J7002*
G37*
%LPD*%
G36*
X183000Y171500D02*
G01X175000D01*
X173500Y173000*
Y196000*
X175000Y197500*
X183000*
X184500Y196000*
Y173000*
X183000Y171500*
G37*
G54D28*
X13000Y14000D03*
X14000Y227000D03*
X428000Y13000D03*
X431000Y225000D03*
G54D26*
X199842Y24000D03*
X239842D03*
X279842D03*
X319842D03*
X426000Y57000D03*
Y76685D03*
Y117000D03*
Y136685D03*
Y177000D03*
Y196685D03*
G54D21*
X17000Y64000D03*
X15500Y89500D03*
X17000Y84000D03*
X15500Y117500D03*
X16000Y146500D03*
X37000Y64000D03*
X28500Y114500D03*
X57000Y24000D03*
X77000D03*
X57000Y64000D03*
X77000D03*
X57000Y44000D03*
X67705Y70795D03*
X65000Y106500D03*
X73000D03*
X65000Y99500D03*
X73000D03*
X80000Y110500D03*
X53000Y153000D03*
X61500D03*
X52500Y145000D03*
X70000Y160000D03*
X53000D03*
X61500D03*
X97000Y24000D03*
X81000Y73000D03*
X99000Y139000D03*
X107500Y129500D03*
X85000Y191000D03*
X117000Y24000D03*
X137000D03*
X117000Y64000D03*
X137000D03*
X117000Y91000D03*
Y79000D03*
X137000D03*
X131500Y110500D03*
X111500Y117500D03*
X112500Y129500D03*
X117500D03*
X122500D03*
X112500Y150500D03*
X160500Y81000D03*
X143000Y154000D03*
X152000Y148000D03*
X157000Y147000D03*
X156333Y154667D03*
X160000Y132000D03*
X169671Y163329D03*
X164000Y178000D03*
X157000Y171500D03*
X145000Y162500D03*
X141500Y213000D03*
Y231500D03*
X174000Y67000D03*
X183000Y112000D03*
X193000Y111000D03*
X187000Y151000D03*
X171000Y150000D03*
X173000Y137000D03*
X190142Y166000D03*
X190000Y159000D03*
X179000Y175000D03*
X190000Y194000D03*
X174500Y213000D03*
X182000Y195000D03*
X176000Y191000D03*
X174500Y232000D03*
X221000Y67000D03*
X223000Y90000D03*
X213000Y111250D03*
X203000Y111000D03*
X229000Y135000D03*
X207858Y141000D03*
X206000Y153000D03*
X217400Y139300D03*
X206000Y162500D03*
X228000Y172450D03*
X232000Y77000D03*
X248500Y113500D03*
X255000D03*
X233000Y162000D03*
X265000Y67000D03*
X264000Y117000D03*
X275000Y123000D03*
X277898Y154398D03*
X287000Y154000D03*
Y174000D03*
X286697Y206197D03*
X287000Y194000D03*
X282000Y234000D03*
Y224000D03*
X301189Y48189D03*
X313000Y65000D03*
X318000Y117500D03*
X300000Y118000D03*
X317500Y104500D03*
X312000Y154000D03*
Y174000D03*
X316224Y207276D03*
X306382Y206618D03*
X296539Y206539D03*
X291618Y206118D03*
X312000Y194000D03*
X291500Y220000D03*
X316500Y220500D03*
X328000Y51000D03*
X344500Y89500D03*
X325000Y74000D03*
X332000Y119000D03*
X347000D03*
X322000Y111500D03*
X320500Y140500D03*
X345500Y163500D03*
X320500Y174083D03*
X336732Y193768D03*
X337000Y201500D03*
X322000Y234000D03*
Y224000D03*
X358000Y23000D03*
X367000Y41800D03*
Y104000D03*
X379000Y159000D03*
X392000Y24000D03*
X381000Y89000D03*
X401983Y84983D03*
X382000Y119000D03*
Y104000D03*
X401983Y141983D03*
X382000Y134000D03*
X381000Y233000D03*
G54D72*
X42950Y41000D03*
X141050D03*
G54D29*
X180158Y24000D03*
X220158D03*
X260158D03*
X300158D03*
X426000Y37315D03*
Y97315D03*
Y157315D03*
G54D27*
X193000Y120000D03*
Y114000D03*
X213000Y120000D03*
Y114000D03*
X201000Y120000D03*
Y114000D03*
G54D19*
X35500Y213800D03*
G54D22*
X249000Y215000D03*
G54D71*
X54000Y202000D03*
G54D22*
X266000Y88000D03*
G54D70*
X54000Y225600D03*
G54D25*
X311894Y231000D03*
X291106D03*
G54D20*
X75650Y35400D03*
X81100Y46600D03*
X70200D03*
X108350Y35400D03*
X97450D03*
X86550D03*
X102900Y46600D03*
X92000D03*
X221000Y228000D03*
X231000D03*
X249000Y145000D03*
Y155000D03*
Y165000D03*
Y175000D03*
Y185000D03*
Y195000D03*
Y205000D03*
X241000Y228000D03*
X251000D03*
X286000Y88000D03*
X276000D03*
X351000Y17500D03*
Y72500D03*
Y89500D03*
Y144500D03*
Y163500D03*
Y218500D03*
X371000Y17500D03*
Y72500D03*
Y89500D03*
Y144500D03*
Y163500D03*
Y218500D03*
G54D23*
X106205Y202000D03*
G54D22*
X113800Y46600D03*
X211000Y228000D03*
G54D24*
X121795Y202000D03*
G54D73*
X50000Y147000D02*
G01X52000Y149000D01*
X73000*
X193000Y120000D02*
G01Y127000D01*
X197884Y131884*
Y147000*
X193000Y120000D02*
G01X201000D01*
X193000Y111000D02*
G01Y114000D01*
X197884Y147000D02*
G01Y168558D01*
Y147000D02*
G01X209700D01*
X217400Y139300*
X197884Y147000D02*
G01X193647D01*
X188947Y142300*
X185053*
X180353Y147000*
X177000*
X173000Y143000*
Y137000*
X197884Y168558D02*
G01X191442Y175000D01*
X179000*
X197884Y168558D02*
G01X224108D01*
X228000Y172450*
X223000Y90000D02*
G01Y116000D01*
X219000Y120000*
X213000*
X201000D02*
G01X213000D01*
Y111250D02*
G01Y114000D01*
X203000Y111000D02*
G01Y112000D01*
X201000Y114000*
X255000Y113500D02*
G01Y119000D01*
X233500Y140500*
X222800*
X221600Y139300*
X217400*
X328000Y51000D02*
G01X332700Y55700D01*
Y76800*
X327500Y82000*
Y106000*
X322000Y111500*
G54D15*
X2000Y239000D02*
G01Y2000D01*
X443000*
Y239000*
X2000*
X0Y0D02*
G01Y241000D01*
X445000*
Y0*
X0*
X287720Y223126D02*
G01X315280D01*
Y238874*
X287720*
Y223126*
G54D12*
X171000Y150000D02*
G01Y146900D01*
X168500Y144400*
Y140500*
X160000Y132000*
X264000Y117000D02*
G01X269000D01*
X275000Y123000*
X313000Y65000D02*
G01Y49000D01*
X323000Y39000*
X335500*
X354000Y57500*
X373000*
X392000Y76500*
Y143000*
X426000Y177000*
Y117000D02*
G01X417000D01*
X408500Y108500*
Y71500*
X378800Y41800*
X367000*
M02*
