G04 CAM350/DFMSTREAM V12.1 (Build 1022) Date:  Mon Jun 22 15:47:33 2020 *
G04 Database: (Untitled) *
G04 Layer 8: RAK4600_v100_SILK_BOTTOM.art *
%FSLAX25Y25*%
%MOIN*%
%SFA1.000B1.000*%

%MIA0B0*%
%IPPOS*%
%ADD11C,0.00600*%
%ADD12C,0.00800*%
%LNRAK4600_v100_SILK_BOTTOM.art*%
%LPD*%
G36*
X431004Y215009D02*
G01Y217509D01*
G75*
G03X438504Y225009I0J7500*
G01X441004*
G02X431004Y215009I-10000*
G37*
G36*
X428004Y3009D02*
G01Y5509D01*
G03X435504Y13009I0J7500*
G01X438004*
G02X428004Y3009I-10000*
G37*
G36*
X421004Y225009D02*
G02X431004Y235009I10000J0D01*
G01Y232509*
G03X423504Y225009I0J-7500*
G01X421004*
G37*
G36*
X418004Y13009D02*
G02X428004Y23009I10000J0D01*
G01Y20509*
G03X420504Y13009I0J-7500*
G01X418004*
G37*
G36*
X14004Y217009D02*
G01Y219509D01*
G03X21504Y227009J7500*
G01X24004*
G02X14004Y217009I-10000*
G37*
G36*
X13004Y4009D02*
G01Y6509D01*
G03X20504Y14009J7500*
G01X23004*
G02X13004Y4009I-10000*
G37*
G36*
X4004Y227009D02*
G02X14004Y237009I10000J0D01*
G01Y234509*
G03X6504Y227009I0J-7500*
G01X4004*
G37*
G36*
X3004Y14009D02*
G02X13004Y24009I10000J0D01*
G01Y21509*
G03X5504Y14009I0J-7500*
G01X3004*
G37*
G54D11*
X2000Y239000D02*
G01Y2000D01*
X443000*
Y239000*
X2000*
X0Y0D02*
G01Y241000D01*
X445000*
Y0*
X0*
X23304Y14009D02*
G03X23304Y14009I-10300D01*
X24304Y227009D02*
G03X24304Y227009I-10300D01*
X287720Y223126D02*
G01X315280D01*
Y238874*
X287720*
Y223126*
X438304Y13009D02*
G03X438304Y13009I-10300D01*
X441304Y225009D02*
G03X441304Y225009I-10300D01*
X190500Y122500D02*
G01Y118000D01*
X191900Y117400D02*
G01X194200D01*
X191900Y116700D02*
G01X194200D01*
X195500Y118000D02*
G01Y122500D01*
X190500*
Y116000D02*
G01Y111500D01*
X195500*
Y116000*
X210500Y122500D02*
G01Y118000D01*
X211900Y117400D02*
G01X214200D01*
X211900Y116700D02*
G01X214200D01*
X215500Y118000D02*
G01Y122500D01*
X210500*
Y116000D02*
G01Y111500D01*
X215500*
Y116000*
X198500Y122500D02*
G01Y118000D01*
X199900Y117400D02*
G01X202200D01*
X199900Y116700D02*
G01X202200D01*
X203500Y118000D02*
G01Y122500D01*
X198500*
Y116000D02*
G01Y111500D01*
X203500*
Y116000*
G54D12*
X17767Y26000D02*
G01Y30000D01*
X16250Y26667*
X14733Y30000*
Y26000*
X13375D02*
G01Y30000D01*
X10925D02*
G01Y26000D01*
Y28000D02*
G01X13375D01*
X9158Y29333D02*
G01X8808Y29733D01*
X8400Y29933*
X7933Y30000*
X7350Y29867*
X6942Y29533*
X6825Y29133*
X6883Y28733*
X7117Y28400*
X8283Y27733*
X8808Y27267*
X9158Y26600*
X9275Y26000*
X6825*
X14767Y210000D02*
G01Y214000D01*
X13250Y210667*
X11733Y214000*
Y210000*
X10375D02*
G01Y214000D01*
X7925D02*
G01Y210000D01*
Y212000D02*
G01X10375D01*
X5050Y210000D02*
G01Y214000D01*
X5750Y213200*
Y210000D02*
G01X4350D01*
X105475Y7533D02*
G01X105008Y7200D01*
X104483Y7000*
X104017*
X103550Y7200*
X103200Y7533*
X103025Y8000*
X103142Y8467*
X103433Y8867*
X103958Y9133*
X104658Y9267*
X105067Y9533*
X105242Y10000*
X105125Y10467*
X104833Y10800*
X104425Y11000*
X104017*
X103608Y10867*
X103258Y10533*
X99800Y9000D02*
G01X98633D01*
Y7800*
X98983Y7400*
X99392Y7133*
X99975Y7000*
X100558Y7133*
X100967Y7400*
X101317Y7800*
X101550Y8267*
X101667Y8800*
Y9267*
X101550Y9667*
X101317Y10133*
X100967Y10533*
X100617Y10800*
X100150Y11000*
X99742*
X99275Y10867*
X98925Y10600*
X97392Y7000D02*
G01Y11000D01*
X94708Y7000*
Y11000*
X93233Y7000D02*
G01Y11000D01*
X92067*
X91600Y10800*
X91250Y10533*
X90958Y10133*
X90725Y9667*
X90667Y9000*
X90725Y8333*
X90958Y7867*
X91250Y7467*
X91600Y7200*
X92067Y7000*
X93233*
X184475Y9533D02*
G01X184008Y9200D01*
X183483Y9000*
X183017*
X182550Y9200*
X182200Y9533*
X182025Y10000*
X182142Y10467*
X182433Y10867*
X182958Y11133*
X183658Y11267*
X184067Y11533*
X184242Y12000*
X184125Y12467*
X183833Y12800*
X183425Y13000*
X183017*
X182608Y12867*
X182258Y12533*
X180900Y13000D02*
G01X180083Y9000D01*
X179150Y13000*
X178217Y9000*
X177400Y13000*
X175050Y9000D02*
G01Y13000D01*
X175750Y12200*
Y9000D02*
G01X174350D01*
X201250Y13000D02*
G01X201717Y12867D01*
X202067Y12533*
X202300Y12133*
X202475Y11600*
X202533Y11000*
X202475Y10400*
X202300Y9867*
X202067Y9467*
X201717Y9133*
X201250Y9000*
X200783Y9133*
X200433Y9467*
X200200Y9867*
X200025Y10400*
X199967Y11000*
X200025Y11600*
X200200Y12133*
X200433Y12533*
X200783Y12867*
X201250Y13000*
X198433Y9800D02*
G01X198083Y9333D01*
X197617Y9067*
X197092Y9000*
X196625Y9067*
X196158Y9400*
X195867Y9800*
X195808Y10200*
X195925Y10667*
X196333Y11000*
X196742Y11133*
X197267*
X196742D02*
G01X196392Y11333D01*
X196100Y11667*
X195983Y12067*
X196100Y12467*
X196392Y12800*
X196917Y13000*
X197442Y12933*
X197967Y12667*
X194034Y109452D02*
G01X191044D01*
Y108206*
X191194Y107807*
X191393Y107558*
X191792Y107458*
X192190Y107558*
X192439Y107857*
X192589Y108206*
Y109452*
Y108206D02*
G01X194034Y107458D01*
X191542Y105432D02*
G01X191243Y105133D01*
X191094Y104784*
X191044Y104385*
X191144Y103887*
X191393Y103538*
X191692Y103438*
X191991Y103488*
X192240Y103688*
X192738Y104684*
X193087Y105133*
X193586Y105432*
X194034Y105532*
Y103438*
X193586Y101611D02*
G01X193835Y101312D01*
X193984Y100964*
X194034Y100515*
X193934Y100066*
X193735Y99718*
X193386Y99468*
X192988Y99419*
X192589Y99518*
X192340Y99768*
X192140Y100116*
X192091Y100465*
X192140Y100814*
X192340Y101262*
X191044Y101113*
Y99768*
X225475Y9533D02*
G01X225008Y9200D01*
X224483Y9000*
X224017*
X223550Y9200*
X223200Y9533*
X223025Y10000*
X223142Y10467*
X223433Y10867*
X223958Y11133*
X224658Y11267*
X225067Y11533*
X225242Y12000*
X225125Y12467*
X224833Y12800*
X224425Y13000*
X224017*
X223608Y12867*
X223258Y12533*
X221900Y13000D02*
G01X221083Y9000D01*
X220150Y13000*
X219217Y9000*
X218400Y13000*
X217158Y12333D02*
G01X216808Y12733D01*
X216400Y12933*
X215933Y13000*
X215350Y12867*
X214942Y12533*
X214825Y12133*
X214883Y11733*
X215117Y11400*
X216283Y10733*
X216808Y10267*
X217158Y9600*
X217275Y9000*
X214825*
X214034Y109452D02*
G01X211044D01*
Y108206*
X211194Y107807*
X211393Y107558*
X211792Y107458*
X212190Y107558*
X212439Y107857*
X212589Y108206*
Y109452*
Y108206D02*
G01X214034Y107458D01*
X211542Y105432D02*
G01X211243Y105133D01*
X211094Y104784*
X211044Y104385*
X211144Y103887*
X211393Y103538*
X211692Y103438*
X211991Y103488*
X212240Y103688*
X212738Y104684*
X213087Y105133*
X213586Y105432*
X214034Y105532*
Y103438*
X213436Y101611D02*
G01X213785Y101312D01*
X213984Y100914*
X214034Y100465*
X213984Y100066*
X213735Y99668*
X213436Y99419*
X213137Y99369*
X212788Y99468*
X212539Y99817*
X212439Y100166*
Y100615*
Y100166D02*
G01X212290Y99867D01*
X212041Y99618*
X211742Y99518*
X211443Y99618*
X211194Y99867*
X211044Y100316*
X211094Y100764*
X211293Y101213*
X202034Y109452D02*
G01X199044D01*
Y108206*
X199194Y107807*
X199393Y107558*
X199792Y107458*
X200190Y107558*
X200439Y107857*
X200589Y108206*
Y109452*
Y108206D02*
G01X202034Y107458D01*
X199542Y105432D02*
G01X199243Y105133D01*
X199094Y104784*
X199044Y104385*
X199144Y103887*
X199393Y103538*
X199692Y103438*
X199991Y103488*
X200240Y103688*
X200738Y104684*
X201087Y105133*
X201586Y105432*
X202034Y105532*
Y103438*
Y99917D02*
G01X199044D01*
X201187Y101761*
Y99269*
X264417Y9000D02*
G01Y13000D01*
X263017*
X262550Y12800*
X262200Y12333*
X262083Y11800*
X262200Y11267*
X262492Y10867*
X263017Y10667*
X264417*
X260317Y13000D02*
G01Y9000D01*
X257983*
X256275Y9533D02*
G01X255808Y9200D01*
X255283Y9000*
X254817*
X254350Y9200*
X254000Y9533*
X253825Y10000*
X253942Y10467*
X254233Y10867*
X254758Y11133*
X255458Y11267*
X255867Y11533*
X256042Y12000*
X255925Y12467*
X255633Y12800*
X255225Y13000*
X254817*
X254408Y12867*
X254058Y12533*
X241250Y13000D02*
G01X241717Y12867D01*
X242067Y12533*
X242300Y12133*
X242475Y11600*
X242533Y11000*
X242475Y10400*
X242300Y9867*
X242067Y9467*
X241717Y9133*
X241250Y9000*
X240783Y9133*
X240433Y9467*
X240200Y9867*
X240025Y10400*
X239967Y11000*
X240025Y11600*
X240200Y12133*
X240433Y12533*
X240783Y12867*
X241250Y13000*
X238258Y12333D02*
G01X237908Y12733D01*
X237500Y12933*
X237033Y13000*
X236450Y12867*
X236042Y12533*
X235925Y12133*
X235983Y11733*
X236217Y11400*
X237383Y10733*
X237908Y10267*
X238258Y9600*
X238375Y9000*
X235925*
X281250Y13000D02*
G01X281717Y12867D01*
X282067Y12533*
X282300Y12133*
X282475Y11600*
X282533Y11000*
X282475Y10400*
X282300Y9867*
X282067Y9467*
X281717Y9133*
X281250Y9000*
X280783Y9133*
X280433Y9467*
X280200Y9867*
X280025Y10400*
X279967Y11000*
X280025Y11600*
X280200Y12133*
X280433Y12533*
X280783Y12867*
X281250Y13000*
X277150Y9000D02*
G01Y13000D01*
X277850Y12200*
Y9000D02*
G01X276450D01*
X306767D02*
G01Y13000D01*
X305250Y9667*
X303733Y13000*
Y9000*
X300683Y11133D02*
G01X300450Y11333D01*
X300275Y11667*
X300158Y12133*
X300275Y12533*
X300508Y12800*
X300917Y13000*
X302492*
Y9000*
X300567*
X300158Y9267*
X299925Y9667*
X299808Y10133*
X299925Y10600*
X300275Y11000*
X300683Y11133*
X302492*
X298800Y7667D02*
G01X295300D01*
X294408Y9000D02*
G01X292950Y13000D01*
X291492Y9000*
X292017Y10400D02*
G01X293883D01*
X326767Y9000D02*
G01Y13000D01*
X325250Y9667*
X323733Y13000*
Y9000*
X320683Y11133D02*
G01X320450Y11333D01*
X320275Y11667*
X320158Y12133*
X320275Y12533*
X320508Y12800*
X320917Y13000*
X322492*
Y9000*
X320567*
X320158Y9267*
X319925Y9667*
X319808Y10133*
X319925Y10600*
X320275Y11000*
X320683Y11133*
X322492*
X318800Y7667D02*
G01X315300D01*
X312483Y11133D02*
G01X312250Y11333D01*
X312075Y11667*
X311958Y12133*
X312075Y12533*
X312308Y12800*
X312717Y13000*
X314292*
Y9000*
X312367*
X311958Y9267*
X311725Y9667*
X311608Y10133*
X311725Y10600*
X312075Y11000*
X312483Y11133*
X314292*
X417767Y227000D02*
G01Y231000D01*
X416250Y227667*
X414733Y231000*
Y227000*
X413375D02*
G01Y231000D01*
X410925D02*
G01Y227000D01*
Y229000D02*
G01X413375D01*
X407350Y227000D02*
G01Y231000D01*
X409508Y228133*
X406592*
X429927Y25030D02*
G01Y29030D01*
X428410Y25697*
X426893Y29030*
Y25030*
X425535D02*
G01Y29030D01*
X423085D02*
G01Y25030D01*
Y27030D02*
G01X425535D01*
X421493Y25830D02*
G01X421143Y25363D01*
X420677Y25097*
X420152Y25030*
X419685Y25097*
X419218Y25430*
X418927Y25830*
X418868Y26230*
X418985Y26697*
X419393Y27030*
X419802Y27163*
X420327*
X419802D02*
G01X419452Y27363D01*
X419160Y27697*
X419043Y28097*
X419160Y28497*
X419452Y28830*
X419977Y29030*
X420502Y28963*
X421027Y28697*
X438000Y61708D02*
G01X434000Y60250D01*
X438000Y58792*
X436600Y59317D02*
G01Y61183D01*
X438000Y57433D02*
G01X434000D01*
Y56267*
X434200Y55800*
X434467Y55450*
X434867Y55158*
X435333Y54925*
X436000Y54867*
X436667Y54925*
X437133Y55158*
X437533Y55450*
X437800Y55800*
X438000Y56267*
Y57433*
X434333Y50767D02*
G01X434133Y51117D01*
X434000Y51525*
Y51992*
X434200Y52517*
X434533Y52925*
X434933Y53217*
X435600Y53450*
X436200Y53508*
X436800Y53392*
X437200Y53217*
X437600Y52867*
X437867Y52458*
X438000Y52050*
Y51642*
X437867Y51233*
X437667Y50883*
X437400Y50592*
X438000Y47950D02*
G01X434000D01*
X434800Y48650*
X438000D02*
G01Y47250D01*
X437400Y42533D02*
G01X437733Y42183D01*
X437933Y41775*
X438000Y41250*
X437867Y40725*
X437600Y40317*
X437133Y40025*
X436600Y39967*
X436067Y40083*
X435733Y40375*
X435467Y40783*
X435400Y41192*
X435467Y41600*
X435733Y42125*
X434000Y41950*
Y40375*
Y38608D02*
G01X438000Y37150D01*
X434000Y35692*
X436000Y79900D02*
G01Y78733D01*
X437200*
X437600Y79083*
X437867Y79492*
X438000Y80075*
X437867Y80658*
X437600Y81067*
X437200Y81417*
X436733Y81650*
X436200Y81767*
X435733*
X435333Y81650*
X434867Y81417*
X434467Y81067*
X434200Y80717*
X434000Y80250*
Y79842*
X434133Y79375*
X434400Y79025*
X438000Y77492D02*
G01X434000D01*
X438000Y74808*
X434000*
X438000Y73333D02*
G01X434000D01*
Y72167*
X434200Y71700*
X434467Y71350*
X434867Y71058*
X435333Y70825*
X436000Y70767*
X436667Y70825*
X437133Y71058*
X437533Y71350*
X437800Y71700*
X438000Y72167*
Y73333*
Y123708D02*
G01X434000Y122250D01*
X438000Y120792*
X436600Y121317D02*
G01Y123183D01*
X438000Y119433D02*
G01X434000D01*
Y118267*
X434200Y117800*
X434467Y117450*
X434867Y117158*
X435333Y116925*
X436000Y116867*
X436667Y116925*
X437133Y117158*
X437533Y117450*
X437800Y117800*
X438000Y118267*
Y119433*
X434333Y112767D02*
G01X434133Y113117D01*
X434000Y113525*
Y113992*
X434200Y114517*
X434533Y114925*
X434933Y115217*
X435600Y115450*
X436200Y115508*
X436800Y115392*
X437200Y115217*
X437600Y114867*
X437867Y114458*
X438000Y114050*
Y113642*
X437867Y113233*
X437667Y112883*
X437400Y112592*
X434667Y111058D02*
G01X434267Y110708D01*
X434067Y110300*
X434000Y109833*
X434133Y109250*
X434467Y108842*
X434867Y108725*
X435267Y108783*
X435600Y109017*
X436267Y110183*
X436733Y110708*
X437400Y111058*
X438000Y111175*
Y108725*
X437400Y102533D02*
G01X437733Y102183D01*
X437933Y101775*
X438000Y101250*
X437867Y100725*
X437600Y100317*
X437133Y100025*
X436600Y99967*
X436067Y100083*
X435733Y100375*
X435467Y100783*
X435400Y101192*
X435467Y101600*
X435733Y102125*
X434000Y101950*
Y100375*
Y98608D02*
G01X438000Y97150D01*
X434000Y95692*
X437200Y162533D02*
G01X437667Y162183D01*
X437933Y161717*
X438000Y161192*
X437933Y160725*
X437600Y160258*
X437200Y159967*
X436800Y159908*
X436333Y160025*
X436000Y160433*
X435867Y160842*
Y161367*
Y160842D02*
G01X435667Y160492D01*
X435333Y160200*
X434933Y160083*
X434533Y160200*
X434200Y160492*
X434000Y161017*
X434067Y161542*
X434333Y162067*
X434000Y158608D02*
G01X438000Y157150D01*
X434000Y155692*
X437200Y154333D02*
G01X437667Y153983D01*
X437933Y153517*
X438000Y152992*
X437933Y152525*
X437600Y152058*
X437200Y151767*
X436800Y151708*
X436333Y151825*
X436000Y152233*
X435867Y152642*
Y153167*
Y152642D02*
G01X435667Y152292D01*
X435333Y152000*
X434933Y151883*
X434533Y152000*
X434200Y152292*
X434000Y152817*
X434067Y153342*
X434333Y153867*
X436000Y139900D02*
G01Y138733D01*
X437200*
X437600Y139083*
X437867Y139492*
X438000Y140075*
X437867Y140658*
X437600Y141067*
X437200Y141417*
X436733Y141650*
X436200Y141767*
X435733*
X435333Y141650*
X434867Y141417*
X434467Y141067*
X434200Y140717*
X434000Y140250*
Y139842*
X434133Y139375*
X434400Y139025*
X438000Y137492D02*
G01X434000D01*
X438000Y134808*
X434000*
X438000Y133333D02*
G01X434000D01*
Y132167*
X434200Y131700*
X434467Y131350*
X434867Y131058*
X435333Y130825*
X436000Y130767*
X436667Y130825*
X437133Y131058*
X437533Y131350*
X437800Y131700*
X438000Y132167*
Y133333*
Y183250D02*
G01X434000D01*
X434800Y183950*
X438000D02*
G01Y182550D01*
X434000Y180900D02*
G01X438000Y180083D01*
X434000Y179150*
X438000Y178217*
X434000Y177400*
X435333Y175050D02*
G01X438000D01*
X434267D02*
G01X434200Y175167D01*
X434067*
X434000Y175050*
X434067Y174933*
X434200*
X434267Y175050*
X438000Y171767D02*
G01X435333D01*
X435867D02*
G01X435600Y171475D01*
X435400Y171183*
X435333Y170775*
X435400Y170483*
X435600Y170133*
X436200Y167725D02*
G01Y165858D01*
X435733Y166033*
X435467Y166325*
X435333Y166733*
X435400Y167142*
X435600Y167492*
X436067Y167725*
X436467Y167842*
X436867*
X437267Y167725*
X437667Y167433*
X437933Y167083*
X438000Y166675*
X437867Y166267*
X437467Y165858*
X436000Y198900D02*
G01Y197733D01*
X437200*
X437600Y198083*
X437867Y198492*
X438000Y199075*
X437867Y199658*
X437600Y200067*
X437200Y200417*
X436733Y200650*
X436200Y200767*
X435733*
X435333Y200650*
X434867Y200417*
X434467Y200067*
X434200Y199717*
X434000Y199250*
Y198842*
X434133Y198375*
X434400Y198025*
X438000Y196492D02*
G01X434000D01*
X438000Y193808*
X434000*
X438000Y192333D02*
G01X434000D01*
Y191167*
X434200Y190700*
X434467Y190350*
X434867Y190058*
X435333Y189825*
X436000Y189767*
X436667Y189825*
X437133Y190058*
X437533Y190350*
X437800Y190700*
X438000Y191167*
Y192333*
M02*
