G04 CAM350/DFMSTREAM V12.1 (Build 1022) Date:  Mon Jun 22 15:47:33 2020 *
G04 Database: (Untitled) *
G04 Layer 10: RAK4600_v100_SMASK_BOTTOM.art *
%FSLAX25Y25*%
%MOIN*%
%SFA1.000B1.000*%

%MIA0B0*%
%IPPOS*%
%ADD15C,0.00500*%
%ADD74O,0.07400X0.15400*%
%ADD75O,0.15400X0.07400*%
%ADD76O,0.18400X0.07400*%
%ADD77C,0.09000*%
%ADD78C,0.04800*%
%ADD79C,0.08500*%
%ADD80R,0.09000X0.09000*%
%ADD81C,0.08800*%
%ADD82R,0.05512X0.16535*%
%ADD83R,0.08800X0.08800*%
%ADD84O,0.13000X0.17000*%
%ADD85R,0.13000X0.17000*%
%ADD86C,0.11000*%
%ADD87C,0.14000*%
%ADD88R,0.03800X0.04100*%
%ADD89R,0.11000X0.11000*%
%ADD90C,0.18500*%
%ADD91R,0.08500X0.08500*%
%LNRAK4600_v100_SMASK_BOTTOM.art*%
%LPD*%
G54D87*
X13000Y14000D03*
X14000Y227000D03*
X428000Y13000D03*
X431000Y225000D03*
G54D86*
X199842Y24000D03*
X239842D03*
X279842D03*
X319842D03*
X426000Y57000D03*
Y76685D03*
Y117000D03*
Y136685D03*
Y177000D03*
Y196685D03*
G54D78*
X17000Y64000D03*
X15500Y89500D03*
X17000Y84000D03*
X15500Y117500D03*
X16000Y146500D03*
X37000Y64000D03*
X28500Y114500D03*
X57000Y24000D03*
X77000D03*
X57000Y64000D03*
X77000D03*
X57000Y44000D03*
X67705Y70795D03*
X65000Y106500D03*
X73000D03*
X65000Y99500D03*
X73000D03*
X80000Y110500D03*
X53000Y153000D03*
X61500D03*
X52500Y145000D03*
X70000Y160000D03*
X53000D03*
X61500D03*
X97000Y24000D03*
X81000Y73000D03*
X99000Y139000D03*
X107500Y129500D03*
X85000Y191000D03*
X117000Y24000D03*
X137000D03*
X117000Y64000D03*
X137000D03*
X117000Y91000D03*
Y79000D03*
X137000D03*
X131500Y110500D03*
X111500Y117500D03*
X112500Y129500D03*
X117500D03*
X122500D03*
X112500Y150500D03*
X160500Y81000D03*
X143000Y154000D03*
X152000Y148000D03*
X157000Y147000D03*
X156333Y154667D03*
X160000Y132000D03*
X169671Y163329D03*
X164000Y178000D03*
X157000Y171500D03*
X145000Y162500D03*
X141500Y213000D03*
Y231500D03*
X174000Y67000D03*
X183000Y112000D03*
X193000Y111000D03*
X187000Y151000D03*
X171000Y150000D03*
X173000Y137000D03*
X190142Y166000D03*
X190000Y159000D03*
X179000Y175000D03*
X190000Y194000D03*
X174500Y213000D03*
X182000Y195000D03*
X176000Y191000D03*
X174500Y232000D03*
X221000Y67000D03*
X223000Y90000D03*
X213000Y111250D03*
X203000Y111000D03*
X229000Y135000D03*
X207858Y141000D03*
X206000Y153000D03*
X217400Y139300D03*
X206000Y162500D03*
X228000Y172450D03*
X232000Y77000D03*
X248500Y113500D03*
X255000D03*
X233000Y162000D03*
X265000Y67000D03*
X264000Y117000D03*
X275000Y123000D03*
X277898Y154398D03*
X287000Y154000D03*
Y174000D03*
X286697Y206197D03*
X287000Y194000D03*
X282000Y234000D03*
Y224000D03*
X301189Y48189D03*
X313000Y65000D03*
X318000Y117500D03*
X300000Y118000D03*
X317500Y104500D03*
X312000Y154000D03*
Y174000D03*
X316224Y207276D03*
X306382Y206618D03*
X296539Y206539D03*
X291618Y206118D03*
X312000Y194000D03*
X291500Y220000D03*
X316500Y220500D03*
X328000Y51000D03*
X344500Y89500D03*
X325000Y74000D03*
X332000Y119000D03*
X347000D03*
X322000Y111500D03*
X320500Y140500D03*
X345500Y163500D03*
X320500Y174083D03*
X336732Y193768D03*
X337000Y201500D03*
X322000Y234000D03*
Y224000D03*
X358000Y23000D03*
X367000Y41800D03*
Y104000D03*
X379000Y159000D03*
X392000Y24000D03*
X381000Y89000D03*
X401983Y84983D03*
X382000Y119000D03*
Y104000D03*
X401983Y141983D03*
X382000Y134000D03*
X381000Y233000D03*
G54D90*
X42950Y41000D03*
X141050D03*
G54D89*
X180158Y24000D03*
X220158D03*
X260158D03*
X300158D03*
X426000Y37315D03*
Y97315D03*
Y157315D03*
G54D88*
X193000Y120000D03*
Y114000D03*
X213000Y120000D03*
Y114000D03*
X201000Y120000D03*
Y114000D03*
G54D74*
X35500Y213800D03*
G54D80*
X211000Y228000D03*
G54D76*
X54000Y202000D03*
G54D77*
X221000Y228000D03*
X231000D03*
X241000D03*
X251000D03*
G54D75*
X54000Y225600D03*
G54D81*
X75650Y35400D03*
X81100Y46600D03*
X70200D03*
X108350Y35400D03*
X97450D03*
X86550D03*
X102900Y46600D03*
X92000D03*
G54D79*
X249000Y145000D03*
Y155000D03*
Y165000D03*
Y175000D03*
Y185000D03*
Y195000D03*
Y205000D03*
X286000Y88000D03*
X276000D03*
G54D91*
X249000Y215000D03*
G54D84*
X106205Y202000D03*
G54D91*
X266000Y88000D03*
G54D83*
X113800Y46600D03*
G54D85*
X121795Y202000D03*
G54D82*
X311894Y231000D03*
X291106D03*
G54D15*
X2000Y239000D02*
G01Y2000D01*
X443000*
Y239000*
X2000*
X0Y0D02*
G01Y241000D01*
X445000*
Y0*
X0*
X287720Y223126D02*
G01X315280D01*
Y238874*
X287720*
Y223126*
M02*
