G04 CAM350/DFMSTREAM V12.1 (Build 1022) Date:  Mon Jun 22 15:47:33 2020 *
G04 Database: (Untitled) *
G04 Layer 9: RAK4600_v100_SILK_TOP.art *
%FSLAX25Y25*%
%MOIN*%
%SFA1.000B1.000*%

%MIA0B0*%
%IPPOS*%
%ADD11C,0.00600*%
%ADD12C,0.00800*%
%ADD13C,0.01000*%
%ADD14C,0.00200*%
%ADD15C,0.00500*%
%ADD16C,0.00394*%
%ADD17C,0.00984*%
%ADD18C,0.00787*%
%ADD69C,0.00197*%
%LNRAK4600_v100_SILK_TOP.art*%
%LPD*%
G36*
X63592Y72514D02*
G75*
G02X64175Y73188I681J0D01*
X64954Y72514I98J-674*
X64371Y71840I-681J0*
X63592Y72514I-98J674*
G37*
G36*
X178528Y168173D02*
G01X182465D01*
X180496Y166205*
X178528Y168173*
G37*
G36*
X282460Y54425D02*
G02X283740Y55833I1414J0D01*
X285288Y54425I134J-1408*
X284008Y53017I-1414J0*
X282460Y54425I-134J1408*
G37*
G36*
X237460D02*
G02X238740Y55833I1414J0D01*
X240288Y54425I134J-1408*
X239008Y53017I-1414J0*
X237460Y54425I-134J1408*
G37*
G36*
X192460D02*
G02X193740Y55833I1414J0D01*
X195288Y54425I134J-1408*
X194008Y53017I-1414J0*
X192460Y54425I-134J1408*
G37*
G36*
X333646Y139472D02*
G01X336402Y142228D01*
Y136717*
X333646Y139472*
G37*
G36*
X436000Y191842D02*
G01Y201842D01*
X441000*
Y191842*
X436000*
G37*
G36*
Y172158D02*
G01Y182158D01*
X441000*
Y172158*
X436000*
G37*
G36*
Y152158D02*
G01Y162158D01*
X441000*
Y152158*
X436000*
G37*
G36*
Y131842D02*
G01Y141842D01*
X441000*
Y131842*
X436000*
G37*
G36*
Y112158D02*
G01Y122158D01*
X441000*
Y112158*
X436000*
G37*
G36*
Y92158D02*
G01Y102158D01*
X441000*
Y92158*
X436000*
G37*
G36*
Y71842D02*
G01Y81842D01*
X441000*
Y71842*
X436000*
G37*
G36*
Y52158D02*
G01Y62158D01*
X441000*
Y52158*
X436000*
G37*
G36*
Y32158D02*
G01Y42158D01*
X441000*
Y32158*
X436000*
G37*
G36*
X315000Y9000D02*
G01Y14000D01*
X325000*
Y9000*
X315000*
G37*
G36*
X295000D02*
G01Y14000D01*
X305000*
Y9000*
X295000*
G37*
G36*
X275000D02*
G01Y14000D01*
X285000*
Y9000*
X275000*
G37*
G36*
X255000D02*
G01Y14000D01*
X265000*
Y9000*
X255000*
G37*
G36*
X235000D02*
G01Y14000D01*
X245000*
Y9000*
X235000*
G37*
G36*
X215000D02*
G01Y14000D01*
X225000*
Y9000*
X215000*
G37*
G36*
X195000D02*
G01Y14000D01*
X205000*
Y9000*
X195000*
G37*
G36*
X175000D02*
G01Y14000D01*
X185000*
Y9000*
X175000*
G37*
G36*
X431000Y215000D02*
G01Y217500D01*
G03X438500Y225000I0J7500*
G01X441000*
G02X431000Y215000I-10000*
G37*
G36*
X428000Y3000D02*
G01Y5500D01*
G03X435500Y13000I0J7500*
G01X438000*
G02X428000Y3000I-10000*
G37*
G36*
X421000Y225000D02*
G02X431000Y235000I10000J0D01*
G01Y232500*
G03X423500Y225000I0J-7500*
G01X421000*
G37*
G36*
X418000Y13000D02*
G02X428000Y23000I10000J0D01*
G01Y20500*
G03X420500Y13000I0J-7500*
G01X418000*
G37*
G36*
X14000Y217000D02*
G01Y219500D01*
G03X21500Y227000J7500*
G01X24000*
G02X14000Y217000I-10000*
G37*
G36*
X13000Y4000D02*
G01Y6500D01*
G03X20500Y14000J7500*
G01X23000*
G02X13000Y4000I-10000*
G37*
G36*
X4000Y227000D02*
G02X14000Y237000I10000J0D01*
G01Y234500*
G03X6500Y227000I0J-7500*
G01X4000*
G37*
G36*
X3000Y14000D02*
G02X13000Y24000I10000J0D01*
G01Y21500*
G03X5500Y14000I0J-7500*
G01X3000*
G37*
G36*
X347200Y191000D02*
G01X347216Y191661D01*
X347236Y191991*
X347263Y192321*
G02X361661Y204784I13737J-1321*
X374800Y191000I-661J-13784*
X374547Y188370I-13800J0*
X359023Y177342I-13547J2630*
X347200Y191000I1977J13658*
G37*
G36*
Y117000D02*
G01X347216Y117661D01*
X347236Y117991*
X347263Y118321*
G02X361661Y130784I13737J-1321*
X374800Y117000I-661J-13784*
X374547Y114370I-13800J0*
X359023Y103342I-13547J2630*
X347200Y117000I1977J13658*
G37*
G36*
Y45000D02*
G01X347216Y45661D01*
X347236Y45991*
X347263Y46321*
G02X361661Y58784I13737J-1321*
X374800Y45000I-661J-13784*
X374547Y42370I-13800J0*
X359023Y31342I-13547J2630*
X347200Y45000I1977J13658*
G37*
G54D13*
X206000Y234000D02*
G01X215000D01*
X216000Y233000*
X217000Y234000*
X225000*
X226000Y233000*
X227000Y234000*
X235000*
X236000Y233000*
X237000Y234000*
X245000*
X246000Y233000*
X247000Y234000*
X256000*
X257000Y233000*
Y223000*
X256000Y222000*
X247000*
X246000Y223000*
X245000Y222000*
X237000*
X236000Y223000*
X235000Y222000*
X227000*
X226000Y223000*
X225000Y222000*
X217000*
X216000Y223000*
X215000Y222000*
X206000*
X205000Y223000*
Y233000*
X206000Y234000*
G54D14*
X196000Y59000D02*
G01Y65000D01*
X172000Y59000D02*
G01Y65000D01*
X196000Y55000D02*
G01Y52000D01*
X172000*
Y55000*
Y69000D02*
G01Y72000D01*
X196000*
Y69000*
X217000Y59000D02*
G01Y65000D01*
X241000Y55000D02*
G01Y52000D01*
X217000*
Y55000*
Y69000D02*
G01Y72000D01*
X241000*
Y69000*
Y59000D02*
G01Y65000D01*
X286000Y59000D02*
G01Y65000D01*
X262000Y59000D02*
G01Y65000D01*
X286000Y55000D02*
G01Y52000D01*
X262000*
Y55000*
Y69000D02*
G01Y72000D01*
X286000*
Y69000*
G54D15*
X17000Y171500D02*
G01X12500D01*
X6000Y178000*
Y197500*
X14500Y166000D02*
G01Y170000D01*
X16500Y168000D02*
G01X12500D01*
X6000Y197500D02*
G01X17000D01*
X15000Y199000D02*
G01Y203000D01*
X153000Y64500D02*
G01X31000D01*
Y3000*
X153000*
Y64500*
X61500Y112500D02*
G01Y108000D01*
X55000Y101500*
X35500*
Y116500D02*
G01Y127500D01*
X55000*
X61500Y121000*
Y116500*
X35500Y101500D02*
G01Y112500D01*
X34000Y110500D02*
G01X30000D01*
X21000Y197500D02*
G01X32000D01*
Y178000*
X25500Y171500*
X21000*
X45500Y198500D02*
G01X36000D01*
Y205000*
X62500Y198500D02*
G01X72000D01*
Y256000*
X36000*
Y222500*
X67000Y110000D02*
G01X63000D01*
X65000Y112000D02*
G01Y108000D01*
X209685Y38567D02*
G01X170315D01*
Y7071*
X209685*
Y38567*
X249685D02*
G01X210315D01*
Y7071*
X249685*
Y38567*
X289685D02*
G01X250315D01*
Y7071*
X289685*
Y38567*
X254000Y185000D02*
G01Y140000D01*
X244000*
Y150000*
Y220000D02*
G01Y150000D01*
X254000Y180000D02*
G01Y220000D01*
X244000*
X291000Y83000D02*
G01Y93000D01*
X261000*
Y83000*
X291000*
X329685Y38567D02*
G01X290315D01*
Y7071*
X329685*
Y38567*
X411500Y86658D02*
G01Y27658D01*
X443000*
Y86658*
X411500*
Y146658D02*
G01Y87658D01*
X443000*
Y146658*
X411500*
Y206658D02*
G01Y147658D01*
X443000*
Y206658*
X411500*
G54D11*
X2000Y239000D02*
G01Y2000D01*
X443000*
Y239000*
X2000*
X0Y0D02*
G01Y241000D01*
X445000*
Y0*
X0*
X23300Y14000D02*
G03X23300Y14000I-10300D01*
X24300Y227000D02*
G03X24300Y227000I-10300D01*
X81004Y170000D02*
G01Y176000D01*
X68996*
Y170000*
X81004*
X164000Y99250D02*
G01X124000D01*
Y112750*
X164000*
Y99250*
X127500Y102750D02*
G03X127500Y102750I-1000D01*
X124000Y101000D02*
G01X164000D01*
X138100Y137100D02*
G01Y148900D01*
X146500Y137100D02*
G01X147900D01*
Y148900*
X146500*
X139500D02*
G01X138100D01*
X139500Y137100D02*
G01X138100D01*
X179240Y203310D02*
G03X177220Y204480I-393033J-676242D01*
X180940Y202320D02*
G03X179240Y203310I-199181J-340074D01*
X180940Y202320D02*
G01X182460Y201420D01*
Y201400D02*
G03X182460Y201420I-8J10D01*
X182360Y201320D02*
G03X182460Y201400I-266J435D01*
X182360Y201320D02*
G01X177280Y198400D01*
X172170Y195470*
X172100Y195450D02*
G03X172170Y195470I-5J148D01*
X172020D02*
G03X172100Y195450I77J137D01*
X172020Y195470D02*
G01X166660Y198440D01*
X161280Y201410*
X161260Y201450D02*
G03X161280Y201410I41J-4D01*
X161290Y201500D02*
G03X161260Y201450I32J-53D01*
X161290Y201500D02*
G01X166530Y204500D01*
X171750Y207490*
X171870Y207520D02*
G03X171750Y207490I1J-258D01*
X171930Y207510D02*
G03X171870Y207520I-48J-101D01*
X171930Y207510D02*
G01X173470Y206630D01*
X175190Y205650D02*
G03X173470Y206630I-225459J-393704D01*
X177220Y204480D02*
G03X175190Y205650I-439159J-759613D01*
X162210Y216270D02*
G01Y212180D01*
X163860*
Y214670*
X164530Y215350*
X165210Y216020*
X166320Y214100*
X167440Y212190*
X168510Y212180*
Y212180D02*
G03X168910Y212190I-1344J61779D01*
Y212190D02*
G03X169260Y212190I175J32449D01*
Y212190D02*
G01X169560D01*
Y212190D02*
G03X169570Y212200J10D01*
Y212200D02*
G03X169560Y212220I-39J-7D01*
Y212220D02*
G01X169100Y212930D01*
Y212930D02*
G03X168600Y213710I-363589J-232520D01*
Y213710D02*
G01X167990Y214650D01*
X167380Y215580D02*
G03X167990Y214650I467718J306118D01*
X166870Y216380D02*
G03X167380Y215580I250728J159277D01*
X166870Y216380D02*
G01X166410Y217090D01*
X166390Y217140D02*
G03X166410Y217090I254J72D01*
X166400Y217200D02*
G03X166390Y217140I44J-38D01*
X166690Y217520D02*
G03X166400Y217200I28547J-26163D01*
X167090Y217950D02*
G03X166690Y217520I16257J-15524D01*
X167680Y218560D02*
G03X167090Y217950I69466J-67779D01*
X167680Y218560D02*
G03X168200Y219100I-185008J178676D01*
Y219100D02*
G03X168670Y219580I-123092J120998D01*
Y219580D02*
G03X169060Y219990I-151361J144368D01*
Y219990D02*
G03X169200Y220140I-3650J3547D01*
Y220140D02*
G01X169390Y220360D01*
X167200*
X165540Y218570*
X163880Y216770*
X163870Y218570*
X163860Y220360*
X162210*
Y216270*
X164390Y211390D02*
G03X163880Y211100I333J-1180D01*
Y211100D02*
G03X163540Y210600I990J-1039D01*
Y210600D02*
G03X163410Y209950I1609J-660D01*
Y209950D02*
G03X163520Y209260I2181J-6D01*
Y209260D02*
G03X163860Y208740I1092J343D01*
Y208740D02*
G03X164450Y208440I937J1113D01*
Y208440D02*
G03X165110Y208430I352J1420D01*
Y208430D02*
G03X165660Y208720I-254J1149D01*
Y208720D02*
G03X165810Y208880I-712J818D01*
Y208880D02*
G03X165930Y209080I-1178J843D01*
Y209080D02*
G03X166000Y209260I-1127J542D01*
Y209260D02*
G03X165980Y209350I-81J29D01*
Y209350D02*
G03X165950Y209370I-72J-76D01*
Y209370D02*
G03X165880Y209400I-782J-1729D01*
Y209400D02*
G03X165790Y209430I-679J-1888D01*
Y209430D02*
G03X165700Y209460I-843J-2379D01*
Y209460D02*
G01X165460Y209520D01*
X165370Y209340*
X165270Y209150D02*
G03X165370Y209340I-1024J660D01*
X165150Y209020D02*
G03X165270Y209150I-365J457D01*
X165010Y208950D02*
G03X165150Y209020I-140J454D01*
X164830Y208910D02*
G03X165010Y208950I-69J737D01*
X164630Y208920D02*
G03X164830Y208910I139J767D01*
X164450Y208980D02*
G03X164630Y208920I270J511D01*
X164300Y209090D02*
G03X164450Y208980I414J407D01*
X164180Y209260D02*
G03X164300Y209090I789J429D01*
X164120Y209390D02*
G03X164180Y209260I1004J385D01*
X164080Y209510D02*
G03X164120Y209390I586J129D01*
X164070Y209660D02*
G03X164080Y209510I1064J-4D01*
X164060Y209920D02*
G03X164070Y209660I8551J199D01*
Y210160D02*
G03X164060Y209920I6932J-409D01*
X164080Y210320D02*
G03X164070Y210160I1584J-179D01*
X164110Y210440D02*
G03X164080Y210320I826J-270D01*
X164150Y210550D02*
G03X164110Y210440I577J-272D01*
X164250Y210710D02*
G03X164150Y210550I610J-493D01*
X164390Y210830D02*
G03X164250Y210710I337J-535D01*
X164550Y210900D02*
G03X164390Y210830I163J-591D01*
X164740Y210940D02*
G03X164550Y210900I89J-893D01*
X164940Y210930D02*
G03X164740Y210940I-141J-814D01*
X165110Y210870D02*
G03X164940Y210930I-265J-480D01*
X165250Y210760D02*
G03X165110Y210870I-388J-350D01*
X165350Y210610D02*
G03X165250Y210760I-575J-275D01*
X165350Y210610D02*
G03X165400Y210520I998J496D01*
Y210520D02*
G03X165440Y210480I116J76D01*
Y210480D02*
G03X165480Y210460I54J58D01*
Y210460D02*
G03X165550Y210470I-6J289D01*
X165600Y210480D02*
G03X165550Y210470I989J-5075D01*
X165680Y210490D02*
G03X165600Y210480I2347J-19104D01*
X165760Y210510D02*
G03X165680Y210490I4775J-19269D01*
X165830Y210520D02*
G03X165760Y210510I1801J-12860D01*
X165830Y210520D02*
G03X165900Y210530I-76J784D01*
Y210530D02*
G03X165950Y210550I-122J378D01*
Y210550D02*
G03X165990Y210570I-117J285D01*
Y210570D02*
G03X166010Y210590I-8J28D01*
Y210590D02*
G03X165980Y210700I-242J-7D01*
Y210700D02*
G03X165870Y210890I-2653J-1409D01*
Y210890D02*
G03X165750Y211070I-2285J-1393D01*
Y211070D02*
G03X165650Y211170I-352J-252D01*
Y211170D02*
G03X165360Y211330I-867J-1228D01*
Y211330D02*
G03X165040Y211420I-571J-1417D01*
Y211420D02*
G03X164710Y211440I-256J-1488D01*
Y211440D02*
G03X164390Y211390I57J-1414D01*
X160520Y209900D02*
G01Y208390D01*
X161120*
Y209720*
X162310*
Y208390*
X162900*
Y211410*
X162310*
Y210220*
X161120*
Y211410*
X160520*
Y209900*
X166510D02*
G01Y208390D01*
X167100*
X167110Y209550*
X167120Y210700*
X167370Y209720*
X167460Y209330*
X167550Y208970*
X167620Y208680*
Y208680D02*
G03X167650Y208560I8056J1950D01*
Y208560D02*
G01X167700Y208390D01*
X167990*
Y208390D02*
G03X168170Y208400I-209J5384D01*
Y208400D02*
G03X168240Y208410I-1J256D01*
Y208410D02*
G03X168290Y208440I-21J92D01*
Y208440D02*
G03X168310Y208490I-117J76D01*
Y208490D02*
G03X168330Y208570I-20453J5156D01*
Y208570D02*
G01X168400Y208860D01*
X168490Y209210*
X168580Y209600*
X168820Y210600*
X168850Y210310*
X168860Y210150D02*
G03X168850Y210310I-2521J-77D01*
X168870Y209870D02*
G03X168860Y210150I-20976J-609D01*
X168880Y209540D02*
G03X168870Y209870I-23610J-550D01*
X168880Y209210D02*
G03X168880Y209540I-24944J165D01*
Y209210D02*
G01Y208390D01*
X169430*
Y211410*
X168530*
X168290Y210480*
X168200Y210120D02*
G03X168290Y210480I-112668J28358D01*
X168110Y209800D02*
G03X168200Y210120I-68882J19546D01*
X168040Y209530D02*
G03X168110Y209800I-119886J31226D01*
X168020Y209470D02*
G03X168040Y209530I-725J275D01*
X167990Y209470D02*
G03X168020Y209470I15J5D01*
X167930Y209680D02*
G03X167990Y209470I6140J1641D01*
X167840Y209970D02*
G03X167930Y209680I7573J2191D01*
X167720Y210400D02*
G03X167840Y209970I30895J8390D01*
X167720Y210400D02*
G01X167450Y211410D01*
X166510*
Y209900*
X159340Y208690D02*
G01Y208390D01*
X159930*
Y208990*
X159340*
Y208690*
X158490Y215570D02*
G03X158050Y215700I-727J-1651D01*
X158810Y215340D02*
G03X158490Y215570I-722J-667D01*
X159000Y215020D02*
G03X158810Y215340I-826J-274D01*
X159060Y214620D02*
G03X159000Y215020I-1254J16D01*
X159020Y214310D02*
G03X159060Y214620I-1188J311D01*
X158900Y214040D02*
G03X159020Y214310I-798J516D01*
X158710Y213820D02*
G03X158900Y214040I-600J710D01*
X158440Y213660D02*
G03X158710Y213820I-470J1101D01*
X158290Y213610D02*
G03X158440Y213660I-111J584D01*
X158060Y213590D02*
G03X158290Y213610I-102J2508D01*
X157690Y213570D02*
G03X158060Y213590I-251J8072D01*
X156930Y213560D02*
G03X157690Y213570I-1089J111658D01*
X156930Y213560D02*
G01X155590Y213550D01*
Y215750*
X156670*
X157110Y215740D02*
G03X156670Y215750I-852J-27820D01*
X157530Y215730D02*
G03X157110Y215740I-753J-22804D01*
X157880Y215720D02*
G03X157530Y215730I-785J-21328D01*
X158050Y215700D02*
G03X157880Y215720I-267J-1536D01*
X155350Y236330D02*
G03X153220Y235100I509615J-884962D01*
Y235100D02*
G03X151410Y234050I264119J-457376D01*
Y234050D02*
G01X149800Y233100D01*
Y233100D02*
G03X149760Y233060I50J-90D01*
Y233060D02*
G03X149740Y233000I113J-71D01*
Y233000D02*
G01X149720Y231180D01*
Y231180D02*
G03X149710Y229160I567335J-3819D01*
Y229160D02*
G03X149700Y226760I1108945J-5821D01*
Y226760D02*
G01X149670Y220530D01*
X144230Y217330*
X138780Y214130*
Y201380*
X138970Y201260*
Y201260D02*
G03X139700Y200820I14995J24053D01*
Y200820D02*
G01X144580Y197970D01*
X149780Y194930*
Y194930D02*
G03X149830Y194920I43J87D01*
Y194920D02*
G03X149870Y194920I20J76D01*
Y194920D02*
G01X150700Y195400D01*
Y195400D02*
G03X151630Y195930I-132722J233971D01*
Y195930D02*
G03X152720Y196550I-255019J449608D01*
Y196550D02*
G01X158620Y199940D01*
X160050Y200760D02*
G03X158620Y199940I64538J-114204D01*
X160800Y201170D02*
G03X160050Y200760I17274J-32489D01*
X160980Y201160D02*
G03X160800Y201170I-99J-158D01*
X160980Y201160D02*
G03X161070Y201110I3300J5835D01*
Y201110D02*
G01X161640Y200800D01*
X162300Y200430*
X163060Y200010*
X164720Y199080D02*
G03X163060Y200010I-127699J-225989D01*
X167220Y197670D02*
G03X164720Y199080I-627506J-1109678D01*
X169710Y196260D02*
G03X167220Y197670I-632394J-1113876D01*
X171340Y195320D02*
G03X169710Y196260I-126066J-216720D01*
X171340Y195320D02*
G03X171770Y195080I23681J41923D01*
Y195080D02*
G03X171930Y195000I676J1152D01*
Y195000D02*
G03X172030Y194990I74J236D01*
Y194990D02*
G03X172120Y195010I5J188D01*
X172220Y195070D02*
G03X172120Y195010I17400J-29114D01*
X172220Y195070D02*
G01X173600Y195870D01*
X175160Y196760*
X176990Y197820*
X178850Y198890*
X180510Y199840*
X181910Y200650*
X182300Y200870*
X182850Y201190*
X182880Y205140*
X182900Y206830*
X182920Y208640*
X182930Y210310*
X182950Y211500*
Y211500D02*
G03X182960Y212420I-162186J2223D01*
Y212420D02*
G03X182960Y213210I-85889J395D01*
Y213210D02*
G01Y213900D01*
Y213900D02*
G03X182940Y213940I-68J-9D01*
Y213940D02*
G03X182910Y213970I-96J-66D01*
Y213970D02*
G01X182470Y214240D01*
Y214240D02*
G03X181960Y214530I-40390J-70436D01*
Y214530D02*
G03X181370Y214880I-77424J-129842D01*
X180540Y215370D02*
G03X181370Y214880I82746J139214D01*
X180540Y215370D02*
G01X179150Y216190D01*
X177550Y217140*
X175940Y218100*
X172040Y220420*
Y233060*
X171890Y233130*
X171770Y233200D02*
G03X171890Y233130I1437J2326D01*
X171770Y233200D02*
G01X170270Y234070D01*
X168570Y235070*
X166580Y236230*
X164580Y237390*
X162870Y238390*
X161370Y239270*
Y239270D02*
G03X161220Y239350I-5833J-10757D01*
X161140Y239400D02*
G03X161220Y239350I1309J2006D01*
X161080Y239440D02*
G03X161140Y239400I831J1181D01*
X161020Y239480D02*
G03X161080Y239440I977J1401D01*
X161000Y239500D02*
G03X161020Y239480I63J43D01*
X161000Y239500D02*
G03X160990Y239520I-98J-36D01*
Y239520D02*
G03X160970Y239530I-56J-87D01*
Y239530D02*
G03X160960Y239540I-47J-37D01*
Y239540D02*
G03X160940Y239540I-10J-42D01*
Y239540D02*
G03X160920Y239530I15J-54D01*
Y239530D02*
G01X159290Y238600D01*
X155350Y236330*
X163400Y225120D02*
G03X162500Y225640I-77436J-132985D01*
X164800Y224300D02*
G03X163400Y225120I-435723J-742313D01*
X166370Y223360D02*
G03X164800Y224300I-494895J-824799D01*
X167920Y222440D02*
G03X166370Y223360I-459141J-771787D01*
X167920Y222440D02*
G01X171650Y220230D01*
X171670Y207870*
X166280Y204770*
X164020Y203480D02*
G03X166280Y204770I-449550J790208D01*
X162310Y202510D02*
G03X164020Y203480I-149759J266001D01*
X162310Y202510D02*
G01X160870Y201700D01*
X160810Y201690D02*
G03X160870Y201700I18J77D01*
X160750Y201710D02*
G03X160810Y201690I120J259D01*
X160750Y201710D02*
G01X159190Y202570D01*
X157450Y203530D02*
G03X159190Y202570I524717J948993D01*
X157450Y203530D02*
G01X155410Y204660D01*
X150090Y207610*
X150070Y213970*
X150060Y220340*
X155400Y223470*
X157440Y224680*
X159170Y225690*
X160740Y226610*
X160770Y226620D02*
G03X160740Y226610I8J-73D01*
X160800D02*
G03X160770Y226620I-31J-43D01*
X160800Y226610D02*
G01X161290Y226330D01*
X161850Y226010D02*
G03X161290Y226330I-45888J-79655D01*
X162500Y225640D02*
G03X161850Y226010I-86153J-150593D01*
X149700Y213850D02*
G01Y207620D01*
X144450Y204630*
X142430Y203480*
X140730Y202510*
X139190Y201640*
X139170Y201630D02*
G03X139190Y201640I-9J43D01*
X139160D02*
G03X139170Y201630I10D01*
X139160Y201640D02*
G01Y203440D01*
X139150Y205420D02*
G03X139160Y203440I713499J2614D01*
X139150Y205420D02*
G01X139160Y207780D01*
X139170Y213930*
X144400Y217010*
X146410Y218190*
X148100Y219180*
X149640Y220080*
X149660Y220090D02*
G03X149640Y220080I10J-45D01*
X149680Y220070D02*
G03X149660Y220090I-20D01*
X149680Y220070D02*
G01X149690Y218260D01*
Y216240D02*
G03X149690Y218260I-587499J1010D01*
X149700Y213850D02*
G03X149690Y216240I-1160487J-3661D01*
X153900Y216270D02*
G01Y212170D01*
X156290Y212200*
Y212200D02*
G03X158010Y212220I-1762J225521D01*
Y212220D02*
G03X158730Y212260I-166J9481D01*
Y212260D02*
G03X159180Y212350I-272J2531D01*
Y212350D02*
G03X159600Y212510I-616J2248D01*
Y212510D02*
G03X160120Y212900I-818J1633D01*
Y212900D02*
G03X160520Y213480I-1875J1721D01*
Y213480D02*
G03X160750Y214150I-2308J1167D01*
Y214150D02*
G03X160760Y214820I-1981J365D01*
Y214820D02*
G03X160630Y215320I-2229J-313D01*
Y215320D02*
G03X160390Y215750I-1739J-689D01*
Y215750D02*
G03X160050Y216110I-1524J-1099D01*
Y216110D02*
G03X159610Y216380I-1383J-1760D01*
Y216380D02*
G01X159250Y216550D01*
X159460Y216660*
Y216660D02*
G03X159550Y216720I-405J705D01*
Y216720D02*
G03X159660Y216800I-1179J1737D01*
Y216800D02*
G03X159770Y216900I-1508J1770D01*
Y216900D02*
G03X159860Y216990I-967J1057D01*
Y216990D02*
G03X160250Y217630I-1537J1375D01*
Y217630D02*
G03X160380Y218350I-1746J687D01*
Y218350D02*
G03X160220Y219060I-1865J-47D01*
Y219060D02*
G03X159790Y219680I-1891J-852D01*
Y219680D02*
G03X159680Y219790I-1456J-1346D01*
Y219790D02*
G03X159540Y219900I-1984J-2381D01*
Y219900D02*
G03X159400Y220000I-1787J-2354D01*
Y220000D02*
G03X159290Y220060I-540J-858D01*
Y220060D02*
G03X158910Y220210I-924J-1784D01*
Y220210D02*
G03X158470Y220290I-679J-2483D01*
Y220290D02*
G03X157790Y220330I-880J-9158D01*
Y220330D02*
G03X156170Y220350I-3379J-208104D01*
Y220350D02*
G01X153900Y220370D01*
Y216270*
X153850Y211160D02*
G01Y210900D01*
X154720*
Y208390*
X155320*
Y210900*
X156230*
Y211410*
X153850*
Y211160*
X156550Y209900D02*
G01Y208390D01*
X157140*
Y209520*
X157660Y209540*
Y209540D02*
G03X157930Y209560I-512J8744D01*
Y209560D02*
G03X158110Y209580I-121J1905D01*
Y209580D02*
G03X158240Y209620I-229J974D01*
Y209620D02*
G03X158370Y209670I-236J807D01*
Y209670D02*
G03X158660Y209920I-342J690D01*
Y209920D02*
G03X158810Y210310I-838J546D01*
Y210310D02*
G03X158800Y210730I-1009J186D01*
Y210730D02*
G03X158620Y211090I-854J-202D01*
Y211090D02*
G03X158450Y211250I-719J-594D01*
Y211250D02*
G03X158260Y211340I-332J-455D01*
Y211340D02*
G03X157980Y211380I-344J-1408D01*
Y211380D02*
G03X157380Y211400I-1032J-21941D01*
Y211400D02*
G01X156550Y211420D01*
Y209900*
X158130Y210690D02*
G03X158080Y210750I-379J-265D01*
X158160Y210620D02*
G03X158130Y210690I-427J-141D01*
X158190Y210540D02*
G03X158160Y210620I-475J-132D01*
X158190Y210470D02*
G03X158190Y210540I-353J35D01*
Y210400D02*
G03X158190Y210470I-353J35D01*
X158160Y210320D02*
G03X158190Y210400I-445J212D01*
X158130Y210250D02*
G03X158160Y210320I-397J211D01*
X158080Y210190D02*
G03X158130Y210250I-329J325D01*
X158010Y210110D02*
G03X158080Y210190I-342J370D01*
X157930Y210080D02*
G03X158010Y210110I-38J222D01*
X157810Y210060D02*
G03X157930Y210080I-38J599D01*
X157560Y210040D02*
G03X157810Y210060I-637J9533D01*
X157560Y210040D02*
G01X157140Y210030D01*
Y210910*
X157560Y210900*
X157810Y210880D02*
G03X157560Y210900I-887J-9513D01*
X157930Y210870D02*
G03X157810Y210880I-109J-584D01*
X158010Y210830D02*
G03X157930Y210870I-144J-187D01*
X158080Y210750D02*
G03X158010Y210830I-412J-290D01*
X166330Y235940D02*
G01X171650Y232840D01*
X171670Y220640*
X170540Y221320*
X169860Y221720*
X168500Y222530*
X166890Y223490*
X165190Y224490*
X160980Y227000*
Y235330*
X160990Y237270D02*
G03X160980Y235330I918621J-5705D01*
X160990Y237270D02*
G01Y239040D01*
X161000D02*
G03X160990Y239040I-5J-5D01*
X161020D02*
G03X161000Y239040I-10J-37D01*
X161020D02*
G01X162580Y238130D01*
X166330Y235940*
X158530Y218680D02*
G03X158310Y218850I-621J-576D01*
X158690Y218450D02*
G03X158530Y218680I-718J-329D01*
X158750Y218180D02*
G03X158690Y218450I-825J-42D01*
X158740Y217860D02*
G03X158750Y218180I-1233J199D01*
X158680Y217670D02*
G03X158740Y217860I-808J360D01*
X158580Y217500D02*
G03X158680Y217670I-611J474D01*
X158440Y217360D02*
G03X158580Y217500I-490J630D01*
X158250Y217250D02*
G03X158440Y217360I-464J1021D01*
X158080Y217190D02*
G03X158250Y217250I-208J860D01*
X157900Y217150D02*
G03X158080Y217190I-144J1074D01*
X157590Y217140D02*
G03X157900Y217150I6J4613D01*
X156810Y217130D02*
G03X157590Y217140I-1261J128796D01*
X156810Y217130D02*
G01X155590Y217110D01*
Y219000*
X156840Y218980*
X157650Y218970D02*
G03X156840Y218980I-2230J-147796D01*
X157950Y218950D02*
G03X157650Y218970I-430J-4185D01*
X158130Y218920D02*
G03X157950Y218950I-246J-922D01*
X158310Y218850D02*
G03X158130Y218920I-446J-882D01*
X184580Y49410D02*
G01X199180D01*
Y42610*
X184580*
Y49410*
X230580D02*
G01X245180D01*
Y42610*
X230580*
Y49410*
X273580D02*
G01X288180D01*
Y42610*
X273580*
Y49410*
X269472Y214276D02*
G01Y123724D01*
X328528*
Y214276*
X269472*
X287720Y223126D02*
G01X315280D01*
Y238874*
X287720*
Y223126*
X347000Y68600D02*
G01X337400D01*
Y21400*
Y21400D02*
G01X347000D01*
Y140600D02*
G01X337400D01*
Y93400*
Y93400D02*
G01X347000D01*
Y214600D02*
G01X337400D01*
Y167400*
Y167400D02*
G01X347000D01*
X355500Y21400D02*
G01X366500D01*
X375000D02*
G01X384600D01*
Y68600*
X375000*
X366500D02*
G01X355500D01*
Y93400D02*
G01X366500D01*
X375000D02*
G01X384600D01*
Y140600*
X375000*
X366500D02*
G01X355500D01*
Y167400D02*
G01X366500D01*
X375000D02*
G01X384600D01*
Y214600*
X375000*
X366500D02*
G01X355500D01*
X398590Y42580D02*
G01Y57180D01*
X405390*
Y42580*
X398590*
Y65580D02*
G01Y80180D01*
X405390*
Y65580*
X398590*
Y121580D02*
G01Y136180D01*
X405390*
Y121580*
X398590*
Y98580D02*
G01Y113180D01*
X405390*
Y98580*
X398590*
X438300Y13000D02*
G03X438300Y13000I-10300D01*
X441300Y225000D02*
G03X441300Y225000I-10300D01*
X11000Y92000D02*
G01X5500D01*
Y99000*
X13000D02*
G01X18500D01*
Y98500*
Y92000*
X13000*
X12400Y97000D02*
G01Y94000D01*
X11700Y97000D02*
G01Y94000D01*
X4500Y94500D02*
G01Y96500D01*
X3500Y95500D02*
G01X5500D01*
Y99000D02*
G01X11000D01*
X4500Y123000D02*
G01Y125000D01*
X3500Y124000D02*
G01X5500D01*
X11000Y120500D02*
G01X5500D01*
Y127500*
X13000D02*
G01X18500D01*
Y127000*
Y120500*
X13000*
X12400Y125500D02*
G01Y122500D01*
X11700Y125500D02*
G01Y122500D01*
X6500Y105000D02*
G01X11000D01*
X11600Y103600D02*
G01Y101300D01*
X12300Y103600D02*
G01Y101300D01*
X11000Y100000D02*
G01X6500D01*
Y105000*
X13000D02*
G01X17500D01*
Y100000*
X13000*
X5000Y150500D02*
G01Y152500D01*
X4000Y151500D02*
G01X6000D01*
X11500Y148000D02*
G01X6000D01*
Y155000*
X13500D02*
G01X19000D01*
Y154500*
Y148000*
X13500*
X12900Y153000D02*
G01Y150000D01*
X12200Y153000D02*
G01Y150000D01*
X5500Y127500D02*
G01X11000D01*
X6500Y133500D02*
G01X11000D01*
X11600Y132100D02*
G01Y129800D01*
X12300Y132100D02*
G01Y129800D01*
X11000Y128500D02*
G01X6500D01*
Y133500*
X13000D02*
G01X17500D01*
Y128500*
X13000*
X6000Y155000D02*
G01X11500D01*
X7000Y161000D02*
G01X11500D01*
X12100Y159600D02*
G01Y157300D01*
X12800Y159600D02*
G01Y157300D01*
X11500Y156000D02*
G01X7000D01*
Y161000*
X13500D02*
G01X18000D01*
Y156000*
X13500*
X19500Y96000D02*
G01Y94500D01*
Y124500D02*
G01Y123000D01*
X20000Y152000D02*
G01Y150500D01*
X48610Y71705D02*
G01X62390D01*
Y97295*
X48610*
Y71705*
X76700Y113900D02*
G01Y116200D01*
X76000Y112500D02*
G01X71500D01*
Y117500*
X76000*
X68500Y134500D02*
G01Y139000D01*
X69900Y139600D02*
G01X72200D01*
X69900Y140300D02*
G01X72200D01*
X73500Y139000D02*
G01Y134500D01*
X68500*
Y141000D02*
G01Y145500D01*
X73500*
Y141000*
X76700Y153900D02*
G01Y156200D01*
X76000Y152500D02*
G01X71500D01*
Y157500*
X76000*
X61500Y167500D02*
G01Y172000D01*
X62900Y172600D02*
G01X65200D01*
X62900Y173300D02*
G01X65200D01*
X66500Y172000D02*
G01Y167500D01*
X61500*
Y174000D02*
G01Y178500D01*
X66500*
Y174000*
X76000Y183500D02*
G01X71500D01*
Y188500*
X76700Y158900D02*
G01Y161200D01*
X76000Y157500D02*
G01X71500D01*
Y162500*
X76000*
X76700Y189900D02*
G01Y192200D01*
X76000Y188500D02*
G01X71500D01*
Y193500*
X76000*
X71500Y188500D02*
G01X76000D01*
X76600Y187100D02*
G01Y184800D01*
X78500Y74500D02*
G01Y79000D01*
X79900Y79600D02*
G01X82200D01*
X79900Y80300D02*
G01X82200D01*
X83500Y79000D02*
G01Y74500D01*
X78500*
Y81000D02*
G01Y85500D01*
X83500*
Y81000*
X82500Y112500D02*
G01X78000D01*
X77400Y113900D02*
G01Y116200D01*
X78000Y117500D02*
G01X82500D01*
Y112500*
X101500Y151500D02*
G01Y147000D01*
X100100Y146400D02*
G01X97800D01*
X100100Y145700D02*
G01X97800D01*
X96500Y147000D02*
G01Y151500D01*
X101500*
Y145000D02*
G01Y140500D01*
X96500*
Y145000*
X82500Y152500D02*
G01X78000D01*
X77400Y153900D02*
G01Y156200D01*
X78000Y157500D02*
G01X82500D01*
Y152500*
X105000Y134000D02*
G03X105000Y134000I-1500D01*
Y153000D02*
G01Y137000D01*
X78000Y188500D02*
G01X82500D01*
Y183500*
X78000*
X82500Y157500D02*
G01X78000D01*
X77400Y158900D02*
G01Y161200D01*
X78000Y162500D02*
G01X82500D01*
Y157500*
Y188500D02*
G01X78000D01*
X77400Y189900D02*
G01Y192200D01*
X78000Y193500D02*
G01X82500D01*
Y188500*
X77300Y187100D02*
G01Y184800D01*
X120500Y99000D02*
G01Y93500D01*
X120000*
X113500*
Y99000*
X132000Y90500D02*
G01X137500D01*
Y83500*
X130000D02*
G01X124500D01*
Y84000*
Y90500*
X130000*
X130600Y85500D02*
G01Y88500D01*
X131300Y85500D02*
G01Y88500D01*
X137500Y83500D02*
G01X132000D01*
X113500Y101000D02*
G01Y106500D01*
X120500*
X118500Y99600D02*
G01X115500D01*
X118500Y100300D02*
G01X115500D01*
X120500Y106500D02*
G01Y101000D01*
Y113000D02*
G01Y107500D01*
X113500*
Y115000D02*
G01Y120500D01*
X114000*
X120500*
Y115000*
X115500Y114400D02*
G01X118500D01*
X115500Y113700D02*
G01X118500D01*
X113500Y107500D02*
G01Y113000D01*
X125000Y153000D02*
G01Y137000D01*
X132500Y162500D02*
G01X128000D01*
X127400Y163900D02*
G01Y166200D01*
X126700Y163900D02*
G01Y166200D01*
X128000Y167500D02*
G01X132500D01*
Y162500*
X126000D02*
G01X121500D01*
Y167500*
X126000*
X107500D02*
G01X112000D01*
X112600Y166100D02*
G01Y163800D01*
X113300Y166100D02*
G01Y163800D01*
X112000Y162500D02*
G01X107500D01*
Y167500*
X114000D02*
G01X118500D01*
Y162500*
X114000*
X156000Y83500D02*
G01X150500D01*
Y90500*
X158000D02*
G01X163500D01*
Y90000*
Y83500*
X158000*
X157400Y88500D02*
G01Y85500D01*
X156700Y88500D02*
G01Y85500D01*
X150500Y90500D02*
G01X156000D01*
X143000Y83500D02*
G01X137500D01*
Y90500*
X145000D02*
G01X150500D01*
Y90000*
Y83500*
X145000*
X144400Y88500D02*
G01Y85500D01*
X143700Y88500D02*
G01Y85500D01*
X137500Y90500D02*
G01X143000D01*
X168500Y144500D02*
G01X164000D01*
X163400Y145900D02*
G01Y148200D01*
X162700Y145900D02*
G01Y148200D01*
X164000Y149500D02*
G01X168500D01*
Y144500*
X162000D02*
G01X157500D01*
Y149500*
X162000*
X154500Y157000D02*
G01Y152500D01*
X149500*
Y157000*
X168500Y139500D02*
G01X164000D01*
X163400Y140900D02*
G01Y143200D01*
X162700Y140900D02*
G01Y143200D01*
X164000Y144500D02*
G01X168500D01*
Y139500*
X162000D02*
G01X157500D01*
Y144500*
X162000*
X149500Y135500D02*
G01Y140000D01*
X150900Y140600D02*
G01X153200D01*
X150900Y141300D02*
G01X153200D01*
X154500Y140000D02*
G01Y135500D01*
X149500*
Y142000D02*
G01Y146500D01*
X154500*
Y142000*
X168500Y134500D02*
G01X164000D01*
X163400Y135900D02*
G01Y138200D01*
X162700Y135900D02*
G01Y138200D01*
X164000Y139500D02*
G01X168500D01*
Y134500*
X162000D02*
G01X157500D01*
Y139500*
X162000*
X156807Y151230D02*
G01Y166766D01*
X169193Y151230D02*
G01X156807D01*
X154500Y163500D02*
G01Y159000D01*
X153100Y158400D02*
G01X150800D01*
X153100Y157700D02*
G01X150800D01*
X149500Y159000D02*
G01Y163500D01*
X154500*
X171000Y175500D02*
G01X166500D01*
Y180500*
X171000*
Y170500D02*
G01X166500D01*
Y175500*
X171000*
X156807Y166766D02*
G01X169193D01*
X155913Y164512D02*
G01Y167661D01*
Y167661D02*
G01X159063D01*
X180500Y43500D02*
G01X176000D01*
X175400Y44900D02*
G01Y47200D01*
X174700Y44900D02*
G01Y47200D01*
X176000Y48500D02*
G01X180500D01*
Y43500*
X174000D02*
G01X169500D01*
Y48500*
X174000*
X180800Y101300D02*
G01Y88700D01*
X169193Y166766D02*
G01Y151230D01*
X177500Y175500D02*
G01X173000D01*
X172400Y176900D02*
G01Y179200D01*
X171700Y176900D02*
G01Y179200D01*
X173000Y180500D02*
G01X177500D01*
Y175500*
Y170500D02*
G01X173000D01*
X172400Y171900D02*
G01Y174200D01*
X171700Y171900D02*
G01Y174200D01*
X173000Y175500D02*
G01X177500D01*
Y170500*
X192500Y181500D02*
G01Y186000D01*
X197500D02*
G01Y181500D01*
X192500*
X187500D02*
G01Y186000D01*
X192500D02*
G01Y181500D01*
X187500*
X198500Y196500D02*
G01X197000D01*
Y211500D02*
G01X199000D01*
X194500Y205000D02*
G01Y210500D01*
X201500*
Y203000D02*
G01Y197500D01*
X201000*
X194500*
Y203000*
X199500Y203600D02*
G01X196500D01*
X199500Y204300D02*
G01X196500D01*
X191500Y196500D02*
G01X190000D01*
Y211500D02*
G01X192000D01*
X191000Y212500D02*
G01Y210500D01*
X187500Y205000D02*
G01Y210500D01*
X194500*
Y203000D02*
G01Y197500D01*
X194000*
X187500*
Y203000*
X192500Y203600D02*
G01X189500D01*
X192500Y204300D02*
G01X189500D01*
X194500Y210500D02*
G01Y205000D01*
X193900Y186600D02*
G01X196200D01*
X193900Y187300D02*
G01X196200D01*
X192500Y188000D02*
G01Y192500D01*
X197500*
Y188000*
X188900Y186600D02*
G01X191200D01*
X188900Y187300D02*
G01X191200D01*
X187500Y188000D02*
G01Y192500D01*
X192500*
Y188000*
X227500Y43500D02*
G01X223000D01*
X222400Y44900D02*
G01Y47200D01*
X221700Y44900D02*
G01Y47200D01*
X223000Y48500D02*
G01X227500D01*
Y43500*
X221000D02*
G01X216500D01*
Y48500*
X221000*
X215200Y96200D02*
G03X215200Y93800J-1200D01*
Y88700D02*
G01Y101300D01*
X226000Y80500D02*
G01X220500D01*
Y81000*
Y87500*
X226000*
X226600Y82500D02*
G01Y85500D01*
X216500Y137500D02*
G01X221000D01*
X221600Y136100D02*
G01Y133800D01*
X222300Y136100D02*
G01Y133800D01*
X221000Y132500D02*
G01X216500D01*
Y137500*
X223000D02*
G01X227500D01*
Y132500*
X223000*
X229100Y165400D02*
G01X226800D01*
X229100Y164700D02*
G01X226800D01*
X225500Y166000D02*
G01Y170500D01*
X230500*
Y164000D02*
G01Y159500D01*
X225500*
Y164000*
X207500Y181500D02*
G01Y186000D01*
X212500D02*
G01Y181500D01*
X207500*
X202500D02*
G01Y186000D01*
X207500D02*
G01Y181500D01*
X202500*
X197500D02*
G01Y186000D01*
X202500D02*
G01Y181500D01*
X197500*
X212500Y196500D02*
G01X211000D01*
Y211500D02*
G01X213000D01*
X212000Y212500D02*
G01Y210500D01*
X208500Y205000D02*
G01Y210500D01*
X215500*
Y203000D02*
G01Y197500D01*
X215000*
X208500*
Y203000*
X213500Y203600D02*
G01X210500D01*
X213500Y204300D02*
G01X210500D01*
X215500Y210500D02*
G01Y205000D01*
X205500Y196500D02*
G01X204000D01*
Y211500D02*
G01X206000D01*
X205000Y212500D02*
G01Y210500D01*
X201500Y205000D02*
G01Y210500D01*
X208500*
Y203000D02*
G01Y197500D01*
X208000*
X201500*
Y203000*
X206500Y203600D02*
G01X203500D01*
X206500Y204300D02*
G01X203500D01*
X208500Y210500D02*
G01Y205000D01*
X198000Y212500D02*
G01Y210500D01*
X201500D02*
G01Y205000D01*
X208900Y186600D02*
G01X211200D01*
X208900Y187300D02*
G01X211200D01*
X207500Y188000D02*
G01Y192500D01*
X212500*
Y188000*
X203900Y186600D02*
G01X206200D01*
X203900Y187300D02*
G01X206200D01*
X202500Y188000D02*
G01Y192500D01*
X207500*
Y188000*
X198900Y186600D02*
G01X201200D01*
X198900Y187300D02*
G01X201200D01*
X197500Y188000D02*
G01Y192500D01*
X202500*
Y188000*
X228000Y87500D02*
G01X233500D01*
Y80500*
X227300Y82500D02*
G01Y85500D01*
X233500Y80500D02*
G01X228000D01*
X252500Y116500D02*
G01Y121000D01*
X253900Y121600D02*
G01X256200D01*
X253900Y122300D02*
G01X256200D01*
X257500Y121000D02*
G01Y116500D01*
X252500*
Y123000D02*
G01Y127500D01*
X257500*
Y123000*
X245500D02*
G01Y128500D01*
X252500*
Y121000D02*
G01Y115500D01*
X252000*
X245500*
Y121000*
X250500Y121600D02*
G01X247500D01*
X250500Y122300D02*
G01X247500D01*
X252500Y128500D02*
G01Y123000D01*
X230500Y170500D02*
G01Y166000D01*
X269500Y43500D02*
G01X265000D01*
X264400Y44900D02*
G01Y47200D01*
X263700Y44900D02*
G01Y47200D01*
X265000Y48500D02*
G01X269500D01*
Y43500*
X263000D02*
G01X258500D01*
Y48500*
X263000*
X305500Y47500D02*
G01X310000D01*
X310600Y46100D02*
G01Y43800D01*
X311300Y46100D02*
G01Y43800D01*
X310000Y42500D02*
G01X305500D01*
Y47500*
X312000D02*
G01X316500D01*
Y42500*
X312000*
X301000Y57000D02*
G01Y73000D01*
X308500Y109000D02*
G01Y114500D01*
X315500*
Y107000D02*
G01Y101500D01*
X315000*
X308500*
Y107000*
X313500Y107600D02*
G01X310500D01*
X313500Y108300D02*
G01X310500D01*
X315500Y114500D02*
G01Y109000D01*
X301500D02*
G01Y114500D01*
X308500*
Y107000D02*
G01Y101500D01*
X308000*
X301500*
Y107000*
X306500Y107600D02*
G01X303500D01*
X306500Y108300D02*
G01X303500D01*
X308500Y114500D02*
G01Y109000D01*
X321000Y57000D02*
G01Y73000D01*
X331500Y63000D02*
G01Y57500D01*
X331000*
X324500*
Y63000*
X329500Y63600D02*
G01X326500D01*
X324000Y76000D02*
G03X324000Y76000I-1500D01*
X324500Y65000D02*
G01Y70500D01*
X331500*
X329500Y64300D02*
G01X326500D01*
X331500Y70500D02*
G01Y65000D01*
X378500Y73500D02*
G01Y78000D01*
X379900Y78600D02*
G01X382200D01*
X379900Y79300D02*
G01X382200D01*
X383500Y78000D02*
G01Y73500D01*
X378500*
Y80000D02*
G01Y84500D01*
X383500*
Y80000*
X388500Y84500D02*
G01Y80000D01*
X387100Y79400D02*
G01X384800D01*
X387100Y78700D02*
G01X384800D01*
X383500Y80000D02*
G01Y84500D01*
X388500*
Y78000D02*
G01Y73500D01*
X383500*
Y78000*
X378500Y146500D02*
G01Y151000D01*
X379900Y151600D02*
G01X382200D01*
X379900Y152300D02*
G01X382200D01*
X383500Y151000D02*
G01Y146500D01*
X378500*
Y153000D02*
G01Y157500D01*
X383500*
Y153000*
X388500Y157500D02*
G01Y153000D01*
X387100Y152400D02*
G01X384800D01*
X387100Y151700D02*
G01X384800D01*
X383500Y153000D02*
G01Y157500D01*
X388500*
Y151000D02*
G01Y146500D01*
X383500*
Y151000*
X404500Y172500D02*
G01Y168000D01*
X403100Y167400D02*
G01X400800D01*
X403100Y166700D02*
G01X400800D01*
X399500Y168000D02*
G01Y172500D01*
X404500*
Y166000D02*
G01Y161500D01*
X399500*
Y166000*
X378500Y220500D02*
G01Y225000D01*
X379900Y225600D02*
G01X382200D01*
X379900Y226300D02*
G01X382200D01*
X383500Y225000D02*
G01Y220500D01*
X378500*
Y227000D02*
G01Y231500D01*
X383500*
Y227000*
X388500Y231500D02*
G01Y227000D01*
X387100Y226400D02*
G01X384800D01*
X387100Y225700D02*
G01X384800D01*
X383500Y227000D02*
G01Y231500D01*
X388500*
Y225000D02*
G01Y220500D01*
X383500*
Y225000*
G54D12*
X7933Y26150D02*
G01Y30150D01*
X9450Y26817*
X10967Y30150*
Y26150*
X12325D02*
G01Y30150D01*
X14775D02*
G01Y26150D01*
Y28150D02*
G01X12325D01*
X16542Y29483D02*
G01X16892Y29883D01*
X17300Y30083*
X17767Y30150*
X18350Y30017*
X18758Y29683*
X18875Y29283*
X18817Y28883*
X18583Y28550*
X17417Y27883*
X16892Y27417*
X16542Y26750*
X16425Y26150*
X18875*
X5467Y115000D02*
G01Y119000D01*
X6633*
X7100Y118800*
X7450Y118533*
X7742Y118133*
X7975Y117667*
X8033Y117000*
X7975Y116333*
X7742Y115867*
X7450Y115467*
X7100Y115200*
X6633Y115000*
X5467*
X11550D02*
G01Y119000D01*
X9392Y116133*
X12308*
X4967Y141000D02*
G01Y145000D01*
X6133*
X6600Y144800*
X6950Y144533*
X7242Y144133*
X7475Y143667*
X7533Y143000*
X7475Y142333*
X7242Y141867*
X6950Y141467*
X6600Y141200*
X6133Y141000*
X4967*
X9067Y141800D02*
G01X9417Y141333D01*
X9883Y141067*
X10408Y141000*
X10875Y141067*
X11342Y141400*
X11633Y141800*
X11692Y142200*
X11575Y142667*
X11167Y143000*
X10758Y143133*
X10233*
X10758D02*
G01X11108Y143333D01*
X11400Y143667*
X11517Y144067*
X11400Y144467*
X11108Y144800*
X10583Y145000*
X10058Y144933*
X9533Y144667*
X5083Y135500D02*
G01Y139500D01*
X6542*
X7008Y139300*
X7300Y139033*
X7417Y138500*
X7300Y137967*
X6950Y137633*
X6542Y137433*
X5083*
X6542D02*
G01X7417Y135500D01*
X9067Y136300D02*
G01X9417Y135833D01*
X9883Y135567*
X10408Y135500*
X10875Y135567*
X11342Y135900*
X11633Y136300*
X11692Y136700*
X11575Y137167*
X11167Y137500*
X10758Y137633*
X10233*
X10758D02*
G01X11108Y137833D01*
X11400Y138167*
X11517Y138567*
X11400Y138967*
X11108Y139300*
X10583Y139500*
X10058Y139433*
X9533Y139167*
X5083Y163000D02*
G01Y167000D01*
X6542*
X7008Y166800*
X7300Y166533*
X7417Y166000*
X7300Y165467*
X6950Y165133*
X6542Y164933*
X5083*
X6542D02*
G01X7417Y163000D01*
X9242Y166333D02*
G01X9592Y166733D01*
X10000Y166933*
X10467Y167000*
X11050Y166867*
X11458Y166533*
X11575Y166133*
X11517Y165733*
X11283Y165400*
X10117Y164733*
X9592Y164267*
X9242Y163600*
X9125Y163000*
X11575*
X10033Y207667D02*
G01X9683Y207867D01*
X9275Y208000*
X8808*
X8283Y207800*
X7875Y207467*
X7583Y207067*
X7350Y206400*
X7292Y205800*
X7408Y205200*
X7583Y204800*
X7933Y204400*
X8342Y204133*
X8750Y204000*
X9158*
X9567Y204133*
X9917Y204333*
X10208Y204600*
X11567Y204800D02*
G01X11917Y204333D01*
X12383Y204067*
X12908Y204000*
X13375Y204067*
X13842Y204400*
X14133Y204800*
X14192Y205200*
X14075Y205667*
X13667Y206000*
X13258Y206133*
X12733*
X13258D02*
G01X13608Y206333D01*
X13900Y206667*
X14017Y207067*
X13900Y207467*
X13608Y207800*
X13083Y208000*
X12558Y207933*
X12033Y207667*
X7733Y210000D02*
G01Y214000D01*
X9250Y210667*
X10767Y214000*
Y210000*
X12125D02*
G01Y214000D01*
X14575D02*
G01Y210000D01*
Y212000D02*
G01X12125D01*
X17450Y210000D02*
G01Y214000D01*
X16750Y213200*
Y210000D02*
G01X18150D01*
X20967Y92500D02*
G01Y96500D01*
X22133*
X22600Y96300*
X22950Y96033*
X23242Y95633*
X23475Y95167*
X23533Y94500*
X23475Y93833*
X23242Y93367*
X22950Y92967*
X22600Y92700*
X22133Y92500*
X20967*
X25067Y93100D02*
G01X25417Y92767D01*
X25825Y92567*
X26350Y92500*
X26875Y92633*
X27283Y92900*
X27575Y93367*
X27633Y93900*
X27517Y94433*
X27225Y94767*
X26817Y95033*
X26408Y95100*
X26000Y95033*
X25475Y94767*
X25650Y96500*
X27225*
X36467Y98000D02*
G01Y95133D01*
X36700Y94533*
X37167Y94133*
X37750Y94000*
X38333Y94133*
X38800Y94533*
X39033Y95133*
Y98000*
X40742Y97333D02*
G01X41092Y97733D01*
X41500Y97933*
X41967Y98000*
X42550Y97867*
X42958Y97533*
X43075Y97133*
X43017Y96733*
X42783Y96400*
X41617Y95733*
X41092Y95267*
X40742Y94600*
X40625Y94000*
X43075*
X30033Y127167D02*
G01X29683Y127367D01*
X29275Y127500*
X28808*
X28283Y127300*
X27875Y126967*
X27583Y126567*
X27350Y125900*
X27292Y125300*
X27408Y124700*
X27583Y124300*
X27933Y123900*
X28342Y123633*
X28750Y123500*
X29158*
X29567Y123633*
X29917Y123833*
X30208Y124100*
X33550Y123500D02*
G01Y127500D01*
X31392Y124633*
X34308*
X21083Y100500D02*
G01Y104500D01*
X22542*
X23008Y104300*
X23300Y104033*
X23417Y103500*
X23300Y102967*
X22950Y102633*
X22542Y102433*
X21083*
X22542D02*
G01X23417Y100500D01*
X27050D02*
G01Y104500D01*
X24892Y101633*
X27808*
X23083Y164500D02*
G01Y160500D01*
X25417*
X28350D02*
G01Y164500D01*
X27650Y163700*
Y160500D02*
G01X29050D01*
X27083Y232800D02*
G01X27375Y232400D01*
X27725Y232133*
X28133Y232000*
X28600Y232133*
X28950Y232400*
X29300Y232800*
X29417Y233333*
Y236000*
X31242Y235333D02*
G01X31592Y235733D01*
X32000Y235933*
X32467Y236000*
X33050Y235867*
X33458Y235533*
X33575Y235133*
X33517Y234733*
X33283Y234400*
X32117Y233733*
X31592Y233267*
X31242Y232600*
X31125Y232000*
X33575*
X71533Y132167D02*
G01X71183Y132367D01*
X70775Y132500*
X70308*
X69783Y132300*
X69375Y131967*
X69083Y131567*
X68850Y130900*
X68792Y130300*
X68908Y129700*
X69083Y129300*
X69433Y128900*
X69842Y128633*
X70250Y128500*
X70658*
X71067Y128633*
X71417Y128833*
X71708Y129100*
X73067D02*
G01X73417Y128767D01*
X73825Y128567*
X74350Y128500*
X74875Y128633*
X75283Y128900*
X75575Y129367*
X75633Y129900*
X75517Y130433*
X75225Y130767*
X74817Y131033*
X74408Y131100*
X74000Y131033*
X73475Y130767*
X73650Y132500*
X75225*
X59033Y132167D02*
G01X58683Y132367D01*
X58275Y132500*
X57808*
X57283Y132300*
X56875Y131967*
X56583Y131567*
X56350Y130900*
X56292Y130300*
X56408Y129700*
X56583Y129300*
X56933Y128900*
X57342Y128633*
X57750Y128500*
X58158*
X58567Y128633*
X58917Y128833*
X59208Y129100*
X60742Y130167D02*
G01X61150Y130633D01*
X61500Y130900*
X61967Y131033*
X62375Y130900*
X62667Y130633*
X62900Y130233*
X62958Y129767*
X62900Y129367*
X62667Y128967*
X62317Y128633*
X61908Y128500*
X61442Y128633*
X61033Y129033*
X60800Y129633*
X60742Y130300*
X60858Y131167*
X61033Y131633*
X61325Y132100*
X61733Y132433*
X62142Y132500*
X62550Y132367*
X62842Y132033*
X63033Y192667D02*
G01X62683Y192867D01*
X62275Y193000*
X61808*
X61283Y192800*
X60875Y192467*
X60583Y192067*
X60350Y191400*
X60292Y190800*
X60408Y190200*
X60583Y189800*
X60933Y189400*
X61342Y189133*
X61750Y189000*
X62158*
X62567Y189133*
X62917Y189333*
X63208Y189600*
X64742Y192333D02*
G01X65092Y192733D01*
X65500Y192933*
X65967Y193000*
X66550Y192867*
X66958Y192533*
X67075Y192133*
X67017Y191733*
X66783Y191400*
X65617Y190733*
X65092Y190267*
X64742Y189600*
X64625Y189000*
X67075*
X48667D02*
G01Y193000D01*
X49833*
X50300Y192800*
X50650Y192533*
X50942Y192133*
X51175Y191667*
X51233Y191000*
X51175Y190333*
X50942Y189867*
X50650Y189467*
X50300Y189200*
X49833Y189000*
X48667*
X52942Y192333D02*
G01X53292Y192733D01*
X53700Y192933*
X54167Y193000*
X54750Y192867*
X55158Y192533*
X55275Y192133*
X55217Y191733*
X54983Y191400*
X53817Y190733*
X53292Y190267*
X52942Y189600*
X52825Y189000*
X55275*
X88033Y78667D02*
G01X87683Y78867D01*
X87275Y79000*
X86808*
X86283Y78800*
X85875Y78467*
X85583Y78067*
X85350Y77400*
X85292Y76800*
X85408Y76200*
X85583Y75800*
X85933Y75400*
X86342Y75133*
X86750Y75000*
X87158*
X87567Y75133*
X87917Y75333*
X88208Y75600*
X90850Y75000D02*
G01X91258Y75067D01*
X91725Y75267*
X92017Y75600*
X92133Y76067*
X92017Y76533*
X91667Y76933*
X91142Y77133*
X90558*
X90208Y77267*
X89917Y77600*
X89800Y78067*
X89975Y78533*
X90383Y78867*
X90850Y79000*
X91317Y78867*
X91725Y78533*
X91900Y78067*
X91783Y77600*
X91492Y77267*
X91142Y77133*
X90558*
X90033Y76933*
X89683Y76533*
X89567Y76067*
X89683Y75600*
X89975Y75267*
X90442Y75067*
X90850Y75000*
X99917Y67700D02*
G01X99625Y68100D01*
X99275Y68367*
X98867Y68500*
X98400Y68367*
X98050Y68100*
X97700Y67700*
X97583Y67167*
Y64500*
X94650Y68500D02*
G01Y64500D01*
X95350Y65300*
Y68500D02*
G01X93950D01*
X91658Y66833D02*
G01X91250Y66367D01*
X90900Y66100*
X90433Y65967*
X90025Y66100*
X89733Y66367*
X89500Y66767*
X89442Y67233*
X89500Y67633*
X89733Y68033*
X90083Y68367*
X90492Y68500*
X90958Y68367*
X91367Y67967*
X91600Y67367*
X91658Y66700*
X91542Y65833*
X91367Y65367*
X91075Y64900*
X90667Y64567*
X90258Y64500*
X89850Y64633*
X89558Y64967*
X87033Y117167D02*
G01X86683Y117367D01*
X86275Y117500*
X85808*
X85283Y117300*
X84875Y116967*
X84583Y116567*
X84350Y115900*
X84292Y115300*
X84408Y114700*
X84583Y114300*
X84933Y113900*
X85342Y113633*
X85750Y113500*
X86158*
X86567Y113633*
X86917Y113833*
X87208Y114100*
X89733Y113500D02*
G01X89850Y114367D01*
X90025Y115100*
X90258Y115767*
X90550Y116500*
X91017Y117500*
X88683*
X99733Y105567D02*
G01X99383Y105767D01*
X98975Y105900*
X98508*
X97983Y105700*
X97575Y105367*
X97283Y104967*
X97050Y104300*
X96992Y103700*
X97108Y103100*
X97283Y102700*
X97633Y102300*
X98042Y102033*
X98450Y101900*
X98858*
X99267Y102033*
X99617Y102233*
X99908Y102500*
X101267Y102700D02*
G01X101617Y102233D01*
X102083Y101967*
X102608Y101900*
X103075Y101967*
X103542Y102300*
X103833Y102700*
X103892Y103100*
X103775Y103567*
X103367Y103900*
X102958Y104033*
X102433*
X102958D02*
G01X103308Y104233D01*
X103600Y104567*
X103717Y104967*
X103600Y105367*
X103308Y105700*
X102783Y105900*
X102258Y105833*
X101733Y105567*
X107350Y101900D02*
G01Y105900D01*
X105192Y103033*
X108108*
X100233Y112067D02*
G01X99883Y112267D01*
X99475Y112400*
X99008*
X98483Y112200*
X98075Y111867*
X97783Y111467*
X97550Y110800*
X97492Y110200*
X97608Y109600*
X97783Y109200*
X98133Y108800*
X98542Y108533*
X98950Y108400*
X99358*
X99767Y108533*
X100117Y108733*
X100408Y109000*
X103050Y108400D02*
G01Y112400D01*
X102350Y111600*
Y108400D02*
G01X103750D01*
X105867Y109000D02*
G01X106217Y108667D01*
X106625Y108467*
X107150Y108400*
X107675Y108533*
X108083Y108800*
X108375Y109267*
X108433Y109800*
X108317Y110333*
X108025Y110667*
X107617Y110933*
X107208Y111000*
X106800Y110933*
X106275Y110667*
X106450Y112400*
X108025*
X111250D02*
G01X110783Y112267D01*
X110433Y111933*
X110200Y111533*
X110025Y111000*
X109967Y110400*
X110025Y109800*
X110200Y109267*
X110433Y108867*
X110783Y108533*
X111250Y108400*
X111717Y108533*
X112067Y108867*
X112300Y109267*
X112475Y109800*
X112533Y110400*
X112475Y111000*
X112300Y111533*
X112067Y111933*
X111717Y112267*
X111250Y112400*
X86583Y148133D02*
G01X86233Y148333D01*
X85825Y148466*
X85358*
X84833Y148266*
X84425Y147933*
X84133Y147533*
X83900Y146866*
X83842Y146266*
X83958Y145666*
X84133Y145266*
X84483Y144866*
X84892Y144599*
X85300Y144466*
X85708*
X86117Y144599*
X86467Y144799*
X86758Y145066*
X88292Y147799D02*
G01X88642Y148199D01*
X89050Y148399*
X89517Y148466*
X90100Y148333*
X90508Y147999*
X90625Y147599*
X90567Y147199*
X90333Y146866*
X89167Y146199*
X88642Y145733*
X88292Y145066*
X88175Y144466*
X90625*
X92392Y146133D02*
G01X92800Y146599D01*
X93150Y146866*
X93617Y146999*
X94025Y146866*
X94317Y146599*
X94550Y146199*
X94608Y145733*
X94550Y145333*
X94317Y144933*
X93967Y144599*
X93558Y144466*
X93092Y144599*
X92683Y144999*
X92450Y145599*
X92392Y146266*
X92508Y147133*
X92683Y147599*
X92975Y148066*
X93383Y148399*
X93792Y148466*
X94200Y148333*
X94492Y147999*
X84083Y153000D02*
G01Y157000D01*
X85542*
X86008Y156800*
X86300Y156533*
X86417Y156000*
X86300Y155467*
X85950Y155133*
X85542Y154933*
X84083*
X85542D02*
G01X86417Y153000D01*
X88067Y153600D02*
G01X88417Y153267D01*
X88825Y153067*
X89350Y153000*
X89875Y153133*
X90283Y153400*
X90575Y153867*
X90633Y154400*
X90517Y154933*
X90225Y155267*
X89817Y155533*
X89408Y155600*
X89000Y155533*
X88475Y155267*
X88650Y157000*
X90225*
X90117Y134000D02*
G01Y131133D01*
X90350Y130533*
X90817Y130133*
X91400Y130000*
X91983Y130133*
X92450Y130533*
X92683Y131133*
Y134000*
X95500Y130000D02*
G01Y134000D01*
X94800Y133200*
Y130000D02*
G01X96200D01*
X99600D02*
G01Y134000D01*
X98900Y133200*
Y130000D02*
G01X100300D01*
X88083Y183500D02*
G01Y187500D01*
X89542*
X90008Y187300*
X90300Y187033*
X90417Y186500*
X90300Y185967*
X89950Y185633*
X89542Y185433*
X88083*
X89542D02*
G01X90417Y183500D01*
X93350D02*
G01Y187500D01*
X92650Y186700*
Y183500D02*
G01X94050D01*
X84133Y158966D02*
G01Y162966D01*
X85592*
X86058Y162766*
X86350Y162499*
X86467Y161966*
X86350Y161433*
X86000Y161099*
X85592Y160899*
X84133*
X85592D02*
G01X86467Y158966D01*
X88292Y160633D02*
G01X88700Y161099D01*
X89050Y161366*
X89517Y161499*
X89925Y161366*
X90217Y161099*
X90450Y160699*
X90508Y160233*
X90450Y159833*
X90217Y159433*
X89867Y159099*
X89458Y158966*
X88992Y159099*
X88583Y159499*
X88350Y160099*
X88292Y160766*
X88408Y161633*
X88583Y162099*
X88875Y162566*
X89283Y162899*
X89692Y162966*
X90100Y162833*
X90392Y162499*
X90533Y192667D02*
G01X90183Y192867D01*
X89775Y193000*
X89308*
X88783Y192800*
X88375Y192467*
X88083Y192067*
X87850Y191400*
X87792Y190800*
X87908Y190200*
X88083Y189800*
X88433Y189400*
X88842Y189133*
X89250Y189000*
X89658*
X90067Y189133*
X90417Y189333*
X90708Y189600*
X93350Y189000D02*
G01Y193000D01*
X92650Y192200*
Y189000D02*
G01X94050D01*
X88583Y218800D02*
G01X88875Y218400D01*
X89225Y218133*
X89633Y218000*
X90100Y218133*
X90450Y218400*
X90800Y218800*
X90917Y219333*
Y222000*
X93850Y218000D02*
G01Y222000D01*
X93150Y221200*
Y218000D02*
G01X94550D01*
X88667Y229000D02*
G01Y233000D01*
X89833*
X90300Y232800*
X90650Y232533*
X90942Y232133*
X91175Y231667*
X91233Y231000*
X91175Y230333*
X90942Y229867*
X90650Y229467*
X90300Y229200*
X89833Y229000*
X88667*
X94050D02*
G01Y233000D01*
X93350Y232200*
Y229000D02*
G01X94750D01*
X134767Y78433D02*
G01X135117Y78233D01*
X135525Y78100*
X135992*
X136517Y78300*
X136925Y78633*
X137217Y79033*
X137450Y79700*
X137508Y80300*
X137392Y80900*
X137217Y81300*
X136867Y81700*
X136458Y81967*
X136050Y82100*
X135642*
X135233Y81967*
X134883Y81767*
X134592Y81500*
X131950Y82100D02*
G01Y78100D01*
X132650Y78900*
Y82100D02*
G01X131250D01*
X127150D02*
G01Y78100D01*
X129308Y80967*
X126392*
X123750Y82100D02*
G01X123342Y82033D01*
X122875Y81833*
X122583Y81500*
X122467Y81033*
X122583Y80567*
X122933Y80167*
X123458Y79967*
X124042*
X124392Y79833*
X124683Y79500*
X124800Y79033*
X124625Y78567*
X124217Y78233*
X123750Y78100*
X123283Y78233*
X122875Y78567*
X122700Y79033*
X122817Y79500*
X123108Y79833*
X123458Y79967*
X124042*
X124567Y80167*
X124917Y80567*
X125033Y81033*
X124917Y81500*
X124625Y81833*
X124158Y82033*
X123750Y82100*
X140233Y95567D02*
G01X139883Y95767D01*
X139475Y95900*
X139008*
X138483Y95700*
X138075Y95367*
X137783Y94967*
X137550Y94300*
X137492Y93700*
X137608Y93100*
X137783Y92700*
X138133Y92300*
X138542Y92033*
X138950Y91900*
X139358*
X139767Y92033*
X140117Y92233*
X140408Y92500*
X143050Y91900D02*
G01Y95900D01*
X142350Y95100*
Y91900D02*
G01X143750D01*
X147850D02*
G01Y95900D01*
X145692Y93033*
X148608*
X150258Y92367D02*
G01X150667Y92033D01*
X151133Y91900*
X151600Y92033*
X152008Y92433*
X152300Y93033*
X152417Y93633*
Y94367*
X152300Y94967*
X152008Y95500*
X151658Y95767*
X151250Y95900*
X150783Y95767*
X150433Y95500*
X150200Y95100*
X150083Y94567*
X150200Y94100*
X150492Y93633*
X150842Y93367*
X151250Y93300*
X151717Y93433*
X152067Y93767*
X152417Y94367*
X124967Y126000D02*
G01Y123133D01*
X125200Y122533*
X125667Y122133*
X126250Y122000*
X126833Y122133*
X127300Y122533*
X127533Y123133*
Y126000*
X130350Y122000D02*
G01Y126000D01*
X129650Y125200*
Y122000D02*
G01X131050D01*
X133342Y125333D02*
G01X133692Y125733D01*
X134100Y125933*
X134567Y126000*
X135150Y125867*
X135558Y125533*
X135675Y125133*
X135617Y124733*
X135383Y124400*
X134217Y123733*
X133692Y123267*
X133342Y122600*
X133225Y122000*
X135675*
X138750Y153000D02*
G01Y154800D01*
X137583Y157000*
X139917D02*
G01X138750Y154800D01*
X142850Y153000D02*
G01Y157000D01*
X142150Y156200*
Y153000D02*
G01X143550D01*
X132717Y144633D02*
G01X132950Y144833D01*
X133125Y145167*
X133242Y145633*
X133125Y146033*
X132892Y146300*
X132483Y146500*
X130908*
Y142500*
X132833*
X133242Y142767*
X133475Y143167*
X133592Y143633*
X133475Y144100*
X133125Y144500*
X132717Y144633*
X130908*
X136350Y142500D02*
G01Y146500D01*
X135650Y145700*
Y142500D02*
G01X137050D01*
X132550Y186500D02*
G01X133950D01*
X133250D02*
G01Y182500D01*
X132550D02*
G01X133950D01*
X137350D02*
G01X137000Y182567D01*
X136650Y182833*
X136417Y183300*
X136300Y183833*
X136417Y184367*
X136650Y184833*
X137000Y185100*
X137350Y185167*
X137700Y185100*
X138050Y184833*
X138283Y184367*
X138342Y183833*
X138283Y183300*
X138050Y182833*
X137700Y182567*
X137350Y182500*
X141450Y186500D02*
G01Y182500D01*
X140108Y186500D02*
G01X142792D01*
X148308Y182500D02*
G01Y186500D01*
X150992Y182500*
Y186500*
X153750Y182500D02*
G01X153400Y182567D01*
X153050Y182833*
X152817Y183300*
X152700Y183833*
X152817Y184367*
X153050Y184833*
X153400Y185100*
X153750Y185167*
X154100Y185100*
X154450Y184833*
X154683Y184367*
X154742Y183833*
X154683Y183300*
X154450Y182833*
X154100Y182567*
X153750Y182500*
X158900Y186500D02*
G01Y182500D01*
Y183100D02*
G01X158667Y182767D01*
X158317Y182567*
X157908Y182500*
X157442Y182633*
X157092Y182967*
X156858Y183367*
X156800Y183833*
X156858Y184300*
X157092Y184700*
X157442Y185033*
X157908Y185167*
X158317Y185100*
X158608Y184967*
X158900Y184700*
X161075Y184300D02*
G01X162942D01*
X162767Y184767*
X162475Y185033*
X162067Y185167*
X161658Y185100*
X161308Y184900*
X161075Y184433*
X160958Y184033*
Y183633*
X161075Y183233*
X161367Y182833*
X161717Y182567*
X162125Y182500*
X162533Y182633*
X162942Y183033*
X169100Y185167D02*
G01X170150Y182500D01*
X171200Y185167*
X174250Y182500D02*
G01Y186500D01*
X173550Y185700*
Y182500D02*
G01X174950D01*
X178350Y182367D02*
G01X178233Y182433D01*
Y182567*
X178350Y182633*
X178467Y182567*
Y182433*
X178350Y182367*
X182450Y186500D02*
G01X181983Y186367D01*
X181633Y186033*
X181400Y185633*
X181225Y185100*
X181167Y184500*
X181225Y183900*
X181400Y183367*
X181633Y182967*
X181983Y182633*
X182450Y182500*
X182917Y182633*
X183267Y182967*
X183500Y183367*
X183675Y183900*
X183733Y184500*
X183675Y185100*
X183500Y185633*
X183267Y186033*
X182917Y186367*
X182450Y186500*
X139533Y163667D02*
G01X139183Y163867D01*
X138775Y164000*
X138308*
X137783Y163800*
X137375Y163467*
X137083Y163067*
X136850Y162400*
X136792Y161800*
X136908Y161200*
X137083Y160800*
X137433Y160400*
X137842Y160133*
X138250Y160000*
X138658*
X139067Y160133*
X139417Y160333*
X139708Y160600*
X142350Y160000D02*
G01Y164000D01*
X141650Y163200*
Y160000D02*
G01X143050D01*
X147150D02*
G01Y164000D01*
X144992Y161133*
X147908*
X122133Y168466D02*
G01Y172466D01*
X123592*
X124058Y172266*
X124350Y171999*
X124467Y171466*
X124350Y170933*
X124000Y170599*
X123592Y170399*
X122133*
X123592D02*
G01X124467Y168466D01*
X126292Y171799D02*
G01X126642Y172199D01*
X127050Y172399*
X127517Y172466*
X128100Y172333*
X128508Y171999*
X128625Y171599*
X128567Y171199*
X128333Y170866*
X127167Y170199*
X126642Y169733*
X126292Y169066*
X126175Y168466*
X128625*
X130392Y170133D02*
G01X130800Y170599D01*
X131150Y170866*
X131617Y170999*
X132025Y170866*
X132317Y170599*
X132550Y170199*
X132608Y169733*
X132550Y169333*
X132317Y168933*
X131967Y168599*
X131558Y168466*
X131092Y168599*
X130683Y168999*
X130450Y169599*
X130392Y170266*
X130508Y171133*
X130683Y171599*
X130975Y172066*
X131383Y172399*
X131792Y172466*
X132200Y172333*
X132492Y171999*
X108133Y168466D02*
G01Y172466D01*
X109592*
X110058Y172266*
X110350Y171999*
X110467Y171466*
X110350Y170933*
X110000Y170599*
X109592Y170399*
X108133*
X109592D02*
G01X110467Y168466D01*
X112292Y171799D02*
G01X112642Y172199D01*
X113050Y172399*
X113517Y172466*
X114100Y172333*
X114508Y171999*
X114625Y171599*
X114567Y171199*
X114333Y170866*
X113167Y170199*
X112642Y169733*
X112292Y169066*
X112175Y168466*
X114625*
X117383D02*
G01X117500Y169333D01*
X117675Y170066*
X117908Y170733*
X118200Y171466*
X118667Y172466*
X116333*
X160034Y39633D02*
G01X156034D01*
Y41092*
X156234Y41558*
X156501Y41850*
X157034Y41967*
X157567Y41850*
X157901Y41500*
X158101Y41092*
Y39633*
Y41092D02*
G01X160034Y41967D01*
X156701Y43792D02*
G01X156301Y44142D01*
X156101Y44550*
X156034Y45017*
X156167Y45600*
X156501Y46008*
X156901Y46125*
X157301Y46067*
X157634Y45833*
X158301Y44667*
X158767Y44142*
X159434Y43792*
X160034Y43675*
Y46125*
Y49000D02*
G01X156034D01*
X156834Y48300*
X160034D02*
G01Y49700D01*
X166500Y39467D02*
G01X162500D01*
Y40633*
X162700Y41100*
X162967Y41450*
X163367Y41742*
X163833Y41975*
X164500Y42033*
X165167Y41975*
X165633Y41742*
X166033Y41450*
X166300Y41100*
X166500Y40633*
Y39467*
Y44850D02*
G01X162500D01*
X163300Y44150*
X166500D02*
G01Y45550D01*
X164833Y47842D02*
G01X164367Y48250D01*
X164100Y48600*
X163967Y49067*
X164100Y49475*
X164367Y49767*
X164767Y50000*
X165233Y50058*
X165633Y50000*
X166033Y49767*
X166367Y49417*
X166500Y49008*
X166367Y48542*
X165967Y48133*
X165367Y47900*
X164700Y47842*
X163833Y47958*
X163367Y48133*
X162900Y48425*
X162567Y48833*
X162500Y49242*
X162633Y49650*
X162967Y49942*
X153233Y95567D02*
G01X152883Y95767D01*
X152475Y95900*
X152008*
X151483Y95700*
X151075Y95367*
X150783Y94967*
X150550Y94300*
X150492Y93700*
X150608Y93100*
X150783Y92700*
X151133Y92300*
X151542Y92033*
X151950Y91900*
X152358*
X152767Y92033*
X153117Y92233*
X153408Y92500*
X154767Y92700D02*
G01X155117Y92233D01*
X155583Y91967*
X156108Y91900*
X156575Y91967*
X157042Y92300*
X157333Y92700*
X157392Y93100*
X157275Y93567*
X156867Y93900*
X156458Y94033*
X155933*
X156458D02*
G01X156808Y94233D01*
X157100Y94567*
X157217Y94967*
X157100Y95367*
X156808Y95700*
X156283Y95900*
X155758Y95833*
X155233Y95567*
X158867Y92500D02*
G01X159217Y92167D01*
X159625Y91967*
X160150Y91900*
X160675Y92033*
X161083Y92300*
X161375Y92767*
X161433Y93300*
X161317Y93833*
X161025Y94167*
X160617Y94433*
X160208Y94500*
X159800Y94433*
X159275Y94167*
X159450Y95900*
X161025*
X168533Y127167D02*
G01X168183Y127367D01*
X167775Y127500*
X167308*
X166783Y127300*
X166375Y126967*
X166083Y126567*
X165850Y125900*
X165792Y125300*
X165908Y124700*
X166083Y124300*
X166433Y123900*
X166842Y123633*
X167250Y123500*
X167658*
X168067Y123633*
X168417Y123833*
X168708Y124100*
X171350Y123500D02*
G01Y127500D01*
X170650Y126700*
Y123500D02*
G01X172050D01*
X175450Y127500D02*
G01X174983Y127367D01*
X174633Y127033*
X174400Y126633*
X174225Y126100*
X174167Y125500*
X174225Y124900*
X174400Y124367*
X174633Y123967*
X174983Y123633*
X175450Y123500*
X175917Y123633*
X176267Y123967*
X176500Y124367*
X176675Y124900*
X176733Y125500*
X176675Y126100*
X176500Y126633*
X176267Y127033*
X175917Y127367*
X175450Y127500*
X149333Y125033D02*
G01X149133Y124683D01*
X149000Y124275*
Y123808*
X149200Y123283*
X149533Y122875*
X149933Y122583*
X150600Y122350*
X151200Y122292*
X151800Y122408*
X152200Y122583*
X152600Y122933*
X152867Y123342*
X153000Y123750*
Y124158*
X152867Y124567*
X152667Y124917*
X152400Y125208*
X153000Y127850D02*
G01X149000D01*
X149800Y127150*
X153000D02*
G01Y128550D01*
Y131950D02*
G01X152933Y132358D01*
X152733Y132825*
X152400Y133117*
X151933Y133233*
X151467Y133117*
X151067Y132767*
X150867Y132242*
Y131658*
X150733Y131308*
X150400Y131017*
X149933Y130900*
X149467Y131075*
X149133Y131483*
X149000Y131950*
X149133Y132417*
X149467Y132825*
X149933Y133000*
X150400Y132883*
X150733Y132592*
X150867Y132242*
Y131658*
X151067Y131133*
X151467Y130783*
X151933Y130667*
X152400Y130783*
X152733Y131075*
X152933Y131542*
X153000Y131950*
X166583Y118000D02*
G01Y122000D01*
X168042*
X168508Y121800*
X168800Y121533*
X168917Y121000*
X168800Y120467*
X168450Y120133*
X168042Y119933*
X166583*
X168042D02*
G01X168917Y118000D01*
X171850D02*
G01Y122000D01*
X171150Y121200*
Y118000D02*
G01X172550D01*
X174842Y121333D02*
G01X175192Y121733D01*
X175600Y121933*
X176067Y122000*
X176650Y121867*
X177058Y121533*
X177175Y121133*
X177117Y120733*
X176883Y120400*
X175717Y119733*
X175192Y119267*
X174842Y118600*
X174725Y118000*
X177175*
X168533Y132667D02*
G01X168183Y132867D01*
X167775Y133000*
X167308*
X166783Y132800*
X166375Y132467*
X166083Y132067*
X165850Y131400*
X165792Y130800*
X165908Y130200*
X166083Y129800*
X166433Y129400*
X166842Y129133*
X167250Y129000*
X167658*
X168067Y129133*
X168417Y129333*
X168708Y129600*
X171350Y129000D02*
G01Y133000D01*
X170650Y132200*
Y129000D02*
G01X172050D01*
X174167Y129600D02*
G01X174517Y129267D01*
X174925Y129067*
X175450Y129000*
X175975Y129133*
X176383Y129400*
X176675Y129867*
X176733Y130400*
X176617Y130933*
X176325Y131267*
X175917Y131533*
X175508Y131600*
X175100Y131533*
X174575Y131267*
X174750Y133000*
X176325*
X149033Y180167D02*
G01X148683Y180367D01*
X148275Y180500*
X147808*
X147283Y180300*
X146875Y179967*
X146583Y179567*
X146350Y178900*
X146292Y178300*
X146408Y177700*
X146583Y177300*
X146933Y176900*
X147342Y176633*
X147750Y176500*
X148158*
X148567Y176633*
X148917Y176833*
X149208Y177100*
X150858Y176967D02*
G01X151267Y176633D01*
X151733Y176500*
X152200Y176633*
X152608Y177033*
X152900Y177633*
X153017Y178233*
Y178967*
X152900Y179567*
X152608Y180100*
X152258Y180367*
X151850Y180500*
X151383Y180367*
X151033Y180100*
X150800Y179700*
X150683Y179167*
X150800Y178700*
X151092Y178233*
X151442Y177967*
X151850Y177900*
X152317Y178033*
X152667Y178367*
X153017Y178967*
X148533Y174167D02*
G01X148183Y174367D01*
X147775Y174500*
X147308*
X146783Y174300*
X146375Y173967*
X146083Y173567*
X145850Y172900*
X145792Y172300*
X145908Y171700*
X146083Y171300*
X146433Y170900*
X146842Y170633*
X147250Y170500*
X147658*
X148067Y170633*
X148417Y170833*
X148708Y171100*
X151350Y170500D02*
G01Y174500D01*
X150650Y173700*
Y170500D02*
G01X152050D01*
X155450D02*
G01Y174500D01*
X154750Y173700*
Y170500D02*
G01X156150D01*
X170083Y4300D02*
G01X170375Y3900D01*
X170725Y3633*
X171133Y3500*
X171600Y3633*
X171950Y3900*
X172300Y4300*
X172417Y4833*
Y7500*
X175350Y3500D02*
G01Y7500D01*
X174650Y6700*
Y3500D02*
G01X176050D01*
X178342Y6833D02*
G01X178692Y7233D01*
X179100Y7433*
X179567Y7500*
X180150Y7367*
X180558Y7033*
X180675Y6633*
X180617Y6233*
X180383Y5900*
X179217Y5233*
X178692Y4767*
X178342Y4100*
X178225Y3500*
X180675*
X172467Y77000D02*
G01Y74133D01*
X172700Y73533*
X173167Y73133*
X173750Y73000*
X174333Y73133*
X174800Y73533*
X175033Y74133*
Y77000*
X176858Y73467D02*
G01X177267Y73133D01*
X177733Y73000*
X178200Y73133*
X178608Y73533*
X178900Y74133*
X179017Y74733*
Y75467*
X178900Y76067*
X178608Y76600*
X178258Y76867*
X177850Y77000*
X177383Y76867*
X177033Y76600*
X176800Y76200*
X176683Y75667*
X176800Y75200*
X177092Y74733*
X177442Y74467*
X177850Y74400*
X178317Y74533*
X178667Y74867*
X179017Y75467*
X178967Y174000D02*
G01Y171133D01*
X179200Y170533*
X179667Y170133*
X180250Y170000*
X180833Y170133*
X181300Y170533*
X181533Y171133*
Y174000*
X183067Y170800D02*
G01X183417Y170333D01*
X183883Y170067*
X184408Y170000*
X184875Y170067*
X185342Y170400*
X185633Y170800*
X185692Y171200*
X185575Y171667*
X185167Y172000*
X184758Y172133*
X184233*
X184758D02*
G01X185108Y172333D01*
X185400Y172667*
X185517Y173067*
X185400Y173467*
X185108Y173800*
X184583Y174000*
X184058Y173933*
X183533Y173667*
X196083Y227300D02*
G01X196375Y226900D01*
X196725Y226633*
X197133Y226500*
X197600Y226633*
X197950Y226900*
X198300Y227300*
X198417Y227833*
Y230500*
X200067Y227300D02*
G01X200417Y226833D01*
X200883Y226567*
X201408Y226500*
X201875Y226567*
X202342Y226900*
X202633Y227300*
X202692Y227700*
X202575Y228167*
X202167Y228500*
X201758Y228633*
X201233*
X201758D02*
G01X202108Y228833D01*
X202400Y229167*
X202517Y229567*
X202400Y229967*
X202108Y230300*
X201583Y230500*
X201058Y230433*
X200533Y230167*
X211583Y4300D02*
G01X211875Y3900D01*
X212225Y3633*
X212633Y3500*
X213100Y3633*
X213450Y3900*
X213800Y4300*
X213917Y4833*
Y7500*
X216850Y3500D02*
G01Y7500D01*
X216150Y6700*
Y3500D02*
G01X217550D01*
X220950Y7500D02*
G01X220483Y7367D01*
X220133Y7033*
X219900Y6633*
X219725Y6100*
X219667Y5500*
X219725Y4900*
X219900Y4367*
X220133Y3967*
X220483Y3633*
X220950Y3500*
X221417Y3633*
X221767Y3967*
X222000Y4367*
X222175Y4900*
X222233Y5500*
X222175Y6100*
X222000Y6633*
X221767Y7033*
X221417Y7367*
X220950Y7500*
X209500Y40583D02*
G01X205500D01*
Y42042*
X205700Y42508*
X205967Y42800*
X206500Y42917*
X207033Y42800*
X207367Y42450*
X207567Y42042*
Y40583*
Y42042D02*
G01X209500Y42917D01*
Y45850D02*
G01X205500D01*
X206300Y45150*
X209500D02*
G01Y46550D01*
X209033Y48958D02*
G01X209367Y49367D01*
X209500Y49833*
X209367Y50300*
X208967Y50708*
X208367Y51000*
X207767Y51117*
X207033*
X206433Y51000*
X205900Y50708*
X205633Y50358*
X205500Y49950*
X205633Y49483*
X205900Y49133*
X206300Y48900*
X206833Y48783*
X207300Y48900*
X207767Y49192*
X208033Y49542*
X208100Y49950*
X207967Y50417*
X207633Y50767*
X207033Y51117*
X214500Y40467D02*
G01X210500D01*
Y41633*
X210700Y42100*
X210967Y42450*
X211367Y42742*
X211833Y42975*
X212500Y43033*
X213167Y42975*
X213633Y42742*
X214033Y42450*
X214300Y42100*
X214500Y41633*
Y40467*
Y45850D02*
G01X210500D01*
X211300Y45150*
X214500D02*
G01Y46550D01*
Y50650D02*
G01X210500D01*
X213367Y48492*
Y51408*
X216967Y77000D02*
G01Y74133D01*
X217200Y73533*
X217667Y73133*
X218250Y73000*
X218833Y73133*
X219300Y73533*
X219533Y74133*
Y77000*
X222350Y73000D02*
G01X222758Y73067D01*
X223225Y73267*
X223517Y73600*
X223633Y74067*
X223517Y74533*
X223167Y74933*
X222642Y75133*
X222058*
X221708Y75267*
X221417Y75600*
X221300Y76067*
X221475Y76533*
X221883Y76867*
X222350Y77000*
X222817Y76867*
X223225Y76533*
X223400Y76067*
X223283Y75600*
X222992Y75267*
X222642Y75133*
X222058*
X221533Y74933*
X221183Y74533*
X221067Y74067*
X221183Y73600*
X221475Y73267*
X221942Y73067*
X222350Y73000*
X209667Y114000D02*
G01Y111133D01*
X209900Y110533*
X210367Y110133*
X210950Y110000*
X211533Y110133*
X212000Y110533*
X212233Y111133*
Y114000*
X214933Y110000D02*
G01X215050Y110867D01*
X215225Y111600*
X215458Y112267*
X215750Y113000*
X216217Y114000*
X213883*
X219533Y130167D02*
G01X219183Y130367D01*
X218775Y130500*
X218308*
X217783Y130300*
X217375Y129967*
X217083Y129567*
X216850Y128900*
X216792Y128300*
X216908Y127700*
X217083Y127300*
X217433Y126900*
X217842Y126633*
X218250Y126500*
X218658*
X219067Y126633*
X219417Y126833*
X219708Y127100*
X222350Y126500D02*
G01Y130500D01*
X221650Y129700*
Y126500D02*
G01X223050D01*
X225342Y129833D02*
G01X225692Y130233D01*
X226100Y130433*
X226567Y130500*
X227150Y130367*
X227558Y130033*
X227675Y129633*
X227617Y129233*
X227383Y128900*
X226217Y128233*
X225692Y127767*
X225342Y127100*
X225225Y126500*
X227675*
X228533Y156667D02*
G01X228183Y156867D01*
X227775Y157000*
X227308*
X226783Y156800*
X226375Y156467*
X226083Y156067*
X225850Y155400*
X225792Y154800*
X225908Y154200*
X226083Y153800*
X226433Y153400*
X226842Y153133*
X227250Y153000*
X227658*
X228067Y153133*
X228417Y153333*
X228708Y153600*
X231350Y153000D02*
G01Y157000D01*
X230650Y156200*
Y153000D02*
G01X232050D01*
X234167Y153800D02*
G01X234517Y153333D01*
X234983Y153067*
X235508Y153000*
X235975Y153067*
X236442Y153400*
X236733Y153800*
X236792Y154200*
X236675Y154667*
X236267Y155000*
X235858Y155133*
X235333*
X235858D02*
G01X236208Y155333D01*
X236500Y155667*
X236617Y156067*
X236500Y156467*
X236208Y156800*
X235683Y157000*
X235158Y156933*
X234633Y156667*
X230500Y182083D02*
G01X226500D01*
Y183542*
X226700Y184008*
X226967Y184300*
X227500Y184417*
X228033Y184300*
X228367Y183950*
X228567Y183542*
Y182083*
Y183542D02*
G01X230500Y184417D01*
Y187350D02*
G01X226500D01*
X227300Y186650*
X230500D02*
G01Y188050D01*
X226500Y191450D02*
G01X226633Y190983D01*
X226967Y190633*
X227367Y190400*
X227900Y190225*
X228500Y190167*
X229100Y190225*
X229633Y190400*
X230033Y190633*
X230367Y190983*
X230500Y191450*
X230367Y191917*
X230033Y192267*
X229633Y192500*
X229100Y192675*
X228500Y192733*
X227900Y192675*
X227367Y192500*
X226967Y192267*
X226633Y191917*
X226500Y191450*
X224500Y182083D02*
G01X220500D01*
Y183542*
X220700Y184008*
X220967Y184300*
X221500Y184417*
X222033Y184300*
X222367Y183950*
X222567Y183542*
Y182083*
Y183542D02*
G01X224500Y184417D01*
Y187350D02*
G01X220500D01*
X221300Y186650*
X224500D02*
G01Y188050D01*
Y191450D02*
G01X220500D01*
X221300Y190750*
X224500D02*
G01Y192150D01*
X218500Y182083D02*
G01X214500D01*
Y183542*
X214700Y184008*
X214967Y184300*
X215500Y184417*
X216033Y184300*
X216367Y183950*
X216567Y183542*
Y182083*
Y183542D02*
G01X218500Y184417D01*
Y187233D02*
G01X217633Y187350D01*
X216900Y187525*
X216233Y187758*
X215500Y188050*
X214500Y188517*
Y186183*
X207467Y216300D02*
G01X207817Y215833D01*
X208283Y215567*
X208808Y215500*
X209275Y215567*
X209742Y215900*
X210033Y216300*
X210092Y216700*
X209975Y217167*
X209567Y217500*
X209158Y217633*
X208633*
X209158D02*
G01X209508Y217833D01*
X209800Y218167*
X209917Y218567*
X209800Y218967*
X209508Y219300*
X208983Y219500*
X208458Y219433*
X207933Y219167*
X211392Y219500D02*
G01X212850Y215500D01*
X214308Y219500*
X219183Y217833D02*
G01X218775Y218100D01*
X218425Y218167*
X217958Y218033*
X217608Y217767*
X217375Y217300*
X217317Y216833*
X217375Y216367*
X217608Y215967*
X217958Y215633*
X218425Y215500*
X218833Y215633*
X219183Y215900*
X221358Y215500D02*
G01Y219500D01*
X223225Y218167D02*
G01X221358Y216633D01*
X222117Y217233D02*
G01X223342Y215500D01*
X227433Y214500D02*
G01X227842Y214233D01*
X228308Y214167*
X228717Y214233*
X229067Y214567*
X229300Y215033*
Y218167*
Y217633D02*
G01X229067Y217900D01*
X228717Y218100*
X228308Y218167*
X227842Y218033*
X227550Y217767*
X227317Y217300*
X227200Y216833*
X227258Y216433*
X227492Y215967*
X227842Y215633*
X228308Y215500*
X228658Y215567*
X229067Y215833*
X229300Y216100*
X233400Y219500D02*
G01Y215500D01*
Y216100D02*
G01X233167Y215767D01*
X232817Y215567*
X232408Y215500*
X231942Y215633*
X231592Y215967*
X231358Y216367*
X231300Y216833*
X231358Y217300*
X231592Y217700*
X231942Y218033*
X232408Y218167*
X232817Y218100*
X233108Y217967*
X233400Y217700*
X226500Y200967D02*
G01X222500D01*
Y202133*
X222700Y202600*
X222967Y202950*
X223367Y203242*
X223833Y203475*
X224500Y203533*
X225167Y203475*
X225633Y203242*
X226033Y202950*
X226300Y202600*
X226500Y202133*
Y200967*
Y206350D02*
G01X226433Y206758D01*
X226233Y207225*
X225900Y207517*
X225433Y207633*
X224967Y207517*
X224567Y207167*
X224367Y206642*
Y206058*
X224233Y205708*
X223900Y205417*
X223433Y205300*
X222967Y205475*
X222633Y205883*
X222500Y206350*
X222633Y206817*
X222967Y207225*
X223433Y207400*
X223900Y207283*
X224233Y206992*
X224367Y206642*
Y206058*
X224567Y205533*
X224967Y205183*
X225433Y205067*
X225900Y205183*
X226233Y205475*
X226433Y205942*
X226500Y206350*
X220500Y200967D02*
G01X216500D01*
Y202133*
X216700Y202600*
X216967Y202950*
X217367Y203242*
X217833Y203475*
X218500Y203533*
X219167Y203475*
X219633Y203242*
X220033Y202950*
X220300Y202600*
X220500Y202133*
Y200967*
X220033Y205358D02*
G01X220367Y205767D01*
X220500Y206233*
X220367Y206700*
X219967Y207108*
X219367Y207400*
X218767Y207517*
X218033*
X217433Y207400*
X216900Y207108*
X216633Y206758*
X216500Y206350*
X216633Y205883*
X216900Y205533*
X217300Y205300*
X217833Y205183*
X218300Y205300*
X218767Y205592*
X219033Y205942*
X219100Y206350*
X218967Y206817*
X218633Y207167*
X218033Y207517*
X250583Y4300D02*
G01X250875Y3900D01*
X251225Y3633*
X251633Y3500*
X252100Y3633*
X252450Y3900*
X252800Y4300*
X252917Y4833*
Y7500*
X255850Y3500D02*
G01X256258Y3567D01*
X256725Y3767*
X257017Y4100*
X257133Y4567*
X257017Y5033*
X256667Y5433*
X256142Y5633*
X255558*
X255208Y5767*
X254917Y6100*
X254800Y6567*
X254975Y7033*
X255383Y7367*
X255850Y7500*
X256317Y7367*
X256725Y7033*
X256900Y6567*
X256783Y6100*
X256492Y5767*
X256142Y5633*
X255558*
X255033Y5433*
X254683Y5033*
X254567Y4567*
X254683Y4100*
X254975Y3767*
X255442Y3567*
X255850Y3500*
X253000Y40583D02*
G01X249000D01*
Y42042*
X249200Y42508*
X249467Y42800*
X250000Y42917*
X250533Y42800*
X250867Y42450*
X251067Y42042*
Y40583*
Y42042D02*
G01X253000Y42917D01*
Y45850D02*
G01X249000D01*
X249800Y45150*
X253000D02*
G01Y46550D01*
Y49950D02*
G01X252933Y50358D01*
X252733Y50825*
X252400Y51117*
X251933Y51233*
X251467Y51117*
X251067Y50767*
X250867Y50242*
Y49658*
X250733Y49308*
X250400Y49017*
X249933Y48900*
X249467Y49075*
X249133Y49483*
X249000Y49950*
X249133Y50417*
X249467Y50825*
X249933Y51000*
X250400Y50883*
X250733Y50592*
X250867Y50242*
Y49658*
X251067Y49133*
X251467Y48783*
X251933Y48667*
X252400Y48783*
X252733Y49075*
X252933Y49542*
X253000Y49950*
X258000Y40467D02*
G01X254000D01*
Y41633*
X254200Y42100*
X254467Y42450*
X254867Y42742*
X255333Y42975*
X256000Y43033*
X256667Y42975*
X257133Y42742*
X257533Y42450*
X257800Y42100*
X258000Y41633*
Y40467*
Y45850D02*
G01X254000D01*
X254800Y45150*
X258000D02*
G01Y46550D01*
X254667Y48842D02*
G01X254267Y49192D01*
X254067Y49600*
X254000Y50067*
X254133Y50650*
X254467Y51058*
X254867Y51175*
X255267Y51117*
X255600Y50883*
X256267Y49717*
X256733Y49192*
X257400Y48842*
X258000Y48725*
Y51175*
X237533Y85667D02*
G01X237183Y85867D01*
X236775Y86000*
X236308*
X235783Y85800*
X235375Y85467*
X235083Y85067*
X234850Y84400*
X234792Y83800*
X234908Y83200*
X235083Y82800*
X235433Y82400*
X235842Y82133*
X236250Y82000*
X236658*
X237067Y82133*
X237417Y82333*
X237708Y82600*
X239242Y85333D02*
G01X239592Y85733D01*
X240000Y85933*
X240467Y86000*
X241050Y85867*
X241458Y85533*
X241575Y85133*
X241517Y84733*
X241283Y84400*
X240117Y83733*
X239592Y83267*
X239242Y82600*
X239125Y82000*
X241575*
X243342Y85333D02*
G01X243692Y85733D01*
X244100Y85933*
X244567Y86000*
X245150Y85867*
X245558Y85533*
X245675Y85133*
X245617Y84733*
X245383Y84400*
X244217Y83733*
X243692Y83267*
X243342Y82600*
X243225Y82000*
X245675*
X243500Y116083D02*
G01X239500D01*
Y117542*
X239700Y118008*
X239967Y118300*
X240500Y118417*
X241033Y118300*
X241367Y117950*
X241567Y117542*
Y116083*
Y117542D02*
G01X243500Y118417D01*
X240167Y120242D02*
G01X239767Y120592D01*
X239567Y121000*
X239500Y121467*
X239633Y122050*
X239967Y122458*
X240367Y122575*
X240767Y122517*
X241100Y122283*
X241767Y121117*
X242233Y120592*
X242900Y120242*
X243500Y120125*
Y122575*
X240167Y124342D02*
G01X239767Y124692D01*
X239567Y125100*
X239500Y125567*
X239633Y126150*
X239967Y126558*
X240367Y126675*
X240767Y126617*
X241100Y126383*
X241767Y125217*
X242233Y124692*
X242900Y124342*
X243500Y124225*
Y126675*
X234333Y118533D02*
G01X234133Y118183D01*
X234000Y117775*
Y117308*
X234200Y116783*
X234533Y116375*
X234933Y116083*
X235600Y115850*
X236200Y115792*
X236800Y115908*
X237200Y116083*
X237600Y116433*
X237867Y116842*
X238000Y117250*
Y117658*
X237867Y118067*
X237667Y118417*
X237400Y118708*
X234667Y120242D02*
G01X234267Y120592D01*
X234067Y121000*
X234000Y121467*
X234133Y122050*
X234467Y122458*
X234867Y122575*
X235267Y122517*
X235600Y122283*
X236267Y121117*
X236733Y120592*
X237400Y120242*
X238000Y120125*
Y122575*
X237400Y124167D02*
G01X237733Y124517D01*
X237933Y124925*
X238000Y125450*
X237867Y125975*
X237600Y126383*
X237133Y126675*
X236600Y126733*
X236067Y126617*
X235733Y126325*
X235467Y125917*
X235400Y125508*
X235467Y125100*
X235733Y124575*
X234000Y124750*
Y126325*
X255083Y152500D02*
G01Y156500D01*
X256542*
X257008Y156300*
X257300Y156033*
X257417Y155500*
X257300Y154967*
X256950Y154633*
X256542Y154433*
X255083*
X256542D02*
G01X257417Y152500D01*
X261633Y156167D02*
G01X261283Y156367D01*
X260875Y156500*
X260408*
X259883Y156300*
X259475Y155967*
X259183Y155567*
X258950Y154900*
X258892Y154300*
X259008Y153700*
X259183Y153300*
X259533Y152900*
X259942Y152633*
X260350Y152500*
X260758*
X261167Y152633*
X261517Y152833*
X261808Y153100*
X263167Y152500D02*
G01Y156500D01*
X265383D02*
G01X263167Y154033D01*
X265733Y152500D02*
G01X264158Y155167D01*
X255083Y142500D02*
G01Y146500D01*
X256542*
X257008Y146300*
X257300Y146033*
X257417Y145500*
X257300Y144967*
X256950Y144633*
X256542Y144433*
X255083*
X256542D02*
G01X257417Y142500D01*
X259125Y143033D02*
G01X259592Y142700D01*
X260117Y142500*
X260583*
X261050Y142700*
X261400Y143033*
X261575Y143500*
X261458Y143967*
X261167Y144367*
X260642Y144633*
X259942Y144767*
X259533Y145033*
X259358Y145500*
X259475Y145967*
X259767Y146300*
X260175Y146500*
X260583*
X260992Y146367*
X261342Y146033*
X264450Y146500D02*
G01Y142500D01*
X263108Y146500D02*
G01X265792D01*
X256250Y186500D02*
G01Y182500D01*
X254908Y186500D02*
G01X257592D01*
X259475Y185167D02*
G01X261225Y182500D01*
Y185167D02*
G01X259475Y182500D01*
X264450D02*
G01Y186500D01*
X263750Y185700*
Y182500D02*
G01X265150D01*
X255083Y172500D02*
G01Y176500D01*
X256542*
X257008Y176300*
X257300Y176033*
X257417Y175500*
X257300Y174967*
X256950Y174633*
X256542Y174433*
X255083*
X256542D02*
G01X257417Y172500D01*
X259475Y175167D02*
G01X261225Y172500D01*
Y175167D02*
G01X259475Y172500D01*
X264450D02*
G01Y176500D01*
X263750Y175700*
Y172500D02*
G01X265150D01*
X255083Y162500D02*
G01Y166500D01*
X256542*
X257008Y166300*
X257300Y166033*
X257417Y165500*
X257300Y164967*
X256950Y164633*
X256542Y164433*
X255083*
X256542D02*
G01X257417Y162500D01*
X259650Y166500D02*
G01X261050D01*
X260350D02*
G01Y162500D01*
X259650D02*
G01X261050D01*
X264450D02*
G01X263983Y162567D01*
X263575Y162833*
X263225Y163233*
X262992Y163700*
X262875Y164233*
Y164767*
X262992Y165300*
X263225Y165767*
X263575Y166167*
X263983Y166433*
X264450Y166500*
X264917Y166433*
X265325Y166167*
X265675Y165767*
X265908Y165300*
X266025Y164767*
Y164233*
X265908Y163700*
X265675Y163233*
X265325Y162833*
X264917Y162567*
X264450Y162500*
X242000Y182083D02*
G01X238000D01*
Y183542*
X238200Y184008*
X238467Y184300*
X239000Y184417*
X239533Y184300*
X239867Y183950*
X240067Y183542*
Y182083*
Y183542D02*
G01X242000Y184417D01*
Y187350D02*
G01X241933Y187758D01*
X241733Y188225*
X241400Y188517*
X240933Y188633*
X240467Y188517*
X240067Y188167*
X239867Y187642*
Y187058*
X239733Y186708*
X239400Y186417*
X238933Y186300*
X238467Y186475*
X238133Y186883*
X238000Y187350*
X238133Y187817*
X238467Y188225*
X238933Y188400*
X239400Y188283*
X239733Y187992*
X239867Y187642*
Y187058*
X240067Y186533*
X240467Y186183*
X240933Y186067*
X241400Y186183*
X241733Y186475*
X241933Y186942*
X242000Y187350*
X236000Y182083D02*
G01X232000D01*
Y183542*
X232200Y184008*
X232467Y184300*
X233000Y184417*
X233533Y184300*
X233867Y183950*
X234067Y183542*
Y182083*
Y183542D02*
G01X236000Y184417D01*
X235533Y186358D02*
G01X235867Y186767D01*
X236000Y187233*
X235867Y187700*
X235467Y188108*
X234867Y188400*
X234267Y188517*
X233533*
X232933Y188400*
X232400Y188108*
X232133Y187758*
X232000Y187350*
X232133Y186883*
X232400Y186533*
X232800Y186300*
X233333Y186183*
X233800Y186300*
X234267Y186592*
X234533Y186942*
X234600Y187350*
X234467Y187817*
X234133Y188167*
X233533Y188517*
X257100Y213000D02*
G01X258267D01*
Y211800*
X257917Y211400*
X257508Y211133*
X256925Y211000*
X256342Y211133*
X255933Y211400*
X255583Y211800*
X255350Y212267*
X255233Y212800*
Y213267*
X255350Y213667*
X255583Y214133*
X255933Y214533*
X256283Y214800*
X256750Y215000*
X257158*
X257625Y214867*
X257975Y214600*
X259858Y211000D02*
G01Y213667D01*
Y213000D02*
G01X260092Y213333D01*
X260442Y213600*
X260908Y213667*
X261317Y213600*
X261667Y213333*
X261842Y212867*
Y211000*
X266000Y215000D02*
G01Y211000D01*
Y211600D02*
G01X265767Y211267D01*
X265417Y211067*
X265008Y211000*
X264542Y211133*
X264192Y211467*
X263958Y211867*
X263900Y212333*
X263958Y212800*
X264192Y213200*
X264542Y213533*
X265008Y213667*
X265417Y213600*
X265708Y213467*
X266000Y213200*
X255083Y202500D02*
G01Y206500D01*
X256542*
X257008Y206300*
X257300Y206033*
X257417Y205500*
X257300Y204967*
X256950Y204633*
X256542Y204433*
X255083*
X256542D02*
G01X257417Y202500D01*
X259475Y205167D02*
G01X261225Y202500D01*
Y205167D02*
G01X259475Y202500D01*
X256250Y196000D02*
G01Y192000D01*
X254908Y196000D02*
G01X257592D01*
X259475Y194667D02*
G01X261225Y192000D01*
Y194667D02*
G01X259475Y192000D01*
X236750Y218167D02*
G01Y215500D01*
Y219233D02*
G01X236633Y219300D01*
Y219433*
X236750Y219500*
X236867Y219433*
Y219300*
X236750Y219233*
X240850Y215500D02*
G01X240500Y215567D01*
X240150Y215833*
X239917Y216300*
X239800Y216833*
X239917Y217367*
X240150Y217833*
X240500Y218100*
X240850Y218167*
X241200Y218100*
X241550Y217833*
X241783Y217367*
X241842Y216833*
X241783Y216300*
X241550Y215833*
X241200Y215567*
X240850Y215500*
X238000Y200967D02*
G01X234000D01*
Y202133*
X234200Y202600*
X234467Y202950*
X234867Y203242*
X235333Y203475*
X236000Y203533*
X236667Y203475*
X237133Y203242*
X237533Y202950*
X237800Y202600*
X238000Y202133*
Y200967*
X236333Y205242D02*
G01X235867Y205650D01*
X235600Y206000*
X235467Y206467*
X235600Y206875*
X235867Y207167*
X236267Y207400*
X236733Y207458*
X237133Y207400*
X237533Y207167*
X237867Y206817*
X238000Y206408*
X237867Y205942*
X237467Y205533*
X236867Y205300*
X236200Y205242*
X235333Y205358*
X234867Y205533*
X234400Y205825*
X234067Y206233*
X234000Y206642*
X234133Y207050*
X234467Y207342*
X232500Y200967D02*
G01X228500D01*
Y202133*
X228700Y202600*
X228967Y202950*
X229367Y203242*
X229833Y203475*
X230500Y203533*
X231167Y203475*
X231633Y203242*
X232033Y202950*
X232300Y202600*
X232500Y202133*
Y200967*
Y206233D02*
G01X231633Y206350D01*
X230900Y206525*
X230233Y206758*
X229500Y207050*
X228500Y207517*
Y205183*
X257800Y218417D02*
G01X257400Y218125D01*
X257133Y217775*
X257000Y217367*
X257133Y216900*
X257400Y216550*
X257800Y216200*
X258333Y216083*
X261000*
X257000Y213150D02*
G01X261000D01*
X260200Y213850*
X257000D02*
G01Y212450D01*
X257600Y210333D02*
G01X257267Y209983D01*
X257067Y209575*
X257000Y209050*
X257133Y208525*
X257400Y208117*
X257867Y207825*
X258400Y207767*
X258933Y207883*
X259267Y208175*
X259533Y208583*
X259600Y208992*
X259533Y209400*
X259267Y209925*
X261000Y209750*
Y208175*
X262467Y77000D02*
G01Y74133D01*
X262700Y73533*
X263167Y73133*
X263750Y73000*
X264333Y73133*
X264800Y73533*
X265033Y74133*
Y77000*
X266742Y74667D02*
G01X267150Y75133D01*
X267500Y75400*
X267967Y75533*
X268375Y75400*
X268667Y75133*
X268900Y74733*
X268958Y74267*
X268900Y73867*
X268667Y73467*
X268317Y73133*
X267908Y73000*
X267442Y73133*
X267033Y73533*
X266800Y74133*
X266742Y74800*
X266858Y75667*
X267033Y76133*
X267325Y76600*
X267733Y76933*
X268142Y77000*
X268550Y76867*
X268842Y76533*
X261583Y95300D02*
G01X261875Y94900D01*
X262225Y94633*
X262633Y94500*
X263100Y94633*
X263450Y94900*
X263800Y95300*
X263917Y95833*
Y98500*
X267550Y94500D02*
G01Y98500D01*
X265392Y95633*
X268308*
X263750Y100000D02*
G01Y96000D01*
X262408Y100000D02*
G01X265092D01*
X266975Y98667D02*
G01X268725Y96000D01*
Y98667D02*
G01X266975Y96000D01*
X272583D02*
G01Y100000D01*
X274042*
X274508Y99800*
X274800Y99533*
X274917Y99000*
X274800Y98467*
X274450Y98133*
X274042Y97933*
X272583*
X274042D02*
G01X274917Y96000D01*
X276975Y98667D02*
G01X278725Y96000D01*
Y98667D02*
G01X276975Y96000D01*
X284100Y98000D02*
G01X285267D01*
Y96800*
X284917Y96400*
X284508Y96133*
X283925Y96000*
X283342Y96133*
X282933Y96400*
X282583Y96800*
X282350Y97267*
X282233Y97800*
Y98267*
X282350Y98667*
X282583Y99133*
X282933Y99533*
X283283Y99800*
X283750Y100000*
X284158*
X284625Y99867*
X284975Y99600*
X286858Y96000D02*
G01Y98667D01*
Y98000D02*
G01X287092Y98333D01*
X287442Y98600*
X287908Y98667*
X288317Y98600*
X288667Y98333*
X288842Y97867*
Y96000*
X293000Y100000D02*
G01Y96000D01*
Y96600D02*
G01X292767Y96267D01*
X292417Y96067*
X292008Y96000*
X291542Y96133*
X291192Y96467*
X290958Y96867*
X290900Y97333*
X290958Y97800*
X291192Y98200*
X291542Y98533*
X292008Y98667*
X292417Y98600*
X292708Y98467*
X293000Y98200*
X269376Y120106D02*
G01Y117239D01*
X269609Y116639*
X270076Y116239*
X270659Y116106*
X271242Y116239*
X271709Y116639*
X271942Y117239*
Y120106*
X274759Y116106D02*
G01Y120106D01*
X274059Y119306*
Y116106D02*
G01X275459D01*
X278859Y120106D02*
G01X278392Y119973D01*
X278042Y119639*
X277809Y119239*
X277634Y118706*
X277576Y118106*
X277634Y117506*
X277809Y116973*
X278042Y116573*
X278392Y116239*
X278859Y116106*
X279326Y116239*
X279676Y116573*
X279909Y116973*
X280084Y117506*
X280142Y118106*
X280084Y118706*
X279909Y119239*
X279676Y119639*
X279326Y119973*
X278859Y120106*
X280417Y227500D02*
G01X278083D01*
Y231500*
X280417*
X279483Y229567D02*
G01X278083D01*
X283350Y227500D02*
G01Y231500D01*
X282650Y230700*
Y227500D02*
G01X284050D01*
X290583Y3800D02*
G01X290875Y3400D01*
X291225Y3133*
X291633Y3000*
X292100Y3133*
X292450Y3400*
X292800Y3800*
X292917Y4333*
Y7000*
X294742Y4667D02*
G01X295150Y5133D01*
X295500Y5400*
X295967Y5533*
X296375Y5400*
X296667Y5133*
X296900Y4733*
X296958Y4267*
X296900Y3867*
X296667Y3467*
X296317Y3133*
X295908Y3000*
X295442Y3133*
X295033Y3533*
X294800Y4133*
X294742Y4800*
X294858Y5667*
X295033Y6133*
X295325Y6600*
X295733Y6933*
X296142Y7000*
X296550Y6867*
X296842Y6533*
X313167Y85500D02*
G01Y82633D01*
X313400Y82033*
X313867Y81633*
X314450Y81500*
X315033Y81633*
X315500Y82033*
X315733Y82633*
Y85500*
X317267Y82100D02*
G01X317617Y81767D01*
X318025Y81567*
X318550Y81500*
X319075Y81633*
X319483Y81900*
X319775Y82367*
X319833Y82900*
X319717Y83433*
X319425Y83767*
X319017Y84033*
X318608Y84100*
X318200Y84033*
X317675Y83767*
X317850Y85500*
X319425*
X309833Y92533D02*
G01X309633Y92183D01*
X309500Y91775*
Y91308*
X309700Y90783*
X310033Y90375*
X310433Y90083*
X311100Y89850*
X311700Y89792*
X312300Y89908*
X312700Y90083*
X313100Y90433*
X313367Y90842*
X313500Y91250*
Y91658*
X313367Y92067*
X313167Y92417*
X312900Y92708*
X310167Y94242D02*
G01X309767Y94592D01*
X309567Y95000*
X309500Y95467*
X309633Y96050*
X309967Y96458*
X310367Y96575*
X310767Y96517*
X311100Y96283*
X311767Y95117*
X312233Y94592*
X312900Y94242*
X313500Y94125*
Y96575*
X312700Y98167D02*
G01X313167Y98517D01*
X313433Y98983*
X313500Y99508*
X313433Y99975*
X313100Y100442*
X312700Y100733*
X312300Y100792*
X311833Y100675*
X311500Y100267*
X311367Y99858*
Y99333*
Y99858D02*
G01X311167Y100208D01*
X310833Y100500*
X310433Y100617*
X310033Y100500*
X309700Y100208*
X309500Y99683*
X309567Y99158*
X309833Y98633*
X302833Y92033D02*
G01X302633Y91683D01*
X302500Y91275*
Y90808*
X302700Y90283*
X303033Y89875*
X303433Y89583*
X304100Y89350*
X304700Y89292*
X305300Y89408*
X305700Y89583*
X306100Y89933*
X306367Y90342*
X306500Y90750*
Y91158*
X306367Y91567*
X306167Y91917*
X305900Y92208*
X303167Y93742D02*
G01X302767Y94092D01*
X302567Y94500*
X302500Y94967*
X302633Y95550*
X302967Y95958*
X303367Y96075*
X303767Y96017*
X304100Y95783*
X304767Y94617*
X305233Y94092*
X305900Y93742*
X306500Y93625*
Y96075*
Y99650D02*
G01X302500D01*
X305367Y97492*
Y100408*
X318083Y43000D02*
G01Y47000D01*
X319542*
X320008Y46800*
X320300Y46533*
X320417Y46000*
X320300Y45467*
X319950Y45133*
X319542Y44933*
X318083*
X319542D02*
G01X320417Y43000D01*
X323350D02*
G01Y47000D01*
X322650Y46200*
Y43000D02*
G01X324050D01*
X326342Y44667D02*
G01X326750Y45133D01*
X327100Y45400*
X327567Y45533*
X327975Y45400*
X328267Y45133*
X328500Y44733*
X328558Y44267*
X328500Y43867*
X328267Y43467*
X327917Y43133*
X327508Y43000*
X327042Y43133*
X326633Y43533*
X326400Y44133*
X326342Y44800*
X326458Y45667*
X326633Y46133*
X326925Y46600*
X327333Y46933*
X327742Y47000*
X328150Y46867*
X328442Y46533*
X325433Y79233D02*
G01X325233Y78883D01*
X325100Y78475*
Y78008*
X325300Y77483*
X325633Y77075*
X326033Y76783*
X326700Y76550*
X327300Y76492*
X327900Y76608*
X328300Y76783*
X328700Y77133*
X328967Y77542*
X329100Y77950*
Y78358*
X328967Y78767*
X328767Y79117*
X328500Y79408*
X325767Y80942D02*
G01X325367Y81292D01*
X325167Y81700*
X325100Y82167*
X325233Y82750*
X325567Y83158*
X325967Y83275*
X326367Y83217*
X326700Y82983*
X327367Y81817*
X327833Y81292*
X328500Y80942*
X329100Y80825*
Y83275*
X325100Y86150D02*
G01X325233Y85683D01*
X325567Y85333*
X325967Y85100*
X326500Y84925*
X327100Y84867*
X327700Y84925*
X328233Y85100*
X328633Y85333*
X328967Y85683*
X329100Y86150*
X328967Y86617*
X328633Y86967*
X328233Y87200*
X327700Y87375*
X327100Y87433*
X326500Y87375*
X325967Y87200*
X325567Y86967*
X325233Y86617*
X325100Y86150*
X336025Y70533D02*
G01X336492Y70200D01*
X337017Y70000*
X337483*
X337950Y70200*
X338300Y70533*
X338475Y71000*
X338358Y71467*
X338067Y71867*
X337542Y72133*
X336842Y72267*
X336433Y72533*
X336258Y73000*
X336375Y73467*
X336667Y73800*
X337075Y74000*
X337483*
X337892Y73867*
X338242Y73533*
X339600Y74000D02*
G01X340417Y70000D01*
X341350Y74000*
X342283Y70000*
X343100Y74000*
X345450Y70000D02*
G01Y74000D01*
X344750Y73200*
Y70000D02*
G01X346150D01*
X335025Y142033D02*
G01X335492Y141700D01*
X336017Y141500*
X336483*
X336950Y141700*
X337300Y142033*
X337475Y142500*
X337358Y142967*
X337067Y143367*
X336542Y143633*
X335842Y143767*
X335433Y144033*
X335258Y144500*
X335375Y144967*
X335667Y145300*
X336075Y145500*
X336483*
X336892Y145367*
X337242Y145033*
X338600Y145500D02*
G01X339417Y141500D01*
X340350Y145500*
X341283Y141500*
X342100Y145500*
X343342Y144833D02*
G01X343692Y145233D01*
X344100Y145433*
X344567Y145500*
X345150Y145367*
X345558Y145033*
X345675Y144633*
X345617Y144233*
X345383Y143900*
X344217Y143233*
X343692Y142767*
X343342Y142100*
X343225Y141500*
X345675*
X335525Y216033D02*
G01X335992Y215700D01*
X336517Y215500*
X336983*
X337450Y215700*
X337800Y216033*
X337975Y216500*
X337858Y216967*
X337567Y217367*
X337042Y217633*
X336342Y217767*
X335933Y218033*
X335758Y218500*
X335875Y218967*
X336167Y219300*
X336575Y219500*
X336983*
X337392Y219367*
X337742Y219033*
X339100Y219500D02*
G01X339917Y215500D01*
X340850Y219500*
X341783Y215500*
X342600Y219500*
X343667Y216300D02*
G01X344017Y215833D01*
X344483Y215567*
X345008Y215500*
X345475Y215567*
X345942Y215900*
X346233Y216300*
X346292Y216700*
X346175Y217167*
X345767Y217500*
X345358Y217633*
X344833*
X345358D02*
G01X345708Y217833D01*
X346000Y218167*
X346117Y218567*
X346000Y218967*
X345708Y219300*
X345183Y219500*
X344658Y219433*
X344133Y219167*
X405733Y11500D02*
G01Y15500D01*
X407250Y12167*
X408767Y15500*
Y11500*
X410125D02*
G01Y15500D01*
X412575D02*
G01Y11500D01*
Y13500D02*
G01X410125D01*
X414167Y12300D02*
G01X414517Y11833D01*
X414983Y11567*
X415508Y11500*
X415975Y11567*
X416442Y11900*
X416733Y12300*
X416792Y12700*
X416675Y13167*
X416267Y13500*
X415858Y13633*
X415333*
X415858D02*
G01X416208Y13833D01*
X416500Y14167*
X416617Y14567*
X416500Y14967*
X416208Y15300*
X415683Y15500*
X415158Y15433*
X414633Y15167*
X396500Y63467D02*
G01X392500D01*
Y64633*
X392700Y65100*
X392967Y65450*
X393367Y65742*
X393833Y65975*
X394500Y66033*
X395167Y65975*
X395633Y65742*
X396033Y65450*
X396300Y65100*
X396500Y64633*
Y63467*
Y68850D02*
G01X392500D01*
X393300Y68150*
X396500D02*
G01Y69550D01*
Y72950D02*
G01X392500D01*
X393300Y72250*
X396500D02*
G01Y73650D01*
Y40467D02*
G01X392500D01*
Y41633*
X392700Y42100*
X392967Y42450*
X393367Y42742*
X393833Y42975*
X394500Y43033*
X395167Y42975*
X395633Y42742*
X396033Y42450*
X396300Y42100*
X396500Y41633*
Y40467*
Y45850D02*
G01X392500D01*
X393300Y45150*
X396500D02*
G01Y46550D01*
X392500Y49950D02*
G01X392633Y49483D01*
X392967Y49133*
X393367Y48900*
X393900Y48725*
X394500Y48667*
X395100Y48725*
X395633Y48900*
X396033Y49133*
X396367Y49483*
X396500Y49950*
X396367Y50417*
X396033Y50767*
X395633Y51000*
X395100Y51175*
X394500Y51233*
X393900Y51175*
X393367Y51000*
X392967Y50767*
X392633Y50417*
X392500Y49950*
X388833Y85033D02*
G01X388633Y84683D01*
X388500Y84275*
Y83808*
X388700Y83283*
X389033Y82875*
X389433Y82583*
X390100Y82350*
X390700Y82292*
X391300Y82408*
X391700Y82583*
X392100Y82933*
X392367Y83342*
X392500Y83750*
Y84158*
X392367Y84567*
X392167Y84917*
X391900Y85208*
X392500Y87850D02*
G01X388500D01*
X389300Y87150*
X392500D02*
G01Y88550D01*
X390833Y90842D02*
G01X390367Y91250D01*
X390100Y91600*
X389967Y92067*
X390100Y92475*
X390367Y92767*
X390767Y93000*
X391233Y93058*
X391633Y93000*
X392033Y92767*
X392367Y92417*
X392500Y92008*
X392367Y91542*
X391967Y91133*
X391367Y90900*
X390700Y90842*
X389833Y90958*
X389367Y91133*
X388900Y91425*
X388567Y91833*
X388500Y92242*
X388633Y92650*
X388967Y92942*
X398000Y82583D02*
G01X394000D01*
Y84042*
X394200Y84508*
X394467Y84800*
X395000Y84917*
X395533Y84800*
X395867Y84450*
X396067Y84042*
Y82583*
Y84042D02*
G01X398000Y84917D01*
Y87850D02*
G01X394000D01*
X394800Y87150*
X398000D02*
G01Y88550D01*
X397200Y90667D02*
G01X397667Y91017D01*
X397933Y91483*
X398000Y92008*
X397933Y92475*
X397600Y92942*
X397200Y93233*
X396800Y93292*
X396333Y93175*
X396000Y92767*
X395867Y92358*
Y91833*
Y92358D02*
G01X395667Y92708D01*
X395333Y93000*
X394933Y93117*
X394533Y93000*
X394200Y92708*
X394000Y92183*
X394067Y91658*
X394333Y91133*
X403583Y90300D02*
G01X403875Y89900D01*
X404225Y89633*
X404633Y89500*
X405100Y89633*
X405450Y89900*
X405800Y90300*
X405917Y90833*
Y93500*
X407858Y89967D02*
G01X408267Y89633D01*
X408733Y89500*
X409200Y89633*
X409608Y90033*
X409900Y90633*
X410017Y91233*
Y91967*
X409900Y92567*
X409608Y93100*
X409258Y93367*
X408850Y93500*
X408383Y93367*
X408033Y93100*
X407800Y92700*
X407683Y92167*
X407800Y91700*
X408092Y91233*
X408442Y90967*
X408850Y90900*
X409317Y91033*
X409667Y91367*
X410017Y91967*
X396000Y119967D02*
G01X392000D01*
Y121133*
X392200Y121600*
X392467Y121950*
X392867Y122242*
X393333Y122475*
X394000Y122533*
X394667Y122475*
X395133Y122242*
X395533Y121950*
X395800Y121600*
X396000Y121133*
Y119967*
Y125350D02*
G01X392000D01*
X392800Y124650*
X396000D02*
G01Y126050D01*
X395400Y128167D02*
G01X395733Y128517D01*
X395933Y128925*
X396000Y129450*
X395867Y129975*
X395600Y130383*
X395133Y130675*
X394600Y130733*
X394067Y130617*
X393733Y130325*
X393467Y129917*
X393400Y129508*
X393467Y129100*
X393733Y128575*
X392000Y128750*
Y130325*
X396000Y96467D02*
G01X392000D01*
Y97633*
X392200Y98100*
X392467Y98450*
X392867Y98742*
X393333Y98975*
X394000Y99033*
X394667Y98975*
X395133Y98742*
X395533Y98450*
X395800Y98100*
X396000Y97633*
Y96467*
Y101850D02*
G01X392000D01*
X392800Y101150*
X396000D02*
G01Y102550D01*
X395200Y104667D02*
G01X395667Y105017D01*
X395933Y105483*
X396000Y106008*
X395933Y106475*
X395600Y106942*
X395200Y107233*
X394800Y107292*
X394333Y107175*
X394000Y106767*
X393867Y106358*
Y105833*
Y106358D02*
G01X393667Y106708D01*
X393333Y107000*
X392933Y107117*
X392533Y107000*
X392200Y106708*
X392000Y106183*
X392067Y105658*
X392333Y105133*
X390833Y149533D02*
G01X390633Y149183D01*
X390500Y148775*
Y148308*
X390700Y147783*
X391033Y147375*
X391433Y147083*
X392100Y146850*
X392700Y146792*
X393300Y146908*
X393700Y147083*
X394100Y147433*
X394367Y147842*
X394500Y148250*
Y148658*
X394367Y149067*
X394167Y149417*
X393900Y149708*
X394500Y152350D02*
G01X390500D01*
X391300Y151650*
X394500D02*
G01Y153050D01*
Y156333D02*
G01X393633Y156450D01*
X392900Y156625*
X392233Y156858*
X391500Y157150*
X390500Y157617*
Y155283*
X400500Y147083D02*
G01X396500D01*
Y148542*
X396700Y149008*
X396967Y149300*
X397500Y149417*
X398033Y149300*
X398367Y148950*
X398567Y148542*
Y147083*
Y148542D02*
G01X400500Y149417D01*
Y152350D02*
G01X396500D01*
X397300Y151650*
X400500D02*
G01Y153050D01*
Y157150D02*
G01X396500D01*
X399367Y154992*
Y157908*
X399083Y175000D02*
G01Y179000D01*
X400542*
X401008Y178800*
X401300Y178533*
X401417Y178000*
X401300Y177467*
X400950Y177133*
X400542Y176933*
X399083*
X400542D02*
G01X401417Y175000D01*
X403242Y178333D02*
G01X403592Y178733D01*
X404000Y178933*
X404467Y179000*
X405050Y178867*
X405458Y178533*
X405575Y178133*
X405517Y177733*
X405283Y177400*
X404117Y176733*
X403592Y176267*
X403242Y175600*
X403125Y175000*
X405575*
X408450Y179000D02*
G01X407983Y178867D01*
X407633Y178533*
X407400Y178133*
X407225Y177600*
X407167Y177000*
X407225Y176400*
X407400Y175867*
X407633Y175467*
X407983Y175133*
X408450Y175000*
X408917Y175133*
X409267Y175467*
X409500Y175867*
X409675Y176400*
X409733Y177000*
X409675Y177600*
X409500Y178133*
X409267Y178533*
X408917Y178867*
X408450Y179000*
X390367Y223083D02*
G01X390167Y222733D01*
X390034Y222325*
Y221858*
X390234Y221333*
X390567Y220925*
X390967Y220633*
X391634Y220400*
X392234Y220342*
X392834Y220458*
X393234Y220633*
X393634Y220983*
X393901Y221392*
X394034Y221800*
Y222208*
X393901Y222617*
X393701Y222967*
X393434Y223258*
X394034Y225900D02*
G01X390034D01*
X390834Y225200*
X394034D02*
G01Y226600D01*
X393567Y229008D02*
G01X393901Y229417D01*
X394034Y229883*
X393901Y230350*
X393501Y230758*
X392901Y231050*
X392301Y231167*
X391567*
X390967Y231050*
X390434Y230758*
X390167Y230408*
X390034Y230000*
X390167Y229533*
X390434Y229183*
X390834Y228950*
X391367Y228833*
X391834Y228950*
X392301Y229242*
X392567Y229592*
X392634Y230000*
X392501Y230467*
X392167Y230817*
X391567Y231167*
X400000Y220583D02*
G01X396000D01*
Y222042*
X396200Y222508*
X396467Y222800*
X397000Y222917*
X397533Y222800*
X397867Y222450*
X398067Y222042*
Y220583*
Y222042D02*
G01X400000Y222917D01*
Y225850D02*
G01X396000D01*
X396800Y225150*
X400000D02*
G01Y226550D01*
X399400Y228667D02*
G01X399733Y229017D01*
X399933Y229425*
X400000Y229950*
X399867Y230475*
X399600Y230883*
X399133Y231175*
X398600Y231233*
X398067Y231117*
X397733Y230825*
X397467Y230417*
X397400Y230008*
X397467Y229600*
X397733Y229075*
X396000Y229250*
Y230825*
X406233Y223500D02*
G01Y227500D01*
X407750Y224167*
X409267Y227500*
Y223500*
X410625D02*
G01Y227500D01*
X413075D02*
G01Y223500D01*
Y225500D02*
G01X410625D01*
X416650Y223500D02*
G01Y227500D01*
X414492Y224633*
X417408*
X411083Y23300D02*
G01X411375Y22900D01*
X411725Y22633*
X412133Y22500*
X412600Y22633*
X412950Y22900*
X413300Y23300*
X413417Y23833*
Y26500*
X416233Y22500D02*
G01X416350Y23367D01*
X416525Y24100*
X416758Y24767*
X417050Y25500*
X417517Y26500*
X415183*
X411083Y212300D02*
G01X411375Y211900D01*
X411725Y211633*
X412133Y211500*
X412600Y211633*
X412950Y211900*
X413300Y212300*
X413417Y212833*
Y215500*
X416350Y211500D02*
G01Y215500D01*
X415650Y214700*
Y211500D02*
G01X417050D01*
X420450D02*
G01Y215500D01*
X419750Y214700*
Y211500D02*
G01X421150D01*
G54D16*
X309374Y238874D02*
G01X293626D01*
X315280Y223126D02*
G01Y238874D01*
X309374*
Y254622*
X293626*
Y238874*
X287720*
Y223126*
X315280*
X295594Y254622D02*
G01Y252654D01*
X307406*
Y254622*
G54D69*
X184572Y64580D02*
G01Y63792D01*
X185359Y63005D02*
G01X186147D01*
Y63005D02*
G01X184572Y64580D01*
X186934Y61430D02*
G01X185359Y63005D01*
X184787Y60425D02*
G01X185575D01*
X187150Y57276D02*
G01X185575Y58850D01*
X186362*
X184787Y60425*
Y59638*
X180850Y62787D02*
G01X180063Y63575D01*
Y63575D02*
G01X176126Y67512D01*
X180850Y56488D02*
G01Y67512D01*
X176126Y56488D02*
G01X180850Y61213D01*
X191874Y63575D02*
G01Y68299D01*
X188724Y63575D02*
G01X195024D01*
X191874Y55701D02*
G01Y60425D01*
X188724*
X191874Y63575*
X195024Y60425*
X191874*
X184572Y64580D02*
G01X185359D01*
X176126Y65150D02*
G01Y67512D01*
X178488*
X225850Y62787D02*
G01X225063Y63575D01*
Y63575D02*
G01X221126Y67512D01*
X225850Y56488D02*
G01Y67512D01*
X221126Y56488D02*
G01X225850Y61213D01*
X221126Y65150D02*
G01Y67512D01*
X223488*
X229572Y64580D02*
G01Y63792D01*
X230359Y63005D02*
G01X231147D01*
Y63005D02*
G01X229572Y64580D01*
X231934Y61430D02*
G01X230359Y63005D01*
X229787Y60425D02*
G01X230575D01*
X232150Y57276D02*
G01X230575Y58850D01*
X231362*
X229787Y60425*
Y59638*
X236874Y63575D02*
G01Y68299D01*
X233724Y63575D02*
G01X240024D01*
X236874Y55701D02*
G01Y60425D01*
X233724*
X236874Y63575*
X240024Y60425*
X236874*
X229572Y64580D02*
G01X230359D01*
X274572D02*
G01Y63792D01*
X275359Y63005D02*
G01X276147D01*
Y63005D02*
G01X274572Y64580D01*
X276934Y61430D02*
G01X275359Y63005D01*
X274787Y60425D02*
G01X275575D01*
X277150Y57276D02*
G01X275575Y58850D01*
X276362*
X274787Y60425*
Y59638*
X270850Y62787D02*
G01X270063Y63575D01*
Y63575D02*
G01X266126Y67512D01*
X270850Y56488D02*
G01Y67512D01*
X266126Y56488D02*
G01X270850Y61213D01*
X281874Y63575D02*
G01Y68299D01*
X278724Y63575D02*
G01X285024D01*
X281874Y55701D02*
G01Y60425D01*
X278724*
X281874Y63575*
X285024Y60425*
X281874*
X274572Y64580D02*
G01X275359D01*
X266126Y65150D02*
G01Y67512D01*
X268488*
G54D17*
X49291Y162776D02*
G03X49291Y162776I-493D01*
X101267Y235702D02*
G03X101267Y235702I-491D01*
G54D18*
X50280Y139094D02*
G01Y131220D01*
X22720*
Y139094*
Y150906D02*
G01Y158780D01*
X50280*
Y150906*
X65815Y139300D02*
G01Y145700D01*
X55185D02*
G01Y139300D01*
X48980Y164547D02*
G01X48606D01*
Y185453*
X48980*
X58020Y164547D02*
G01X58394D01*
Y185453*
X58020*
X129748Y182315D02*
G01Y221685D01*
X98252*
Y182315*
X129748*
Y186252D02*
G01X98252D01*
X102547Y235520D02*
G01Y235894D01*
X123453*
Y235520*
X102547Y226480D02*
G01Y226106D01*
X123453*
Y226480*
X145815Y194126D02*
G03X145815Y194126I-6224D01*
X143528D02*
G01X135654D01*
X139591Y190189D02*
G01Y198063D01*
X184827Y168173D02*
G01Y139827D01*
X213173*
Y168173*
X184827*
X189252Y165417D02*
G03X189252Y165417I-1669D01*
M02*
