M48
INCH,LZ
VER,1
FMAT,2
T01C0.024F1B1S6H2000
T02C0.0315F1B1S6H2000
T03C0.035F1B1S6H2000
T04C0.04F1B1S6H2000
T05C0.04F1B1S6H2000
T06C0.045F1B1S6H2000
T07C0.05F1B1S6H2000
T08C0.055F1B1S6H2000
T09C0.08F1B1S6H2000
T10C0.12F1B1S6H2000
T11C0.14F1B1S6H2000
DETECT,ON
ATC,ON
%
T01
X0017Y0064
Y0084
X00155Y00895
X00285Y01145
X00155Y01175
X0016Y01465
X0053Y016
Y0153
X00525Y0145
X0057Y0064
X0037
X0057Y0044
Y0024
X0077
Y0064
X00677Y00708
X0081Y0073
X0065Y00995
X0073
X0065Y01065
X0073
X008Y01105
X00615Y0153
Y016
X007
X0085Y0191
X01125Y01505
X0099Y0139
X01175Y01295
X01125
X01075
X01115Y01175
X0117Y0091
Y0079
Y0064
Y0024
X0097
X0137
Y0064
Y0079
X01315Y01105
X01225Y01295
X0143Y0154
X0145Y01625
X01415Y0213
Y02315
X01745Y0232
Y0213
X0176Y0191
X0164Y0178
X0179Y0175
X0157Y01715
X016967Y016333
X015633Y015467
X0171Y015
X0152Y0148
X0157Y0147
X0173Y0137
X016Y0132
X01605Y0081
X0174Y0067
X0193Y0111
X0203
X0183Y0112
X020786Y0141
X0187Y0151
X0206Y0153
X019Y0159
X0206Y01625
X019014Y0166
X019Y0194
X0182Y0195
X0228Y017245
X0233Y0162
X02174Y01393
X0229Y0135
X0213Y011125
X0223Y009
X0232Y0077
X0221Y0067
X0265
X02485Y01135
X0255
X0264Y0117
X0275Y0123
X0287Y0154
X02779Y01544
X0287Y0174
Y0194
X029162Y020612
X02867Y02062
X029654Y020654
X02915Y022
X0282Y0224
Y0234
X0322
Y0224
X03165Y02205
X031622Y020728
X030638Y020662
X0312Y0194
X03205Y017408
X0312Y0174
Y0154
X03205Y01405
X03Y0118
X0318Y01175
X0322Y01115
X03175Y01045
X0325Y0074
X0313Y0065
X0328Y0051
X030119Y004819
X0358Y0023
X03445Y00895
X0332Y0119
X0347
X03455Y01635
X033673Y019377
X0337Y02015
X0381Y0233
X0379Y0159
X0382Y0134
Y0119
Y0104
X0367
X0381Y0089
X0367Y00418
X0392Y0024
X040198Y008498
Y014198
T02
X029111Y0231
X031189
T03
X0211Y0228
X0221
X0231
X0241
X0251
T04
X0266Y0088
X0249Y0215
T05
X00585Y0202
X00575
X00565
X00555
X00545
X00535
X00525
X00515
X00505
X00495
X00355Y02102
Y0211
Y02118
Y02126
Y02134
Y02142
Y0215
Y02158
Y02166
Y02174
X00504Y02256
X00512
X0052
X00528
X00536
X00544
X00552
X0056
X00568
X00576
T06
X007565Y00354
X008655
X009745
X010835
X01138Y00466
X01029
X0092
X00811
X00702
T07
X0249Y0205
Y0195
Y0185
Y0175
Y0165
Y0155
Y0145
X0276Y0088
X0286
T08
X018016Y0024
X019984
X022016
X023984
X026016
X027984
X030016
X031984
X0351Y00175
X0371
X0351Y00725
X0371
X0351Y00895
X0371
X0351Y01445
X0371
X0351Y01635
X0371
X0351Y02185
X0371
X0426Y019668
Y0177
Y015732
Y013668
Y0117
Y009732
Y007668
Y0057
Y003732
T09
X01062Y0202
X01218
T10
X0013Y0014
X0014Y0227
X0431Y0225
X0428Y0013
T11
X004295Y0041
X014105
M30
