G04 CAM350/DFMSTREAM V12.1 (Build 1022) Date:  Tue Jun 16 21:53:05 2020 *
G04 Database: (Untitled) *
G04 Layer 8: PASTE_TOP.art *
%FSLAX25Y25*%
%MOIN*%
%SFA1.000B1.000*%

%MIA0B0*%
%IPPOS*%
%ADD15C,0.00500*%
%ADD25R,0.03200X0.03500*%
%ADD27R,0.03500X0.03200*%
%ADD28R,0.05000X0.04500*%
%ADD29R,0.04500X0.05000*%
%ADD55R,0.12000X0.03500*%
%ADD56R,0.04724X0.11024*%
%ADD57R,0.04724X0.04724*%
%ADD58R,0.06299X0.22441*%
%ADD59R,0.02200X0.04000*%
%ADD60R,0.02100X0.06700*%
%ADD61R,0.06700X0.03200*%
%ADD62R,0.01181X0.04724*%
%ADD63R,0.04724X0.01181*%
%ADD64R,0.11811X0.14764*%
%ADD65R,0.09843X0.03543*%
%ADD66R,0.08464X0.06678*%
%LNPASTE_TOP.art*%
%LPD*%
G54D25*
X260000Y1291000D03*
Y1285000D03*
Y1409000D03*
Y1403000D03*
X274000Y1349000D03*
Y1343000D03*
X345000Y1415000D03*
Y1421000D03*
X358000Y1415000D03*
Y1421000D03*
X352000Y1415000D03*
Y1421000D03*
X349000Y1449000D03*
Y1455000D03*
Y1472000D03*
Y1466000D03*
X368000Y1349000D03*
Y1355000D03*
X376000Y1415000D03*
Y1421000D03*
X370000Y1415000D03*
Y1421000D03*
X364000Y1415000D03*
Y1421000D03*
X410000Y1321000D03*
Y1327000D03*
Y1347000D03*
Y1341000D03*
Y1375000D03*
Y1369000D03*
Y1397000D03*
Y1391000D03*
Y1423000D03*
Y1417000D03*
Y1437000D03*
Y1443000D03*
G54D64*
X314008Y1456000D03*
G54D55*
X272338Y1304000D03*
Y1404000D03*
X295662Y1304000D03*
Y1404000D03*
G54D29*
X309500Y1476000D03*
X316500D03*
G54D28*
X260000Y1305500D03*
Y1298500D03*
Y1421500D03*
Y1414500D03*
X360000Y1430500D03*
Y1437500D03*
X352000Y1430500D03*
Y1437500D03*
X383000Y1305500D03*
Y1312500D03*
X376000Y1430500D03*
Y1437500D03*
X368000Y1430500D03*
Y1437500D03*
G54D60*
X348000Y1305800D03*
X343000D03*
X358000D03*
X353000D03*
X343000Y1326200D03*
X348000D03*
X353000D03*
X358000D03*
X373000Y1305800D03*
X368000D03*
X363000D03*
Y1326200D03*
X368000D03*
X373000D03*
G54D27*
X259000Y1326000D03*
X265000D03*
Y1332000D03*
X259000D03*
Y1356000D03*
X265000D03*
X259000Y1362000D03*
X265000D03*
X295000Y1382000D03*
X289000D03*
X317000Y1302000D03*
X323000D03*
X317000Y1314000D03*
X323000D03*
X317000Y1308000D03*
X323000D03*
Y1375000D03*
X317000D03*
X323000Y1368000D03*
X317000D03*
X323000Y1355000D03*
X317000D03*
Y1361000D03*
X323000D03*
X317000Y1397000D03*
X323000D03*
Y1404000D03*
X317000D03*
X325000Y1476000D03*
X331000D03*
X385000Y1396000D03*
X391000D03*
G54D62*
X360921Y1365299D03*
X358953D03*
X356984D03*
X355016D03*
X353047D03*
X351079D03*
X349110D03*
X347142D03*
X345173D03*
Y1402701D03*
X347142D03*
X349110D03*
X351079D03*
X353047D03*
X355016D03*
X356984D03*
X358953D03*
X360921D03*
X366827Y1365299D03*
X364858D03*
X362890D03*
Y1402701D03*
X364858D03*
X366827D03*
G54D59*
X265740Y1349315D03*
X262000D03*
X258260D03*
Y1338685D03*
X265740D03*
X262000D03*
G54D66*
X283811Y1328000D03*
X300189D03*
X291189Y1437000D03*
X274811D03*
G54D63*
X337299Y1373173D03*
Y1375142D03*
Y1377110D03*
Y1379079D03*
Y1381047D03*
Y1383016D03*
Y1384984D03*
Y1386953D03*
Y1388921D03*
Y1390890D03*
Y1392858D03*
Y1394827D03*
X374701Y1379079D03*
Y1377110D03*
Y1375142D03*
Y1373173D03*
Y1394827D03*
Y1392858D03*
Y1390890D03*
Y1388921D03*
Y1386953D03*
Y1384984D03*
Y1383016D03*
Y1381047D03*
G54D65*
X339205Y1465055D03*
Y1456000D03*
Y1446945D03*
G54D58*
X301252Y1350000D03*
X282748D03*
G54D56*
X295906Y1372000D03*
X284094D03*
G54D61*
X322000Y1348700D03*
Y1335300D03*
G54D57*
X316850Y1381667D03*
X323150D03*
X316850Y1390329D03*
X323150D03*
G54D15*
X245000Y1485000D02*
G01Y1248000D01*
X534000*
Y1485000*
X245000*
X461780Y1468126D02*
G01X434220D01*
Y1483874*
X461780*
Y1468126*
M02*
