G04 CAM350/DFMSTREAM V12.1 (Build 1022) Date:  Tue Jun 16 21:53:05 2020 *
G04 Database: (Untitled) *
G04 Layer 7: PASTE_BOTTOM.art *
%FSLAX25Y25*%
%MOIN*%
%SFA1.000B1.000*%

%MIA0B0*%
%IPPOS*%
%ADD15C,0.00500*%
%ADD25R,0.03200X0.03500*%
%ADD27R,0.03500X0.03200*%
%ADD28R,0.05000X0.04500*%
%ADD29R,0.04500X0.05000*%
%ADD30R,0.04724X0.15748*%
%ADD33R,0.02500X0.07500*%
%ADD34R,0.07000X0.08500*%
%ADD53R,0.05315X0.08465*%
%ADD54R,0.08465X0.05315*%
%LNPASTE_BOTTOM.art*%
%LPD*%
G54D34*
X317000Y1292000D03*
X327000D03*
Y1324000D03*
X317000D03*
X339000Y1292000D03*
X349000D03*
X361000D03*
X349000Y1324000D03*
X339000D03*
X361000D03*
X371000Y1292000D03*
Y1324000D03*
G54D25*
X336000Y1283000D03*
Y1277000D03*
X376000Y1283000D03*
Y1277000D03*
X416000Y1283000D03*
Y1277000D03*
X400000Y1427000D03*
Y1421000D03*
X504000Y1419000D03*
Y1413000D03*
G54D54*
X411425Y1376567D03*
Y1412000D03*
Y1404913D03*
Y1397827D03*
Y1390740D03*
Y1383654D03*
Y1440346D03*
Y1433260D03*
Y1426173D03*
Y1419087D03*
Y1447433D03*
X464575Y1376567D03*
Y1383654D03*
Y1390740D03*
Y1397827D03*
Y1404913D03*
Y1412000D03*
Y1419087D03*
Y1426173D03*
Y1433260D03*
Y1440346D03*
Y1447433D03*
G54D53*
X420283Y1369677D03*
Y1454323D03*
X427370Y1369677D03*
X434457D03*
X441543D03*
X448630D03*
Y1454323D03*
X441543D03*
X434457D03*
X427370D03*
X455717Y1369677D03*
Y1454323D03*
G54D28*
X400000Y1408500D03*
Y1415500D03*
G54D27*
X449000Y1280000D03*
X455000D03*
X489000D03*
X495000D03*
G54D33*
X434500Y1293500D03*
X439500D03*
X444500D03*
X449500D03*
Y1314500D03*
X444500D03*
X439500D03*
X434500D03*
X468500Y1293500D03*
X473500D03*
X478500D03*
Y1314500D03*
X473500D03*
X468500D03*
X483500Y1293500D03*
Y1314500D03*
G54D29*
X449500Y1324000D03*
X442500D03*
X476500D03*
X463500Y1351000D03*
X470500D03*
X463500Y1360000D03*
X470500D03*
X483500Y1324000D03*
G54D30*
X448000Y1476000D03*
G54D15*
X245000Y1485000D02*
G01Y1248000D01*
X534000*
Y1485000*
X245000*
X461780Y1468126D02*
G01X434220D01*
Y1483874*
X461780*
Y1468126*
M02*
