G04 ================== begin FILE IDENTIFICATION RECORD ==================*
G04 Layout Name:  STM32F103_RAK811_THESISNODE_5.brd*
G04 Film Name:    RAK4600_v101_ASSY_TOP.art*
G04 File Format:  Gerber RS274X*
G04 File Origin:  Cadence Allegro 17.2-S052*
G04 Origin Date:  Mon Jun 29 19:02:18 2020*
G04 *
G04 Layer:  REF DES/ASSEMBLY_TOP*
G04 Layer:  PACKAGE GEOMETRY/ASSEMBLY_TOP*
G04 Layer:  DRAWING FORMAT/OUTLINE*
G04 Layer:  DRAWING FORMAT/ASSEMBLY_TOP*
G04 Layer:  BOARD GEOMETRY/OUTLINE*
G04 Layer:  BOARD GEOMETRY/LOGO_OUTLINE*
G04 Layer:  BOARD GEOMETRY/ASSEMBLY_TOP*
G04 *
G04 Offset:    (0.00 0.00)*
G04 Mirror:    No*
G04 Mode:      Positive*
G04 Rotation:  0*
G04 FullContactRelief:  No*
G04 UndefLineWidth:     4.00*
G04 ================== end FILE IDENTIFICATION RECORD ====================*
%FSLAX25Y25*MOIN*%
%IR0*IPPOS*OFA0.00000B0.00000*MIA0B0*SFA1.00000B1.00000*%
%ADD10C,.01*%
%ADD11C,.002*%
%ADD12C,.005*%
%ADD13C,.004*%
%ADD14C,.006*%
%ADD15C,.008*%
%ADD16C,.00394*%
%ADD17C,.00984*%
%ADD18C,.00787*%
G75*
%LPD*%
G75*
G36*
G01X180496Y166205D02*
X182465Y168173D01*
X178528D01*
X180496Y166205D01*
G37*
G36*
G01X333646Y139472D02*
X336402Y136717D01*
Y142228D01*
X333646Y139472D01*
G37*
G54D10*
G01X204000Y241500D02*
X213000D01*
X214000Y240500D01*
X215000Y241500D01*
X223000D01*
X224000Y240500D01*
X225000Y241500D01*
X233000D01*
X234000Y240500D01*
X235000Y241500D01*
X243000D01*
X244000Y240500D01*
X245000Y241500D01*
X254000D01*
X255000Y240500D01*
Y230500D01*
X254000Y229500D01*
X245000D01*
X244000Y230500D01*
X243000Y229500D01*
X235000D01*
X234000Y230500D01*
X233000Y229500D01*
X225000D01*
X224000Y230500D01*
X223000Y229500D01*
X215000D01*
X214000Y230500D01*
X213000Y229500D01*
X204000D01*
X203000Y230500D01*
Y240500D01*
X204000Y241500D01*
G54D11*
G01X105333Y36500D02*
X105000Y37000D01*
X104600Y37333D01*
X104133Y37500D01*
X103600Y37333D01*
X103200Y37000D01*
X102800Y36500D01*
X102667Y35833D01*
Y32500D01*
G01X99900Y37500D02*
Y32500D01*
X100700Y33500D01*
G01Y37500D02*
X99100D01*
G01X97067Y35417D02*
X96600Y34833D01*
X96200Y34500D01*
X95667Y34333D01*
X95200Y34500D01*
X94867Y34833D01*
X94600Y35333D01*
X94533Y35917D01*
X94600Y36417D01*
X94867Y36917D01*
X95267Y37333D01*
X95733Y37500D01*
X96267Y37333D01*
X96733Y36833D01*
X97000Y36083D01*
X97067Y35250D01*
X96933Y34167D01*
X96733Y33583D01*
X96400Y33000D01*
X95933Y32583D01*
X95467Y32500D01*
X95000Y32667D01*
X94667Y33083D01*
G54D12*
G01X12500Y180000D02*
Y184000D01*
G01X14500Y182000D02*
X10500D01*
G01X4000Y211500D02*
X30000D01*
Y192000D01*
X23500Y185500D01*
X10500D01*
X4000Y192000D01*
Y211500D01*
G01X13000Y213000D02*
Y217000D01*
G01X153000Y64500D02*
X31000D01*
Y3000D01*
X153000D01*
Y64500D01*
G01X35500Y101500D02*
Y127500D01*
X55000D01*
X61500Y121000D01*
Y108000D01*
X55000Y101500D01*
X35500D01*
G01X34000Y110500D02*
X30000D01*
G01X67000Y110000D02*
X63000D01*
G01X65000Y112000D02*
Y108000D01*
G01X119750Y92600D02*
X119900Y92900D01*
X120000Y93250D01*
Y93650D01*
X119850Y94100D01*
X119600Y94450D01*
X119300Y94700D01*
X118800Y94900D01*
X118350Y94950D01*
X117900Y94850D01*
X117600Y94700D01*
X117300Y94400D01*
X117100Y94050D01*
X117000Y93700D01*
Y93350D01*
X117100Y93000D01*
X117250Y92700D01*
X117450Y92450D01*
G01X117600Y91000D02*
X117250Y90700D01*
X117050Y90300D01*
X117000Y89850D01*
X117050Y89450D01*
X117300Y89050D01*
X117600Y88800D01*
X117900Y88750D01*
X118250Y88850D01*
X118500Y89200D01*
X118600Y89550D01*
Y90000D01*
G01Y89550D02*
X118750Y89250D01*
X119000Y89000D01*
X119300Y88900D01*
X119600Y89000D01*
X119850Y89250D01*
X120000Y89700D01*
X119950Y90150D01*
X119750Y90600D01*
G01X117000Y85500D02*
X120000D01*
X117850Y87350D01*
Y84850D01*
G01X131600Y85250D02*
X131900Y85100D01*
X132250Y85000D01*
X132650D01*
X133100Y85150D01*
X133450Y85400D01*
X133700Y85700D01*
X133900Y86200D01*
X133950Y86650D01*
X133850Y87100D01*
X133700Y87400D01*
X133400Y87700D01*
X133050Y87900D01*
X132700Y88000D01*
X132350D01*
X132000Y87900D01*
X131700Y87750D01*
X131450Y87550D01*
G01X128900Y88000D02*
Y85000D01*
X129500Y85600D01*
G01Y88000D02*
X128300D01*
G01X124500D02*
Y85000D01*
X126350Y87150D01*
X123850D01*
G01X121300Y88000D02*
X120950Y87950D01*
X120550Y87800D01*
X120300Y87550D01*
X120200Y87200D01*
X120300Y86850D01*
X120600Y86550D01*
X121050Y86400D01*
X121550D01*
X121850Y86300D01*
X122100Y86050D01*
X122200Y85700D01*
X122050Y85350D01*
X121700Y85100D01*
X121300Y85000D01*
X120900Y85100D01*
X120550Y85350D01*
X120400Y85700D01*
X120500Y86050D01*
X120750Y86300D01*
X121050Y86400D01*
X121550D01*
X122000Y86550D01*
X122300Y86850D01*
X122400Y87200D01*
X122300Y87550D01*
X122050Y87800D01*
X121650Y87950D01*
X121300Y88000D01*
G01X117750Y118400D02*
X117600Y118100D01*
X117500Y117750D01*
Y117350D01*
X117650Y116900D01*
X117900Y116550D01*
X118200Y116300D01*
X118700Y116100D01*
X119150Y116050D01*
X119600Y116150D01*
X119900Y116300D01*
X120200Y116600D01*
X120400Y116950D01*
X120500Y117300D01*
Y117650D01*
X120400Y118000D01*
X120250Y118300D01*
X120050Y118550D01*
G01X120500Y121100D02*
X117500D01*
X118100Y120500D01*
G01X120500D02*
Y121700D01*
G01X120050Y123800D02*
X120300Y124100D01*
X120450Y124450D01*
X120500Y124900D01*
X120400Y125350D01*
X120200Y125700D01*
X119850Y125950D01*
X119450Y126000D01*
X119050Y125900D01*
X118800Y125650D01*
X118600Y125300D01*
X118550Y124950D01*
X118600Y124600D01*
X118800Y124150D01*
X117500Y124300D01*
Y125650D01*
G01Y128700D02*
X117600Y128300D01*
X117850Y128000D01*
X118150Y127800D01*
X118550Y127650D01*
X119000Y127600D01*
X119450Y127650D01*
X119850Y127800D01*
X120150Y128000D01*
X120400Y128300D01*
X120500Y128700D01*
X120400Y129100D01*
X120150Y129400D01*
X119850Y129600D01*
X119450Y129750D01*
X119000Y129800D01*
X118550Y129750D01*
X118150Y129600D01*
X117850Y129400D01*
X117600Y129100D01*
X117500Y128700D01*
G01X108507Y147500D02*
Y143917D01*
X108760Y143167D01*
X109267Y142667D01*
X109900Y142500D01*
X110533Y142667D01*
X111040Y143167D01*
X111293Y143917D01*
Y147500D01*
G01X115000Y142500D02*
Y147500D01*
X114240Y146500D01*
G01Y142500D02*
X115760D01*
G01X120100D02*
Y147500D01*
X119340Y146500D01*
G01Y142500D02*
X120860D01*
G01X130500Y176000D02*
Y186000D01*
X155500D01*
G01Y176000D02*
X130500D01*
G01X156400Y88750D02*
X156100Y88900D01*
X155750Y89000D01*
X155350D01*
X154900Y88850D01*
X154550Y88600D01*
X154300Y88300D01*
X154100Y87800D01*
X154050Y87350D01*
X154150Y86900D01*
X154300Y86600D01*
X154600Y86300D01*
X154950Y86100D01*
X155300Y86000D01*
X155650D01*
X156000Y86100D01*
X156300Y86250D01*
X156550Y86450D01*
G01X158000Y86600D02*
X158300Y86250D01*
X158700Y86050D01*
X159150Y86000D01*
X159550Y86050D01*
X159950Y86300D01*
X160200Y86600D01*
X160250Y86900D01*
X160150Y87250D01*
X159800Y87500D01*
X159450Y87600D01*
X159000D01*
G01X159450D02*
X159750Y87750D01*
X160000Y88000D01*
X160100Y88300D01*
X160000Y88600D01*
X159750Y88850D01*
X159300Y89000D01*
X158850Y88950D01*
X158400Y88750D01*
G01X161800Y86450D02*
X162100Y86200D01*
X162450Y86050D01*
X162900Y86000D01*
X163350Y86100D01*
X163700Y86300D01*
X163950Y86650D01*
X164000Y87050D01*
X163900Y87450D01*
X163650Y87700D01*
X163300Y87900D01*
X162950Y87950D01*
X162600Y87900D01*
X162150Y87700D01*
X162300Y89000D01*
X163650D01*
G01X143400Y88750D02*
X143100Y88900D01*
X142750Y89000D01*
X142350D01*
X141900Y88850D01*
X141550Y88600D01*
X141300Y88300D01*
X141100Y87800D01*
X141050Y87350D01*
X141150Y86900D01*
X141300Y86600D01*
X141600Y86300D01*
X141950Y86100D01*
X142300Y86000D01*
X142650D01*
X143000Y86100D01*
X143300Y86250D01*
X143550Y86450D01*
G01X146100Y86000D02*
Y89000D01*
X145500Y88400D01*
G01Y86000D02*
X146700D01*
G01X150500D02*
Y89000D01*
X148650Y86850D01*
X151150D01*
G01X152850Y86350D02*
X153200Y86100D01*
X153600Y86000D01*
X154000Y86100D01*
X154350Y86400D01*
X154600Y86850D01*
X154700Y87300D01*
Y87850D01*
X154600Y88300D01*
X154350Y88700D01*
X154050Y88900D01*
X153700Y89000D01*
X153300Y88900D01*
X153000Y88700D01*
X152800Y88400D01*
X152700Y88000D01*
X152800Y87650D01*
X153050Y87300D01*
X153350Y87100D01*
X153700Y87050D01*
X154100Y87150D01*
X154400Y87400D01*
X154700Y87850D01*
G01X169000Y150500D02*
Y166500D01*
X156000D01*
Y150500D01*
X169000D01*
G01X155000Y164000D02*
Y167500D01*
X158500D01*
G01X209685Y38567D02*
X170315D01*
Y7071D01*
X209685D01*
Y38567D01*
G01X249685D02*
X210315D01*
Y7071D01*
X249685D01*
Y38567D01*
G01X289685D02*
X250315D01*
Y7071D01*
X289685D01*
Y38567D01*
G01X244000Y180000D02*
Y140000D01*
X254000D01*
Y150000D01*
G01X244000Y220000D02*
X254000D01*
Y150000D01*
G01X244000Y220000D02*
Y180000D01*
G01X291000Y83000D02*
Y93000D01*
X261000D01*
Y83000D01*
X291000D01*
G01X329685Y38567D02*
X290315D01*
Y7071D01*
X329685D01*
Y38567D01*
G01X411500Y86658D02*
Y27658D01*
X443000D01*
Y86658D01*
X411500D01*
G01Y146658D02*
Y87658D01*
X443000D01*
Y146658D01*
X411500D01*
G01Y206658D02*
Y147658D01*
X443000D01*
Y206658D01*
X411500D01*
G54D13*
G01X2000Y258000D02*
Y2000D01*
X443000D01*
Y258000D01*
X2000D01*
G01X0Y0D02*
Y260000D01*
X445000D01*
Y0D01*
X0D01*
G01X36800Y218300D02*
X72200D01*
Y275300D01*
G01X36800Y218300D02*
Y275300D01*
G01D02*
X72200D01*
G01X64954Y72514D02*
G03I-681J0D01*
G01X81004Y170000D02*
Y176000D01*
X68996D01*
Y170000D01*
X81004D01*
G01X109000Y141500D02*
G03I-1500J0D01*
G01X105000Y137000D02*
Y153000D01*
X125000D01*
Y137000D01*
X105000D01*
G01X106500D02*
Y132800D01*
X108500D01*
Y137000D01*
G01X106500Y153000D02*
Y157200D01*
X108500D01*
Y153000D01*
G01X164000Y98500D02*
X124000D01*
Y113500D01*
X164000D01*
Y98500D01*
G01X127500Y102750D02*
G03I-1000J0D01*
G01X124000Y101000D02*
X164000D01*
G01X121500Y137000D02*
Y132800D01*
X123500D01*
Y137000D01*
G01X121500Y153000D02*
Y157200D01*
X123500D01*
Y153000D01*
G01X116500Y137000D02*
Y132800D01*
X118500D01*
Y137000D01*
G01X111500D02*
Y132800D01*
X113500D01*
Y137000D01*
G01X116500Y153000D02*
Y157200D01*
X118500D01*
Y153000D01*
G01X111500D02*
Y157200D01*
X113500D01*
Y153000D01*
G01X128000Y181800D02*
X126875D01*
X125500Y181267D01*
G01Y182333D02*
X126875Y181800D01*
G01X128000Y184320D02*
X125500D01*
X127292Y183333D01*
Y184667D01*
G01X139000Y104963D02*
X140792D01*
X141167Y105070D01*
X141417Y105283D01*
X141500Y105550D01*
X141417Y105817D01*
X141167Y106030D01*
X140792Y106137D01*
X139000D01*
G01X141500Y107750D02*
X139000D01*
X139500Y107430D01*
G01X141500D02*
Y108070D01*
G01X139417Y109443D02*
X139167Y109603D01*
X139042Y109790D01*
X139000Y110003D01*
X139083Y110270D01*
X139292Y110457D01*
X139542Y110510D01*
X139792Y110483D01*
X140000Y110377D01*
X140417Y109843D01*
X140708Y109603D01*
X141125Y109443D01*
X141500Y109390D01*
Y110510D01*
G01X168012Y151805D02*
X156988D01*
Y165191D01*
X168012D01*
Y151805D01*
G01X184580Y49410D02*
X199180D01*
Y42610D01*
X184580D01*
Y49410D01*
G01X180800Y102900D02*
Y87100D01*
X215200D01*
Y102900D01*
X180800D01*
G01X194000Y87100D02*
X192000D01*
Y82800D01*
X194000D01*
Y87100D01*
G01X189000D02*
X187000D01*
Y82800D01*
X189000D01*
Y87100D01*
G01X184000D02*
X182000D01*
Y82800D01*
X184000D01*
Y87100D01*
G01X182000Y102900D02*
X184000D01*
Y107200D01*
X182000D01*
Y102900D01*
G01X187000D02*
X189000D01*
Y107200D01*
X187000D01*
Y102900D01*
G01X192000D02*
X194000D01*
Y107200D01*
X192000D01*
Y102900D01*
G01X215200Y93800D02*
G02Y96200I0J1200D01*
G01X214000Y87100D02*
X212000D01*
Y82800D01*
X214000D01*
Y87100D01*
G01X209000D02*
X207000D01*
Y82800D01*
X209000D01*
Y87100D01*
G01X204000D02*
X202000D01*
Y82800D01*
X204000D01*
Y87100D01*
G01X199000D02*
X197000D01*
Y82800D01*
X199000D01*
Y87100D01*
G01X197000Y102900D02*
X199000D01*
Y107200D01*
X197000D01*
Y102900D01*
G01X202000D02*
X204000D01*
Y107200D01*
X202000D01*
Y102900D01*
G01X207000D02*
X209000D01*
Y107200D01*
X207000D01*
Y102900D01*
G01X212000D02*
X214000D01*
Y107200D01*
X212000D01*
Y102900D01*
G01X230580Y49410D02*
X245180D01*
Y42610D01*
X230580D01*
Y49410D01*
G01X249500Y204733D02*
X249250Y204600D01*
X249083Y204440D01*
X249000Y204253D01*
X249083Y204040D01*
X249250Y203880D01*
X249500Y203720D01*
X249833Y203667D01*
X251500D01*
G01X249000Y202000D02*
X251500D01*
X251000Y202320D01*
G01X249000D02*
Y201680D01*
G01Y199853D02*
X249542Y199800D01*
X250000Y199720D01*
X250417Y199613D01*
X250875Y199480D01*
X251500Y199267D01*
Y200333D01*
G01X273580Y49410D02*
X288180D01*
Y42610D01*
X273580D01*
Y49410D01*
G01X288787Y106500D02*
Y108292D01*
X288680Y108667D01*
X288467Y108917D01*
X288200Y109000D01*
X287933Y108917D01*
X287720Y108667D01*
X287613Y108292D01*
Y106500D01*
G01X286000Y109000D02*
Y106500D01*
X286320Y107000D01*
G01Y109000D02*
X285680D01*
G01X283800Y106500D02*
X284013Y106583D01*
X284173Y106792D01*
X284280Y107042D01*
X284360Y107375D01*
X284387Y107750D01*
X284360Y108125D01*
X284280Y108458D01*
X284173Y108708D01*
X284013Y108917D01*
X283800Y109000D01*
X283587Y108917D01*
X283427Y108708D01*
X283320Y108458D01*
X283240Y108125D01*
X283213Y107750D01*
X283240Y107375D01*
X283320Y107042D01*
X283427Y106792D01*
X283587Y106583D01*
X283800Y106500D01*
G01X269472Y214276D02*
Y123724D01*
X328528D01*
Y214276D01*
X269472D01*
G01X304500Y57000D02*
Y52800D01*
X302500D01*
Y57000D01*
G01X321000Y73000D02*
Y57000D01*
X301000D01*
Y73000D01*
X321000D01*
G01X309500Y57000D02*
Y52800D01*
X307500D01*
Y57000D01*
G01X314500D02*
Y52800D01*
X312500D01*
Y57000D01*
G01X304500Y73000D02*
Y77200D01*
X302500D01*
Y73000D01*
G01X309500D02*
Y77200D01*
X307500D01*
Y73000D01*
G01X314500D02*
Y77200D01*
X312500D01*
Y73000D01*
G01X287720Y242126D02*
X315280D01*
Y257874D01*
X287720D01*
Y242126D01*
G01X337400Y21400D02*
X384600D01*
Y68600D01*
X337400D01*
Y21400D01*
G01X319500Y57000D02*
Y52800D01*
X317500D01*
Y57000D01*
G01X320000Y68500D02*
G03I-1500J0D01*
G01X319500Y73000D02*
Y77200D01*
X317500D01*
Y73000D01*
G01X337400Y93400D02*
X384600D01*
Y140600D01*
X337400D01*
Y93400D01*
G01Y167400D02*
X384600D01*
Y214600D01*
X337400D01*
Y167400D01*
G01X398590Y42580D02*
Y57180D01*
X405390D01*
Y42580D01*
X398590D01*
G01Y65580D02*
Y80180D01*
X405390D01*
Y65580D01*
X398590D01*
G01Y121580D02*
Y136180D01*
X405390D01*
Y121580D01*
X398590D01*
G01Y98580D02*
Y113180D01*
X405390D01*
Y98580D01*
X398590D01*
G54D14*
G01X20071Y14000D02*
G03I-7071J0D01*
G01X13000Y99000D02*
X18500D01*
Y98500D01*
Y92000D01*
X13000D01*
G01D02*
X5500D01*
Y99000D01*
G01X4500Y96500D02*
Y94500D01*
G01X3500Y95500D02*
X5500D01*
G01Y99000D02*
X13000D01*
G01X4500Y125000D02*
Y123000D01*
G01X3500Y124000D02*
X5500D01*
G01X13000Y127500D02*
X18500D01*
Y127000D01*
Y120500D01*
X13000D01*
G01D02*
X5500D01*
Y127500D01*
G01X13000Y105000D02*
X17500D01*
Y100000D01*
X13000D01*
G01X6500D02*
Y105000D01*
G01Y100000D02*
X13000D01*
G01X6500Y105000D02*
X13000D01*
G01X11600Y103600D02*
Y101300D01*
G01X12300Y103600D02*
Y101300D01*
G01X5000Y152500D02*
Y150500D01*
G01X4000Y151500D02*
X6000D01*
G01X13500Y155000D02*
X19000D01*
Y154500D01*
Y148000D01*
X13500D01*
G01D02*
X6000D01*
Y155000D01*
G01X5500Y127500D02*
X13000D01*
G01Y133500D02*
X17500D01*
Y128500D01*
X13000D01*
G01X6500D02*
Y133500D01*
G01Y128500D02*
X13000D01*
G01X6500Y133500D02*
X13000D01*
G01X11600Y132100D02*
Y129800D01*
G01X12300Y132100D02*
Y129800D01*
G01X6000Y155000D02*
X13500D01*
G01Y161000D02*
X18000D01*
Y156000D01*
X13500D01*
G01X7000D02*
Y161000D01*
G01Y156000D02*
X13500D01*
G01X7000Y161000D02*
X13500D01*
G01X12100Y159600D02*
Y157300D01*
G01X12800Y159600D02*
Y157300D01*
G01X21071Y246000D02*
G03I-7071J0D01*
G01X19500Y96000D02*
Y94500D01*
G01Y124500D02*
Y123000D01*
G01X20000Y152000D02*
Y150500D01*
G01X48610Y71705D02*
X62390D01*
Y97295D01*
X48610D01*
Y71705D01*
G01X76000Y112500D02*
X71500D01*
Y117500D01*
X76000D01*
G01X82500D02*
X76000D01*
G01X82500Y112500D02*
X76000D01*
G01X76700Y113900D02*
Y116200D01*
G01X68500Y141000D02*
Y145500D01*
X73500D01*
Y141000D01*
G01Y134500D02*
X68500D01*
G01X73500D02*
Y141000D01*
G01X68500Y134500D02*
Y141000D01*
G01X69900Y139600D02*
X72200D01*
G01X69900Y140300D02*
X72200D01*
G01X76000Y152500D02*
X71500D01*
Y157500D01*
X76000D01*
G01X82500Y152500D02*
X76000D01*
G01X76700Y153900D02*
Y156200D01*
G01X61500Y174000D02*
Y178500D01*
X66500D01*
Y174000D01*
G01Y167500D02*
X61500D01*
G01X66500D02*
Y174000D01*
G01X61500Y167500D02*
Y174000D01*
G01X62900Y172600D02*
X65200D01*
G01X62900Y173300D02*
X65200D01*
G01X71500Y183500D02*
Y188500D01*
G01Y183500D02*
X78000D01*
G01X76000Y157500D02*
X71500D01*
Y162500D01*
X76000D01*
G01X82500D02*
X76000D01*
G01X82500Y157500D02*
X76000D01*
G01X76700Y158900D02*
Y161200D01*
G01X82500Y157500D02*
X76000D01*
G01Y188500D02*
X71500D01*
Y193500D01*
X76000D01*
G01X82500D02*
X76000D01*
G01X82500Y188500D02*
X76000D01*
G01X76700Y189900D02*
Y192200D01*
G01X71500Y188500D02*
X78000D01*
G01X76600Y187100D02*
Y184800D01*
G01X78500Y81000D02*
Y85500D01*
X83500D01*
Y81000D01*
G01Y74500D02*
X78500D01*
G01X83500D02*
Y81000D01*
G01X78500Y74500D02*
Y81000D01*
G01X79900Y79600D02*
X82200D01*
G01X79900Y80300D02*
X82200D01*
G01X82500Y117500D02*
Y112500D01*
G01X77400Y113900D02*
Y116200D01*
G01X101500Y145000D02*
Y140500D01*
X96500D01*
Y145000D01*
G01Y151500D02*
X101500D01*
G01X96500D02*
Y145000D01*
G01X101500Y151500D02*
Y145000D01*
G01X100100Y146400D02*
X97800D01*
G01X100100Y145700D02*
X97800D01*
G01X82500Y157500D02*
Y152500D01*
G01X77400Y153900D02*
Y156200D01*
G01X78000Y188500D02*
X82500D01*
Y183500D01*
X78000D01*
G01X82500Y162500D02*
Y157500D01*
G01X77400Y158900D02*
Y161200D01*
G01X82500Y193500D02*
Y188500D01*
G01X77400Y189900D02*
Y192200D01*
G01X77300Y187100D02*
Y184800D01*
G01X121500Y91000D02*
Y85500D01*
X121000D01*
X114500D01*
Y91000D01*
G01X121500Y98500D02*
Y91000D01*
G01X114500D02*
Y98500D01*
X121500D01*
G01X130000Y83500D02*
X124500D01*
Y84000D01*
Y90500D01*
X130000D01*
G01X137500Y83500D02*
X130000D01*
G01Y90500D02*
X137500D01*
Y83500D01*
G01X116000Y120000D02*
Y125500D01*
X116500D01*
X123000D01*
Y120000D01*
G01X116000Y112500D02*
Y120000D01*
G01X123000D02*
Y112500D01*
X116000D01*
G01X126000Y162500D02*
X121500D01*
Y167500D01*
X126000D01*
G01X132500D02*
Y162500D01*
G01Y167500D02*
X126000D01*
G01X132500Y162500D02*
X126000D01*
G01X127400Y163900D02*
Y166200D01*
G01X126700Y163900D02*
Y166200D01*
G01X114000Y167500D02*
X118500D01*
Y162500D01*
X114000D01*
G01X107500D02*
Y167500D01*
G01Y162500D02*
X114000D01*
G01X107500Y167500D02*
X114000D01*
G01X112600Y166100D02*
Y163800D01*
G01X113300Y166100D02*
Y163800D01*
G01X158000Y90500D02*
X163500D01*
Y90000D01*
Y83500D01*
X158000D01*
G01X150500Y90500D02*
X158000D01*
G01Y83500D02*
X150500D01*
Y90500D01*
G01X145000D02*
X150500D01*
Y90000D01*
Y83500D01*
X145000D01*
G01X137500Y90500D02*
X145000D01*
G01Y83500D02*
X137500D01*
Y90500D01*
G01X162000Y144500D02*
X157500D01*
Y149500D01*
X162000D01*
G01X168500D02*
X162000D01*
G01X168500Y144500D02*
X162000D01*
G01X163400Y145900D02*
Y148200D01*
G01X162700Y145900D02*
Y148200D01*
G01X154500Y158500D02*
Y154000D01*
X149500D01*
Y158500D01*
G01X162000Y139500D02*
X157500D01*
Y144500D01*
X162000D01*
G01X168500D02*
X162000D01*
G01X168500Y139500D02*
X162000D01*
G01X163400Y140900D02*
Y143200D01*
G01X162700Y140900D02*
Y143200D01*
G01X149500Y142000D02*
Y146500D01*
X154500D01*
Y142000D01*
G01Y135500D02*
X149500D01*
G01X154500D02*
Y142000D01*
G01X149500Y135500D02*
Y142000D01*
G01X150900Y140600D02*
X153200D01*
G01X150900Y141300D02*
X153200D01*
G01X162000Y134500D02*
X157500D01*
Y139500D01*
X162000D01*
G01X168500D02*
X162000D01*
G01X168500Y134500D02*
X162000D01*
G01X163400Y135900D02*
Y138200D01*
G01X162700Y135900D02*
Y138200D01*
G01X149500Y165000D02*
X154500D01*
G01X149500D02*
Y158500D01*
G01X154500Y165000D02*
Y158500D01*
G01X153100Y159900D02*
X150800D01*
G01X153100Y159200D02*
X150800D01*
G01X155500Y174500D02*
X160000D01*
Y169500D01*
X155500D01*
G01X149000D02*
Y174500D01*
G01Y169500D02*
X155500D01*
G01X149000Y174500D02*
X155500D01*
G01X154100Y173100D02*
Y170800D01*
G01X154800Y173100D02*
Y170800D01*
G01X155500Y192500D02*
X160000D01*
Y187500D01*
X155500D01*
G01X149000D02*
Y192500D01*
G01Y187500D02*
X155500D01*
G01X149000Y192500D02*
X155500D01*
G01X154100Y191100D02*
Y188800D01*
G01X154800Y191100D02*
Y188800D01*
G01X174000Y43500D02*
X169500D01*
Y48500D01*
X174000D01*
G01X180500D02*
Y43500D01*
G01Y48500D02*
X174000D01*
G01X180500Y43500D02*
X174000D01*
G01X175400Y44900D02*
Y47200D01*
G01X174700Y44900D02*
Y47200D01*
G01X168500Y149500D02*
Y144500D01*
G01D02*
Y139500D01*
G01D02*
Y134500D01*
G01X197500Y181500D02*
X192500D01*
G01D02*
Y188000D01*
G01Y181500D02*
X187500D01*
G01X192500D02*
Y188000D01*
G01X187500Y181500D02*
Y188000D01*
G01X198500Y196500D02*
X197000D01*
G01X199000Y211500D02*
X197000D01*
G01X201500Y203000D02*
Y197500D01*
X201000D01*
X194500D01*
Y203000D01*
G01D02*
Y210500D01*
X201500D01*
G01X191500Y196500D02*
X190000D01*
G01X192000Y211500D02*
X190000D01*
G01X191000Y212500D02*
Y210500D01*
G01X194500Y203000D02*
Y197500D01*
X194000D01*
X187500D01*
Y203000D01*
G01X194500Y210500D02*
Y203000D01*
G01X187500D02*
Y210500D01*
X194500D01*
G01X192500Y188000D02*
Y192500D01*
X197500D01*
Y188000D01*
G01X193900Y186600D02*
X196200D01*
G01X193900Y187300D02*
X196200D01*
G01X187500Y188000D02*
Y192500D01*
X192500D01*
Y188000D01*
G01X188900Y186600D02*
X191200D01*
G01X188900Y187300D02*
X191200D01*
G01X221000Y43500D02*
X216500D01*
Y48500D01*
X221000D01*
G01X227500D02*
X221000D01*
G01X227500Y43500D02*
X221000D01*
G01X222400Y44900D02*
Y47200D01*
G01X221700Y44900D02*
Y47200D01*
G01X226000Y80500D02*
X220500D01*
Y81000D01*
Y87500D01*
X226000D01*
G01X233500Y80500D02*
X226000D01*
G01Y87500D02*
X233500D01*
Y80500D01*
G01X223500Y119500D02*
Y124000D01*
X228500D01*
Y119500D01*
G01Y113000D02*
X223500D01*
G01D02*
Y119500D01*
G01X224900Y118100D02*
X227200D01*
G01X224900Y118800D02*
X227200D01*
G01X223000Y137500D02*
X227500D01*
Y132500D01*
X223000D01*
G01X216500D02*
Y137500D01*
G01Y132500D02*
X223000D01*
G01X216500Y137500D02*
X223000D01*
G01X221600Y136100D02*
Y133800D01*
G01X222300Y136100D02*
Y133800D01*
G01X230500Y164000D02*
Y159500D01*
X225500D01*
Y164000D01*
G01Y170500D02*
X230500D01*
G01X225500D02*
Y164000D01*
G01X229100Y165400D02*
X226800D01*
G01X229100Y164700D02*
X226800D01*
G01X212500Y181500D02*
X207500D01*
G01X212500D02*
Y188000D01*
G01X207500Y181500D02*
Y188000D01*
G01Y181500D02*
X202500D01*
G01X207500D02*
Y188000D01*
G01X202500Y181500D02*
Y188000D01*
G01Y181500D02*
X197500D01*
G01X202500D02*
Y188000D01*
G01X197500Y181500D02*
Y188000D01*
G01Y181500D02*
Y188000D01*
G01X212500Y196500D02*
X211000D01*
G01X213000Y211500D02*
X211000D01*
G01X212000Y212500D02*
Y210500D01*
G01X215500Y203000D02*
Y197500D01*
X215000D01*
X208500D01*
Y203000D01*
G01X215500Y210500D02*
Y203000D01*
G01X208500D02*
Y210500D01*
X215500D01*
G01X205500Y196500D02*
X204000D01*
G01X206000Y211500D02*
X204000D01*
G01X205000Y212500D02*
Y210500D01*
G01X208500Y203000D02*
Y197500D01*
X208000D01*
X201500D01*
Y203000D01*
G01X208500Y210500D02*
Y203000D01*
G01X201500D02*
Y210500D01*
X208500D01*
G01X198000Y212500D02*
Y210500D01*
G01X201500D02*
Y203000D01*
G01X207500Y188000D02*
Y192500D01*
X212500D01*
Y188000D01*
G01X208900Y186600D02*
X211200D01*
G01X208900Y187300D02*
X211200D01*
G01X202500Y188000D02*
Y192500D01*
X207500D01*
Y188000D01*
G01X203900Y186600D02*
X206200D01*
G01X203900Y187300D02*
X206200D01*
G01X197500Y188000D02*
Y192500D01*
X202500D01*
Y188000D01*
G01X198900Y186600D02*
X201200D01*
G01X198900Y187300D02*
X201200D01*
G01X227500Y48500D02*
Y43500D01*
G01X252500Y123000D02*
Y127500D01*
X257500D01*
Y123000D01*
G01Y116500D02*
X252500D01*
G01D02*
Y123000D01*
G01X253900Y121600D02*
X256200D01*
G01X253900Y122300D02*
X256200D01*
G01X233500Y117500D02*
Y113000D01*
X228500D01*
Y117500D01*
G01Y124000D02*
X233500D01*
G01X228500D02*
Y117500D01*
G01X233500Y124000D02*
Y117500D01*
G01X232100Y118900D02*
X229800D01*
G01X232100Y118200D02*
X229800D01*
G01X228500Y113000D02*
Y119500D01*
G01X252500Y121000D02*
Y115500D01*
X252000D01*
X245500D01*
Y121000D01*
G01X252500Y128500D02*
Y121000D01*
G01X245500D02*
Y128500D01*
X252500D01*
G01X230500Y170500D02*
Y164000D01*
G01X263000Y43500D02*
X258500D01*
Y48500D01*
X263000D01*
G01X269500D02*
Y43500D01*
G01Y48500D02*
X263000D01*
G01X269500Y43500D02*
X263000D01*
G01X264400Y44900D02*
Y47200D01*
G01X263700Y44900D02*
Y47200D01*
G01X257500Y116500D02*
Y123000D01*
G01X312000Y47500D02*
X316500D01*
Y42500D01*
X312000D01*
G01X305500D02*
Y47500D01*
G01Y42500D02*
X312000D01*
G01X305500Y47500D02*
X312000D01*
G01X310600Y46100D02*
Y43800D01*
G01X311300Y46100D02*
Y43800D01*
G01X315500Y107000D02*
Y101500D01*
X315000D01*
X308500D01*
Y107000D01*
G01X315500Y114500D02*
Y107000D01*
G01X308500D02*
Y114500D01*
X315500D01*
G01X308500Y107000D02*
Y101500D01*
X308000D01*
X301500D01*
Y107000D01*
G01X308500Y114500D02*
Y107000D01*
G01X301500D02*
Y114500D01*
X308500D01*
G01X297500Y220500D02*
X293000D01*
Y225500D01*
X297500D01*
G01X304000D02*
Y220500D01*
G01Y225500D02*
X297500D01*
G01X304000Y220500D02*
X297500D01*
G01X298900Y221900D02*
Y224200D01*
G01X298200Y221900D02*
Y224200D01*
G01X297500Y236500D02*
X293000D01*
Y241500D01*
X297500D01*
G01X304000D02*
Y236500D01*
G01Y241500D02*
X297500D01*
G01X304000Y236500D02*
X297500D01*
G01X298900Y237900D02*
Y240200D01*
G01X298200Y237900D02*
Y240200D01*
G01X299000Y232000D02*
Y236500D01*
X304000D01*
Y232000D01*
G01Y225500D02*
X299000D01*
G01X304000D02*
Y232000D01*
G01X299000Y225500D02*
Y232000D01*
G01X300400Y230600D02*
X302700D01*
G01X300400Y231300D02*
X302700D01*
G01X331500Y63000D02*
Y57500D01*
X331000D01*
X324500D01*
Y63000D01*
G01X331500Y70500D02*
Y63000D01*
G01X324500D02*
Y70500D01*
X331500D01*
G01X378500Y80000D02*
Y84500D01*
X383500D01*
Y80000D01*
G01Y73500D02*
X378500D01*
G01X383500D02*
Y80000D01*
G01X378500Y73500D02*
Y80000D01*
G01X379900Y78600D02*
X382200D01*
G01X379900Y79300D02*
X382200D01*
G01X388500Y78000D02*
Y73500D01*
X383500D01*
Y78000D01*
G01Y84500D02*
X388500D01*
G01X383500D02*
Y78000D01*
G01X388500Y84500D02*
Y78000D01*
G01X387100Y79400D02*
X384800D01*
G01X387100Y78700D02*
X384800D01*
G01X378500Y153000D02*
Y157500D01*
X383500D01*
Y153000D01*
G01Y146500D02*
X378500D01*
G01X383500D02*
Y153000D01*
G01X378500Y146500D02*
Y153000D01*
G01X379900Y151600D02*
X382200D01*
G01X379900Y152300D02*
X382200D01*
G01X388500Y151000D02*
Y146500D01*
X383500D01*
Y151000D01*
G01Y157500D02*
Y151000D01*
G01X388500Y157500D02*
Y151000D01*
G01X387100Y152400D02*
X384800D01*
G01X387100Y151700D02*
X384800D01*
G01X383500Y157500D02*
X388500D01*
G01X404500Y166000D02*
Y161500D01*
X399500D01*
Y166000D01*
G01Y172500D02*
X404500D01*
G01X399500D02*
Y166000D01*
G01X404500Y172500D02*
Y166000D01*
G01X403100Y167400D02*
X400800D01*
G01X403100Y166700D02*
X400800D01*
G01X378500Y227000D02*
Y231500D01*
X383500D01*
Y227000D01*
G01Y220500D02*
X378500D01*
G01X383500D02*
Y227000D01*
G01X378500Y220500D02*
Y227000D01*
G01X379900Y225600D02*
X382200D01*
G01X379900Y226300D02*
X382200D01*
G01X388500Y225000D02*
Y220500D01*
X383500D01*
Y225000D01*
G01Y231500D02*
X388500D01*
G01X383500D02*
Y225000D01*
G01X388500Y231500D02*
Y225000D01*
G01X387100Y226400D02*
X384800D01*
G01X387100Y225700D02*
X384800D01*
G01X435071Y13000D02*
G03I-7071J0D01*
G01X438071Y245500D02*
G03I-7071J0D01*
G54D15*
G01X7383Y11500D02*
Y15500D01*
X8900Y12167D01*
X10417Y15500D01*
Y11500D01*
G01X11775D02*
Y15500D01*
G01X14225D02*
Y11500D01*
G01Y13500D02*
X11775D01*
G01X15992Y14833D02*
X16342Y15233D01*
X16750Y15433D01*
X17217Y15500D01*
X17800Y15367D01*
X18208Y15033D01*
X18325Y14633D01*
X18267Y14233D01*
X18033Y13900D01*
X16867Y13233D01*
X16342Y12767D01*
X15992Y12100D01*
X15875Y11500D01*
X18325D01*
G01X8867Y93500D02*
Y97500D01*
X10033D01*
X10500Y97300D01*
X10850Y97033D01*
X11142Y96633D01*
X11375Y96167D01*
X11433Y95500D01*
X11375Y94833D01*
X11142Y94367D01*
X10850Y93967D01*
X10500Y93700D01*
X10033Y93500D01*
X8867D01*
G01X12967Y94100D02*
X13317Y93767D01*
X13725Y93567D01*
X14250Y93500D01*
X14775Y93633D01*
X15183Y93900D01*
X15475Y94367D01*
X15533Y94900D01*
X15417Y95433D01*
X15125Y95767D01*
X14717Y96033D01*
X14308Y96100D01*
X13900Y96033D01*
X13375Y95767D01*
X13550Y97500D01*
X15125D01*
G01X8867Y122000D02*
Y126000D01*
X10033D01*
X10500Y125800D01*
X10850Y125533D01*
X11142Y125133D01*
X11375Y124667D01*
X11433Y124000D01*
X11375Y123333D01*
X11142Y122867D01*
X10850Y122467D01*
X10500Y122200D01*
X10033Y122000D01*
X8867D01*
G01X14950D02*
Y126000D01*
X12792Y123133D01*
X15708D01*
G01X9583Y100500D02*
Y104500D01*
X11042D01*
X11508Y104300D01*
X11800Y104033D01*
X11917Y103500D01*
X11800Y102967D01*
X11450Y102633D01*
X11042Y102433D01*
X9583D01*
G01X11042D02*
X11917Y100500D01*
G01X15550D02*
Y104500D01*
X13392Y101633D01*
X16308D01*
G01X9367Y149500D02*
Y153500D01*
X10533D01*
X11000Y153300D01*
X11350Y153033D01*
X11642Y152633D01*
X11875Y152167D01*
X11933Y151500D01*
X11875Y150833D01*
X11642Y150367D01*
X11350Y149967D01*
X11000Y149700D01*
X10533Y149500D01*
X9367D01*
G01X13467Y150300D02*
X13817Y149833D01*
X14283Y149567D01*
X14808Y149500D01*
X15275Y149567D01*
X15742Y149900D01*
X16033Y150300D01*
X16092Y150700D01*
X15975Y151167D01*
X15567Y151500D01*
X15158Y151633D01*
X14633D01*
G01X15158D02*
X15508Y151833D01*
X15800Y152167D01*
X15917Y152567D01*
X15800Y152967D01*
X15508Y153300D01*
X14983Y153500D01*
X14458Y153433D01*
X13933Y153167D01*
G01X9583Y129000D02*
Y133000D01*
X11042D01*
X11508Y132800D01*
X11800Y132533D01*
X11917Y132000D01*
X11800Y131467D01*
X11450Y131133D01*
X11042Y130933D01*
X9583D01*
G01X11042D02*
X11917Y129000D01*
G01X13567Y129800D02*
X13917Y129333D01*
X14383Y129067D01*
X14908Y129000D01*
X15375Y129067D01*
X15842Y129400D01*
X16133Y129800D01*
X16192Y130200D01*
X16075Y130667D01*
X15667Y131000D01*
X15258Y131133D01*
X14733D01*
G01X15258D02*
X15608Y131333D01*
X15900Y131667D01*
X16017Y132067D01*
X15900Y132467D01*
X15608Y132800D01*
X15083Y133000D01*
X14558Y132933D01*
X14033Y132667D01*
G01X10083Y156500D02*
Y160500D01*
X11542D01*
X12008Y160300D01*
X12300Y160033D01*
X12417Y159500D01*
X12300Y158967D01*
X11950Y158633D01*
X11542Y158433D01*
X10083D01*
G01X11542D02*
X12417Y156500D01*
G01X14242Y159833D02*
X14592Y160233D01*
X15000Y160433D01*
X15467Y160500D01*
X16050Y160367D01*
X16458Y160033D01*
X16575Y159633D01*
X16517Y159233D01*
X16283Y158900D01*
X15117Y158233D01*
X14592Y157767D01*
X14242Y157100D01*
X14125Y156500D01*
X16575D01*
G01X14333Y198033D02*
X14133Y197683D01*
X14000Y197275D01*
Y196808D01*
X14200Y196283D01*
X14533Y195875D01*
X14933Y195583D01*
X15600Y195350D01*
X16200Y195292D01*
X16800Y195408D01*
X17200Y195583D01*
X17600Y195933D01*
X17867Y196342D01*
X18000Y196750D01*
Y197158D01*
X17867Y197567D01*
X17667Y197917D01*
X17400Y198208D01*
G01X17200Y199567D02*
X17667Y199917D01*
X17933Y200383D01*
X18000Y200908D01*
X17933Y201375D01*
X17600Y201842D01*
X17200Y202133D01*
X16800Y202192D01*
X16333Y202075D01*
X16000Y201667D01*
X15867Y201258D01*
Y200733D01*
G01Y201258D02*
X15667Y201608D01*
X15333Y201900D01*
X14933Y202017D01*
X14533Y201900D01*
X14200Y201608D01*
X14000Y201083D01*
X14067Y200558D01*
X14333Y200033D01*
G01X8383Y243500D02*
Y247500D01*
X9900Y244167D01*
X11417Y247500D01*
Y243500D01*
G01X12775D02*
Y247500D01*
G01X15225D02*
Y243500D01*
G01Y245500D02*
X12775D01*
G01X18100Y243500D02*
Y247500D01*
X17400Y246700D01*
G01Y243500D02*
X18800D01*
G01X48967Y111833D02*
X49317Y111633D01*
X49725Y111500D01*
X50192D01*
X50717Y111700D01*
X51125Y112033D01*
X51417Y112433D01*
X51650Y113100D01*
X51708Y113700D01*
X51592Y114300D01*
X51417Y114700D01*
X51067Y115100D01*
X50658Y115367D01*
X50250Y115500D01*
X49842D01*
X49433Y115367D01*
X49083Y115167D01*
X48792Y114900D01*
G01X45450Y115500D02*
Y111500D01*
X47608Y114367D01*
X44692D01*
G01X39500Y146417D02*
X35500D01*
Y144083D01*
G01Y141150D02*
X39500D01*
X38700Y141850D01*
G01X35500D02*
Y140450D01*
G01X51867Y88000D02*
Y85133D01*
X52100Y84533D01*
X52567Y84133D01*
X53150Y84000D01*
X53733Y84133D01*
X54200Y84533D01*
X54433Y85133D01*
Y88000D01*
G01X56142Y87333D02*
X56492Y87733D01*
X56900Y87933D01*
X57367Y88000D01*
X57950Y87867D01*
X58358Y87533D01*
X58475Y87133D01*
X58417Y86733D01*
X58183Y86400D01*
X57017Y85733D01*
X56492Y85267D01*
X56142Y84600D01*
X56025Y84000D01*
X58475D01*
G01X76967Y113333D02*
X77317Y113133D01*
X77725Y113000D01*
X78192D01*
X78717Y113200D01*
X79125Y113533D01*
X79417Y113933D01*
X79650Y114600D01*
X79708Y115200D01*
X79592Y115800D01*
X79417Y116200D01*
X79067Y116600D01*
X78658Y116867D01*
X78250Y117000D01*
X77842D01*
X77433Y116867D01*
X77083Y116667D01*
X76792Y116400D01*
G01X74267Y117000D02*
X74150Y116133D01*
X73975Y115400D01*
X73742Y114733D01*
X73450Y114000D01*
X72983Y113000D01*
X75317D01*
G01X72667Y140967D02*
X72867Y141317D01*
X73000Y141725D01*
Y142192D01*
X72800Y142717D01*
X72467Y143125D01*
X72067Y143417D01*
X71400Y143650D01*
X70800Y143708D01*
X70200Y143592D01*
X69800Y143417D01*
X69400Y143067D01*
X69133Y142658D01*
X69000Y142250D01*
Y141842D01*
X69133Y141433D01*
X69333Y141083D01*
X69600Y140792D01*
G01Y139433D02*
X69267Y139083D01*
X69067Y138675D01*
X69000Y138150D01*
X69133Y137625D01*
X69400Y137217D01*
X69867Y136925D01*
X70400Y136867D01*
X70933Y136983D01*
X71267Y137275D01*
X71533Y137683D01*
X71600Y138092D01*
X71533Y138500D01*
X71267Y139025D01*
X73000Y138850D01*
Y137275D01*
G01X79417Y157000D02*
Y153000D01*
X77958D01*
X77492Y153200D01*
X77200Y153467D01*
X77083Y154000D01*
X77200Y154533D01*
X77550Y154867D01*
X77958Y155067D01*
X79417D01*
G01X77958D02*
X77083Y157000D01*
G01X75433Y156400D02*
X75083Y156733D01*
X74675Y156933D01*
X74150Y157000D01*
X73625Y156867D01*
X73217Y156600D01*
X72925Y156133D01*
X72867Y155600D01*
X72983Y155067D01*
X73275Y154733D01*
X73683Y154467D01*
X74092Y154400D01*
X74500Y154467D01*
X75025Y154733D01*
X74850Y153000D01*
X73275D01*
G01X59589Y142520D02*
X59389Y142170D01*
X59256Y141762D01*
Y141295D01*
X59456Y140770D01*
X59789Y140362D01*
X60189Y140070D01*
X60856Y139837D01*
X61456Y139779D01*
X62056Y139895D01*
X62456Y140070D01*
X62856Y140420D01*
X63123Y140829D01*
X63256Y141237D01*
Y141645D01*
X63123Y142054D01*
X62923Y142404D01*
X62656Y142695D01*
G01X61589Y144229D02*
X61123Y144637D01*
X60856Y144987D01*
X60723Y145454D01*
X60856Y145862D01*
X61123Y146154D01*
X61523Y146387D01*
X61989Y146445D01*
X62389Y146387D01*
X62789Y146154D01*
X63123Y145804D01*
X63256Y145395D01*
X63123Y144929D01*
X62723Y144520D01*
X62123Y144287D01*
X61456Y144229D01*
X60589Y144345D01*
X60123Y144520D01*
X59656Y144812D01*
X59323Y145220D01*
X59256Y145629D01*
X59389Y146037D01*
X59723Y146329D01*
G01X52500Y178333D02*
X56500D01*
Y177167D01*
X56300Y176700D01*
X56033Y176350D01*
X55633Y176058D01*
X55167Y175825D01*
X54500Y175767D01*
X53833Y175825D01*
X53367Y176058D01*
X52967Y176350D01*
X52700Y176700D01*
X52500Y177167D01*
Y178333D01*
G01X55833Y174058D02*
X56233Y173708D01*
X56433Y173300D01*
X56500Y172833D01*
X56367Y172250D01*
X56033Y171842D01*
X55633Y171725D01*
X55233Y171783D01*
X54900Y172017D01*
X54233Y173183D01*
X53767Y173708D01*
X53100Y174058D01*
X52500Y174175D01*
Y171725D01*
G01X80417Y188000D02*
Y184000D01*
X78958D01*
X78492Y184200D01*
X78200Y184467D01*
X78083Y185000D01*
X78200Y185533D01*
X78550Y185867D01*
X78958Y186067D01*
X80417D01*
G01X78958D02*
X78083Y188000D01*
G01X75150D02*
Y184000D01*
X75850Y184800D01*
G01Y188000D02*
X74450D01*
G01X79417Y162000D02*
Y158000D01*
X77958D01*
X77492Y158200D01*
X77200Y158467D01*
X77083Y159000D01*
X77200Y159533D01*
X77550Y159867D01*
X77958Y160067D01*
X79417D01*
G01X77958D02*
X77083Y162000D01*
G01X75258Y160333D02*
X74850Y159867D01*
X74500Y159600D01*
X74033Y159467D01*
X73625Y159600D01*
X73333Y159867D01*
X73100Y160267D01*
X73042Y160733D01*
X73100Y161133D01*
X73333Y161533D01*
X73683Y161867D01*
X74092Y162000D01*
X74558Y161867D01*
X74967Y161467D01*
X75200Y160867D01*
X75258Y160200D01*
X75142Y159333D01*
X74967Y158867D01*
X74675Y158400D01*
X74267Y158067D01*
X73858Y158000D01*
X73450Y158133D01*
X73158Y158467D01*
G01X77333Y171000D02*
Y173867D01*
X77100Y174467D01*
X76633Y174867D01*
X76050Y175000D01*
X75467Y174867D01*
X75000Y174467D01*
X74767Y173867D01*
Y171000D01*
G01X71950Y175000D02*
Y171000D01*
X72650Y171800D01*
G01Y175000D02*
X71250D01*
G01X66917Y190867D02*
X67267Y190667D01*
X67675Y190534D01*
X68142D01*
X68667Y190734D01*
X69075Y191067D01*
X69367Y191467D01*
X69600Y192134D01*
X69658Y192734D01*
X69542Y193334D01*
X69367Y193734D01*
X69017Y194134D01*
X68608Y194401D01*
X68200Y194534D01*
X67792D01*
X67383Y194401D01*
X67033Y194201D01*
X66742Y193934D01*
G01X64100Y194534D02*
Y190534D01*
X64800Y191334D01*
G01Y194534D02*
X63400D01*
G01X55700Y239083D02*
X56100Y239375D01*
X56367Y239725D01*
X56500Y240133D01*
X56367Y240600D01*
X56100Y240950D01*
X55700Y241300D01*
X55167Y241417D01*
X52500D01*
G01X53167Y243242D02*
X52767Y243592D01*
X52567Y244000D01*
X52500Y244467D01*
X52633Y245050D01*
X52967Y245458D01*
X53367Y245575D01*
X53767Y245517D01*
X54100Y245283D01*
X54767Y244117D01*
X55233Y243592D01*
X55900Y243242D01*
X56500Y243125D01*
Y245575D01*
G01X78333Y80033D02*
X78133Y79683D01*
X78000Y79275D01*
Y78808D01*
X78200Y78283D01*
X78533Y77875D01*
X78933Y77583D01*
X79600Y77350D01*
X80200Y77292D01*
X80800Y77408D01*
X81200Y77583D01*
X81600Y77933D01*
X81867Y78342D01*
X82000Y78750D01*
Y79158D01*
X81867Y79567D01*
X81667Y79917D01*
X81400Y80208D01*
G01X82000Y82850D02*
X81933Y83258D01*
X81733Y83725D01*
X81400Y84017D01*
X80933Y84133D01*
X80467Y84017D01*
X80067Y83667D01*
X79867Y83142D01*
Y82558D01*
X79733Y82208D01*
X79400Y81917D01*
X78933Y81800D01*
X78467Y81975D01*
X78133Y82383D01*
X78000Y82850D01*
X78133Y83317D01*
X78467Y83725D01*
X78933Y83900D01*
X79400Y83783D01*
X79733Y83492D01*
X79867Y83142D01*
Y82558D01*
X80067Y82033D01*
X80467Y81683D01*
X80933Y81567D01*
X81400Y81683D01*
X81733Y81975D01*
X81933Y82442D01*
X82000Y82850D01*
G01X98207Y136359D02*
X98356Y136658D01*
X98456Y137006D01*
Y137405D01*
X98306Y137854D01*
X98057Y138202D01*
X97758Y138452D01*
X97260Y138651D01*
X96811Y138701D01*
X96363Y138601D01*
X96064Y138452D01*
X95765Y138153D01*
X95566Y137804D01*
X95466Y137455D01*
Y137106D01*
X95566Y136757D01*
X95715Y136458D01*
X95914Y136209D01*
G01X97958Y134432D02*
X98257Y134133D01*
X98406Y133784D01*
X98456Y133385D01*
X98356Y132887D01*
X98107Y132538D01*
X97808Y132438D01*
X97509Y132488D01*
X97260Y132688D01*
X96762Y133684D01*
X96413Y134133D01*
X95914Y134432D01*
X95466Y134532D01*
Y132438D01*
G01X96712Y130462D02*
X97061Y130113D01*
X97260Y129814D01*
X97360Y129415D01*
X97260Y129066D01*
X97061Y128817D01*
X96762Y128618D01*
X96413Y128568D01*
X96114Y128618D01*
X95815Y128817D01*
X95566Y129116D01*
X95466Y129465D01*
X95566Y129864D01*
X95865Y130213D01*
X96313Y130412D01*
X96811Y130462D01*
X97459Y130362D01*
X97808Y130213D01*
X98157Y129964D01*
X98406Y129615D01*
X98456Y129266D01*
X98356Y128917D01*
X98107Y128668D01*
G01X104417Y200200D02*
X104125Y200600D01*
X103775Y200867D01*
X103367Y201000D01*
X102900Y200867D01*
X102550Y200600D01*
X102200Y200200D01*
X102083Y199667D01*
Y197000D01*
G01X99150Y201000D02*
Y197000D01*
X99850Y197800D01*
G01Y201000D02*
X98450D01*
G01X102167Y238000D02*
Y242000D01*
X103333D01*
X103800Y241800D01*
X104150Y241533D01*
X104442Y241133D01*
X104675Y240667D01*
X104733Y240000D01*
X104675Y239333D01*
X104442Y238867D01*
X104150Y238467D01*
X103800Y238200D01*
X103333Y238000D01*
X102167D01*
G01X107550D02*
Y242000D01*
X106850Y241200D01*
G01Y238000D02*
X108250D01*
G01X119452Y168534D02*
Y165544D01*
X118206D01*
X117807Y165694D01*
X117558Y165893D01*
X117458Y166292D01*
X117558Y166690D01*
X117857Y166939D01*
X118206Y167089D01*
X119452D01*
G01X118206D02*
X117458Y168534D01*
G01X115432Y166042D02*
X115133Y165743D01*
X114784Y165594D01*
X114385Y165544D01*
X113887Y165644D01*
X113538Y165893D01*
X113438Y166192D01*
X113488Y166491D01*
X113688Y166740D01*
X114684Y167238D01*
X115133Y167587D01*
X115432Y168086D01*
X115532Y168534D01*
X113438D01*
G01X111462Y167288D02*
X111113Y166939D01*
X110814Y166740D01*
X110415Y166640D01*
X110066Y166740D01*
X109817Y166939D01*
X109618Y167238D01*
X109568Y167587D01*
X109618Y167886D01*
X109817Y168185D01*
X110116Y168434D01*
X110465Y168534D01*
X110864Y168434D01*
X111213Y168135D01*
X111412Y167687D01*
X111462Y167189D01*
X111362Y166541D01*
X111213Y166192D01*
X110964Y165843D01*
X110615Y165594D01*
X110266Y165544D01*
X109917Y165644D01*
X109668Y165893D01*
G01X120548Y161466D02*
Y164456D01*
X121794D01*
X122193Y164306D01*
X122442Y164107D01*
X122542Y163708D01*
X122442Y163310D01*
X122143Y163061D01*
X121794Y162911D01*
X120548D01*
G01X121794D02*
X122542Y161466D01*
G01X124568Y163958D02*
X124867Y164257D01*
X125216Y164406D01*
X125615Y164456D01*
X126113Y164356D01*
X126462Y164107D01*
X126562Y163808D01*
X126512Y163509D01*
X126312Y163260D01*
X125316Y162762D01*
X124867Y162413D01*
X124568Y161914D01*
X124468Y161466D01*
X126562D01*
G01X129385D02*
X129485Y162114D01*
X129635Y162662D01*
X129834Y163160D01*
X130083Y163708D01*
X130482Y164456D01*
X128488D01*
G01X161033Y148667D02*
X160683Y148867D01*
X160275Y149000D01*
X159808D01*
X159283Y148800D01*
X158875Y148467D01*
X158583Y148067D01*
X158350Y147400D01*
X158292Y146800D01*
X158408Y146200D01*
X158583Y145800D01*
X158933Y145400D01*
X159342Y145133D01*
X159750Y145000D01*
X160158D01*
X160567Y145133D01*
X160917Y145333D01*
X161208Y145600D01*
G01X163850Y145000D02*
Y149000D01*
X163150Y148200D01*
G01Y145000D02*
X164550D01*
G01X166667Y145600D02*
X167017Y145267D01*
X167425Y145067D01*
X167950Y145000D01*
X168475Y145133D01*
X168883Y145400D01*
X169175Y145867D01*
X169233Y146400D01*
X169117Y146933D01*
X168825Y147267D01*
X168417Y147533D01*
X168008Y147600D01*
X167600Y147533D01*
X167075Y147267D01*
X167250Y149000D01*
X168825D01*
G01X153667Y161467D02*
X153867Y161817D01*
X154000Y162225D01*
Y162692D01*
X153800Y163217D01*
X153467Y163625D01*
X153067Y163917D01*
X152400Y164150D01*
X151800Y164208D01*
X151200Y164092D01*
X150800Y163917D01*
X150400Y163567D01*
X150133Y163158D01*
X150000Y162750D01*
Y162342D01*
X150133Y161933D01*
X150333Y161583D01*
X150600Y161292D01*
G01X150000Y158650D02*
X154000D01*
X153200Y159350D01*
G01X150000D02*
Y157950D01*
G01Y153850D02*
X154000D01*
X151133Y156008D01*
Y153092D01*
G01X161033Y143667D02*
X160683Y143867D01*
X160275Y144000D01*
X159808D01*
X159283Y143800D01*
X158875Y143467D01*
X158583Y143067D01*
X158350Y142400D01*
X158292Y141800D01*
X158408Y141200D01*
X158583Y140800D01*
X158933Y140400D01*
X159342Y140133D01*
X159750Y140000D01*
X160158D01*
X160567Y140133D01*
X160917Y140333D01*
X161208Y140600D01*
G01X163850Y140000D02*
Y144000D01*
X163150Y143200D01*
G01Y140000D02*
X164550D01*
G01X167950Y144000D02*
X167483Y143867D01*
X167133Y143533D01*
X166900Y143133D01*
X166725Y142600D01*
X166667Y142000D01*
X166725Y141400D01*
X166900Y140867D01*
X167133Y140467D01*
X167483Y140133D01*
X167950Y140000D01*
X168417Y140133D01*
X168767Y140467D01*
X169000Y140867D01*
X169175Y141400D01*
X169233Y142000D01*
X169175Y142600D01*
X169000Y143133D01*
X168767Y143533D01*
X168417Y143867D01*
X167950Y144000D01*
G01X153667Y142967D02*
X153867Y143317D01*
X154000Y143725D01*
Y144192D01*
X153800Y144717D01*
X153467Y145125D01*
X153067Y145417D01*
X152400Y145650D01*
X151800Y145708D01*
X151200Y145592D01*
X150800Y145417D01*
X150400Y145067D01*
X150133Y144658D01*
X150000Y144250D01*
Y143842D01*
X150133Y143433D01*
X150333Y143083D01*
X150600Y142792D01*
G01X150000Y140150D02*
X154000D01*
X153200Y140850D01*
G01X150000D02*
Y139450D01*
G01Y136050D02*
X150067Y135642D01*
X150267Y135175D01*
X150600Y134883D01*
X151067Y134767D01*
X151533Y134883D01*
X151933Y135233D01*
X152133Y135758D01*
Y136342D01*
X152267Y136692D01*
X152600Y136983D01*
X153067Y137100D01*
X153533Y136925D01*
X153867Y136517D01*
X154000Y136050D01*
X153867Y135583D01*
X153533Y135175D01*
X153067Y135000D01*
X152600Y135117D01*
X152267Y135408D01*
X152133Y135758D01*
Y136342D01*
X151933Y136867D01*
X151533Y137217D01*
X151067Y137333D01*
X150600Y137217D01*
X150267Y136925D01*
X150067Y136458D01*
X150000Y136050D01*
G01X166417Y139000D02*
Y135000D01*
X164958D01*
X164492Y135200D01*
X164200Y135467D01*
X164083Y136000D01*
X164200Y136533D01*
X164550Y136867D01*
X164958Y137067D01*
X166417D01*
G01X164958D02*
X164083Y139000D01*
G01X161150D02*
Y135000D01*
X161850Y135800D01*
G01Y139000D02*
X160450D01*
G01X158158Y135667D02*
X157808Y135267D01*
X157400Y135067D01*
X156933Y135000D01*
X156350Y135133D01*
X155942Y135467D01*
X155825Y135867D01*
X155883Y136267D01*
X156117Y136600D01*
X157283Y137267D01*
X157808Y137733D01*
X158158Y138400D01*
X158275Y139000D01*
X155825D01*
G01X164141Y171207D02*
X163842Y171356D01*
X163494Y171456D01*
X163095D01*
X162646Y171306D01*
X162298Y171057D01*
X162048Y170758D01*
X161849Y170260D01*
X161799Y169811D01*
X161899Y169363D01*
X162048Y169064D01*
X162347Y168765D01*
X162696Y168566D01*
X163045Y168466D01*
X163394D01*
X163743Y168566D01*
X164042Y168715D01*
X164291Y168914D01*
G01X167015Y168466D02*
Y171456D01*
X166417Y170858D01*
G01Y168466D02*
X167613D01*
G01X169889Y168914D02*
X170188Y168665D01*
X170536Y168516D01*
X170985Y168466D01*
X171434Y168566D01*
X171782Y168765D01*
X172032Y169114D01*
X172081Y169512D01*
X171982Y169911D01*
X171732Y170160D01*
X171384Y170360D01*
X171035Y170409D01*
X170686Y170360D01*
X170238Y170160D01*
X170387Y171456D01*
X171732D01*
G01X174008Y170958D02*
X174307Y171257D01*
X174656Y171406D01*
X175055Y171456D01*
X175553Y171356D01*
X175902Y171107D01*
X176002Y170808D01*
X175952Y170509D01*
X175752Y170260D01*
X174756Y169762D01*
X174307Y169413D01*
X174008Y168914D01*
X173908Y168466D01*
X176002D01*
G01X161250Y156500D02*
Y158300D01*
X160083Y160500D01*
G01X162417D02*
X161250Y158300D01*
G01X165350Y156500D02*
Y160500D01*
X164650Y159700D01*
G01Y156500D02*
X166050D01*
G01X164141Y189207D02*
X163842Y189356D01*
X163494Y189456D01*
X163095D01*
X162646Y189306D01*
X162298Y189057D01*
X162048Y188758D01*
X161849Y188260D01*
X161799Y187811D01*
X161899Y187363D01*
X162048Y187064D01*
X162347Y186765D01*
X162696Y186566D01*
X163045Y186466D01*
X163394D01*
X163743Y186566D01*
X164042Y186715D01*
X164291Y186914D01*
G01X167015Y186466D02*
Y189456D01*
X166417Y188858D01*
G01Y186466D02*
X167613D01*
G01X169889Y186914D02*
X170188Y186665D01*
X170536Y186516D01*
X170985Y186466D01*
X171434Y186566D01*
X171782Y186765D01*
X172032Y187114D01*
X172081Y187512D01*
X171982Y187911D01*
X171732Y188160D01*
X171384Y188360D01*
X171035Y188409D01*
X170686Y188360D01*
X170238Y188160D01*
X170387Y189456D01*
X171732D01*
G01X174955Y186466D02*
Y189456D01*
X174357Y188858D01*
G01Y186466D02*
X175553D01*
G01X182583Y18800D02*
X182875Y18400D01*
X183225Y18133D01*
X183633Y18000D01*
X184100Y18133D01*
X184450Y18400D01*
X184800Y18800D01*
X184917Y19333D01*
Y22000D01*
G01X187850Y18000D02*
Y22000D01*
X187150Y21200D01*
G01Y18000D02*
X188550D01*
G01X190842Y21333D02*
X191192Y21733D01*
X191600Y21933D01*
X192067Y22000D01*
X192650Y21867D01*
X193058Y21533D01*
X193175Y21133D01*
X193117Y20733D01*
X192883Y20400D01*
X191717Y19733D01*
X191192Y19267D01*
X190842Y18600D01*
X190725Y18000D01*
X193175D01*
G01X179417Y48000D02*
Y44000D01*
X177958D01*
X177492Y44200D01*
X177200Y44467D01*
X177083Y45000D01*
X177200Y45533D01*
X177550Y45867D01*
X177958Y46067D01*
X179417D01*
G01X177958D02*
X177083Y48000D01*
G01X175258Y44667D02*
X174908Y44267D01*
X174500Y44067D01*
X174033Y44000D01*
X173450Y44133D01*
X173042Y44467D01*
X172925Y44867D01*
X172983Y45267D01*
X173217Y45600D01*
X174383Y46267D01*
X174908Y46733D01*
X175258Y47400D01*
X175375Y48000D01*
X172925D01*
G01X170050D02*
Y44000D01*
X170750Y44800D01*
G01Y48000D02*
X169350D01*
G01X195533Y47000D02*
Y43000D01*
X194367D01*
X193900Y43200D01*
X193550Y43467D01*
X193258Y43867D01*
X193025Y44333D01*
X192967Y45000D01*
X193025Y45667D01*
X193258Y46133D01*
X193550Y46533D01*
X193900Y46800D01*
X194367Y47000D01*
X195533D01*
G01X190150D02*
Y43000D01*
X190850Y43800D01*
G01Y47000D02*
X189450D01*
G01X187158Y45333D02*
X186750Y44867D01*
X186400Y44600D01*
X185933Y44467D01*
X185525Y44600D01*
X185233Y44867D01*
X185000Y45267D01*
X184942Y45733D01*
X185000Y46133D01*
X185233Y46533D01*
X185583Y46867D01*
X185992Y47000D01*
X186458Y46867D01*
X186867Y46467D01*
X187100Y45867D01*
X187158Y45200D01*
X187042Y44333D01*
X186867Y43867D01*
X186575Y43400D01*
X186167Y43067D01*
X185758Y43000D01*
X185350Y43133D01*
X185058Y43467D01*
G01X184000Y73667D02*
X186867D01*
X187467Y73900D01*
X187867Y74367D01*
X188000Y74950D01*
X187867Y75533D01*
X187467Y76000D01*
X186867Y76233D01*
X184000D01*
G01X187533Y78058D02*
X187867Y78467D01*
X188000Y78933D01*
X187867Y79400D01*
X187467Y79808D01*
X186867Y80100D01*
X186267Y80217D01*
X185533D01*
X184933Y80100D01*
X184400Y79808D01*
X184133Y79458D01*
X184000Y79050D01*
X184133Y78583D01*
X184400Y78233D01*
X184800Y78000D01*
X185333Y77883D01*
X185800Y78000D01*
X186267Y78292D01*
X186533Y78642D01*
X186600Y79050D01*
X186467Y79517D01*
X186133Y79867D01*
X185533Y80217D01*
G01X197000Y182583D02*
X193000D01*
Y184042D01*
X193200Y184508D01*
X193467Y184800D01*
X194000Y184917D01*
X194533Y184800D01*
X194867Y184450D01*
X195067Y184042D01*
Y182583D01*
G01Y184042D02*
X197000Y184917D01*
G01Y187850D02*
X193000D01*
X193800Y187150D01*
G01X197000D02*
Y188550D01*
G01Y191950D02*
X193000D01*
X193800Y191250D01*
G01X197000D02*
Y192650D01*
G01X192000Y182583D02*
X188000D01*
Y184042D01*
X188200Y184508D01*
X188467Y184800D01*
X189000Y184917D01*
X189533Y184800D01*
X189867Y184450D01*
X190067Y184042D01*
Y182583D01*
G01Y184042D02*
X192000Y184917D01*
G01Y187733D02*
X191133Y187850D01*
X190400Y188025D01*
X189733Y188258D01*
X189000Y188550D01*
X188000Y189017D01*
Y186683D01*
G01X196000Y207133D02*
X200000D01*
Y205967D01*
X199800Y205500D01*
X199533Y205150D01*
X199133Y204858D01*
X198667Y204625D01*
X198000Y204567D01*
X197333Y204625D01*
X196867Y204858D01*
X196467Y205150D01*
X196200Y205500D01*
X196000Y205967D01*
Y207133D01*
G01Y201750D02*
X196067Y201342D01*
X196267Y200875D01*
X196600Y200583D01*
X197067Y200467D01*
X197533Y200583D01*
X197933Y200933D01*
X198133Y201458D01*
Y202042D01*
X198267Y202392D01*
X198600Y202683D01*
X199067Y202800D01*
X199533Y202625D01*
X199867Y202217D01*
X200000Y201750D01*
X199867Y201283D01*
X199533Y200875D01*
X199067Y200700D01*
X198600Y200817D01*
X198267Y201108D01*
X198133Y201458D01*
Y202042D01*
X197933Y202567D01*
X197533Y202917D01*
X197067Y203033D01*
X196600Y202917D01*
X196267Y202625D01*
X196067Y202158D01*
X196000Y201750D01*
G01X189000Y207533D02*
X193000D01*
Y206367D01*
X192800Y205900D01*
X192533Y205550D01*
X192133Y205258D01*
X191667Y205025D01*
X191000Y204967D01*
X190333Y205025D01*
X189867Y205258D01*
X189467Y205550D01*
X189200Y205900D01*
X189000Y206367D01*
Y207533D01*
G01X189467Y203142D02*
X189133Y202733D01*
X189000Y202267D01*
X189133Y201800D01*
X189533Y201392D01*
X190133Y201100D01*
X190733Y200983D01*
X191467D01*
X192067Y201100D01*
X192600Y201392D01*
X192867Y201742D01*
X193000Y202150D01*
X192867Y202617D01*
X192600Y202967D01*
X192200Y203200D01*
X191667Y203317D01*
X191200Y203200D01*
X190733Y202908D01*
X190467Y202558D01*
X190400Y202150D01*
X190533Y201683D01*
X190867Y201333D01*
X191467Y200983D01*
G01X226417Y48000D02*
Y44000D01*
X224958D01*
X224492Y44200D01*
X224200Y44467D01*
X224083Y45000D01*
X224200Y45533D01*
X224550Y45867D01*
X224958Y46067D01*
X226417D01*
G01X224958D02*
X224083Y48000D01*
G01X221150D02*
Y44000D01*
X221850Y44800D01*
G01Y48000D02*
X220450D01*
G01X218042Y47533D02*
X217633Y47867D01*
X217167Y48000D01*
X216700Y47867D01*
X216292Y47467D01*
X216000Y46867D01*
X215883Y46267D01*
Y45533D01*
X216000Y44933D01*
X216292Y44400D01*
X216642Y44133D01*
X217050Y44000D01*
X217517Y44133D01*
X217867Y44400D01*
X218100Y44800D01*
X218217Y45333D01*
X218100Y45800D01*
X217808Y46267D01*
X217458Y46533D01*
X217050Y46600D01*
X216583Y46467D01*
X216233Y46133D01*
X215883Y45533D01*
G01X227167Y81333D02*
X227517Y81133D01*
X227925Y81000D01*
X228392D01*
X228917Y81200D01*
X229325Y81533D01*
X229617Y81933D01*
X229850Y82600D01*
X229908Y83200D01*
X229792Y83800D01*
X229617Y84200D01*
X229267Y84600D01*
X228858Y84867D01*
X228450Y85000D01*
X228042D01*
X227633Y84867D01*
X227283Y84667D01*
X226992Y84400D01*
G01X225458Y81667D02*
X225108Y81267D01*
X224700Y81067D01*
X224233Y81000D01*
X223650Y81133D01*
X223242Y81467D01*
X223125Y81867D01*
X223183Y82267D01*
X223417Y82600D01*
X224583Y83267D01*
X225108Y83733D01*
X225458Y84400D01*
X225575Y85000D01*
X223125D01*
G01X221358Y81667D02*
X221008Y81267D01*
X220600Y81067D01*
X220133Y81000D01*
X219550Y81133D01*
X219142Y81467D01*
X219025Y81867D01*
X219083Y82267D01*
X219317Y82600D01*
X220483Y83267D01*
X221008Y83733D01*
X221358Y84400D01*
X221475Y85000D01*
X219025D01*
G01X227466Y110952D02*
X230456D01*
Y109706D01*
X230306Y109307D01*
X230107Y109058D01*
X229708Y108958D01*
X229310Y109058D01*
X229061Y109357D01*
X228911Y109706D01*
Y110952D01*
G01Y109706D02*
X227466Y108958D01*
G01X229958Y106932D02*
X230257Y106633D01*
X230406Y106284D01*
X230456Y105885D01*
X230356Y105387D01*
X230107Y105038D01*
X229808Y104938D01*
X229509Y104988D01*
X229260Y105188D01*
X228762Y106184D01*
X228413Y106633D01*
X227914Y106932D01*
X227466Y107032D01*
Y104938D01*
G01Y102015D02*
X227516Y101666D01*
X227665Y101268D01*
X227914Y101018D01*
X228263Y100919D01*
X228612Y101018D01*
X228911Y101317D01*
X229061Y101766D01*
Y102264D01*
X229160Y102563D01*
X229409Y102812D01*
X229758Y102912D01*
X230107Y102762D01*
X230356Y102414D01*
X230456Y102015D01*
X230356Y101616D01*
X230107Y101268D01*
X229758Y101118D01*
X229409Y101218D01*
X229160Y101467D01*
X229061Y101766D01*
Y102264D01*
X228911Y102713D01*
X228612Y103012D01*
X228263Y103111D01*
X227914Y103012D01*
X227665Y102762D01*
X227516Y102364D01*
X227466Y102015D01*
G01X224000Y112333D02*
X221133D01*
X220533Y112100D01*
X220133Y111633D01*
X220000Y111050D01*
X220133Y110467D01*
X220533Y110000D01*
X221133Y109767D01*
X224000D01*
G01X220000Y107067D02*
X220867Y106950D01*
X221600Y106775D01*
X222267Y106542D01*
X223000Y106250D01*
X224000Y105783D01*
Y108117D01*
G01X228133Y154917D02*
X228333Y155267D01*
X228466Y155675D01*
Y156142D01*
X228266Y156667D01*
X227933Y157075D01*
X227533Y157367D01*
X226866Y157600D01*
X226266Y157658D01*
X225666Y157542D01*
X225266Y157367D01*
X224866Y157017D01*
X224599Y156608D01*
X224466Y156200D01*
Y155792D01*
X224599Y155383D01*
X224799Y155033D01*
X225066Y154742D01*
G01X224466Y152100D02*
X228466D01*
X227666Y152800D01*
G01X224466D02*
Y151400D01*
G01X225266Y149283D02*
X224799Y148933D01*
X224533Y148467D01*
X224466Y147942D01*
X224533Y147475D01*
X224866Y147008D01*
X225266Y146717D01*
X225666Y146658D01*
X226133Y146775D01*
X226466Y147183D01*
X226599Y147592D01*
Y148117D01*
G01Y147592D02*
X226799Y147242D01*
X227133Y146950D01*
X227533Y146833D01*
X227933Y146950D01*
X228266Y147242D01*
X228466Y147767D01*
X228399Y148292D01*
X228133Y148817D01*
G01X229534Y126048D02*
X226544D01*
Y127294D01*
X226694Y127693D01*
X226893Y127942D01*
X227292Y128042D01*
X227690Y127942D01*
X227939Y127643D01*
X228089Y127294D01*
Y126048D01*
G01Y127294D02*
X229534Y128042D01*
G01X227042Y130068D02*
X226743Y130367D01*
X226594Y130716D01*
X226544Y131115D01*
X226644Y131613D01*
X226893Y131962D01*
X227192Y132062D01*
X227491Y132012D01*
X227740Y131812D01*
X228238Y130816D01*
X228587Y130367D01*
X229086Y130068D01*
X229534Y129968D01*
Y132062D01*
G01X229185Y134138D02*
X229434Y134487D01*
X229534Y134885D01*
X229434Y135284D01*
X229135Y135633D01*
X228687Y135882D01*
X228238Y135982D01*
X227690D01*
X227242Y135882D01*
X226843Y135633D01*
X226644Y135334D01*
X226544Y134985D01*
X226644Y134586D01*
X226843Y134287D01*
X227142Y134088D01*
X227541Y133988D01*
X227889Y134088D01*
X228238Y134337D01*
X228438Y134636D01*
X228488Y134985D01*
X228388Y135384D01*
X228139Y135683D01*
X227690Y135982D01*
G01X203394Y155108D02*
X200527D01*
X199927Y154875D01*
X199527Y154408D01*
X199394Y153825D01*
X199527Y153242D01*
X199927Y152775D01*
X200527Y152542D01*
X203394D01*
G01X200194Y151008D02*
X199727Y150658D01*
X199461Y150192D01*
X199394Y149667D01*
X199461Y149200D01*
X199794Y148733D01*
X200194Y148442D01*
X200594Y148383D01*
X201061Y148500D01*
X201394Y148908D01*
X201527Y149317D01*
Y149842D01*
G01Y149317D02*
X201727Y148967D01*
X202061Y148675D01*
X202461Y148558D01*
X202861Y148675D01*
X203194Y148967D01*
X203394Y149492D01*
X203327Y150017D01*
X203061Y150542D01*
G01X212000Y182583D02*
X208000D01*
Y184042D01*
X208200Y184508D01*
X208467Y184800D01*
X209000Y184917D01*
X209533Y184800D01*
X209867Y184450D01*
X210067Y184042D01*
Y182583D01*
G01Y184042D02*
X212000Y184917D01*
G01Y187850D02*
X211933Y188258D01*
X211733Y188725D01*
X211400Y189017D01*
X210933Y189133D01*
X210467Y189017D01*
X210067Y188667D01*
X209867Y188142D01*
Y187558D01*
X209733Y187208D01*
X209400Y186917D01*
X208933Y186800D01*
X208467Y186975D01*
X208133Y187383D01*
X208000Y187850D01*
X208133Y188317D01*
X208467Y188725D01*
X208933Y188900D01*
X209400Y188783D01*
X209733Y188492D01*
X209867Y188142D01*
Y187558D01*
X210067Y187033D01*
X210467Y186683D01*
X210933Y186567D01*
X211400Y186683D01*
X211733Y186975D01*
X211933Y187442D01*
X212000Y187850D01*
G01X207000Y182583D02*
X203000D01*
Y184042D01*
X203200Y184508D01*
X203467Y184800D01*
X204000Y184917D01*
X204533Y184800D01*
X204867Y184450D01*
X205067Y184042D01*
Y182583D01*
G01Y184042D02*
X207000Y184917D01*
G01X206533Y186858D02*
X206867Y187267D01*
X207000Y187733D01*
X206867Y188200D01*
X206467Y188608D01*
X205867Y188900D01*
X205267Y189017D01*
X204533D01*
X203933Y188900D01*
X203400Y188608D01*
X203133Y188258D01*
X203000Y187850D01*
X203133Y187383D01*
X203400Y187033D01*
X203800Y186800D01*
X204333Y186683D01*
X204800Y186800D01*
X205267Y187092D01*
X205533Y187442D01*
X205600Y187850D01*
X205467Y188317D01*
X205133Y188667D01*
X204533Y189017D01*
G01X202000Y182583D02*
X198000D01*
Y184042D01*
X198200Y184508D01*
X198467Y184800D01*
X199000Y184917D01*
X199533Y184800D01*
X199867Y184450D01*
X200067Y184042D01*
Y182583D01*
G01Y184042D02*
X202000Y184917D01*
G01Y187850D02*
X198000D01*
X198800Y187150D01*
G01X202000D02*
Y188550D01*
G01X198000Y191950D02*
X198133Y191483D01*
X198467Y191133D01*
X198867Y190900D01*
X199400Y190725D01*
X200000Y190667D01*
X200600Y190725D01*
X201133Y190900D01*
X201533Y191133D01*
X201867Y191483D01*
X202000Y191950D01*
X201867Y192417D01*
X201533Y192767D01*
X201133Y193000D01*
X200600Y193175D01*
X200000Y193233D01*
X199400Y193175D01*
X198867Y193000D01*
X198467Y192767D01*
X198133Y192417D01*
X198000Y191950D01*
G01X210000Y207133D02*
X214000D01*
Y205967D01*
X213800Y205500D01*
X213533Y205150D01*
X213133Y204858D01*
X212667Y204625D01*
X212000Y204567D01*
X211333Y204625D01*
X210867Y204858D01*
X210467Y205150D01*
X210200Y205500D01*
X210000Y205967D01*
Y207133D01*
G01X211667Y202858D02*
X212133Y202450D01*
X212400Y202100D01*
X212533Y201633D01*
X212400Y201225D01*
X212133Y200933D01*
X211733Y200700D01*
X211267Y200642D01*
X210867Y200700D01*
X210467Y200933D01*
X210133Y201283D01*
X210000Y201692D01*
X210133Y202158D01*
X210533Y202567D01*
X211133Y202800D01*
X211800Y202858D01*
X212667Y202742D01*
X213133Y202567D01*
X213600Y202275D01*
X213933Y201867D01*
X214000Y201458D01*
X213867Y201050D01*
X213533Y200758D01*
G01X203000Y207133D02*
X207000D01*
Y205967D01*
X206800Y205500D01*
X206533Y205150D01*
X206133Y204858D01*
X205667Y204625D01*
X205000Y204567D01*
X204333Y204625D01*
X203867Y204858D01*
X203467Y205150D01*
X203200Y205500D01*
X203000Y205967D01*
Y207133D01*
G01Y201867D02*
X203867Y201750D01*
X204600Y201575D01*
X205267Y201342D01*
X206000Y201050D01*
X207000Y200583D01*
Y202917D01*
G01X268417Y47000D02*
Y43000D01*
X266958D01*
X266492Y43200D01*
X266200Y43467D01*
X266083Y44000D01*
X266200Y44533D01*
X266550Y44867D01*
X266958Y45067D01*
X268417D01*
G01X266958D02*
X266083Y47000D01*
G01X263150D02*
Y43000D01*
X263850Y43800D01*
G01Y47000D02*
X262450D01*
G01X259050D02*
X258642Y46933D01*
X258175Y46733D01*
X257883Y46400D01*
X257767Y45933D01*
X257883Y45467D01*
X258233Y45067D01*
X258758Y44867D01*
X259342D01*
X259692Y44733D01*
X259983Y44400D01*
X260100Y43933D01*
X259925Y43467D01*
X259517Y43133D01*
X259050Y43000D01*
X258583Y43133D01*
X258175Y43467D01*
X258000Y43933D01*
X258117Y44400D01*
X258408Y44733D01*
X258758Y44867D01*
X259342D01*
X259867Y45067D01*
X260217Y45467D01*
X260333Y45933D01*
X260217Y46400D01*
X259925Y46733D01*
X259458Y46933D01*
X259050Y47000D01*
G01X228083Y42300D02*
X228375Y41900D01*
X228725Y41633D01*
X229133Y41500D01*
X229600Y41633D01*
X229950Y41900D01*
X230300Y42300D01*
X230417Y42833D01*
Y45500D01*
G01X233350Y41500D02*
Y45500D01*
X232650Y44700D01*
G01Y41500D02*
X234050D01*
G01X237450Y45500D02*
X236983Y45367D01*
X236633Y45033D01*
X236400Y44633D01*
X236225Y44100D01*
X236167Y43500D01*
X236225Y42900D01*
X236400Y42367D01*
X236633Y41967D01*
X236983Y41633D01*
X237450Y41500D01*
X237917Y41633D01*
X238267Y41967D01*
X238500Y42367D01*
X238675Y42900D01*
X238733Y43500D01*
X238675Y44100D01*
X238500Y44633D01*
X238267Y45033D01*
X237917Y45367D01*
X237450Y45500D01*
G01X233467Y45000D02*
Y49000D01*
X234633D01*
X235100Y48800D01*
X235450Y48533D01*
X235742Y48133D01*
X235975Y47667D01*
X236033Y47000D01*
X235975Y46333D01*
X235742Y45867D01*
X235450Y45467D01*
X235100Y45200D01*
X234633Y45000D01*
X233467D01*
G01X238850D02*
Y49000D01*
X238150Y48200D01*
G01Y45000D02*
X239550D01*
G01X243650D02*
Y49000D01*
X241492Y46133D01*
X244408D01*
G01X229000Y73667D02*
X231867D01*
X232467Y73900D01*
X232867Y74367D01*
X233000Y74950D01*
X232867Y75533D01*
X232467Y76000D01*
X231867Y76233D01*
X229000D01*
G01X233000Y79050D02*
X232933Y79458D01*
X232733Y79925D01*
X232400Y80217D01*
X231933Y80333D01*
X231467Y80217D01*
X231067Y79867D01*
X230867Y79342D01*
Y78758D01*
X230733Y78408D01*
X230400Y78117D01*
X229933Y78000D01*
X229467Y78175D01*
X229133Y78583D01*
X229000Y79050D01*
X229133Y79517D01*
X229467Y79925D01*
X229933Y80100D01*
X230400Y79983D01*
X230733Y79692D01*
X230867Y79342D01*
Y78758D01*
X231067Y78233D01*
X231467Y77883D01*
X231933Y77767D01*
X232400Y77883D01*
X232733Y78175D01*
X232933Y78642D01*
X233000Y79050D01*
G01X251667Y122167D02*
X251867Y122517D01*
X252000Y122925D01*
Y123392D01*
X251800Y123917D01*
X251467Y124325D01*
X251067Y124617D01*
X250400Y124850D01*
X249800Y124908D01*
X249200Y124792D01*
X248800Y124617D01*
X248400Y124267D01*
X248133Y123858D01*
X248000Y123450D01*
Y123042D01*
X248133Y122633D01*
X248333Y122283D01*
X248600Y121992D01*
G01X251333Y120458D02*
X251733Y120108D01*
X251933Y119700D01*
X252000Y119233D01*
X251867Y118650D01*
X251533Y118242D01*
X251133Y118125D01*
X250733Y118183D01*
X250400Y118417D01*
X249733Y119583D01*
X249267Y120108D01*
X248600Y120458D01*
X248000Y120575D01*
Y118125D01*
G01X248600Y116533D02*
X248267Y116183D01*
X248067Y115775D01*
X248000Y115250D01*
X248133Y114725D01*
X248400Y114317D01*
X248867Y114025D01*
X249400Y113967D01*
X249933Y114083D01*
X250267Y114375D01*
X250533Y114783D01*
X250600Y115192D01*
X250533Y115600D01*
X250267Y116125D01*
X252000Y115950D01*
Y114375D01*
G01X233033Y138667D02*
X232683Y138867D01*
X232275Y139000D01*
X231808D01*
X231283Y138800D01*
X230875Y138467D01*
X230583Y138067D01*
X230350Y137400D01*
X230292Y136800D01*
X230408Y136200D01*
X230583Y135800D01*
X230933Y135400D01*
X231342Y135133D01*
X231750Y135000D01*
X232158D01*
X232567Y135133D01*
X232917Y135333D01*
X233208Y135600D01*
G01X235850Y135000D02*
Y139000D01*
X235150Y138200D01*
G01Y135000D02*
X236550D01*
G01X238842Y138333D02*
X239192Y138733D01*
X239600Y138933D01*
X240067Y139000D01*
X240650Y138867D01*
X241058Y138533D01*
X241175Y138133D01*
X241117Y137733D01*
X240883Y137400D01*
X239717Y136733D01*
X239192Y136267D01*
X238842Y135600D01*
X238725Y135000D01*
X241175D01*
G01X258534Y129633D02*
X254534D01*
Y131092D01*
X254734Y131558D01*
X255001Y131850D01*
X255534Y131967D01*
X256067Y131850D01*
X256401Y131500D01*
X256601Y131092D01*
Y129633D01*
G01Y131092D02*
X258534Y131967D01*
G01X255201Y133792D02*
X254801Y134142D01*
X254601Y134550D01*
X254534Y135017D01*
X254667Y135600D01*
X255001Y136008D01*
X255401Y136125D01*
X255801Y136067D01*
X256134Y135833D01*
X256801Y134667D01*
X257267Y134142D01*
X257934Y133792D01*
X258534Y133675D01*
Y136125D01*
G01X255201Y137892D02*
X254801Y138242D01*
X254601Y138650D01*
X254534Y139117D01*
X254667Y139700D01*
X255001Y140108D01*
X255401Y140225D01*
X255801Y140167D01*
X256134Y139933D01*
X256801Y138767D01*
X257267Y138242D01*
X257934Y137892D01*
X258534Y137775D01*
Y140225D01*
G01X239583Y235300D02*
X239875Y234900D01*
X240225Y234633D01*
X240633Y234500D01*
X241100Y234633D01*
X241450Y234900D01*
X241800Y235300D01*
X241917Y235833D01*
Y238500D01*
G01X243567Y235300D02*
X243917Y234833D01*
X244383Y234567D01*
X244908Y234500D01*
X245375Y234567D01*
X245842Y234900D01*
X246133Y235300D01*
X246192Y235700D01*
X246075Y236167D01*
X245667Y236500D01*
X245258Y236633D01*
X244733D01*
G01X245258D02*
X245608Y236833D01*
X245900Y237167D01*
X246017Y237567D01*
X245900Y237967D01*
X245608Y238300D01*
X245083Y238500D01*
X244558Y238433D01*
X244033Y238167D01*
G01X264000Y44667D02*
X266867D01*
X267467Y44900D01*
X267867Y45367D01*
X268000Y45950D01*
X267867Y46533D01*
X267467Y47000D01*
X266867Y47233D01*
X264000D01*
G01X266333Y48942D02*
X265867Y49350D01*
X265600Y49700D01*
X265467Y50167D01*
X265600Y50575D01*
X265867Y50867D01*
X266267Y51100D01*
X266733Y51158D01*
X267133Y51100D01*
X267533Y50867D01*
X267867Y50517D01*
X268000Y50108D01*
X267867Y49642D01*
X267467Y49233D01*
X266867Y49000D01*
X266200Y48942D01*
X265333Y49058D01*
X264867Y49233D01*
X264400Y49525D01*
X264067Y49933D01*
X264000Y50342D01*
X264133Y50750D01*
X264467Y51042D01*
G01X268083Y42300D02*
X268375Y41900D01*
X268725Y41633D01*
X269133Y41500D01*
X269600Y41633D01*
X269950Y41900D01*
X270300Y42300D01*
X270417Y42833D01*
Y45500D01*
G01X273350Y41500D02*
X273758Y41567D01*
X274225Y41767D01*
X274517Y42100D01*
X274633Y42567D01*
X274517Y43033D01*
X274167Y43433D01*
X273642Y43633D01*
X273058D01*
X272708Y43767D01*
X272417Y44100D01*
X272300Y44567D01*
X272475Y45033D01*
X272883Y45367D01*
X273350Y45500D01*
X273817Y45367D01*
X274225Y45033D01*
X274400Y44567D01*
X274283Y44100D01*
X273992Y43767D01*
X273642Y43633D01*
X273058D01*
X272533Y43433D01*
X272183Y43033D01*
X272067Y42567D01*
X272183Y42100D01*
X272475Y41767D01*
X272942Y41567D01*
X273350Y41500D01*
G01X285533Y47000D02*
Y43000D01*
X284367D01*
X283900Y43200D01*
X283550Y43467D01*
X283258Y43867D01*
X283025Y44333D01*
X282967Y45000D01*
X283025Y45667D01*
X283258Y46133D01*
X283550Y46533D01*
X283900Y46800D01*
X284367Y47000D01*
X285533D01*
G01X280150D02*
Y43000D01*
X280850Y43800D01*
G01Y47000D02*
X279450D01*
G01X277158Y43667D02*
X276808Y43267D01*
X276400Y43067D01*
X275933Y43000D01*
X275350Y43133D01*
X274942Y43467D01*
X274825Y43867D01*
X274883Y44267D01*
X275117Y44600D01*
X276283Y45267D01*
X276808Y45733D01*
X277158Y46400D01*
X277275Y47000D01*
X274825D01*
G01X270583Y88800D02*
X270875Y88400D01*
X271225Y88133D01*
X271633Y88000D01*
X272100Y88133D01*
X272450Y88400D01*
X272800Y88800D01*
X272917Y89333D01*
Y92000D01*
G01X276550Y88000D02*
Y92000D01*
X274392Y89133D01*
X277308D01*
G01X288859Y223793D02*
X289158Y223644D01*
X289506Y223544D01*
X289905D01*
X290354Y223694D01*
X290702Y223943D01*
X290952Y224242D01*
X291151Y224740D01*
X291201Y225189D01*
X291101Y225637D01*
X290952Y225936D01*
X290653Y226235D01*
X290304Y226434D01*
X289955Y226534D01*
X289606D01*
X289257Y226434D01*
X288958Y226285D01*
X288709Y226086D01*
G01X285387Y226534D02*
Y223544D01*
X287231Y225687D01*
X284739D01*
G01X282015Y223544D02*
X282414Y223644D01*
X282713Y223893D01*
X282912Y224192D01*
X283062Y224591D01*
X283111Y225039D01*
X283062Y225488D01*
X282912Y225886D01*
X282713Y226185D01*
X282414Y226434D01*
X282015Y226534D01*
X281616Y226434D01*
X281317Y226185D01*
X281118Y225886D01*
X280968Y225488D01*
X280919Y225039D01*
X280968Y224591D01*
X281118Y224192D01*
X281317Y223893D01*
X281616Y223644D01*
X282015Y223544D01*
G01X288859Y239793D02*
X289158Y239644D01*
X289506Y239544D01*
X289905D01*
X290354Y239694D01*
X290702Y239943D01*
X290952Y240242D01*
X291151Y240740D01*
X291201Y241189D01*
X291101Y241637D01*
X290952Y241936D01*
X290653Y242235D01*
X290304Y242434D01*
X289955Y242534D01*
X289606D01*
X289257Y242434D01*
X288958Y242285D01*
X288709Y242086D01*
G01X285387Y242534D02*
Y239544D01*
X287231Y241687D01*
X284739D01*
G01X282015Y242534D02*
Y239544D01*
X282613Y240142D01*
G01Y242534D02*
X281417D01*
G01X307583Y22800D02*
X307875Y22400D01*
X308225Y22133D01*
X308633Y22000D01*
X309100Y22133D01*
X309450Y22400D01*
X309800Y22800D01*
X309917Y23333D01*
Y26000D01*
G01X311742Y23667D02*
X312150Y24133D01*
X312500Y24400D01*
X312967Y24533D01*
X313375Y24400D01*
X313667Y24133D01*
X313900Y23733D01*
X313958Y23267D01*
X313900Y22867D01*
X313667Y22467D01*
X313317Y22133D01*
X312908Y22000D01*
X312442Y22133D01*
X312033Y22533D01*
X311800Y23133D01*
X311742Y23800D01*
X311858Y24667D01*
X312033Y25133D01*
X312325Y25600D01*
X312733Y25933D01*
X313142Y26000D01*
X313550Y25867D01*
X313842Y25533D01*
G01X306583Y43000D02*
Y47000D01*
X308042D01*
X308508Y46800D01*
X308800Y46533D01*
X308917Y46000D01*
X308800Y45467D01*
X308450Y45133D01*
X308042Y44933D01*
X306583D01*
G01X308042D02*
X308917Y43000D01*
G01X311850D02*
Y47000D01*
X311150Y46200D01*
G01Y43000D02*
X312550D01*
G01X314842Y44667D02*
X315250Y45133D01*
X315600Y45400D01*
X316067Y45533D01*
X316475Y45400D01*
X316767Y45133D01*
X317000Y44733D01*
X317058Y44267D01*
X317000Y43867D01*
X316767Y43467D01*
X316417Y43133D01*
X316008Y43000D01*
X315542Y43133D01*
X315133Y43533D01*
X314900Y44133D01*
X314842Y44800D01*
X314958Y45667D01*
X315133Y46133D01*
X315425Y46600D01*
X315833Y46933D01*
X316242Y47000D01*
X316650Y46867D01*
X316942Y46533D01*
G01X314333Y63500D02*
Y66367D01*
X314100Y66967D01*
X313633Y67367D01*
X313050Y67500D01*
X312467Y67367D01*
X312000Y66967D01*
X311767Y66367D01*
Y63500D01*
G01X310233Y66900D02*
X309883Y67233D01*
X309475Y67433D01*
X308950Y67500D01*
X308425Y67367D01*
X308017Y67100D01*
X307725Y66633D01*
X307667Y66100D01*
X307783Y65567D01*
X308075Y65233D01*
X308483Y64967D01*
X308892Y64900D01*
X309300Y64967D01*
X309825Y65233D01*
X309650Y63500D01*
X308075D01*
G01X314667Y108167D02*
X314867Y108517D01*
X315000Y108925D01*
Y109392D01*
X314800Y109917D01*
X314467Y110325D01*
X314067Y110617D01*
X313400Y110850D01*
X312800Y110908D01*
X312200Y110792D01*
X311800Y110617D01*
X311400Y110267D01*
X311133Y109858D01*
X311000Y109450D01*
Y109042D01*
X311133Y108633D01*
X311333Y108283D01*
X311600Y107992D01*
G01X314333Y106458D02*
X314733Y106108D01*
X314933Y105700D01*
X315000Y105233D01*
X314867Y104650D01*
X314533Y104242D01*
X314133Y104125D01*
X313733Y104183D01*
X313400Y104417D01*
X312733Y105583D01*
X312267Y106108D01*
X311600Y106458D01*
X311000Y106575D01*
Y104125D01*
G01X311800Y102533D02*
X311333Y102183D01*
X311067Y101717D01*
X311000Y101192D01*
X311067Y100725D01*
X311400Y100258D01*
X311800Y99967D01*
X312200Y99908D01*
X312667Y100025D01*
X313000Y100433D01*
X313133Y100842D01*
Y101367D01*
G01Y100842D02*
X313333Y100492D01*
X313667Y100200D01*
X314067Y100083D01*
X314467Y100200D01*
X314800Y100492D01*
X315000Y101017D01*
X314933Y101542D01*
X314667Y102067D01*
G01X307667Y108167D02*
X307867Y108517D01*
X308000Y108925D01*
Y109392D01*
X307800Y109917D01*
X307467Y110325D01*
X307067Y110617D01*
X306400Y110850D01*
X305800Y110908D01*
X305200Y110792D01*
X304800Y110617D01*
X304400Y110267D01*
X304133Y109858D01*
X304000Y109450D01*
Y109042D01*
X304133Y108633D01*
X304333Y108283D01*
X304600Y107992D01*
G01X307333Y106458D02*
X307733Y106108D01*
X307933Y105700D01*
X308000Y105233D01*
X307867Y104650D01*
X307533Y104242D01*
X307133Y104125D01*
X306733Y104183D01*
X306400Y104417D01*
X305733Y105583D01*
X305267Y106108D01*
X304600Y106458D01*
X304000Y106575D01*
Y104125D01*
G01Y100550D02*
X308000D01*
X305133Y102708D01*
Y99792D01*
G01X302044Y238548D02*
X305034D01*
Y240542D01*
G01X304436Y242419D02*
X304785Y242718D01*
X304984Y243116D01*
X305034Y243565D01*
X304984Y243964D01*
X304735Y244362D01*
X304436Y244611D01*
X304137Y244661D01*
X303788Y244562D01*
X303539Y244213D01*
X303439Y243864D01*
Y243415D01*
G01Y243864D02*
X303290Y244163D01*
X303041Y244412D01*
X302742Y244512D01*
X302443Y244412D01*
X302194Y244163D01*
X302044Y243714D01*
X302094Y243266D01*
X302293Y242817D01*
G01X301500Y254886D02*
Y252552D01*
X297500D01*
Y254886D01*
G01X299433Y253952D02*
Y252552D01*
G01X301500Y257819D02*
X297500D01*
X298300Y257119D01*
G01X301500D02*
Y258519D01*
G01X330667Y64167D02*
X330867Y64517D01*
X331000Y64925D01*
Y65392D01*
X330800Y65917D01*
X330467Y66325D01*
X330067Y66617D01*
X329400Y66850D01*
X328800Y66908D01*
X328200Y66792D01*
X327800Y66617D01*
X327400Y66267D01*
X327133Y65858D01*
X327000Y65450D01*
Y65042D01*
X327133Y64633D01*
X327333Y64283D01*
X327600Y63992D01*
G01X330333Y62458D02*
X330733Y62108D01*
X330933Y61700D01*
X331000Y61233D01*
X330867Y60650D01*
X330533Y60242D01*
X330133Y60125D01*
X329733Y60183D01*
X329400Y60417D01*
X328733Y61583D01*
X328267Y62108D01*
X327600Y62458D01*
X327000Y62575D01*
Y60125D01*
G01X331000Y57250D02*
X330867Y57717D01*
X330533Y58067D01*
X330133Y58300D01*
X329600Y58475D01*
X329000Y58533D01*
X328400Y58475D01*
X327867Y58300D01*
X327467Y58067D01*
X327133Y57717D01*
X327000Y57250D01*
X327133Y56783D01*
X327467Y56433D01*
X327867Y56200D01*
X328400Y56025D01*
X329000Y55967D01*
X329600Y56025D01*
X330133Y56200D01*
X330533Y56433D01*
X330867Y56783D01*
X331000Y57250D01*
G01X367975Y44467D02*
X367508Y44800D01*
X366983Y45000D01*
X366517D01*
X366050Y44800D01*
X365700Y44467D01*
X365525Y44000D01*
X365642Y43533D01*
X365933Y43133D01*
X366458Y42867D01*
X367158Y42733D01*
X367567Y42467D01*
X367742Y42000D01*
X367625Y41533D01*
X367333Y41200D01*
X366925Y41000D01*
X366517D01*
X366108Y41133D01*
X365758Y41467D01*
G01X364400Y41000D02*
X363583Y45000D01*
X362650Y41000D01*
X361717Y45000D01*
X360900Y41000D01*
G01X358550Y45000D02*
Y41000D01*
X359250Y41800D01*
G01Y45000D02*
X357850D01*
G01X367975Y116467D02*
X367508Y116800D01*
X366983Y117000D01*
X366517D01*
X366050Y116800D01*
X365700Y116467D01*
X365525Y116000D01*
X365642Y115533D01*
X365933Y115133D01*
X366458Y114867D01*
X367158Y114733D01*
X367567Y114467D01*
X367742Y114000D01*
X367625Y113533D01*
X367333Y113200D01*
X366925Y113000D01*
X366517D01*
X366108Y113133D01*
X365758Y113467D01*
G01X364400Y113000D02*
X363583Y117000D01*
X362650Y113000D01*
X361717Y117000D01*
X360900Y113000D01*
G01X359658Y113667D02*
X359308Y113267D01*
X358900Y113067D01*
X358433Y113000D01*
X357850Y113133D01*
X357442Y113467D01*
X357325Y113867D01*
X357383Y114267D01*
X357617Y114600D01*
X358783Y115267D01*
X359308Y115733D01*
X359658Y116400D01*
X359775Y117000D01*
X357325D01*
G01X367975Y190467D02*
X367508Y190800D01*
X366983Y191000D01*
X366517D01*
X366050Y190800D01*
X365700Y190467D01*
X365525Y190000D01*
X365642Y189533D01*
X365933Y189133D01*
X366458Y188867D01*
X367158Y188733D01*
X367567Y188467D01*
X367742Y188000D01*
X367625Y187533D01*
X367333Y187200D01*
X366925Y187000D01*
X366517D01*
X366108Y187133D01*
X365758Y187467D01*
G01X364400Y187000D02*
X363583Y191000D01*
X362650Y187000D01*
X361717Y191000D01*
X360900Y187000D01*
G01X359833Y190200D02*
X359483Y190667D01*
X359017Y190933D01*
X358492Y191000D01*
X358025Y190933D01*
X357558Y190600D01*
X357267Y190200D01*
X357208Y189800D01*
X357325Y189333D01*
X357733Y189000D01*
X358142Y188867D01*
X358667D01*
G01X358142D02*
X357792Y188667D01*
X357500Y188333D01*
X357383Y187933D01*
X357500Y187533D01*
X357792Y187200D01*
X358317Y187000D01*
X358842Y187067D01*
X359367Y187333D01*
G01X382466Y71367D02*
X386466D01*
Y69908D01*
X386266Y69442D01*
X385999Y69150D01*
X385466Y69033D01*
X384933Y69150D01*
X384599Y69500D01*
X384399Y69908D01*
Y71367D01*
G01Y69908D02*
X382466Y69033D01*
G01Y66100D02*
X386466D01*
X385666Y66800D01*
G01X382466D02*
Y65400D01*
G01X383266Y63283D02*
X382799Y62933D01*
X382533Y62467D01*
X382466Y61942D01*
X382533Y61475D01*
X382866Y61008D01*
X383266Y60717D01*
X383666Y60658D01*
X384133Y60775D01*
X384466Y61183D01*
X384599Y61592D01*
Y62117D01*
G01Y61592D02*
X384799Y61242D01*
X385133Y60950D01*
X385533Y60833D01*
X385933Y60950D01*
X386266Y61242D01*
X386466Y61767D01*
X386399Y62292D01*
X386133Y62817D01*
G01X407700Y45241D02*
X408100Y45533D01*
X408367Y45883D01*
X408500Y46291D01*
X408367Y46758D01*
X408100Y47108D01*
X407700Y47458D01*
X407167Y47575D01*
X404500D01*
G01X408500Y50391D02*
X407633Y50508D01*
X406900Y50683D01*
X406233Y50916D01*
X405500Y51208D01*
X404500Y51675D01*
Y49341D01*
G01X400000Y54533D02*
X404000D01*
Y53367D01*
X403800Y52900D01*
X403533Y52550D01*
X403133Y52258D01*
X402667Y52025D01*
X402000Y51967D01*
X401333Y52025D01*
X400867Y52258D01*
X400467Y52550D01*
X400200Y52900D01*
X400000Y53367D01*
Y54533D01*
G01Y49150D02*
X404000D01*
X403200Y49850D01*
G01X400000D02*
Y48450D01*
G01X404000Y45050D02*
X403867Y45517D01*
X403533Y45867D01*
X403133Y46100D01*
X402600Y46275D01*
X402000Y46333D01*
X401400Y46275D01*
X400867Y46100D01*
X400467Y45867D01*
X400133Y45517D01*
X400000Y45050D01*
X400133Y44583D01*
X400467Y44233D01*
X400867Y44000D01*
X401400Y43825D01*
X402000Y43767D01*
X402600Y43825D01*
X403133Y44000D01*
X403533Y44233D01*
X403867Y44583D01*
X404000Y45050D01*
G01X380867Y89083D02*
X380667Y88733D01*
X380534Y88325D01*
Y87858D01*
X380734Y87333D01*
X381067Y86925D01*
X381467Y86633D01*
X382134Y86400D01*
X382734Y86342D01*
X383334Y86458D01*
X383734Y86633D01*
X384134Y86983D01*
X384401Y87392D01*
X384534Y87800D01*
Y88208D01*
X384401Y88617D01*
X384201Y88967D01*
X383934Y89258D01*
G01X384534Y91900D02*
X380534D01*
X381334Y91200D01*
G01X384534D02*
Y92600D01*
G01X382867Y94892D02*
X382401Y95300D01*
X382134Y95650D01*
X382001Y96117D01*
X382134Y96525D01*
X382401Y96817D01*
X382801Y97050D01*
X383267Y97108D01*
X383667Y97050D01*
X384067Y96817D01*
X384401Y96467D01*
X384534Y96058D01*
X384401Y95592D01*
X384001Y95183D01*
X383401Y94950D01*
X382734Y94892D01*
X381867Y95008D01*
X381401Y95183D01*
X380934Y95475D01*
X380601Y95883D01*
X380534Y96292D01*
X380667Y96700D01*
X381001Y96992D01*
G01X407000Y77033D02*
X411000D01*
Y75867D01*
X410800Y75400D01*
X410533Y75050D01*
X410133Y74758D01*
X409667Y74525D01*
X409000Y74467D01*
X408333Y74525D01*
X407867Y74758D01*
X407467Y75050D01*
X407200Y75400D01*
X407000Y75867D01*
Y77033D01*
G01Y71650D02*
X411000D01*
X410200Y72350D01*
G01X407000D02*
Y70950D01*
G01Y67550D02*
X411000D01*
X410200Y68250D01*
G01X407000D02*
Y66850D01*
G01X400000Y133533D02*
X404000D01*
Y132367D01*
X403800Y131900D01*
X403533Y131550D01*
X403133Y131258D01*
X402667Y131025D01*
X402000Y130967D01*
X401333Y131025D01*
X400867Y131258D01*
X400467Y131550D01*
X400200Y131900D01*
X400000Y132367D01*
Y133533D01*
G01Y128150D02*
X404000D01*
X403200Y128850D01*
G01X400000D02*
Y127450D01*
G01X400600Y125333D02*
X400267Y124983D01*
X400067Y124575D01*
X400000Y124050D01*
X400133Y123525D01*
X400400Y123117D01*
X400867Y122825D01*
X401400Y122767D01*
X401933Y122883D01*
X402267Y123175D01*
X402533Y123583D01*
X402600Y123992D01*
X402533Y124400D01*
X402267Y124925D01*
X404000Y124750D01*
Y123175D01*
G01X401000Y112533D02*
X405000D01*
Y111367D01*
X404800Y110900D01*
X404533Y110550D01*
X404133Y110258D01*
X403667Y110025D01*
X403000Y109967D01*
X402333Y110025D01*
X401867Y110258D01*
X401467Y110550D01*
X401200Y110900D01*
X401000Y111367D01*
Y112533D01*
G01Y107150D02*
X405000D01*
X404200Y107850D01*
G01X401000D02*
Y106450D01*
G01X401800Y104333D02*
X401333Y103983D01*
X401067Y103517D01*
X401000Y102992D01*
X401067Y102525D01*
X401400Y102058D01*
X401800Y101767D01*
X402200Y101708D01*
X402667Y101825D01*
X403000Y102233D01*
X403133Y102642D01*
Y103167D01*
G01Y102642D02*
X403333Y102292D01*
X403667Y102000D01*
X404067Y101883D01*
X404467Y102000D01*
X404800Y102292D01*
X405000Y102817D01*
X404933Y103342D01*
X404667Y103867D01*
G01X382466Y144367D02*
X386466D01*
Y142908D01*
X386266Y142442D01*
X385999Y142150D01*
X385466Y142033D01*
X384933Y142150D01*
X384599Y142500D01*
X384399Y142908D01*
Y144367D01*
G01Y142908D02*
X382466Y142033D01*
G01Y139100D02*
X386466D01*
X385666Y139800D01*
G01X382466D02*
Y138400D01*
G01Y134300D02*
X386466D01*
X383599Y136458D01*
Y133542D01*
G01X380867Y162083D02*
X380667Y161733D01*
X380534Y161325D01*
Y160858D01*
X380734Y160333D01*
X381067Y159925D01*
X381467Y159633D01*
X382134Y159400D01*
X382734Y159342D01*
X383334Y159458D01*
X383734Y159633D01*
X384134Y159983D01*
X384401Y160392D01*
X384534Y160800D01*
Y161208D01*
X384401Y161617D01*
X384201Y161967D01*
X383934Y162258D01*
G01X384534Y164900D02*
X380534D01*
X381334Y164200D01*
G01X384534D02*
Y165600D01*
G01Y168883D02*
X383667Y169000D01*
X382934Y169175D01*
X382267Y169408D01*
X381534Y169700D01*
X380534Y170167D01*
Y167833D01*
G01X401000Y170417D02*
X405000D01*
Y168958D01*
X404800Y168492D01*
X404533Y168200D01*
X404000Y168083D01*
X403467Y168200D01*
X403133Y168550D01*
X402933Y168958D01*
Y170417D01*
G01Y168958D02*
X401000Y168083D01*
G01X404333Y166258D02*
X404733Y165908D01*
X404933Y165500D01*
X405000Y165033D01*
X404867Y164450D01*
X404533Y164042D01*
X404133Y163925D01*
X403733Y163983D01*
X403400Y164217D01*
X402733Y165383D01*
X402267Y165908D01*
X401600Y166258D01*
X401000Y166375D01*
Y163925D01*
G01X405000Y161050D02*
X404867Y161517D01*
X404533Y161867D01*
X404133Y162100D01*
X403600Y162275D01*
X403000Y162333D01*
X402400Y162275D01*
X401867Y162100D01*
X401467Y161867D01*
X401133Y161517D01*
X401000Y161050D01*
X401133Y160583D01*
X401467Y160233D01*
X401867Y160000D01*
X402400Y159825D01*
X403000Y159767D01*
X403600Y159825D01*
X404133Y160000D01*
X404533Y160233D01*
X404867Y160583D01*
X405000Y161050D01*
G01X382466Y218367D02*
X386466D01*
Y216908D01*
X386266Y216442D01*
X385999Y216150D01*
X385466Y216033D01*
X384933Y216150D01*
X384599Y216500D01*
X384399Y216908D01*
Y218367D01*
G01Y216908D02*
X382466Y216033D01*
G01Y213100D02*
X386466D01*
X385666Y213800D01*
G01X382466D02*
Y212400D01*
G01X383066Y210283D02*
X382733Y209933D01*
X382533Y209525D01*
X382466Y209000D01*
X382599Y208475D01*
X382866Y208067D01*
X383333Y207775D01*
X383866Y207717D01*
X384399Y207833D01*
X384733Y208125D01*
X384999Y208533D01*
X385066Y208942D01*
X384999Y209350D01*
X384733Y209875D01*
X386466Y209700D01*
Y208125D01*
G01X380867Y236083D02*
X380667Y235733D01*
X380534Y235325D01*
Y234858D01*
X380734Y234333D01*
X381067Y233925D01*
X381467Y233633D01*
X382134Y233400D01*
X382734Y233342D01*
X383334Y233458D01*
X383734Y233633D01*
X384134Y233983D01*
X384401Y234392D01*
X384534Y234800D01*
Y235208D01*
X384401Y235617D01*
X384201Y235967D01*
X383934Y236258D01*
G01X384534Y238900D02*
X380534D01*
X381334Y238200D01*
G01X384534D02*
Y239600D01*
G01X384067Y242008D02*
X384401Y242417D01*
X384534Y242883D01*
X384401Y243350D01*
X384001Y243758D01*
X383401Y244050D01*
X382801Y244167D01*
X382067D01*
X381467Y244050D01*
X380934Y243758D01*
X380667Y243408D01*
X380534Y243000D01*
X380667Y242533D01*
X380934Y242183D01*
X381334Y241950D01*
X381867Y241833D01*
X382334Y241950D01*
X382801Y242242D01*
X383067Y242592D01*
X383134Y243000D01*
X383001Y243467D01*
X382667Y243817D01*
X382067Y244167D01*
G01X422383Y10500D02*
Y14500D01*
X423900Y11167D01*
X425417Y14500D01*
Y10500D01*
G01X426775D02*
Y14500D01*
G01X429225D02*
Y10500D01*
G01Y12500D02*
X426775D01*
G01X430817Y11300D02*
X431167Y10833D01*
X431633Y10567D01*
X432158Y10500D01*
X432625Y10567D01*
X433092Y10900D01*
X433383Y11300D01*
X433442Y11700D01*
X433325Y12167D01*
X432917Y12500D01*
X432508Y12633D01*
X431983D01*
G01X432508D02*
X432858Y12833D01*
X433150Y13167D01*
X433267Y13567D01*
X433150Y13967D01*
X432858Y14300D01*
X432333Y14500D01*
X431808Y14433D01*
X431283Y14167D01*
G01X429200Y113583D02*
X429600Y113875D01*
X429867Y114225D01*
X430000Y114633D01*
X429867Y115100D01*
X429600Y115450D01*
X429200Y115800D01*
X428667Y115917D01*
X426000D01*
G01X429533Y117858D02*
X429867Y118267D01*
X430000Y118733D01*
X429867Y119200D01*
X429467Y119608D01*
X428867Y119900D01*
X428267Y120017D01*
X427533D01*
X426933Y119900D01*
X426400Y119608D01*
X426133Y119258D01*
X426000Y118850D01*
X426133Y118383D01*
X426400Y118033D01*
X426800Y117800D01*
X427333Y117683D01*
X427800Y117800D01*
X428267Y118092D01*
X428533Y118442D01*
X428600Y118850D01*
X428467Y119317D01*
X428133Y119667D01*
X427533Y120017D01*
G01X429200Y174583D02*
X429600Y174875D01*
X429867Y175225D01*
X430000Y175633D01*
X429867Y176100D01*
X429600Y176450D01*
X429200Y176800D01*
X428667Y176917D01*
X426000D01*
G01X430000Y179850D02*
X426000D01*
X426800Y179150D01*
G01X430000D02*
Y180550D01*
G01Y183950D02*
X426000D01*
X426800Y183250D01*
G01X430000D02*
Y184650D01*
G01X425383Y243000D02*
Y247000D01*
X426900Y243667D01*
X428417Y247000D01*
Y243000D01*
G01X429775D02*
Y247000D01*
G01X432225D02*
Y243000D01*
G01Y245000D02*
X429775D01*
G01X435800Y243000D02*
Y247000D01*
X433642Y244133D01*
X436558D01*
G54D16*
G01X315280Y242126D02*
X287720D01*
Y257874D01*
X315280D01*
Y242126D01*
G01X295594Y273622D02*
Y271654D01*
X307406D01*
Y273622D01*
G01X309374Y257874D02*
Y273622D01*
X293626D01*
Y257874D01*
G54D17*
G01X49293Y162807D02*
G02I-493J0D01*
G01X92800Y243700D02*
G02I-493J0D01*
G54D18*
G01X50280Y139094D02*
Y131220D01*
X22720D01*
Y139094D01*
G01X24689Y158780D02*
X22720D01*
Y150906D01*
G01X24689Y158780D02*
X50280D01*
Y150906D01*
G01X65815Y135807D02*
Y149193D01*
X55185D01*
Y135807D01*
X65815D01*
G01X58394Y164547D02*
Y185453D01*
X57400D01*
G01X49600D02*
X48606D01*
Y164547D01*
X49500D01*
G01X57500D02*
X58394D01*
G01X120748Y185252D02*
Y181315D01*
X89252D01*
Y185252D01*
G01X120748Y220685D02*
X89252D01*
Y185252D01*
X120748D01*
Y220685D01*
G01X94047Y234106D02*
X114953D01*
Y235100D01*
G01Y242900D02*
Y243894D01*
X94047D01*
Y243000D01*
G01Y235000D02*
Y234106D01*
G01X136815Y193126D02*
G03I-6224J0D01*
G01X130591Y197063D02*
Y189189D01*
G01X134528Y193126D02*
X126654D01*
G01X184827Y168173D02*
Y139827D01*
X213173D01*
Y168173D01*
X184827D01*
G01X189252Y165417D02*
G03I-1669J0D01*
M02*
