G04 ================== begin FILE IDENTIFICATION RECORD ==================*
G04 Layout Name:  STM32F103_RAK811_THESISNODE_5.brd*
G04 Film Name:    RAK4600_v101_SILK_TOP.art*
G04 File Format:  Gerber RS274X*
G04 File Origin:  Cadence Allegro 17.2-S052*
G04 Origin Date:  Mon Jun 29 19:02:18 2020*
G04 *
G04 Layer:  REF DES/SILKSCREEN_TOP*
G04 Layer:  PACKAGE GEOMETRY/SILKSCREEN_TOP*
G04 Layer:  DRAWING FORMAT/SILKSCREEN_TOP*
G04 Layer:  BOARD GEOMETRY/OUTLINE*
G04 Layer:  BOARD GEOMETRY/SILKSCREEN_TOP*
G04 Layer:  BOARD GEOMETRY/LOGO*
G04 *
G04 Offset:    (0.00 0.00)*
G04 Mirror:    No*
G04 Mode:      Positive*
G04 Rotation:  0*
G04 FullContactRelief:  No*
G04 UndefLineWidth:     6.00*
G04 ================== end FILE IDENTIFICATION RECORD ====================*
%FSLAX25Y25*MOIN*%
%IR0*IPPOS*OFA0.00000B0.00000*MIA0B0*SFA1.00000B1.00000*%
%ADD10C,.01*%
%ADD11C,.002*%
%ADD12C,.005*%
%ADD13C,.006*%
%ADD14C,.008*%
%ADD15C,.00394*%
%ADD16C,.00197*%
%ADD17C,.00984*%
%ADD18C,.00787*%
G75*
%LPD*%
G75*
G36*
G01X13000Y4000D02*
Y6500D01*
G03X20500Y14000I0J7500D01*
G01X23000D01*
G02X13000Y4000I-10000J0D01*
G37*
G36*
G01X3000Y14000D02*
G02X13000Y24000I10000J0D01*
G01Y21500D01*
G03X5500Y14000I0J-7500D01*
G01X3000D01*
G37*
G36*
G01X14000Y236000D02*
Y238500D01*
G03X21500Y246000I0J7500D01*
G01X24000D01*
G02X14000Y236000I-10000J0D01*
G37*
G36*
G01X4000Y246000D02*
G02X14000Y256000I10000J0D01*
G01Y253500D01*
G03X6500Y246000I0J-7500D01*
G01X4000D01*
G37*
G36*
G01X64954Y72514D02*
G03I-681J0D01*
G37*
G36*
G01X195000Y14000D02*
Y9000D01*
X205000D01*
Y14000D01*
X195000D01*
G37*
G36*
G01X175000D02*
Y9000D01*
X185000D01*
Y14000D01*
X175000D01*
G37*
G36*
G01X195288Y54425D02*
G03I-1414J0D01*
G37*
G36*
G01X180496Y166205D02*
X182465Y168173D01*
X178528D01*
X180496Y166205D01*
G37*
G36*
G01X215000Y14000D02*
Y9000D01*
X225000D01*
Y14000D01*
X215000D01*
G37*
G36*
G01X255000D02*
Y9000D01*
X265000D01*
Y14000D01*
X255000D01*
G37*
G36*
G01X235000D02*
Y9000D01*
X245000D01*
Y14000D01*
X235000D01*
G37*
G36*
G01X240288Y54425D02*
G03I-1414J0D01*
G37*
G36*
G01X275000Y14000D02*
Y9000D01*
X285000D01*
Y14000D01*
X275000D01*
G37*
G36*
G01X285288Y54425D02*
G03I-1414J0D01*
G37*
G36*
G01X315000Y14000D02*
Y9000D01*
X325000D01*
Y14000D01*
X315000D01*
G37*
G36*
G01X295000D02*
Y9000D01*
X305000D01*
Y14000D01*
X295000D01*
G37*
G36*
G01X333646Y139472D02*
X336402Y136717D01*
Y142228D01*
X333646Y139472D01*
G37*
G36*
G01X374800Y45000D02*
G03I-13800J0D01*
G37*
G36*
G01Y117000D02*
G03I-13800J0D01*
G37*
G36*
G01Y191000D02*
G03I-13800J0D01*
G37*
G36*
G01X428000Y3000D02*
Y5500D01*
G03X435500Y13000I0J7500D01*
G01X438000D01*
G02X428000Y3000I-10000J0D01*
G37*
G36*
G01X436000Y32158D02*
X441000D01*
Y42158D01*
X436000D01*
Y32158D01*
G37*
G36*
G01X418000Y13000D02*
G02X428000Y23000I10000J0D01*
G01Y20500D01*
G03X420500Y13000I0J-7500D01*
G01X418000D01*
G37*
G36*
G01X436000Y52158D02*
X441000D01*
Y62158D01*
X436000D01*
Y52158D01*
G37*
G36*
G01Y71842D02*
X441000D01*
Y81842D01*
X436000D01*
Y71842D01*
G37*
G36*
G01Y92158D02*
X441000D01*
Y102158D01*
X436000D01*
Y92158D01*
G37*
G36*
G01Y112158D02*
X441000D01*
Y122158D01*
X436000D01*
Y112158D01*
G37*
G36*
G01Y131842D02*
X441000D01*
Y141842D01*
X436000D01*
Y131842D01*
G37*
G36*
G01Y152158D02*
X441000D01*
Y162158D01*
X436000D01*
Y152158D01*
G37*
G36*
G01Y172158D02*
X441000D01*
Y182158D01*
X436000D01*
Y172158D01*
G37*
G36*
G01Y191842D02*
X441000D01*
Y201842D01*
X436000D01*
Y191842D01*
G37*
G36*
G01X431000Y235500D02*
Y238000D01*
G03X438500Y245500I0J7500D01*
G01X441000D01*
G02X431000Y235500I-10000J0D01*
G37*
G36*
G01X421000Y245500D02*
G02X431000Y255500I10000J0D01*
G01Y253000D01*
G03X423500Y245500I0J-7500D01*
G01X421000D01*
G37*
G54D10*
G01X204000Y241500D02*
X213000D01*
X214000Y240500D01*
X215000Y241500D01*
X223000D01*
X224000Y240500D01*
X225000Y241500D01*
X233000D01*
X234000Y240500D01*
X235000Y241500D01*
X243000D01*
X244000Y240500D01*
X245000Y241500D01*
X254000D01*
X255000Y240500D01*
Y230500D01*
X254000Y229500D01*
X245000D01*
X244000Y230500D01*
X243000Y229500D01*
X235000D01*
X234000Y230500D01*
X233000Y229500D01*
X225000D01*
X224000Y230500D01*
X223000Y229500D01*
X215000D01*
X214000Y230500D01*
X213000Y229500D01*
X204000D01*
X203000Y230500D01*
Y240500D01*
X204000Y241500D01*
G54D11*
G01X196000Y59000D02*
Y65000D01*
G01X172000Y59000D02*
Y65000D01*
G01X196000Y55000D02*
Y52000D01*
X172000D01*
Y55000D01*
G01Y69000D02*
Y72000D01*
X196000D01*
Y69000D01*
G01X217000Y59000D02*
Y65000D01*
G01X241000Y55000D02*
Y52000D01*
X217000D01*
Y55000D01*
G01Y69000D02*
Y72000D01*
X241000D01*
Y69000D01*
G01Y59000D02*
Y65000D01*
G01X286000Y59000D02*
Y65000D01*
G01X262000Y59000D02*
Y65000D01*
G01X286000Y55000D02*
Y52000D01*
X262000D01*
Y55000D01*
G01Y69000D02*
Y72000D01*
X286000D01*
Y69000D01*
G54D12*
G01X12500Y180000D02*
Y184000D01*
G01X14500Y182000D02*
X10500D01*
G01X15000Y185500D02*
X10500D01*
X4000Y192000D01*
Y211500D01*
G01D02*
X15000D01*
G01X13000Y213000D02*
Y217000D01*
G01X153000Y64500D02*
X31000D01*
Y3000D01*
X153000D01*
Y64500D01*
G01X61500Y112500D02*
Y108000D01*
X55000Y101500D01*
X35500D01*
G01Y116500D02*
Y127500D01*
X55000D01*
X61500Y121000D01*
Y116500D01*
G01X35500Y101500D02*
Y112500D01*
G01X34000Y110500D02*
X30000D01*
G01X19000Y211500D02*
X30000D01*
Y192000D01*
X23500Y185500D01*
X19000D01*
G01X63000Y218000D02*
X72500D01*
Y275500D01*
X36500D01*
Y242000D01*
G01X46000Y218000D02*
X36500D01*
Y224500D01*
G01X67000Y110000D02*
X63000D01*
G01X65000Y112000D02*
Y108000D01*
G01X155500Y186000D02*
X130500D01*
Y176000D01*
X155500D01*
G01X209685Y38567D02*
X170315D01*
Y7071D01*
X209685D01*
Y38567D01*
G01X249685D02*
X210315D01*
Y7071D01*
X249685D01*
Y38567D01*
G01X289685D02*
X250315D01*
Y7071D01*
X289685D01*
Y38567D01*
G01X254000Y185000D02*
Y140000D01*
X244000D01*
Y150000D01*
G01Y220000D02*
Y150000D01*
G01X254000Y180000D02*
Y220000D01*
X244000D01*
G01X291000Y83000D02*
Y93000D01*
X261000D01*
Y83000D01*
X291000D01*
G01X329685Y38567D02*
X290315D01*
Y7071D01*
X329685D01*
Y38567D01*
G01X411500Y86658D02*
Y27658D01*
X443000D01*
Y86658D01*
X411500D01*
G01Y146658D02*
Y87658D01*
X443000D01*
Y146658D01*
X411500D01*
G01Y206658D02*
Y147658D01*
X443000D01*
Y206658D01*
X411500D01*
G54D13*
G01X2000Y258000D02*
Y2000D01*
X443000D01*
Y258000D01*
X2000D01*
G01X0Y0D02*
Y260000D01*
X445000D01*
Y0D01*
X0D01*
G01X23300Y14000D02*
G03I-10300J0D01*
G01X24300Y246000D02*
G03I-10300J0D01*
G01X81004Y170000D02*
Y176000D01*
X68996D01*
Y170000D01*
X81004D01*
G01X164000Y99250D02*
X124000D01*
Y112750D01*
X164000D01*
Y99250D01*
G01X127500Y102750D02*
G03I-1000J0D01*
G01X124000Y101000D02*
X164000D01*
G01X128000Y179300D02*
X126875D01*
X125500Y178767D01*
G01Y179833D02*
X126875Y179300D01*
G01X128000Y181820D02*
X125500D01*
X127292Y180833D01*
Y182167D01*
G01X152850Y251330D02*
G03X150720Y250100I509615J-884962D01*
G03X148910Y249050I264119J-457376D01*
G01X147300Y248100D01*
G03X147260Y248060I50J-90D01*
G03X147240Y248000I113J-71D01*
G01X147220Y246180D01*
G03X147210Y244160I567335J-3819D01*
G03X147200Y241760I1108945J-5821D01*
G01X147170Y235530D01*
X141730Y232330D01*
X136280Y229130D01*
Y216380D01*
X136470Y216260D01*
G03X137200Y215820I14995J24053D01*
G01X142080Y212970D01*
X147280Y209930D01*
G03X147330Y209920I43J87D01*
G03X147370I20J76D01*
G01X148200Y210400D01*
G03X149130Y210930I-132722J233971D01*
G03X150220Y211550I-255019J449608D01*
G01X156120Y214940D01*
G02X157550Y215760I65968J-113384D01*
G02X158300Y216170I18024J-32079D01*
G02X158480Y216160I81J-168D01*
G03X158570Y216110I3300J5835D01*
G01X159140Y215800D01*
X159800Y215430D01*
X160560Y215010D01*
G02X162220Y214080I-126039J-226919D01*
G02X164720Y212670I-625006J-1111088D01*
G02X167210Y211260I-629904J-1115286D01*
G02X168840Y210320I-124436J-217660D01*
G03X169270Y210080I23681J41923D01*
G03X169430Y210000I676J1152D01*
G03X169530Y209990I74J236D01*
G03X169620Y210010I5J188D01*
G02X169720Y210070I17500J-29054D01*
G01X171100Y210870D01*
X172660Y211760D01*
X174490Y212820D01*
X176350Y213890D01*
X178010Y214840D01*
X179410Y215650D01*
X179800Y215870D01*
X180350Y216190D01*
X180380Y220140D01*
X180400Y221830D01*
X180420Y223640D01*
X180430Y225310D01*
X180450Y226500D01*
G03X180460Y227420I-162186J2223D01*
G03Y228210I-85889J395D01*
G01Y228900D01*
G03X180440Y228940I-68J-9D01*
G03X180410Y228970I-96J-66D01*
G01X179970Y229240D01*
G03X179460Y229530I-40390J-70436D01*
G03X178870Y229880I-77424J-129842D01*
G02X178040Y230370I81916J139704D01*
G01X176650Y231190D01*
X175050Y232140D01*
X173440Y233100D01*
X169540Y235420D01*
Y248060D01*
X169390Y248130D01*
G02X169270Y248200I1317J2396D01*
G01X167770Y249070D01*
X166070Y250070D01*
X164080Y251230D01*
X162080Y252390D01*
X160370Y253390D01*
X158870Y254270D01*
G03X158720Y254350I-5833J-10757D01*
G02X158640Y254400I1229J2056D01*
G02X158580Y254440I771J1221D01*
G02X158520Y254480I917J1441D01*
G02X158500Y254500I43J63D01*
G03X158490Y254520I-98J-36D01*
G03X158470Y254530I-56J-87D01*
G03X158460Y254540I-47J-37D01*
G03X158440I-10J-42D01*
G03X158420Y254530I15J-54D01*
G01X156790Y253600D01*
X152850Y251330D01*
G01X147200Y228850D02*
Y222620D01*
X141950Y219630D01*
X139930Y218480D01*
X138230Y217510D01*
X136690Y216640D01*
G02X136670Y216630I-29J33D01*
G02X136660Y216640I0J10D01*
G01Y218440D01*
G02X136650Y220420I713489J4594D01*
G01X136660Y222780D01*
X136670Y228930D01*
X141900Y232010D01*
X143910Y233190D01*
X145600Y234180D01*
X147140Y235080D01*
G02X147160Y235090I30J-35D01*
G02X147180Y235070I0J-20D01*
G01X147190Y233260D01*
G02Y231240I-587499J-1010D01*
G02X147200Y228850I-1160477J-6051D01*
G01X138100Y137100D02*
Y148900D01*
G01X146500Y137100D02*
X147900D01*
Y148900D01*
X146500D01*
G01X139500D02*
X138100D01*
G01X139500Y137100D02*
X138100D01*
G01X174720Y219480D02*
G02X176740Y218310I-391013J-677412D01*
G02X178440Y217320I-197481J-341064D01*
G01X179960Y216420D01*
G02Y216400I-8J-10D01*
G02X179860Y216320I-366J355D01*
G01X174780Y213400D01*
X169670Y210470D01*
G02X169600Y210450I-75J128D01*
G02X169520Y210470I-3J157D01*
G01X164160Y213440D01*
X158780Y216410D01*
G02X158760Y216450I21J36D01*
G02X158790Y216500I62J-3D01*
G01X164030Y219500D01*
X169250Y222490D01*
G02X169370Y222520I121J-228D01*
G02X169430Y222510I12J-111D01*
G01X170970Y221630D01*
G02X172690Y220650I-223739J-394684D01*
G02X174720Y219480I-437129J-760783D01*
G01X163830Y250940D02*
X169150Y247840D01*
X169170Y235640D01*
X168040Y236320D01*
X167360Y236720D01*
X166000Y237530D01*
X164390Y238490D01*
X162690Y239490D01*
X158480Y242000D01*
Y250330D01*
G02X158490Y252270I918631J-3765D01*
G01Y254040D01*
G02X158500I5J-5D01*
G02X158520I10J-37D01*
G01X160080Y253130D01*
X163830Y250940D01*
G01X159710Y231270D02*
Y227180D01*
X161360D01*
Y229670D01*
X162030Y230350D01*
X162710Y231020D01*
X163820Y229100D01*
X164940Y227190D01*
X166010Y227180D01*
G03X166410Y227190I-1344J61779D01*
G03X166760I175J32449D01*
G01X167060D01*
G03X167070Y227200I0J10D01*
G03X167060Y227220I-39J-7D01*
G01X166600Y227930D01*
G03X166100Y228710I-363589J-232520D01*
G01X165490Y229650D01*
G02X164880Y230580I467108J307048D01*
G02X164370Y231380I250218J160077D01*
G01X163910Y232090D01*
G02X163890Y232140I234J122D01*
G02X163900Y232200I54J22D01*
G02X164190Y232520I28837J-25843D01*
G02X164590Y232950I16657J-15094D01*
G02X165180Y233560I70056J-67169D01*
G03X165700Y234100I-185008J178676D01*
G03X166170Y234580I-123092J120998D01*
G03X166560Y234990I-151361J144368D01*
G03X166700Y235140I-3650J3547D01*
G01X166890Y235360D01*
X164700D01*
X163040Y233570D01*
X161380Y231770D01*
X161370Y233570D01*
X161360Y235360D01*
X159710D01*
Y231270D01*
G01X161890Y226390D02*
G03X161380Y226100I333J-1180D01*
G03X161040Y225600I990J-1039D01*
G03X160910Y224950I1609J-660D01*
G03X161020Y224260I2181J-6D01*
G03X161360Y223740I1092J343D01*
G03X161950Y223440I937J1113D01*
G03X162610Y223430I352J1420D01*
G03X163160Y223720I-254J1149D01*
G03X163310Y223880I-712J818D01*
G03X163430Y224080I-1178J843D01*
G03X163500Y224260I-1127J542D01*
G03X163480Y224350I-81J29D01*
G03X163450Y224370I-72J-76D01*
G03X163380Y224400I-782J-1729D01*
G03X163290Y224430I-679J-1888D01*
G03X163200Y224460I-843J-2379D01*
G01X162960Y224520D01*
X162870Y224340D01*
G02X162770Y224150I-1124J470D01*
G02X162650Y224020I-485J327D01*
G02X162510Y223950I-280J384D01*
G02X162330Y223910I-249J697D01*
G02X162130Y223920I-61J777D01*
G02X161950Y223980I90J571D01*
G02X161800Y224090I264J517D01*
G02X161680Y224260I669J599D01*
G02X161620Y224390I944J515D01*
G02X161580Y224510I546J249D01*
G02X161570Y224660I1054J146D01*
G02X161560Y224920I8541J459D01*
G02X161570Y225160I6942J-169D01*
G02X161580Y225320I1594J-19D01*
G02X161610Y225440I856J-150D01*
G02X161650Y225550I617J-162D01*
G02X161750Y225710I710J-333D01*
G02X161890Y225830I477J-415D01*
G02X162050Y225900I323J-521D01*
G02X162240Y225940I279J-853D01*
G02X162440Y225930I59J-824D01*
G02X162610Y225870I-95J-540D01*
G02X162750Y225760I-248J-460D01*
G02X162850Y225610I-475J-425D01*
G03X162900Y225520I998J496D01*
G03X162940Y225480I116J76D01*
G03X162980Y225460I54J58D01*
G03X163050Y225470I-6J289D01*
G02X163100Y225480I1039J-5065D01*
G02X163180Y225490I2427J-19094D01*
G02X163260Y225510I4855J-19249D01*
G02X163330Y225520I1871J-12850D01*
G03X163400Y225530I-76J784D01*
G03X163450Y225550I-122J378D01*
G03X163490Y225570I-117J285D01*
G03X163510Y225590I-8J28D01*
G03X163480Y225700I-242J-7D01*
G03X163370Y225890I-2653J-1409D01*
G03X163250Y226070I-2285J-1393D01*
G03X163150Y226170I-352J-252D01*
G03X162860Y226330I-867J-1228D01*
G03X162540Y226420I-571J-1417D01*
G03X162210Y226440I-256J-1488D01*
G03X161890Y226390I57J-1414D01*
G01X158020Y224900D02*
Y223390D01*
X158620D01*
Y224720D01*
X159810D01*
Y223390D01*
X160400D01*
Y226410D01*
X159810D01*
Y225220D01*
X158620D01*
Y226410D01*
X158020D01*
Y224900D01*
G01X164010D02*
Y223390D01*
X164600D01*
X164610Y224550D01*
X164620Y225700D01*
X164870Y224720D01*
X164960Y224330D01*
X165050Y223970D01*
X165120Y223680D01*
G03X165150Y223560I8056J1950D01*
G01X165200Y223390D01*
X165490D01*
G03X165670Y223400I-209J5384D01*
G03X165740Y223410I-1J256D01*
G03X165790Y223440I-21J92D01*
G03X165810Y223490I-117J76D01*
G03X165830Y223570I-20453J5156D01*
G01X165900Y223860D01*
X165990Y224210D01*
X166080Y224600D01*
X166320Y225600D01*
X166350Y225310D01*
G02X166360Y225150I-2511J-237D01*
G02X166370Y224870I-20966J-889D01*
G02X166380Y224540I-23600J-880D01*
G02Y224210I-24944J-165D01*
G01Y223390D01*
X166930D01*
Y226410D01*
X166030D01*
X165790Y225480D01*
G02X165700Y225120I-112758J27998D01*
G02X165610Y224800I-68972J19226D01*
G02X165540Y224530I-119956J30956D01*
G02X165520Y224470I-745J215D01*
G02X165490I-15J5D01*
G02X165430Y224680I6080J1851D01*
G02X165340Y224970I7483J2481D01*
G02X165220Y225400I30775J8820D01*
G01X164950Y226410D01*
X164010D01*
Y224900D01*
G01X156840Y223690D02*
Y223390D01*
X157430D01*
Y223990D01*
X156840D01*
Y223690D01*
G01X155810Y233850D02*
G02X156030Y233680I-401J-746D01*
G02X156190Y233450I-558J-559D01*
G02X156250Y233180I-765J-312D01*
G02X156240Y232860I-1243J-121D01*
G02X156180Y232670I-868J170D01*
G02X156080Y232500I-711J304D01*
G02X155940Y232360I-630J490D01*
G02X155750Y232250I-654J911D01*
G02X155580Y232190I-378J800D01*
G02X155400Y232150I-324J1034D01*
G02X155090Y232140I-304J4603D01*
G02X154310Y232130I-2041J128786D01*
G01X153090Y232110D01*
Y234000D01*
X154340Y233980D01*
G02X155150Y233970I-1420J-147806D01*
G02X155450Y233950I-130J-4205D01*
G02X155630Y233920I-66J-952D01*
G02X155810Y233850I-266J-952D01*
G01X155550Y230700D02*
G02X155990Y230570I-287J-1781D01*
G02X156310Y230340I-402J-897D01*
G02X156500Y230020I-636J-594D01*
G02X156560Y229620I-1194J-384D01*
G02X156520Y229310I-1228J1D01*
G02X156400Y229040I-918J246D01*
G02X156210Y228820I-790J490D01*
G02X155940Y228660I-740J941D01*
G02X155790Y228610I-261J534D01*
G02X155560Y228590I-332J2488D01*
G02X155190Y228570I-621J8052D01*
G02X154430Y228560I-1849J111648D01*
G01X153090Y228550D01*
Y230750D01*
X154170D01*
G02X154610Y230740I-412J-27830D01*
G02X155030Y230730I-333J-22814D01*
G02X155380Y230720I-435J-21338D01*
G02X155550Y230700I-97J-1556D01*
G01X160000Y240640D02*
G02X160900Y240120I-76536J-133505D01*
G02X162300Y239300I-434323J-743133D01*
G02X163870Y238360I-493325J-825739D01*
G02X165420Y237440I-457591J-772707D01*
G01X169150Y235230D01*
X169170Y222870D01*
X163780Y219770D01*
G02X161520Y218480I-451810J788918D01*
G02X159810Y217510I-151469J265031D01*
G01X158370Y216700D01*
G02X158310Y216690I-42J67D01*
G02X158250Y216710I60J279D01*
G01X156690Y217570D01*
G02X154950Y218530I522977J949953D01*
G01X152910Y219660D01*
X147590Y222610D01*
X147570Y228970D01*
X147560Y235340D01*
X152900Y238470D01*
X154940Y239680D01*
X156670Y240690D01*
X158240Y241610D01*
G02X158270Y241620I38J-63D01*
G02X158300Y241610I-1J-53D01*
G01X158790Y241330D01*
G02X159350Y241010I-45328J-79975D01*
G02X160000Y240640I-85503J-150963D01*
G01X151400Y231270D02*
Y227170D01*
X153790Y227200D01*
G03X155510Y227220I-1762J225521D01*
G03X156230Y227260I-166J9481D01*
G03X156680Y227350I-272J2531D01*
G03X157100Y227510I-616J2248D01*
G03X157620Y227900I-818J1633D01*
G03X158020Y228480I-1875J1721D01*
G03X158250Y229150I-2308J1167D01*
G03X158260Y229820I-1981J365D01*
G03X158130Y230320I-2229J-313D01*
G03X157890Y230750I-1739J-689D01*
G03X157550Y231110I-1524J-1099D01*
G03X157110Y231380I-1383J-1760D01*
G01X156750Y231550D01*
X156960Y231660D01*
G03X157050Y231720I-405J705D01*
G03X157160Y231800I-1179J1737D01*
G03X157270Y231900I-1508J1770D01*
G03X157360Y231990I-967J1057D01*
G03X157750Y232630I-1537J1375D01*
G03X157880Y233350I-1746J687D01*
G03X157720Y234060I-1865J-47D01*
G03X157290Y234680I-1891J-852D01*
G03X157180Y234790I-1456J-1346D01*
G03X157040Y234900I-1984J-2381D01*
G03X156900Y235000I-1787J-2354D01*
G03X156790Y235060I-540J-858D01*
G03X156410Y235210I-924J-1784D01*
G03X155970Y235290I-679J-2483D01*
G03X155290Y235330I-880J-9158D01*
G03X153670Y235350I-3379J-208104D01*
G01X151400Y235370D01*
Y231270D01*
G01X151350Y226160D02*
Y225900D01*
X152220D01*
Y223390D01*
X152820D01*
Y225900D01*
X153730D01*
Y226410D01*
X151350D01*
Y226160D01*
G01X154050Y224900D02*
Y223390D01*
X154640D01*
Y224520D01*
X155160Y224540D01*
G03X155430Y224560I-512J8744D01*
G03X155610Y224580I-121J1905D01*
G03X155740Y224620I-229J974D01*
G03X155870Y224670I-236J807D01*
G03X156160Y224920I-342J690D01*
G03X156310Y225310I-838J546D01*
G03X156300Y225730I-1009J186D01*
G03X156120Y226090I-854J-202D01*
G03X155950Y226250I-719J-594D01*
G03X155760Y226340I-332J-455D01*
G03X155480Y226380I-344J-1408D01*
G03X154880Y226400I-1032J-21941D01*
G01X154050Y226420D01*
Y224900D01*
G01X155580Y225750D02*
G02X155630Y225690I-329J-325D01*
G02X155660Y225620I-397J-211D01*
G02X155690Y225540I-445J-212D01*
G02Y225470I-353J-35D01*
G02Y225400I-353J-35D01*
G02X155660Y225320I-475J132D01*
G02X155630Y225250I-427J141D01*
G02X155580Y225190I-379J265D01*
G02X155510Y225110I-412J290D01*
G02X155430Y225080I-118J192D01*
G02X155310Y225060I-158J579D01*
G02X155060Y225040I-887J9513D01*
G01X154640Y225030D01*
Y225910D01*
X155060Y225900D01*
G02X155310Y225880I-637J-9533D01*
G02X155430Y225870I11J-594D01*
G02X155510Y225830I-64J-227D01*
G02X155580Y225750I-342J-370D01*
G01X184580Y49410D02*
X199180D01*
Y42610D01*
X184580D01*
Y49410D01*
G01X230580D02*
X245180D01*
Y42610D01*
X230580D01*
Y49410D01*
G01X257500Y218733D02*
X257250Y218600D01*
X257083Y218440D01*
X257000Y218253D01*
X257083Y218040D01*
X257250Y217880D01*
X257500Y217720D01*
X257833Y217667D01*
X259500D01*
G01X257000Y216000D02*
X259500D01*
X259000Y216320D01*
G01X257000D02*
Y215680D01*
G01Y213853D02*
X257542Y213800D01*
X258000Y213720D01*
X258417Y213613D01*
X258875Y213480D01*
X259500Y213267D01*
Y214333D01*
G01X273580Y49410D02*
X288180D01*
Y42610D01*
X273580D01*
Y49410D01*
G01X269472Y214276D02*
Y123724D01*
X328528D01*
Y214276D01*
X269472D01*
G01X287720Y242126D02*
X315280D01*
Y257874D01*
X287720D01*
Y242126D01*
G01X347000Y68600D02*
X337400D01*
Y21400D01*
G01D02*
X347000D01*
G01Y140600D02*
X337400D01*
Y93400D01*
G01D02*
X347000D01*
G01Y214600D02*
X337400D01*
Y167400D01*
G01D02*
X347000D01*
G01X355500Y21400D02*
X366500D01*
G01X375000D02*
X384600D01*
Y68600D01*
X375000D01*
G01X366500D02*
X355500D01*
G01Y93400D02*
X366500D01*
G01X375000D02*
X384600D01*
Y140600D01*
X375000D01*
G01X366500D02*
X355500D01*
G01Y167400D02*
X366500D01*
G01X375000D02*
X384600D01*
Y214600D01*
X375000D01*
G01X366500D02*
X355500D01*
G01X398590Y42580D02*
Y57180D01*
X405390D01*
Y42580D01*
X398590D01*
G01Y65580D02*
Y80180D01*
X405390D01*
Y65580D01*
X398590D01*
G01Y121580D02*
Y136180D01*
X405390D01*
Y121580D01*
X398590D01*
G01Y98580D02*
Y113180D01*
X405390D01*
Y98580D01*
X398590D01*
G01X438300Y13000D02*
G03I-10300J0D01*
G01X441300Y245500D02*
G03I-10300J0D01*
G01X11000Y92000D02*
X5500D01*
Y99000D01*
G01X13000D02*
X18500D01*
Y98500D01*
Y92000D01*
X13000D01*
G01X12400Y97000D02*
Y94000D01*
G01X11700Y97000D02*
Y94000D01*
G01X4500Y94500D02*
Y96500D01*
G01X3500Y95500D02*
X5500D01*
G01Y99000D02*
X11000D01*
G01X4500Y123000D02*
Y125000D01*
G01X3500Y124000D02*
X5500D01*
G01X11000Y120500D02*
X5500D01*
Y127500D01*
G01X13000D02*
X18500D01*
Y127000D01*
Y120500D01*
X13000D01*
G01X12400Y125500D02*
Y122500D01*
G01X11700Y125500D02*
Y122500D01*
G01X6500Y105000D02*
X11000D01*
G01X11600Y103600D02*
Y101300D01*
G01X12300Y103600D02*
Y101300D01*
G01X11000Y100000D02*
X6500D01*
Y105000D01*
G01X13000D02*
X17500D01*
Y100000D01*
X13000D01*
G01X5000Y150500D02*
Y152500D01*
G01X4000Y151500D02*
X6000D01*
G01X11500Y148000D02*
X6000D01*
Y155000D01*
G01X13500D02*
X19000D01*
Y154500D01*
Y148000D01*
X13500D01*
G01X12900Y153000D02*
Y150000D01*
G01X12200Y153000D02*
Y150000D01*
G01X5500Y127500D02*
X11000D01*
G01X6500Y133500D02*
X11000D01*
G01X11600Y132100D02*
Y129800D01*
G01X12300Y132100D02*
Y129800D01*
G01X11000Y128500D02*
X6500D01*
Y133500D01*
G01X13000D02*
X17500D01*
Y128500D01*
X13000D01*
G01X6000Y155000D02*
X11500D01*
G01X7000Y161000D02*
X11500D01*
G01X12100Y159600D02*
Y157300D01*
G01X12800Y159600D02*
Y157300D01*
G01X11500Y156000D02*
X7000D01*
Y161000D01*
G01X13500D02*
X18000D01*
Y156000D01*
X13500D01*
G01X19500Y96000D02*
Y94500D01*
G01Y124500D02*
Y123000D01*
G01X20000Y152000D02*
Y150500D01*
G01X48610Y71705D02*
X62390D01*
Y97295D01*
X48610D01*
Y71705D01*
G01X76700Y113900D02*
Y116200D01*
G01X76000Y112500D02*
X71500D01*
Y117500D01*
X76000D01*
G01X68500Y134500D02*
Y139000D01*
G01X69900Y139600D02*
X72200D01*
G01X69900Y140300D02*
X72200D01*
G01X73500Y139000D02*
Y134500D01*
X68500D01*
G01Y141000D02*
Y145500D01*
X73500D01*
Y141000D01*
G01X76700Y153900D02*
Y156200D01*
G01X76000Y152500D02*
X71500D01*
Y157500D01*
X76000D01*
G01X61500Y167500D02*
Y172000D01*
G01X62900Y172600D02*
X65200D01*
G01X62900Y173300D02*
X65200D01*
G01X66500Y172000D02*
Y167500D01*
X61500D01*
G01Y174000D02*
Y178500D01*
X66500D01*
Y174000D01*
G01X76000Y183500D02*
X71500D01*
Y188500D01*
G01X76700Y158900D02*
Y161200D01*
G01X76000Y157500D02*
X71500D01*
Y162500D01*
X76000D01*
G01X76700Y189900D02*
Y192200D01*
G01X76000Y188500D02*
X71500D01*
Y193500D01*
X76000D01*
G01X71500Y188500D02*
X76000D01*
G01X76600Y187100D02*
Y184800D01*
G01X78500Y74500D02*
Y79000D01*
G01X79900Y79600D02*
X82200D01*
G01X79900Y80300D02*
X82200D01*
G01X83500Y79000D02*
Y74500D01*
X78500D01*
G01Y81000D02*
Y85500D01*
X83500D01*
Y81000D01*
G01X82500Y112500D02*
X78000D01*
G01X77400Y113900D02*
Y116200D01*
G01X78000Y117500D02*
X82500D01*
Y112500D01*
G01X101500Y151500D02*
Y147000D01*
G01X100100Y146400D02*
X97800D01*
G01X100100Y145700D02*
X97800D01*
G01X96500Y147000D02*
Y151500D01*
X101500D01*
G01Y145000D02*
Y140500D01*
X96500D01*
Y145000D01*
G01X82500Y152500D02*
X78000D01*
G01X77400Y153900D02*
Y156200D01*
G01X78000Y157500D02*
X82500D01*
Y152500D01*
G01X105000Y134000D02*
G03I-1500J0D01*
G01Y153000D02*
Y137000D01*
G01X78000Y188500D02*
X82500D01*
Y183500D01*
X78000D01*
G01X82500Y157500D02*
X78000D01*
G01X77400Y158900D02*
Y161200D01*
G01X78000Y162500D02*
X82500D01*
Y157500D01*
G01Y188500D02*
X78000D01*
G01X77400Y189900D02*
Y192200D01*
G01X78000Y193500D02*
X82500D01*
Y188500D01*
G01X77300Y187100D02*
Y184800D01*
G01X114500Y93000D02*
Y98500D01*
X121500D01*
G01Y91000D02*
Y85500D01*
X121000D01*
X114500D01*
Y91000D01*
G01X119500Y91600D02*
X116500D01*
G01X119500Y92300D02*
X116500D01*
G01X121500Y98500D02*
Y93000D01*
G01X132000Y90500D02*
X137500D01*
Y83500D01*
G01X130000D02*
X124500D01*
Y84000D01*
Y90500D01*
X130000D01*
G01X130600Y85500D02*
Y88500D01*
G01X131300Y85500D02*
Y88500D01*
G01X137500Y83500D02*
X132000D01*
G01X123000Y118000D02*
Y112500D01*
X116000D01*
G01Y120000D02*
Y125500D01*
X116500D01*
X123000D01*
Y120000D01*
G01X118000Y119400D02*
X121000D01*
G01X118000Y118700D02*
X121000D01*
G01X116000Y112500D02*
Y118000D01*
G01X125000Y153000D02*
Y137000D01*
G01X132500Y162500D02*
X128000D01*
G01X127400Y163900D02*
Y166200D01*
G01X126700Y163900D02*
Y166200D01*
G01X128000Y167500D02*
X132500D01*
Y162500D01*
G01X126000D02*
X121500D01*
Y167500D01*
X126000D01*
G01X107500D02*
X112000D01*
G01X112600Y166100D02*
Y163800D01*
G01X113300Y166100D02*
Y163800D01*
G01X112000Y162500D02*
X107500D01*
Y167500D01*
G01X114000D02*
X118500D01*
Y162500D01*
X114000D01*
G01X156000Y83500D02*
X150500D01*
Y90500D01*
G01X158000D02*
X163500D01*
Y90000D01*
Y83500D01*
X158000D01*
G01X157400Y88500D02*
Y85500D01*
G01X156700Y88500D02*
Y85500D01*
G01X150500Y90500D02*
X156000D01*
G01X143000Y83500D02*
X137500D01*
Y90500D01*
G01X145000D02*
X150500D01*
Y90000D01*
Y83500D01*
X145000D01*
G01X144400Y88500D02*
Y85500D01*
G01X143700Y88500D02*
Y85500D01*
G01X137500Y90500D02*
X143000D01*
G01X168500Y144500D02*
X164000D01*
G01X163400Y145900D02*
Y148200D01*
G01X162700Y145900D02*
Y148200D01*
G01X164000Y149500D02*
X168500D01*
Y144500D01*
G01X162000D02*
X157500D01*
Y149500D01*
X162000D01*
G01X154500Y158500D02*
Y154000D01*
X149500D01*
Y158500D01*
G01X168500Y139500D02*
X164000D01*
G01X163400Y140900D02*
Y143200D01*
G01X162700Y140900D02*
Y143200D01*
G01X164000Y144500D02*
X168500D01*
Y139500D01*
G01X162000D02*
X157500D01*
Y144500D01*
X162000D01*
G01X149500Y135500D02*
Y140000D01*
G01X150900Y140600D02*
X153200D01*
G01X150900Y141300D02*
X153200D01*
G01X154500Y140000D02*
Y135500D01*
X149500D01*
G01Y142000D02*
Y146500D01*
X154500D01*
Y142000D01*
G01X168500Y134500D02*
X164000D01*
G01X163400Y135900D02*
Y138200D01*
G01X162700Y135900D02*
Y138200D01*
G01X164000Y139500D02*
X168500D01*
Y134500D01*
G01X162000D02*
X157500D01*
Y139500D01*
X162000D01*
G01X156307Y150730D02*
Y166266D01*
G01X168693Y150730D02*
X156307D01*
G01X154500Y165000D02*
Y160500D01*
G01X153100Y159900D02*
X150800D01*
G01X153100Y159200D02*
X150800D01*
G01X149500Y160500D02*
Y165000D01*
X154500D01*
G01X149000Y174500D02*
X153500D01*
G01X154100Y173100D02*
Y170800D01*
G01X154800Y173100D02*
Y170800D01*
G01X153500Y169500D02*
X149000D01*
Y174500D01*
G01X155500D02*
X160000D01*
Y169500D01*
X155500D01*
G01X156307Y166266D02*
X168693D01*
G01X155413Y164012D02*
Y167161D01*
G01D02*
X158563D01*
G01X149000Y192500D02*
X153500D01*
G01X154100Y191100D02*
Y188800D01*
G01X154800Y191100D02*
Y188800D01*
G01X153500Y187500D02*
X149000D01*
Y192500D01*
G01X155500D02*
X160000D01*
Y187500D01*
X155500D01*
G01X180500Y43500D02*
X176000D01*
G01X175400Y44900D02*
Y47200D01*
G01X174700Y44900D02*
Y47200D01*
G01X176000Y48500D02*
X180500D01*
Y43500D01*
G01X174000D02*
X169500D01*
Y48500D01*
X174000D01*
G01X180800Y101300D02*
Y88700D01*
G01X168693Y166266D02*
Y150730D01*
G01X192500Y181500D02*
Y186000D01*
G01X197500D02*
Y181500D01*
X192500D01*
G01X187500D02*
Y186000D01*
G01X192500D02*
Y181500D01*
X187500D01*
G01X198500Y196500D02*
X197000D01*
G01Y211500D02*
X199000D01*
G01X194500Y205000D02*
Y210500D01*
X201500D01*
G01Y203000D02*
Y197500D01*
X201000D01*
X194500D01*
Y203000D01*
G01X199500Y203600D02*
X196500D01*
G01X199500Y204300D02*
X196500D01*
G01X191500Y196500D02*
X190000D01*
G01Y211500D02*
X192000D01*
G01X191000Y212500D02*
Y210500D01*
G01X187500Y205000D02*
Y210500D01*
X194500D01*
G01Y203000D02*
Y197500D01*
X194000D01*
X187500D01*
Y203000D01*
G01X192500Y203600D02*
X189500D01*
G01X192500Y204300D02*
X189500D01*
G01X194500Y210500D02*
Y205000D01*
G01X193900Y186600D02*
X196200D01*
G01X193900Y187300D02*
X196200D01*
G01X192500Y188000D02*
Y192500D01*
X197500D01*
Y188000D01*
G01X188900Y186600D02*
X191200D01*
G01X188900Y187300D02*
X191200D01*
G01X187500Y188000D02*
Y192500D01*
X192500D01*
Y188000D01*
G01X227500Y43500D02*
X223000D01*
G01X222400Y44900D02*
Y47200D01*
G01X221700Y44900D02*
Y47200D01*
G01X223000Y48500D02*
X227500D01*
Y43500D01*
G01X221000D02*
X216500D01*
Y48500D01*
X221000D01*
G01X215200Y93800D02*
G02Y96200I0J1200D01*
G01Y88700D02*
Y101300D01*
G01X226000Y80500D02*
X220500D01*
Y81000D01*
Y87500D01*
X226000D01*
G01X226600Y82500D02*
Y85500D01*
G01X223500Y113000D02*
Y117500D01*
G01X224900Y118100D02*
X227200D01*
G01X224900Y118800D02*
X227200D01*
G01X228500Y117500D02*
Y113000D01*
X223500D01*
G01Y119500D02*
Y124000D01*
X228500D01*
Y119500D01*
G01X216500Y137500D02*
X221000D01*
G01X221600Y136100D02*
Y133800D01*
G01X222300Y136100D02*
Y133800D01*
G01X221000Y132500D02*
X216500D01*
Y137500D01*
G01X223000D02*
X227500D01*
Y132500D01*
X223000D01*
G01X229100Y165400D02*
X226800D01*
G01X229100Y164700D02*
X226800D01*
G01X225500Y166000D02*
Y170500D01*
X230500D01*
G01Y164000D02*
Y159500D01*
X225500D01*
Y164000D01*
G01X207500Y181500D02*
Y186000D01*
G01X212500D02*
Y181500D01*
X207500D01*
G01X202500D02*
Y186000D01*
G01X207500D02*
Y181500D01*
X202500D01*
G01X197500D02*
Y186000D01*
G01X202500D02*
Y181500D01*
X197500D01*
G01X212500Y196500D02*
X211000D01*
G01Y211500D02*
X213000D01*
G01X212000Y212500D02*
Y210500D01*
G01X208500Y205000D02*
Y210500D01*
X215500D01*
G01Y203000D02*
Y197500D01*
X215000D01*
X208500D01*
Y203000D01*
G01X213500Y203600D02*
X210500D01*
G01X213500Y204300D02*
X210500D01*
G01X215500Y210500D02*
Y205000D01*
G01X205500Y196500D02*
X204000D01*
G01Y211500D02*
X206000D01*
G01X205000Y212500D02*
Y210500D01*
G01X201500Y205000D02*
Y210500D01*
X208500D01*
G01Y203000D02*
Y197500D01*
X208000D01*
X201500D01*
Y203000D01*
G01X206500Y203600D02*
X203500D01*
G01X206500Y204300D02*
X203500D01*
G01X208500Y210500D02*
Y205000D01*
G01X198000Y212500D02*
Y210500D01*
G01X201500D02*
Y205000D01*
G01X208900Y186600D02*
X211200D01*
G01X208900Y187300D02*
X211200D01*
G01X207500Y188000D02*
Y192500D01*
X212500D01*
Y188000D01*
G01X203900Y186600D02*
X206200D01*
G01X203900Y187300D02*
X206200D01*
G01X202500Y188000D02*
Y192500D01*
X207500D01*
Y188000D01*
G01X198900Y186600D02*
X201200D01*
G01X198900Y187300D02*
X201200D01*
G01X197500Y188000D02*
Y192500D01*
X202500D01*
Y188000D01*
G01X228000Y87500D02*
X233500D01*
Y80500D01*
G01X227300Y82500D02*
Y85500D01*
G01X233500Y80500D02*
X228000D01*
G01X252500Y116500D02*
Y121000D01*
G01X253900Y121600D02*
X256200D01*
G01X253900Y122300D02*
X256200D01*
G01X257500Y121000D02*
Y116500D01*
X252500D01*
G01Y123000D02*
Y127500D01*
X257500D01*
Y123000D01*
G01X233500Y124000D02*
Y119500D01*
G01X232100Y118900D02*
X229800D01*
G01X232100Y118200D02*
X229800D01*
G01X228500Y119500D02*
Y124000D01*
X233500D01*
G01Y117500D02*
Y113000D01*
X228500D01*
Y117500D01*
G01X245500Y123000D02*
Y128500D01*
X252500D01*
G01Y121000D02*
Y115500D01*
X252000D01*
X245500D01*
Y121000D01*
G01X250500Y121600D02*
X247500D01*
G01X250500Y122300D02*
X247500D01*
G01X252500Y128500D02*
Y123000D01*
G01X230500Y170500D02*
Y166000D01*
G01X269500Y43500D02*
X265000D01*
G01X264400Y44900D02*
Y47200D01*
G01X263700Y44900D02*
Y47200D01*
G01X265000Y48500D02*
X269500D01*
Y43500D01*
G01X263000D02*
X258500D01*
Y48500D01*
X263000D01*
G01X305500Y47500D02*
X310000D01*
G01X310600Y46100D02*
Y43800D01*
G01X311300Y46100D02*
Y43800D01*
G01X310000Y42500D02*
X305500D01*
Y47500D01*
G01X312000D02*
X316500D01*
Y42500D01*
X312000D01*
G01X301000Y57000D02*
Y73000D01*
G01X308500Y109000D02*
Y114500D01*
X315500D01*
G01Y107000D02*
Y101500D01*
X315000D01*
X308500D01*
Y107000D01*
G01X313500Y107600D02*
X310500D01*
G01X313500Y108300D02*
X310500D01*
G01X315500Y114500D02*
Y109000D01*
G01X301500D02*
Y114500D01*
X308500D01*
G01Y107000D02*
Y101500D01*
X308000D01*
X301500D01*
Y107000D01*
G01X306500Y107600D02*
X303500D01*
G01X306500Y108300D02*
X303500D01*
G01X308500Y114500D02*
Y109000D01*
G01X304000Y220500D02*
X299500D01*
G01X298900Y221900D02*
Y224200D01*
G01X298200Y221900D02*
Y224200D01*
G01X299500Y225500D02*
X304000D01*
Y220500D01*
G01X297500D02*
X293000D01*
Y225500D01*
X297500D01*
G01X304000Y236500D02*
X299500D01*
G01X298900Y237900D02*
Y240200D01*
G01X298200Y237900D02*
Y240200D01*
G01X299500Y241500D02*
X304000D01*
Y236500D01*
G01X297500D02*
X293000D01*
Y241500D01*
X297500D01*
G01X299000Y225500D02*
Y230000D01*
G01X300400Y230600D02*
X302700D01*
G01X300400Y231300D02*
X302700D01*
G01X304000Y230000D02*
Y225500D01*
X299000D01*
G01Y232000D02*
Y236500D01*
X304000D01*
Y232000D01*
G01X321000Y57000D02*
Y73000D01*
G01X331500Y63000D02*
Y57500D01*
X331000D01*
X324500D01*
Y63000D01*
G01X329500Y63600D02*
X326500D01*
G01X324000Y76000D02*
G03I-1500J0D01*
G01X324500Y65000D02*
Y70500D01*
X331500D01*
G01X329500Y64300D02*
X326500D01*
G01X331500Y70500D02*
Y65000D01*
G01X378500Y73500D02*
Y78000D01*
G01X379900Y78600D02*
X382200D01*
G01X379900Y79300D02*
X382200D01*
G01X383500Y78000D02*
Y73500D01*
X378500D01*
G01Y80000D02*
Y84500D01*
X383500D01*
Y80000D01*
G01X388500Y84500D02*
Y80000D01*
G01X387100Y79400D02*
X384800D01*
G01X387100Y78700D02*
X384800D01*
G01X383500Y80000D02*
Y84500D01*
X388500D01*
G01Y78000D02*
Y73500D01*
X383500D01*
Y78000D01*
G01X378500Y146500D02*
Y151000D01*
G01X379900Y151600D02*
X382200D01*
G01X379900Y152300D02*
X382200D01*
G01X383500Y151000D02*
Y146500D01*
X378500D01*
G01Y153000D02*
Y157500D01*
X383500D01*
Y153000D01*
G01X388500Y157500D02*
Y153000D01*
G01X387100Y152400D02*
X384800D01*
G01X387100Y151700D02*
X384800D01*
G01X383500Y153000D02*
Y157500D01*
X388500D01*
G01Y151000D02*
Y146500D01*
X383500D01*
Y151000D01*
G01X404500Y172500D02*
Y168000D01*
G01X403100Y167400D02*
X400800D01*
G01X403100Y166700D02*
X400800D01*
G01X399500Y168000D02*
Y172500D01*
X404500D01*
G01Y166000D02*
Y161500D01*
X399500D01*
Y166000D01*
G01X378500Y220500D02*
Y225000D01*
G01X379900Y225600D02*
X382200D01*
G01X379900Y226300D02*
X382200D01*
G01X383500Y225000D02*
Y220500D01*
X378500D01*
G01Y227000D02*
Y231500D01*
X383500D01*
Y227000D01*
G01X388500Y231500D02*
Y227000D01*
G01X387100Y226400D02*
X384800D01*
G01X387100Y225700D02*
X384800D01*
G01X383500Y227000D02*
Y231500D01*
X388500D01*
G01Y225000D02*
Y220500D01*
X383500D01*
Y225000D01*
G54D14*
G01X7933Y26150D02*
Y30150D01*
X9450Y26817D01*
X10967Y30150D01*
Y26150D01*
G01X12325D02*
Y30150D01*
G01X14775D02*
Y26150D01*
G01Y28150D02*
X12325D01*
G01X16542Y29483D02*
X16892Y29883D01*
X17300Y30083D01*
X17767Y30150D01*
X18350Y30017D01*
X18758Y29683D01*
X18875Y29283D01*
X18817Y28883D01*
X18583Y28550D01*
X17417Y27883D01*
X16892Y27417D01*
X16542Y26750D01*
X16425Y26150D01*
X18875D01*
G01X5467Y115000D02*
Y119000D01*
X6633D01*
X7100Y118800D01*
X7450Y118533D01*
X7742Y118133D01*
X7975Y117667D01*
X8033Y117000D01*
X7975Y116333D01*
X7742Y115867D01*
X7450Y115467D01*
X7100Y115200D01*
X6633Y115000D01*
X5467D01*
G01X11550D02*
Y119000D01*
X9392Y116133D01*
X12308D01*
G01X4967Y141000D02*
Y145000D01*
X6133D01*
X6600Y144800D01*
X6950Y144533D01*
X7242Y144133D01*
X7475Y143667D01*
X7533Y143000D01*
X7475Y142333D01*
X7242Y141867D01*
X6950Y141467D01*
X6600Y141200D01*
X6133Y141000D01*
X4967D01*
G01X9067Y141800D02*
X9417Y141333D01*
X9883Y141067D01*
X10408Y141000D01*
X10875Y141067D01*
X11342Y141400D01*
X11633Y141800D01*
X11692Y142200D01*
X11575Y142667D01*
X11167Y143000D01*
X10758Y143133D01*
X10233D01*
G01X10758D02*
X11108Y143333D01*
X11400Y143667D01*
X11517Y144067D01*
X11400Y144467D01*
X11108Y144800D01*
X10583Y145000D01*
X10058Y144933D01*
X9533Y144667D01*
G01X5083Y135500D02*
Y139500D01*
X6542D01*
X7008Y139300D01*
X7300Y139033D01*
X7417Y138500D01*
X7300Y137967D01*
X6950Y137633D01*
X6542Y137433D01*
X5083D01*
G01X6542D02*
X7417Y135500D01*
G01X9067Y136300D02*
X9417Y135833D01*
X9883Y135567D01*
X10408Y135500D01*
X10875Y135567D01*
X11342Y135900D01*
X11633Y136300D01*
X11692Y136700D01*
X11575Y137167D01*
X11167Y137500D01*
X10758Y137633D01*
X10233D01*
G01X10758D02*
X11108Y137833D01*
X11400Y138167D01*
X11517Y138567D01*
X11400Y138967D01*
X11108Y139300D01*
X10583Y139500D01*
X10058Y139433D01*
X9533Y139167D01*
G01X5083Y163000D02*
Y167000D01*
X6542D01*
X7008Y166800D01*
X7300Y166533D01*
X7417Y166000D01*
X7300Y165467D01*
X6950Y165133D01*
X6542Y164933D01*
X5083D01*
G01X6542D02*
X7417Y163000D01*
G01X9242Y166333D02*
X9592Y166733D01*
X10000Y166933D01*
X10467Y167000D01*
X11050Y166867D01*
X11458Y166533D01*
X11575Y166133D01*
X11517Y165733D01*
X11283Y165400D01*
X10117Y164733D01*
X9592Y164267D01*
X9242Y163600D01*
X9125Y163000D01*
X11575D01*
G01X8033Y221667D02*
X7683Y221867D01*
X7275Y222000D01*
X6808D01*
X6283Y221800D01*
X5875Y221467D01*
X5583Y221067D01*
X5350Y220400D01*
X5292Y219800D01*
X5408Y219200D01*
X5583Y218800D01*
X5933Y218400D01*
X6342Y218133D01*
X6750Y218000D01*
X7158D01*
X7567Y218133D01*
X7917Y218333D01*
X8208Y218600D01*
G01X9567Y218800D02*
X9917Y218333D01*
X10383Y218067D01*
X10908Y218000D01*
X11375Y218067D01*
X11842Y218400D01*
X12133Y218800D01*
X12192Y219200D01*
X12075Y219667D01*
X11667Y220000D01*
X11258Y220133D01*
X10733D01*
G01X11258D02*
X11608Y220333D01*
X11900Y220667D01*
X12017Y221067D01*
X11900Y221467D01*
X11608Y221800D01*
X11083Y222000D01*
X10558Y221933D01*
X10033Y221667D01*
G01X7733Y229000D02*
Y233000D01*
X9250Y229667D01*
X10767Y233000D01*
Y229000D01*
G01X12125D02*
Y233000D01*
G01X14575D02*
Y229000D01*
G01Y231000D02*
X12125D01*
G01X17450Y229000D02*
Y233000D01*
X16750Y232200D01*
G01Y229000D02*
X18150D01*
G01X20967Y92500D02*
Y96500D01*
X22133D01*
X22600Y96300D01*
X22950Y96033D01*
X23242Y95633D01*
X23475Y95167D01*
X23533Y94500D01*
X23475Y93833D01*
X23242Y93367D01*
X22950Y92967D01*
X22600Y92700D01*
X22133Y92500D01*
X20967D01*
G01X25067Y93100D02*
X25417Y92767D01*
X25825Y92567D01*
X26350Y92500D01*
X26875Y92633D01*
X27283Y92900D01*
X27575Y93367D01*
X27633Y93900D01*
X27517Y94433D01*
X27225Y94767D01*
X26817Y95033D01*
X26408Y95100D01*
X26000Y95033D01*
X25475Y94767D01*
X25650Y96500D01*
X27225D01*
G01X36467Y98000D02*
Y95133D01*
X36700Y94533D01*
X37167Y94133D01*
X37750Y94000D01*
X38333Y94133D01*
X38800Y94533D01*
X39033Y95133D01*
Y98000D01*
G01X40742Y97333D02*
X41092Y97733D01*
X41500Y97933D01*
X41967Y98000D01*
X42550Y97867D01*
X42958Y97533D01*
X43075Y97133D01*
X43017Y96733D01*
X42783Y96400D01*
X41617Y95733D01*
X41092Y95267D01*
X40742Y94600D01*
X40625Y94000D01*
X43075D01*
G01X30033Y127167D02*
X29683Y127367D01*
X29275Y127500D01*
X28808D01*
X28283Y127300D01*
X27875Y126967D01*
X27583Y126567D01*
X27350Y125900D01*
X27292Y125300D01*
X27408Y124700D01*
X27583Y124300D01*
X27933Y123900D01*
X28342Y123633D01*
X28750Y123500D01*
X29158D01*
X29567Y123633D01*
X29917Y123833D01*
X30208Y124100D01*
G01X33550Y123500D02*
Y127500D01*
X31392Y124633D01*
X34308D01*
G01X21083Y100500D02*
Y104500D01*
X22542D01*
X23008Y104300D01*
X23300Y104033D01*
X23417Y103500D01*
X23300Y102967D01*
X22950Y102633D01*
X22542Y102433D01*
X21083D01*
G01X22542D02*
X23417Y100500D01*
G01X27050D02*
Y104500D01*
X24892Y101633D01*
X27808D01*
G01X23083Y164500D02*
Y160500D01*
X25417D01*
G01X28350D02*
Y164500D01*
X27650Y163700D01*
G01Y160500D02*
X29050D01*
G01X27583Y252300D02*
X27875Y251900D01*
X28225Y251633D01*
X28633Y251500D01*
X29100Y251633D01*
X29450Y251900D01*
X29800Y252300D01*
X29917Y252833D01*
Y255500D01*
G01X31742Y254833D02*
X32092Y255233D01*
X32500Y255433D01*
X32967Y255500D01*
X33550Y255367D01*
X33958Y255033D01*
X34075Y254633D01*
X34017Y254233D01*
X33783Y253900D01*
X32617Y253233D01*
X32092Y252767D01*
X31742Y252100D01*
X31625Y251500D01*
X34075D01*
G01X71533Y132167D02*
X71183Y132367D01*
X70775Y132500D01*
X70308D01*
X69783Y132300D01*
X69375Y131967D01*
X69083Y131567D01*
X68850Y130900D01*
X68792Y130300D01*
X68908Y129700D01*
X69083Y129300D01*
X69433Y128900D01*
X69842Y128633D01*
X70250Y128500D01*
X70658D01*
X71067Y128633D01*
X71417Y128833D01*
X71708Y129100D01*
G01X73067D02*
X73417Y128767D01*
X73825Y128567D01*
X74350Y128500D01*
X74875Y128633D01*
X75283Y128900D01*
X75575Y129367D01*
X75633Y129900D01*
X75517Y130433D01*
X75225Y130767D01*
X74817Y131033D01*
X74408Y131100D01*
X74000Y131033D01*
X73475Y130767D01*
X73650Y132500D01*
X75225D01*
G01X59033Y132167D02*
X58683Y132367D01*
X58275Y132500D01*
X57808D01*
X57283Y132300D01*
X56875Y131967D01*
X56583Y131567D01*
X56350Y130900D01*
X56292Y130300D01*
X56408Y129700D01*
X56583Y129300D01*
X56933Y128900D01*
X57342Y128633D01*
X57750Y128500D01*
X58158D01*
X58567Y128633D01*
X58917Y128833D01*
X59208Y129100D01*
G01X60742Y130167D02*
X61150Y130633D01*
X61500Y130900D01*
X61967Y131033D01*
X62375Y130900D01*
X62667Y130633D01*
X62900Y130233D01*
X62958Y129767D01*
X62900Y129367D01*
X62667Y128967D01*
X62317Y128633D01*
X61908Y128500D01*
X61442Y128633D01*
X61033Y129033D01*
X60800Y129633D01*
X60742Y130300D01*
X60858Y131167D01*
X61033Y131633D01*
X61325Y132100D01*
X61733Y132433D01*
X62142Y132500D01*
X62550Y132367D01*
X62842Y132033D01*
G01X63033Y192667D02*
X62683Y192867D01*
X62275Y193000D01*
X61808D01*
X61283Y192800D01*
X60875Y192467D01*
X60583Y192067D01*
X60350Y191400D01*
X60292Y190800D01*
X60408Y190200D01*
X60583Y189800D01*
X60933Y189400D01*
X61342Y189133D01*
X61750Y189000D01*
X62158D01*
X62567Y189133D01*
X62917Y189333D01*
X63208Y189600D01*
G01X64742Y192333D02*
X65092Y192733D01*
X65500Y192933D01*
X65967Y193000D01*
X66550Y192867D01*
X66958Y192533D01*
X67075Y192133D01*
X67017Y191733D01*
X66783Y191400D01*
X65617Y190733D01*
X65092Y190267D01*
X64742Y189600D01*
X64625Y189000D01*
X67075D01*
G01X48667D02*
Y193000D01*
X49833D01*
X50300Y192800D01*
X50650Y192533D01*
X50942Y192133D01*
X51175Y191667D01*
X51233Y191000D01*
X51175Y190333D01*
X50942Y189867D01*
X50650Y189467D01*
X50300Y189200D01*
X49833Y189000D01*
X48667D01*
G01X52942Y192333D02*
X53292Y192733D01*
X53700Y192933D01*
X54167Y193000D01*
X54750Y192867D01*
X55158Y192533D01*
X55275Y192133D01*
X55217Y191733D01*
X54983Y191400D01*
X53817Y190733D01*
X53292Y190267D01*
X52942Y189600D01*
X52825Y189000D01*
X55275D01*
G01X88033Y78667D02*
X87683Y78867D01*
X87275Y79000D01*
X86808D01*
X86283Y78800D01*
X85875Y78467D01*
X85583Y78067D01*
X85350Y77400D01*
X85292Y76800D01*
X85408Y76200D01*
X85583Y75800D01*
X85933Y75400D01*
X86342Y75133D01*
X86750Y75000D01*
X87158D01*
X87567Y75133D01*
X87917Y75333D01*
X88208Y75600D01*
G01X90850Y75000D02*
X91258Y75067D01*
X91725Y75267D01*
X92017Y75600D01*
X92133Y76067D01*
X92017Y76533D01*
X91667Y76933D01*
X91142Y77133D01*
X90558D01*
X90208Y77267D01*
X89917Y77600D01*
X89800Y78067D01*
X89975Y78533D01*
X90383Y78867D01*
X90850Y79000D01*
X91317Y78867D01*
X91725Y78533D01*
X91900Y78067D01*
X91783Y77600D01*
X91492Y77267D01*
X91142Y77133D01*
X90558D01*
X90033Y76933D01*
X89683Y76533D01*
X89567Y76067D01*
X89683Y75600D01*
X89975Y75267D01*
X90442Y75067D01*
X90850Y75000D01*
G01X100733Y97567D02*
X100383Y97767D01*
X99975Y97900D01*
X99508D01*
X98983Y97700D01*
X98575Y97367D01*
X98283Y96967D01*
X98050Y96300D01*
X97992Y95700D01*
X98108Y95100D01*
X98283Y94700D01*
X98633Y94300D01*
X99042Y94033D01*
X99450Y93900D01*
X99858D01*
X100267Y94033D01*
X100617Y94233D01*
X100908Y94500D01*
G01X102267Y94700D02*
X102617Y94233D01*
X103083Y93967D01*
X103608Y93900D01*
X104075Y93967D01*
X104542Y94300D01*
X104833Y94700D01*
X104892Y95100D01*
X104775Y95567D01*
X104367Y95900D01*
X103958Y96033D01*
X103433D01*
G01X103958D02*
X104308Y96233D01*
X104600Y96567D01*
X104717Y96967D01*
X104600Y97367D01*
X104308Y97700D01*
X103783Y97900D01*
X103258Y97833D01*
X102733Y97567D01*
G01X108350Y93900D02*
Y97900D01*
X106192Y95033D01*
X109108D01*
G01X104083Y67800D02*
X104375Y67400D01*
X104725Y67133D01*
X105133Y67000D01*
X105600Y67133D01*
X105950Y67400D01*
X106300Y67800D01*
X106417Y68333D01*
Y71000D01*
G01X109350Y67000D02*
Y71000D01*
X108650Y70200D01*
G01Y67000D02*
X110050D01*
G01X112342Y68667D02*
X112750Y69133D01*
X113100Y69400D01*
X113567Y69533D01*
X113975Y69400D01*
X114267Y69133D01*
X114500Y68733D01*
X114558Y68267D01*
X114500Y67867D01*
X114267Y67467D01*
X113917Y67133D01*
X113508Y67000D01*
X113042Y67133D01*
X112633Y67533D01*
X112400Y68133D01*
X112342Y68800D01*
X112458Y69667D01*
X112633Y70133D01*
X112925Y70600D01*
X113333Y70933D01*
X113742Y71000D01*
X114150Y70867D01*
X114442Y70533D01*
G01X87033Y117167D02*
X86683Y117367D01*
X86275Y117500D01*
X85808D01*
X85283Y117300D01*
X84875Y116967D01*
X84583Y116567D01*
X84350Y115900D01*
X84292Y115300D01*
X84408Y114700D01*
X84583Y114300D01*
X84933Y113900D01*
X85342Y113633D01*
X85750Y113500D01*
X86158D01*
X86567Y113633D01*
X86917Y113833D01*
X87208Y114100D01*
G01X89733Y113500D02*
X89850Y114367D01*
X90025Y115100D01*
X90258Y115767D01*
X90550Y116500D01*
X91017Y117500D01*
X88683D01*
G01X102733Y117067D02*
X102383Y117267D01*
X101975Y117400D01*
X101508D01*
X100983Y117200D01*
X100575Y116867D01*
X100283Y116467D01*
X100050Y115800D01*
X99992Y115200D01*
X100108Y114600D01*
X100283Y114200D01*
X100633Y113800D01*
X101042Y113533D01*
X101450Y113400D01*
X101858D01*
X102267Y113533D01*
X102617Y113733D01*
X102908Y114000D01*
G01X105550Y113400D02*
Y117400D01*
X104850Y116600D01*
G01Y113400D02*
X106250D01*
G01X108367Y114000D02*
X108717Y113667D01*
X109125Y113467D01*
X109650Y113400D01*
X110175Y113533D01*
X110583Y113800D01*
X110875Y114267D01*
X110933Y114800D01*
X110817Y115333D01*
X110525Y115667D01*
X110117Y115933D01*
X109708Y116000D01*
X109300Y115933D01*
X108775Y115667D01*
X108950Y117400D01*
X110525D01*
G01X113750D02*
X113283Y117267D01*
X112933Y116933D01*
X112700Y116533D01*
X112525Y116000D01*
X112467Y115400D01*
X112525Y114800D01*
X112700Y114267D01*
X112933Y113867D01*
X113283Y113533D01*
X113750Y113400D01*
X114217Y113533D01*
X114567Y113867D01*
X114800Y114267D01*
X114975Y114800D01*
X115033Y115400D01*
X114975Y116000D01*
X114800Y116533D01*
X114567Y116933D01*
X114217Y117267D01*
X113750Y117400D01*
G01X86583Y148133D02*
X86233Y148333D01*
X85825Y148466D01*
X85358D01*
X84833Y148266D01*
X84425Y147933D01*
X84133Y147533D01*
X83900Y146866D01*
X83842Y146266D01*
X83958Y145666D01*
X84133Y145266D01*
X84483Y144866D01*
X84892Y144599D01*
X85300Y144466D01*
X85708D01*
X86117Y144599D01*
X86467Y144799D01*
X86758Y145066D01*
G01X88292Y147799D02*
X88642Y148199D01*
X89050Y148399D01*
X89517Y148466D01*
X90100Y148333D01*
X90508Y147999D01*
X90625Y147599D01*
X90567Y147199D01*
X90333Y146866D01*
X89167Y146199D01*
X88642Y145733D01*
X88292Y145066D01*
X88175Y144466D01*
X90625D01*
G01X92392Y146133D02*
X92800Y146599D01*
X93150Y146866D01*
X93617Y146999D01*
X94025Y146866D01*
X94317Y146599D01*
X94550Y146199D01*
X94608Y145733D01*
X94550Y145333D01*
X94317Y144933D01*
X93967Y144599D01*
X93558Y144466D01*
X93092Y144599D01*
X92683Y144999D01*
X92450Y145599D01*
X92392Y146266D01*
X92508Y147133D01*
X92683Y147599D01*
X92975Y148066D01*
X93383Y148399D01*
X93792Y148466D01*
X94200Y148333D01*
X94492Y147999D01*
G01X84083Y153000D02*
Y157000D01*
X85542D01*
X86008Y156800D01*
X86300Y156533D01*
X86417Y156000D01*
X86300Y155467D01*
X85950Y155133D01*
X85542Y154933D01*
X84083D01*
G01X85542D02*
X86417Y153000D01*
G01X88067Y153600D02*
X88417Y153267D01*
X88825Y153067D01*
X89350Y153000D01*
X89875Y153133D01*
X90283Y153400D01*
X90575Y153867D01*
X90633Y154400D01*
X90517Y154933D01*
X90225Y155267D01*
X89817Y155533D01*
X89408Y155600D01*
X89000Y155533D01*
X88475Y155267D01*
X88650Y157000D01*
X90225D01*
G01X90117Y134000D02*
Y131133D01*
X90350Y130533D01*
X90817Y130133D01*
X91400Y130000D01*
X91983Y130133D01*
X92450Y130533D01*
X92683Y131133D01*
Y134000D01*
G01X95500Y130000D02*
Y134000D01*
X94800Y133200D01*
G01Y130000D02*
X96200D01*
G01X99600D02*
Y134000D01*
X98900Y133200D01*
G01Y130000D02*
X100300D01*
G01X88083Y183500D02*
Y187500D01*
X89542D01*
X90008Y187300D01*
X90300Y187033D01*
X90417Y186500D01*
X90300Y185967D01*
X89950Y185633D01*
X89542Y185433D01*
X88083D01*
G01X89542D02*
X90417Y183500D01*
G01X93350D02*
Y187500D01*
X92650Y186700D01*
G01Y183500D02*
X94050D01*
G01X84133Y158966D02*
Y162966D01*
X85592D01*
X86058Y162766D01*
X86350Y162499D01*
X86467Y161966D01*
X86350Y161433D01*
X86000Y161099D01*
X85592Y160899D01*
X84133D01*
G01X85592D02*
X86467Y158966D01*
G01X88292Y160633D02*
X88700Y161099D01*
X89050Y161366D01*
X89517Y161499D01*
X89925Y161366D01*
X90217Y161099D01*
X90450Y160699D01*
X90508Y160233D01*
X90450Y159833D01*
X90217Y159433D01*
X89867Y159099D01*
X89458Y158966D01*
X88992Y159099D01*
X88583Y159499D01*
X88350Y160099D01*
X88292Y160766D01*
X88408Y161633D01*
X88583Y162099D01*
X88875Y162566D01*
X89283Y162899D01*
X89692Y162966D01*
X90100Y162833D01*
X90392Y162499D01*
G01X90533Y192667D02*
X90183Y192867D01*
X89775Y193000D01*
X89308D01*
X88783Y192800D01*
X88375Y192467D01*
X88083Y192067D01*
X87850Y191400D01*
X87792Y190800D01*
X87908Y190200D01*
X88083Y189800D01*
X88433Y189400D01*
X88842Y189133D01*
X89250Y189000D01*
X89658D01*
X90067Y189133D01*
X90417Y189333D01*
X90708Y189600D01*
G01X93350Y189000D02*
Y193000D01*
X92650Y192200D01*
G01Y189000D02*
X94050D01*
G01X79583Y217800D02*
X79875Y217400D01*
X80225Y217133D01*
X80633Y217000D01*
X81100Y217133D01*
X81450Y217400D01*
X81800Y217800D01*
X81917Y218333D01*
Y221000D01*
G01X84850Y217000D02*
Y221000D01*
X84150Y220200D01*
G01Y217000D02*
X85550D01*
G01X80167Y237000D02*
Y241000D01*
X81333D01*
X81800Y240800D01*
X82150Y240533D01*
X82442Y240133D01*
X82675Y239667D01*
X82733Y239000D01*
X82675Y238333D01*
X82442Y237867D01*
X82150Y237467D01*
X81800Y237200D01*
X81333Y237000D01*
X80167D01*
G01X85550D02*
Y241000D01*
X84850Y240200D01*
G01Y237000D02*
X86250D01*
G01X124333Y69033D02*
X124133Y68683D01*
X124000Y68275D01*
Y67808D01*
X124200Y67283D01*
X124533Y66875D01*
X124933Y66583D01*
X125600Y66350D01*
X126200Y66292D01*
X126800Y66408D01*
X127200Y66583D01*
X127600Y66933D01*
X127867Y67342D01*
X128000Y67750D01*
Y68158D01*
X127867Y68567D01*
X127667Y68917D01*
X127400Y69208D01*
G01X128000Y71850D02*
X124000D01*
X124800Y71150D01*
G01X128000D02*
Y72550D01*
G01Y76650D02*
X124000D01*
X126867Y74492D01*
Y77408D01*
G01X128000Y80050D02*
X127933Y80458D01*
X127733Y80925D01*
X127400Y81217D01*
X126933Y81333D01*
X126467Y81217D01*
X126067Y80867D01*
X125867Y80342D01*
Y79758D01*
X125733Y79408D01*
X125400Y79117D01*
X124933Y79000D01*
X124467Y79175D01*
X124133Y79583D01*
X124000Y80050D01*
X124133Y80517D01*
X124467Y80925D01*
X124933Y81100D01*
X125400Y80983D01*
X125733Y80692D01*
X125867Y80342D01*
Y79758D01*
X126067Y79233D01*
X126467Y78883D01*
X126933Y78767D01*
X127400Y78883D01*
X127733Y79175D01*
X127933Y79642D01*
X128000Y80050D01*
G01X124967Y126000D02*
Y123133D01*
X125200Y122533D01*
X125667Y122133D01*
X126250Y122000D01*
X126833Y122133D01*
X127300Y122533D01*
X127533Y123133D01*
Y126000D01*
G01X130350Y122000D02*
Y126000D01*
X129650Y125200D01*
G01Y122000D02*
X131050D01*
G01X133342Y125333D02*
X133692Y125733D01*
X134100Y125933D01*
X134567Y126000D01*
X135150Y125867D01*
X135558Y125533D01*
X135675Y125133D01*
X135617Y124733D01*
X135383Y124400D01*
X134217Y123733D01*
X133692Y123267D01*
X133342Y122600D01*
X133225Y122000D01*
X135675D01*
G01X138250Y152500D02*
Y154300D01*
X137083Y156500D01*
G01X139417D02*
X138250Y154300D01*
G01X142350Y152500D02*
Y156500D01*
X141650Y155700D01*
G01Y152500D02*
X143050D01*
G01X132717Y144633D02*
X132950Y144833D01*
X133125Y145167D01*
X133242Y145633D01*
X133125Y146033D01*
X132892Y146300D01*
X132483Y146500D01*
X130908D01*
Y142500D01*
X132833D01*
X133242Y142767D01*
X133475Y143167D01*
X133592Y143633D01*
X133475Y144100D01*
X133125Y144500D01*
X132717Y144633D01*
X130908D01*
G01X136350Y142500D02*
Y146500D01*
X135650Y145700D01*
G01Y142500D02*
X137050D01*
G01X139533Y165167D02*
X139183Y165367D01*
X138775Y165500D01*
X138308D01*
X137783Y165300D01*
X137375Y164967D01*
X137083Y164567D01*
X136850Y163900D01*
X136792Y163300D01*
X136908Y162700D01*
X137083Y162300D01*
X137433Y161900D01*
X137842Y161633D01*
X138250Y161500D01*
X138658D01*
X139067Y161633D01*
X139417Y161833D01*
X139708Y162100D01*
G01X142350Y161500D02*
Y165500D01*
X141650Y164700D01*
G01Y161500D02*
X143050D01*
G01X147150D02*
Y165500D01*
X144992Y162633D01*
X147908D01*
G01X122133Y168466D02*
Y172466D01*
X123592D01*
X124058Y172266D01*
X124350Y171999D01*
X124467Y171466D01*
X124350Y170933D01*
X124000Y170599D01*
X123592Y170399D01*
X122133D01*
G01X123592D02*
X124467Y168466D01*
G01X126292Y171799D02*
X126642Y172199D01*
X127050Y172399D01*
X127517Y172466D01*
X128100Y172333D01*
X128508Y171999D01*
X128625Y171599D01*
X128567Y171199D01*
X128333Y170866D01*
X127167Y170199D01*
X126642Y169733D01*
X126292Y169066D01*
X126175Y168466D01*
X128625D01*
G01X130392Y170133D02*
X130800Y170599D01*
X131150Y170866D01*
X131617Y170999D01*
X132025Y170866D01*
X132317Y170599D01*
X132550Y170199D01*
X132608Y169733D01*
X132550Y169333D01*
X132317Y168933D01*
X131967Y168599D01*
X131558Y168466D01*
X131092Y168599D01*
X130683Y168999D01*
X130450Y169599D01*
X130392Y170266D01*
X130508Y171133D01*
X130683Y171599D01*
X130975Y172066D01*
X131383Y172399D01*
X131792Y172466D01*
X132200Y172333D01*
X132492Y171999D01*
G01X108133Y168466D02*
Y172466D01*
X109592D01*
X110058Y172266D01*
X110350Y171999D01*
X110467Y171466D01*
X110350Y170933D01*
X110000Y170599D01*
X109592Y170399D01*
X108133D01*
G01X109592D02*
X110467Y168466D01*
G01X112292Y171799D02*
X112642Y172199D01*
X113050Y172399D01*
X113517Y172466D01*
X114100Y172333D01*
X114508Y171999D01*
X114625Y171599D01*
X114567Y171199D01*
X114333Y170866D01*
X113167Y170199D01*
X112642Y169733D01*
X112292Y169066D01*
X112175Y168466D01*
X114625D01*
G01X117383D02*
X117500Y169333D01*
X117675Y170066D01*
X117908Y170733D01*
X118200Y171466D01*
X118667Y172466D01*
X116333D01*
G01X160034Y39633D02*
X156034D01*
Y41092D01*
X156234Y41558D01*
X156501Y41850D01*
X157034Y41967D01*
X157567Y41850D01*
X157901Y41500D01*
X158101Y41092D01*
Y39633D01*
G01Y41092D02*
X160034Y41967D01*
G01X156701Y43792D02*
X156301Y44142D01*
X156101Y44550D01*
X156034Y45017D01*
X156167Y45600D01*
X156501Y46008D01*
X156901Y46125D01*
X157301Y46067D01*
X157634Y45833D01*
X158301Y44667D01*
X158767Y44142D01*
X159434Y43792D01*
X160034Y43675D01*
Y46125D01*
G01Y49000D02*
X156034D01*
X156834Y48300D01*
G01X160034D02*
Y49700D01*
G01X166500Y39467D02*
X162500D01*
Y40633D01*
X162700Y41100D01*
X162967Y41450D01*
X163367Y41742D01*
X163833Y41975D01*
X164500Y42033D01*
X165167Y41975D01*
X165633Y41742D01*
X166033Y41450D01*
X166300Y41100D01*
X166500Y40633D01*
Y39467D01*
G01Y44850D02*
X162500D01*
X163300Y44150D01*
G01X166500D02*
Y45550D01*
G01X164833Y47842D02*
X164367Y48250D01*
X164100Y48600D01*
X163967Y49067D01*
X164100Y49475D01*
X164367Y49767D01*
X164767Y50000D01*
X165233Y50058D01*
X165633Y50000D01*
X166033Y49767D01*
X166367Y49417D01*
X166500Y49008D01*
X166367Y48542D01*
X165967Y48133D01*
X165367Y47900D01*
X164700Y47842D01*
X163833Y47958D01*
X163367Y48133D01*
X162900Y48425D01*
X162567Y48833D01*
X162500Y49242D01*
X162633Y49650D01*
X162967Y49942D01*
G01X150333Y69033D02*
X150133Y68683D01*
X150000Y68275D01*
Y67808D01*
X150200Y67283D01*
X150533Y66875D01*
X150933Y66583D01*
X151600Y66350D01*
X152200Y66292D01*
X152800Y66408D01*
X153200Y66583D01*
X153600Y66933D01*
X153867Y67342D01*
X154000Y67750D01*
Y68158D01*
X153867Y68567D01*
X153667Y68917D01*
X153400Y69208D01*
G01X153200Y70567D02*
X153667Y70917D01*
X153933Y71383D01*
X154000Y71908D01*
X153933Y72375D01*
X153600Y72842D01*
X153200Y73133D01*
X152800Y73192D01*
X152333Y73075D01*
X152000Y72667D01*
X151867Y72258D01*
Y71733D01*
G01Y72258D02*
X151667Y72608D01*
X151333Y72900D01*
X150933Y73017D01*
X150533Y72900D01*
X150200Y72608D01*
X150000Y72083D01*
X150067Y71558D01*
X150333Y71033D01*
G01X153400Y74667D02*
X153733Y75017D01*
X153933Y75425D01*
X154000Y75950D01*
X153867Y76475D01*
X153600Y76883D01*
X153133Y77175D01*
X152600Y77233D01*
X152067Y77117D01*
X151733Y76825D01*
X151467Y76417D01*
X151400Y76008D01*
X151467Y75600D01*
X151733Y75075D01*
X150000Y75250D01*
Y76825D01*
G01X138333Y69033D02*
X138133Y68683D01*
X138000Y68275D01*
Y67808D01*
X138200Y67283D01*
X138533Y66875D01*
X138933Y66583D01*
X139600Y66350D01*
X140200Y66292D01*
X140800Y66408D01*
X141200Y66583D01*
X141600Y66933D01*
X141867Y67342D01*
X142000Y67750D01*
Y68158D01*
X141867Y68567D01*
X141667Y68917D01*
X141400Y69208D01*
G01X142000Y71850D02*
X138000D01*
X138800Y71150D01*
G01X142000D02*
Y72550D01*
G01Y76650D02*
X138000D01*
X140867Y74492D01*
Y77408D01*
G01X141533Y79058D02*
X141867Y79467D01*
X142000Y79933D01*
X141867Y80400D01*
X141467Y80808D01*
X140867Y81100D01*
X140267Y81217D01*
X139533D01*
X138933Y81100D01*
X138400Y80808D01*
X138133Y80458D01*
X138000Y80050D01*
X138133Y79583D01*
X138400Y79233D01*
X138800Y79000D01*
X139333Y78883D01*
X139800Y79000D01*
X140267Y79292D01*
X140533Y79642D01*
X140600Y80050D01*
X140467Y80517D01*
X140133Y80867D01*
X139533Y81217D01*
G01X168533Y127167D02*
X168183Y127367D01*
X167775Y127500D01*
X167308D01*
X166783Y127300D01*
X166375Y126967D01*
X166083Y126567D01*
X165850Y125900D01*
X165792Y125300D01*
X165908Y124700D01*
X166083Y124300D01*
X166433Y123900D01*
X166842Y123633D01*
X167250Y123500D01*
X167658D01*
X168067Y123633D01*
X168417Y123833D01*
X168708Y124100D01*
G01X171350Y123500D02*
Y127500D01*
X170650Y126700D01*
G01Y123500D02*
X172050D01*
G01X175450Y127500D02*
X174983Y127367D01*
X174633Y127033D01*
X174400Y126633D01*
X174225Y126100D01*
X174167Y125500D01*
X174225Y124900D01*
X174400Y124367D01*
X174633Y123967D01*
X174983Y123633D01*
X175450Y123500D01*
X175917Y123633D01*
X176267Y123967D01*
X176500Y124367D01*
X176675Y124900D01*
X176733Y125500D01*
X176675Y126100D01*
X176500Y126633D01*
X176267Y127033D01*
X175917Y127367D01*
X175450Y127500D01*
G01X149333Y125033D02*
X149133Y124683D01*
X149000Y124275D01*
Y123808D01*
X149200Y123283D01*
X149533Y122875D01*
X149933Y122583D01*
X150600Y122350D01*
X151200Y122292D01*
X151800Y122408D01*
X152200Y122583D01*
X152600Y122933D01*
X152867Y123342D01*
X153000Y123750D01*
Y124158D01*
X152867Y124567D01*
X152667Y124917D01*
X152400Y125208D01*
G01X153000Y127850D02*
X149000D01*
X149800Y127150D01*
G01X153000D02*
Y128550D01*
G01Y131950D02*
X152933Y132358D01*
X152733Y132825D01*
X152400Y133117D01*
X151933Y133233D01*
X151467Y133117D01*
X151067Y132767D01*
X150867Y132242D01*
Y131658D01*
X150733Y131308D01*
X150400Y131017D01*
X149933Y130900D01*
X149467Y131075D01*
X149133Y131483D01*
X149000Y131950D01*
X149133Y132417D01*
X149467Y132825D01*
X149933Y133000D01*
X150400Y132883D01*
X150733Y132592D01*
X150867Y132242D01*
Y131658D01*
X151067Y131133D01*
X151467Y130783D01*
X151933Y130667D01*
X152400Y130783D01*
X152733Y131075D01*
X152933Y131542D01*
X153000Y131950D01*
G01X166583Y118000D02*
Y122000D01*
X168042D01*
X168508Y121800D01*
X168800Y121533D01*
X168917Y121000D01*
X168800Y120467D01*
X168450Y120133D01*
X168042Y119933D01*
X166583D01*
G01X168042D02*
X168917Y118000D01*
G01X171850D02*
Y122000D01*
X171150Y121200D01*
G01Y118000D02*
X172550D01*
G01X174842Y121333D02*
X175192Y121733D01*
X175600Y121933D01*
X176067Y122000D01*
X176650Y121867D01*
X177058Y121533D01*
X177175Y121133D01*
X177117Y120733D01*
X176883Y120400D01*
X175717Y119733D01*
X175192Y119267D01*
X174842Y118600D01*
X174725Y118000D01*
X177175D01*
G01X168533Y132667D02*
X168183Y132867D01*
X167775Y133000D01*
X167308D01*
X166783Y132800D01*
X166375Y132467D01*
X166083Y132067D01*
X165850Y131400D01*
X165792Y130800D01*
X165908Y130200D01*
X166083Y129800D01*
X166433Y129400D01*
X166842Y129133D01*
X167250Y129000D01*
X167658D01*
X168067Y129133D01*
X168417Y129333D01*
X168708Y129600D01*
G01X171350Y129000D02*
Y133000D01*
X170650Y132200D01*
G01Y129000D02*
X172050D01*
G01X174167Y129600D02*
X174517Y129267D01*
X174925Y129067D01*
X175450Y129000D01*
X175975Y129133D01*
X176383Y129400D01*
X176675Y129867D01*
X176733Y130400D01*
X176617Y130933D01*
X176325Y131267D01*
X175917Y131533D01*
X175508Y131600D01*
X175100Y131533D01*
X174575Y131267D01*
X174750Y133000D01*
X176325D01*
G01X150591Y200741D02*
X150292Y200890D01*
X149944Y200990D01*
X149545D01*
X149096Y200840D01*
X148748Y200591D01*
X148498Y200292D01*
X148299Y199794D01*
X148249Y199345D01*
X148349Y198897D01*
X148498Y198598D01*
X148797Y198299D01*
X149146Y198100D01*
X149495Y198000D01*
X149844D01*
X150193Y198100D01*
X150492Y198249D01*
X150741Y198448D01*
G01X153465Y198000D02*
Y200990D01*
X152867Y200392D01*
G01Y198000D02*
X154063D01*
G01X156339Y198448D02*
X156638Y198199D01*
X156986Y198050D01*
X157435Y198000D01*
X157884Y198100D01*
X158232Y198299D01*
X158482Y198648D01*
X158531Y199046D01*
X158432Y199445D01*
X158182Y199694D01*
X157834Y199894D01*
X157485Y199943D01*
X157136Y199894D01*
X156688Y199694D01*
X156837Y200990D01*
X158182D01*
G01X161405Y198000D02*
Y200990D01*
X160807Y200392D01*
G01Y198000D02*
X162003D01*
G01X150591Y196741D02*
X150292Y196890D01*
X149944Y196990D01*
X149545D01*
X149096Y196840D01*
X148748Y196591D01*
X148498Y196292D01*
X148299Y195794D01*
X148249Y195345D01*
X148349Y194897D01*
X148498Y194598D01*
X148797Y194299D01*
X149146Y194100D01*
X149495Y194000D01*
X149844D01*
X150193Y194100D01*
X150492Y194249D01*
X150741Y194448D01*
G01X153465Y194000D02*
Y196990D01*
X152867Y196392D01*
G01Y194000D02*
X154063D01*
G01X156339Y194448D02*
X156638Y194199D01*
X156986Y194050D01*
X157435Y194000D01*
X157884Y194100D01*
X158232Y194299D01*
X158482Y194648D01*
X158531Y195046D01*
X158432Y195445D01*
X158182Y195694D01*
X157834Y195894D01*
X157485Y195943D01*
X157136Y195894D01*
X156688Y195694D01*
X156837Y196990D01*
X158182D01*
G01X160458Y196492D02*
X160757Y196791D01*
X161106Y196940D01*
X161505Y196990D01*
X162003Y196890D01*
X162352Y196641D01*
X162452Y196342D01*
X162402Y196043D01*
X162202Y195794D01*
X161206Y195296D01*
X160757Y194947D01*
X160458Y194448D01*
X160358Y194000D01*
X162452D01*
G01X170083Y4300D02*
X170375Y3900D01*
X170725Y3633D01*
X171133Y3500D01*
X171600Y3633D01*
X171950Y3900D01*
X172300Y4300D01*
X172417Y4833D01*
Y7500D01*
G01X175350Y3500D02*
Y7500D01*
X174650Y6700D01*
G01Y3500D02*
X176050D01*
G01X178342Y6833D02*
X178692Y7233D01*
X179100Y7433D01*
X179567Y7500D01*
X180150Y7367D01*
X180558Y7033D01*
X180675Y6633D01*
X180617Y6233D01*
X180383Y5900D01*
X179217Y5233D01*
X178692Y4767D01*
X178342Y4100D01*
X178225Y3500D01*
X180675D01*
G01X172467Y77000D02*
Y74133D01*
X172700Y73533D01*
X173167Y73133D01*
X173750Y73000D01*
X174333Y73133D01*
X174800Y73533D01*
X175033Y74133D01*
Y77000D01*
G01X176858Y73467D02*
X177267Y73133D01*
X177733Y73000D01*
X178200Y73133D01*
X178608Y73533D01*
X178900Y74133D01*
X179017Y74733D01*
Y75467D01*
X178900Y76067D01*
X178608Y76600D01*
X178258Y76867D01*
X177850Y77000D01*
X177383Y76867D01*
X177033Y76600D01*
X176800Y76200D01*
X176683Y75667D01*
X176800Y75200D01*
X177092Y74733D01*
X177442Y74467D01*
X177850Y74400D01*
X178317Y74533D01*
X178667Y74867D01*
X179017Y75467D01*
G01X178967Y174000D02*
Y171133D01*
X179200Y170533D01*
X179667Y170133D01*
X180250Y170000D01*
X180833Y170133D01*
X181300Y170533D01*
X181533Y171133D01*
Y174000D01*
G01X183067Y170800D02*
X183417Y170333D01*
X183883Y170067D01*
X184408Y170000D01*
X184875Y170067D01*
X185342Y170400D01*
X185633Y170800D01*
X185692Y171200D01*
X185575Y171667D01*
X185167Y172000D01*
X184758Y172133D01*
X184233D01*
G01X184758D02*
X185108Y172333D01*
X185400Y172667D01*
X185517Y173067D01*
X185400Y173467D01*
X185108Y173800D01*
X184583Y174000D01*
X184058Y173933D01*
X183533Y173667D01*
G01X194083Y234800D02*
X194375Y234400D01*
X194725Y234133D01*
X195133Y234000D01*
X195600Y234133D01*
X195950Y234400D01*
X196300Y234800D01*
X196417Y235333D01*
Y238000D01*
G01X198067Y234800D02*
X198417Y234333D01*
X198883Y234067D01*
X199408Y234000D01*
X199875Y234067D01*
X200342Y234400D01*
X200633Y234800D01*
X200692Y235200D01*
X200575Y235667D01*
X200167Y236000D01*
X199758Y236133D01*
X199233D01*
G01X199758D02*
X200108Y236333D01*
X200400Y236667D01*
X200517Y237067D01*
X200400Y237467D01*
X200108Y237800D01*
X199583Y238000D01*
X199058Y237933D01*
X198533Y237667D01*
G01X211583Y4300D02*
X211875Y3900D01*
X212225Y3633D01*
X212633Y3500D01*
X213100Y3633D01*
X213450Y3900D01*
X213800Y4300D01*
X213917Y4833D01*
Y7500D01*
G01X216850Y3500D02*
Y7500D01*
X216150Y6700D01*
G01Y3500D02*
X217550D01*
G01X220950Y7500D02*
X220483Y7367D01*
X220133Y7033D01*
X219900Y6633D01*
X219725Y6100D01*
X219667Y5500D01*
X219725Y4900D01*
X219900Y4367D01*
X220133Y3967D01*
X220483Y3633D01*
X220950Y3500D01*
X221417Y3633D01*
X221767Y3967D01*
X222000Y4367D01*
X222175Y4900D01*
X222233Y5500D01*
X222175Y6100D01*
X222000Y6633D01*
X221767Y7033D01*
X221417Y7367D01*
X220950Y7500D01*
G01X209500Y40583D02*
X205500D01*
Y42042D01*
X205700Y42508D01*
X205967Y42800D01*
X206500Y42917D01*
X207033Y42800D01*
X207367Y42450D01*
X207567Y42042D01*
Y40583D01*
G01Y42042D02*
X209500Y42917D01*
G01Y45850D02*
X205500D01*
X206300Y45150D01*
G01X209500D02*
Y46550D01*
G01X209033Y48958D02*
X209367Y49367D01*
X209500Y49833D01*
X209367Y50300D01*
X208967Y50708D01*
X208367Y51000D01*
X207767Y51117D01*
X207033D01*
X206433Y51000D01*
X205900Y50708D01*
X205633Y50358D01*
X205500Y49950D01*
X205633Y49483D01*
X205900Y49133D01*
X206300Y48900D01*
X206833Y48783D01*
X207300Y48900D01*
X207767Y49192D01*
X208033Y49542D01*
X208100Y49950D01*
X207967Y50417D01*
X207633Y50767D01*
X207033Y51117D01*
G01X214500Y40467D02*
X210500D01*
Y41633D01*
X210700Y42100D01*
X210967Y42450D01*
X211367Y42742D01*
X211833Y42975D01*
X212500Y43033D01*
X213167Y42975D01*
X213633Y42742D01*
X214033Y42450D01*
X214300Y42100D01*
X214500Y41633D01*
Y40467D01*
G01Y45850D02*
X210500D01*
X211300Y45150D01*
G01X214500D02*
Y46550D01*
G01Y50650D02*
X210500D01*
X213367Y48492D01*
Y51408D01*
G01X216967Y77000D02*
Y74133D01*
X217200Y73533D01*
X217667Y73133D01*
X218250Y73000D01*
X218833Y73133D01*
X219300Y73533D01*
X219533Y74133D01*
Y77000D01*
G01X222350Y73000D02*
X222758Y73067D01*
X223225Y73267D01*
X223517Y73600D01*
X223633Y74067D01*
X223517Y74533D01*
X223167Y74933D01*
X222642Y75133D01*
X222058D01*
X221708Y75267D01*
X221417Y75600D01*
X221300Y76067D01*
X221475Y76533D01*
X221883Y76867D01*
X222350Y77000D01*
X222817Y76867D01*
X223225Y76533D01*
X223400Y76067D01*
X223283Y75600D01*
X222992Y75267D01*
X222642Y75133D01*
X222058D01*
X221533Y74933D01*
X221183Y74533D01*
X221067Y74067D01*
X221183Y73600D01*
X221475Y73267D01*
X221942Y73067D01*
X222350Y73000D01*
G01X226000Y100498D02*
X223010D01*
Y101744D01*
X223160Y102143D01*
X223359Y102392D01*
X223758Y102492D01*
X224156Y102392D01*
X224405Y102093D01*
X224555Y101744D01*
Y100498D01*
G01Y101744D02*
X226000Y102492D01*
G01X223508Y104518D02*
X223209Y104817D01*
X223060Y105166D01*
X223010Y105565D01*
X223110Y106063D01*
X223359Y106412D01*
X223658Y106512D01*
X223957Y106462D01*
X224206Y106262D01*
X224704Y105266D01*
X225053Y104817D01*
X225552Y104518D01*
X226000Y104418D01*
Y106512D01*
G01X225651Y108588D02*
X225900Y108937D01*
X226000Y109335D01*
X225900Y109734D01*
X225601Y110083D01*
X225153Y110332D01*
X224704Y110432D01*
X224156D01*
X223708Y110332D01*
X223309Y110083D01*
X223110Y109784D01*
X223010Y109435D01*
X223110Y109036D01*
X223309Y108737D01*
X223608Y108538D01*
X224007Y108438D01*
X224355Y108538D01*
X224704Y108787D01*
X224904Y109086D01*
X224954Y109435D01*
X224854Y109834D01*
X224605Y110133D01*
X224156Y110432D01*
G01X209667Y114000D02*
Y111133D01*
X209900Y110533D01*
X210367Y110133D01*
X210950Y110000D01*
X211533Y110133D01*
X212000Y110533D01*
X212233Y111133D01*
Y114000D01*
G01X214933Y110000D02*
X215050Y110867D01*
X215225Y111600D01*
X215458Y112267D01*
X215750Y113000D01*
X216217Y114000D01*
X213883D01*
G01X219533Y130167D02*
X219183Y130367D01*
X218775Y130500D01*
X218308D01*
X217783Y130300D01*
X217375Y129967D01*
X217083Y129567D01*
X216850Y128900D01*
X216792Y128300D01*
X216908Y127700D01*
X217083Y127300D01*
X217433Y126900D01*
X217842Y126633D01*
X218250Y126500D01*
X218658D01*
X219067Y126633D01*
X219417Y126833D01*
X219708Y127100D01*
G01X222350Y126500D02*
Y130500D01*
X221650Y129700D01*
G01Y126500D02*
X223050D01*
G01X225342Y129833D02*
X225692Y130233D01*
X226100Y130433D01*
X226567Y130500D01*
X227150Y130367D01*
X227558Y130033D01*
X227675Y129633D01*
X227617Y129233D01*
X227383Y128900D01*
X226217Y128233D01*
X225692Y127767D01*
X225342Y127100D01*
X225225Y126500D01*
X227675D01*
G01X228533Y156667D02*
X228183Y156867D01*
X227775Y157000D01*
X227308D01*
X226783Y156800D01*
X226375Y156467D01*
X226083Y156067D01*
X225850Y155400D01*
X225792Y154800D01*
X225908Y154200D01*
X226083Y153800D01*
X226433Y153400D01*
X226842Y153133D01*
X227250Y153000D01*
X227658D01*
X228067Y153133D01*
X228417Y153333D01*
X228708Y153600D01*
G01X231350Y153000D02*
Y157000D01*
X230650Y156200D01*
G01Y153000D02*
X232050D01*
G01X234167Y153800D02*
X234517Y153333D01*
X234983Y153067D01*
X235508Y153000D01*
X235975Y153067D01*
X236442Y153400D01*
X236733Y153800D01*
X236792Y154200D01*
X236675Y154667D01*
X236267Y155000D01*
X235858Y155133D01*
X235333D01*
G01X235858D02*
X236208Y155333D01*
X236500Y155667D01*
X236617Y156067D01*
X236500Y156467D01*
X236208Y156800D01*
X235683Y157000D01*
X235158Y156933D01*
X234633Y156667D01*
G01X230500Y182083D02*
X226500D01*
Y183542D01*
X226700Y184008D01*
X226967Y184300D01*
X227500Y184417D01*
X228033Y184300D01*
X228367Y183950D01*
X228567Y183542D01*
Y182083D01*
G01Y183542D02*
X230500Y184417D01*
G01Y187350D02*
X226500D01*
X227300Y186650D01*
G01X230500D02*
Y188050D01*
G01X226500Y191450D02*
X226633Y190983D01*
X226967Y190633D01*
X227367Y190400D01*
X227900Y190225D01*
X228500Y190167D01*
X229100Y190225D01*
X229633Y190400D01*
X230033Y190633D01*
X230367Y190983D01*
X230500Y191450D01*
X230367Y191917D01*
X230033Y192267D01*
X229633Y192500D01*
X229100Y192675D01*
X228500Y192733D01*
X227900Y192675D01*
X227367Y192500D01*
X226967Y192267D01*
X226633Y191917D01*
X226500Y191450D01*
G01X224500Y182083D02*
X220500D01*
Y183542D01*
X220700Y184008D01*
X220967Y184300D01*
X221500Y184417D01*
X222033Y184300D01*
X222367Y183950D01*
X222567Y183542D01*
Y182083D01*
G01Y183542D02*
X224500Y184417D01*
G01Y187350D02*
X220500D01*
X221300Y186650D01*
G01X224500D02*
Y188050D01*
G01Y191450D02*
X220500D01*
X221300Y190750D01*
G01X224500D02*
Y192150D01*
G01X218500Y182083D02*
X214500D01*
Y183542D01*
X214700Y184008D01*
X214967Y184300D01*
X215500Y184417D01*
X216033Y184300D01*
X216367Y183950D01*
X216567Y183542D01*
Y182083D01*
G01Y183542D02*
X218500Y184417D01*
G01Y187233D02*
X217633Y187350D01*
X216900Y187525D01*
X216233Y187758D01*
X215500Y188050D01*
X214500Y188517D01*
Y186183D01*
G01X226500Y200967D02*
X222500D01*
Y202133D01*
X222700Y202600D01*
X222967Y202950D01*
X223367Y203242D01*
X223833Y203475D01*
X224500Y203533D01*
X225167Y203475D01*
X225633Y203242D01*
X226033Y202950D01*
X226300Y202600D01*
X226500Y202133D01*
Y200967D01*
G01Y206350D02*
X226433Y206758D01*
X226233Y207225D01*
X225900Y207517D01*
X225433Y207633D01*
X224967Y207517D01*
X224567Y207167D01*
X224367Y206642D01*
Y206058D01*
X224233Y205708D01*
X223900Y205417D01*
X223433Y205300D01*
X222967Y205475D01*
X222633Y205883D01*
X222500Y206350D01*
X222633Y206817D01*
X222967Y207225D01*
X223433Y207400D01*
X223900Y207283D01*
X224233Y206992D01*
X224367Y206642D01*
Y206058D01*
X224567Y205533D01*
X224967Y205183D01*
X225433Y205067D01*
X225900Y205183D01*
X226233Y205475D01*
X226433Y205942D01*
X226500Y206350D01*
G01X220500Y200967D02*
X216500D01*
Y202133D01*
X216700Y202600D01*
X216967Y202950D01*
X217367Y203242D01*
X217833Y203475D01*
X218500Y203533D01*
X219167Y203475D01*
X219633Y203242D01*
X220033Y202950D01*
X220300Y202600D01*
X220500Y202133D01*
Y200967D01*
G01X220033Y205358D02*
X220367Y205767D01*
X220500Y206233D01*
X220367Y206700D01*
X219967Y207108D01*
X219367Y207400D01*
X218767Y207517D01*
X218033D01*
X217433Y207400D01*
X216900Y207108D01*
X216633Y206758D01*
X216500Y206350D01*
X216633Y205883D01*
X216900Y205533D01*
X217300Y205300D01*
X217833Y205183D01*
X218300Y205300D01*
X218767Y205592D01*
X219033Y205942D01*
X219100Y206350D01*
X218967Y206817D01*
X218633Y207167D01*
X218033Y207517D01*
G01X206467Y222800D02*
X206817Y222333D01*
X207283Y222067D01*
X207808Y222000D01*
X208275Y222067D01*
X208742Y222400D01*
X209033Y222800D01*
X209092Y223200D01*
X208975Y223667D01*
X208567Y224000D01*
X208158Y224133D01*
X207633D01*
G01X208158D02*
X208508Y224333D01*
X208800Y224667D01*
X208917Y225067D01*
X208800Y225467D01*
X208508Y225800D01*
X207983Y226000D01*
X207458Y225933D01*
X206933Y225667D01*
G01X210392Y226000D02*
X211850Y222000D01*
X213308Y226000D01*
G01X218183Y224333D02*
X217775Y224600D01*
X217425Y224667D01*
X216958Y224533D01*
X216608Y224267D01*
X216375Y223800D01*
X216317Y223333D01*
X216375Y222867D01*
X216608Y222467D01*
X216958Y222133D01*
X217425Y222000D01*
X217833Y222133D01*
X218183Y222400D01*
G01X220358Y222000D02*
Y226000D01*
G01X222225Y224667D02*
X220358Y223133D01*
G01X221117Y223733D02*
X222342Y222000D01*
G01X226433Y221000D02*
X226842Y220733D01*
X227308Y220667D01*
X227717Y220733D01*
X228067Y221067D01*
X228300Y221533D01*
Y224667D01*
G01Y224133D02*
X228067Y224400D01*
X227717Y224600D01*
X227308Y224667D01*
X226842Y224533D01*
X226550Y224267D01*
X226317Y223800D01*
X226200Y223333D01*
X226258Y222933D01*
X226492Y222467D01*
X226842Y222133D01*
X227308Y222000D01*
X227658Y222067D01*
X228067Y222333D01*
X228300Y222600D01*
G01X232400Y226000D02*
Y222000D01*
G01Y222600D02*
X232167Y222267D01*
X231817Y222067D01*
X231408Y222000D01*
X230942Y222133D01*
X230592Y222467D01*
X230358Y222867D01*
X230300Y223333D01*
X230358Y223800D01*
X230592Y224200D01*
X230942Y224533D01*
X231408Y224667D01*
X231817Y224600D01*
X232108Y224467D01*
X232400Y224200D01*
G01X204050Y252000D02*
X205450D01*
G01X204750D02*
Y248000D01*
G01X204050D02*
X205450D01*
G01X208850D02*
X208500Y248067D01*
X208150Y248333D01*
X207917Y248800D01*
X207800Y249333D01*
X207917Y249867D01*
X208150Y250333D01*
X208500Y250600D01*
X208850Y250667D01*
X209200Y250600D01*
X209550Y250333D01*
X209783Y249867D01*
X209842Y249333D01*
X209783Y248800D01*
X209550Y248333D01*
X209200Y248067D01*
X208850Y248000D01*
G01X212950Y252000D02*
Y248000D01*
G01X211608Y252000D02*
X214292D01*
G01X219808Y248000D02*
Y252000D01*
X222492Y248000D01*
Y252000D01*
G01X225250Y248000D02*
X224900Y248067D01*
X224550Y248333D01*
X224317Y248800D01*
X224200Y249333D01*
X224317Y249867D01*
X224550Y250333D01*
X224900Y250600D01*
X225250Y250667D01*
X225600Y250600D01*
X225950Y250333D01*
X226183Y249867D01*
X226242Y249333D01*
X226183Y248800D01*
X225950Y248333D01*
X225600Y248067D01*
X225250Y248000D01*
G01X230400Y252000D02*
Y248000D01*
G01Y248600D02*
X230167Y248267D01*
X229817Y248067D01*
X229408Y248000D01*
X228942Y248133D01*
X228592Y248467D01*
X228358Y248867D01*
X228300Y249333D01*
X228358Y249800D01*
X228592Y250200D01*
X228942Y250533D01*
X229408Y250667D01*
X229817Y250600D01*
X230108Y250467D01*
X230400Y250200D01*
G01X232575Y249800D02*
X234442D01*
X234267Y250267D01*
X233975Y250533D01*
X233567Y250667D01*
X233158Y250600D01*
X232808Y250400D01*
X232575Y249933D01*
X232458Y249533D01*
Y249133D01*
X232575Y248733D01*
X232867Y248333D01*
X233217Y248067D01*
X233625Y248000D01*
X234033Y248133D01*
X234442Y248533D01*
G01X240600Y250667D02*
X241650Y248000D01*
X242700Y250667D01*
G01X244642Y251333D02*
X244992Y251733D01*
X245400Y251933D01*
X245867Y252000D01*
X246450Y251867D01*
X246858Y251533D01*
X246975Y251133D01*
X246917Y250733D01*
X246683Y250400D01*
X245517Y249733D01*
X244992Y249267D01*
X244642Y248600D01*
X244525Y248000D01*
X246975D01*
G01X249733Y247267D02*
X249967Y248133D01*
G01X253950Y252000D02*
X253483Y251867D01*
X253133Y251533D01*
X252900Y251133D01*
X252725Y250600D01*
X252667Y250000D01*
X252725Y249400D01*
X252900Y248867D01*
X253133Y248467D01*
X253483Y248133D01*
X253950Y248000D01*
X254417Y248133D01*
X254767Y248467D01*
X255000Y248867D01*
X255175Y249400D01*
X255233Y250000D01*
X255175Y250600D01*
X255000Y251133D01*
X254767Y251533D01*
X254417Y251867D01*
X253950Y252000D01*
G01X250583Y4300D02*
X250875Y3900D01*
X251225Y3633D01*
X251633Y3500D01*
X252100Y3633D01*
X252450Y3900D01*
X252800Y4300D01*
X252917Y4833D01*
Y7500D01*
G01X255850Y3500D02*
X256258Y3567D01*
X256725Y3767D01*
X257017Y4100D01*
X257133Y4567D01*
X257017Y5033D01*
X256667Y5433D01*
X256142Y5633D01*
X255558D01*
X255208Y5767D01*
X254917Y6100D01*
X254800Y6567D01*
X254975Y7033D01*
X255383Y7367D01*
X255850Y7500D01*
X256317Y7367D01*
X256725Y7033D01*
X256900Y6567D01*
X256783Y6100D01*
X256492Y5767D01*
X256142Y5633D01*
X255558D01*
X255033Y5433D01*
X254683Y5033D01*
X254567Y4567D01*
X254683Y4100D01*
X254975Y3767D01*
X255442Y3567D01*
X255850Y3500D01*
G01X253000Y40583D02*
X249000D01*
Y42042D01*
X249200Y42508D01*
X249467Y42800D01*
X250000Y42917D01*
X250533Y42800D01*
X250867Y42450D01*
X251067Y42042D01*
Y40583D01*
G01Y42042D02*
X253000Y42917D01*
G01Y45850D02*
X249000D01*
X249800Y45150D01*
G01X253000D02*
Y46550D01*
G01Y49950D02*
X252933Y50358D01*
X252733Y50825D01*
X252400Y51117D01*
X251933Y51233D01*
X251467Y51117D01*
X251067Y50767D01*
X250867Y50242D01*
Y49658D01*
X250733Y49308D01*
X250400Y49017D01*
X249933Y48900D01*
X249467Y49075D01*
X249133Y49483D01*
X249000Y49950D01*
X249133Y50417D01*
X249467Y50825D01*
X249933Y51000D01*
X250400Y50883D01*
X250733Y50592D01*
X250867Y50242D01*
Y49658D01*
X251067Y49133D01*
X251467Y48783D01*
X251933Y48667D01*
X252400Y48783D01*
X252733Y49075D01*
X252933Y49542D01*
X253000Y49950D01*
G01X258000Y40467D02*
X254000D01*
Y41633D01*
X254200Y42100D01*
X254467Y42450D01*
X254867Y42742D01*
X255333Y42975D01*
X256000Y43033D01*
X256667Y42975D01*
X257133Y42742D01*
X257533Y42450D01*
X257800Y42100D01*
X258000Y41633D01*
Y40467D01*
G01Y45850D02*
X254000D01*
X254800Y45150D01*
G01X258000D02*
Y46550D01*
G01X254667Y48842D02*
X254267Y49192D01*
X254067Y49600D01*
X254000Y50067D01*
X254133Y50650D01*
X254467Y51058D01*
X254867Y51175D01*
X255267Y51117D01*
X255600Y50883D01*
X256267Y49717D01*
X256733Y49192D01*
X257400Y48842D01*
X258000Y48725D01*
Y51175D01*
G01X252583Y86800D02*
X252875Y86400D01*
X253225Y86133D01*
X253633Y86000D01*
X254100Y86133D01*
X254450Y86400D01*
X254800Y86800D01*
X254917Y87333D01*
Y90000D01*
G01X258550Y86000D02*
Y90000D01*
X256392Y87133D01*
X259308D01*
G01X237533Y85667D02*
X237183Y85867D01*
X236775Y86000D01*
X236308D01*
X235783Y85800D01*
X235375Y85467D01*
X235083Y85067D01*
X234850Y84400D01*
X234792Y83800D01*
X234908Y83200D01*
X235083Y82800D01*
X235433Y82400D01*
X235842Y82133D01*
X236250Y82000D01*
X236658D01*
X237067Y82133D01*
X237417Y82333D01*
X237708Y82600D01*
G01X239242Y85333D02*
X239592Y85733D01*
X240000Y85933D01*
X240467Y86000D01*
X241050Y85867D01*
X241458Y85533D01*
X241575Y85133D01*
X241517Y84733D01*
X241283Y84400D01*
X240117Y83733D01*
X239592Y83267D01*
X239242Y82600D01*
X239125Y82000D01*
X241575D01*
G01X243342Y85333D02*
X243692Y85733D01*
X244100Y85933D01*
X244567Y86000D01*
X245150Y85867D01*
X245558Y85533D01*
X245675Y85133D01*
X245617Y84733D01*
X245383Y84400D01*
X244217Y83733D01*
X243692Y83267D01*
X243342Y82600D01*
X243225Y82000D01*
X245675D01*
G01X243500Y116083D02*
X239500D01*
Y117542D01*
X239700Y118008D01*
X239967Y118300D01*
X240500Y118417D01*
X241033Y118300D01*
X241367Y117950D01*
X241567Y117542D01*
Y116083D01*
G01Y117542D02*
X243500Y118417D01*
G01X240167Y120242D02*
X239767Y120592D01*
X239567Y121000D01*
X239500Y121467D01*
X239633Y122050D01*
X239967Y122458D01*
X240367Y122575D01*
X240767Y122517D01*
X241100Y122283D01*
X241767Y121117D01*
X242233Y120592D01*
X242900Y120242D01*
X243500Y120125D01*
Y122575D01*
G01X240167Y124342D02*
X239767Y124692D01*
X239567Y125100D01*
X239500Y125567D01*
X239633Y126150D01*
X239967Y126558D01*
X240367Y126675D01*
X240767Y126617D01*
X241100Y126383D01*
X241767Y125217D01*
X242233Y124692D01*
X242900Y124342D01*
X243500Y124225D01*
Y126675D01*
G01X232000Y100498D02*
X229010D01*
Y101744D01*
X229160Y102143D01*
X229359Y102392D01*
X229758Y102492D01*
X230156Y102392D01*
X230405Y102093D01*
X230555Y101744D01*
Y100498D01*
G01Y101744D02*
X232000Y102492D01*
G01X229508Y104518D02*
X229209Y104817D01*
X229060Y105166D01*
X229010Y105565D01*
X229110Y106063D01*
X229359Y106412D01*
X229658Y106512D01*
X229957Y106462D01*
X230206Y106262D01*
X230704Y105266D01*
X231053Y104817D01*
X231552Y104518D01*
X232000Y104418D01*
Y106512D01*
G01Y109435D02*
X231950Y109784D01*
X231801Y110182D01*
X231552Y110432D01*
X231203Y110531D01*
X230854Y110432D01*
X230555Y110133D01*
X230405Y109684D01*
Y109186D01*
X230306Y108887D01*
X230057Y108638D01*
X229708Y108538D01*
X229359Y108688D01*
X229110Y109036D01*
X229010Y109435D01*
X229110Y109834D01*
X229359Y110182D01*
X229708Y110332D01*
X230057Y110232D01*
X230306Y109983D01*
X230405Y109684D01*
Y109186D01*
X230555Y108737D01*
X230854Y108438D01*
X231203Y108339D01*
X231552Y108438D01*
X231801Y108688D01*
X231950Y109086D01*
X232000Y109435D01*
G01X234333Y118533D02*
X234133Y118183D01*
X234000Y117775D01*
Y117308D01*
X234200Y116783D01*
X234533Y116375D01*
X234933Y116083D01*
X235600Y115850D01*
X236200Y115792D01*
X236800Y115908D01*
X237200Y116083D01*
X237600Y116433D01*
X237867Y116842D01*
X238000Y117250D01*
Y117658D01*
X237867Y118067D01*
X237667Y118417D01*
X237400Y118708D01*
G01X234667Y120242D02*
X234267Y120592D01*
X234067Y121000D01*
X234000Y121467D01*
X234133Y122050D01*
X234467Y122458D01*
X234867Y122575D01*
X235267Y122517D01*
X235600Y122283D01*
X236267Y121117D01*
X236733Y120592D01*
X237400Y120242D01*
X238000Y120125D01*
Y122575D01*
G01X237400Y124167D02*
X237733Y124517D01*
X237933Y124925D01*
X238000Y125450D01*
X237867Y125975D01*
X237600Y126383D01*
X237133Y126675D01*
X236600Y126733D01*
X236067Y126617D01*
X235733Y126325D01*
X235467Y125917D01*
X235400Y125508D01*
X235467Y125100D01*
X235733Y124575D01*
X234000Y124750D01*
Y126325D01*
G01X255083Y152500D02*
Y156500D01*
X256542D01*
X257008Y156300D01*
X257300Y156033D01*
X257417Y155500D01*
X257300Y154967D01*
X256950Y154633D01*
X256542Y154433D01*
X255083D01*
G01X256542D02*
X257417Y152500D01*
G01X261633Y156167D02*
X261283Y156367D01*
X260875Y156500D01*
X260408D01*
X259883Y156300D01*
X259475Y155967D01*
X259183Y155567D01*
X258950Y154900D01*
X258892Y154300D01*
X259008Y153700D01*
X259183Y153300D01*
X259533Y152900D01*
X259942Y152633D01*
X260350Y152500D01*
X260758D01*
X261167Y152633D01*
X261517Y152833D01*
X261808Y153100D01*
G01X263167Y152500D02*
Y156500D01*
G01X265383D02*
X263167Y154033D01*
G01X265733Y152500D02*
X264158Y155167D01*
G01X255083Y142500D02*
Y146500D01*
X256542D01*
X257008Y146300D01*
X257300Y146033D01*
X257417Y145500D01*
X257300Y144967D01*
X256950Y144633D01*
X256542Y144433D01*
X255083D01*
G01X256542D02*
X257417Y142500D01*
G01X259125Y143033D02*
X259592Y142700D01*
X260117Y142500D01*
X260583D01*
X261050Y142700D01*
X261400Y143033D01*
X261575Y143500D01*
X261458Y143967D01*
X261167Y144367D01*
X260642Y144633D01*
X259942Y144767D01*
X259533Y145033D01*
X259358Y145500D01*
X259475Y145967D01*
X259767Y146300D01*
X260175Y146500D01*
X260583D01*
X260992Y146367D01*
X261342Y146033D01*
G01X264450Y146500D02*
Y142500D01*
G01X263108Y146500D02*
X265792D01*
G01X256250Y186500D02*
Y182500D01*
G01X254908Y186500D02*
X257592D01*
G01X259475Y185167D02*
X261225Y182500D01*
G01Y185167D02*
X259475Y182500D01*
G01X264450D02*
Y186500D01*
X263750Y185700D01*
G01Y182500D02*
X265150D01*
G01X255083Y172500D02*
Y176500D01*
X256542D01*
X257008Y176300D01*
X257300Y176033D01*
X257417Y175500D01*
X257300Y174967D01*
X256950Y174633D01*
X256542Y174433D01*
X255083D01*
G01X256542D02*
X257417Y172500D01*
G01X259475Y175167D02*
X261225Y172500D01*
G01Y175167D02*
X259475Y172500D01*
G01X264450D02*
Y176500D01*
X263750Y175700D01*
G01Y172500D02*
X265150D01*
G01X255083Y162500D02*
Y166500D01*
X256542D01*
X257008Y166300D01*
X257300Y166033D01*
X257417Y165500D01*
X257300Y164967D01*
X256950Y164633D01*
X256542Y164433D01*
X255083D01*
G01X256542D02*
X257417Y162500D01*
G01X259650Y166500D02*
X261050D01*
G01X260350D02*
Y162500D01*
G01X259650D02*
X261050D01*
G01X264450D02*
X263983Y162567D01*
X263575Y162833D01*
X263225Y163233D01*
X262992Y163700D01*
X262875Y164233D01*
Y164767D01*
X262992Y165300D01*
X263225Y165767D01*
X263575Y166167D01*
X263983Y166433D01*
X264450Y166500D01*
X264917Y166433D01*
X265325Y166167D01*
X265675Y165767D01*
X265908Y165300D01*
X266025Y164767D01*
Y164233D01*
X265908Y163700D01*
X265675Y163233D01*
X265325Y162833D01*
X264917Y162567D01*
X264450Y162500D01*
G01X242000Y182083D02*
X238000D01*
Y183542D01*
X238200Y184008D01*
X238467Y184300D01*
X239000Y184417D01*
X239533Y184300D01*
X239867Y183950D01*
X240067Y183542D01*
Y182083D01*
G01Y183542D02*
X242000Y184417D01*
G01Y187350D02*
X241933Y187758D01*
X241733Y188225D01*
X241400Y188517D01*
X240933Y188633D01*
X240467Y188517D01*
X240067Y188167D01*
X239867Y187642D01*
Y187058D01*
X239733Y186708D01*
X239400Y186417D01*
X238933Y186300D01*
X238467Y186475D01*
X238133Y186883D01*
X238000Y187350D01*
X238133Y187817D01*
X238467Y188225D01*
X238933Y188400D01*
X239400Y188283D01*
X239733Y187992D01*
X239867Y187642D01*
Y187058D01*
X240067Y186533D01*
X240467Y186183D01*
X240933Y186067D01*
X241400Y186183D01*
X241733Y186475D01*
X241933Y186942D01*
X242000Y187350D01*
G01X236000Y182083D02*
X232000D01*
Y183542D01*
X232200Y184008D01*
X232467Y184300D01*
X233000Y184417D01*
X233533Y184300D01*
X233867Y183950D01*
X234067Y183542D01*
Y182083D01*
G01Y183542D02*
X236000Y184417D01*
G01X235533Y186358D02*
X235867Y186767D01*
X236000Y187233D01*
X235867Y187700D01*
X235467Y188108D01*
X234867Y188400D01*
X234267Y188517D01*
X233533D01*
X232933Y188400D01*
X232400Y188108D01*
X232133Y187758D01*
X232000Y187350D01*
X232133Y186883D01*
X232400Y186533D01*
X232800Y186300D01*
X233333Y186183D01*
X233800Y186300D01*
X234267Y186592D01*
X234533Y186942D01*
X234600Y187350D01*
X234467Y187817D01*
X234133Y188167D01*
X233533Y188517D01*
G01X257100Y213000D02*
X258267D01*
Y211800D01*
X257917Y211400D01*
X257508Y211133D01*
X256925Y211000D01*
X256342Y211133D01*
X255933Y211400D01*
X255583Y211800D01*
X255350Y212267D01*
X255233Y212800D01*
Y213267D01*
X255350Y213667D01*
X255583Y214133D01*
X255933Y214533D01*
X256283Y214800D01*
X256750Y215000D01*
X257158D01*
X257625Y214867D01*
X257975Y214600D01*
G01X259858Y211000D02*
Y213667D01*
G01Y213000D02*
X260092Y213333D01*
X260442Y213600D01*
X260908Y213667D01*
X261317Y213600D01*
X261667Y213333D01*
X261842Y212867D01*
Y211000D01*
G01X266000Y215000D02*
Y211000D01*
G01Y211600D02*
X265767Y211267D01*
X265417Y211067D01*
X265008Y211000D01*
X264542Y211133D01*
X264192Y211467D01*
X263958Y211867D01*
X263900Y212333D01*
X263958Y212800D01*
X264192Y213200D01*
X264542Y213533D01*
X265008Y213667D01*
X265417Y213600D01*
X265708Y213467D01*
X266000Y213200D01*
G01X255083Y202500D02*
Y206500D01*
X256542D01*
X257008Y206300D01*
X257300Y206033D01*
X257417Y205500D01*
X257300Y204967D01*
X256950Y204633D01*
X256542Y204433D01*
X255083D01*
G01X256542D02*
X257417Y202500D01*
G01X259475Y205167D02*
X261225Y202500D01*
G01Y205167D02*
X259475Y202500D01*
G01X256250Y196000D02*
Y192000D01*
G01X254908Y196000D02*
X257592D01*
G01X259475Y194667D02*
X261225Y192000D01*
G01Y194667D02*
X259475Y192000D01*
G01X238000Y200967D02*
X234000D01*
Y202133D01*
X234200Y202600D01*
X234467Y202950D01*
X234867Y203242D01*
X235333Y203475D01*
X236000Y203533D01*
X236667Y203475D01*
X237133Y203242D01*
X237533Y202950D01*
X237800Y202600D01*
X238000Y202133D01*
Y200967D01*
G01X236333Y205242D02*
X235867Y205650D01*
X235600Y206000D01*
X235467Y206467D01*
X235600Y206875D01*
X235867Y207167D01*
X236267Y207400D01*
X236733Y207458D01*
X237133Y207400D01*
X237533Y207167D01*
X237867Y206817D01*
X238000Y206408D01*
X237867Y205942D01*
X237467Y205533D01*
X236867Y205300D01*
X236200Y205242D01*
X235333Y205358D01*
X234867Y205533D01*
X234400Y205825D01*
X234067Y206233D01*
X234000Y206642D01*
X234133Y207050D01*
X234467Y207342D01*
G01X232500Y200967D02*
X228500D01*
Y202133D01*
X228700Y202600D01*
X228967Y202950D01*
X229367Y203242D01*
X229833Y203475D01*
X230500Y203533D01*
X231167Y203475D01*
X231633Y203242D01*
X232033Y202950D01*
X232300Y202600D01*
X232500Y202133D01*
Y200967D01*
G01Y206233D02*
X231633Y206350D01*
X230900Y206525D01*
X230233Y206758D01*
X229500Y207050D01*
X228500Y207517D01*
Y205183D01*
G01X235750Y224667D02*
Y222000D01*
G01Y225733D02*
X235633Y225800D01*
Y225933D01*
X235750Y226000D01*
X235867Y225933D01*
Y225800D01*
X235750Y225733D01*
G01X239850Y222000D02*
X239500Y222067D01*
X239150Y222333D01*
X238917Y222800D01*
X238800Y223333D01*
X238917Y223867D01*
X239150Y224333D01*
X239500Y224600D01*
X239850Y224667D01*
X240200Y224600D01*
X240550Y224333D01*
X240783Y223867D01*
X240842Y223333D01*
X240783Y222800D01*
X240550Y222333D01*
X240200Y222067D01*
X239850Y222000D01*
G01X262467Y77000D02*
Y74133D01*
X262700Y73533D01*
X263167Y73133D01*
X263750Y73000D01*
X264333Y73133D01*
X264800Y73533D01*
X265033Y74133D01*
Y77000D01*
G01X266742Y74667D02*
X267150Y75133D01*
X267500Y75400D01*
X267967Y75533D01*
X268375Y75400D01*
X268667Y75133D01*
X268900Y74733D01*
X268958Y74267D01*
X268900Y73867D01*
X268667Y73467D01*
X268317Y73133D01*
X267908Y73000D01*
X267442Y73133D01*
X267033Y73533D01*
X266800Y74133D01*
X266742Y74800D01*
X266858Y75667D01*
X267033Y76133D01*
X267325Y76600D01*
X267733Y76933D01*
X268142Y77000D01*
X268550Y76867D01*
X268842Y76533D01*
G01X263750Y100000D02*
Y96000D01*
G01X262408Y100000D02*
X265092D01*
G01X266975Y98667D02*
X268725Y96000D01*
G01Y98667D02*
X266975Y96000D01*
G01X272583D02*
Y100000D01*
X274042D01*
X274508Y99800D01*
X274800Y99533D01*
X274917Y99000D01*
X274800Y98467D01*
X274450Y98133D01*
X274042Y97933D01*
X272583D01*
G01X274042D02*
X274917Y96000D01*
G01X276975Y98667D02*
X278725Y96000D01*
G01Y98667D02*
X276975Y96000D01*
G01X284100Y98000D02*
X285267D01*
Y96800D01*
X284917Y96400D01*
X284508Y96133D01*
X283925Y96000D01*
X283342Y96133D01*
X282933Y96400D01*
X282583Y96800D01*
X282350Y97267D01*
X282233Y97800D01*
Y98267D01*
X282350Y98667D01*
X282583Y99133D01*
X282933Y99533D01*
X283283Y99800D01*
X283750Y100000D01*
X284158D01*
X284625Y99867D01*
X284975Y99600D01*
G01X286858Y96000D02*
Y98667D01*
G01Y98000D02*
X287092Y98333D01*
X287442Y98600D01*
X287908Y98667D01*
X288317Y98600D01*
X288667Y98333D01*
X288842Y97867D01*
Y96000D01*
G01X293000Y100000D02*
Y96000D01*
G01Y96600D02*
X292767Y96267D01*
X292417Y96067D01*
X292008Y96000D01*
X291542Y96133D01*
X291192Y96467D01*
X290958Y96867D01*
X290900Y97333D01*
X290958Y97800D01*
X291192Y98200D01*
X291542Y98533D01*
X292008Y98667D01*
X292417Y98600D01*
X292708Y98467D01*
X293000Y98200D01*
G01X269376Y120106D02*
Y117239D01*
X269609Y116639D01*
X270076Y116239D01*
X270659Y116106D01*
X271242Y116239D01*
X271709Y116639D01*
X271942Y117239D01*
Y120106D01*
G01X274759Y116106D02*
Y120106D01*
X274059Y119306D01*
G01Y116106D02*
X275459D01*
G01X278859Y120106D02*
X278392Y119973D01*
X278042Y119639D01*
X277809Y119239D01*
X277634Y118706D01*
X277576Y118106D01*
X277634Y117506D01*
X277809Y116973D01*
X278042Y116573D01*
X278392Y116239D01*
X278859Y116106D01*
X279326Y116239D01*
X279676Y116573D01*
X279909Y116973D01*
X280084Y117506D01*
X280142Y118106D01*
X280084Y118706D01*
X279909Y119239D01*
X279676Y119639D01*
X279326Y119973D01*
X278859Y120106D01*
G01X282591Y224741D02*
X282292Y224890D01*
X281944Y224990D01*
X281545D01*
X281096Y224840D01*
X280748Y224591D01*
X280498Y224292D01*
X280299Y223794D01*
X280249Y223345D01*
X280349Y222897D01*
X280498Y222598D01*
X280797Y222299D01*
X281146Y222100D01*
X281495Y222000D01*
X281844D01*
X282193Y222100D01*
X282492Y222249D01*
X282741Y222448D01*
G01X286063Y222000D02*
Y224990D01*
X284219Y222847D01*
X286711D01*
G01X289435Y224990D02*
X289036Y224890D01*
X288737Y224641D01*
X288538Y224342D01*
X288388Y223943D01*
X288339Y223495D01*
X288388Y223046D01*
X288538Y222648D01*
X288737Y222349D01*
X289036Y222100D01*
X289435Y222000D01*
X289834Y222100D01*
X290133Y222349D01*
X290332Y222648D01*
X290482Y223046D01*
X290531Y223495D01*
X290482Y223943D01*
X290332Y224342D01*
X290133Y224641D01*
X289834Y224890D01*
X289435Y224990D01*
G01X282591Y238741D02*
X282292Y238890D01*
X281944Y238990D01*
X281545D01*
X281096Y238840D01*
X280748Y238591D01*
X280498Y238292D01*
X280299Y237794D01*
X280249Y237345D01*
X280349Y236897D01*
X280498Y236598D01*
X280797Y236299D01*
X281146Y236100D01*
X281495Y236000D01*
X281844D01*
X282193Y236100D01*
X282492Y236249D01*
X282741Y236448D01*
G01X286063Y236000D02*
Y238990D01*
X284219Y236847D01*
X286711D01*
G01X289435Y236000D02*
Y238990D01*
X288837Y238392D01*
G01Y236000D02*
X290033D01*
G01X280417Y246500D02*
X278083D01*
Y250500D01*
X280417D01*
G01X279483Y248567D02*
X278083D01*
G01X283350Y246500D02*
Y250500D01*
X282650Y249700D01*
G01Y246500D02*
X284050D01*
G01X290583Y3800D02*
X290875Y3400D01*
X291225Y3133D01*
X291633Y3000D01*
X292100Y3133D01*
X292450Y3400D01*
X292800Y3800D01*
X292917Y4333D01*
Y7000D01*
G01X294742Y4667D02*
X295150Y5133D01*
X295500Y5400D01*
X295967Y5533D01*
X296375Y5400D01*
X296667Y5133D01*
X296900Y4733D01*
X296958Y4267D01*
X296900Y3867D01*
X296667Y3467D01*
X296317Y3133D01*
X295908Y3000D01*
X295442Y3133D01*
X295033Y3533D01*
X294800Y4133D01*
X294742Y4800D01*
X294858Y5667D01*
X295033Y6133D01*
X295325Y6600D01*
X295733Y6933D01*
X296142Y7000D01*
X296550Y6867D01*
X296842Y6533D01*
G01X313167Y85500D02*
Y82633D01*
X313400Y82033D01*
X313867Y81633D01*
X314450Y81500D01*
X315033Y81633D01*
X315500Y82033D01*
X315733Y82633D01*
Y85500D01*
G01X317267Y82100D02*
X317617Y81767D01*
X318025Y81567D01*
X318550Y81500D01*
X319075Y81633D01*
X319483Y81900D01*
X319775Y82367D01*
X319833Y82900D01*
X319717Y83433D01*
X319425Y83767D01*
X319017Y84033D01*
X318608Y84100D01*
X318200Y84033D01*
X317675Y83767D01*
X317850Y85500D01*
X319425D01*
G01X309833Y92533D02*
X309633Y92183D01*
X309500Y91775D01*
Y91308D01*
X309700Y90783D01*
X310033Y90375D01*
X310433Y90083D01*
X311100Y89850D01*
X311700Y89792D01*
X312300Y89908D01*
X312700Y90083D01*
X313100Y90433D01*
X313367Y90842D01*
X313500Y91250D01*
Y91658D01*
X313367Y92067D01*
X313167Y92417D01*
X312900Y92708D01*
G01X310167Y94242D02*
X309767Y94592D01*
X309567Y95000D01*
X309500Y95467D01*
X309633Y96050D01*
X309967Y96458D01*
X310367Y96575D01*
X310767Y96517D01*
X311100Y96283D01*
X311767Y95117D01*
X312233Y94592D01*
X312900Y94242D01*
X313500Y94125D01*
Y96575D01*
G01X312700Y98167D02*
X313167Y98517D01*
X313433Y98983D01*
X313500Y99508D01*
X313433Y99975D01*
X313100Y100442D01*
X312700Y100733D01*
X312300Y100792D01*
X311833Y100675D01*
X311500Y100267D01*
X311367Y99858D01*
Y99333D01*
G01Y99858D02*
X311167Y100208D01*
X310833Y100500D01*
X310433Y100617D01*
X310033Y100500D01*
X309700Y100208D01*
X309500Y99683D01*
X309567Y99158D01*
X309833Y98633D01*
G01X302833Y92033D02*
X302633Y91683D01*
X302500Y91275D01*
Y90808D01*
X302700Y90283D01*
X303033Y89875D01*
X303433Y89583D01*
X304100Y89350D01*
X304700Y89292D01*
X305300Y89408D01*
X305700Y89583D01*
X306100Y89933D01*
X306367Y90342D01*
X306500Y90750D01*
Y91158D01*
X306367Y91567D01*
X306167Y91917D01*
X305900Y92208D01*
G01X303167Y93742D02*
X302767Y94092D01*
X302567Y94500D01*
X302500Y94967D01*
X302633Y95550D01*
X302967Y95958D01*
X303367Y96075D01*
X303767Y96017D01*
X304100Y95783D01*
X304767Y94617D01*
X305233Y94092D01*
X305900Y93742D01*
X306500Y93625D01*
Y96075D01*
G01Y99650D02*
X302500D01*
X305367Y97492D01*
Y100408D01*
G01X299544Y238548D02*
X302534D01*
Y240542D01*
G01X301936Y242419D02*
X302285Y242718D01*
X302484Y243116D01*
X302534Y243565D01*
X302484Y243964D01*
X302235Y244362D01*
X301936Y244611D01*
X301637Y244661D01*
X301288Y244562D01*
X301039Y244213D01*
X300939Y243864D01*
Y243415D01*
G01Y243864D02*
X300790Y244163D01*
X300541Y244412D01*
X300242Y244512D01*
X299943Y244412D01*
X299694Y244163D01*
X299544Y243714D01*
X299594Y243266D01*
X299793Y242817D01*
G01X318083Y43000D02*
Y47000D01*
X319542D01*
X320008Y46800D01*
X320300Y46533D01*
X320417Y46000D01*
X320300Y45467D01*
X319950Y45133D01*
X319542Y44933D01*
X318083D01*
G01X319542D02*
X320417Y43000D01*
G01X323350D02*
Y47000D01*
X322650Y46200D01*
G01Y43000D02*
X324050D01*
G01X326342Y44667D02*
X326750Y45133D01*
X327100Y45400D01*
X327567Y45533D01*
X327975Y45400D01*
X328267Y45133D01*
X328500Y44733D01*
X328558Y44267D01*
X328500Y43867D01*
X328267Y43467D01*
X327917Y43133D01*
X327508Y43000D01*
X327042Y43133D01*
X326633Y43533D01*
X326400Y44133D01*
X326342Y44800D01*
X326458Y45667D01*
X326633Y46133D01*
X326925Y46600D01*
X327333Y46933D01*
X327742Y47000D01*
X328150Y46867D01*
X328442Y46533D01*
G01X325433Y79233D02*
X325233Y78883D01*
X325100Y78475D01*
Y78008D01*
X325300Y77483D01*
X325633Y77075D01*
X326033Y76783D01*
X326700Y76550D01*
X327300Y76492D01*
X327900Y76608D01*
X328300Y76783D01*
X328700Y77133D01*
X328967Y77542D01*
X329100Y77950D01*
Y78358D01*
X328967Y78767D01*
X328767Y79117D01*
X328500Y79408D01*
G01X325767Y80942D02*
X325367Y81292D01*
X325167Y81700D01*
X325100Y82167D01*
X325233Y82750D01*
X325567Y83158D01*
X325967Y83275D01*
X326367Y83217D01*
X326700Y82983D01*
X327367Y81817D01*
X327833Y81292D01*
X328500Y80942D01*
X329100Y80825D01*
Y83275D01*
G01X325100Y86150D02*
X325233Y85683D01*
X325567Y85333D01*
X325967Y85100D01*
X326500Y84925D01*
X327100Y84867D01*
X327700Y84925D01*
X328233Y85100D01*
X328633Y85333D01*
X328967Y85683D01*
X329100Y86150D01*
X328967Y86617D01*
X328633Y86967D01*
X328233Y87200D01*
X327700Y87375D01*
X327100Y87433D01*
X326500Y87375D01*
X325967Y87200D01*
X325567Y86967D01*
X325233Y86617D01*
X325100Y86150D01*
G01X336025Y70533D02*
X336492Y70200D01*
X337017Y70000D01*
X337483D01*
X337950Y70200D01*
X338300Y70533D01*
X338475Y71000D01*
X338358Y71467D01*
X338067Y71867D01*
X337542Y72133D01*
X336842Y72267D01*
X336433Y72533D01*
X336258Y73000D01*
X336375Y73467D01*
X336667Y73800D01*
X337075Y74000D01*
X337483D01*
X337892Y73867D01*
X338242Y73533D01*
G01X339600Y74000D02*
X340417Y70000D01*
X341350Y74000D01*
X342283Y70000D01*
X343100Y74000D01*
G01X345450Y70000D02*
Y74000D01*
X344750Y73200D01*
G01Y70000D02*
X346150D01*
G01X335025Y142033D02*
X335492Y141700D01*
X336017Y141500D01*
X336483D01*
X336950Y141700D01*
X337300Y142033D01*
X337475Y142500D01*
X337358Y142967D01*
X337067Y143367D01*
X336542Y143633D01*
X335842Y143767D01*
X335433Y144033D01*
X335258Y144500D01*
X335375Y144967D01*
X335667Y145300D01*
X336075Y145500D01*
X336483D01*
X336892Y145367D01*
X337242Y145033D01*
G01X338600Y145500D02*
X339417Y141500D01*
X340350Y145500D01*
X341283Y141500D01*
X342100Y145500D01*
G01X343342Y144833D02*
X343692Y145233D01*
X344100Y145433D01*
X344567Y145500D01*
X345150Y145367D01*
X345558Y145033D01*
X345675Y144633D01*
X345617Y144233D01*
X345383Y143900D01*
X344217Y143233D01*
X343692Y142767D01*
X343342Y142100D01*
X343225Y141500D01*
X345675D01*
G01X335525Y216033D02*
X335992Y215700D01*
X336517Y215500D01*
X336983D01*
X337450Y215700D01*
X337800Y216033D01*
X337975Y216500D01*
X337858Y216967D01*
X337567Y217367D01*
X337042Y217633D01*
X336342Y217767D01*
X335933Y218033D01*
X335758Y218500D01*
X335875Y218967D01*
X336167Y219300D01*
X336575Y219500D01*
X336983D01*
X337392Y219367D01*
X337742Y219033D01*
G01X339100Y219500D02*
X339917Y215500D01*
X340850Y219500D01*
X341783Y215500D01*
X342600Y219500D01*
G01X343667Y216300D02*
X344017Y215833D01*
X344483Y215567D01*
X345008Y215500D01*
X345475Y215567D01*
X345942Y215900D01*
X346233Y216300D01*
X346292Y216700D01*
X346175Y217167D01*
X345767Y217500D01*
X345358Y217633D01*
X344833D01*
G01X345358D02*
X345708Y217833D01*
X346000Y218167D01*
X346117Y218567D01*
X346000Y218967D01*
X345708Y219300D01*
X345183Y219500D01*
X344658Y219433D01*
X344133Y219167D01*
G01X405733Y11500D02*
Y15500D01*
X407250Y12167D01*
X408767Y15500D01*
Y11500D01*
G01X410125D02*
Y15500D01*
G01X412575D02*
Y11500D01*
G01Y13500D02*
X410125D01*
G01X414167Y12300D02*
X414517Y11833D01*
X414983Y11567D01*
X415508Y11500D01*
X415975Y11567D01*
X416442Y11900D01*
X416733Y12300D01*
X416792Y12700D01*
X416675Y13167D01*
X416267Y13500D01*
X415858Y13633D01*
X415333D01*
G01X415858D02*
X416208Y13833D01*
X416500Y14167D01*
X416617Y14567D01*
X416500Y14967D01*
X416208Y15300D01*
X415683Y15500D01*
X415158Y15433D01*
X414633Y15167D01*
G01X396500Y63467D02*
X392500D01*
Y64633D01*
X392700Y65100D01*
X392967Y65450D01*
X393367Y65742D01*
X393833Y65975D01*
X394500Y66033D01*
X395167Y65975D01*
X395633Y65742D01*
X396033Y65450D01*
X396300Y65100D01*
X396500Y64633D01*
Y63467D01*
G01Y68850D02*
X392500D01*
X393300Y68150D01*
G01X396500D02*
Y69550D01*
G01Y72950D02*
X392500D01*
X393300Y72250D01*
G01X396500D02*
Y73650D01*
G01Y40467D02*
X392500D01*
Y41633D01*
X392700Y42100D01*
X392967Y42450D01*
X393367Y42742D01*
X393833Y42975D01*
X394500Y43033D01*
X395167Y42975D01*
X395633Y42742D01*
X396033Y42450D01*
X396300Y42100D01*
X396500Y41633D01*
Y40467D01*
G01Y45850D02*
X392500D01*
X393300Y45150D01*
G01X396500D02*
Y46550D01*
G01X392500Y49950D02*
X392633Y49483D01*
X392967Y49133D01*
X393367Y48900D01*
X393900Y48725D01*
X394500Y48667D01*
X395100Y48725D01*
X395633Y48900D01*
X396033Y49133D01*
X396367Y49483D01*
X396500Y49950D01*
X396367Y50417D01*
X396033Y50767D01*
X395633Y51000D01*
X395100Y51175D01*
X394500Y51233D01*
X393900Y51175D01*
X393367Y51000D01*
X392967Y50767D01*
X392633Y50417D01*
X392500Y49950D01*
G01X388833Y85033D02*
X388633Y84683D01*
X388500Y84275D01*
Y83808D01*
X388700Y83283D01*
X389033Y82875D01*
X389433Y82583D01*
X390100Y82350D01*
X390700Y82292D01*
X391300Y82408D01*
X391700Y82583D01*
X392100Y82933D01*
X392367Y83342D01*
X392500Y83750D01*
Y84158D01*
X392367Y84567D01*
X392167Y84917D01*
X391900Y85208D01*
G01X392500Y87850D02*
X388500D01*
X389300Y87150D01*
G01X392500D02*
Y88550D01*
G01X390833Y90842D02*
X390367Y91250D01*
X390100Y91600D01*
X389967Y92067D01*
X390100Y92475D01*
X390367Y92767D01*
X390767Y93000D01*
X391233Y93058D01*
X391633Y93000D01*
X392033Y92767D01*
X392367Y92417D01*
X392500Y92008D01*
X392367Y91542D01*
X391967Y91133D01*
X391367Y90900D01*
X390700Y90842D01*
X389833Y90958D01*
X389367Y91133D01*
X388900Y91425D01*
X388567Y91833D01*
X388500Y92242D01*
X388633Y92650D01*
X388967Y92942D01*
G01X398000Y82583D02*
X394000D01*
Y84042D01*
X394200Y84508D01*
X394467Y84800D01*
X395000Y84917D01*
X395533Y84800D01*
X395867Y84450D01*
X396067Y84042D01*
Y82583D01*
G01Y84042D02*
X398000Y84917D01*
G01Y87850D02*
X394000D01*
X394800Y87150D01*
G01X398000D02*
Y88550D01*
G01X397200Y90667D02*
X397667Y91017D01*
X397933Y91483D01*
X398000Y92008D01*
X397933Y92475D01*
X397600Y92942D01*
X397200Y93233D01*
X396800Y93292D01*
X396333Y93175D01*
X396000Y92767D01*
X395867Y92358D01*
Y91833D01*
G01Y92358D02*
X395667Y92708D01*
X395333Y93000D01*
X394933Y93117D01*
X394533Y93000D01*
X394200Y92708D01*
X394000Y92183D01*
X394067Y91658D01*
X394333Y91133D01*
G01X403583Y90300D02*
X403875Y89900D01*
X404225Y89633D01*
X404633Y89500D01*
X405100Y89633D01*
X405450Y89900D01*
X405800Y90300D01*
X405917Y90833D01*
Y93500D01*
G01X407858Y89967D02*
X408267Y89633D01*
X408733Y89500D01*
X409200Y89633D01*
X409608Y90033D01*
X409900Y90633D01*
X410017Y91233D01*
Y91967D01*
X409900Y92567D01*
X409608Y93100D01*
X409258Y93367D01*
X408850Y93500D01*
X408383Y93367D01*
X408033Y93100D01*
X407800Y92700D01*
X407683Y92167D01*
X407800Y91700D01*
X408092Y91233D01*
X408442Y90967D01*
X408850Y90900D01*
X409317Y91033D01*
X409667Y91367D01*
X410017Y91967D01*
G01X396000Y119967D02*
X392000D01*
Y121133D01*
X392200Y121600D01*
X392467Y121950D01*
X392867Y122242D01*
X393333Y122475D01*
X394000Y122533D01*
X394667Y122475D01*
X395133Y122242D01*
X395533Y121950D01*
X395800Y121600D01*
X396000Y121133D01*
Y119967D01*
G01Y125350D02*
X392000D01*
X392800Y124650D01*
G01X396000D02*
Y126050D01*
G01X395400Y128167D02*
X395733Y128517D01*
X395933Y128925D01*
X396000Y129450D01*
X395867Y129975D01*
X395600Y130383D01*
X395133Y130675D01*
X394600Y130733D01*
X394067Y130617D01*
X393733Y130325D01*
X393467Y129917D01*
X393400Y129508D01*
X393467Y129100D01*
X393733Y128575D01*
X392000Y128750D01*
Y130325D01*
G01X396000Y96467D02*
X392000D01*
Y97633D01*
X392200Y98100D01*
X392467Y98450D01*
X392867Y98742D01*
X393333Y98975D01*
X394000Y99033D01*
X394667Y98975D01*
X395133Y98742D01*
X395533Y98450D01*
X395800Y98100D01*
X396000Y97633D01*
Y96467D01*
G01Y101850D02*
X392000D01*
X392800Y101150D01*
G01X396000D02*
Y102550D01*
G01X395200Y104667D02*
X395667Y105017D01*
X395933Y105483D01*
X396000Y106008D01*
X395933Y106475D01*
X395600Y106942D01*
X395200Y107233D01*
X394800Y107292D01*
X394333Y107175D01*
X394000Y106767D01*
X393867Y106358D01*
Y105833D01*
G01Y106358D02*
X393667Y106708D01*
X393333Y107000D01*
X392933Y107117D01*
X392533Y107000D01*
X392200Y106708D01*
X392000Y106183D01*
X392067Y105658D01*
X392333Y105133D01*
G01X390833Y149533D02*
X390633Y149183D01*
X390500Y148775D01*
Y148308D01*
X390700Y147783D01*
X391033Y147375D01*
X391433Y147083D01*
X392100Y146850D01*
X392700Y146792D01*
X393300Y146908D01*
X393700Y147083D01*
X394100Y147433D01*
X394367Y147842D01*
X394500Y148250D01*
Y148658D01*
X394367Y149067D01*
X394167Y149417D01*
X393900Y149708D01*
G01X394500Y152350D02*
X390500D01*
X391300Y151650D01*
G01X394500D02*
Y153050D01*
G01Y156333D02*
X393633Y156450D01*
X392900Y156625D01*
X392233Y156858D01*
X391500Y157150D01*
X390500Y157617D01*
Y155283D01*
G01X400500Y147083D02*
X396500D01*
Y148542D01*
X396700Y149008D01*
X396967Y149300D01*
X397500Y149417D01*
X398033Y149300D01*
X398367Y148950D01*
X398567Y148542D01*
Y147083D01*
G01Y148542D02*
X400500Y149417D01*
G01Y152350D02*
X396500D01*
X397300Y151650D01*
G01X400500D02*
Y153050D01*
G01Y157150D02*
X396500D01*
X399367Y154992D01*
Y157908D01*
G01X399083Y175000D02*
Y179000D01*
X400542D01*
X401008Y178800D01*
X401300Y178533D01*
X401417Y178000D01*
X401300Y177467D01*
X400950Y177133D01*
X400542Y176933D01*
X399083D01*
G01X400542D02*
X401417Y175000D01*
G01X403242Y178333D02*
X403592Y178733D01*
X404000Y178933D01*
X404467Y179000D01*
X405050Y178867D01*
X405458Y178533D01*
X405575Y178133D01*
X405517Y177733D01*
X405283Y177400D01*
X404117Y176733D01*
X403592Y176267D01*
X403242Y175600D01*
X403125Y175000D01*
X405575D01*
G01X408450Y179000D02*
X407983Y178867D01*
X407633Y178533D01*
X407400Y178133D01*
X407225Y177600D01*
X407167Y177000D01*
X407225Y176400D01*
X407400Y175867D01*
X407633Y175467D01*
X407983Y175133D01*
X408450Y175000D01*
X408917Y175133D01*
X409267Y175467D01*
X409500Y175867D01*
X409675Y176400D01*
X409733Y177000D01*
X409675Y177600D01*
X409500Y178133D01*
X409267Y178533D01*
X408917Y178867D01*
X408450Y179000D01*
G01X390367Y223083D02*
X390167Y222733D01*
X390034Y222325D01*
Y221858D01*
X390234Y221333D01*
X390567Y220925D01*
X390967Y220633D01*
X391634Y220400D01*
X392234Y220342D01*
X392834Y220458D01*
X393234Y220633D01*
X393634Y220983D01*
X393901Y221392D01*
X394034Y221800D01*
Y222208D01*
X393901Y222617D01*
X393701Y222967D01*
X393434Y223258D01*
G01X394034Y225900D02*
X390034D01*
X390834Y225200D01*
G01X394034D02*
Y226600D01*
G01X393567Y229008D02*
X393901Y229417D01*
X394034Y229883D01*
X393901Y230350D01*
X393501Y230758D01*
X392901Y231050D01*
X392301Y231167D01*
X391567D01*
X390967Y231050D01*
X390434Y230758D01*
X390167Y230408D01*
X390034Y230000D01*
X390167Y229533D01*
X390434Y229183D01*
X390834Y228950D01*
X391367Y228833D01*
X391834Y228950D01*
X392301Y229242D01*
X392567Y229592D01*
X392634Y230000D01*
X392501Y230467D01*
X392167Y230817D01*
X391567Y231167D01*
G01X400000Y220583D02*
X396000D01*
Y222042D01*
X396200Y222508D01*
X396467Y222800D01*
X397000Y222917D01*
X397533Y222800D01*
X397867Y222450D01*
X398067Y222042D01*
Y220583D01*
G01Y222042D02*
X400000Y222917D01*
G01Y225850D02*
X396000D01*
X396800Y225150D01*
G01X400000D02*
Y226550D01*
G01X399400Y228667D02*
X399733Y229017D01*
X399933Y229425D01*
X400000Y229950D01*
X399867Y230475D01*
X399600Y230883D01*
X399133Y231175D01*
X398600Y231233D01*
X398067Y231117D01*
X397733Y230825D01*
X397467Y230417D01*
X397400Y230008D01*
X397467Y229600D01*
X397733Y229075D01*
X396000Y229250D01*
Y230825D01*
G01X406233Y244000D02*
Y248000D01*
X407750Y244667D01*
X409267Y248000D01*
Y244000D01*
G01X410625D02*
Y248000D01*
G01X413075D02*
Y244000D01*
G01Y246000D02*
X410625D01*
G01X416650Y244000D02*
Y248000D01*
X414492Y245133D01*
X417408D01*
G01X411083Y23300D02*
X411375Y22900D01*
X411725Y22633D01*
X412133Y22500D01*
X412600Y22633D01*
X412950Y22900D01*
X413300Y23300D01*
X413417Y23833D01*
Y26500D01*
G01X416233Y22500D02*
X416350Y23367D01*
X416525Y24100D01*
X416758Y24767D01*
X417050Y25500D01*
X417517Y26500D01*
X415183D01*
G01X411083Y212300D02*
X411375Y211900D01*
X411725Y211633D01*
X412133Y211500D01*
X412600Y211633D01*
X412950Y211900D01*
X413300Y212300D01*
X413417Y212833D01*
Y215500D01*
G01X416350Y211500D02*
Y215500D01*
X415650Y214700D01*
G01Y211500D02*
X417050D01*
G01X420450D02*
Y215500D01*
X419750Y214700D01*
G01Y211500D02*
X421150D01*
G54D15*
G01X315280Y242126D02*
Y257874D01*
X309374D01*
Y273622D01*
X293626D01*
Y257874D01*
X287720D01*
Y242126D01*
X315280D01*
G01X309374Y257874D02*
X293626D01*
G01X295594Y273622D02*
Y271654D01*
X307406D01*
Y273622D01*
G54D16*
G01X184572Y64580D02*
Y63792D01*
G01X185359Y63005D02*
X186147D01*
G01D02*
X184572Y64580D01*
G01X186934Y61430D02*
X185359Y63005D01*
G01X184787Y60425D02*
X185575D01*
G01X187150Y57276D02*
X185575Y58850D01*
X186362D01*
X184787Y60425D01*
Y59638D01*
G01X180850Y62787D02*
X180063Y63575D01*
G01D02*
X176126Y67512D01*
G01X180850Y56488D02*
Y67512D01*
G01X176126Y56488D02*
X180850Y61213D01*
G01X191874Y63575D02*
Y68299D01*
G01X188724Y63575D02*
X195024D01*
G01X191874Y55701D02*
Y60425D01*
X188724D01*
X191874Y63575D01*
X195024Y60425D01*
X191874D01*
G01X184572Y64580D02*
X185359D01*
G01X176126Y65150D02*
Y67512D01*
X178488D01*
G01X225850Y62787D02*
X225063Y63575D01*
G01D02*
X221126Y67512D01*
G01X225850Y56488D02*
Y67512D01*
G01X221126Y56488D02*
X225850Y61213D01*
G01X221126Y65150D02*
Y67512D01*
X223488D01*
G01X229572Y64580D02*
Y63792D01*
G01X230359Y63005D02*
X231147D01*
G01D02*
X229572Y64580D01*
G01X231934Y61430D02*
X230359Y63005D01*
G01X229787Y60425D02*
X230575D01*
G01X232150Y57276D02*
X230575Y58850D01*
X231362D01*
X229787Y60425D01*
Y59638D01*
G01X236874Y63575D02*
Y68299D01*
G01X233724Y63575D02*
X240024D01*
G01X236874Y55701D02*
Y60425D01*
X233724D01*
X236874Y63575D01*
X240024Y60425D01*
X236874D01*
G01X229572Y64580D02*
X230359D01*
G01X274572D02*
Y63792D01*
G01X275359Y63005D02*
X276147D01*
G01D02*
X274572Y64580D01*
G01X276934Y61430D02*
X275359Y63005D01*
G01X274787Y60425D02*
X275575D01*
G01X277150Y57276D02*
X275575Y58850D01*
X276362D01*
X274787Y60425D01*
Y59638D01*
G01X270850Y62787D02*
X270063Y63575D01*
G01D02*
X266126Y67512D01*
G01X270850Y56488D02*
Y67512D01*
G01X266126Y56488D02*
X270850Y61213D01*
G01X281874Y63575D02*
Y68299D01*
G01X278724Y63575D02*
X285024D01*
G01X281874Y55701D02*
Y60425D01*
X278724D01*
X281874Y63575D01*
X285024Y60425D01*
X281874D01*
G01X274572Y64580D02*
X275359D01*
G01X266126Y65150D02*
Y67512D01*
X268488D01*
G54D17*
G01X49291Y162776D02*
G02I-493J0D01*
G01X92767Y243702D02*
G02I-491J0D01*
G54D18*
G01X50280Y139094D02*
Y131220D01*
X22720D01*
Y139094D01*
G01Y150906D02*
Y158780D01*
X50280D01*
Y150906D01*
G01X65815Y139300D02*
Y145700D01*
G01X55185D02*
Y139300D01*
G01X48980Y164547D02*
X48606D01*
Y185453D01*
X48980D01*
G01X58020Y164547D02*
X58394D01*
Y185453D01*
X58020D01*
G01X120748Y181315D02*
Y220685D01*
X89252D01*
Y181315D01*
X120748D01*
G01Y185252D02*
X89252D01*
G01X94047Y243520D02*
Y243894D01*
X114953D01*
Y243520D01*
G01X94047Y234480D02*
Y234106D01*
X114953D01*
Y234480D01*
G01X136815Y193126D02*
G03I-6224J0D01*
G01X134528D02*
X126654D01*
G01X130591Y189189D02*
Y197063D01*
G01X184827Y168173D02*
Y139827D01*
X213173D01*
Y168173D01*
X184827D01*
G01X189252Y165417D02*
G03I-1669J0D01*
M02*
