G04 ================== begin FILE IDENTIFICATION RECORD ==================*
G04 Layout Name:  STM32F103_RAK811_THESISNODE_5.brd*
G04 Film Name:    RAK4600_v101_SMASK_TOP.art*
G04 File Format:  Gerber RS274X*
G04 File Origin:  Cadence Allegro 17.2-S052*
G04 Origin Date:  Mon Jun 29 19:02:18 2020*
G04 *
G04 Layer:  PIN/SOLDERMASK_TOP*
G04 Layer:  PACKAGE GEOMETRY/SOLDERMASK_TOP*
G04 Layer:  DRAWING FORMAT/SOLDERMASK_TOP*
G04 Layer:  BOARD GEOMETRY/OUTLINE*
G04 Layer:  BOARD GEOMETRY/SOLDERMASK_TOP*
G04 Layer:  BOARD GEOMETRY/LOGO*
G04 *
G04 Offset:    (0.00 0.00)*
G04 Mirror:    No*
G04 Mode:      Positive*
G04 Rotation:  0*
G04 FullContactRelief:  No*
G04 UndefLineWidth:     5.00*
G04 ================== end FILE IDENTIFICATION RECORD ====================*
%FSLAX25Y25*MOIN*%
%IR0*IPPOS*OFA0.00000B0.00000*MIA0B0*SFA1.00000B1.00000*%
%ADD13R,.04X.125*%
%ADD16R,.125X.04*%
%ADD19O,.074X.154*%
%ADD18O,.154X.074*%
%ADD39C,.06*%
%ADD20O,.184X.074*%
%ADD48C,.09*%
%ADD56C,.083*%
%ADD40C,.047*%
%ADD34R,.243X.088*%
%ADD24R,.11024X.04724*%
%ADD49C,.085*%
%ADD38R,.06X.06*%
%ADD47R,.09X.09*%
%ADD21C,.088*%
%ADD55R,.05512X.16535*%
%ADD22R,.10843X.04543*%
%ADD31R,.088X.088*%
%ADD36R,.04724X.04724*%
%ADD17R,.23228X.07087*%
%ADD54R,.04724X.15748*%
%ADD28O,.13X.17*%
%ADD29R,.13X.17*%
%ADD41C,.12*%
%ADD33R,.03X.055*%
%ADD10C,.14*%
%ADD44R,.021X.067*%
%ADD23R,.038X.041*%
%ADD32R,.056X.051*%
%ADD12R,.041X.038*%
%ADD37R,.067X.032*%
%ADD26R,.027X.045*%
%ADD11R,.051X.056*%
%ADD42R,.12X.12*%
%ADD43R,.04X.088*%
%ADD35R,.085X.07*%
%ADD57R,.088X.04*%
%ADD14C,.185*%
%ADD50R,.085X.085*%
%ADD51R,.085X.085*%
%ADD27R,.029X.079*%
%ADD15R,.12811X.15764*%
%ADD45R,.01969X.05512*%
%ADD46R,.05512X.01969*%
%ADD52R,.03346X.07677*%
%ADD25R,.0707X.08858*%
%ADD53R,.07677X.03346*%
%ADD30R,.08858X.0707*%
%ADD58C,.005*%
%ADD59C,.008*%
G75*
%LPD*%
G75*
G54D10*
X13000Y14000D03*
X14000Y246000D03*
X428000Y13000D03*
X431000Y245500D03*
G54D11*
X15500Y95500D03*
X8500D03*
X15500Y124000D03*
X8500D03*
X16000Y151500D03*
X9000D03*
X127500Y87000D03*
X134500D03*
X160500D03*
X153500D03*
X147500D03*
X140500D03*
X223500Y84000D03*
X230500D03*
G54D20*
X54500Y221500D03*
G54D30*
X96311Y239000D03*
X112689D03*
G54D12*
X9000Y102500D03*
X15000D03*
X9000Y131000D03*
X15000D03*
X9500Y158500D03*
X15500D03*
X74000Y115000D03*
Y155000D03*
Y160000D03*
Y191000D03*
Y186000D03*
X80000Y115000D03*
Y155000D03*
Y160000D03*
Y191000D03*
Y186000D03*
X130000Y165000D03*
X124000D03*
X110000D03*
X116000D03*
X166000Y147000D03*
X160000D03*
X166000Y142000D03*
X160000D03*
X166000Y137000D03*
X160000D03*
X151500Y172000D03*
X157500D03*
X151500Y190000D03*
X157500D03*
X178000Y46000D03*
X172000D03*
X225000D03*
X219000D03*
Y135000D03*
X225000D03*
X267000Y46000D03*
X261000D03*
X308000Y45000D03*
X314000D03*
X301500Y223000D03*
X295500D03*
X301500Y239000D03*
X295500D03*
G54D21*
X75650Y35400D03*
X81100Y46600D03*
X70200D03*
X108350Y35400D03*
X97450D03*
X86550D03*
X102900Y46600D03*
X92000D03*
G54D31*
X113800D03*
G54D22*
X67705Y93555D03*
Y84500D03*
Y75445D03*
G54D40*
X148492Y209500D03*
G54D13*
X17000Y186838D03*
Y210162D03*
G54D50*
X249000Y215000D03*
G54D14*
X42950Y41000D03*
X141050D03*
G54D32*
X118000Y88500D03*
Y95500D03*
X119500Y122500D03*
Y115500D03*
X198000Y200500D03*
Y207500D03*
X191000Y200500D03*
Y207500D03*
X212000Y200500D03*
Y207500D03*
X205000Y200500D03*
Y207500D03*
X249000Y118500D03*
Y125500D03*
X312000Y104500D03*
Y111500D03*
X305000Y104500D03*
Y111500D03*
X328000Y60500D03*
Y67500D03*
G54D23*
X71000Y137000D03*
Y143000D03*
X64000Y170000D03*
Y176000D03*
X81000Y77000D03*
Y83000D03*
X99000Y149000D03*
Y143000D03*
X152000Y138000D03*
Y144000D03*
Y162500D03*
Y156500D03*
X195000Y184000D03*
X190000D03*
X195000Y190000D03*
X190000D03*
X226000Y115500D03*
Y121500D03*
X228000Y168000D03*
Y162000D03*
X210000Y184000D03*
X205000D03*
X200000D03*
X210000Y190000D03*
X205000D03*
X200000D03*
X255000Y119000D03*
Y125000D03*
X231000Y121500D03*
Y115500D03*
X301500Y228000D03*
Y234000D03*
X381000Y76000D03*
Y82000D03*
X386000D03*
Y76000D03*
X381000Y149000D03*
Y155000D03*
X386000D03*
Y149000D03*
X402000Y170000D03*
Y164000D03*
X381000Y223000D03*
Y229000D03*
X386000D03*
Y223000D03*
G54D41*
X199842Y24000D03*
X239842D03*
X279842D03*
X319842D03*
X426000Y57000D03*
Y76685D03*
Y117000D03*
Y136685D03*
Y177000D03*
Y196685D03*
G54D15*
X42508Y84500D03*
G54D51*
X266000Y88000D03*
G54D42*
X180158Y24000D03*
X220158D03*
X260158D03*
X300158D03*
X426000Y37315D03*
Y97315D03*
Y157315D03*
G54D33*
X126500Y96250D03*
X131500D03*
X136500D03*
X131500Y115750D03*
X126500D03*
X136500D03*
X141500Y96250D03*
X146500D03*
X151500D03*
X156500D03*
X161500D03*
X146500Y115750D03*
X141500D03*
X151500D03*
X161500D03*
X156500D03*
G54D24*
X60500Y136594D03*
Y148406D03*
G54D25*
X53500Y183189D03*
Y166811D03*
G54D52*
X281776Y124315D03*
X286697D03*
Y213685D03*
X281776D03*
X291618Y124315D03*
X296539D03*
X301461D03*
X306382D03*
X311303D03*
X316224D03*
Y213685D03*
X311303D03*
X306382D03*
X301461D03*
X296539D03*
X291618D03*
G54D43*
X184000Y46000D03*
X199811Y46017D03*
X245811D03*
X230000Y46000D03*
X288811Y46017D03*
X273000Y46000D03*
G54D34*
X143250Y181000D03*
G54D16*
X36838Y114500D03*
X60162D03*
G54D53*
X270063Y154398D03*
Y149476D03*
Y144555D03*
Y139634D03*
Y183925D03*
Y179004D03*
Y174083D03*
Y169161D03*
Y164240D03*
Y159319D03*
Y198689D03*
Y193768D03*
Y188846D03*
X327937Y139634D03*
Y144555D03*
Y149476D03*
Y154398D03*
Y159319D03*
Y164240D03*
Y169161D03*
Y174083D03*
Y179004D03*
Y183925D03*
Y188846D03*
Y193768D03*
Y198689D03*
G54D35*
X168000Y57000D03*
Y67000D03*
X200000D03*
Y57000D03*
X213000D03*
Y67000D03*
X258000Y57000D03*
Y67000D03*
X245000D03*
Y57000D03*
X290000Y67000D03*
Y57000D03*
G54D26*
X71260Y167685D03*
X75000D03*
X71260Y178315D03*
X75000D03*
X78740Y167685D03*
Y178315D03*
G54D44*
X188000Y84800D03*
X183000D03*
X198000D03*
X193000D03*
X183000Y105200D03*
X188000D03*
X193000D03*
X198000D03*
X213000Y84800D03*
X208000D03*
X203000D03*
Y105200D03*
X208000D03*
X213000D03*
G54D17*
X36500Y135748D03*
Y154252D03*
G54D45*
X196047Y135299D03*
X194079D03*
X192110D03*
X190142D03*
X188173D03*
Y172701D03*
X190142D03*
X192110D03*
X194079D03*
X196047D03*
X209827Y135299D03*
X207858D03*
X205890D03*
X203921D03*
X201953D03*
X199984D03*
X198016D03*
Y172701D03*
X199984D03*
X201953D03*
X203921D03*
X205890D03*
X207858D03*
X209827D03*
G54D27*
X107500Y155500D03*
Y134500D03*
X112500Y155500D03*
X117500D03*
X122500D03*
Y134500D03*
X117500D03*
X112500D03*
X313500Y54500D03*
X308500D03*
X303500D03*
Y75500D03*
X308500D03*
X313500D03*
X318500Y54500D03*
Y75500D03*
G54D54*
X301500Y250000D03*
G54D36*
X159350Y154167D03*
X165650D03*
X159350Y162829D03*
X165650D03*
G54D18*
X54500Y245100D03*
G54D46*
X180299Y143173D03*
Y145142D03*
Y147110D03*
Y149079D03*
Y151047D03*
Y153016D03*
Y154984D03*
Y156953D03*
Y158921D03*
Y160890D03*
Y162858D03*
Y164827D03*
X217701Y153016D03*
Y151047D03*
Y149079D03*
Y147110D03*
Y145142D03*
Y143173D03*
Y164827D03*
Y162858D03*
Y160890D03*
Y158921D03*
Y156953D03*
Y154984D03*
G54D37*
X143000Y136300D03*
Y149700D03*
G54D28*
X97205Y201000D03*
G54D55*
X311894Y250000D03*
X291106D03*
G54D19*
X36000Y233300D03*
G54D29*
X112795Y201000D03*
G54D47*
X209000Y235500D03*
G54D38*
X164000Y176000D03*
G54D56*
X351000Y17500D03*
Y72500D03*
Y89500D03*
Y144500D03*
Y163500D03*
Y218500D03*
X371000Y17500D03*
Y72500D03*
Y89500D03*
Y144500D03*
Y163500D03*
Y218500D03*
G54D57*
X402000Y65000D03*
X401983Y57811D03*
X402000Y42000D03*
X401983Y80811D03*
X402000Y121000D03*
X401983Y113811D03*
X402000Y98000D03*
X401983Y136811D03*
G54D48*
X219000Y235500D03*
X229000D03*
X239000D03*
X249000D03*
G54D39*
X164000Y186000D03*
G54D58*
G01X2000Y258000D02*
Y2000D01*
X443000D01*
Y258000D01*
X2000D01*
G01X0Y0D02*
Y260000D01*
X445000D01*
Y0D01*
X0D01*
G01X287720Y242126D02*
X315280D01*
Y257874D01*
X287720D01*
Y242126D01*
G54D49*
X249000Y145000D03*
Y155000D03*
Y165000D03*
Y175000D03*
Y185000D03*
Y195000D03*
Y205000D03*
X286000Y88000D03*
X276000D03*
M02*
