G04 ================== begin FILE IDENTIFICATION RECORD ==================*
G04 Layout Name:  STM32F103_RAK811_THESISNODE_5.brd*
G04 Film Name:    RAK4600_v101_TOP.art*
G04 File Format:  Gerber RS274X*
G04 File Origin:  Cadence Allegro 17.2-S052*
G04 Origin Date:  Mon Jun 29 19:02:18 2020*
G04 *
G04 Layer:  ETCH/TOP*
G04 Layer:  PIN/TOP*
G04 Layer:  VIA CLASS/TOP*
G04 Layer:  DRAWING FORMAT/TOP*
G04 Layer:  BOARD GEOMETRY/OUTLINE*
G04 Layer:  BOARD GEOMETRY/LOGO*
G04 *
G04 Offset:    (0.00 0.00)*
G04 Mirror:    No*
G04 Mode:      Positive*
G04 Rotation:  0*
G04 FullContactRelief:  No*
G04 UndefLineWidth:     5.00*
G04 ================== end FILE IDENTIFICATION RECORD ====================*
%FSLAX25Y25*MOIN*%
%IR0*IPPOS*OFA0.00000B0.00000*MIA0B0*SFA1.00000B1.00000*%
%ADD20O,.07X.15*%
%ADD19O,.15X.07*%
%ADD14R,.035X.12*%
%ADD17R,.12X.035*%
%ADD21O,.18X.07*%
%ADD35R,.235X.08*%
%ADD40C,.05*%
%ADD48C,.051*%
%ADD22C,.08*%
%ADD11C,.044*%
%ADD41C,.047*%
%ADD39R,.05X.05*%
%ADD25R,.11024X.04724*%
%ADD32R,.08X.08*%
%ADD37R,.04724X.04724*%
%ADD18R,.22441X.06299*%
%ADD53R,.04724X.15748*%
%ADD29O,.12X.16*%
%ADD30R,.12X.16*%
%ADD27R,.022X.04*%
%ADD42C,.11*%
%ADD34R,.025X.05*%
%ADD24R,.032X.035*%
%ADD10C,.13*%
%ADD33R,.05X.045*%
%ADD13R,.035X.032*%
%ADD12R,.045X.05*%
%ADD49R,.08X.08*%
%ADD45R,.021X.067*%
%ADD50R,.08X.08*%
%ADD44R,.03X.068*%
%ADD54R,.068X.03*%
%ADD46R,.01X.04724*%
%ADD43R,.11X.11*%
%ADD38R,.067X.032*%
%ADD15C,.18*%
%ADD47R,.04724X.01*%
%ADD28R,.025X.075*%
%ADD36R,.085X.07*%
%ADD16R,.11811X.14764*%
%ADD23R,.09843X.03543*%
%ADD51R,.02756X.07087*%
%ADD52R,.07087X.02756*%
%ADD26R,.06678X.08464*%
%ADD31R,.08464X.06678*%
%ADD55C,.01*%
%ADD56C,.02*%
%ADD57C,.03*%
%ADD58C,.025*%
%ADD59C,.005*%
%ADD60C,.008*%
%ADD61C,.009*%
%ADD62C,.12004*%
%ADD64C,.22004*%
%ADD63C,.17004*%
G75*
%LPD*%
G75*
G36*
G01X308500Y257999D02*
X442999D01*
Y2001D01*
X335363D01*
G02X335080Y2684I0J400D01*
G01X346698Y14302D01*
G03X347402Y16000I-1698J1699D01*
G01Y30005D01*
X351995Y34598D01*
X387000D01*
G03X388698Y35302I-1J2402D01*
G01X395916Y42519D01*
G02X396598Y42237I282J-283D01*
G01Y40500D01*
G03X398600Y38498I2002J0D01*
G01X412865D01*
X416524Y34839D01*
G03X418336Y33877I2476J2476D01*
G01X418498Y33846D01*
Y31815D01*
G03X420500Y29814I2001J0D01*
G01X431500D01*
G03X433502Y31815I0J2002D01*
G01Y42815D01*
G03X431500Y44816I-2001J0D01*
G01X420500D01*
G03X418609Y43471I0J-2002D01*
G02X417948Y43319I-378J131D01*
G01X416791Y44476D01*
G03X414315Y45502I-2476J-2475D01*
G01X399863D01*
G02X399581Y46184I1J400D01*
G01X403681Y50285D01*
G03X404384Y51983I-1699J1698D01*
G01Y54310D01*
X405383D01*
G03X407170Y55410I0J2002D01*
G01X418294D01*
X418402Y55302D01*
G03X418769Y55001I1699J1697D01*
G03X426000Y49498I7231J1999D01*
G03Y64502I0J7502D01*
G03X419221Y60212I0J-7501D01*
G01X407170D01*
G03X406369Y61053I-1787J-901D01*
G02X406372Y61750I197J348D01*
G03X407402Y63500I-972J1750D01*
G01Y66500D01*
G03X405400Y68502I-2002J0D01*
G01X398600D01*
G03X397184Y67915I0J-2001D01*
G02X396502Y68198I-282J283D01*
G01Y78600D01*
G03X395476Y81076I-3501J0D01*
G01X394552Y82000D01*
X395476Y82924D01*
G03X396502Y85400I-2475J2476D01*
G01Y94802D01*
G02X397184Y95085I400J0D01*
G03X398600Y94498I1416J1414D01*
G01X416920D01*
G03X418336Y93877I2080J2817D01*
G01X418498Y93846D01*
Y91815D01*
G03X420500Y89814I2001J0D01*
G01X431500D01*
G03X433502Y91815I0J2002D01*
G01Y102815D01*
G03X431500Y104816I-2001J0D01*
G01X420500D01*
G03X418498Y102815I0J-2002D01*
G01Y101502D01*
X398600D01*
G03X397184Y100915I0J-2001D01*
G02X396502Y101198I-282J283D01*
G01Y110597D01*
G02X397182Y110882I400J0D01*
G03X398583Y110310I1401J1430D01*
G01X405383D01*
G03X407175Y111420I0J2002D01*
G01X413821D01*
G03X415519Y112123I0J2402D01*
G01X417995Y114598D01*
X418893D01*
G03X426000Y109498I7107J2402D01*
G03Y124502I0J7502D01*
G03X418893Y119402I0J-7502D01*
G01X417000D01*
G03X415302Y118698I1J-2402D01*
G01X412826Y116222D01*
X407165D01*
G03X406369Y117053I-1782J-911D01*
G02X406372Y117750I197J348D01*
G03X407402Y119500I-972J1750D01*
G01Y122500D01*
G03X405400Y124502I-2002J0D01*
G01X398600D01*
G03X397184Y123915I0J-2001D01*
G02X396502Y124198I-282J283D01*
G01Y151498D01*
X398000D01*
G03X400476Y152524I0J3501D01*
G01X404476Y156524D01*
G03X405502Y159000I-2475J2476D01*
G01Y160498D01*
X417865D01*
X418498Y159865D01*
Y151815D01*
G03X420500Y149814I2001J0D01*
G01X431500D01*
G03X433502Y151815I0J2002D01*
G01Y162815D01*
G03X431500Y164816I-2001J0D01*
G01X423450D01*
X421791Y166476D01*
G03X419315Y167502I-2476J-2475D01*
G01X405976D01*
G02X405580Y167960I0J400D01*
G03X405602Y168250I-1980J296D01*
G01Y170355D01*
X409845Y174598D01*
X418893D01*
G03X426000Y169498I7107J2402D01*
G03Y184502I0J7502D01*
G03X418893Y179402I0J-7502D01*
G01X408850D01*
G03X407152Y178698I1J-2402D01*
G01X402205Y173752D01*
X400400D01*
G03X398398Y171750I0J-2002D01*
G01Y168250D01*
G03X398837Y167000I2002J1D01*
G03X398398Y165750I1563J-1251D01*
G01Y162250D01*
G03X398489Y161654I2002J1D01*
G01X398498Y161625D01*
Y160450D01*
X396550Y158502D01*
X389502D01*
Y190550D01*
X398476Y199524D01*
G03X399502Y202000I-2475J2476D01*
G01Y225000D01*
G03X398476Y227476I-3501J0D01*
G01X394476Y231476D01*
G03X392000Y232502I-2476J-2475D01*
G01X388569D01*
G03X387600Y232752I-969J-1753D01*
G01X384400D01*
G03X382398Y230750I0J-2002D01*
G01Y227250D01*
G03X382399Y227207I2001J25D01*
G01Y227002D01*
X378998D01*
Y226716D01*
X378852Y226675D01*
G03X377398Y224750I547J-1925D01*
G01Y222645D01*
X376574Y221821D01*
G02X375961Y221878I-283J283D01*
G03X371000Y224502I-4961J-3378D01*
G03X365197Y220031I0J-6001D01*
G01X365183Y219979D01*
X360302Y215098D01*
G03X359598Y213400I1698J-1699D01*
G01Y126995D01*
X330005Y97402D01*
X302995D01*
X295501Y104895D01*
G02X295703Y105570I283J283D01*
G03X297476Y106524I-703J3430D01*
G01X298950Y107998D01*
X300938D01*
G03X301861Y107353I1562J1252D01*
G01X301998Y107307D01*
Y106998D01*
X308002D01*
Y107307D01*
X308139Y107353D01*
G03X308500Y107516I-639J1897D01*
G03X308861Y107353I1000J1734D01*
G01X308998Y107307D01*
Y106998D01*
X315002D01*
Y107307D01*
X315139Y107353D01*
G03X316062Y107998I-639J1897D01*
G01X319677D01*
G03X322000Y107298I2322J3502D01*
G03Y115702I0J4202D01*
G03X319677Y115002I-1J-4202D01*
G01X316062D01*
G03X314592Y115749I-1561J-1252D01*
G02X314402Y115949I10J200D01*
G01Y119174D01*
G03X314350Y119667I-2402J-4D01*
G03X314683Y120772I-1669J1106D01*
G01Y127858D01*
G03X312681Y129860I-2002J0D01*
G01X305004D01*
G03X303002Y127858I0J-2002D01*
G01Y120772D01*
G03X303149Y120019I2002J0D01*
G03X302598Y118489I1851J-1531D01*
G01Y115949D01*
G02X302408Y115749I-200J0D01*
G03X300938Y115002I91J-1999D01*
G01X297500D01*
G03X295024Y113976I0J-3501D01*
G01X293550Y112502D01*
X293289D01*
G02X293147Y112843I0J200D01*
G01X298237Y117933D01*
G03X298857Y119004I-1698J1698D01*
G03X299919Y120772I-940J1768D01*
G01Y127858D01*
G03X297917Y129860I-2002J0D01*
G01X297740D01*
G02X297598Y130202I-1J200D01*
G01X300698Y133302D01*
G03X301402Y135000I-1698J1699D01*
G01Y167005D01*
X310999Y176602D01*
X322673D01*
G03X324394Y175624I1720J1024D01*
G01X331480D01*
G03X333482Y177626I0J2002D01*
G01Y180382D01*
G03X333164Y181464I-2001J0D01*
G03X333482Y182547I-1684J1083D01*
G01Y185303D01*
G03X333164Y186386I-2002J0D01*
G03X333482Y187468I-1683J1082D01*
G01Y190224D01*
G03X331480Y192226I-2002J0D01*
G01X324394D01*
G03X322392Y190224I0J-2002D01*
G01Y187468D01*
G03X322490Y186850I2001J1D01*
G02X322109Y186326I-381J-124D01*
G01X308182D01*
G03X306484Y185623I0J-2402D01*
G01X292802Y171941D01*
G03X292098Y170243I1698J-1699D01*
G01Y136995D01*
X291505Y136402D01*
X275517D01*
G02X275199Y137044I0J400D01*
G03X275608Y138256I-1591J1212D01*
G01Y141012D01*
G03X275290Y142094I-2001J0D01*
G03X275608Y143177I-1684J1083D01*
G01Y145933D01*
G03X275290Y147016I-2002J0D01*
G03X275608Y148098I-1683J1082D01*
G01Y150854D01*
G03X273606Y152856I-2002J0D01*
G01X266520D01*
G03X265921Y152764I1J-2002D01*
G02X265402Y153146I-119J382D01*
G01Y155649D01*
G02X265921Y156031I400J0D01*
G03X266520Y155940I597J1910D01*
G01X273606D01*
G03X275608Y157941I1J2001D01*
G01Y160697D01*
G03X275290Y161780I-2002J0D01*
G03X275608Y162862I-1683J1082D01*
G01Y165618D01*
G03X275290Y166700I-2001J0D01*
G03X275608Y167783I-1684J1083D01*
G01Y170539D01*
G03X275290Y171622I-2002J0D01*
G03X275608Y172705I-1684J1083D01*
G01Y175461D01*
G03X275290Y176544I-2002J0D01*
G03X275608Y177626I-1683J1082D01*
G01Y180382D01*
G03X275290Y181464I-2001J0D01*
G03X275608Y182547I-1684J1083D01*
G01Y185303D01*
G03X275290Y186386I-2002J0D01*
G03X275608Y187468I-1683J1082D01*
G01Y190224D01*
G03X275290Y191307I-2002J0D01*
G03X275608Y192390I-1684J1083D01*
G01Y195146D01*
G03X275290Y196228I-2001J0D01*
G03X275608Y197311I-1684J1083D01*
G01Y200067D01*
G03X273606Y202068I-2001J0D01*
G01X267914D01*
X263284Y206698D01*
G03X261586Y207402I-1699J-1698D01*
G01X254501D01*
G03X249000Y211002I-5501J-2403D01*
G03X242998Y205000I0J-6002D01*
G03X245252Y200312I6002J0D01*
G02Y199688I-250J-312D01*
G03Y190312I3748J-4688D01*
G02Y189688I-250J-312D01*
G03X242998Y185000I3748J-4688D01*
G03X243412Y182809I6002J0D01*
G01X237302Y176698D01*
G03X236598Y175000I1698J-1699D01*
G01Y161995D01*
X231989Y157386D01*
X222072D01*
X222061Y157573D01*
G03X222005Y157937I-1998J-121D01*
G03X222064Y158421I-1942J482D01*
G01Y159421D01*
G03X222005Y159906I-2001J3D01*
G03X222064Y160390I-1942J482D01*
G01Y161390D01*
G03X221893Y162200I-2001J1D01*
G02X222058Y162707I366J161D01*
G03X222560Y163094I-1233J2118D01*
G01X224361Y164894D01*
G02X224937Y164885I284J-282D01*
G03X225852Y164325I1464J1365D01*
G01X225998Y164284D01*
Y163998D01*
X230002D01*
Y164284D01*
X230148Y164325D01*
G03X231602Y166250I-547J1925D01*
G01Y169750D01*
G03X231550Y170202I-2002J-1D01*
G03X232202Y172450I-3549J2248D01*
G03X223798I-4202J0D01*
G03X224065Y170975I4202J-1D01*
G02X223734Y170437I-374J-141D01*
G03X222267Y169733I267J-2437D01*
G01X219862Y167328D01*
X215452D01*
Y173985D01*
X225733Y184267D01*
G03X226452Y186000I-1732J1734D01*
G01Y209985D01*
X240733Y224267D01*
G03X241452Y226000I-1732J1734D01*
G01Y230021D01*
G03X243688Y231752I-2453J5478D01*
G02X244312I312J-250D01*
G03X249000Y229498I4688J3748D01*
G03Y241502I0J6002D01*
G03X244312Y239248I0J-6002D01*
G02X243688I-312J250D01*
G03X239000Y241502I-4688J-3748D01*
G03X232998Y235500I0J-6002D01*
G03X236548Y230021I6003J0D01*
G01Y227015D01*
X224134Y214601D01*
G02X223452Y214884I-282J283D01*
G01Y228550D01*
G03X222733Y230283I-2451J-1D01*
G01X222461Y230556D01*
X222612Y230707D01*
X222623Y230715D01*
G03X225002Y235500I-3623J4785D01*
G03X219000Y241502I-6002J0D01*
G03X215375Y240284I0J-6003D01*
G02X214778Y240419I-242J319D01*
G03X213000Y241502I-1778J-918D01*
G01X205000D01*
G03X202998Y239500I0J-2002D01*
G01Y231500D01*
G03X205000Y229498I2002J0D01*
G01X205498D01*
Y222000D01*
G03X206524Y219524I3501J0D01*
G01X208498Y217550D01*
Y212076D01*
G02X207999Y211688I-400J-1D01*
G03X207500Y211752I-502J-1938D01*
G01X202500D01*
G03X201500Y211484I1J-2002D01*
G03X200500Y211752I-1001J-1734D01*
G01X195500D01*
G03X194500Y211484I1J-2002D01*
G03X193500Y211752I-1001J-1734D01*
G01X188500D01*
G03X186938Y211002I0J-2002D01*
G01X185000D01*
G03X182524Y209976I0J-3501D01*
G01X181050Y208502D01*
X180911D01*
G02X180519Y208983I0J400D01*
G03X180572Y209500I-2499J517D01*
G03X175468I-2552J0D01*
G03X175521Y208983I2552J0D01*
G02X175129Y208502I-392J-81D01*
G01X151178D01*
G02X150788Y208988I0J400D01*
G03X150844Y209500I-2296J510D01*
G03X146140I-2352J0D01*
G03X146196Y208988I2352J-2D01*
G02X145806Y208502I-390J-86D01*
G01X134171D01*
X121479Y195810D01*
G02X120796Y196093I-283J283D01*
G01Y209000D01*
G03X118795Y211002I-2002J0D01*
G01X116302D01*
X116291Y211191D01*
G03X116196Y211832I-3496J-191D01*
G01X116190Y211855D01*
Y233660D01*
X116921D01*
G03X118922Y235661I0J2001D01*
G01Y242339D01*
G03X116921Y244340I-2001J0D01*
G01X108457D01*
G03X106456Y242339I0J-2001D01*
G01Y235661D01*
G03X108457Y233660I2001J0D01*
G01X109188D01*
Y211002D01*
X106795D01*
G03X104794Y209000I0J-2001D01*
G01Y193000D01*
G03X106795Y190998I2002J0D01*
G01X115702D01*
G02X115985Y190316I0J-400D01*
G01X115671Y190002D01*
X96171D01*
X84498Y178329D01*
Y90829D01*
X83171Y89502D01*
X78002D01*
Y112998D01*
Y117002D01*
Y130671D01*
X80002Y132671D01*
Y150329D01*
X79615Y150715D01*
G02X79898Y151398I283J283D01*
G01X81750D01*
G03X83752Y153400I0J2002D01*
G01Y156600D01*
G03X83538Y157501I-2002J0D01*
G03X83752Y158400I-1788J901D01*
G01Y161600D01*
G03X83002Y163162I-2002J0D01*
G01Y165525D01*
G03X82122Y167647I-3001J-1D01*
G01X81842Y167928D01*
Y169685D01*
G03X79840Y171686I-2001J0D01*
G01X77640D01*
G03X75638Y169685I0J-2002D01*
G01Y165685D01*
G03X76875Y163835I2002J0D01*
G01X76998Y163784D01*
Y163162D01*
G03X76325Y162148I1252J-1561D01*
G01X76284Y162002D01*
X75998D01*
Y159002D01*
X70498D01*
Y157570D01*
G03X70248Y156600I1752J-969D01*
G01Y153400D01*
G03X70498Y152430I2002J-1D01*
G01Y148171D01*
X72998Y145671D01*
Y141002D01*
X68998D01*
X21998D01*
Y134502D01*
X17377D01*
X17348Y134511D01*
G03X16750Y134602I-597J-1911D01*
G01X7250D01*
G03X5248Y132600I0J-2002D01*
G01Y131799D01*
X5235Y131764D01*
G03X4998Y130500I3265J-1266D01*
G01Y128062D01*
G03X4248Y126500I1252J-1562D01*
G01Y121500D01*
G03X6250Y119498I2002J0D01*
G01X10750D01*
G03X12647Y120861I0J2002D01*
G01X12693Y120998D01*
X13002D01*
Y127398D01*
X16750D01*
G03X17348Y127489I1J2002D01*
G01X17377Y127498D01*
X21998D01*
Y125498D01*
X45671D01*
X51998Y119171D01*
Y110671D01*
X60498Y102171D01*
Y89502D01*
X55829D01*
X51329Y94002D01*
X39950D01*
X28976Y104976D01*
G03X26500Y106002I-2476J-2475D01*
G01X17377D01*
X17348Y106011D01*
G03X16750Y106102I-597J-1911D01*
G01X7250D01*
G03X5248Y104100I0J-2002D01*
G01Y103299D01*
X5235Y103264D01*
G03X4998Y102000I3265J-1266D01*
G01Y99562D01*
G03X4248Y98000I1252J-1562D01*
G01Y93000D01*
G03X6250Y90998I2002J0D01*
G01X10750D01*
G03X12647Y92361I0J2002D01*
G01X12693Y92498D01*
X13002D01*
Y98898D01*
X16750D01*
G03X17348Y98989I1J2002D01*
G01X17377Y98998D01*
X25050D01*
X34498Y89550D01*
Y74998D01*
X52329D01*
X56329Y78998D01*
X78998D01*
X83002D01*
X88329D01*
X95002Y85671D01*
Y111998D01*
X115438D01*
G03X115531Y111891I1556J1259D01*
G02X115237Y111220I-294J-271D01*
G01X113818D01*
G03X112120Y110516I1J-2402D01*
G01X97302Y95698D01*
G03X96598Y94000I1698J-1699D01*
G01Y65495D01*
X84902Y53798D01*
G03X84198Y52100I1698J-1699D01*
G01Y51883D01*
X83949D01*
X83905Y51906D01*
G03X81100Y52602I-2805J-5306D01*
G03Y40598I0J-6002D01*
G03X84767Y41848I1J6002D01*
G03X84902Y41702I1829J1556D01*
G01X85216Y41388D01*
X85037Y41208D01*
X84985Y41195D01*
G03X81440Y38549I1565J-5795D01*
G02X80760I-340J210D01*
G03X75650Y41402I-5110J-3150D01*
G03Y29398I0J-6002D01*
G03X80760Y32251I0J6003D01*
G02X81440I340J-210D01*
G03X91660I5110J3150D01*
G02X92340I340J-210D01*
G03X102560I5110J3150D01*
G02X103240I340J-210D01*
G03X108350Y29398I5110J3150D01*
G03X114352Y35400I0J6002D01*
G03X112323Y39899I-6002J0D01*
G02X112588Y40598I265J299D01*
G01X117800D01*
G03X119802Y42600I0J2002D01*
G01Y50600D01*
G03X117800Y52602I-2002J0D01*
G01X109800D01*
G03X107843Y51018I0J-2001D01*
G02X107167Y50821I-391J84D01*
G03X102900Y52602I-4267J-4221D01*
G03X102374Y52579I-1J-6002D01*
G02X102056Y53260I-35J398D01*
G01X105198Y56402D01*
G03X105902Y58100I-1698J1699D01*
G01Y90505D01*
X112816Y97419D01*
G02X113498Y97137I282J-283D01*
G01Y93250D01*
G03X114861Y91353I2002J0D01*
G01X114998Y91307D01*
Y90998D01*
X121002D01*
Y91307D01*
X121139Y91353D01*
G03X122502Y93250I-639J1897D01*
G01Y97750D01*
G03X122466Y98124I-2002J-4D01*
G02X122859Y98598I393J74D01*
G01X123248D01*
Y93750D01*
G03X124098Y92112I2003J0D01*
G01Y91500D01*
G03X124123Y91155I2402J1D01*
G03X123248Y89500I1128J-1655D01*
G01Y84500D01*
G03X125250Y82498I2002J0D01*
G01X136750D01*
G03X137500Y82644I0J2002D01*
G03X138250Y82498I750J1856D01*
G01X149750D01*
G03X150501Y82644I0J2002D01*
G03X151250Y82498I750J1856D01*
G01X155750D01*
G03X157647Y83861I0J2002D01*
G01X157693Y83998D01*
X158002D01*
Y90002D01*
X157693D01*
X157647Y90139D01*
G03X157028Y91040I-1896J-640D01*
G02X157284Y91748I255J308D01*
G01X162750D01*
G03X163541Y91911I0J2001D01*
G02X164098Y91543I157J-368D01*
G01Y81495D01*
X152302Y69698D01*
G03X151598Y68000I1698J-1699D01*
G01Y46197D01*
G02X150843Y46015I-400J1D01*
G03X141050Y52002I-9793J-5016D01*
G03Y29998I0J-11002D01*
G03X150843Y35985I0J11003D01*
G02X151598Y35803I355J-183D01*
G01Y20000D01*
G03X152302Y18302I2402J1D01*
G01X167920Y2684D01*
G02X167637Y2001I-283J-283D01*
G01X2001D01*
Y257999D01*
X294000D01*
Y244000D01*
X297498Y240502D01*
Y236998D01*
X297500D01*
Y225002D01*
X297498D01*
Y220998D01*
X297500D01*
Y218000D01*
X298000Y217500D01*
Y209000D01*
X299000Y208000D01*
X304000D01*
X305000Y209000D01*
Y217500D01*
X305500Y218000D01*
Y240500D01*
X308500Y243500D01*
Y257999D01*
G37*
G36*
G01X135000Y206500D02*
X185000D01*
Y201000D01*
X184500Y200500D01*
X135500D01*
X118000Y183000D01*
X101500D01*
X93000Y174500D01*
Y86500D01*
X87500Y81000D01*
X83002D01*
Y81002D01*
X78998D01*
Y81000D01*
X55500D01*
X51500Y77000D01*
X36500D01*
Y91500D01*
X37000Y92000D01*
X50500D01*
X55000Y87500D01*
X84000D01*
X86500Y90000D01*
Y177500D01*
X97000Y188000D01*
X116500D01*
X119730Y191230D01*
X119755Y191244D01*
G03X120551Y192040I-960J1756D01*
G01X120565Y192065D01*
X135000Y206500D01*
G37*
G36*
G01X72500Y156398D02*
X75500D01*
Y152000D01*
X78000Y149500D01*
Y133500D01*
X76000Y131500D01*
Y117002D01*
X75998D01*
Y112998D01*
X76000D01*
Y111788D01*
X75991Y111758D01*
G03X75798Y110500I4009J-1259D01*
G03X76000Y109213I4201J0D01*
G01Y91500D01*
X62500D01*
Y103000D01*
X54000Y111500D01*
Y120000D01*
X46500Y127500D01*
X24000D01*
Y139000D01*
X68998D01*
Y138998D01*
X73002D01*
Y139000D01*
X74000D01*
X75000Y140000D01*
Y146500D01*
X72500Y149000D01*
Y156398D01*
G37*
G36*
G01X139995Y192598D02*
X153898D01*
Y192361D01*
X153885Y192326D01*
G03X153825Y192148I1864J-728D01*
G01X153784Y192002D01*
X153498D01*
Y187998D01*
X153784D01*
X153825Y187852D01*
G03X155345Y186440I1925J548D01*
G03X155802Y185802I2155J1061D01*
G01X157302Y184302D01*
G03X159000Y183598I1699J1698D01*
G01X160192D01*
G03X167808I3808J2403D01*
G01X170005D01*
X173598Y180005D01*
Y177263D01*
G02X172916Y176981I-400J1D01*
G01X172198Y177698D01*
G03X170500Y178402I-1699J-1698D01*
G01X168508D01*
X168499Y178592D01*
G03X166500Y180502I-1999J-91D01*
G01X161500D01*
G03X159501Y178592I0J-2001D01*
G01X159492Y178402D01*
X159000D01*
G03X157302Y177698I1J-2402D01*
G01X155802Y176198D01*
G03X155345Y175560I1698J-1699D01*
G03X153825Y174148I405J-1960D01*
G01X153784Y174002D01*
X153498D01*
Y169998D01*
X153784D01*
X153825Y169852D01*
G03X155750Y168398I1925J547D01*
G01X156552D01*
G02X156952Y167977I1J-400D01*
G03X156948Y167850I2398J-139D01*
G01Y167200D01*
X156770Y167181D01*
G03X155211Y166113I218J-1990D01*
G02X154647Y165956I-355J184D01*
G03X153600Y166252I-1048J-1706D01*
G01X150400D01*
G03X148398Y164250I0J-2002D01*
G01Y160750D01*
G03X149852Y158825I2001J0D01*
G01X149998Y158784D01*
Y158498D01*
X154002D01*
Y158784D01*
X154148Y158825D01*
G03X154894Y159223I-548J1925D01*
G02X155458Y159176I259J-305D01*
G03X156988Y158466I1529J1291D01*
G01X161712D01*
G03X161930Y158477I8J2001D01*
G02X162073Y158120I21J-199D01*
G03X161286Y156529I1215J-1591D01*
G01Y151805D01*
G03X162314Y150057I2002J1D01*
G02X162474Y149523I-195J-349D01*
G03X162325Y149148I1776J-923D01*
G01X162284Y149002D01*
X161998D01*
Y144998D01*
X162284D01*
X162325Y144852D01*
G03X162462Y144500I1925J547D01*
G03X162325Y144148I1788J-899D01*
G01X162284Y144002D01*
X161998D01*
Y140602D01*
X158250D01*
G03X156563Y139677I0J-2001D01*
G01X156551Y139659D01*
X156394Y139502D01*
X156198Y139698D01*
G03X155560Y140155I-1699J-1698D01*
G03X154148Y141675I-1960J-405D01*
G01X154002Y141716D01*
Y142002D01*
X149998D01*
Y141716D01*
X149852Y141675D01*
G03X148493Y140358I548J-1925D01*
G03X147252Y139698I458J-2358D01*
G01X147244Y139691D01*
G03X146350Y139902I-895J-1791D01*
G01X139650D01*
G03X137648Y137900I0J-2002D01*
G01Y134700D01*
G03X139650Y132698I2002J0D01*
G01X146350D01*
G03X148267Y134124I0J2002D01*
G03X148948Y134602I-1018J2175D01*
G01X149081Y134735D01*
X149219Y134634D01*
G03X150400Y134248I1182J1616D01*
G01X153600D01*
G03X154851Y134688I-1J2002D01*
G03X155128Y134627I654J2311D01*
G02X155451Y134125I-62J-395D01*
G03X155298Y133000I4049J-1124D01*
G03X159500Y128798I4202J0D01*
G03X163702Y132998I0J4202D01*
G02X164102Y133398I400J0D01*
G01X167750D01*
G03X169752Y135400I0J2002D01*
G01Y137042D01*
G02X170356Y137386I400J0D01*
G03X172500Y136798I2144J3615D01*
G03X176670Y140484I0J4202D01*
G02X177212Y140807I397J-50D01*
G03X177719Y140683I725J1866D01*
G01X177898Y140664D01*
Y132294D01*
X164979Y119375D01*
G02X164372Y119423I-283J283D01*
G03X162750Y120252I-1622J-1172D01*
G01X135250D01*
G03X133248Y118250I0J-2002D01*
G01Y113250D01*
G03X133404Y112476I2002J1D01*
G01X133456Y112352D01*
X132323Y111220D01*
X129513D01*
G02X129219Y111891I0J400D01*
G03X129752Y113250I-1469J1360D01*
G01Y118250D01*
G03X127750Y120252I-2002J0D01*
G01X125250D01*
G03X123674Y119484I0J-2001D01*
G02X123133Y119400I-315J246D01*
G03X122639Y119647I-1134J-1650D01*
G01X122502Y119693D01*
Y120002D01*
X116498D01*
Y119693D01*
X116361Y119647D01*
G03X115438Y119002I639J-1897D01*
G01X95002D01*
Y145498D01*
X96431D01*
G03X96852Y145325I966J1753D01*
G01X96998Y145284D01*
Y144998D01*
X101002D01*
Y145284D01*
X101148Y145325D01*
G03X102602Y147250I-547J1925D01*
G01Y150750D01*
G03X102548Y151211I-2002J-1D01*
G01X102522Y151320D01*
X103200Y151998D01*
X104248D01*
Y146000D01*
G03X105201Y143701I3252J1D01*
G01X108201Y140701D01*
G03X110500Y139748I2300J2299D01*
G01X123000D01*
G03X125299Y140701I-1J3252D01*
G01X132299Y147701D01*
G03X133252Y150000I-2299J2300D01*
G01Y162076D01*
G03X133752Y163400I-1503J1324D01*
G01Y166600D01*
G03X131750Y168602I-2002J0D01*
G01X126402D01*
Y179005D01*
X139995Y192598D01*
G37*
G36*
G01X126292Y161398D02*
X126748D01*
Y151347D01*
X121653Y146252D01*
X111847D01*
X110752Y147347D01*
Y154201D01*
G03X111002Y155500I-3252J1299D01*
G01Y161050D01*
X111350Y161398D01*
X113708D01*
G03X114231Y160631I2292J1001D01*
G01X114552Y160310D01*
G03X114248Y159250I1698J-1061D01*
G01Y151750D01*
G03X116250Y149748I2002J0D01*
G01X123750D01*
G03X125752Y151750I0J2002D01*
G01Y159250D01*
G03X125521Y160184I-2002J0D01*
G01X125452Y160314D01*
X125769Y160631D01*
G03X126292Y161398I-1769J1768D01*
G37*
G36*
G01X226799Y88205D02*
G03X227201Y89901I-3799J1796D01*
G02X227884Y90174I400J-9D01*
G01X244873Y73184D01*
G02X244591Y72502I-283J-282D01*
G01X240750D01*
G03X238748Y70500I0J-2002D01*
G01Y63500D01*
G03X239285Y62136I2001J0D01*
G02Y61864I-146J-136D01*
G03X238748Y60500I1464J-1364D01*
G01Y59402D01*
X235000D01*
G03X233302Y58698I1J-2402D01*
G01X228302Y53698D01*
G03X227598Y52000I1698J-1699D01*
G01Y51187D01*
G03X226532Y49765I902J-1787D01*
G01X226502Y49602D01*
X217250D01*
G03X215248Y47600I0J-2002D01*
G01Y44400D01*
G03X216476Y42554I2002J0D01*
G01X216598Y42502D01*
Y31502D01*
X214658D01*
G03X212656Y29500I0J-2002D01*
G01Y18500D01*
G03X214658Y16498I2002J0D01*
G01X225658D01*
G03X227660Y18500I0J2002D01*
G01Y29500D01*
G03X225658Y31502I-2002J0D01*
G01X221948D01*
G03X221856Y31598I-1779J-1613D01*
G01X221402Y32053D01*
Y42398D01*
X226502D01*
X226532Y42235D01*
G03X228500Y40598I1968J364D01*
G01X231500D01*
G03X233502Y42600I0J2002D01*
G01Y49400D01*
G03X232857Y50872I-2002J0D01*
G02X232845Y51449I271J294D01*
G01X235995Y54598D01*
X238748D01*
Y53500D01*
G03X240750Y51498I2002J0D01*
G01X242597D01*
G02X242882Y50818I0J-400D01*
G03X242310Y49417I1430J-1401D01*
G01Y42617D01*
G03X242810Y41294I2000J0D01*
G01Y31212D01*
X242582Y30985D01*
X242462Y31030D01*
G03X239842Y31502I-2619J-7030D01*
G03X247344Y24000I0J-7502D01*
G03X246872Y26620I-7502J1D01*
G01X246827Y26740D01*
X247933Y27847D01*
G03X248812Y29969I-2122J2122D01*
G01Y41294D01*
G03X249312Y42617I-1500J1323D01*
G01Y43628D01*
X249474Y43659D01*
G03X250715Y44319I-458J2358D01*
G01X253698Y47302D01*
G03X254402Y49000I-1698J1699D01*
G01Y51498D01*
X262250D01*
G03X264252Y53500I0J2002D01*
G01Y54598D01*
X268000D01*
G03X269698Y55302I-1J2402D01*
G01X272698Y58302D01*
G03X273402Y60000I-1698J1699D01*
G01Y70000D01*
G03X272698Y71698I-2402J-1D01*
G01X271981Y72416D01*
G02X272263Y73098I283J282D01*
G01X291505D01*
X291761Y72843D01*
G02X291619Y72502I-142J-141D01*
G01X285750D01*
G03X283748Y70500I0J-2002D01*
G01Y63500D01*
G03X284285Y62136I2001J0D01*
G02Y61864I-146J-136D01*
G03X283748Y60500I1464J-1364D01*
G01Y59402D01*
X277000D01*
G03X275302Y58698I1J-2402D01*
G01X271302Y54698D01*
G03X270598Y53000I1698J-1699D01*
G01Y51187D01*
G03X269555Y49871I902J-1787D01*
G02X269097Y49572I-389J95D01*
G03X268750Y49602I-345J-1972D01*
G01X259250D01*
G03X257248Y47600I0J-2002D01*
G01Y44400D01*
G03X258476Y42554I2002J0D01*
G01X258598Y42502D01*
Y31737D01*
X258460Y31598D01*
G03X258368Y31502I1687J-1709D01*
G01X254658D01*
G03X252656Y29500I0J-2002D01*
G01Y18500D01*
G03X254658Y16498I2002J0D01*
G01X265658D01*
G03X267660Y18500I0J2002D01*
G01Y29500D01*
G03X265658Y31502I-2002J0D01*
G01X263402D01*
Y42398D01*
X268750D01*
G03X269097Y42428I2J2002D01*
G02X269555Y42129I69J-394D01*
G03X271500Y40598I1945J470D01*
G01X274500D01*
G03X276502Y42600I0J2002D01*
G01Y49400D01*
G03X275402Y51187I-2002J0D01*
G01Y52005D01*
X277995Y54598D01*
X283748D01*
Y53500D01*
G03X285750Y51498I2002J0D01*
G01X286368D01*
Y51186D01*
X286272Y51128D01*
G03X285310Y49417I1039J-1710D01*
G01Y42617D01*
G03X285810Y41294I2000J0D01*
G01Y34212D01*
X282582Y30985D01*
X282462Y31030D01*
G03X279842Y31502I-2619J-7030D01*
G03X287344Y24000I0J-7502D01*
G03X286872Y26620I-7502J1D01*
G01X286827Y26740D01*
X290933Y30847D01*
G03X291812Y32969I-2122J2122D01*
G01Y41294D01*
G03X292312Y42617I-1500J1323D01*
G01Y43616D01*
X295017D01*
G03X296715Y44319I0J2402D01*
G01X298698Y46302D01*
G03X299402Y48000I-1698J1699D01*
G01Y64237D01*
G02X300084Y64519I400J-1D01*
G01X301302Y63302D01*
G03X303000Y62598I1699J1698D01*
G01X309552D01*
G03X313000Y60798I3448J2402D01*
G03Y69202I0J4202D01*
G03X309610Y67483I0J-4202D01*
G01X309550Y67402D01*
X309281D01*
G02X309139Y67743I0J200D01*
G01X310198Y68802D01*
G03X310735Y69621I-1698J1699D01*
G01X310785Y69748D01*
X319750D01*
G03X321752Y71750I0J2002D01*
G01Y79250D01*
G03X320752Y80983I-2002J0D01*
G03X320198Y81848I-2252J-833D01*
G01X319131Y82916D01*
G02X319413Y83598I283J282D01*
G01X325005D01*
X333598Y75005D01*
Y67000D01*
G03X334302Y65302I2402J1D01*
G01X342302Y57302D01*
G03X344000Y56598I1699J1698D01*
G01X366000D01*
G03X367698Y57302I-1J2402D01*
G01X372698Y62302D01*
G03X373402Y64000I-1698J1699D01*
G01Y66999D01*
G03X376817Y71021I-2402J5501D01*
G01X378345Y72549D01*
G03X379400Y72248I1056J1701D01*
G01X382600D01*
G03X383500Y72462I-1J2002D01*
G03X384400Y72248I901J1788D01*
G01X387600D01*
G03X388849Y72686I-1J2002D01*
G02X389498Y72373I249J-313D01*
G01Y63450D01*
X380550Y54502D01*
X343450D01*
X334976Y62976D01*
G03X332500Y64002I-2476J-2475D01*
G01X332065D01*
X332005Y64070D01*
G03X331139Y64647I-1505J-1320D01*
G01X331002Y64693D01*
Y65002D01*
X324998D01*
Y64693D01*
X324861Y64647D01*
G03X323498Y62750I639J-1897D01*
G01Y58250D01*
G03X323499Y58206I2001J23D01*
G01Y58002D01*
X321752D01*
Y58250D01*
G03X319750Y60252I-2002J0D01*
G01X307250D01*
G03X305248Y58250I0J-2002D01*
G01Y50750D01*
G03X305612Y49600I2002J1D01*
G03X305598Y49350I2387J-259D01*
G01Y48498D01*
X305476Y48446D01*
G03X304248Y46600I774J-1846D01*
G01Y44794D01*
X298460Y39006D01*
G03X297756Y37308I1698J-1699D01*
G01Y31502D01*
X294658D01*
G03X292656Y29500I0J-2002D01*
G01Y18500D01*
G03X294658Y16498I2002J0D01*
G01X305658D01*
G03X307660Y18500I0J2002D01*
G01Y29500D01*
G03X305658Y31502I-2002J0D01*
G01X302560D01*
Y36313D01*
X307644Y41398D01*
X315356D01*
X317440Y39313D01*
Y31107D01*
G03X312340Y24000I2402J-7107D01*
G03X327344I7502J0D01*
G03X322244Y31107I-7502J0D01*
G01Y40308D01*
G03X321540Y42006I-2402J-1D01*
G01X317752Y45794D01*
Y46600D01*
G03X317123Y48057I-2002J0D01*
G02X317397Y48748I274J291D01*
G01X319750D01*
G03X321752Y50750I0J2002D01*
G01Y50998D01*
X323794D01*
X323802Y50808D01*
G03X328000Y46798I4198J192D01*
G03X332202Y51000I0J4202D01*
G03X331502Y53323I-4202J1D01*
G01Y55581D01*
G02X332184Y55864I400J0D01*
G01X339524Y48524D01*
G03X342000Y47498I2476J2475D01*
G01X382000D01*
G03X384476Y48524I0J3501D01*
G01X395476Y59524D01*
G03X396502Y62000I-2475J2476D01*
G01Y62585D01*
X396816D01*
X396874Y62487D01*
G03X397614Y61758I1727J1012D01*
G02X397611Y61061I-197J-348D01*
G03X396582Y59311I972J-1749D01*
G01Y56311D01*
G03X398583Y54310I2001J0D01*
G01X399582D01*
Y52978D01*
X386005Y39402D01*
X371145D01*
G02X370785Y39975I0J400D01*
G03X371202Y41800I-3785J1825D01*
G03X367000Y46002I-4202J0D01*
G03X363552Y44202I0J-4202D01*
G01X349254D01*
G03X347556Y43498I1J-2402D01*
G01X338502Y34444D01*
G03X337798Y32746I1698J-1699D01*
G01Y20195D01*
X328805Y11202D01*
X175695D01*
X162902Y23995D01*
Y51141D01*
G02X163376Y51534I400J0D01*
G03X163750Y51498I378J1966D01*
G01X172250D01*
G03X174252Y53500I0J2002D01*
G01Y54598D01*
X176000D01*
G03X177698Y55302I-1J2402D01*
G01X180698Y58302D01*
G03X181402Y60000I-1698J1699D01*
G01Y72000D01*
G03X180698Y73698I-2402J-1D01*
G01X180470Y73927D01*
G02X180788Y74608I283J283D01*
G03X181000Y74598I219J2392D01*
G01X222005D01*
X223598Y73005D01*
Y62995D01*
X220005Y59402D01*
X219252D01*
Y60500D01*
G03X217250Y62502I-2002J0D01*
G01X208750D01*
G03X208615Y62497I7J-2002D01*
G02X208402Y62696I-13J199D01*
G01Y66150D01*
G03X207698Y67848I-2402J-1D01*
G01X206848Y68698D01*
G03X206252Y69134I-1699J-1697D01*
G01Y70500D01*
G03X204250Y72502I-2002J0D01*
G01X195750D01*
G03X193748Y70500I0J-2002D01*
G01Y63500D01*
G03X194285Y62136I2001J0D01*
G02Y61864I-146J-136D01*
G03X193748Y60500I1464J-1364D01*
G01Y59402D01*
X190700D01*
G03X189002Y58698I1J-2402D01*
G01X182302Y51998D01*
G03X181806Y51277I1697J-1699D01*
G03X180555Y49871I694J-1877D01*
G02X180097Y49572I-389J95D01*
G03X179750Y49602I-345J-1972D01*
G01X170250D01*
G03X168248Y47600I0J-2002D01*
G01Y44400D01*
G03X169476Y42554I2002J0D01*
G01X169598Y42502D01*
Y32158D01*
G03X170302Y30460I2402J1D01*
G01X172656Y28105D01*
Y18500D01*
G03X174658Y16498I2002J0D01*
G01X185658D01*
G03X187660Y18500I0J2002D01*
G01Y29500D01*
G03X185658Y31502I-2002J0D01*
G01X176053D01*
X174402Y33153D01*
Y42398D01*
X179750D01*
G03X180097Y42428I2J2002D01*
G02X180555Y42129I69J-394D01*
G03X182500Y40598I1945J470D01*
G01X185500D01*
G03X187502Y42600I0J2002D01*
G01Y49400D01*
G03X187372Y50109I-2002J-1D01*
G01X187326Y50230D01*
X191695Y54598D01*
X193748D01*
Y53500D01*
G03X195750Y51498I2002J0D01*
G01X196597D01*
G02X196882Y50818I0J-400D01*
G03X196310Y49417I1430J-1401D01*
G01Y42617D01*
G03X196764Y41347I2001J-1D01*
G01X196810Y41292D01*
Y41117D01*
G03X196839Y40700I3001J-1D01*
G01X196840Y40687D01*
Y30875D01*
G03X192340Y24000I3002J-6875D01*
G03X207344I7502J0D01*
G03X202844Y30875I-7502J0D01*
G01Y41086D01*
G03X202834Y41319I-3001J-12D01*
G03X203312Y42617I-1523J1298D01*
G01Y43616D01*
X204017D01*
G03X205715Y44319I0J2402D01*
G01X207698Y46302D01*
G03X208402Y48000I-1698J1699D01*
G01Y51304D01*
G02X208615Y51503I200J0D01*
G03X208750Y51498I142J1997D01*
G01X217250D01*
G03X219252Y53500I0J2002D01*
G01Y54598D01*
X221000D01*
G03X222698Y55302I-1J2402D01*
G01X227698Y60302D01*
G03X228402Y62000I-1698J1699D01*
G01Y74000D01*
G03X227698Y75698I-2402J-1D01*
G01X224698Y78698D01*
G03X224591Y78799I-1701J-1695D01*
G02X224856Y79498I265J299D01*
G01X225750D01*
G03X227647Y80861I0J2002D01*
G01X227693Y80998D01*
X228002D01*
Y87002D01*
X227693D01*
X227647Y87139D01*
G03X226799Y88205I-1897J-639D01*
G37*
G36*
G01X162902Y68505D02*
X170786Y76390D01*
G02X171416Y76306I283J-283D01*
G03X171802Y75802I2083J1195D01*
G01X176598Y71005D01*
Y60995D01*
X175005Y59402D01*
X174252D01*
Y60500D01*
G03X172250Y62502I-2002J0D01*
G01X163750D01*
G03X163376Y62466I4J-2002D01*
G02X162902Y62859I-74J393D01*
G01Y68505D01*
G37*
G36*
G01X163995Y169098D02*
X168505D01*
X169598Y168005D01*
Y160000D01*
G03X170302Y158302I2402J1D01*
G01X170776Y157828D01*
G02X170625Y157167I-283J-283D01*
G03X170403Y157077I790J-2268D01*
G02X169864Y157288I-169J363D01*
G03X168012Y158530I-1852J-760D01*
G01X163288D01*
G03X163070Y158519I-8J-2001D01*
G02X162927Y158876I-21J199D01*
G03X163714Y160467I-1215J1591D01*
G01Y165191D01*
G03X162615Y166977I-2001J0D01*
G02X162513Y167617I181J357D01*
G01X163995Y169098D01*
G37*
G36*
G01X179402Y112005D02*
X190995Y123598D01*
G02X191678Y123316I283J-283D01*
G01Y122074D01*
X186302Y116698D01*
G03X185598Y115000I1698J-1699D01*
G01Y110027D01*
G03X184948Y108550I1353J-1477D01*
G01Y101850D01*
G03X186269Y99968I2001J0D01*
G01X186310Y99952D01*
X186483Y99780D01*
X186105Y99402D01*
X180000D01*
G03X179823Y99395I6J-2402D01*
G02X179395Y99823I-29J399D01*
G03X179402Y100000I-2395J183D01*
G01Y112005D01*
G37*
G36*
G01X192610Y168337D02*
G03X193094Y168397I-2J2002D01*
G03X193579Y168337I486J1942D01*
G01X210327D01*
X210347D01*
G02X210548Y168137I1J-200D01*
G01Y162000D01*
G03X211267Y160267I2451J1D01*
G01X212377Y159157D01*
G03X213211Y158609I1735J1732D01*
G01X213338Y158559D01*
Y158421D01*
G03X213397Y157937I2001J-2D01*
G03X213338Y157453I1942J-482D01*
G01Y156453D01*
G03X213397Y155968I2001J-3D01*
G03X213338Y155484I1942J-482D01*
G01Y154484D01*
G03X213397Y154000I2001J-2D01*
G03X213338Y153516I1942J-482D01*
G01Y152516D01*
G03X213397Y152032I2001J-2D01*
G03X213338Y151547I1942J-482D01*
G01Y150547D01*
G03X213397Y150063I2001J-2D01*
G03X213338Y149579I1942J-482D01*
G01Y148579D01*
G03X213397Y148094I2001J-3D01*
G03X213338Y147610I1942J-482D01*
G01Y146610D01*
G03X213397Y146126I2001J-2D01*
G03X213338Y145642I1942J-482D01*
G01Y144642D01*
G03X213397Y144158I2001J-2D01*
G03X213338Y143673I1942J-482D01*
G01Y142673D01*
G03X213775Y141425I2001J0D01*
G03X213198Y139300I3625J-2125D01*
G03X213343Y138205I4202J-1D01*
G02X212957Y137700I-386J-105D01*
G01X212336D01*
X212317Y137879D01*
G03X210327Y139662I-1990J-219D01*
G01X209327D01*
G03X207992Y139152I0J-2002D01*
G02X207725I-134J149D01*
G03X206390Y139663I-1336J-1491D01*
G01X187673D01*
G03X185683Y137879I0J-2002D01*
G01X185663Y137700D01*
X185299D01*
G03X183601Y136997I0J-2402D01*
G01X183383Y136780D01*
G02X182700Y137062I-283J283D01*
G01Y140664D01*
X182879Y140683D01*
G03X184662Y142673I-219J1990D01*
G01Y143673D01*
G03X184603Y144158I-2001J3D01*
G03X184662Y144642I-1942J482D01*
G01Y145642D01*
G03X184603Y146126I-2001J2D01*
G03X184662Y146610I-1942J482D01*
G01Y147610D01*
G03X184603Y148094I-2001J2D01*
G03X184662Y148579I-1942J482D01*
G01Y149579D01*
G03X184591Y150109I-2014J0D01*
G02X184977Y150614I386J105D01*
G01X185516D01*
G03X187214Y151318I-1J2402D01*
G01X187759Y151863D01*
X187859Y151847D01*
G03X188500Y151798I640J4153D01*
G03X192702Y156000I0J4202D01*
G03X189743Y160014I-4202J0D01*
G02X189613Y160709I119J382D01*
G03X191202Y164000I-2614J3291D01*
G03X190139Y166794I-4203J0D01*
G03X190574Y168140I-1966J1379D01*
G01X190577Y168337D01*
X192610D01*
G37*
G36*
G01X185329Y198498D02*
X185816Y198985D01*
G02X186498Y198702I282J-283D01*
G01Y198250D01*
G03X188500Y196248I2002J0D01*
G01X192105D01*
X192598Y195755D01*
Y193584D01*
G03X191398Y191750I801J-1834D01*
G01Y188250D01*
G03X191399Y188207I2001J25D01*
G01Y188002D01*
X187998D01*
Y187716D01*
X187852Y187675D01*
G03X187484Y187530I546J-1926D01*
G02X186902Y187885I-182J356D01*
G01Y188999D01*
G03X186198Y190697I-2402J-1D01*
G01X179080Y197816D01*
G02X179362Y198498I283J282D01*
G01X185329D01*
G37*
G36*
G01X221875Y140772D02*
X225740D01*
X232598Y133913D01*
Y126913D01*
G02X231916Y126631I-400J1D01*
G01X227348Y131198D01*
G03X225650Y131902I-1699J-1698D01*
G01X222885D01*
G02X222530Y132484I1J400D01*
G03X222675Y132852I-1781J914D01*
G01X222716Y132998D01*
X223002D01*
Y137002D01*
X222716D01*
X222675Y137148D01*
G03X221515Y138450I-1925J-548D01*
G03X221602Y139300I-4115J851D01*
G03X221487Y140278I-4202J2D01*
G02X221875Y140772I389J94D01*
G37*
G36*
G01X251252Y70598D02*
X267005D01*
X268598Y69005D01*
Y60995D01*
X267005Y59402D01*
X264252D01*
Y60500D01*
G03X262250Y62502I-2002J0D01*
G01X254402D01*
Y65150D01*
G03X253698Y66848I-2402J-1D01*
G01X251848Y68698D01*
G03X251252Y69134I-1699J-1697D01*
G01Y70598D01*
G37*
G36*
G01X245402Y111995D02*
Y121440D01*
X245644D01*
X245683Y121423D01*
G03X245861Y121353I821J1826D01*
G01X245998Y121307D01*
Y120998D01*
X251399D01*
Y120793D01*
G03X251398Y120750I2000J-68D01*
G01Y117250D01*
G03X251489Y116654I2002J1D01*
G01X251498Y116625D01*
Y115824D01*
X251467Y115774D01*
G03X250798Y113500I3533J-2275D01*
G03X254110Y109393I4202J0D01*
G01X254167Y109381D01*
X257024Y106524D01*
G03X257322Y106258I2477J2475D01*
G02X257198Y105902I-124J-156D01*
G01X251495D01*
X245402Y111995D01*
G37*
G36*
G01X277163Y96098D02*
X287505D01*
X298019Y85584D01*
G02X297737Y84902I-283J-282D01*
G01X282495D01*
X281589Y85808D01*
X281633Y85928D01*
G03X282002Y88000I-5633J2072D01*
G03X278315Y93537I-6001J0D01*
G03X277698Y94598I-2315J-637D01*
G01X276881Y95416D01*
G02X277163Y96098I283J282D01*
G37*
G36*
G01X387600Y145248D02*
G03X388849Y145686I-1J2002D01*
G02X389498Y145373I249J-313D01*
G01Y86850D01*
X388283Y85635D01*
X388169Y85669D01*
G03X387600Y85752I-570J-1919D01*
G01X384400D01*
G03X382398Y83750I0J-2002D01*
G01Y80250D01*
G03X382399Y80207I2001J25D01*
G01Y80002D01*
X378998D01*
Y79716D01*
X378852Y79675D01*
G03X377451Y78206I548J-1925D01*
G03X376702Y77698I949J-2206D01*
G01X375779Y76775D01*
G02X375215Y76773I-283J283D01*
G03X371000Y78502I-4215J-4273D01*
G03X364998Y72500I0J-6002D01*
G03X368598Y66999I6003J0D01*
G01Y64995D01*
X365005Y61402D01*
X344995D01*
X338402Y67995D01*
Y76000D01*
G03X337698Y77698I-2402J-1D01*
G01X328481Y86916D01*
G02X328763Y87598I283J282D01*
G01X333829D01*
G03X335527Y88302I-1J2402D01*
G01X372698Y125473D01*
G03X373402Y127171I-1698J1699D01*
G01Y138999D01*
G03X377002Y144500I-2403J5501D01*
G03X376787Y146092I-6002J0D01*
G02X377173Y146598I385J106D01*
G01X377503D01*
X377554Y146476D01*
G03X379400Y145248I1846J774D01*
G01X382600D01*
G03X383500Y145462I-1J2002D01*
G03X384400Y145248I901J1788D01*
G01X387600D01*
G37*
G36*
G01X389976Y225498D02*
X390550D01*
X392498Y223550D01*
Y203450D01*
X383524Y194476D01*
G03X382498Y192000I2475J-2476D01*
G01Y157375D01*
X382489Y157346D01*
G03X382398Y156750I1911J-597D01*
G01Y153250D01*
G03X382399Y153207I2001J25D01*
G01Y153002D01*
X378998D01*
Y152716D01*
X378852Y152675D01*
G03X377554Y151524I548J-1925D01*
G01X377503Y151402D01*
X375500D01*
G03X373802Y150698I1J-2402D01*
G01X373191Y150088D01*
G03X371000Y150502I-2191J-5588D01*
G03X364998Y144500I0J-6002D01*
G03X368598Y138999I6003J0D01*
G01Y128166D01*
X332834Y92402D01*
X332736D01*
G02X332488Y93115I0J400D01*
G03X332698Y93302I-1489J1884D01*
G01X363698Y124302D01*
G03X364402Y126000I-1698J1699D01*
G01Y212405D01*
X366221Y214225D01*
G02X366785Y214227I283J-283D01*
G03X371000Y212498I4215J4273D01*
G03X376448Y215982I0J6002D01*
G01X376502Y216098D01*
X376650D01*
G03X378348Y216802I-1J2402D01*
G01X380795Y219248D01*
X382600D01*
G03X383500Y219462I-1J2002D01*
G03X384400Y219248I901J1788D01*
G01X387600D01*
G03X389602Y221250I0J2002D01*
G01Y224750D01*
G03X389580Y225040I-2002J-6D01*
G02X389976Y225498I396J58D01*
G37*
%LPC*%
G75*
G36*
G01X278396Y210142D02*
Y217228D01*
G02X280398Y219230I2002J0D01*
G01X283154D01*
G02X285156Y217228I0J-2002D01*
G01Y210142D01*
G02X283154Y208140I-2002J0D01*
G01X280398D01*
G02X278396Y210142I0J2002D01*
G37*
G36*
G01X307924D02*
Y217228D01*
G02X309925Y219230I2001J1D01*
G01X312681D01*
G02X314682Y217228I0J-2001D01*
G01Y210142D01*
G02X312681Y208140I-2001J-1D01*
G01X309925D01*
G02X307924Y210142I0J2001D01*
G37*
G36*
G01X322392Y167783D02*
Y170539D01*
G02X324394Y172540I2001J0D01*
G01X331480D01*
G02X333482Y170539I1J-2001D01*
G01Y167783D01*
G02X333164Y166700I-2002J0D01*
G02X333482Y165618I-1683J-1082D01*
G01Y162862D01*
G02X333164Y161780I-2001J0D01*
G02X333482Y160697I-1684J-1083D01*
G01Y157941D01*
G02X333164Y156858I-2002J0D01*
G02X333482Y155776I-1683J-1082D01*
G01Y153020D01*
G02X333164Y151937I-2002J0D01*
G02X333482Y150854I-1684J-1083D01*
G01Y148098D01*
G02X333164Y147016I-2001J0D01*
G02X333482Y145933I-1684J-1083D01*
G01Y143177D01*
G02X331480Y141176I-2001J0D01*
G01X324394D01*
G02X322392Y143177I-1J2001D01*
G01Y145933D01*
G02X322710Y147016I2002J0D01*
G02X322392Y148098I1683J1082D01*
G01Y150854D01*
G02X322710Y151937I2002J0D01*
G02X322392Y153020I1684J1083D01*
G01Y155776D01*
G02X322710Y156858I2001J0D01*
G02X322392Y157941I1684J1083D01*
G01Y160697D01*
G02X322710Y161780I2002J0D01*
G02X322392Y162862I1683J1082D01*
G01Y165618D01*
G02X322710Y166700I2001J0D01*
G02X322392Y167783I1684J1083D01*
G37*
G36*
G01X90078Y237718D02*
Y242339D01*
G02X92079Y244340I2001J0D01*
G01X100543D01*
G02X102544Y242339I0J-2001D01*
G01Y235661D01*
G02X100543Y233660I-2001J0D01*
G01X95922D01*
X90787Y228524D01*
G02X88311Y227498I-2476J2475D01*
G01X83950D01*
X75476Y219024D01*
G02X73000Y217998I-2476J2475D01*
G01X64243D01*
G02X60000Y215998I-4243J3501D01*
G01X49000D01*
G02X48818Y216002I30J5501D01*
G03X48612Y215802I-6J-200D01*
G01Y212110D01*
G02X47586Y209634I-3501J0D01*
G01X22208Y184256D01*
G02X20752Y183382I-2476J2476D01*
G01Y180838D01*
G02X20396Y179699I-2002J1D01*
G01Y173024D01*
X23074D01*
X43525Y193476D01*
G02X46001Y194502I2476J-2475D01*
G01X71625D01*
X71654Y194511D01*
G02X72250Y194602I597J-1911D01*
G01X75750D01*
G02X77675Y193148I0J-2001D01*
G01X77716Y193002D01*
X78002D01*
Y189602D01*
X81750D01*
G02X83752Y187600I0J-2002D01*
G01Y184400D01*
G02X83001Y182837I-2002J0D01*
G02X82122Y180778I-3001J64D01*
G01X81836Y180491D01*
X81840Y180403D01*
G02X81842Y180315I-2000J-89D01*
G01Y176315D01*
G02X79840Y174313I-2002J0D01*
G01X74002D01*
Y172498D01*
X67976D01*
G03X67580Y172040I0J-400D01*
G02X67602Y171750I-1980J-296D01*
G01Y170686D01*
X68427D01*
G02X70160Y171686I1733J-1002D01*
G01X72360D01*
G02X74362Y169685I1J-2001D01*
G01Y165685D01*
G02X72360Y163684I-2002J1D01*
G01X70160D01*
G02X68427Y164684I0J2002D01*
G01X66315D01*
G02X64193Y165563I0J3001D01*
G01X63507Y166248D01*
X62400D01*
G02X60398Y168250I0J2002D01*
G01Y171750D01*
G02X60420Y172040I2002J-6D01*
G03X60024Y172498I-396J58D01*
G01X50329D01*
X50002Y172171D01*
Y148498D01*
X22998D01*
Y164829D01*
X23508Y165339D01*
G03X23225Y166022I-283J283D01*
G01X18502D01*
Y163903D01*
G02X19002Y162100I-3001J-1803D01*
G01Y161071D01*
X19024Y161027D01*
G02X19252Y160100I-1774J-928D01*
G01Y156900D01*
G02X17250Y154898I-2002J0D01*
G01X13502D01*
Y148498D01*
X13193D01*
X13147Y148361D01*
G02X11250Y146998I-1897J639D01*
G01X6750D01*
G02X4748Y149000I0J2002D01*
G01Y154000D01*
G02X5498Y155562I2002J0D01*
G01Y158000D01*
G02X5735Y159264I3502J-2D01*
G01X5748Y159299D01*
Y160100D01*
G02X7750Y162102I2002J0D01*
G01X11100D01*
G03X11500Y162512I0J400D01*
G02X11498Y162600I3499J124D01*
G01Y169523D01*
G02X12524Y171999I3501J0D01*
G01X13392Y172867D01*
Y180092D01*
X13379Y180126D01*
G02X13248Y180838I1871J712D01*
G01Y192838D01*
G02X15250Y194840I2002J0D01*
G01X18750D01*
G02X20659Y193438I0J-2001D01*
G03X21324Y193276I382J120D01*
G01X41608Y213560D01*
Y217610D01*
G02X42634Y220086I3501J0D01*
G01X43523Y220975D01*
X43516Y221067D01*
G02X43498Y221500I5484J445D01*
G02X49000Y227002I5502J0D01*
G01X60000D01*
G02X64243Y225002I0J-5501D01*
G01X71550D01*
X80024Y233476D01*
G02X82500Y234502I2476J-2475D01*
G01X86861D01*
X90078Y237718D01*
G37*
G54D62*
X351000Y218500D03*
Y144500D03*
X371000Y17500D03*
Y89500D03*
X351000Y72500D03*
X371000Y163500D03*
G54D64*
X42950Y41000D03*
G54D63*
X431000Y245500D03*
X428000Y13000D03*
X13000Y14000D03*
X14000Y246000D03*
%LPD*%
G75*
G36*
G01X48498Y187498D02*
X58002D01*
X65500Y180000D01*
X71898D01*
Y176315D01*
G03X71991Y175714I2002J2D01*
G01X72000Y175685D01*
Y174500D01*
X49500D01*
X48000Y173000D01*
Y150500D01*
X25000D01*
Y164000D01*
X48498Y187498D01*
G37*
G54D10*
X13000Y14000D03*
X14000Y246000D03*
X428000Y13000D03*
X431000Y245500D03*
G54D11*
X17000Y64000D03*
X15500Y89500D03*
X17000Y84000D03*
X15500Y117500D03*
X16000Y146500D03*
X37000Y64000D03*
X28500Y114500D03*
X57000Y24000D03*
X77000D03*
X57000Y64000D03*
X77000D03*
X57000Y44000D03*
X67705Y70795D03*
X65000Y106500D03*
X73000D03*
X65000Y99500D03*
X73000D03*
X80000Y110500D03*
X53000Y153000D03*
X61500D03*
X52500Y145000D03*
X70000Y160000D03*
X53000D03*
X61500D03*
X97000Y24000D03*
X81000Y73000D03*
X99000Y139000D03*
X107500Y129500D03*
X85000Y191000D03*
X117000Y24000D03*
X137000D03*
X117000Y64000D03*
X137000D03*
X117000Y79000D03*
X137000D03*
X131500Y122298D03*
X112500Y129500D03*
X117500D03*
X122500D03*
X112500Y150500D03*
X137000Y157000D03*
X136500Y172000D03*
X127500Y219500D03*
X135500D03*
X160500Y81000D03*
X146500Y157000D03*
X152500Y150000D03*
X159500Y133000D03*
X167000Y167500D03*
X146000Y172000D03*
X143500Y189500D03*
X141500Y231500D03*
X174000Y67000D03*
X183000Y112000D03*
X193000Y111000D03*
X187500Y149500D03*
X188500Y156000D03*
X172500Y141000D03*
X193000Y163000D03*
X187000Y164000D03*
X180000Y176500D03*
X190000Y194000D03*
X182000Y203800D03*
X175000Y202000D03*
X174500Y232000D03*
X221000Y67000D03*
X223000Y90000D03*
X213000Y111250D03*
X203000Y111000D03*
X229450Y133345D03*
X207858Y141000D03*
X206000Y153000D03*
X217400Y139300D03*
X206000Y162500D03*
X228000Y172450D03*
X232000Y77000D03*
X248500Y113500D03*
X255000D03*
X233000Y162000D03*
X265000Y67000D03*
X264000Y117000D03*
X275000Y123000D03*
X277898Y154398D03*
X287000Y154000D03*
Y174000D03*
X286697Y206197D03*
X287000Y194000D03*
X283000Y244000D03*
X288500Y235000D03*
Y224500D03*
X283000Y254000D03*
X301189Y48189D03*
X313000Y65000D03*
X318000Y117500D03*
X300000Y118000D03*
X317500Y104500D03*
X312000Y154000D03*
Y174000D03*
X316224Y207276D03*
X306382Y206618D03*
X296539Y206539D03*
X291618Y206118D03*
X312000Y194000D03*
X310000Y224500D03*
Y235000D03*
X319500Y244000D03*
Y254000D03*
X328000Y51000D03*
X344500Y89500D03*
X325000Y74000D03*
X332000Y119000D03*
X347000D03*
X322000Y111500D03*
X320500Y140500D03*
X345500Y163500D03*
X320500Y174083D03*
X336732Y193768D03*
X337000Y201500D03*
X358000Y23000D03*
X367000Y41800D03*
Y104000D03*
X379000Y159000D03*
X392000Y24000D03*
X381000Y89000D03*
X401983Y84983D03*
X382000Y119000D03*
Y104000D03*
X401983Y141983D03*
X382000Y134000D03*
X381000Y233000D03*
G54D20*
X36000Y233300D03*
G54D12*
X15500Y95500D03*
X8500D03*
X15500Y124000D03*
X8500D03*
X16000Y151500D03*
X9000D03*
X127500Y87000D03*
X134500D03*
X160500D03*
X153500D03*
X147500D03*
X140500D03*
X223500Y84000D03*
X230500D03*
G54D30*
X112795Y201000D03*
G54D21*
X54500Y221500D03*
G54D31*
X96311Y239000D03*
X112689D03*
G54D13*
X9000Y102500D03*
X15000D03*
X9000Y131000D03*
X15000D03*
X9500Y158500D03*
X15500D03*
X74000Y115000D03*
Y155000D03*
Y160000D03*
Y191000D03*
Y186000D03*
X80000Y115000D03*
Y155000D03*
Y160000D03*
Y191000D03*
Y186000D03*
X130000Y165000D03*
X124000D03*
X110000D03*
X116000D03*
X166000Y147000D03*
X160000D03*
X166000Y142000D03*
X160000D03*
X166000Y137000D03*
X160000D03*
X151500Y172000D03*
X157500D03*
X151500Y190000D03*
X157500D03*
X178000Y46000D03*
X172000D03*
X225000D03*
X219000D03*
Y135000D03*
X225000D03*
X267000Y46000D03*
X261000D03*
X308000Y45000D03*
X314000D03*
X301500Y223000D03*
X295500D03*
X301500Y239000D03*
X295500D03*
G54D22*
X75650Y35400D03*
X81100Y46600D03*
X70200D03*
X108350Y35400D03*
X97450D03*
X86550D03*
X102900Y46600D03*
X92000D03*
X219000Y235500D03*
X229000D03*
X249000Y145000D03*
Y155000D03*
Y165000D03*
Y175000D03*
Y185000D03*
Y195000D03*
Y205000D03*
X239000Y235500D03*
X249000D03*
X286000Y88000D03*
X276000D03*
X351000Y17500D03*
Y72500D03*
Y89500D03*
Y144500D03*
Y163500D03*
Y218500D03*
X371000Y17500D03*
Y72500D03*
Y89500D03*
Y144500D03*
Y163500D03*
Y218500D03*
G54D40*
X164000Y186000D03*
G54D23*
X67705Y93555D03*
Y84500D03*
Y75445D03*
G54D50*
X266000Y88000D03*
G54D32*
X113800Y46600D03*
X209000Y235500D03*
G54D41*
X148492Y209500D03*
G54D14*
X17000Y186838D03*
Y210162D03*
G54D60*
G01X102900Y46600D02*
X97500Y41200D01*
X88800D01*
X86600Y43400D01*
Y52100D01*
X99000Y64500D01*
Y94000D01*
X113818Y108818D01*
X133318D01*
X136500Y112000D01*
Y115750D01*
G01X92000Y46600D02*
X103500Y58100D01*
Y91500D01*
X117000Y105000D01*
X137500D01*
X141500Y109000D01*
Y115750D01*
G01X134500Y87000D02*
Y90850D01*
X136500Y92850D01*
Y96250D01*
G01X127500Y87000D02*
Y90500D01*
X126500Y91500D01*
Y96250D01*
G01X131500D02*
Y99650D01*
X130150Y101000D01*
X120000D01*
X118000Y99000D01*
Y95500D01*
G01X192110Y172701D02*
Y175575D01*
X190185Y177500D01*
X185500D01*
X182700Y180300D01*
Y187301D01*
X175001Y195000D01*
X139000D01*
X124000Y180000D01*
Y165000D01*
G01X116000D02*
Y176001D01*
X137999Y198000D01*
X175499D01*
X184500Y188999D01*
Y182000D01*
X187000Y179500D01*
X190731D01*
X194079Y176152D01*
Y172701D01*
G01X190142Y135299D02*
Y131142D01*
X173000Y114000D01*
Y103000D01*
X166500Y96500D01*
Y80500D01*
X154000Y68000D01*
Y20000D01*
X170000Y4000D01*
X333000D01*
X345000Y16000D01*
Y31000D01*
X351000Y37000D01*
X387000D01*
X401983Y51983D01*
Y57811D01*
G01X192110Y135299D02*
Y128110D01*
X177000Y113000D01*
Y100000D01*
X170000Y93000D01*
Y79000D01*
X160500Y69500D01*
Y23000D01*
X174700Y8800D01*
X329800D01*
X340200Y19200D01*
Y32746D01*
X349254Y41800D01*
X367000D01*
G01X140500Y87000D02*
Y91850D01*
X141500Y92850D01*
Y96250D01*
G01X153500Y87000D02*
Y90850D01*
X151500Y92850D01*
Y96250D01*
G01X147500Y87000D02*
Y91850D01*
X146500Y92850D01*
Y96250D01*
G01X180299Y143173D02*
Y131299D01*
X166000Y117000D01*
Y113000D01*
X163000Y110000D01*
X153000D01*
X151500Y111500D01*
Y115750D01*
G01X146500D02*
Y111500D01*
X151000Y107000D01*
X166000D01*
X170000Y111000D01*
Y115500D01*
X183000Y128500D01*
Y133000D01*
X185299Y135299D01*
X188173D01*
G01X160000Y137000D02*
X155500D01*
X154500Y138000D01*
X152000D01*
G01D02*
X148950D01*
X147250Y136300D01*
X143000D01*
G01X159500Y133000D02*
Y136500D01*
X160000Y137000D01*
G01X166000D02*
Y142000D01*
G01X172500Y141000D02*
X170000D01*
X169000Y142000D01*
X166000D01*
G01Y147000D02*
Y150555D01*
X165650Y150905D01*
Y154167D01*
G01X180299Y154984D02*
X177037D01*
X176953Y154900D01*
X171416D01*
X170683Y154167D01*
X165650D01*
G01X164000Y159567D02*
X163567D01*
G01D02*
X161500Y157500D01*
G01D02*
X161000D01*
G01X152000Y162500D02*
X155759D01*
X156088Y162829D01*
X159350D01*
G01D02*
Y167850D01*
X163000Y171500D01*
X169500D01*
X172000Y169000D01*
Y160000D01*
X175047Y156953D01*
X180299D01*
G01X157500Y172000D02*
Y174500D01*
X159000Y176000D01*
X164000D01*
G01X180299Y158921D02*
X176080D01*
X174200Y160801D01*
Y172300D01*
X170500Y176000D01*
X164000D01*
G01Y186000D02*
X159000D01*
X157500Y187500D01*
Y190000D01*
G01X180299Y160890D02*
X177037D01*
X176969Y160958D01*
X176801D01*
X176000Y161759D01*
Y181000D01*
X171000Y186000D01*
X164000D01*
G01X172000Y46000D02*
Y32158D01*
X180158Y24000D01*
G01X178000Y46000D02*
X184000D01*
G01X200000Y57000D02*
X190700D01*
X184000Y50300D01*
Y46000D01*
G01X193000Y105200D02*
Y102900D01*
X187100Y97000D01*
X180000D01*
X173500Y90500D01*
Y77500D01*
X179000Y72000D01*
Y60000D01*
X176000Y57000D01*
X168000D01*
G01X213000D02*
X221000D01*
X226000Y62000D01*
Y74000D01*
X223000Y77000D01*
X181000D01*
X177000Y81000D01*
Y88000D01*
X183000Y94000D01*
X197000D01*
X203000Y100000D01*
Y105200D01*
G01X188000D02*
Y115000D01*
X194079Y121079D01*
Y135299D01*
G01X196047D02*
Y117952D01*
X198000Y115999D01*
Y105200D01*
G01X193000D02*
Y111000D01*
G01X180299Y151047D02*
X185853D01*
X185900Y151000D01*
X186000D01*
X187500Y149500D01*
G01X188500Y156000D02*
X185516Y153016D01*
X180299D01*
G01X172500Y141000D02*
Y144950D01*
X176629Y149079D01*
X180299D01*
G01X187000Y164000D02*
Y167100D01*
X187950Y168050D01*
X188050D01*
X188173Y168173D01*
Y172701D01*
G01X190000Y184000D02*
Y182777D01*
X196047Y176730D01*
Y172701D01*
G01X198016D02*
Y178334D01*
X195000Y181350D01*
Y184000D01*
G01X180000Y176500D02*
Y173400D01*
X180299Y173101D01*
Y164827D01*
G01X195000Y190000D02*
Y196750D01*
X191250Y200500D01*
X191000D01*
G01X219000Y46000D02*
Y31058D01*
X220158Y29900D01*
Y24000D01*
G01X230000Y46000D02*
X225000D01*
G01X200000Y67000D02*
X205150D01*
X206000Y66150D01*
Y48000D01*
X204017Y46017D01*
X199811D01*
G01X258000Y57000D02*
X268000D01*
X271000Y60000D01*
Y70000D01*
X268000Y73000D01*
X248454D01*
X223454Y98000D01*
X215950D01*
X213000Y100950D01*
Y105200D01*
G01X199984Y135299D02*
Y125016D01*
X205000Y120000D01*
X213000D01*
X218000Y115000D01*
Y107500D01*
X241000Y84500D01*
X250500D01*
X259500Y75500D01*
X292500D01*
X303000Y65000D01*
X313000D01*
G01X203921Y135299D02*
Y131079D01*
X208500Y126500D01*
X221150D01*
X226000Y121650D01*
Y121500D01*
G01X201953Y135299D02*
Y128047D01*
X207000Y123000D01*
X215000D01*
X222000Y116000D01*
Y108000D01*
X241500Y88500D01*
X252000D01*
X262500Y78000D01*
X294000D01*
X303000Y69000D01*
X307000D01*
X308500Y70500D01*
Y75500D01*
G01X198016Y135299D02*
Y122985D01*
X208000Y113001D01*
Y105200D01*
G01X213000D02*
Y111250D01*
G01X203000Y105200D02*
Y111000D01*
G01X226000Y115500D02*
Y108500D01*
X241863Y92637D01*
X261363D01*
X266000Y88000D01*
G01X371000Y72500D02*
Y64000D01*
X366000Y59000D01*
X344000D01*
X336000Y67000D01*
Y76000D01*
X326000Y86000D01*
X301000D01*
X288500Y98500D01*
X245500D01*
X235000Y109000D01*
Y134908D01*
X226735Y143173D01*
X217701D01*
G01X207858Y135299D02*
Y141000D01*
G01X219000Y135000D02*
Y138500D01*
X218200Y139300D01*
X217400D01*
G01X209827Y135299D02*
X216051D01*
X216350Y135000D01*
X219000D01*
G01X217701Y145142D02*
X227858D01*
X239000Y134000D01*
Y110000D01*
X248000Y101000D01*
X290500D01*
X301500Y90000D01*
X333829D01*
X371000Y127171D01*
Y144500D01*
G01Y218500D02*
X367100D01*
X362000Y213400D01*
Y126000D01*
X331000Y95000D01*
X302000D01*
X293500Y103500D01*
X250500D01*
X243000Y111000D01*
Y135000D01*
X230890Y147110D01*
X217701D01*
G01X205890Y135299D02*
Y131895D01*
X208285Y129500D01*
X225650D01*
X231000Y124150D01*
Y121500D01*
G01X217701Y151047D02*
X230953D01*
X249000Y133000D01*
G01Y175000D02*
X242000Y168000D01*
Y159000D01*
X236016Y153016D01*
X217701D01*
G01X203921Y172701D02*
Y175885D01*
X210000Y181964D01*
Y184000D01*
G01X201953Y172701D02*
Y176463D01*
X205000Y179510D01*
Y184000D01*
G01X199984Y172701D02*
Y175963D01*
X200000Y175979D01*
Y184000D01*
G01X249000Y185000D02*
X239000Y175000D01*
Y161000D01*
X232984Y154984D01*
X217701D01*
G01X205000Y190000D02*
Y200500D01*
G01X200000Y190000D02*
Y195350D01*
X198000Y197350D01*
Y200500D01*
G01X210000Y190000D02*
Y195350D01*
X212000Y197350D01*
Y200500D01*
G01X230000Y46000D02*
Y52000D01*
X235000Y57000D01*
X245000D01*
G01Y67000D02*
X250150D01*
X252000Y65150D01*
Y49000D01*
X249017Y46017D01*
X245811D01*
G01X231000Y115500D02*
Y108000D01*
X243500Y95500D01*
X273400D01*
X276000Y92900D01*
Y88000D01*
G01X249000Y125500D02*
X254500D01*
X255000Y125000D01*
G01X249000Y145000D02*
Y133000D01*
G01X255000Y125000D02*
X257500D01*
X264000Y118500D01*
Y117000D01*
G01X249000Y133000D02*
Y125500D01*
G01Y165000D02*
X257000Y157000D01*
Y132546D01*
X271975Y117571D01*
X289571D01*
X291618Y119618D01*
Y124315D01*
G01X249000Y155000D02*
X255000Y149000D01*
Y131362D01*
X272862Y113500D01*
X290408D01*
X296539Y119631D01*
Y124315D01*
G01X249000Y175000D02*
X260000Y164000D01*
Y137254D01*
X266254Y131000D01*
X295000D01*
X299000Y135000D01*
Y168000D01*
X310004Y179004D01*
X327937D01*
G01X249000Y185000D02*
X263000Y171000D01*
Y139000D01*
X268000Y134000D01*
X292500D01*
X294500Y136000D01*
Y170243D01*
X308182Y183925D01*
X327937D01*
G01X249000Y195000D02*
X257999D01*
X259231Y193768D01*
X270063D01*
G01X249000Y205000D02*
X261586D01*
X267897Y198689D01*
X270063D01*
G01X261000Y46000D02*
Y30742D01*
X260158Y29900D01*
Y24000D01*
G01X267000Y46000D02*
X273000D01*
G01X290000Y57000D02*
X277000D01*
X273000Y53000D01*
Y46000D01*
G01X318500Y75500D02*
Y80150D01*
X316150Y82500D01*
X281500D01*
X276000Y88000D01*
G01X303500Y75500D02*
Y78000D01*
X301000Y80500D01*
X273500D01*
X266000Y88000D01*
G01X275000Y123000D02*
X278629Y119371D01*
X283919D01*
X286697Y122149D01*
Y124315D01*
G01X308000Y45000D02*
X307850D01*
X300158Y37308D01*
Y24000D01*
G01X308500Y54500D02*
Y49850D01*
X308000Y49350D01*
Y45000D01*
G01X313500Y54500D02*
Y49850D01*
X314000Y49350D01*
Y45000D01*
G01D02*
X315150D01*
X319842Y40308D01*
Y24000D01*
G01X288811Y46017D02*
X295017D01*
X297000Y48000D01*
Y65150D01*
X295150Y67000D01*
X290000D01*
G01X313500Y75500D02*
X308500D01*
G01X312000Y111500D02*
Y119174D01*
X311303Y119871D01*
Y124315D01*
G01X305000Y111500D02*
Y118489D01*
X306382Y119871D01*
Y124315D01*
G01X371000Y72500D02*
X374900D01*
X378400Y76000D01*
X381000D01*
G01Y149000D02*
X375500D01*
X371000Y144500D01*
G01Y218500D02*
X376650D01*
X381000Y222850D01*
Y223000D01*
G01X402000Y65000D02*
Y59328D01*
X401983Y59311D01*
Y57811D01*
G01D02*
X419289D01*
X420100Y57000D01*
X426000D01*
G01X386000Y76000D02*
X381000D01*
G01X402000Y121000D02*
Y119500D01*
X401993Y119493D01*
Y113821D01*
G01D02*
X401983Y113811D01*
G01X426000Y117000D02*
X417000D01*
X413821Y113821D01*
X401993D01*
G01X386000Y149000D02*
X381000D01*
G01X426000Y177000D02*
X408850D01*
X402000Y170150D01*
Y170000D01*
G01X381000Y223000D02*
X386000D01*
G54D51*
X281776Y124315D03*
X286697D03*
Y213685D03*
X281776D03*
X291618Y124315D03*
X296539D03*
X301461D03*
X306382D03*
X311303D03*
X316224D03*
Y213685D03*
X311303D03*
X306382D03*
X301461D03*
X296539D03*
X291618D03*
G54D15*
X42950Y41000D03*
X141050D03*
G54D33*
X118000Y88500D03*
Y95500D03*
X119500Y122500D03*
Y115500D03*
X198000Y200500D03*
Y207500D03*
X191000Y200500D03*
Y207500D03*
X212000Y200500D03*
Y207500D03*
X205000Y200500D03*
Y207500D03*
X249000Y118500D03*
Y125500D03*
X312000Y104500D03*
Y111500D03*
X305000Y104500D03*
Y111500D03*
X328000Y60500D03*
Y67500D03*
G54D24*
X71000Y137000D03*
Y143000D03*
X64000Y170000D03*
Y176000D03*
X81000Y77000D03*
Y83000D03*
X99000Y149000D03*
Y143000D03*
X152000Y138000D03*
Y144000D03*
Y162500D03*
Y156500D03*
X195000Y184000D03*
X190000D03*
X195000Y190000D03*
X190000D03*
X226000Y115500D03*
Y121500D03*
X228000Y168000D03*
Y162000D03*
X210000Y184000D03*
X205000D03*
X200000D03*
X210000Y190000D03*
X205000D03*
X200000D03*
X255000Y119000D03*
Y125000D03*
X231000Y121500D03*
Y115500D03*
X301500Y228000D03*
Y234000D03*
X381000Y76000D03*
Y82000D03*
X386000D03*
Y76000D03*
X381000Y149000D03*
Y155000D03*
X386000D03*
Y149000D03*
X402000Y170000D03*
Y164000D03*
X381000Y223000D03*
Y229000D03*
X386000D03*
Y223000D03*
G54D42*
X199842Y24000D03*
X239842D03*
X279842D03*
X319842D03*
X426000Y57000D03*
Y76685D03*
Y117000D03*
Y136685D03*
Y177000D03*
Y196685D03*
G54D61*
G01X193000Y163000D02*
Y166150D01*
G01D02*
X190142Y169008D01*
Y172701D01*
G01X217701Y162858D02*
X222142D01*
X223000Y162000D01*
G01X217701Y160890D02*
X214110D01*
X213000Y162000D01*
Y175000D01*
X224000Y186000D01*
Y211000D01*
X239000Y226000D01*
Y235500D01*
G01X228000Y168000D02*
X224000D01*
X220827Y164827D01*
X217701D01*
G01X219000Y235500D02*
Y230550D01*
X221000Y228550D01*
Y187000D01*
X209827Y175827D01*
Y172701D01*
G54D52*
X270063Y154398D03*
Y149476D03*
Y144555D03*
Y139634D03*
Y183925D03*
Y179004D03*
Y174083D03*
Y169161D03*
Y164240D03*
Y159319D03*
Y198689D03*
Y193768D03*
Y188846D03*
X327937Y139634D03*
Y144555D03*
Y149476D03*
Y154398D03*
Y159319D03*
Y164240D03*
Y169161D03*
Y174083D03*
Y179004D03*
Y183925D03*
Y188846D03*
Y193768D03*
Y198689D03*
G54D16*
X42508Y84500D03*
G54D43*
X180158Y24000D03*
X220158D03*
X260158D03*
X300158D03*
X426000Y37315D03*
Y97315D03*
Y157315D03*
G54D34*
X126500Y96250D03*
X131500D03*
X136500D03*
X131500Y115750D03*
X126500D03*
X136500D03*
X141500Y96250D03*
X146500D03*
X151500D03*
X156500D03*
X161500D03*
X146500Y115750D03*
X141500D03*
X151500D03*
X161500D03*
X156500D03*
G54D25*
X60500Y136594D03*
Y148406D03*
G54D26*
X53500Y183189D03*
Y166811D03*
G54D44*
X184000Y46000D03*
X199811Y46017D03*
X245811D03*
X230000Y46000D03*
X288811Y46017D03*
X273000Y46000D03*
G54D53*
X301500Y250000D03*
X311894D03*
X291106D03*
G54D35*
X143250Y181000D03*
G54D17*
X36838Y114500D03*
X60162D03*
G54D36*
X168000Y57000D03*
Y67000D03*
X200000D03*
Y57000D03*
X213000D03*
Y67000D03*
X258000Y57000D03*
Y67000D03*
X245000D03*
Y57000D03*
X290000Y67000D03*
Y57000D03*
G54D54*
X402000Y65000D03*
X401983Y57811D03*
X402000Y42000D03*
X401983Y80811D03*
X402000Y121000D03*
X401983Y113811D03*
X402000Y98000D03*
X401983Y136811D03*
G54D45*
X188000Y84800D03*
X183000D03*
X198000D03*
X193000D03*
X183000Y105200D03*
X188000D03*
X193000D03*
X198000D03*
X213000Y84800D03*
X208000D03*
X203000D03*
Y105200D03*
X208000D03*
X213000D03*
G54D27*
X71260Y167685D03*
X75000D03*
X71260Y178315D03*
X75000D03*
X78740Y167685D03*
Y178315D03*
G54D18*
X36500Y135748D03*
Y154252D03*
G54D55*
G01X122500Y155500D02*
Y160900D01*
X124000Y162400D01*
Y165000D01*
G01X117500Y155500D02*
Y160900D01*
X116000Y162400D01*
Y165000D01*
G01X223000Y162000D02*
X228000D01*
G54D28*
X107500Y155500D03*
Y134500D03*
X112500Y155500D03*
X117500D03*
X122500D03*
Y134500D03*
X117500D03*
X112500D03*
X313500Y54500D03*
X308500D03*
X303500D03*
Y75500D03*
X308500D03*
X313500D03*
X318500Y54500D03*
Y75500D03*
G54D46*
X196047Y135299D03*
X194079D03*
X192110D03*
X190142D03*
X188173D03*
Y172701D03*
X190142D03*
X192110D03*
X194079D03*
X196047D03*
X209827Y135299D03*
X207858D03*
X205890D03*
X203921D03*
X201953D03*
X199984D03*
X198016D03*
Y172701D03*
X199984D03*
X201953D03*
X203921D03*
X205890D03*
X207858D03*
X209827D03*
G54D37*
X159350Y154167D03*
X165650D03*
X159350Y162829D03*
X165650D03*
G54D19*
X54500Y245100D03*
G54D56*
G01X75000Y167685D02*
Y165000D01*
X74000Y164000D01*
Y160000D01*
G01D02*
X70000D01*
G01X64000Y170000D02*
X66315Y167685D01*
X71260D01*
G01X74000Y186000D02*
Y182900D01*
X75000Y181900D01*
Y178315D01*
G01X99000Y143000D02*
Y139000D01*
G01X107500Y134500D02*
X112500D01*
G01X107500D02*
Y129500D01*
G01X80000Y186000D02*
Y182900D01*
X78740Y181640D01*
Y178315D01*
G01X80000Y160000D02*
Y165525D01*
X78740Y166785D01*
Y167685D01*
G01X80000Y191000D02*
X85000D01*
G01X131500Y115750D02*
Y122298D01*
G01X126500Y115750D02*
X123750D01*
X123500Y115500D01*
X119500D01*
G01X112500Y134500D02*
X117500D01*
G01X122500D02*
X117500D01*
G01X112500D02*
Y129500D01*
G01X117500Y134500D02*
Y129500D01*
G01X122500Y134500D02*
Y129500D01*
G01X112500Y155500D02*
Y150500D01*
G01X160500Y87000D02*
Y81000D01*
G01X168000Y67000D02*
X174000D01*
G01X183000Y105200D02*
Y112000D01*
G01X190000Y190000D02*
Y194000D01*
G01X199842Y24000D02*
Y41086D01*
X199811Y41117D01*
Y46017D01*
G01X213000Y67000D02*
X221000D01*
G01X213000Y84800D02*
X218950D01*
X219750Y84000D01*
X223500D01*
G01X223000Y90000D02*
Y84500D01*
X223500Y84000D01*
G01X225000Y135000D02*
X227795D01*
X229450Y133345D01*
G01X245811Y46017D02*
Y29969D01*
X239842Y24000D01*
G01X232000Y77000D02*
X230500Y78500D01*
Y84000D01*
G01X228000Y162000D02*
X233000D01*
G01X279842Y24000D02*
X288811Y32969D01*
Y46017D01*
G01X258000Y67000D02*
X265000D01*
G01X301189Y48189D02*
Y49689D01*
X303500Y52000D01*
Y54500D01*
G01X301461Y213685D02*
Y219861D01*
X301500Y219900D01*
Y223000D01*
G01Y234000D02*
Y239000D01*
G01D02*
Y250000D01*
G01Y223000D02*
Y228000D01*
G01X351000Y89500D02*
X344500D01*
G01X325000Y74000D02*
X328000Y71000D01*
Y67500D01*
G01X351000Y163500D02*
X345500D01*
G01X381000Y82000D02*
Y86000D01*
X380914Y86086D01*
Y88914D01*
X381000Y89000D01*
G01X401983Y80811D02*
Y84983D01*
G01Y136811D02*
Y141983D01*
G01X381000Y155000D02*
Y157000D01*
X379000Y159000D01*
G01X381000Y229000D02*
Y233000D01*
G54D47*
X180299Y143173D03*
Y145142D03*
Y147110D03*
Y149079D03*
Y151047D03*
Y153016D03*
Y154984D03*
Y156953D03*
Y158921D03*
Y160890D03*
Y162858D03*
Y164827D03*
X217701Y153016D03*
Y151047D03*
Y149079D03*
Y147110D03*
Y145142D03*
Y143173D03*
Y164827D03*
Y162858D03*
Y160890D03*
Y158921D03*
Y156953D03*
Y154984D03*
G54D38*
X143000Y136300D03*
Y149700D03*
G54D29*
X97205Y201000D03*
G54D57*
G01X15500Y95500D02*
Y89500D01*
G01X8500Y95500D02*
Y102000D01*
X9000Y102500D01*
G01X15500Y124000D02*
Y117500D01*
G01X15000Y102500D02*
X26500D01*
X42508Y86492D01*
G01X8500Y124000D02*
Y130500D01*
X9000Y131000D01*
G01X24049D02*
X15000D01*
G01X16000Y151500D02*
Y146500D01*
G01X9000Y151500D02*
Y158000D01*
X9500Y158500D01*
G01X15500D02*
Y162100D01*
X15000Y162600D01*
Y169523D01*
G01D02*
X24524D01*
X46001Y191000D01*
X74000D01*
G01X16894Y186732D02*
Y171417D01*
X15000Y169523D01*
G01X17000Y186838D02*
X16894Y186732D01*
G01X54500Y221500D02*
X49000D01*
X45110Y217610D01*
Y212110D01*
X19732Y186732D01*
X16894D01*
G01X42508Y86492D02*
Y84500D01*
G01X36838Y114500D02*
X28500D01*
G01X26500Y130598D02*
X24451D01*
X24049Y131000D01*
G01X67705Y75445D02*
Y70795D01*
G01X74000Y191000D02*
Y186000D01*
G01X54500Y221500D02*
X73000D01*
X82500Y231000D01*
X88311D01*
X96311Y239000D01*
G01X81000Y77000D02*
Y73000D01*
G01X80000Y115000D02*
Y110500D01*
G01X119500Y115500D02*
X91500D01*
G01X92000Y149000D02*
X99000D01*
G01X107500Y155500D02*
X101750D01*
X99000Y152750D01*
Y149000D01*
G01X80000Y155000D02*
Y160000D01*
G01X107500Y155500D02*
Y162500D01*
X110000Y165000D01*
G01X112689Y239000D02*
Y211106D01*
X112795Y211000D01*
Y201000D01*
G01X191000Y207500D02*
X198000D01*
G01D02*
X205000D01*
G01X191000D02*
X185000D01*
X182000Y204500D01*
G01D02*
Y203800D01*
G01X228000Y168000D02*
Y172450D01*
G01X205000Y207500D02*
X212000D01*
G01X209000Y235500D02*
Y222000D01*
X212000Y219000D01*
Y207500D01*
G01X255000Y113500D02*
Y119000D01*
G01Y113500D02*
X259500Y109000D01*
X295000D01*
X297500Y111500D01*
X305000D01*
G01X270063Y154398D02*
X277898D01*
G01X286697Y213685D02*
Y206197D01*
G01X318000Y117500D02*
X316224Y119276D01*
Y124315D01*
G01X300000Y118000D02*
X301461Y119461D01*
Y124315D01*
G01X312000Y104500D02*
X317500D01*
G01X305000D02*
X312000D01*
G01Y111500D02*
X305000D01*
G01X312000D02*
X322000D01*
G01X316224Y213685D02*
Y207276D01*
G01X306382Y213685D02*
Y206618D01*
G01X296539Y213685D02*
Y206539D01*
G01X291618Y213685D02*
Y206118D01*
G01X328000Y60500D02*
Y57000D01*
G01D02*
Y51000D01*
G01X389600Y82000D02*
X393000Y78600D01*
Y62000D01*
X382000Y51000D01*
X342000D01*
X332500Y60500D01*
X328000D01*
G01X318500Y54500D02*
X325500D01*
X328000Y57000D01*
G01X320500Y140500D02*
X321366Y139634D01*
X327937D01*
G01Y174083D02*
X320500D01*
G01X327937Y193768D02*
X336732D01*
G01X337000Y201500D02*
X334189Y198689D01*
X327937D01*
G01X402000Y42000D02*
X414315D01*
X419000Y37315D01*
X426000D01*
G01X393000Y155000D02*
Y85400D01*
X389600Y82000D01*
G01D02*
X386000D01*
G01X402000Y98000D02*
X418315D01*
X419000Y97315D01*
X426000D01*
G01X386000Y155000D02*
Y192000D01*
X396000Y202000D01*
Y225000D01*
X392000Y229000D01*
X386000D01*
G01X393000Y155000D02*
X398000D01*
X402000Y159000D01*
Y164000D01*
G01X386000Y155000D02*
X393000D01*
G01X402000Y164000D02*
X419315D01*
X426000Y157315D01*
G54D39*
X164000Y176000D03*
G54D48*
X178020Y209500D03*
G54D58*
G01X107500Y155500D02*
Y146000D01*
X110500Y143000D01*
X123000D01*
X130000Y150000D01*
Y165000D01*
G54D49*
X249000Y215000D03*
G54D59*
G01X2000Y258000D02*
Y2000D01*
X443000D01*
Y258000D01*
X2000D01*
G01X0Y0D02*
Y260000D01*
X445000D01*
Y0D01*
X0D01*
G01X287720Y242126D02*
X315280D01*
Y257874D01*
X287720D01*
Y242126D01*
M02*
