G04 ================== begin FILE IDENTIFICATION RECORD ==================*
G04 Layout Name:  STM32F103_RAK811_THESISNODE_5.brd*
G04 Film Name:    RAK4600_v101_BOTTOM.art*
G04 File Format:  Gerber RS274X*
G04 File Origin:  Cadence Allegro 17.2-S052*
G04 Origin Date:  Mon Jun 29 19:02:18 2020*
G04 *
G04 Layer:  ETCH/BOTTOM*
G04 Layer:  PIN/BOTTOM*
G04 Layer:  VIA CLASS/BOTTOM*
G04 Layer:  DRAWING FORMAT/BOTTOM*
G04 Layer:  BOARD GEOMETRY/OUTLINE*
G04 Layer:  BOARD GEOMETRY/LOGO_M*
G04 *
G04 Offset:    (0.00 0.00)*
G04 Mirror:    No*
G04 Mode:      Positive*
G04 Rotation:  0*
G04 FullContactRelief:  No*
G04 UndefLineWidth:     5.00*
G04 ================== end FILE IDENTIFICATION RECORD ====================*
%FSLAX25Y25*MOIN*%
%IR0*IPPOS*OFA0.00000B0.00000*MIA0B0*SFA1.00000B1.00000*%
%ADD14O,.07X.15*%
%ADD13O,.15X.07*%
%ADD15O,.18X.07*%
%ADD22C,.05*%
%ADD28C,.051*%
%ADD16C,.08*%
%ADD11C,.044*%
%ADD23C,.047*%
%ADD21R,.05X.05*%
%ADD19R,.08X.08*%
%ADD31R,.04724X.15748*%
%ADD17O,.12X.16*%
%ADD18R,.12X.16*%
%ADD20R,.16X.122*%
%ADD24C,.11*%
%ADD26R,.032X.035*%
%ADD10C,.13*%
%ADD27R,.035X.032*%
%ADD29R,.08X.08*%
%ADD30R,.08X.08*%
%ADD25R,.11X.11*%
%ADD12C,.18*%
%ADD32C,.02*%
%ADD33C,.03*%
%ADD34C,.005*%
%ADD35C,.008*%
%ADD41C,.09004*%
%ADD40C,.04704*%
%ADD37C,.12004*%
%ADD39C,.22004*%
%ADD36C,.15004*%
%ADD38C,.17004*%
G75*
%LPD*%
G75*
G36*
G01X75000Y109000D02*
X76000Y108000D01*
Y98000D01*
X75000Y97000D01*
X17000D01*
X11000Y91000D01*
Y52000D01*
X52000Y11000D01*
X402000D01*
X405000Y14000D01*
Y27000D01*
X421000Y43000D01*
X430000D01*
X435000Y48000D01*
Y87000D01*
X431000Y91000D01*
X419000D01*
Y104000D01*
X438000D01*
X442999Y99001D01*
Y29999D01*
X441000Y28000D01*
X423000D01*
X415000Y20000D01*
Y7000D01*
X411000Y3000D01*
X45000D01*
X2001Y45999D01*
Y103001D01*
X8000Y109000D01*
X75000D01*
G37*
G36*
G01X2001Y257999D02*
X442999D01*
Y102797D01*
G02X442316Y102514I-400J0D01*
G01X438829Y106002D01*
X416998D01*
Y88998D01*
X430171D01*
X432998Y86171D01*
Y61347D01*
G02X432265Y61127I-400J1D01*
G03X426000Y64502I-6265J-4127D01*
G03Y49498I0J-7502D01*
G03X432265Y52873I0J7502D01*
G02X432998Y52653I333J-221D01*
G01Y48829D01*
X429171Y45002D01*
X420171D01*
X419892Y44722D01*
X419848Y44707D01*
G03X418608Y43467I652J-1892D01*
G01X418593Y43423D01*
X402998Y27829D01*
Y14829D01*
X401171Y13002D01*
X375918D01*
G02X375611Y13658I0J400D01*
G03X377002Y17500I-4610J3842D01*
G03X364998I-6002J0D01*
G03X366389Y13658I6001J0D01*
G02X366082Y13002I-307J-256D01*
G01X52829D01*
X13002Y52829D01*
Y90171D01*
X17829Y94998D01*
X75829D01*
X78002Y97171D01*
Y108829D01*
X75829Y111002D01*
X7171D01*
X2684Y106514D01*
G02X2001Y106797I-283J283D01*
G01Y257999D01*
G37*
%LPC*%
G75*
G36*
G01X159498Y173500D02*
Y178500D01*
G02X161500Y180502I2002J0D01*
G01X166500D01*
G02X168502Y178500I0J-2002D01*
G01Y173500D01*
G02X166500Y171498I-2002J0D01*
G01X161500D01*
G02X159498Y173500I0J2002D01*
G37*
G36*
G01X252656Y18500D02*
Y29500D01*
G02X254658Y31502I2002J0D01*
G01X265658D01*
G02X267660Y29500I0J-2002D01*
G01Y18500D01*
G02X265658Y16498I-2002J0D01*
G01X254658D01*
G02X252656Y18500I0J2002D01*
G37*
G36*
G01X418498Y151815D02*
Y162815D01*
G02X420500Y164816I2002J-1D01*
G01X431500D01*
G02X433502Y162815I1J-2001D01*
G01Y151815D01*
G02X431500Y149814I-2002J1D01*
G01X420500D01*
G02X418498Y151815I-1J2001D01*
G37*
G36*
G01X104794Y193000D02*
Y209000D01*
G02X106795Y211002I2001J1D01*
G01X118795D01*
G02X120796Y209000I-1J-2002D01*
G01Y193000D01*
G02X118795Y190998I-2001J-1D01*
G01X106795D01*
G02X104794Y193000I1J2002D01*
G37*
G36*
G01X49000Y227002D02*
X60000D01*
G02Y215998I0J-5502D01*
G01X49000D01*
G02Y227002I0J5502D01*
G37*
G36*
G01X172656Y18500D02*
Y29500D01*
G02X174658Y31502I2002J0D01*
G01X185658D01*
G02X187660Y29500I0J-2002D01*
G01Y18500D01*
G02X185658Y16498I-2002J0D01*
G01X174658D01*
G02X172656Y18500I0J2002D01*
G37*
G36*
G01X212656D02*
Y29500D01*
G02X214658Y31502I2002J0D01*
G01X225658D01*
G02X227660Y29500I0J-2002D01*
G01Y18500D01*
G02X225658Y16498I-2002J0D01*
G01X214658D01*
G02X212656Y18500I0J2002D01*
G37*
G36*
G01X292656D02*
Y29500D01*
G02X294658Y31502I2002J0D01*
G01X305658D01*
G02X307660Y29500I0J-2002D01*
G01Y18500D01*
G02X305658Y16498I-2002J0D01*
G01X294658D01*
G02X292656Y18500I0J2002D01*
G37*
G36*
G01X86210Y49749D02*
G03X86890I340J210D01*
G02X97110I5110J-3150D01*
G03X97790I340J210D01*
G02X102900Y52602I5110J-3150D01*
G02X107167Y50821I0J-6002D01*
G03X107843Y51018I285J281D01*
G02X109800Y52602I1957J-417D01*
G01X117800D01*
G02X119802Y50600I0J-2002D01*
G01Y42600D01*
G02X117800Y40598I-2002J0D01*
G01X112588D01*
G03X112323Y39899I0J-400D01*
G02X114352Y35400I-3973J-4499D01*
G02X108350Y29398I-6002J0D01*
G02X103240Y32251I0J6003D01*
G03X102560I-340J-210D01*
G02X92340I-5110J3150D01*
G03X91660I-340J-210D01*
G02X81440I-5110J3150D01*
G03X80760I-340J-210D01*
G02X75650Y29398I-5110J3150D01*
G02Y41402I0J6002D01*
G02X80760Y38549I0J-6003D01*
G03X81440I340J210D01*
G02X91660I5110J-3150D01*
G03X92340I340J210D01*
G02X102560I5110J-3150D01*
G03X103240I340J210D01*
G02X107603Y41355I5109J-3149D01*
G03X107927Y41893I-50J397D01*
G02X107843Y42182I1875J702D01*
G03X107167Y42379I-391J-84D01*
G02X102900Y40598I-4267J4221D01*
G02X97790Y43451I0J6003D01*
G03X97110I-340J-210D01*
G02X86890I-5110J3150D01*
G03X86210I-340J-210D01*
G02X81100Y40598I-5110J3150D01*
G02Y52602I0J6002D01*
G02X86210Y49749I0J-6003D01*
G37*
G36*
G01X262000Y94002D02*
X270000D01*
G02X271778Y92919I0J-2001D01*
G03X272375Y92784I355J184D01*
G02X276000Y94002I3625J-4785D01*
G02Y81998I0J-6002D01*
G02X272375Y83216I0J6003D01*
G03X271778Y83081I-242J-319D01*
G02X270000Y81998I-1778J918D01*
G01X262000D01*
G02X259998Y84000I0J2002D01*
G01Y92000D01*
G02X262000Y94002I2002J0D01*
G37*
G36*
G01X323998Y104550D02*
X321167Y107381D01*
X321110Y107393D01*
G02X317798Y111500I890J4107D01*
G02X322000Y115702I4202J0D01*
G02X326107Y112390I0J-4202D01*
G01X326119Y112333D01*
X329976Y108476D01*
G02X331002Y106000I-2475J-2476D01*
G01Y83450D01*
X335176Y79276D01*
G02X336202Y76800I-2475J-2476D01*
G01Y55700D01*
G02X335176Y53224I-3501J0D01*
G01X332119Y50167D01*
X332107Y50110D01*
G02X328000Y46798I-4107J890D01*
G02X323798Y51000I0J4202D01*
G02X327110Y55107I4202J0D01*
G01X327167Y55119D01*
X329198Y57150D01*
Y75350D01*
X325024Y79524D01*
G02X323998Y82000I2475J2476D01*
G01Y104550D01*
G37*
G36*
G01X415302Y118698D02*
G02X417000Y119402I1699J-1698D01*
G01X418893D01*
G02X426000Y124502I7107J-2402D01*
G02Y109498I0J-7502D01*
G02X418893Y114598I0J7502D01*
G01X417995D01*
X410902Y107505D01*
Y71500D01*
G02X410198Y69802I-2402J1D01*
G01X380498Y40102D01*
G02X378800Y39398I-1699J1698D01*
G01X370448D01*
G02X367000Y37598I-3448J2402D01*
G02Y46002I0J4202D01*
G02X370448Y44202I0J-4202D01*
G01X377805D01*
X406098Y72495D01*
Y108500D01*
G02X406802Y110198I2402J-1D01*
G01X415302Y118698D01*
G37*
G36*
G01X268005Y119402D02*
X270863Y122259D01*
X270847Y122359D01*
G02X270798Y123000I4153J640D01*
G02X275000Y118798I4202J0D01*
G02X274359Y118847I-1J4202D01*
G01X274259Y118863D01*
X270698Y115302D01*
G02X269000Y114598I-1699J1698D01*
G01X267448D01*
G02X264000Y112798I-3448J2402D01*
G02Y121202I0J4202D01*
G02X267390Y119483I0J-4202D01*
G01X267450Y119402D01*
X268005D01*
G37*
G36*
G01X390302Y144698D02*
X419276Y173673D01*
G02X418498Y177000I6725J3327D01*
G02X426000Y169498I7502J0D01*
G02X422673Y170276I0J7503D01*
G01X394402Y142005D01*
Y76500D01*
G02X393698Y74802I-2402J1D01*
G01X374698Y55802D01*
G02X373000Y55098I-1699J1698D01*
G01X354995D01*
X337198Y37302D01*
G02X335500Y36598I-1699J1698D01*
G01X323000D01*
G02X321302Y37302I1J2402D01*
G01X311302Y47302D01*
G02X310598Y49000I1698J1699D01*
G01Y61552D01*
G02X308798Y65000I2402J3448D01*
G02X317202I4202J0D01*
G02X315402Y61552I-4202J0D01*
G01Y49995D01*
X323995Y41402D01*
X334505D01*
X352302Y59198D01*
G02X354000Y59902I1699J-1698D01*
G01X372005D01*
X389598Y77495D01*
Y143000D01*
G02X390302Y144698I2402J-1D01*
G37*
G36*
G01X245252Y199688D02*
G03Y200312I-250J312D01*
G02X242998Y205000I3748J4688D01*
G02X255002I6002J0D01*
G02X252748Y200312I-6002J0D01*
G03Y199688I250J-312D01*
G02Y190312I-3748J-4688D01*
G03Y189688I250J-312D01*
G02Y180312I-3748J-4688D01*
G03Y179688I250J-312D01*
G02Y170312I-3748J-4688D01*
G03Y169688I250J-312D01*
G02Y160312I-3748J-4688D01*
G03Y159688I250J-312D01*
G02Y150312I-3748J-4688D01*
G03Y149688I250J-312D01*
G02X255002Y145000I-3748J-4688D01*
G02X242998I-6002J0D01*
G02X245252Y149688I6002J0D01*
G03Y150312I-250J312D01*
G02Y159688I3748J4688D01*
G03Y160312I-250J312D01*
G02Y169688I3748J4688D01*
G03Y170312I-250J312D01*
G02Y179688I3748J4688D01*
G03Y180312I-250J312D01*
G02Y189688I3748J4688D01*
G03Y190312I-250J312D01*
G02Y199688I3748J4688D01*
G37*
G36*
G01X205000Y241502D02*
X213000D01*
G02X214778Y240419I0J-2001D01*
G03X215375Y240284I355J184D01*
G02X219000Y241502I3625J-4785D01*
G02Y229498I0J-6002D01*
G02X215375Y230716I0J6003D01*
G03X214778Y230581I-242J-319D01*
G02X213000Y229498I-1778J918D01*
G01X205000D01*
G02X202998Y231500I0J2002D01*
G01Y239500D01*
G02X205000Y241502I2002J0D01*
G37*
G36*
G01X244312Y231752D02*
G03X243688I-312J-250D01*
G02X239000Y229498I-4688J3748D01*
G02Y241502I0J6002D01*
G02X243688Y239248I0J-6002D01*
G03X244312I312J250D01*
G02X249000Y241502I4688J-3748D01*
G02Y229498I0J-6002D01*
G02X244312Y231752I0J6002D01*
G37*
G36*
G01X171878Y217622D02*
G02X174000Y218502I2123J-2121D01*
G01X179981D01*
G02X182103Y217622I-1J-3001D01*
G01X185182Y214544D01*
G03X185864Y214827I282J283D01*
G01Y215600D01*
G02X187866Y217602I2002J0D01*
G01X203866D01*
G02X205868Y215600I0J-2002D01*
G01Y203400D01*
G02X203866Y201398I-2002J0D01*
G01X187866D01*
G02X187716Y201404I5J2002D01*
G03X187502Y201205I-14J-199D01*
G01Y192829D01*
X192502Y187829D01*
Y179002D01*
Y175238D01*
X195681Y172060D01*
X222658D01*
X223881Y173283D01*
X223893Y173340D01*
G02X228000Y176652I4107J-890D01*
G02X232202Y172450I0J-4202D01*
G02X228890Y168343I-4202J0D01*
G01X228833Y168331D01*
X226584Y166082D01*
G02X224108Y165056I-2476J2475D01*
G01X201386D01*
Y150502D01*
X209700D01*
G02X212176Y149476I0J-3501D01*
G01X218233Y143419D01*
X218290Y143407D01*
G02X219674Y142833I-892J-4106D01*
G01X219724Y142802D01*
X220150D01*
X220324Y142976D01*
G02X222800Y144002I2476J-2475D01*
G01X233500D01*
G02X235976Y142976I0J-3501D01*
G01X257476Y121476D01*
G02X258502Y119000I-2475J-2476D01*
G01Y115823D01*
G02X259202Y113500I-3502J-2322D01*
G02X250798I-4202J0D01*
G02X251467Y115774I4202J-1D01*
G01X251498Y115824D01*
Y117550D01*
X232050Y136998D01*
X224250D01*
X224076Y136824D01*
G02X221600Y135798I-2476J2475D01*
G01X219724D01*
X219674Y135767D01*
G02X217400Y135098I-2275J3533D01*
G02X213293Y138410I0J4202D01*
G01X213281Y138467D01*
X208250Y143498D01*
X201386D01*
Y131884D01*
G02X200360Y129408I-3501J0D01*
G01X196502Y125550D01*
Y123502D01*
X198430D01*
G02X199400Y123752I969J-1752D01*
G01X202600D01*
G02X203570Y123502I1J-2002D01*
G01X210430D01*
G02X211400Y123752I969J-1752D01*
G01X214600D01*
G02X215570Y123502I1J-2002D01*
G01X219000D01*
G02X221476Y122476I0J-3501D01*
G01X225476Y118476D01*
G02X226502Y116000I-2475J-2476D01*
G01Y92323D01*
G02X227202Y90000I-3502J-2322D01*
G02X218798I-4202J0D01*
G02X219498Y92323I4202J1D01*
G01Y114550D01*
X217550Y116498D01*
X216602D01*
Y113414D01*
G02X217202Y111250I-3602J-2164D01*
G02X208798I-4202J0D01*
G02X209398Y113414I4202J0D01*
G01Y116498D01*
X204602D01*
Y115350D01*
X205476Y114476D01*
G02X205726Y114198I-2475J-2477D01*
G02X207202Y111000I-2727J-3198D01*
G02X203000Y106798I-4202J0D01*
G02X198853Y110324I0J4202D01*
G02X197892Y110934I548J1925D01*
G03X197191Y110699I-302J-263D01*
G02X193000Y106798I-4191J301D01*
G02X188798Y111000I0J4202D01*
G02X189398Y113164I4202J0D01*
G01Y121750D01*
G02X189489Y122348I2002J1D01*
G01X189498Y122377D01*
Y127000D01*
G02X190524Y129476I3501J0D01*
G01X194382Y133334D01*
Y141818D01*
G03X193700Y142101I-400J0D01*
G01X193123Y141524D01*
G02X190647Y140498I-2476J2475D01*
G01X185001D01*
G02X182525Y141524I0J3501D01*
G01X181551Y142498D01*
X178950D01*
X176619Y140167D01*
X176607Y140110D01*
G02X172500Y136798I-4107J890D01*
G02X168605Y139423I0J4202D01*
G03X167952Y139555I-370J-151D01*
G01X164094Y135698D01*
Y135193D01*
G02X163630Y133774I-2402J0D01*
G02X163702Y133000I-4130J-775D01*
G02X155298I-4202J0D01*
G02X159345Y137199I4202J0D01*
G02X159995Y138391I2347J-507D01*
G01X174302Y152698D01*
G02X176000Y153402I1699J-1698D01*
G01X182505D01*
X184363Y155259D01*
X184347Y155359D01*
G02X184298Y156000I4153J640D01*
G02X185887Y159291I4203J0D01*
G03X185757Y159986I-249J313D01*
G02X182798Y164000I1243J4014D01*
G02X183944Y166884I4202J0D01*
G01X183998Y166942D01*
Y167199D01*
G03X183794Y167399I-200J0D01*
G02X183750Y167398I-67J2000D01*
G01X180250D01*
G02X178325Y168852I0J2001D01*
G01X178284Y168998D01*
X177998D01*
Y172806D01*
G02X175798Y176500I2001J3694D01*
G02X176998Y179441I4202J1D01*
G01Y184257D01*
X166878Y194378D01*
G02X165998Y196500I2121J2123D01*
G01Y210500D01*
G02X166878Y212622I3001J-1D01*
G01X171878Y217622D01*
G37*
G54D41*
X164000Y186000D03*
G54D40*
X148492Y209500D03*
G54D37*
X351000Y218500D03*
X371000Y163500D03*
Y218500D03*
X351000Y144500D03*
X371000Y89500D03*
Y144500D03*
X351000Y72500D03*
X371000D03*
G54D39*
X42950Y41000D03*
X141050D03*
G54D36*
X199842Y24000D03*
X319842D03*
X239842D03*
X279842D03*
G54D38*
X431000Y245500D03*
X14000Y246000D03*
%LPD*%
G75*
G36*
G01X190002Y167258D02*
X190290Y167547D01*
X191755Y166082D01*
G03X194185Y165057I2476J2476D01*
G02X194382Y164857I-3J-200D01*
G01Y150502D01*
X193647D01*
G03X191171Y149476I0J-3501D01*
G01X189197Y147502D01*
X186451D01*
X185477Y148476D01*
G03X185223Y148706I-2474J-2477D01*
G02X185195Y149299I254J309D01*
G03X185198Y149302I-1697J1699D01*
G01X187759Y151863D01*
X187859Y151847D01*
G03X188500Y151798I640J4153D01*
G03X192702Y156000I0J4202D01*
G03X189743Y160014I-4202J0D01*
G02X189613Y160709I119J382D01*
G03X191202Y164000I-2614J3291D01*
G03X190056Y166884I-4202J0D01*
G01X190002Y166942D01*
Y167258D01*
G37*
G36*
G01X175000Y206500D02*
X182500D01*
X185500Y203500D01*
Y192000D01*
X190500Y187000D01*
Y179002D01*
X190498D01*
Y174998D01*
X189500Y174000D01*
X187000D01*
X186000Y175000D01*
Y185500D01*
X173000Y198500D01*
Y204500D01*
X175000Y206500D01*
G37*
G54D10*
X13000Y14000D03*
X14000Y246000D03*
X428000Y13000D03*
X431000Y245500D03*
G54D20*
X130976Y209500D03*
X195866D03*
G54D11*
X17000Y64000D03*
X15500Y89500D03*
X17000Y84000D03*
X15500Y117500D03*
X16000Y146500D03*
X37000Y64000D03*
X28500Y114500D03*
X57000Y24000D03*
X77000D03*
X57000Y64000D03*
X77000D03*
X57000Y44000D03*
X67705Y70795D03*
X65000Y106500D03*
X73000D03*
X65000Y99500D03*
X73000D03*
X80000Y110500D03*
X53000Y153000D03*
X61500D03*
X52500Y145000D03*
X70000Y160000D03*
X53000D03*
X61500D03*
X97000Y24000D03*
X81000Y73000D03*
X99000Y139000D03*
X107500Y129500D03*
X85000Y191000D03*
X117000Y24000D03*
X137000D03*
X117000Y64000D03*
X137000D03*
X117000Y79000D03*
X137000D03*
X131500Y122298D03*
X112500Y129500D03*
X117500D03*
X122500D03*
X112500Y150500D03*
X137000Y157000D03*
X136500Y172000D03*
X127500Y219500D03*
X135500D03*
X160500Y81000D03*
X146500Y157000D03*
X152500Y150000D03*
X159500Y133000D03*
X167000Y167500D03*
X146000Y172000D03*
X143500Y189500D03*
X141500Y231500D03*
X174000Y67000D03*
X183000Y112000D03*
X193000Y111000D03*
X187500Y149500D03*
X188500Y156000D03*
X172500Y141000D03*
X193000Y163000D03*
X187000Y164000D03*
X180000Y176500D03*
X190000Y194000D03*
X182000Y203800D03*
X175000Y202000D03*
X174500Y232000D03*
X221000Y67000D03*
X223000Y90000D03*
X213000Y111250D03*
X203000Y111000D03*
X229450Y133345D03*
X207858Y141000D03*
X206000Y153000D03*
X217400Y139300D03*
X206000Y162500D03*
X228000Y172450D03*
X232000Y77000D03*
X248500Y113500D03*
X255000D03*
X233000Y162000D03*
X265000Y67000D03*
X264000Y117000D03*
X275000Y123000D03*
X277898Y154398D03*
X287000Y154000D03*
Y174000D03*
X286697Y206197D03*
X287000Y194000D03*
X283000Y244000D03*
X288500Y235000D03*
Y224500D03*
X283000Y254000D03*
X301189Y48189D03*
X313000Y65000D03*
X318000Y117500D03*
X300000Y118000D03*
X317500Y104500D03*
X312000Y154000D03*
Y174000D03*
X316224Y207276D03*
X306382Y206618D03*
X296539Y206539D03*
X291618Y206118D03*
X312000Y194000D03*
X310000Y224500D03*
Y235000D03*
X319500Y244000D03*
Y254000D03*
X328000Y51000D03*
X344500Y89500D03*
X325000Y74000D03*
X332000Y119000D03*
X347000D03*
X322000Y111500D03*
X320500Y140500D03*
X345500Y163500D03*
X320500Y174083D03*
X336732Y193768D03*
X337000Y201500D03*
X358000Y23000D03*
X367000Y41800D03*
Y104000D03*
X379000Y159000D03*
X392000Y24000D03*
X381000Y89000D03*
X401983Y84983D03*
X382000Y119000D03*
Y104000D03*
X401983Y141983D03*
X382000Y134000D03*
X381000Y233000D03*
G54D12*
X42950Y41000D03*
X141050D03*
G54D30*
X266000Y88000D03*
G54D21*
X164000Y176000D03*
G54D31*
X311894Y250000D03*
X291106D03*
G54D22*
X164000Y186000D03*
G54D13*
X54500Y245100D03*
G54D32*
G01X187000Y164000D02*
Y168501D01*
X190644Y172145D01*
G01X195866Y209500D02*
X185981D01*
X179981Y215500D01*
X174000D01*
X169000Y210500D01*
Y196500D01*
X180000Y185500D01*
Y176500D01*
G01D02*
X182000Y174500D01*
Y171000D01*
G54D23*
X148492Y209500D03*
G54D14*
X36000Y233300D03*
G54D33*
G01X193000Y120000D02*
Y127000D01*
X197884Y131884D01*
Y147000D01*
G01X193000Y120000D02*
X201000D01*
G01X193000Y111000D02*
Y114000D01*
G01X197884Y147000D02*
X209700D01*
X217400Y139300D01*
G01X197884Y168558D02*
Y147000D01*
G01X172500Y141000D02*
X177500Y146000D01*
X183001D01*
X185001Y144000D01*
X190647D01*
X193647Y147000D01*
X197884D01*
G01X228000Y172450D02*
X224108Y168558D01*
X197884D01*
G01X190644Y172145D02*
X188500Y174289D01*
G01X190644Y172145D02*
X194231Y168558D01*
X197884D01*
G01X188500Y174289D02*
Y177000D01*
G01X223000Y90000D02*
Y116000D01*
X219000Y120000D01*
X213000D01*
G01X201000D02*
X213000D01*
G01Y111250D02*
Y114000D01*
G01X203000Y111000D02*
Y112000D01*
X201000Y114000D01*
G01X255000Y113500D02*
Y119000D01*
X233500Y140500D01*
X222800D01*
X221600Y139300D01*
X217400D01*
G01X328000Y51000D02*
X332700Y55700D01*
Y76800D01*
X327500Y82000D01*
Y106000D01*
X322000Y111500D01*
G54D24*
X199842Y24000D03*
X239842D03*
X279842D03*
X319842D03*
X426000Y57000D03*
Y76685D03*
Y117000D03*
Y136685D03*
Y177000D03*
Y196685D03*
G54D15*
X54500Y221500D03*
G54D34*
G01X2000Y258000D02*
Y2000D01*
X443000D01*
Y258000D01*
X2000D01*
G01X0Y0D02*
Y260000D01*
X445000D01*
Y0D01*
X0D01*
G01X287720Y242126D02*
X315280D01*
Y257874D01*
X287720D01*
Y242126D01*
G54D25*
X180158Y24000D03*
X220158D03*
X260158D03*
X300158D03*
X426000Y37315D03*
Y97315D03*
Y157315D03*
G54D16*
X75650Y35400D03*
X81100Y46600D03*
X70200D03*
X108350Y35400D03*
X97450D03*
X86550D03*
X102900Y46600D03*
X92000D03*
X219000Y235500D03*
X229000D03*
X249000Y145000D03*
Y155000D03*
Y165000D03*
Y175000D03*
Y185000D03*
Y195000D03*
Y205000D03*
X239000Y235500D03*
X249000D03*
X286000Y88000D03*
X276000D03*
X351000Y17500D03*
Y72500D03*
Y89500D03*
Y144500D03*
Y163500D03*
Y218500D03*
X371000Y17500D03*
Y72500D03*
Y89500D03*
Y144500D03*
Y163500D03*
Y218500D03*
G54D35*
G01X159500Y133000D02*
X161693Y135193D01*
Y136693D01*
X176000Y151000D01*
X183500D01*
X188500Y156000D01*
G01X264000Y117000D02*
X269000D01*
X275000Y123000D01*
G01X313000Y65000D02*
Y49000D01*
X323000Y39000D01*
X335500D01*
X354000Y57500D01*
X373000D01*
X392000Y76500D01*
Y143000D01*
X426000Y177000D01*
G01Y117000D02*
X417000D01*
X408500Y108500D01*
Y71500D01*
X378800Y41800D01*
X367000D01*
G54D26*
X193000Y120000D03*
Y114000D03*
X213000Y120000D03*
Y114000D03*
X201000Y120000D03*
Y114000D03*
G54D17*
X97205Y201000D03*
G54D27*
X188500Y177000D03*
X194500D03*
X182000Y171000D03*
X176000D03*
G54D18*
X112795Y201000D03*
G54D19*
X113800Y46600D03*
X209000Y235500D03*
G54D28*
X178020Y209500D03*
G54D29*
X249000Y215000D03*
M02*
