G04 CAM350/DFMSTREAM V12.1 (Build 1022) Date:  Tue Jun 16 21:50:21 2020 *
G04 Database: (Untitled) *
G04 Layer 11: SMASK_BOTTOM.art *
%FSLAX25Y25*%
%MOIN*%
%SFA1.000B1.000*%

%MIA0B0*%
%IPPOS*%
%ADD15C,0.00500*%
%ADD30R,0.04724X0.15748*%
%ADD34R,0.07000X0.08500*%
%ADD53R,0.05315X0.08465*%
%ADD54R,0.08465X0.05315*%
%ADD69O,0.07400X0.15400*%
%ADD74O,0.15400X0.07400*%
%ADD75O,0.18400X0.07400*%
%ADD76C,0.09000*%
%ADD77C,0.04800*%
%ADD78C,0.08500*%
%ADD79R,0.09000X0.09000*%
%ADD80R,0.05512X0.16535*%
%ADD81O,0.13000X0.17000*%
%ADD82R,0.13000X0.17000*%
%ADD83C,0.11000*%
%ADD84C,0.14000*%
%ADD85R,0.03800X0.04100*%
%ADD86R,0.04100X0.03800*%
%ADD87R,0.05600X0.05100*%
%ADD88R,0.05100X0.05600*%
%ADD89R,0.11000X0.11000*%
%ADD90R,0.03200X0.08800*%
%ADD91R,0.08800X0.03200*%
%ADD92R,0.08500X0.08500*%
%ADD93R,0.02900X0.07900*%
%LNSMASK_BOTTOM.art*%
%LPD*%
G54D84*
X256000Y1260000D03*
X258000Y1474000D03*
X524000Y1259000D03*
Y1473000D03*
G54D85*
X336000Y1283000D03*
Y1277000D03*
X376000Y1283000D03*
Y1277000D03*
X416000Y1283000D03*
Y1277000D03*
X400000Y1427000D03*
Y1421000D03*
X504000Y1419000D03*
Y1413000D03*
G54D77*
X260000Y1317000D03*
X271000Y1357000D03*
X257500Y1442500D03*
X260000Y1429000D03*
X296700Y1311000D03*
X274000Y1370000D03*
Y1377000D03*
Y1383000D03*
X282000D03*
X274000Y1363000D03*
X277000Y1423000D03*
X304000Y1311000D03*
Y1320000D03*
X309000Y1304000D03*
X307000Y1295000D03*
X318000Y1342000D03*
X326000Y1349000D03*
X327000Y1324000D03*
X313000Y1361000D03*
X306000Y1404000D03*
X305000Y1396000D03*
X331000Y1404000D03*
X306000Y1415000D03*
X316000D03*
X344000Y1314000D03*
X357000Y1316000D03*
X345000Y1334000D03*
X338500Y1346000D03*
X362000Y1336000D03*
X356000Y1383000D03*
X343984Y1383016D03*
X338500Y1360500D03*
X356000Y1391000D03*
X348000D03*
X343000Y1437500D03*
X354000Y1472000D03*
X383000Y1315000D03*
X392500Y1305500D03*
X372000Y1314000D03*
X374000Y1353000D03*
X391000Y1368000D03*
X365000Y1383000D03*
X364000Y1374000D03*
X388000Y1385000D03*
X365000Y1391000D03*
X384000Y1402000D03*
X405000Y1321000D03*
X416000Y1294000D03*
X417000Y1343000D03*
X399000Y1338000D03*
X397000Y1368000D03*
X404000Y1369000D03*
X394000Y1385000D03*
X402000Y1437000D03*
Y1445000D03*
X424000Y1290000D03*
X432000Y1286000D03*
X445000Y1346000D03*
X452000Y1360000D03*
X424000Y1412000D03*
X453000Y1410000D03*
X433000Y1420000D03*
X425000Y1471000D03*
Y1465000D03*
X459000Y1323000D03*
X468000Y1304000D03*
X460000Y1306000D03*
X476000Y1302000D03*
X467500Y1324500D03*
X454000Y1382000D03*
X473000Y1464000D03*
Y1471000D03*
X502000Y1314000D03*
Y1374000D03*
X485000Y1448000D03*
G54D83*
X341842Y1268000D03*
X381842D03*
X421842D03*
X461842D03*
X501842D03*
X514000Y1314000D03*
Y1333685D03*
Y1374000D03*
Y1393685D03*
Y1434000D03*
Y1453685D03*
G54D82*
X276205Y1464000D03*
G54D30*
X448000Y1476000D03*
G54D80*
X437606D03*
X458394D03*
G54D79*
X365000Y1471000D03*
G54D74*
X288000Y1260400D03*
G54D91*
X501983Y1292189D03*
X502000Y1308000D03*
X501983Y1320189D03*
Y1348189D03*
X502000Y1336000D03*
Y1364000D03*
X501983Y1382189D03*
X502000Y1398000D03*
G54D76*
X375000Y1471000D03*
X385000D03*
X395000D03*
X405000D03*
G54D75*
X288000Y1284000D03*
G54D54*
X411425Y1376567D03*
Y1412000D03*
Y1404913D03*
Y1397827D03*
Y1390740D03*
Y1383654D03*
Y1440346D03*
Y1433260D03*
Y1426173D03*
Y1419087D03*
Y1447433D03*
X464575Y1376567D03*
Y1383654D03*
Y1390740D03*
Y1397827D03*
Y1404913D03*
Y1412000D03*
Y1419087D03*
Y1426173D03*
Y1433260D03*
Y1440346D03*
Y1447433D03*
G54D81*
X291795Y1464000D03*
G54D78*
X488000Y1350000D03*
Y1360000D03*
Y1384000D03*
Y1394000D03*
Y1438000D03*
Y1428000D03*
G54D53*
X420283Y1369677D03*
Y1454323D03*
X427370Y1369677D03*
X434457D03*
X441543D03*
X448630D03*
Y1454323D03*
X441543D03*
X434457D03*
X427370D03*
X455717Y1369677D03*
Y1454323D03*
G54D92*
X488000Y1370000D03*
Y1404000D03*
Y1418000D03*
G54D69*
X306500Y1272200D03*
G54D34*
X317000Y1292000D03*
X327000D03*
Y1324000D03*
X317000D03*
X339000Y1292000D03*
X349000D03*
X361000D03*
X349000Y1324000D03*
X339000D03*
X361000D03*
X371000Y1292000D03*
Y1324000D03*
G54D87*
X400000Y1408500D03*
Y1415500D03*
G54D89*
X322158Y1268000D03*
X362158D03*
X402158D03*
X442158D03*
X482158D03*
X514000Y1294315D03*
Y1354315D03*
Y1414315D03*
G54D86*
X449000Y1280000D03*
X455000D03*
X489000D03*
X495000D03*
G54D93*
X434500Y1293500D03*
X439500D03*
X444500D03*
X449500D03*
Y1314500D03*
X444500D03*
X439500D03*
X434500D03*
X468500Y1293500D03*
X473500D03*
X478500D03*
Y1314500D03*
X473500D03*
X468500D03*
X483500Y1293500D03*
Y1314500D03*
G54D90*
X314189Y1280017D03*
X330000Y1280000D03*
X354189Y1280017D03*
X370000Y1280000D03*
X394189Y1280017D03*
X410000Y1280000D03*
G54D88*
X449500Y1324000D03*
X442500D03*
X476500D03*
X463500Y1351000D03*
X470500D03*
X463500Y1360000D03*
X470500D03*
X483500Y1324000D03*
G54D15*
X245000Y1485000D02*
G01Y1248000D01*
X534000*
Y1485000*
X245000*
X461780Y1468126D02*
G01X434220D01*
Y1483874*
X461780*
Y1468126*
M02*
