G04 CAM350/DFMSTREAM V12.1 (Build 1022) Date:  Mon Jun 22 17:27:13 2020 *
G04 Database: (Untitled) *
G04 Layer 12: RAK811_v100TOP.art *
%FSLAX25Y25*%
%MOIN*%
%SFA1.000B1.000*%

%MIA0B0*%
%IPPOS*%
%ADD12C,0.00800*%
%ADD13C,0.01000*%
%ADD15C,0.00500*%
%ADD19O,0.07000X0.15000*%
%ADD70O,0.15000X0.07000*%
%ADD71O,0.18000X0.07000*%
%ADD20C,0.08000*%
%ADD21C,0.04400*%
%ADD22R,0.08000X0.08000*%
%ADD23O,0.12000X0.16000*%
%ADD24R,0.12000X0.16000*%
%ADD25R,0.04724X0.15748*%
%ADD26C,0.10000*%
%ADD27R,0.03200X0.03500*%
%ADD28C,0.13000*%
%ADD29R,0.10000X0.10000*%
%ADD72C,0.18000*%
%ADD73C,0.03000*%
%ADD44R,0.03500X0.12000*%
%ADD45R,0.12000X0.03500*%
%ADD46R,0.11024X0.04724*%
%ADD47R,0.04724X0.04724*%
%ADD48R,0.22441X0.06299*%
%ADD49R,0.02200X0.04000*%
%ADD50R,0.05000X0.04500*%
%ADD51R,0.03500X0.03200*%
%ADD52R,0.04500X0.05000*%
%ADD53R,0.02100X0.06700*%
%ADD54R,0.06700X0.03200*%
%ADD55R,0.02500X0.07500*%
%ADD56R,0.08500X0.07000*%
%ADD59R,0.11811X0.14764*%
%ADD62R,0.09843X0.03543*%
%ADD63R,0.06678X0.08464*%
%ADD64R,0.08464X0.06678*%
%ADD106R,0.02500X0.05000*%
%ADD107R,0.03000X0.06800*%
%ADD108R,0.06800X0.03000*%
%ADD109R,0.01000X0.04724*%
%ADD110R,0.04724X0.01000*%
%ADD111R,0.04724X0.07874*%
%ADD112R,0.07874X0.04724*%
%ADD113C,0.02000*%
%ADD114C,0.02500*%
%ADD115C,0.00900*%
%LNRAK811_v100TOP.art*%
%LPD*%
G36*
X163349Y159218D02*
G75*
G02X163427Y159376I200J-1D01*
G03X164214Y160967I-1215J1591*
G01Y165691*
X164168Y166114*
G02X164159Y166198I391J84*
X164559Y166598I400J0*
G01X170005*
X171598Y165005*
Y159001*
G03X171836Y157959I2402J0*
G01X171876Y157785*
G02X171476Y157386I-399J0*
G01X170488*
X170449Y157535*
G03X168512Y159030I-1937J-507*
G01X163788*
X163780*
X163675Y159027*
X163570Y159019*
X163559Y159018*
X163549*
G02X163362Y159146I0J200*
X163349Y159218I187J71*
G37*
G36*
X251252Y69134D02*
G01Y70598D01*
X267005*
X268598Y69005*
Y60995*
X267005Y59402*
X264252*
Y60500*
G03X262250Y62502I-2002J0*
G01X254402*
Y65150*
G03X253698Y66848I-2402J-1*
G01X251848Y68698*
G03X251252Y69134I-1700J-1698*
G37*
G36*
X181964Y185598D02*
G02X182363Y185998I400J0D01*
G01X183829*
X187002Y189171*
Y195829*
X185502Y197329*
Y202049*
X185992Y202539*
X185995Y202542*
X186106Y202648*
X186157Y202699*
G02X186366Y202745I141J-141*
X186498Y202558I-67J-188*
G01Y198250*
G03X188500Y196248I2002*
G01X192105*
X192598Y195755*
Y193584*
G03X191398Y191750I802J-1834*
G01Y188250*
X191399Y188207*
Y188002*
X187999*
G03X187998Y188001I0J-1*
G01Y187716*
X187852Y187675*
G03X186398Y185750I547J-1925*
G01Y182250*
G03X186487Y181660I2002J0*
G01X186496Y181632*
Y181402*
X185995*
X182081Y185316*
G02X181964Y185598I283J282*
G37*
G36*
X163402Y62696D02*
G01Y70005D01*
X170286Y76890*
G02X170916Y76806I283J-283*
G03X171302Y76302I2083J1195*
G01X176598Y71005*
Y60995*
X175005Y59402*
X174252*
Y60500*
G03X172250Y62502I-2002J0*
G01X163750*
X163615Y62497*
G02X163402Y62696I-14J199*
G37*
G36*
X221324Y131205D02*
G02X221561Y131570I400J0D01*
G03X222675Y132852I-811J1830*
G01X222716Y132998*
X223001*
G03X223002Y132999I0J1*
G01Y137001*
G03X223001Y137002I-1J0*
G01X222716*
X222675Y137148*
G03X221515Y138450I-1925J-548*
X221602Y139300I-4117J851*
G01Y139302*
G03X221487Y140278I-4202J0*
G02X221476Y140372I389J93*
X221875Y140772I400J0*
G01X228832*
X232598Y137005*
Y120285*
G02X232398Y120085I-200J0*
X232257Y120143I0J200*
G01X232113Y120287*
X232109Y120291*
X231915Y120484*
X221751Y130647*
X221639Y130752*
X221581Y130803*
X221477Y130890*
G02X221324Y131205I247J315*
G37*
G36*
X110752Y147347D02*
G01Y154201D01*
G03X111002Y155500I-3253J1300*
G01Y161050*
X111350Y161398*
X113708*
G03X114231Y160631I2293J1002*
G01X114552Y160310*
G03X114248Y159250I1699J-1061*
G01Y151750*
G03X116250Y149748I2002*
G01X123750*
G03X125752Y151750J2002*
G01Y159250*
G03X125521Y160184I-2002J0*
G01X125452Y160314*
X125769Y160631*
G03X126292Y161398I-1769J1768*
G01X126748*
Y151347*
X121653Y146252*
X111847*
X110752Y147347*
G37*
G36*
X272861Y94598D02*
G02X272872Y94663I200J0D01*
X273061Y94798I189J-65*
G01X289805*
X299519Y85084*
G02X299636Y84802I-283J-282*
X299237Y84402I-400J0*
G01X282995*
X281589Y85808*
X281633Y85928*
G03X282002Y88000I-5633J2072*
X276000Y94002I-6002J0*
X273928Y93633I0J-6002*
G01X273808Y93589*
X273118Y94278*
G03X272935Y94443I-1697J-1699*
G02X272861Y94598I126J155*
G37*
G36*
X179394Y99794D02*
G01X179395Y99823D01*
X179402Y100000*
Y113221*
X190995Y124814*
G02X191678Y124532I283J-283*
G01Y122074*
X186302Y116698*
G03X185598Y115000I1698J-1699*
G01Y110027*
G03X184948Y108550I1353J-1477*
G01Y101850*
G03X186269Y99968I2001J0*
G01X186310Y99952*
X186483Y99780*
X186105Y99402*
X180000*
X179823Y99395*
G02X179394Y99794I-29J399*
G37*
G36*
X245402Y111995D02*
G01Y121440D01*
X245644*
X245683Y121423*
X245861Y121353*
X245998Y121307*
Y120999*
G03X245999Y120998I1J0*
G01X252001*
G03X252002Y120999I0J1*
G01Y121307*
X252139Y121353*
G03X252500Y121516I-639J1897*
X252861Y121353I1000J1734*
G01X252998Y121307*
Y120999*
G03X252999Y120998I1J0*
G01X259001*
G03X259002Y120999I0J1*
G01Y121307*
X259139Y121353*
G03X259500Y121516I-639J1897*
X259861Y121353I1000J1734*
G01X259998Y121307*
Y120999*
G03X259999Y120998I1J0*
G01X266001*
G03X266002Y120999I0J1*
G01Y121307*
X266139Y121353*
G03X267062Y121998I-639J1897*
G01X269498*
Y115000*
G03X270524Y112524I3501J0*
G01X272964Y110084*
G02X273081Y109802I-283J-282*
X272681Y109402I-400J0*
G01X247995*
X245402Y111995*
G37*
G36*
X121063Y107000D02*
G03X121476Y107930I-1564J1251D01*
G01X121503Y108098*
X124650*
G03X126348Y108802I-1J2402*
G01X128198Y110652*
G03X128753Y111518I-1698J1699*
X129752Y113250I-1002J1732*
G01Y118250*
G03X129589Y119041I-2001J0*
G02X129556Y119199I366J159*
X129956Y119598I399J0*
G01X132705*
X133366Y118938*
X133332Y118823*
G03X133248Y118250I1918J-574*
G01Y113250*
G03X135250Y111248I2002*
G01X144106*
X144135Y111083*
G03X144802Y109802I2365J417*
G01X149302Y105302*
G03X151000Y104598I1699J1698*
G01X166000*
G03X167698Y105302I-1J2402*
G01X169916Y107519*
G02X170198Y107636I282J-283*
X170598Y107237I0J-400*
G01Y103995*
X165093Y98490*
G02X164952Y98432I-141J141*
X164884Y98444I0J199*
X164752Y98631I67J188*
G01Y98750*
G03X162750Y100752I-2002J0*
G01X133894*
X133865Y100917*
G03X133198Y102198I-2365J-417*
G01X130198Y105198*
G03X128500Y105902I-1699J-1698*
G01X121503*
X121476Y106070*
G03X121063Y107000I-1976J-321*
G37*
G36*
X180652Y169911D02*
G02X180689Y170080I400J1D01*
X181087Y170309I362J-170*
G01X181299Y170300*
X185663*
X185683Y170121*
G03X187673Y168337I1990J218*
G01X192610*
G03X193094Y168397I-2J2002*
X193579Y168337I487J1943*
G01X210327*
X210347*
G02X210548Y168137I1J-200*
G01Y162000*
G03X211267Y160267I2451J1*
G01X212377Y159157*
G03X213211Y158609I1735J1732*
G01X213338Y158559*
Y158421*
Y158419*
G03X213397Y157937I2003J1*
X213338Y157455I1942J-482*
G01Y157453*
Y156453*
Y156450*
G03X213397Y155968I2003J1*
X213338Y155486I1942J-482*
G01Y155484*
Y154484*
Y154482*
G03X213397Y154000I2003J1*
X213338Y153518I1942J-482*
G01Y153516*
Y152516*
Y152514*
G03X213397Y152032I2003J1*
X213338Y151550I1942J-482*
G01Y151547*
Y150547*
Y150545*
G03X213397Y150063I2003J1*
X213338Y149581I1942J-482*
G01Y149579*
Y148579*
Y148576*
G03X213397Y148094I2003J1*
X213338Y147612I1942J-482*
G01Y147610*
Y146610*
Y146608*
G03X213397Y146126I2003J1*
X213338Y145644I1942J-482*
G01Y145642*
Y144642*
Y144640*
G03X213397Y144158I2003J1*
X213338Y143676I1942J-482*
G01Y143673*
Y142673*
G03X213775Y141425I2001J0*
X213198Y139300I3625J-2125*
G01Y139299*
G03X213343Y138205I4202J0*
G02X213357Y138100I-386J-105*
X212957Y137700I-400J0*
G01X212336*
X212317Y137879*
G03X210327Y139662I-1990J-219*
G01X209327*
G03X207992Y139152I0J-2002*
G02X207725I-133J149*
G03X206390Y139663I-1336J-1491*
G01X187673*
G03X185683Y137879I0J-2002*
G01X185663Y137700*
X185299*
G03X183601Y136997I0J-2402*
G01X183383Y136780*
G02X182700Y137062I-283J283*
G01Y140664*
X182879Y140683*
G03X184662Y142673I-219J1990*
G01Y143673*
Y143676*
G03X184603Y144158I-2002J0*
X184662Y144640I-1943J483*
G01Y144642*
Y145642*
Y145644*
G03X184603Y146126I-2002J0*
X184662Y146608I-1943J483*
G01Y146610*
Y147610*
Y147612*
G03X184603Y148094I-2002J0*
X184662Y148576I-1943J483*
G01Y148579*
Y149579*
G03X184152Y150914I-2002J0*
G02X184101Y151047I149J133*
X184152Y151181I200J1*
G03X184662Y152516I-1492J1335*
G01Y153516*
Y153518*
G03X184603Y154000I-2002J0*
X184662Y154482I-1943J483*
G01Y154484*
Y155484*
Y155486*
G03X184603Y155968I-2002J0*
X184662Y156450I-1943J483*
G01Y156453*
Y157453*
Y157455*
G03X184603Y157937I-2002J0*
X184662Y158419I-1943J483*
G01Y158421*
Y159421*
Y159424*
G03X184603Y159906I-2002J0*
X184662Y160388I-1943J483*
G01Y160390*
Y161390*
Y161392*
G03X184603Y161874I-2002J0*
X184662Y162356I-1943J483*
G01Y162358*
Y163358*
Y163360*
G03X184603Y163842I-2002J0*
X184662Y164324I-1943J483*
G01Y164327*
Y165327*
G03X182661Y167328I-2001J0*
G01X182617*
G03X181997Y168399I-2318J-627*
G01X180769Y169628*
G02X180652Y169911I283J283*
G37*
G36*
X30500Y128500D02*
G01Y138000D01*
X77000*
X78000Y139000*
Y145500*
X72000Y151500*
Y156000*
X75998*
Y152999*
G03X75999Y152998I1J0*
G01X76000*
Y152000*
X81500Y146500*
Y126500*
X70000Y115000*
Y91000*
X56000*
Y103000*
X30500Y128500*
G37*
G36*
X328364Y87198D02*
G02X328763Y87598I400J0D01*
G01X333829*
G03X335527Y88302I-1J2402*
G01X372698Y125473*
G03X373402Y127171I-1698J1699*
G01Y138999*
G03X377002Y144500I-2403J5501*
X376787Y146092I-6002J0*
G02X376772Y146199I384J108*
X377172Y146598I399J0*
G01X377173*
X377503*
X377554Y146476*
G03X379400Y145248I1846J774*
G01X382600*
G03X383500Y145462I-1J2003*
X384400Y145248I901J1788*
G01X387600*
G03X388849Y145686I-1J2002*
G02X389098Y145773I249J-313*
X389498Y145373I0J-400*
G01Y86850*
X388283Y85635*
X388169Y85669*
G03X387600Y85752I-570J-1919*
G01X384400*
G03X382398Y83750I0J-2002*
G01Y80250*
X382399Y80207*
Y80002*
X378999*
G03X378998Y80001I0J-1*
G01Y79716*
X378852Y79675*
G03X377451Y78206I548J-1925*
X376702Y77698I949J-2206*
G01X375779Y76775*
G02X375496Y76658I-283J283*
X375215Y76773I0J400*
G03X371000Y78502I-4215J-4273*
X364998Y72500I0J-6002*
X368598Y66999I6003J0*
G01Y64995*
X365005Y61402*
X344995*
X338402Y67995*
Y76000*
G03X337698Y77698I-2402J-1*
G01X328481Y86916*
G02X328364Y87198I283J282*
G37*
G36*
X332336Y92801D02*
G02X332488Y93115I400J0D01*
G03X332698Y93302I-1489J1884*
G01X363698Y124302*
G03X364402Y126000I-1698J1699*
G01Y212405*
X366221Y214225*
G02X366504Y214342I283J-283*
X366785Y214227I0J-400*
G03X371000Y212498I4215J4273*
X376448Y215982I0J6002*
G01X376502Y216098*
X376650*
G03X378348Y216802I-1J2402*
G01X380795Y219248*
X382600*
G03X383500Y219462I-1J2003*
X384400Y219248I901J1788*
G01X387600*
G03X389602Y221250J2002*
G01Y224750*
G03X389580Y225040I-2002J-6*
G02X389576Y225098I396J56*
X389976Y225498I400J0*
G01X390550*
X392498Y223550*
Y203450*
X383524Y194476*
G03X382498Y192000I2475J-2476*
G01Y157375*
X382489Y157346*
G03X382398Y156750I1911J-597*
G01Y153250*
X382399Y153207*
Y153002*
X378999*
G03X378998Y153001I0J-1*
G01Y152716*
X378852Y152675*
G03X377554Y151524I548J-1925*
G01X377503Y151402*
X375500*
G03X373802Y150698I1J-2402*
G01X373191Y150088*
G03X371000Y150502I-2191J-5588*
X364998Y144500I0J-6002*
X368598Y138999I6003J0*
G01Y128166*
X332834Y92402*
X332736*
G02X332360Y92665I0J400*
X332336Y92801I376J136*
G37*
G36*
X30000Y77000D02*
G01Y91000D01*
X47000*
X51000Y87000*
X81000*
X87000Y93000*
Y168500*
X106500Y188000*
X131000*
X141000Y198000*
X182000*
X185000Y195000*
Y190000*
X183000Y188000*
X146000*
X136000Y178000*
X108000*
X94000Y164000*
Y89000*
X86000Y81000*
X77002*
Y81001*
G03X77001Y81002I-1J0*
G01X72999*
G03X72998Y81001I0J-1*
G01Y81000*
X51000*
X47000Y77000*
X30000*
G37*
G36*
X163402Y26995D02*
G01Y51304D01*
G02X163615Y51503I200J-1*
G01X163750Y51498*
X172250*
G03X174252Y53500J2002*
G01Y54598*
X176000*
G03X177698Y55302I-1J2402*
G01X180698Y58302*
G03X181402Y60000I-1698J1699*
G01Y72000*
G03X180698Y73698I-2402J-1*
G01X180470Y73927*
G02X180353Y74210I283J283*
X180390Y74379I400J1*
X180788Y74608I363J-170*
G01X181000Y74598*
X222005*
X223598Y73005*
Y62995*
X220005Y59402*
X219252*
Y60500*
G03X217250Y62502I-2002J0*
G01X208750*
X208615Y62497*
G02X208402Y62696I-14J199*
G01Y66150*
G03X207698Y67848I-2402J-1*
G01X206848Y68698*
G03X206252Y69134I-1700J-1698*
G01Y70500*
G03X204250Y72502I-2002J0*
G01X195750*
G03X193748Y70500I0J-2002*
G01Y63500*
G03X194285Y62136I2001J0*
G02X194339Y62000I-146J-137*
X194285Y61864I-200J1*
G03X193748Y60500I1464J-1364*
G01Y59402*
X190700*
G03X189002Y58698I1J-2402*
G01X182302Y51998*
G03X181806Y51277I1698J-1699*
X180555Y49871I694J-1877*
G02X180097Y49572I-389J95*
G03X179750Y49602I-345J-1972*
G01X170250*
G03X168248Y47600I0J-2002*
G01Y44400*
G03X169476Y42554I2002J0*
G01X169598Y42502*
Y32158*
G03X170302Y30460I2402J1*
G01X173156Y27605*
Y19000*
G03X175158Y16998I2002J0*
G01X185158*
G03X187160Y19000J2002*
G01Y29000*
G03X185158Y31002I-2002J0*
G01X176553*
X174402Y33153*
Y42398*
X179750*
G03X180097Y42428I2J2002*
G02X180555Y42129I69J-394*
G03X182500Y40598I1945J470*
G01X185500*
G03X187502Y42600J2002*
G01Y49400*
G03X187372Y50109I-2002J-1*
G01X187326Y50230*
X191695Y54598*
X193748*
Y53500*
G03X195750Y51498I2002*
G01X196597*
G02X196996Y51098I-1J-400*
X196882Y50818I-400J0*
G03X196310Y49417I1430J-1401*
G01Y42617*
Y42616*
G03X196764Y41347I2001J0*
G01X196810Y41292*
Y41117*
Y41116*
G03X196839Y40700I3001J0*
G01X196840Y40687*
Y30326*
G03X192840Y24000I3002J-6326*
X199842Y16998I7002J0*
X206844Y24000J7002*
X202844Y30326I-7002J0*
G01Y41086*
X202834Y41319*
G03X203312Y42617I-1523J1298*
G01Y43616*
X204017*
G03X205715Y44319I0J2402*
G01X207698Y46302*
G03X208402Y48000I-1698J1699*
G01Y51304*
G02X208615Y51503I200J-1*
G01X208750Y51498*
X217250*
G03X219252Y53500J2002*
G01Y54598*
X221000*
G03X222698Y55302I-1J2402*
G01X227698Y60302*
G03X228402Y62000I-1698J1699*
G01Y74000*
G03X227698Y75698I-2402J-1*
G01X224698Y78698*
X224591Y78799*
G02X224456Y79098I265J299*
X224484Y79245I400J0*
X224856Y79498I372J-147*
G01X225750*
G03X227647Y80861I0J2002*
G01X227693Y80998*
X228001*
G03X228002Y80999I0J1*
G01Y87001*
G03X228001Y87002I-1J0*
G01X227693*
X227647Y87139*
G03X226799Y88205I-1897J-639*
X227201Y89901I-3799J1796*
G02X227884Y90174I400J-10*
G01X244873Y73184*
G02X244990Y72902I-283J-282*
X244591Y72502I-400J0*
G01X240750*
G03X238748Y70500I0J-2002*
G01Y63500*
G03X239285Y62136I2001J0*
G02X239339Y62000I-146J-137*
X239285Y61864I-200J1*
G03X238748Y60500I1464J-1364*
G01Y59402*
X235000*
G03X233302Y58698I1J-2402*
G01X228302Y53698*
G03X227598Y52000I1698J-1699*
G01Y51187*
G03X226532Y49765I902J-1787*
G01X226502Y49602*
X217250*
G03X215248Y47600I0J-2002*
G01Y44400*
G03X216476Y42554I2002J0*
G01X216598Y42502*
Y31002*
X215158*
G03X213156Y29000I0J-2002*
G01Y19000*
G03X215158Y16998I2002J0*
G01X225158*
G03X226825Y17892I0J2001*
G02X227321Y18037I334J-221*
G03X227483Y18002I164J365*
G01X229599*
X232820Y21222*
G02X233467Y21104I283J-284*
G03X239842Y16998I6375J2896*
X246217Y21104I0J7002*
G02X246864Y21222I364J-165*
G01X250243Y17844*
X252879*
X253066Y17891*
G02X253571Y17781I187J-354*
G03X255158Y16998I1588J1219*
G01X265158*
G03X266745Y17781I-1J2002*
G02X267250Y17891I318J-244*
G01X267437Y17844*
X269441*
X272820Y21222*
G02X273467Y21104I283J-284*
G03X279842Y16998I6375J2896*
X286844Y24000I0J7002*
X286478Y26234I-7001J0*
G01X286438Y26352*
X290933Y30847*
G03X291812Y32969I-2122J2122*
G01Y41294*
G03X292312Y42617I-1500J1323*
G01Y43616*
X295017*
G03X296715Y44319I0J2402*
G01X298698Y46302*
G03X299402Y48000I-1698J1699*
G01Y64237*
G02X300084Y64519I400J-2*
G01X301302Y63302*
G03X303000Y62598I1699J1698*
G01X309552*
G03X313000Y60798I3448J2403*
X317202Y65000J4202*
X313000Y69202I-4202J0*
X309610Y67483I0J-4202*
G01X309550Y67402*
X309281*
G02X309081Y67602I0J200*
X309139Y67743I200J0*
G01X310198Y68802*
G03X310735Y69621I-1698J1699*
G01X310785Y69748*
X319750*
G03X321752Y71750J2002*
G01Y79250*
G03X320752Y80983I-2002J0*
X320198Y81848I-2252J-833*
G01X319131Y82916*
G02X319014Y83198I283J282*
X319413Y83598I400J0*
G01X325005*
X333598Y75005*
Y67000*
G03X334302Y65302I2402J1*
G01X342302Y57302*
G03X344000Y56598I1699J1698*
G01X366000*
G03X367698Y57302I-1J2402*
G01X372698Y62302*
G03X373402Y64000I-1698J1699*
G01Y66999*
G03X376817Y71021I-2403J5501*
G01X378345Y72549*
G03X379400Y72248I1056J1701*
G01X382600*
G03X383500Y72462I-1J2002*
X384400Y72248I901J1789*
G01X387600*
G03X388849Y72686I-1J2002*
G02X389498Y72373I249J-313*
G01Y63450*
X380550Y54502*
X343450*
X334976Y62976*
G03X332500Y64002I-2476J-2475*
G01X332065*
X332005Y64070*
G03X331139Y64647I-1505J-1320*
G01X331002Y64693*
Y65001*
G03X331001Y65002I-1J0*
G01X324999*
G03X324998Y65001I0J-1*
G01Y64693*
X324861Y64647*
G03X323498Y62750I639J-1897*
G01Y58250*
X323499Y58206*
Y58002*
X321752*
Y58250*
G03X319750Y60252I-2002J0*
G01X307250*
G03X305248Y58250I0J-2002*
G01Y50750*
G03X305612Y49600I2002J1*
X305598Y49350I2390J-259*
G01Y48498*
X305476Y48446*
G03X304248Y46600I774J-1846*
G01Y44794*
X298460Y39006*
G03X297756Y37308I1698J-1699*
G01Y31002*
X295158*
G03X293156Y29000I0J-2002*
G01Y19000*
G03X295158Y16998I2002J0*
G01X305158*
G03X307160Y19000J2002*
G01Y29000*
G03X305158Y31002I-2002J0*
G01X302560*
Y36313*
X307644Y41398*
X315356*
X317440Y39313*
Y30577*
G03X312840Y24000I2402J-6577*
X319842Y16998I7002J0*
X326844Y24000I0J7002*
X322244Y30577I-7002J0*
G01Y40308*
G03X321540Y42006I-2402J-1*
G01X317752Y45794*
Y46600*
G03X317123Y48057I-2002J0*
G02X316997Y48348I274J291*
X317030Y48506I400J-1*
X317397Y48748I367J-158*
G01X319750*
G03X321752Y50750J2002*
G01Y50998*
X323794*
X323802Y50808*
G03X328000Y46798I4198J192*
X332202Y51000J4202*
G01Y51001*
G03X331502Y53323I-4202J0*
G01Y55581*
G02X332184Y55864I400J-1*
G01X339524Y48524*
G03X342000Y47498I2476J2475*
G01X382000*
G03X384476Y48524I0J3501*
G01X395476Y59524*
G03X396502Y62000I-2475J2476*
G01Y62585*
X396816*
X396874Y62487*
G03X397614Y61758I1727J1013*
G02X397816Y61410I-198J-348*
X397611Y61061I-400J0*
G03X396582Y59312I972J-1749*
G01Y59311*
Y56311*
G03X398583Y54310I2001*
G01X399582*
Y52978*
X386005Y39402*
X371145*
G02X370746Y39802I1J400*
X370785Y39975I400J1*
G03X371202Y41800I-3785J1825*
X367000Y46002I-4202J0*
X363552Y44202I0J-4202*
G01X349254*
G03X347556Y43498I1J-2402*
G01X338502Y34444*
G03X337798Y32746I1698J-1699*
G01Y20195*
X326805Y9202*
X181195*
X163402Y26995*
G37*
G36*
X2001Y2001D02*
G01Y238999D01*
X285040*
Y238782*
X285036Y238674*
Y222926*
G03X285898Y221281I2001J0*
G01Y211718*
X285897Y211705*
X285896Y211700*
G03X285868Y211260I3474J-442*
G01Y210908*
X285790Y210848*
G03X285006Y209260I1218J-1589*
G01Y201386*
G03X287008Y199384I2002*
G01X291732*
G03X293734Y201386J2002*
G01Y209260*
G03X292880Y210900I-2002J0*
X292902Y211290I-3483J392*
G01Y221281*
G03X293764Y222926I-1139J1645*
G01Y238674*
X293760Y238782*
Y238999*
X442999*
Y2001*
X335362*
G02X334963Y2401I1J400*
X335080Y2684I400J0*
G01X346698Y14302*
G03X347402Y16000I-1698J1699*
G01Y30005*
X351995Y34598*
X387000*
G03X388698Y35302I-1J2402*
G01X395916Y42519*
G02X396598Y42237I282J-283*
G01Y40500*
G03X398600Y38498I2002*
G01X412865*
X416524Y34839*
G03X418998Y33814I2475J2476*
G01Y32315*
G03X420998Y30314I2001*
G01X431000*
G03X433002Y32315I0J2002*
G01Y42315*
G03X431002Y44316I-2001J0*
G01X421000*
G03X419109Y42971I0J-2002*
G02X418448Y42819I-378J131*
G01X416791Y44476*
G03X414315Y45502I-2476J-2475*
G01X399863*
G02X399465Y45902I2J400*
X399581Y46184I400J0*
G01X403681Y50285*
G03X404384Y51983I-1699J1698*
G01Y54310*
X405383*
G03X407170Y55410I0J2002*
G01X418294*
X418402Y55302*
G03X419384Y54708I1698J1698*
X429926Y51203I6616J2293*
X433002Y57000I-3926J5798*
X430584Y62293I-7002J0*
X419755Y60167I-4584J-5293*
G01X419289Y60212*
X407170*
G03X406369Y61053I-1787J-900*
G02X406167Y61401I198J348*
X406372Y61750I400J0*
G03X407402Y63500I-972J1750*
G01Y66500*
G03X405400Y68502I-2002J0*
G01X398600*
G03X397184Y67915I0J-2001*
G02X396502Y68198I-282J283*
G01Y78600*
G03X395476Y81076I-3501J0*
G01X394552Y82000*
X395476Y82924*
G03X396502Y85400I-2475J2476*
G01Y94802*
G02X397184Y95085I400J-1*
G03X398600Y94498I1416J1414*
G01X416920*
G03X418998Y93814I2079J2818*
G01Y92315*
G03X420998Y90314I2001J0*
G01X431000*
G03X433002Y92315I0J2002*
G01Y102315*
G03X431002Y104316I-2001J0*
G01X421000*
G03X418998Y102315I0J-2002*
G01Y101891*
G02X418569Y101492I-400*
G01X418315Y101502*
X398600*
G03X397184Y100915I0J-2001*
G02X396502Y101198I-282J283*
G01Y110597*
G02X397182Y110882I400J-1*
G03X398583Y110310I1401J1430*
G01X405383*
G03X407175Y111420I0J2002*
G01X413821*
G03X415519Y112123I0J2402*
G01X417995Y114598*
X419423*
G03X426000Y109998I6577J2402*
X433002Y117000J7002*
X426000Y124002I-7002J0*
X419423Y119402I0J-7002*
G01X417000*
G03X415302Y118698I1J-2402*
G01X412826Y116222*
X407165*
G03X406369Y117053I-1782J-910*
G02X406167Y117401I198J348*
X406372Y117750I400J0*
G03X407402Y119500I-972J1750*
G01Y122500*
G03X405400Y124502I-2002J0*
G01X398600*
G03X397184Y123915I0J-2001*
G02X396502Y124198I-282J283*
G01Y151498*
X398000*
G03X400476Y152524I0J3501*
G01X404476Y156524*
G03X405502Y159000I-2475J2476*
G01Y160498*
X417865*
X418998Y159365*
Y152315*
G03X420998Y150314I2001J0*
G01X431000*
G03X433002Y152315I0J2002*
G01Y162315*
G03X431002Y164316I-2001J0*
G01X423950*
X421791Y166476*
G03X419315Y167502I-2476J-2475*
G01X405975*
G02X405576Y167902I1J400*
X405580Y167960I400J2*
G03X405602Y168250I-1980J296*
G01Y170355*
X409845Y174598*
X419423*
G03X426000Y169998I6577J2402*
X433002Y177000I0J7002*
X426000Y184002I-7002J0*
X419423Y179402I0J-7002*
G01X408850*
G03X407152Y178698I1J-2402*
G01X402205Y173752*
X400400*
G03X398398Y171750I0J-2002*
G01Y168250*
G03X398837Y167000I2002J1*
X398398Y165750I1563J-1251*
G01Y162250*
G03X398489Y161654I2002J1*
G01X398498Y161625*
Y160450*
X396550Y158502*
X389502*
Y190550*
X398476Y199524*
G03X399502Y202000I-2475J2476*
G01Y225000*
G03X398476Y227476I-3501J0*
G01X394476Y231476*
G03X392000Y232502I-2476J-2475*
G01X388569*
G03X387600Y232752I-969J-1753*
G01X384400*
G03X382398Y230750I0J-2002*
G01Y227250*
X382399Y227210*
Y227002*
X378999*
G03X378998Y227001I0J-1*
G01Y226716*
X378852Y226675*
G03X377398Y224750I547J-1925*
G01Y222645*
X376574Y221821*
G02X375961Y221878I-283J283*
G03X365197Y220032I-4961J-3378*
G01X365183Y219979*
X360302Y215098*
G03X359598Y213400I1698J-1699*
G01Y126995*
X330005Y97402*
X303995*
X299578Y101818*
G02X299461Y102101I283J283*
X299498Y102270I400J1*
X299875Y102501I363J-169*
G01X300000Y102498*
X300998*
Y102000*
G03X303000Y99998I2002*
G01X311000*
G03X312778Y101081J2001*
G02X313375Y101216I355J-184*
G03X322081Y102807I3624J4784*
X323001Y106001I-5082J3193*
X320074Y111155I-6002J0*
G01X320118Y111613*
Y111617*
Y114730*
X320297Y114750*
G03X322081Y116740I-218J1990*
G01Y122809*
G02X322507Y123208I400J0*
G01X322638Y123204*
X330512*
G03X332514Y125205I0J2002*
G01Y129929*
G03X332128Y131110I-2003J-1*
X332514Y132292I-1618J1182*
G01Y137016*
G03X332128Y138197I-2003J-1*
X332514Y139378I-1617J1182*
G01Y144102*
G03X330512Y146104I-2002J0*
G01X322638*
G03X320636Y144102I0J-2002*
G01Y139378*
G03X321022Y138197I2002J1*
X320636Y137016I1616J-1182*
G01Y132292*
G03X321022Y131110I2003J0*
X320636Y129929I1616J-1182*
G01Y127011*
G02X320210Y126612I-400J0*
G01X320079Y126616*
X287008*
G03X285006Y124614I0J-2002*
G01Y116740*
G03X285720Y115208I2002J1*
G02X285862Y114902I-258J-306*
X285838Y114764I-400J-1*
X285463Y114502I-376J138*
G01X278450*
X276502Y116450*
Y123204*
X277362*
G03X279364Y125205I0J2002*
G01Y129929*
G03X278978Y131110I-2003J-1*
X279364Y132292I-1618J1182*
G01Y137016*
G03X278978Y138197I-2003J-1*
X279364Y139378I-1617J1182*
G01Y144102*
G03X278978Y145284I-2004J0*
X279364Y146465I-1617J1182*
G01Y151189*
G03X278978Y152370I-2003J-1*
X279364Y153551I-1617J1182*
G01Y158275*
G03X278978Y159456I-2003J-1*
X279364Y160638I-1618J1182*
G01Y165362*
G03X278978Y166544I-2004J0*
X279364Y167725I-1617J1182*
G01Y172449*
G03X278978Y173630I-2003J-1*
X279364Y174811I-1617J1182*
G01Y179535*
G03X278978Y180716I-2003J-1*
X279364Y181898I-1618J1182*
G01Y186622*
G03X278978Y187803I-2003J-1*
X279364Y188984I-1617J1182*
G01Y193708*
G03X277362Y195710I-2002J0*
G01X269488*
G03X267486Y193708I0J-2002*
G01Y188984*
G03X267872Y187803I2002J1*
X267486Y186622I1616J-1182*
G01Y181898*
G03X267872Y180716I2003J0*
X267486Y179535I1616J-1182*
G01Y174811*
G03X267872Y173630I2002J1*
X267486Y172449I1616J-1182*
G01Y167725*
G03X267872Y166544I2002J1*
X267486Y165362I1617J-1182*
G01Y165136*
X267386Y165078*
G03X266890Y164698I1200J-2080*
G01X266593Y164402*
X260501*
G03X249499I-5501J-2401*
G01X244000*
G03X242302Y163698I1J-2402*
G01X235989Y157386*
X222072*
X222061Y157574*
G03X222005Y157937I-1999J-123*
X222064Y158418I-1943J483*
G01Y159421*
Y159424*
G03X222005Y159906I-2002J0*
X222064Y160387I-1943J483*
G01Y161391*
G03X221893Y162200I-2001J0*
G02X221859Y162361I366J161*
X222058Y162707I400J0*
G03X222560Y163094I-1233J2118*
G01X224361Y164894*
G02X224937Y164885I284J-282*
G03X225852Y164325I1464J1365*
G01X225998Y164284*
Y163999*
G03X225999Y163998I1J0*
G01X230001*
G03X230002Y163999I0J1*
G01Y164284*
X230148Y164325*
G03X230569Y164498I-545J1926*
G01X231676*
X231726Y164467*
G03X234000Y163798I2275J3533*
X238202Y168000J4202*
X234000Y172202I-4202J0*
X231726Y171533I1J-4202*
G01X231676Y171502*
X230569*
G03X229600Y171752I-969J-1753*
G01X226400*
G03X224574Y170570I0J-2001*
G01X224521Y170452*
X224000*
G03X222267Y169733I1J-2451*
G01X219862Y167328*
X215452*
Y173985*
X225733Y184267*
G03X226452Y186000I-1732J1734*
G01Y207985*
X238860Y220393*
G03X245688Y222252I2141J5607*
G02X246312I312J-250*
G03X251000Y219998I4688J3748*
X257002Y226000I0J6002*
X251000Y232002I-6002J0*
X246312Y229748I0J-6002*
G02X245688I-312J250*
G03X238123Y231268I-4688J-3748*
X234998Y226000I2877J-5268*
X235393Y223860I6002J1*
G01X224134Y212601*
G02X223452Y212884I-282J283*
G01Y220521*
G03X227001Y225999I-2453J5478*
X226242Y228920I-6002J-1*
X217375Y230784I-5243J-2921*
G02X216778Y230919I-242J319*
G03X215000Y232002I-1778J-918*
G01X207000*
G03X204998Y230000I0J-2002*
G01Y222000*
G03X207000Y219998I2002*
G01X207493*
X207504Y219809*
G03X208498Y217550I3496J190*
G01Y212075*
G02X207999Y211688I-400J1*
G03X207500Y211752I-502J-1938*
G01X202500*
G03X201500Y211484I1J-2002*
X200500Y211752I-1001J-1734*
G01X195500*
G03X194500Y211484I1J-2002*
X193500Y211752I-1001J-1734*
G01X188500*
G03X186995Y211070I0J-2002*
G01X186935Y211002*
X186500*
G03X185266Y210777I1J-3503*
G01X185050Y210730*
X184990Y210715*
G03X183771Y210143I850J-3397*
G01X183715Y210102*
X183307Y209753*
X181249Y207695*
X181138Y207589*
X179694Y206145*
G03X179397Y205806I2480J-2472*
G01X179313Y205697*
G03X178974Y205165I2771J-2140*
G01X178925Y205070*
G03X178690Y204495I3111J-1607*
G01X178670Y204430*
G03X178543Y203837I3348J-1027*
G01X178526Y203702*
G03X178498Y203265I3474J-442*
G01Y200002*
X140171*
X130171Y190002*
X105671*
X84998Y169329*
Y93829*
X80171Y89002*
X72002*
Y109838*
G03X72675Y110852I-1252J1561*
G01X72716Y110998*
X73001*
G03X73002Y110999I0J1*
G01Y115172*
X83502Y125671*
Y147329*
X80115Y150715*
G02X79998Y150998I283J283*
X80022Y151135I400J0*
X80398Y151398I376J-137*
G01X81750*
G03X83752Y153400J2002*
G01Y156601*
G03X83538Y157501I-2003J-1*
X83752Y158400I-1789J901*
G01Y161600*
G03X83002Y163162I-2002J0*
G01Y164000*
G03X82122Y166122I-3001J-1*
G01X81842Y166403*
Y169685*
G03X79842Y171686I-2001J0*
G01X77640*
G03X75638Y169685I0J-2002*
G01Y165685*
G03X75747Y165035I2002J2*
X76618Y163138I2994J226*
G01X76783Y162973*
X76674Y162833*
G03X76325Y162148I1576J-1234*
G01X76284Y162002*
X75999*
G03X75998Y162001I0J-1*
G01Y158602*
X72249*
G03X70820Y158002I0J-2002*
G01X69999*
G03X69998Y158001I0J-1*
G01Y150671*
X75998Y144671*
Y141002*
X71999*
G03X71998Y141001I0J-1*
G01Y140716*
X71852Y140675*
G03X70838Y140002I548J-1925*
G01X28499*
G03X28498Y140001I0J-1*
G01Y127671*
X30485Y125684*
G02X30602Y125402I-283J-282*
X30202Y125002I-400J0*
G01X19180*
G03X17751Y125602I-1429J-1402*
G01X8250*
G03X6248Y123600I0J-2002*
G01Y120400*
G03X6438Y119550I2002J1*
G02X6457Y119465I-181J-85*
X6347Y119286I-200J0*
G03X5248Y117500I902J-1786*
G01Y112500*
G03X7250Y110498I2002*
G01X11750*
G03X13647Y111861I0J2002*
G01X13693Y111998*
X14001*
G03X14002Y111999I0J1*
G01Y118398*
X17751*
G03X19180Y118998I0J2002*
G01X37171*
X45940Y110229*
X45953Y110209*
X45954Y110207*
G03X46621Y109541I1708J1044*
G01X46641Y109528*
X53998Y102171*
Y89002*
X51829*
X47829Y93002*
X43090*
G03X41914Y93384I-1176J-1620*
G01X30102*
G03X28926Y93002I0J-2002*
G01X27999*
G03X27998Y93001I0J-1*
G01Y89252*
G02X27481Y88870I-400J0*
G03X26602Y89002I-880J-2870*
G01X19180*
G03X17751Y89602I-1429J-1402*
G01X8250*
G03X6248Y87600I0J-2002*
G01Y84400*
G03X6438Y83550I2002J1*
G02X6457Y83465I-181J-85*
X6347Y83286I-200J0*
G03X5248Y81500I902J-1786*
G01Y76500*
G03X7250Y74498I2002*
G01X11750*
G03X13647Y75861I0J2002*
G01X13693Y75998*
X14001*
G03X14002Y75999I0J1*
G01Y82398*
X17751*
G03X19180Y82998I0J2002*
G01X25359*
X26480Y81878*
G03X27848Y81095I2123J2122*
G01X27998Y81056*
Y74999*
G03X27999Y74998I1J0*
G01X28926*
G03X30102Y74616I1176J1620*
G01X41914*
G03X43090Y74998I0J2002*
G01X47829*
X51829Y78998*
X86829*
X96002Y88171*
Y145066*
G02X96568Y145430I400J0*
G03X96852Y145325I834J1819*
G01X96998Y145284*
Y144999*
G03X96999Y144998I1J0*
G01X101001*
G03X101002Y144999I0J1*
G01Y145284*
X101148Y145325*
G03X102602Y147250I-547J1925*
G01Y150750*
G03X102548Y151211I-2002J-1*
G01X102522Y151320*
X103200Y151998*
X104248*
Y146000*
G03X105201Y143701I3252J1*
G01X108201Y140701*
G03X110500Y139748I2300J2299*
G01X123000*
G03X125299Y140701I-1J3252*
G01X132299Y147701*
G03X133252Y150000I-2299J2300*
G01Y162076*
G03X133752Y163400I-1503J1324*
G01Y166600*
G03X133244Y167932I-2002J-1*
G02X133143Y168198I299J266*
X133542Y168598I400J0*
G01X146000*
G03X147698Y169302I-1J2402*
G01X158995Y180598*
X171398*
Y180359*
X171384Y180324*
X171325Y180148*
X171284Y180002*
X170999*
G03X170998Y180001I0J-1*
G01Y175999*
G03X170999Y175998I1J0*
G01X171284*
X171325Y175852*
G03X171462Y175500I1927J547*
X171325Y175148I1788J-899*
G01X171284Y175002*
X170999*
G03X170998Y175001I0J-1*
G01Y171402*
X162000*
G03X160302Y170698I1J-2402*
G01X158152Y168548*
G03X157601Y167691I1699J-1698*
X155484Y165691I-113J-2001*
G01Y164602*
G02X154839Y164322I-398J34*
G03X153600Y164752I-1240J-1572*
G01X150400*
G03X148398Y162750I0J-2002*
G01Y159250*
G03X149852Y157325I2001J0*
G01X149998Y157284*
Y156999*
G03X149999Y156998I1J0*
G01X154001*
G03X154002Y156999I0J1*
G01Y157284*
X154148Y157325*
G03X155446Y158475I-547J1925*
G01X155497Y158598*
X157521*
G03X158793Y158964I-2J2401*
G01X162212*
X162407Y158973*
X162464Y158978*
X162694Y158865*
X162573Y158621*
X162539Y158593*
G03X161786Y157029I1248J-1564*
G01Y152305*
G03X162731Y150605I2002J0*
G02X162920Y150265I-211J-340*
X162808Y149988I-400J1*
G03X162325Y149148I1442J-1388*
G01X162284Y149002*
X161999*
G03X161998Y149001I0J-1*
G01Y144999*
G03X161999Y144998I1J0*
G01X162284*
X162325Y144852*
G03X162462Y144500I1927J547*
X162325Y144148I1788J-899*
G01X162284Y144002*
X161999*
G03X161998Y144001I0J-1*
G01Y140602*
X158250*
G03X156415Y139402I0J-2003*
G01X155602*
Y139750*
G03X154148Y141675I-2001J0*
G01X154002Y141716*
Y142001*
G03X154001Y142002I-1J0*
G01X149999*
G03X149998Y142001I0J-1*
G01Y141716*
X149852Y141675*
G03X148398Y139750I547J-1925*
G01Y139646*
G02X147724Y139355I-400J0*
G03X146350Y139902I-1375J-1455*
G01X139650*
G03X137648Y137900I0J-2002*
G01Y134700*
G03X139650Y132698I2002*
G01X146350*
G03X148184Y133898I0J2001*
G01X150450*
G03X151698Y134248I-1J2402*
G01X153600*
G03X154731Y134598I0J2002*
G01X156415*
G03X156532Y134372I1837J808*
X155798Y132000I3468J-2373*
X156811Y129264I4202J0*
X161817Y128212I3189J2736*
X164202Y132000I-1817J3789*
X164102Y132911I-4202J0*
G02X164095Y132954I391J86*
G01X164093Y132976*
X164092Y132998*
G02X164492Y133398I400J0*
G01X167752*
G03X168348Y133489I-1J2002*
G01X168377Y133498*
X170677*
G03X176690Y134992I2322J3502*
X177201Y137001I-3691J2008*
X174378Y140970I-4202J0*
G02X174110Y141348I132J378*
X174226Y141630I400J0*
G01X174698Y142102*
G03X175402Y143800I-1698J1699*
G01Y145913*
X175763Y146274*
X175977Y146061*
X175961Y145960*
X175942Y145803*
X175936Y145645*
Y145642*
Y144639*
G03X175995Y144158I2003J2*
X175936Y143676I1942J-482*
G01Y143673*
Y142673*
G03X177719Y140683I2002J0*
G01X177898Y140664*
Y129294*
X166302Y117698*
G03X165598Y116000I1698J-1699*
G01Y113995*
X165435Y113831*
G02X164752Y114113I-283J283*
G01Y118250*
G03X162750Y120252I-2002J0*
G01X143634*
G03X143198Y120848I-2133J-1103*
G01X137348Y126698*
G03X135650Y127402I-1699J-1698*
G01X108000*
G03X106302Y126698I1J-2402*
G01X99302Y119698*
G03X98598Y118000I1698J-1699*
G01Y55595*
X95191Y52188*
G03X87890Y49749I-2191J-5588*
G02X87210I-340J210*
G03X82100Y52602I-5110J-3150*
X76098Y46600I0J-6002*
X82100Y40598I6002J0*
X87210Y43451I0J6003*
G02X87890I340J-210*
G03X98110I5110J3150*
G02X98790I340J-210*
G03X108167Y42379I5110J3149*
G02X108843Y42182I285J-281*
G03X108927Y41893I1959J413*
G02X108953Y41752I-374J-142*
X108603Y41355I-400J0*
G03X104240Y38549I746J-5955*
G02X103560I-340J210*
G03X93340I-5110J-3150*
G02X92660I-340J210*
G03X82440I-5110J-3150*
G02X81760I-340J210*
G03X76650Y41402I-5110J-3150*
X70648Y35400I0J-6002*
X76650Y29398I6002J0*
X81760Y32251I0J6003*
G02X82440I340J-210*
G03X92660I5110J3150*
G02X93340I340J-210*
G03X103560I5110J3150*
G02X104240I340J-210*
G03X113338Y30914I5110J3149*
X115352Y35400I-3988J4486*
X113323Y39899I-6002J0*
G02X113188Y40198I265J299*
X113216Y40345I400J0*
X113588Y40598I372J-147*
G01X118800*
G03X120802Y42600J2002*
G01Y50600*
G03X118800Y52602I-2002J0*
G01X110800*
G03X108843Y51018I0J-2001*
G02X108167Y50821I-391J84*
G03X106302Y52101I-4269J-4221*
G01Y115905*
X109995Y119598*
X123044*
G02X123443Y119198I-1J-400*
X123411Y119041I-400J0*
G03X123248Y118250I1838J-791*
G01Y113250*
X123253Y113116*
Y112902*
X121503*
X121476Y113070*
G03X120139Y114647I-1976J-320*
G01X120002Y114693*
Y115001*
G03X120001Y115002I-1J0*
G01X113999*
G03X113998Y115001I0J-1*
G01Y114693*
X113861Y114647*
G03X112498Y112750I639J-1897*
G01Y108250*
G03X112937Y107000I2002J1*
X112498Y105750I1563J-1251*
G01Y101250*
G03X113861Y99353I2002J0*
G01X113998Y99307*
Y98999*
G03X113999Y98998I1J0*
G01X120001*
G03X120002Y98999I0J1*
G01Y99307*
X120139Y99353*
G03X121476Y100930I-639J1897*
G01X121503Y101098*
X123845*
G02X124221Y100835I0J-400*
X124245Y100698I-376J-136*
X124079Y100374I-400J0*
G03X123248Y98750I1171J-1624*
G01Y93750*
G03X124098Y92112I2003J0*
G01Y91500*
G03X124123Y91155I2402J1*
X123248Y89500I1128J-1655*
G01Y84500*
G03X125250Y82498I2002*
G01X136750*
G03X137500Y82644I-1J2002*
X138250Y82498I751J1857*
G01X149751*
G03X150501Y82644I-1J2002*
X151250Y82498I751J1856*
G01X155750*
G03X157647Y83861I0J2002*
G01X157693Y83998*
X158001*
G03X158002Y83999I0J1*
G01Y90001*
G03X158001Y90002I-1J0*
G01X157693*
X157647Y90139*
G03X157028Y91040I-1896J-640*
G02X156883Y91348I255J308*
X156906Y91482I400J0*
X157283Y91748I377J-134*
G01X162753*
G03X163054Y91771I-2J2002*
G02X163514Y91376I60J-395*
G01Y80911*
X154302Y71698*
G03X153598Y70000I1698J-1699*
G01Y22000*
G03X154302Y20302I2402J1*
G01X171920Y2684*
G02X172037Y2401I-283J-283*
X171638Y2001I-400J0*
G01X2001*
G37*
%LPC*%
G36*
X371274Y83504D02*
G03X377002Y89500I-274J5996D01*
X370726Y95496I-6002J0*
X364998Y89500I274J-5996*
X371274Y83504I6002J0*
G37*
G36*
X351274Y66504D02*
G03X357002Y72500I-274J5996D01*
X350726Y78496I-6002J0*
X344998Y72500I274J-5996*
X351274Y66504I6002J0*
G37*
G36*
X371274Y157504D02*
G03X377002Y163500I-274J5996D01*
X370726Y169496I-6002J0*
X364998Y163500I274J-5996*
X371274Y157504I6002J0*
G37*
G36*
X7250Y146498D02*
G01X11750D01*
G03X13647Y147861I0J2002*
G01X13693Y147998*
X14001*
G03X14002Y147999I0J1*
G01Y154398*
X17750*
G03X19752Y156400I0J2002*
G01Y159601*
G03X19002Y161163I-2002J0*
G01Y164595*
X19122Y164716*
G03X20001Y166776I-2122J2123*
X20752Y168338I-1251J1563*
G01Y170836*
X22338*
G03X24814Y171862I0J3501*
G01X42450Y189498*
X45202*
G02X45602Y189098I0J-400*
X45485Y188816I-400J0*
G01X27498Y170829*
Y146999*
G03X27499Y146998I1J0*
G01X56501*
G03X56502Y146999I0J1*
G01Y159501*
G03X56501Y159502I-1J0*
G01X48002*
Y170671*
X49829Y172498*
X60025*
G02X60424Y172098I-1J-400*
G01Y172083*
X60423Y172069*
X60420Y172040*
G03X60398Y171750I1980J-296*
G01Y168250*
G03X62400Y166248I2002*
G01X65600*
G03X67162Y166998I0J2002*
G01X67702*
X68158Y166542*
Y165685*
G03X70158Y163684I2001J0*
G01X72360*
G03X74362Y165685I0J2002*
G01Y169685*
G03X72362Y171686I-2001J0*
G01X71503*
X71067Y172122*
X71034Y172155*
G02X70974Y172298I140J143*
X70986Y172365I200J-1*
X71173Y172498I188J-67*
G01X74001*
G03X74002Y172499I0J1*
G01Y174313*
X79840*
G03X81842Y176315J2002*
G01Y180315*
X81840Y180403*
X81836Y180491*
X82122Y180778*
G03X83001Y182837I-2122J2123*
X83752Y184400I-1251J1563*
G01Y187600*
G03X81750Y189602I-2002J0*
G01X78002*
Y193001*
G03X78001Y193002I-1J0*
G01X77716*
X77675Y193148*
G03X75750Y194602I-1925J-547*
G01X72250*
G03X71789Y194548I1J-2002*
G01X71680Y194522*
X70726Y195476*
G03X68250Y196502I-2476J-2475*
G01X62472*
G02X62087Y196797I0J399*
X62073Y196902I385J105*
X62271Y197247I399J0*
G03X65001Y201999I-2771J4752*
G01X64984Y202433*
X64977Y202525*
X71476Y209024*
G03X72502Y211500I-2475J2476*
G01Y220550*
X79450Y227498*
X98577*
X98605Y227331*
G03X100579Y225660I1974J330*
G01X109043*
G03X111044Y227661I0J2001*
G01Y234339*
G03X109043Y236340I-2001J0*
G01X100579*
G03X98605Y234669I0J-2001*
G01X98577Y234502*
X78000*
G03X75524Y233476I0J-3501*
G01X66524Y224476*
G03X65498Y222000I2475J-2476*
G01Y212950*
X60025Y207477*
X59933Y207484*
X59500Y207502*
X48500*
G03X44257Y205502I0J-5501*
G01X36662*
G03X34186Y204476I0J-3501*
G01X14524Y184814*
G03X13498Y182338I2475J-2476*
G01Y181308*
X13476Y181264*
G03X13248Y180338I1774J-928*
G01Y168338*
G03X13461Y167440I2002J1*
X12998Y165838I2540J-1602*
G01Y161602*
X8250*
G03X6248Y159600I0J-2002*
G01Y156400*
G03X6438Y155550I2002J1*
G02X6457Y155465I-181J-85*
X6347Y155286I-200J0*
G03X5248Y153500I902J-1786*
G01Y148500*
G03X7250Y146498I2002J0*
G37*
G36*
X13842Y218499D02*
G03X22502Y227000I158J8501D01*
X14158Y235501I-8502J0*
X5498Y227000I-158J-8501*
X13842Y218499I8502J0*
G37*
G36*
X43556Y30005D02*
G03X54952Y41000I394J10995D01*
X44344Y51995I-11002J0*
X32948Y41000I-394J-10995*
X43556Y30005I11002J0*
G37*
G36*
X115795Y191998D02*
G01X127795D01*
G03X129796Y193998I0J2001*
G01Y210000*
G03X127795Y212002I-2002J0*
G01X125296*
Y225055*
X125291Y225252*
X125290Y225275*
G02X125645Y225672I400J0*
G03X127422Y227661I-225J1989*
G01Y234339*
G03X125421Y236340I-2001J0*
G01X116957*
G03X114956Y234339I0J-2001*
G01Y227661*
G03X116957Y225660I2001J0*
G01X117682*
X117693Y225470*
G03X118294Y223692I3496J191*
G01Y212002*
X115795*
G03X113794Y210002J-2001*
G01Y194000*
G03X115795Y191998I2002J0*
G37*
G36*
X141656Y30005D02*
G03X153052Y41000I394J10995D01*
X142444Y51995I-11002J0*
X131048Y41000I-394J-10995*
X141656Y30005I11002J0*
G37*
G36*
X315885Y170017D02*
G01X315887Y169947D01*
G03X320227Y165887I4200J140*
G02X320640Y165488I13J-399*
G01X320639Y165477*
Y165467*
X320636Y165362*
Y160638*
G03X321022Y159456I2003J0*
X320636Y158275I1616J-1182*
G01Y153551*
G03X322636Y151550I2001J0*
G01X330512*
G03X332514Y153551I0J2002*
G01Y158275*
G03X332128Y159456I-2003J-1*
X332514Y160638I-1617J1182*
G01Y165362*
G03X332128Y166544I-2003J0*
X332514Y167725I-1616J1182*
G01Y172449*
G03X332128Y173630I-2003J-1*
X332514Y174811I-1616J1182*
G01Y179535*
G03X332128Y180716I-2003J-1*
X332514Y181898I-1617J1182*
G01Y186622*
G03X332128Y187803I-2003J-1*
X332514Y188984I-1616J1182*
G01Y193708*
G03X330512Y195710I-2002J0*
G01X322638*
G03X320636Y193708I0J-2002*
G01Y188984*
G03X321022Y187803I2002J1*
X320636Y186622I1616J-1182*
G01Y181898*
G03X321022Y180716I2003J0*
X320636Y179535I1616J-1182*
G01Y174811*
X320639Y174707*
Y174697*
Y174687*
G02X320226Y174287I-400J0*
G03X315885Y170087I-139J-4200*
G01Y170017*
G37*
G36*
X351274Y138504D02*
G03X357002Y144500I-274J5996D01*
X350726Y150496I-6002J0*
X344998Y144500I274J-5996*
X351274Y138504I6002J0*
G37*
G36*
Y212504D02*
G03X357002Y218500I-274J5996D01*
X350726Y224496I-6002J0*
X344998Y218500I274J-5996*
X351274Y212504I6002J0*
G37*
G36*
X371274Y11504D02*
G03X377002Y17500I-274J5996D01*
X370726Y23496I-6002J0*
X364998Y17500I274J-5996*
X371274Y11504I6002J0*
G37*
G36*
X427842Y4499D02*
G03X436502Y13000I158J8501D01*
X428158Y21501I-8502J0*
X419498Y13000I-158J-8501*
X427842Y4499I8502J0*
G37*
G36*
X430842Y216499D02*
G03X439502Y225000I158J8501D01*
X431158Y233501I-8502J0*
X422498Y225000I-158J-8501*
X430842Y216499I8502J0*
G37*
G36*
X12842Y5499D02*
G03X21502Y14000I158J8501D01*
X13158Y22501I-8502J0*
X4498Y14000I-158J-8501*
X12842Y5499I8502J0*
G37*
%LPD*%
G36*
X29500Y149000D02*
G01Y170000D01*
X47000Y187500*
X65000*
X71915Y180585*
X71906Y180492*
X71898Y180315*
Y176315*
G03X71991Y175714I2002J2*
G01X72000Y175685*
Y174500*
X49000*
X46000Y171500*
Y157500*
X54500*
Y149000*
X29500*
G37*
G54D28*
X13000Y14000D03*
X14000Y227000D03*
X428000Y13000D03*
X431000Y225000D03*
G54D52*
X16500Y79000D03*
X9500D03*
X16500Y115000D03*
X9500D03*
X16500Y151000D03*
X9500D03*
X127500Y87000D03*
X134500D03*
X160500D03*
X153500D03*
X147500D03*
X140500D03*
X223500Y84000D03*
X230500D03*
G54D71*
X54000Y202000D03*
G54D64*
X104811Y231000D03*
X121189D03*
G54D51*
X10000Y86000D03*
X16000D03*
X10000Y122000D03*
X16000D03*
X10000Y158000D03*
X16000D03*
X75000Y113000D03*
X69000D03*
X74000Y155000D03*
Y160000D03*
Y191000D03*
Y186000D03*
X80000Y155000D03*
Y160000D03*
Y191000D03*
Y186000D03*
X130000Y165000D03*
X124000D03*
X110000D03*
X116000D03*
X166000Y147000D03*
X160000D03*
X166000Y142000D03*
X160000D03*
X166000Y137000D03*
X160000D03*
X169000Y178000D03*
Y173000D03*
X178000Y46000D03*
X172000D03*
X175000Y178000D03*
Y173000D03*
X225000Y46000D03*
X219000D03*
Y135000D03*
X225000D03*
X256000Y132000D03*
X250000D03*
X267000Y46000D03*
X261000D03*
X308000Y45000D03*
X314000D03*
G54D70*
X54000Y225600D03*
G54D107*
X184000Y46000D03*
X199811Y46017D03*
X245811D03*
X230000Y46000D03*
X288811Y46017D03*
X273000Y46000D03*
G54D22*
X114800Y46600D03*
X211000Y226000D03*
G54D21*
X16500Y73500D03*
Y109702D03*
Y145000D03*
X7000Y134000D03*
X17000D03*
X7000Y209000D03*
Y189000D03*
X22000Y64000D03*
X42000D03*
X22000Y54000D03*
X42000D03*
X30338Y109000D03*
X27000Y209000D03*
Y229000D03*
X62000Y24000D03*
Y64000D03*
Y54000D03*
X59000Y97000D03*
X67000D03*
X75000Y73500D03*
X61205Y71295D03*
X59000Y102300D03*
X66939D03*
X76000Y107500D03*
X82000Y24000D03*
X102000D03*
X82000Y64000D03*
X99000Y139000D03*
X107500Y129500D03*
X85000Y191000D03*
X87000Y204000D03*
X122000Y24000D03*
Y64000D03*
X117000Y91000D03*
X122000Y79000D03*
X131500Y110500D03*
X111500Y117500D03*
X112500Y129500D03*
X117500D03*
X122500D03*
X112500Y150500D03*
X142000Y24000D03*
Y64000D03*
X160500Y81000D03*
X143000Y154000D03*
X152000Y148000D03*
X157000Y147000D03*
X156333Y154667D03*
X160000Y132000D03*
X169671Y163329D03*
X164000Y178000D03*
X156000Y170500D03*
X145000Y162500D03*
X167000Y209000D03*
X142000Y224000D03*
X167000D03*
X187000Y34000D03*
X174000Y67000D03*
X187000Y69000D03*
X183000Y112000D03*
X193000Y111000D03*
X187000Y151000D03*
X171000Y150000D03*
X173000Y137000D03*
X190142Y166000D03*
X191000Y157500D03*
X179000Y175000D03*
X190000Y194000D03*
X174764Y190200D03*
X181000Y195000D03*
X192000Y224000D03*
X221000Y67000D03*
X212000Y39000D03*
X223000Y90000D03*
X213000Y111250D03*
X203000Y111000D03*
X228000Y131006D03*
X207858Y141858D03*
X206000Y154500D03*
X217400Y139300D03*
X206000Y162500D03*
X232000Y77000D03*
X256000Y114000D03*
X233000Y162000D03*
X237000Y184000D03*
X234000Y168000D03*
X237000Y209000D03*
X265000Y67000D03*
X263000Y114000D03*
X282283Y126717D03*
X287000Y154000D03*
Y134000D03*
X262000Y132000D03*
Y184000D03*
X287000D03*
Y169000D03*
X282283Y212717D03*
X263433Y198433D03*
X272000Y236700D03*
Y225900D03*
X278700Y219300D03*
X282800Y225600D03*
X282900Y236200D03*
X301189Y48189D03*
X313000Y65000D03*
X312000Y134000D03*
Y184000D03*
X320087Y170087D03*
X317717Y213717D03*
X310630Y213630D03*
X303543Y213543D03*
X296457Y213457D03*
X307100Y236700D03*
X306900Y226100D03*
X300200Y219700D03*
X295900Y236200D03*
Y225300D03*
X328000Y51000D03*
X344500Y89500D03*
X325000Y74000D03*
X333827Y148827D03*
X345500Y163500D03*
X332567Y198433D03*
X358000Y23000D03*
X367000Y41800D03*
X379000Y159000D03*
X387000Y24000D03*
X381000Y89000D03*
X401983Y84983D03*
Y141983D03*
X381000Y233000D03*
X417000Y69000D03*
X412000Y129000D03*
Y194000D03*
G54D20*
X76650Y35400D03*
X71200Y46600D03*
X109350Y35400D03*
X98450D03*
X87550D03*
X103900Y46600D03*
X93000D03*
X82100D03*
X221000Y226000D03*
X231000D03*
X255000Y152000D03*
Y162000D03*
X241000Y226000D03*
X251000D03*
X286000Y88000D03*
X276000D03*
X317000Y106000D03*
X351000Y17500D03*
Y72500D03*
Y89500D03*
X327000Y106000D03*
X351000Y144500D03*
Y163500D03*
Y218500D03*
X371000Y17500D03*
Y72500D03*
Y89500D03*
Y144500D03*
Y163500D03*
Y218500D03*
G54D53*
X188000Y84800D03*
X183000D03*
X198000D03*
X193000D03*
X183000Y105200D03*
X188000D03*
X193000D03*
X198000D03*
X213000Y84800D03*
X208000D03*
X203000D03*
Y105200D03*
X208000D03*
X213000D03*
G54D50*
X117000Y96500D03*
Y103500D03*
Y117500D03*
Y110500D03*
X198000Y200500D03*
Y207500D03*
X191000Y200500D03*
Y207500D03*
X212000Y200500D03*
Y207500D03*
X205000Y200500D03*
Y207500D03*
X249000Y118500D03*
Y125500D03*
X256000Y118500D03*
Y125500D03*
X263000Y118500D03*
Y125500D03*
X328000Y60500D03*
Y67500D03*
G54D27*
X75000Y77000D03*
Y83000D03*
X74000Y137000D03*
Y143000D03*
X64000Y170000D03*
Y176000D03*
X99000Y149000D03*
Y143000D03*
X152000Y155000D03*
Y138000D03*
Y144000D03*
Y161000D03*
X195000Y184000D03*
X190000D03*
X195000Y190000D03*
X190000D03*
X228000Y168000D03*
Y162000D03*
X210000Y184000D03*
X205000D03*
X200000D03*
X210000Y190000D03*
X205000D03*
X200000D03*
X381000Y76000D03*
Y82000D03*
X386000D03*
Y76000D03*
X381000Y149000D03*
Y155000D03*
X386000D03*
Y149000D03*
X402000Y170000D03*
Y164000D03*
X381000Y223000D03*
Y229000D03*
X386000D03*
Y223000D03*
G54D44*
X17000Y174338D03*
Y197662D03*
G54D62*
X61205Y93055D03*
Y84000D03*
Y74945D03*
G54D72*
X43950Y41000D03*
X142050D03*
G54D109*
X196047Y135299D03*
X194079D03*
X192110D03*
X190142D03*
X188173D03*
Y172701D03*
X190142D03*
X192110D03*
X194079D03*
X196047D03*
X209827Y135299D03*
X207858D03*
X205890D03*
X203921D03*
X201953D03*
X199984D03*
X198016D03*
Y172701D03*
X199984D03*
X201953D03*
X203921D03*
X205890D03*
X207858D03*
X209827D03*
G54D106*
X126500Y96250D03*
X131500D03*
X136500D03*
X131500Y115750D03*
X126500D03*
X136500D03*
X141500Y96250D03*
X146500D03*
X151500D03*
X156500D03*
X161500D03*
X146500Y115750D03*
X141500D03*
X151500D03*
X161500D03*
X156500D03*
G54D59*
X36008Y84000D03*
G54D110*
X180299Y143173D03*
Y145142D03*
Y147110D03*
Y149079D03*
Y151047D03*
Y153016D03*
Y154984D03*
Y156953D03*
Y158921D03*
Y160890D03*
Y162858D03*
Y164827D03*
X217701Y153016D03*
Y151047D03*
Y149079D03*
Y147110D03*
Y145142D03*
Y143173D03*
Y164827D03*
Y162858D03*
Y160890D03*
Y158921D03*
Y156953D03*
Y154984D03*
G54D24*
X121795Y202000D03*
G54D46*
X64000Y134094D03*
Y145906D03*
G54D63*
X53000Y183189D03*
Y166811D03*
G54D56*
X168000Y57000D03*
Y67000D03*
X200000D03*
Y57000D03*
X213000D03*
Y67000D03*
X258000Y57000D03*
Y67000D03*
X245000D03*
Y57000D03*
X290000Y67000D03*
Y57000D03*
G54D22*
X255000Y142000D03*
G54D45*
X30338Y113000D03*
X53662D03*
G54D22*
X266000Y88000D03*
X307000Y106000D03*
G54D49*
X71260Y167685D03*
X75000D03*
X71260Y178315D03*
X75000D03*
X78740Y167685D03*
Y178315D03*
G54D48*
X42000Y134748D03*
Y153252D03*
G54D47*
X159850Y154667D03*
X166150D03*
X159850Y163329D03*
X166150D03*
G54D111*
X289370Y120677D03*
X282283D03*
Y205323D03*
X289370D03*
X317717Y120677D03*
X310630D03*
X303543D03*
X296457D03*
Y205323D03*
X303543D03*
X310630D03*
X317717D03*
G54D55*
X107500Y155500D03*
Y134500D03*
X112500Y155500D03*
X117500D03*
X122500D03*
Y134500D03*
X117500D03*
X112500D03*
X313500Y54500D03*
X308500D03*
X303500D03*
Y75500D03*
X308500D03*
X313500D03*
X318500Y54500D03*
Y75500D03*
G54D54*
X143000Y136300D03*
Y149700D03*
G54D19*
X35500Y213800D03*
G54D112*
X273425Y127567D03*
Y134654D03*
Y141740D03*
Y148827D03*
Y155913D03*
Y163000D03*
Y170087D03*
Y177173D03*
Y184260D03*
Y191346D03*
Y198433D03*
X326575Y155913D03*
Y148827D03*
Y141740D03*
Y134654D03*
Y127567D03*
Y184260D03*
Y177173D03*
Y170087D03*
Y163000D03*
Y198433D03*
Y191346D03*
G54D26*
X199842Y24000D03*
X239842D03*
X279842D03*
X319842D03*
X426000Y57000D03*
Y76685D03*
Y117000D03*
Y136685D03*
Y177000D03*
Y196685D03*
G54D23*
X106205Y202000D03*
G54D29*
X180158Y24000D03*
X220158D03*
X260158D03*
X300158D03*
X426000Y37315D03*
Y97315D03*
Y157315D03*
G54D25*
X279006Y230800D03*
X289400D03*
X299794D03*
G54D108*
X402000Y65000D03*
X401983Y57811D03*
X402000Y42000D03*
X401983Y80811D03*
X402000Y121000D03*
X401983Y113811D03*
X402000Y98000D03*
X401983Y136811D03*
G54D13*
X122500Y155500D02*
G01Y160900D01*
X124000Y162400*
Y165000*
X117500Y155500D02*
G01Y160900D01*
X116000Y162400*
Y165000*
G54D113*
X9500Y79000D02*
G01Y85500D01*
X10000Y86000*
X16500Y79000D02*
G01Y73500D01*
X16000Y86000D02*
G01X26602D01*
X28602Y84000*
X36008*
X42000Y122000D02*
G01X16000D01*
X16500Y115000D02*
G01Y109702D01*
X9500Y115000D02*
G01Y121500D01*
X10000Y122000*
X16500Y151000D02*
G01Y145000D01*
X9500Y151000D02*
G01Y157500D01*
X10000Y158000*
X16000D02*
G01Y165838D01*
X17000Y166838*
Y174338*
X30338Y113000D02*
G01Y109000D01*
X75000Y77000D02*
G01Y73500D01*
X61205Y74945D02*
G01Y71295D01*
X75000Y113000D02*
G01Y108500D01*
X76000Y107500*
X75000Y167685D02*
G01Y164000D01*
X74000Y163000*
Y160000*
X64000Y170000D02*
G01X68945D01*
X71260Y167685*
X74000Y186000D02*
G01Y182900D01*
X75000Y181900*
Y178315*
X99000Y143000D02*
G01Y139000D01*
X107500Y134500D02*
G01X112500D01*
X107500D02*
G01Y129500D01*
X80000Y186000D02*
G01Y182900D01*
X78740Y181640*
Y178315*
X80000Y160000D02*
G01Y164000D01*
X78740Y165260*
Y167685*
X80000Y155000D02*
G01Y160000D01*
Y191000D02*
G01X85000D01*
X117000Y96500D02*
G01Y91000D01*
X131500Y115750D02*
G01Y110500D01*
X117000Y117500D02*
G01X111500D01*
X112500Y134500D02*
G01X117500D01*
X122500D02*
G01X117500D01*
X112500D02*
G01Y129500D01*
X117500Y134500D02*
G01Y129500D01*
X122500Y134500D02*
G01Y129500D01*
X112500Y155500D02*
G01Y150500D01*
X160500Y87000D02*
G01Y81000D01*
X143000Y149700D02*
G01Y154000D01*
X152000Y144000D02*
G01Y148000D01*
Y155000D02*
G01Y148000D01*
X160000Y147000D02*
G01Y142000D01*
Y147000D02*
G01X157000D01*
X159850Y154667D02*
G01X156333D01*
X166150Y163329D02*
G01X169671D01*
X169000Y178000D02*
G01X164000D01*
X168000Y67000D02*
G01X174000D01*
X183000Y105200D02*
G01Y112000D01*
X169000Y178000D02*
G01Y173000D01*
X190000Y190000D02*
G01Y194000D01*
X199842Y24000D02*
G01Y41086D01*
X199811Y41117*
Y46017*
X213000Y67000D02*
G01X221000D01*
X213000Y84800D02*
G01X218950D01*
X219750Y84000*
X223500*
X223000Y90000D02*
G01Y84500D01*
X223500Y84000*
X225000Y135000D02*
G01X228000Y132000D01*
Y131006*
X245811Y46017D02*
G01Y29969D01*
X239842Y24000*
X230500Y84000D02*
G01Y78500D01*
X232000Y77000*
X256000Y118500D02*
G01X263000D01*
X249000D02*
G01X256000D01*
Y118500D02*
G01Y114000D01*
X228000Y162000D02*
G01X233000D01*
X279842Y24000D02*
G01X288811Y32969D01*
Y46017*
X258000Y67000D02*
G01X265000D01*
X263000Y118500D02*
G01Y114000D01*
X282283Y120677D02*
G01Y126717D01*
Y205323D02*
G01Y212717D01*
X273425Y198433D02*
G01X263433D01*
X303500Y54500D02*
G01Y52000D01*
X301189Y49689*
Y48189*
X317717Y205323D02*
G01Y213717D01*
X310630Y205323D02*
G01Y213630D01*
X303543Y205323D02*
G01Y213543D01*
X296457Y205323D02*
G01Y213457D01*
X351000Y89500D02*
G01X344500D01*
X328000Y67500D02*
G01Y71000D01*
X325000Y74000*
X326575Y148827D02*
G01X333827D01*
X351000Y163500D02*
G01X345500D01*
X326575Y198433D02*
G01X332567D01*
X351000Y17500D02*
G01X355500D01*
X358000Y20000*
Y23000*
X381000Y89000D02*
G01X380914Y88914D01*
Y86086*
X381000Y86000*
Y82000*
X401983Y80811D02*
G01Y84983D01*
Y136811D02*
G01Y141983D01*
X381000Y155000D02*
G01Y157000D01*
X379000Y159000*
X381000Y229000D02*
G01Y233000D01*
G54D73*
X54000Y202000D02*
G01X36662D01*
X17000Y182338*
Y174338*
X74000Y191000D02*
G01X70250D01*
X68250Y193000*
X41000*
X22338Y174338*
X17000*
X74000Y191000D02*
G01Y186000D01*
X104811Y231000D02*
G01X78000D01*
X69000Y222000*
Y211500*
X59500Y202000*
X54000*
X107500Y155500D02*
G01X101750D01*
X99000Y152750*
Y149000*
Y149000D02*
G01X92500D01*
X107500Y155500D02*
G01Y162500D01*
X110000Y165000*
X121795Y202000D02*
G01Y225055D01*
X121189Y225661*
Y231000*
X166000Y137000D02*
G01Y142000D01*
Y137000D02*
G01X173000D01*
X175000Y173000D02*
G01X177000D01*
X179000Y175000*
X175000Y178000D02*
G01X176179D01*
X179000Y175179*
Y175000*
X191000Y207500D02*
G01X198000D01*
Y207500D02*
G01X205000D01*
X182000Y194000D02*
G01Y203265D01*
X182017Y203400*
X182037Y203465*
X182086Y203560*
X182170Y203669*
X183614Y205113*
X183630Y205124*
X185783Y207277*
X185839Y207318*
X185899Y207333*
X186333*
X186500Y207500*
X191000*
X228000Y168000D02*
G01X234000D01*
X212000Y207500D02*
G01Y219000D01*
X211000Y220000*
Y226000*
X205000Y207500D02*
G01X212000D01*
X256000Y125500D02*
G01X263000D01*
X256000Y132000D02*
G01Y125500D01*
X262000Y132000D02*
G01X256000D01*
X263000Y125500D02*
G01X271358D01*
X273000Y127142*
X307000Y106000D02*
G01X300000D01*
X295000Y111000*
X277000*
X273000Y115000*
Y127142*
Y127142D02*
G01X273425Y127567D01*
X289400Y230800D02*
G01Y211290D01*
X289370Y211260*
Y205323*
X318500Y54500D02*
G01X325500D01*
X328000Y57000*
X389600Y82000D02*
G01X393000Y78600D01*
Y62000*
X382000Y51000*
X342000*
X332500Y60500*
X328000*
Y57000D02*
G01Y51000D01*
Y60500D02*
G01Y57000D01*
X402000Y42000D02*
G01X414315D01*
X419000Y37315*
X426000*
X389600Y82000D02*
G01X386000D01*
X393000Y155000D02*
G01Y85400D01*
X389600Y82000*
X402000Y98000D02*
G01X418315D01*
X419000Y97315*
X426000*
X386000Y155000D02*
G01X393000D01*
Y155000D02*
G01X398000D01*
X402000Y159000*
Y164000*
X386000Y155000D02*
G01Y192000D01*
X396000Y202000*
Y225000*
X392000Y229000*
X386000*
X402000Y164000D02*
G01X419315D01*
X426000Y157315*
G54D114*
X107500Y155500D02*
G01Y146000D01*
X110500Y143000*
X123000*
X130000Y150000*
Y165000*
G54D15*
X2000Y239000D02*
G01Y2000D01*
X443000*
Y239000*
X2000*
X0Y0D02*
G01Y241000D01*
X445000*
Y0*
X0*
X275620Y222926D02*
G01X303180D01*
Y238674*
X275620*
Y222926*
G54D12*
X136500Y115750D02*
G01Y119200D01*
X133700Y122000*
X109000*
X103900Y116900*
Y46600*
X93000D02*
G01X101000Y54600D01*
Y118000*
X108000Y125000*
X135650*
X141500Y119150*
Y115750*
X134500Y87000D02*
G01Y90850D01*
X136500Y92850*
Y96250*
X127500Y87000D02*
G01Y90500D01*
X126500Y91500*
Y96250*
X131500D02*
G01Y100500D01*
X128500Y103500*
X117000*
Y110500D02*
G01X124650D01*
X126500Y112350*
Y115750*
X124000Y165000D02*
G01Y167454D01*
X127546Y171000*
X146000*
X158000Y183000*
X178000*
X184000Y177000*
X190685*
X192110Y175575*
Y172701*
X116000Y165000D02*
G01Y167500D01*
X121500Y173000*
X144000*
X156000Y185000*
X179000*
X185000Y179000*
X191231*
X194079Y176152*
Y172701*
X401983Y57811D02*
G01Y51983D01*
X387000Y37000*
X351000*
X345000Y31000*
Y16000*
X333000Y4000*
X174000*
X156000Y22000*
Y70000*
X165916Y79916*
Y95916*
X173000Y103000*
Y113000*
X190142Y130142*
Y135299*
X192110D02*
G01Y129326D01*
X177000Y114216*
Y100000*
X170000Y93000*
Y80000*
X161000Y71000*
Y26000*
X180200Y6800*
X327800*
X340200Y19200*
Y32746*
X349254Y41800*
X367000*
X140500Y87000D02*
G01Y91850D01*
X141500Y92850*
Y96250*
X153500Y87000D02*
G01Y90850D01*
X151500Y92850*
Y96250*
X147500Y87000D02*
G01Y91850D01*
X146500Y92850*
Y96250*
X180299Y143173D02*
G01Y128299D01*
X168000Y116000*
Y113000*
X165000Y110000*
X153000*
X151500Y111500*
Y115750*
X188173Y135299D02*
G01X185299D01*
X183000Y133000*
Y128000*
X170000Y115000*
Y111000*
X166000Y107000*
X151000*
X146500Y111500*
Y115750*
X143000Y136300D02*
G01X150450D01*
X152000Y137850*
Y137850D02*
G01Y138000D01*
X160000Y137000D02*
G01X153000D01*
X152150Y137850*
X152000*
X160000Y132000D02*
G01Y137000D01*
X180299Y149079D02*
G01X175171D01*
X173000Y146908*
Y143800*
X171200Y142000*
X166000*
Y147000D02*
G01Y151255D01*
X166150Y151405*
Y154667*
X152000Y161000D02*
G01X157521D01*
X159850Y163329*
X180299Y156953D02*
G01X176048D01*
X174000Y159001*
Y166000*
X171000Y169000*
X162000*
X159850Y166850*
Y163329*
X166150Y154667D02*
G01X169412D01*
X169729Y154984*
X180299*
X172000Y46000D02*
G01Y32158D01*
X180158Y24000*
X178000Y46000D02*
G01X184000D01*
X200000Y57000D02*
G01X190700D01*
X184000Y50300*
Y46000*
X168000Y57000D02*
G01X176000D01*
X179000Y60000*
Y72000*
X173000Y78000*
Y90000*
X180000Y97000*
X187100*
X193000Y102900*
Y105200*
X213000Y57000D02*
G01X221000D01*
X226000Y62000*
Y74000*
X223000Y77000*
X181000*
X177000Y81000*
Y88000*
X183000Y94000*
X197000*
X203000Y100000*
Y105200*
X188000D02*
G01Y115000D01*
X194079Y121079*
Y135299*
X196047D02*
G01Y117952D01*
X198000Y115999*
Y105200*
X193000D02*
G01Y111000D01*
X180299Y151047D02*
G01X185853D01*
Y151047D02*
G01X185900Y151000D01*
X187000*
X171000Y150000D02*
G01X174016Y153016D01*
X180299*
X188173Y172701D02*
G01X181299D01*
X179000Y175000*
X180299Y164827D02*
G01Y166701D01*
X178000Y169000*
X176726*
X175000Y170726*
Y173000*
X190000Y184000D02*
G01Y182777D01*
X196047Y176730*
Y172701*
X198016D02*
G01Y178334D01*
X195000Y181350*
Y184000*
Y190000D02*
G01Y196750D01*
X191250Y200500*
X191000*
X219000Y46000D02*
G01Y31058D01*
X220158Y29900*
Y24000*
X230000Y46000D02*
G01X225000D01*
X200000Y67000D02*
G01X205150D01*
X206000Y66150*
Y48000*
X204017Y46017*
X199811*
X258000Y57000D02*
G01X268000D01*
X271000Y60000*
Y70000*
X268000Y73000*
X248454*
X223454Y98000*
X215950*
X213000Y100950*
Y105200*
X199984Y135299D02*
G01Y125016D01*
X205000Y120000*
X213000*
X218000Y115000*
Y106000*
X245000Y79000*
X254000*
X258000Y75000*
X293000*
X303000Y65000*
X313000*
X266000Y88000D02*
G01X244499D01*
X227500Y104999*
Y118000*
X219500Y126000*
X208000*
X203921Y130079*
Y135299*
X276000Y88000D02*
G01X271420Y92580D01*
X271400*
X270580Y93400*
X243600*
X231000Y106000*
Y118004*
X230415Y118589*
X230219Y118784*
X220053Y128949*
X219995Y129000*
X208927*
X205890Y132037*
Y135299*
X201953D02*
G01Y128047D01*
X207000Y123000*
X215000*
X222000Y116000*
Y104546*
X242546Y84000*
X256546*
X262746Y77800*
X292746*
X301546Y69000*
X307000*
X308500Y70500*
Y75500*
X198016Y135299D02*
G01Y122985D01*
X208000Y113001*
Y105200*
X213000D02*
G01Y111250D01*
X203000Y105200D02*
G01Y111000D01*
X217701Y153016D02*
G01X248484D01*
X249500Y152000*
X255000*
X217701Y143173D02*
G01X229827D01*
X235000Y138000*
Y106000*
X243800Y97200*
X290800*
X302000Y86000*
X326000*
X336000Y76000*
Y67000*
X344000Y59000*
X366000*
X371000Y64000*
Y72500*
X207858Y135299D02*
G01Y141858D01*
X219000Y135000D02*
G01Y138500D01*
X218200Y139300*
X217400*
X219000Y135000D02*
G01X216350D01*
X216051Y135299*
X209827*
X217701Y145142D02*
G01X232858D01*
X239000Y139000*
Y109000*
X245000Y103000*
X290000*
X303000Y90000*
X333829*
X371000Y127171*
Y144500*
Y218500D02*
G01X367100D01*
X362000Y213400*
Y126000*
X331000Y95000*
X303000*
X291000Y107000*
X247000*
X243000Y111000*
Y138000*
X233890Y147110*
X217701*
X255000Y142000D02*
G01X245000D01*
X235953Y151047*
X217701*
Y154984D02*
G01X236984D01*
X244000Y162000*
X255000*
X203921Y172701D02*
G01Y175885D01*
X210000Y181964*
Y184000*
X201953Y172701D02*
G01Y176463D01*
X205000Y179510*
Y184000*
X199984Y172701D02*
G01Y175963D01*
X200000Y175979*
Y184000*
X205000Y190000D02*
G01Y200500D01*
X200000Y190000D02*
G01Y195350D01*
X198000Y197350*
Y200500*
X210000Y190000D02*
G01Y195350D01*
X212000Y197350*
Y200500*
X230000Y46000D02*
G01Y52000D01*
X235000Y57000*
X245000*
Y67000D02*
G01X250150D01*
X252000Y65150*
Y49000*
X249017Y46017*
X245811*
X255000Y152000D02*
G01X259900D01*
X263813Y155913*
X273425*
X249000Y125500D02*
G01Y131000D01*
X250000Y132000*
Y132000D02*
G01Y137000D01*
X255000Y142000*
Y162000D02*
G01X267588D01*
X268588Y163000*
X273425*
X261000Y46000D02*
G01Y30742D01*
X260158Y29900*
Y24000*
X267000Y46000D02*
G01X273000D01*
X290000Y57000D02*
G01X277000D01*
X273000Y53000*
Y46000*
X303500Y75500D02*
G01X297592D01*
X293492Y79600*
X274400*
X266000Y88000*
X318500Y75500D02*
G01Y80150D01*
X316650Y82000*
X282000*
X276000Y88000*
X308000Y45000D02*
G01X307850D01*
X300158Y37308*
Y24000*
X308500Y54500D02*
G01Y49850D01*
X308000Y49350*
Y45000*
X313500Y54500D02*
G01Y49850D01*
X314000Y49350*
Y45000*
Y45000D02*
G01X315150D01*
X319842Y40308*
Y24000*
X288811Y46017D02*
G01X295017D01*
X297000Y48000*
Y65150*
X295150Y67000*
X290000*
X313500Y75500D02*
G01X308500D01*
X317000Y106000D02*
G01Y110900D01*
X317717Y111617*
Y120677*
X326575Y170087D02*
G01X320087D01*
X371000Y72500D02*
G01X374900D01*
X378400Y76000*
X381000*
Y149000D02*
G01X375500D01*
X371000Y144500*
Y218500D02*
G01X376650D01*
X381000Y222850*
Y223000*
X402000Y65000D02*
G01Y59328D01*
X401983Y59311*
Y57811*
Y57811D02*
G01X419289D01*
X420100Y57000*
X426000*
X386000Y76000D02*
G01X381000D01*
X402000Y121000D02*
G01Y119500D01*
X401993Y119493*
Y113821*
Y113821D02*
G01X401983Y113811D01*
X426000Y117000D02*
G01X417000D01*
X413821Y113821*
X401993*
X386000Y149000D02*
G01X381000D01*
X426000Y177000D02*
G01X408850D01*
X402000Y170150*
Y170000*
X381000Y223000D02*
G01X386000D01*
G54D115*
X190142Y172701D02*
G01Y166000D01*
X217701Y162858D02*
G01X222142D01*
X223000Y162000*
Y162000D02*
G01X228000D01*
X217701Y160890D02*
G01X214110D01*
X213000Y162000*
Y175000*
X224000Y186000*
Y209000*
X241000Y226000*
X228000Y168000D02*
G01X224000D01*
X220827Y164827*
X217701*
X221000Y226000D02*
G01Y187000D01*
X209827Y175827*
Y172701*
M02*
