G04 CAM350/DFMSTREAM V12.1 (Build 1022) Date:  Mon Jun 22 17:27:13 2020 *
G04 Database: (Untitled) *
G04 Layer 10: RAK811_v100SMASK_BOTTOM.art *
%FSLAX25Y25*%
%MOIN*%
%SFA1.000B1.000*%

%MIA0B0*%
%IPPOS*%
%ADD15C,0.00500*%
%ADD66O,0.07400X0.15400*%
%ADD67O,0.15400X0.07400*%
%ADD68O,0.18400X0.07400*%
%ADD69C,0.09000*%
%ADD74C,0.08300*%
%ADD75C,0.04800*%
%ADD76C,0.08500*%
%ADD77R,0.09000X0.09000*%
%ADD78C,0.08800*%
%ADD79R,0.05512X0.16535*%
%ADD80R,0.08800X0.08800*%
%ADD81O,0.13000X0.17000*%
%ADD82R,0.13000X0.17000*%
%ADD83C,0.11000*%
%ADD84C,0.14000*%
%ADD85R,0.03800X0.04100*%
%ADD86R,0.11000X0.11000*%
%ADD87C,0.18500*%
%ADD88R,0.08500X0.08500*%
%LNRAK811_v100SMASK_BOTTOM.art*%
%LPD*%
G54D84*
X13000Y14000D03*
X14000Y227000D03*
X428000Y13000D03*
X431000Y225000D03*
G54D83*
X199842Y24000D03*
X239842D03*
X279842D03*
X319842D03*
X426000Y57000D03*
Y76685D03*
Y117000D03*
Y136685D03*
Y177000D03*
Y196685D03*
G54D75*
X16500Y73500D03*
Y109702D03*
Y145000D03*
X7000Y134000D03*
X17000D03*
X7000Y209000D03*
Y189000D03*
X22000Y64000D03*
X42000D03*
X22000Y54000D03*
X42000D03*
X30338Y109000D03*
X27000Y209000D03*
Y229000D03*
X62000Y24000D03*
Y64000D03*
Y54000D03*
X59000Y97000D03*
X67000D03*
X75000Y73500D03*
X61205Y71295D03*
X59000Y102300D03*
X66939D03*
X76000Y107500D03*
X82000Y24000D03*
X102000D03*
X82000Y64000D03*
X99000Y139000D03*
X107500Y129500D03*
X85000Y191000D03*
X87000Y204000D03*
X122000Y24000D03*
Y64000D03*
X117000Y91000D03*
X122000Y79000D03*
X131500Y110500D03*
X111500Y117500D03*
X112500Y129500D03*
X117500D03*
X122500D03*
X112500Y150500D03*
X142000Y24000D03*
Y64000D03*
X160500Y81000D03*
X143000Y154000D03*
X152000Y148000D03*
X157000Y147000D03*
X156333Y154667D03*
X160000Y132000D03*
X169671Y163329D03*
X164000Y178000D03*
X156000Y170500D03*
X145000Y162500D03*
X167000Y209000D03*
X142000Y224000D03*
X167000D03*
X187000Y34000D03*
X174000Y67000D03*
X187000Y69000D03*
X183000Y112000D03*
X193000Y111000D03*
X187000Y151000D03*
X171000Y150000D03*
X173000Y137000D03*
X190142Y166000D03*
X191000Y157500D03*
X179000Y175000D03*
X190000Y194000D03*
X174764Y190200D03*
X181000Y195000D03*
X192000Y224000D03*
X221000Y67000D03*
X212000Y39000D03*
X223000Y90000D03*
X213000Y111250D03*
X203000Y111000D03*
X228000Y131006D03*
X207858Y141858D03*
X206000Y154500D03*
X217400Y139300D03*
X206000Y162500D03*
X232000Y77000D03*
X256000Y114000D03*
X233000Y162000D03*
X237000Y184000D03*
X234000Y168000D03*
X237000Y209000D03*
X265000Y67000D03*
X263000Y114000D03*
X282283Y126717D03*
X287000Y154000D03*
Y134000D03*
X262000Y132000D03*
Y184000D03*
X287000D03*
Y169000D03*
X282283Y212717D03*
X263433Y198433D03*
X272000Y236700D03*
Y225900D03*
X278700Y219300D03*
X282800Y225600D03*
X282900Y236200D03*
X301189Y48189D03*
X313000Y65000D03*
X312000Y134000D03*
Y184000D03*
X320087Y170087D03*
X317717Y213717D03*
X310630Y213630D03*
X303543Y213543D03*
X296457Y213457D03*
X307100Y236700D03*
X306900Y226100D03*
X300200Y219700D03*
X295900Y236200D03*
Y225300D03*
X328000Y51000D03*
X344500Y89500D03*
X325000Y74000D03*
X333827Y148827D03*
X345500Y163500D03*
X332567Y198433D03*
X358000Y23000D03*
X367000Y41800D03*
X379000Y159000D03*
X387000Y24000D03*
X381000Y89000D03*
X401983Y84983D03*
Y141983D03*
X381000Y233000D03*
X417000Y69000D03*
X412000Y129000D03*
Y194000D03*
G54D87*
X43950Y41000D03*
X142050D03*
G54D86*
X180158Y24000D03*
X220158D03*
X260158D03*
X300158D03*
X426000Y37315D03*
Y97315D03*
Y157315D03*
G54D85*
X193000Y120000D03*
Y114000D03*
X213000Y120000D03*
Y114000D03*
X201000Y120000D03*
Y114000D03*
G54D66*
X35500Y213800D03*
G54D77*
X211000Y226000D03*
G54D68*
X54000Y202000D03*
G54D69*
X221000Y226000D03*
X231000D03*
X241000D03*
X251000D03*
G54D67*
X54000Y225600D03*
G54D78*
X76650Y35400D03*
X71200Y46600D03*
X109350Y35400D03*
X98450D03*
X87550D03*
X103900Y46600D03*
X93000D03*
X82100D03*
G54D76*
X255000Y152000D03*
Y162000D03*
X286000Y88000D03*
X276000D03*
X317000Y106000D03*
X327000D03*
G54D88*
X255000Y142000D03*
G54D81*
X106205Y202000D03*
G54D88*
X266000Y88000D03*
X307000Y106000D03*
G54D80*
X114800Y46600D03*
G54D82*
X121795Y202000D03*
G54D79*
X279006Y230800D03*
X299794D03*
G54D74*
X351000Y17500D03*
Y72500D03*
Y89500D03*
Y144500D03*
Y163500D03*
Y218500D03*
X371000Y17500D03*
Y72500D03*
Y89500D03*
Y144500D03*
Y163500D03*
Y218500D03*
G54D15*
X2000Y239000D02*
G01Y2000D01*
X443000*
Y239000*
X2000*
X0Y0D02*
G01Y241000D01*
X445000*
Y0*
X0*
X275620Y222926D02*
G01X303180D01*
Y238674*
X275620*
Y222926*
M02*
