G04 CAM350/DFMSTREAM V12.1 (Build 1022) Date:  Mon Jun 22 17:27:13 2020 *
G04 Database: (Untitled) *
G04 Layer 11: RAK811_v100SMASK_TOP.art *
%FSLAX25Y25*%
%MOIN*%
%SFA1.000B1.000*%

%MIA0B0*%
%IPPOS*%
%ADD15C,0.00500*%
%ADD25R,0.04724X0.15748*%
%ADD46R,0.11024X0.04724*%
%ADD47R,0.04724X0.04724*%
%ADD53R,0.02100X0.06700*%
%ADD54R,0.06700X0.03200*%
%ADD56R,0.08500X0.07000*%
%ADD60R,0.05315X0.08465*%
%ADD61R,0.08465X0.05315*%
%ADD66O,0.07400X0.15400*%
%ADD67O,0.15400X0.07400*%
%ADD68O,0.18400X0.07400*%
%ADD69C,0.09000*%
%ADD74C,0.08300*%
%ADD76C,0.08500*%
%ADD77R,0.09000X0.09000*%
%ADD78C,0.08800*%
%ADD79R,0.05512X0.16535*%
%ADD80R,0.08800X0.08800*%
%ADD81O,0.13000X0.17000*%
%ADD82R,0.13000X0.17000*%
%ADD83C,0.11000*%
%ADD84C,0.14000*%
%ADD85R,0.03800X0.04100*%
%ADD86R,0.11000X0.11000*%
%ADD87C,0.18500*%
%ADD88R,0.08500X0.08500*%
%ADD89R,0.04000X0.12500*%
%ADD90R,0.12500X0.04000*%
%ADD91R,0.10843X0.04543*%
%ADD92R,0.23228X0.07087*%
%ADD93R,0.03000X0.05500*%
%ADD94R,0.05600X0.05100*%
%ADD95R,0.04100X0.03800*%
%ADD96R,0.02700X0.04500*%
%ADD97R,0.05100X0.05600*%
%ADD98R,0.04000X0.08800*%
%ADD99R,0.08800X0.04000*%
%ADD100R,0.02900X0.07900*%
%ADD101R,0.12811X0.15764*%
%ADD102R,0.01969X0.05512*%
%ADD103R,0.05512X0.01969*%
%ADD104R,0.07070X0.08858*%
%ADD105R,0.08858X0.07070*%
%LNRAK811_v100SMASK_TOP.art*%
%LPD*%
G54D84*
X13000Y14000D03*
X14000Y227000D03*
X428000Y13000D03*
X431000Y225000D03*
G54D97*
X16500Y79000D03*
X9500D03*
X16500Y115000D03*
X9500D03*
X16500Y151000D03*
X9500D03*
X127500Y87000D03*
X134500D03*
X160500D03*
X153500D03*
X147500D03*
X140500D03*
X223500Y84000D03*
X230500D03*
G54D67*
X54000Y225600D03*
G54D95*
X10000Y86000D03*
X16000D03*
X10000Y122000D03*
X16000D03*
X10000Y158000D03*
X16000D03*
X75000Y113000D03*
X69000D03*
X74000Y155000D03*
Y160000D03*
Y191000D03*
Y186000D03*
X80000Y155000D03*
Y160000D03*
Y191000D03*
Y186000D03*
X130000Y165000D03*
X124000D03*
X110000D03*
X116000D03*
X166000Y147000D03*
X160000D03*
X166000Y142000D03*
X160000D03*
X166000Y137000D03*
X160000D03*
X169000Y178000D03*
Y173000D03*
X178000Y46000D03*
X172000D03*
X175000Y178000D03*
Y173000D03*
X225000Y46000D03*
X219000D03*
Y135000D03*
X225000D03*
X256000Y132000D03*
X250000D03*
X267000Y46000D03*
X261000D03*
X308000Y45000D03*
X314000D03*
G54D80*
X114800Y46600D03*
G54D78*
X76650Y35400D03*
X71200Y46600D03*
X109350Y35400D03*
X98450D03*
X87550D03*
X103900Y46600D03*
X93000D03*
X82100D03*
G54D94*
X117000Y96500D03*
Y103500D03*
Y117500D03*
Y110500D03*
X198000Y200500D03*
Y207500D03*
X191000Y200500D03*
Y207500D03*
X212000Y200500D03*
Y207500D03*
X205000Y200500D03*
Y207500D03*
X249000Y118500D03*
Y125500D03*
X256000Y118500D03*
Y125500D03*
X263000Y118500D03*
Y125500D03*
X328000Y60500D03*
Y67500D03*
G54D85*
X75000Y77000D03*
Y83000D03*
X74000Y137000D03*
Y143000D03*
X64000Y170000D03*
Y176000D03*
X99000Y149000D03*
Y143000D03*
X152000Y155000D03*
Y138000D03*
Y144000D03*
Y161000D03*
X195000Y184000D03*
X190000D03*
X195000Y190000D03*
X190000D03*
X228000Y168000D03*
Y162000D03*
X210000Y184000D03*
X205000D03*
X200000D03*
X210000Y190000D03*
X205000D03*
X200000D03*
X381000Y76000D03*
Y82000D03*
X386000D03*
Y76000D03*
X381000Y149000D03*
Y155000D03*
X386000D03*
Y149000D03*
X402000Y170000D03*
Y164000D03*
X381000Y223000D03*
Y229000D03*
X386000D03*
Y223000D03*
G54D53*
X188000Y84800D03*
X183000D03*
X198000D03*
X193000D03*
X183000Y105200D03*
X188000D03*
X193000D03*
X198000D03*
X213000Y84800D03*
X208000D03*
X203000D03*
Y105200D03*
X208000D03*
X213000D03*
G54D89*
X17000Y174338D03*
Y197662D03*
G54D102*
X196047Y135299D03*
X194079D03*
X192110D03*
X190142D03*
X188173D03*
Y172701D03*
X190142D03*
X192110D03*
X194079D03*
X196047D03*
X209827Y135299D03*
X207858D03*
X205890D03*
X203921D03*
X201953D03*
X199984D03*
X198016D03*
Y172701D03*
X199984D03*
X201953D03*
X203921D03*
X205890D03*
X207858D03*
X209827D03*
G54D87*
X43950Y41000D03*
X142050D03*
G54D93*
X126500Y96250D03*
X131500D03*
X136500D03*
X131500Y115750D03*
X126500D03*
X136500D03*
X141500Y96250D03*
X146500D03*
X151500D03*
X156500D03*
X161500D03*
X146500Y115750D03*
X141500D03*
X151500D03*
X161500D03*
X156500D03*
G54D91*
X61205Y93055D03*
Y84000D03*
Y74945D03*
G54D79*
X279006Y230800D03*
X299794D03*
G54D103*
X180299Y143173D03*
Y145142D03*
Y147110D03*
Y149079D03*
Y151047D03*
Y153016D03*
Y154984D03*
Y156953D03*
Y158921D03*
Y160890D03*
Y162858D03*
Y164827D03*
X217701Y153016D03*
Y151047D03*
Y149079D03*
Y147110D03*
Y145142D03*
Y143173D03*
Y164827D03*
Y162858D03*
Y160890D03*
Y158921D03*
Y156953D03*
Y154984D03*
G54D101*
X36008Y84000D03*
G54D82*
X121795Y202000D03*
G54D25*
X289400Y230800D03*
G54D46*
X64000Y134094D03*
Y145906D03*
G54D104*
X53000Y183189D03*
Y166811D03*
G54D56*
X168000Y57000D03*
Y67000D03*
X200000D03*
Y57000D03*
X213000D03*
Y67000D03*
X258000Y57000D03*
Y67000D03*
X245000D03*
Y57000D03*
X290000Y67000D03*
Y57000D03*
G54D77*
X211000Y226000D03*
G54D74*
X351000Y17500D03*
Y72500D03*
Y89500D03*
Y144500D03*
Y163500D03*
Y218500D03*
X371000Y17500D03*
Y72500D03*
Y89500D03*
Y144500D03*
Y163500D03*
Y218500D03*
G54D90*
X30338Y113000D03*
X53662D03*
G54D99*
X402000Y65000D03*
X401983Y57811D03*
X402000Y42000D03*
X401983Y80811D03*
X402000Y121000D03*
X401983Y113811D03*
X402000Y98000D03*
X401983Y136811D03*
G54D96*
X71260Y167685D03*
X75000D03*
X71260Y178315D03*
X75000D03*
X78740Y167685D03*
Y178315D03*
G54D92*
X42000Y134748D03*
Y153252D03*
G54D47*
X159850Y154667D03*
X166150D03*
X159850Y163329D03*
X166150D03*
G54D69*
X221000Y226000D03*
X231000D03*
X241000D03*
X251000D03*
G54D100*
X107500Y155500D03*
Y134500D03*
X112500Y155500D03*
X117500D03*
X122500D03*
Y134500D03*
X117500D03*
X112500D03*
X313500Y54500D03*
X308500D03*
X303500D03*
Y75500D03*
X308500D03*
X313500D03*
X318500Y54500D03*
Y75500D03*
G54D54*
X143000Y136300D03*
Y149700D03*
G54D76*
X255000Y152000D03*
Y162000D03*
X286000Y88000D03*
X276000D03*
X317000Y106000D03*
X327000D03*
G54D66*
X35500Y213800D03*
G54D88*
X255000Y142000D03*
G54D83*
X199842Y24000D03*
X239842D03*
X279842D03*
X319842D03*
X426000Y57000D03*
Y76685D03*
Y117000D03*
Y136685D03*
Y177000D03*
Y196685D03*
G54D81*
X106205Y202000D03*
G54D68*
X54000D03*
G54D105*
X104811Y231000D03*
X121189D03*
G54D88*
X266000Y88000D03*
X307000Y106000D03*
G54D86*
X180158Y24000D03*
X220158D03*
X260158D03*
X300158D03*
X426000Y37315D03*
Y97315D03*
Y157315D03*
G54D60*
X289370Y120677D03*
X282283D03*
Y205323D03*
X289370D03*
X317717Y120677D03*
X310630D03*
X303543D03*
X296457D03*
Y205323D03*
X303543D03*
X310630D03*
X317717D03*
G54D98*
X184000Y46000D03*
X199811Y46017D03*
X245811D03*
X230000Y46000D03*
X288811Y46017D03*
X273000Y46000D03*
G54D61*
X273425Y127567D03*
Y134654D03*
Y141740D03*
Y148827D03*
Y155913D03*
Y163000D03*
Y170087D03*
Y177173D03*
Y184260D03*
Y191346D03*
Y198433D03*
X326575Y155913D03*
Y148827D03*
Y141740D03*
Y134654D03*
Y127567D03*
Y184260D03*
Y177173D03*
Y170087D03*
Y163000D03*
Y198433D03*
Y191346D03*
G54D15*
X2000Y239000D02*
G01Y2000D01*
X443000*
Y239000*
X2000*
X0Y0D02*
G01Y241000D01*
X445000*
Y0*
X0*
X275620Y222926D02*
G01X303180D01*
Y238674*
X275620*
Y222926*
M02*
