G04 CAM350/DFMSTREAM V12.1 (Build 1022) Date:  Mon Jun 22 17:27:13 2020 *
G04 Database: (Untitled) *
G04 Layer 7: RAK811_v100PASTE_TOP.art *
%FSLAX25Y25*%
%MOIN*%
%SFA1.000B1.000*%

%MIA0B0*%
%IPPOS*%
%ADD15C,0.00500*%
%ADD25R,0.04724X0.15748*%
%ADD27R,0.03200X0.03500*%
%ADD44R,0.03500X0.12000*%
%ADD45R,0.12000X0.03500*%
%ADD46R,0.11024X0.04724*%
%ADD47R,0.04724X0.04724*%
%ADD48R,0.22441X0.06299*%
%ADD49R,0.02200X0.04000*%
%ADD50R,0.05000X0.04500*%
%ADD51R,0.03500X0.03200*%
%ADD52R,0.04500X0.05000*%
%ADD53R,0.02100X0.06700*%
%ADD54R,0.06700X0.03200*%
%ADD55R,0.02500X0.07500*%
%ADD56R,0.08500X0.07000*%
%ADD57R,0.01181X0.04724*%
%ADD58R,0.04724X0.01181*%
%ADD59R,0.11811X0.14764*%
%ADD60R,0.05315X0.08465*%
%ADD61R,0.08465X0.05315*%
%ADD62R,0.09843X0.03543*%
%ADD63R,0.06678X0.08464*%
%ADD64R,0.08464X0.06678*%
%LNRAK811_v100PASTE_TOP.art*%
%LPD*%
G54D52*
X16500Y79000D03*
X9500D03*
X16500Y115000D03*
X9500D03*
X16500Y151000D03*
X9500D03*
X127500Y87000D03*
X134500D03*
X160500D03*
X153500D03*
X147500D03*
X140500D03*
X223500Y84000D03*
X230500D03*
G54D51*
X10000Y86000D03*
X16000D03*
X10000Y122000D03*
X16000D03*
X10000Y158000D03*
X16000D03*
X75000Y113000D03*
X69000D03*
X74000Y155000D03*
Y160000D03*
Y191000D03*
Y186000D03*
X80000Y155000D03*
Y160000D03*
Y191000D03*
Y186000D03*
X130000Y165000D03*
X124000D03*
X110000D03*
X116000D03*
X166000Y147000D03*
X160000D03*
X166000Y142000D03*
X160000D03*
X166000Y137000D03*
X160000D03*
X169000Y178000D03*
Y173000D03*
X178000Y46000D03*
X172000D03*
X175000Y178000D03*
Y173000D03*
X225000Y46000D03*
X219000D03*
Y135000D03*
X225000D03*
X256000Y132000D03*
X250000D03*
X267000Y46000D03*
X261000D03*
X308000Y45000D03*
X314000D03*
G54D49*
X71260Y167685D03*
X75000D03*
X71260Y178315D03*
X75000D03*
X78740Y167685D03*
Y178315D03*
G54D60*
X289370Y120677D03*
X282283D03*
Y205323D03*
X289370D03*
X317717Y120677D03*
X310630D03*
X303543D03*
X296457D03*
Y205323D03*
X303543D03*
X310630D03*
X317717D03*
G54D55*
X107500Y155500D03*
Y134500D03*
X112500Y155500D03*
X117500D03*
X122500D03*
Y134500D03*
X117500D03*
X112500D03*
X313500Y54500D03*
X308500D03*
X303500D03*
Y75500D03*
X308500D03*
X313500D03*
X318500Y54500D03*
Y75500D03*
G54D44*
X17000Y174338D03*
Y197662D03*
G54D64*
X104811Y231000D03*
X121189D03*
G54D61*
X273425Y127567D03*
Y134654D03*
Y141740D03*
Y148827D03*
Y155913D03*
Y163000D03*
Y170087D03*
Y177173D03*
Y184260D03*
Y191346D03*
Y198433D03*
X326575Y155913D03*
Y148827D03*
Y141740D03*
Y134654D03*
Y127567D03*
Y184260D03*
Y177173D03*
Y170087D03*
Y163000D03*
Y198433D03*
Y191346D03*
G54D59*
X36008Y84000D03*
G54D50*
X117000Y96500D03*
Y103500D03*
Y117500D03*
Y110500D03*
X198000Y200500D03*
Y207500D03*
X191000Y200500D03*
Y207500D03*
X212000Y200500D03*
Y207500D03*
X205000Y200500D03*
Y207500D03*
X249000Y118500D03*
Y125500D03*
X256000Y118500D03*
Y125500D03*
X263000Y118500D03*
Y125500D03*
X328000Y60500D03*
Y67500D03*
G54D25*
X289400Y230800D03*
G54D45*
X30338Y113000D03*
X53662D03*
G54D56*
X168000Y57000D03*
Y67000D03*
X200000D03*
Y57000D03*
X213000D03*
Y67000D03*
X258000Y57000D03*
Y67000D03*
X245000D03*
Y57000D03*
X290000Y67000D03*
Y57000D03*
G54D48*
X42000Y134748D03*
Y153252D03*
G54D27*
X75000Y77000D03*
Y83000D03*
X74000Y137000D03*
Y143000D03*
X64000Y170000D03*
Y176000D03*
X99000Y149000D03*
Y143000D03*
X152000Y155000D03*
Y138000D03*
Y144000D03*
Y161000D03*
X195000Y184000D03*
X190000D03*
X195000Y190000D03*
X190000D03*
X228000Y168000D03*
Y162000D03*
X210000Y184000D03*
X205000D03*
X200000D03*
X210000Y190000D03*
X205000D03*
X200000D03*
X381000Y76000D03*
Y82000D03*
X386000D03*
Y76000D03*
X381000Y149000D03*
Y155000D03*
X386000D03*
Y149000D03*
X402000Y170000D03*
Y164000D03*
X381000Y223000D03*
Y229000D03*
X386000D03*
Y223000D03*
G54D47*
X159850Y154667D03*
X166150D03*
X159850Y163329D03*
X166150D03*
G54D62*
X61205Y93055D03*
Y84000D03*
Y74945D03*
G54D54*
X143000Y136300D03*
Y149700D03*
G54D53*
X188000Y84800D03*
X183000D03*
X198000D03*
X193000D03*
X183000Y105200D03*
X188000D03*
X193000D03*
X198000D03*
X213000Y84800D03*
X208000D03*
X203000D03*
Y105200D03*
X208000D03*
X213000D03*
G54D46*
X64000Y134094D03*
Y145906D03*
G54D63*
X53000Y183189D03*
Y166811D03*
G54D57*
X196047Y135299D03*
X194079D03*
X192110D03*
X190142D03*
X188173D03*
Y172701D03*
X190142D03*
X192110D03*
X194079D03*
X196047D03*
X209827Y135299D03*
X207858D03*
X205890D03*
X203921D03*
X201953D03*
X199984D03*
X198016D03*
Y172701D03*
X199984D03*
X201953D03*
X203921D03*
X205890D03*
X207858D03*
X209827D03*
G54D58*
X180299Y143173D03*
Y145142D03*
Y147110D03*
Y149079D03*
Y151047D03*
Y153016D03*
Y154984D03*
Y156953D03*
Y158921D03*
Y160890D03*
Y162858D03*
Y164827D03*
X217701Y153016D03*
Y151047D03*
Y149079D03*
Y147110D03*
Y145142D03*
Y143173D03*
Y164827D03*
Y162858D03*
Y160890D03*
Y158921D03*
Y156953D03*
Y154984D03*
G54D15*
X2000Y239000D02*
G01Y2000D01*
X443000*
Y239000*
X2000*
X0Y0D02*
G01Y241000D01*
X445000*
Y0*
X0*
X275620Y222926D02*
G01X303180D01*
Y238674*
X275620*
Y222926*
M02*
