M48
INCH,LZ
VER,1
FMAT,2
T01C0.024F1B1S6H2000
T02C0.0315F1B1S6H2000
T03C0.035F1B1S6H2000
T04C0.04F1B1S6H2000
T05C0.04F1B1S6H2000
T06C0.045F1B1S6H2000
T07C0.05F1B1S6H2000
T08C0.055F1B1S6H2000
T09C0.08F1B1S6H2000
T10C0.12F1B1S6H2000
T11C0.14F1B1S6H2000
DETECT,ON
ATC,ON
%
T01
X032009Y017009
X0193Y0111
X0203
X0213Y011125
X0367Y00418
X0313Y0065
X0181Y0195
X0223Y009
X0262Y0132
X02174Y01393
X0179Y0175
X017476Y01902
X0173Y0137
X0234Y0168
X0328Y0051
X016Y0132
X0171Y015
X0191Y01575
X0206Y01545
Y01625
X0145
X0156Y01705
X0087Y0204
X0287Y0134
X0312
X0287Y0154
Y0169
X0312Y0184
X0287
X0262
X0237
Y0209
X0167
X0192Y0224
X0167
X0142
X02959Y02253
Y02362
X02829
X02828Y02256
X03002Y02197
X02787Y02193
X0272Y02259
Y02367
X03069Y02261
X03071Y02367
X0412Y0194
Y0129
X0417Y0069
X0387Y0024
X0212Y0039
X0187Y0069
Y0034
X0122Y0079
X0142Y0064
X0122
X0142Y0024
X0122
X0102
X0082
X0062
Y0054
X0042
X0022
X0082Y0064
X0062
X0042
X0022
X0017Y0134
X0007
Y0189
X0027Y0229
Y0209
X0007
X003034Y0109
X0076Y01075
X00612Y00713
X0075Y00735
X00165Y0145
Y01097
Y00735
X019Y0194
X0381Y0233
X0164Y0178
X028228Y012672
X0256Y0114
X0263
X0183Y0112
X01605Y0081
X0232Y0077
X0174Y0067
X0221
X0265
X030119Y004819
X0325Y0074
X0358Y0023
X040198Y014198
Y008498
X0381Y0089
X03445Y00895
X0379Y0159
X03455Y01635
X033383Y014883
X033257Y019843
X026343
X028228Y021272
X029646Y021346
X030354Y021354
X031063Y021363
X031772Y021372
X016967Y016333
X015633Y015467
X0157Y0147
X0152Y0148
X0143Y0154
X01125Y01505
X0085Y0191
X01115Y01175
X01315Y01105
X0117Y0091
X01225Y01295
X01175
X01125
X01075
X0099Y0139
X020786Y014186
X0187Y0151
X0228Y013101
X0233Y0162
X019014Y0166
X0067Y0097
X0059
X006694Y01023
X0059
T02
X027901Y02308
X029979
T03
X0211Y0226
X0221
X0231
X0241
X0251
T04
X0255Y0142
X0266Y0088
X0307Y0106
T05
X00585Y0202
X00575
X00565
X00555
X00545
X00535
X00525
X00515
X00505
X00495
X00576Y02256
X00568
X0056
X00552
X00544
X00536
X00528
X0052
X00512
X00504
X00355Y02102
Y0211
Y02118
Y02126
Y02134
Y02142
Y0215
Y02158
Y02166
Y02174
T06
X01148Y00466
X01039
X0093
X00821
X00712
X010935Y00354
X009845
X008755
X007665
T07
X0255Y0152
Y0162
X0276Y0088
X0286
X0317Y0106
X0327
T08
X022016Y0024
X023984
X018016
X019984
X030016
X031984
X026016
X027984
X0426Y003732
Y005701
Y00767
X0371Y00725
Y00175
X0351Y00725
Y00175
X0426Y009732
Y0117
Y013668
Y015732
Y0177
Y019668
X0371Y01445
Y00895
X0351Y01445
Y00895
X0371Y02185
Y01635
X0351Y02185
Y01635
T09
X01218Y0202
X01062
T10
X0013Y0014
X0014Y0227
X0428Y0013
X0431Y0225
T11
X014205Y0041
X004395
M30
